<svg width="304" height="304" viewBox="0 0 304 304" fill="none" xmlns="http://www.w3.org/2000/svg">
<circle cx="152" cy="152" r="151.679" stroke="#EC1E28" stroke-opacity="0.2" stroke-width="0.64135"/>
<circle cx="152" cy="152" r="136.287" stroke="#EC1E28" stroke-opacity="0.4" stroke-width="0.64135"/>
<circle cx="152" cy="152" r="127.308" stroke="#EC1E28" stroke-opacity="0.6" stroke-width="0.64135"/>
<g filter="url(#filter0_i_4239_530)">
<circle cx="152" cy="152" r="123.139" fill="url(#paint0_radial_4239_530)"/>
</g>
<circle cx="152" cy="152" r="122.819" stroke="#EC1E28" stroke-width="0.64135"/>
<path d="M147.779 136.446C148.331 136.998 147.242 137.93 146.864 140.202C146.319 143.469 147.305 147.367 148.252 150.177C149.003 152.404 149.22 155.481 149.199 156.554C149.08 154.537 148.14 150.314 145.332 149.562C142.304 148.75 139.309 149.151 137.813 149.621C139.642 148.892 142.713 147.366 143.943 145.617C145.664 143.17 143.659 143.627 141.671 145.142C140.08 146.354 132.527 152.066 129.455 154.77C132.159 151.698 137.87 144.144 139.082 142.553C140.597 140.565 141.055 138.561 138.608 140.281C136.859 141.512 135.332 144.582 134.603 146.411C135.073 144.915 135.474 141.92 134.663 138.892C133.91 136.084 129.687 135.144 127.67 135.025C128.744 135.004 131.821 135.221 134.047 135.972C136.857 136.919 140.755 137.906 144.023 137.361C146.295 136.982 147.227 135.893 147.779 136.446ZM176.051 133.826C174.534 133.888 170.523 134.136 166.603 134.627C161.702 135.242 159.731 136.952 158.418 136.738C157.104 136.525 156.396 135.722 154.779 134.894C154.227 134.611 153.476 134.39 152.717 134.223C152.179 134.104 151.622 134.286 151.233 134.676C150.843 135.065 150.662 135.622 150.78 136.16C150.948 136.918 151.169 137.669 151.452 138.222C152.28 139.839 153.082 140.546 153.296 141.86C153.51 143.174 151.799 145.144 151.184 150.046C150.693 153.966 150.446 157.977 150.383 159.493C150.321 157.977 150.073 153.966 149.582 150.046C148.967 145.145 147.257 143.174 147.471 141.86C147.684 140.546 148.486 139.839 149.314 138.222C149.597 137.67 149.819 136.918 149.986 136.16C150.105 135.622 149.923 135.065 149.534 134.676C149.144 134.286 148.588 134.104 148.049 134.223C147.291 134.39 146.539 134.612 145.987 134.895C144.37 135.723 143.663 136.525 142.349 136.738C141.035 136.952 139.064 135.242 134.163 134.627C130.243 134.136 126.231 133.888 124.714 133.826C126.23 133.763 130.242 133.516 134.163 133.025C139.064 132.41 141.035 130.699 142.349 130.913C143.663 131.127 144.37 131.929 145.987 132.757C146.537 133.039 147.283 133.259 148.037 133.426C148.578 133.545 149.137 133.363 149.528 132.971C149.92 132.58 150.103 132.02 149.983 131.479C149.817 130.725 149.596 129.979 149.315 129.43C148.487 127.813 147.684 127.105 147.471 125.791C147.257 124.478 148.967 122.507 149.582 117.606C150.073 113.686 150.321 109.674 150.383 108.158V108.156C150.446 109.672 150.693 113.685 151.184 117.606C151.799 122.507 153.509 124.478 153.295 125.792C153.081 127.105 152.28 127.813 151.452 129.43C151.17 129.979 150.95 130.725 150.783 131.479C150.663 132.02 150.846 132.58 151.238 132.971C151.63 133.363 152.189 133.545 152.73 133.426C153.484 133.259 154.23 133.039 154.779 132.757C156.396 131.929 157.103 131.128 158.417 130.914C159.731 130.7 161.702 132.41 166.603 133.025C170.524 133.516 174.537 133.763 176.052 133.826H176.051ZM149.199 111.113C149.22 112.186 149.003 115.263 148.252 117.49C147.305 120.299 146.318 124.198 146.863 127.465C147.242 129.738 148.331 130.669 147.779 131.222C147.226 131.774 146.295 130.685 144.022 130.306C140.755 129.761 136.857 130.748 134.047 131.695C131.821 132.445 128.744 132.662 127.67 132.641C129.687 132.523 133.91 131.583 134.663 128.774C135.474 125.747 135.074 122.752 134.604 121.257C135.333 123.086 136.859 126.156 138.608 127.386C141.055 129.107 140.597 127.102 139.082 125.113C137.87 123.522 132.158 115.97 129.454 112.897C132.526 115.601 140.08 121.312 141.671 122.524C143.659 124.039 145.663 124.498 143.943 122.051C142.713 120.302 139.643 118.775 137.814 118.046C139.31 118.516 142.304 118.916 145.332 118.105C148.14 117.352 149.08 113.13 149.199 111.113ZM173.112 135.025C171.094 135.144 166.872 136.084 166.119 138.892C165.308 141.92 165.709 144.915 166.179 146.411C165.45 144.582 163.923 141.512 162.173 140.281C159.727 138.561 160.185 140.565 161.7 142.554C162.913 144.146 168.624 151.699 171.328 154.771C168.256 152.067 160.703 146.355 159.112 145.143C157.123 143.628 155.118 143.17 156.838 145.617C158.069 147.366 161.139 148.892 162.968 149.621C161.473 149.151 158.478 148.75 155.45 149.562C152.642 150.314 151.702 154.537 151.583 156.554C151.562 155.48 151.78 152.404 152.53 150.177C153.477 147.368 154.463 143.47 153.919 140.203C153.54 137.93 152.451 136.999 153.003 136.446C153.556 135.894 154.487 136.983 156.76 137.362C160.027 137.906 163.926 136.92 166.735 135.973C168.962 135.222 172.038 135.004 173.112 135.025ZM145.386 138.839C145.059 138.93 144.699 139.013 144.308 139.079C143.537 139.207 142.743 139.261 141.944 139.257C142.047 139.551 142.071 139.825 142.072 140.02C142.074 140.709 141.796 141.396 141.553 141.889C141.277 142.447 140.9 143.04 140.467 143.609C140.351 143.761 140.192 143.971 139.996 144.229C140.253 144.033 140.463 143.873 140.615 143.758C141.185 143.324 141.778 142.948 142.336 142.672C142.829 142.428 143.515 142.15 144.204 142.153C144.4 142.154 144.674 142.178 144.967 142.281C144.964 141.481 145.017 140.687 145.146 139.916C145.211 139.525 145.294 139.166 145.386 138.839ZM145.332 133.826C144.51 133.397 143.854 132.946 143.404 132.672C142.917 132.376 142.573 132.216 142.148 132.147C142.115 132.142 141.976 132.135 141.579 132.259C141.177 132.385 140.726 132.57 140.042 132.828C139.192 133.148 138.135 133.517 136.801 133.826C138.135 134.134 139.192 134.504 140.042 134.823C140.726 135.081 141.177 135.267 141.579 135.392C141.976 135.517 142.116 135.51 142.148 135.504C142.573 135.435 142.917 135.275 143.404 134.979C143.854 134.705 144.51 134.254 145.332 133.826ZM150.383 138.877C149.955 139.699 149.504 140.355 149.23 140.805C148.934 141.292 148.774 141.636 148.705 142.061C148.699 142.093 148.692 142.233 148.816 142.63C148.942 143.032 149.128 143.483 149.385 144.167C149.705 145.017 150.075 146.074 150.383 147.408C150.692 146.074 151.061 145.017 151.381 144.167C151.639 143.483 151.824 143.032 151.95 142.63C152.074 142.233 152.067 142.093 152.062 142.061C151.993 141.636 151.833 141.292 151.536 140.805C151.263 140.355 150.812 139.698 150.383 138.877ZM144.967 125.387C144.674 125.49 144.399 125.514 144.204 125.514C143.515 125.517 142.828 125.239 142.335 124.995C141.778 124.72 141.185 124.343 140.616 123.91C140.464 123.794 140.253 123.635 139.996 123.439C140.192 123.696 140.351 123.906 140.467 124.058C140.901 124.628 141.277 125.221 141.552 125.778C141.796 126.271 142.074 126.958 142.071 127.647C142.071 127.842 142.047 128.117 141.944 128.41C142.744 128.407 143.538 128.46 144.309 128.589C144.7 128.654 145.059 128.738 145.386 128.829C145.294 128.502 145.211 128.142 145.146 127.751C145.018 126.98 144.964 126.186 144.967 125.387ZM158.837 139.257C158.038 139.261 157.245 139.207 156.474 139.079C156.083 139.013 155.723 138.93 155.396 138.839C155.487 139.166 155.571 139.525 155.636 139.916C155.765 140.687 155.818 141.481 155.814 142.281C156.108 142.178 156.382 142.154 156.577 142.153C157.267 142.15 157.953 142.429 158.447 142.673C159.004 142.948 159.597 143.324 160.167 143.758C160.319 143.873 160.528 144.033 160.786 144.229C160.59 143.971 160.431 143.761 160.315 143.609C159.881 143.04 159.505 142.447 159.23 141.89C158.986 141.397 158.707 140.71 158.71 140.02C158.71 139.825 158.735 139.551 158.837 139.257ZM150.383 120.244C150.075 121.577 149.705 122.634 149.385 123.484C149.128 124.169 148.942 124.62 148.816 125.021C148.692 125.417 148.699 125.558 148.705 125.59C148.774 126.015 148.933 126.36 149.229 126.847C149.503 127.297 149.954 127.953 150.383 128.775C150.811 127.953 151.263 127.296 151.536 126.846C151.833 126.359 151.993 126.015 152.062 125.59C152.067 125.557 152.074 125.417 151.95 125.021C151.824 124.62 151.639 124.169 151.381 123.484C151.061 122.634 150.692 121.577 150.383 120.244ZM163.965 133.826C162.632 133.517 161.575 133.148 160.725 132.828C160.04 132.57 159.588 132.385 159.187 132.26C158.791 132.136 158.651 132.142 158.619 132.147C158.194 132.216 157.85 132.376 157.362 132.672C156.913 132.946 156.256 133.398 155.434 133.826C156.256 134.255 156.912 134.706 157.362 134.98C157.849 135.276 158.194 135.435 158.619 135.504C158.651 135.51 158.791 135.517 159.188 135.392C159.589 135.267 160.04 135.081 160.725 134.823C161.575 134.504 162.632 134.134 163.965 133.826ZM171.328 112.897C168.624 115.969 162.912 123.522 161.7 125.113C160.185 127.102 159.727 129.107 162.173 127.386C163.923 126.156 165.449 123.086 166.178 121.257C165.708 122.752 165.307 125.747 166.118 128.775C166.871 131.583 171.094 132.523 173.111 132.642C172.037 132.663 168.961 132.445 166.734 131.695C163.925 130.748 160.027 129.762 156.76 130.306C154.487 130.685 153.556 131.774 153.003 131.222C152.451 130.669 153.54 129.738 153.919 127.465C154.463 124.198 153.476 120.299 152.529 117.49C151.779 115.263 151.561 112.187 151.582 111.113C151.701 113.13 152.641 117.353 155.449 118.106C158.477 118.917 161.472 118.516 162.968 118.046C161.138 118.775 158.068 120.302 156.838 122.051C155.118 124.498 157.122 124.04 159.111 122.524C160.702 121.312 168.255 115.601 171.328 112.897ZM160.166 123.91C159.597 124.343 159.004 124.72 158.447 124.995C157.953 125.239 157.267 125.518 156.577 125.515C156.382 125.514 156.108 125.49 155.814 125.387C155.818 126.186 155.764 126.98 155.635 127.751C155.57 128.142 155.487 128.502 155.396 128.829C155.723 128.737 156.082 128.654 156.473 128.589C157.244 128.46 158.038 128.407 158.837 128.41C158.735 128.117 158.71 127.843 158.71 127.647C158.707 126.958 158.986 126.271 159.23 125.778C159.505 125.221 159.881 124.628 160.315 124.058C160.43 123.906 160.59 123.696 160.786 123.439C160.528 123.635 160.318 123.794 160.166 123.91Z" fill="#D61E24"/>
<path d="M129.42 178.766C129.42 179.685 129.625 180.497 130.033 181.2C130.453 181.903 130.997 182.454 131.667 182.851C132.336 183.248 133.062 183.446 133.845 183.446C134.412 183.446 134.928 183.373 135.394 183.225C135.87 183.078 136.301 182.873 136.687 182.612C137.073 182.34 137.402 182.028 137.674 181.676V183.582C137.175 184.025 136.63 184.354 136.04 184.569C135.45 184.785 134.719 184.893 133.845 184.893C133.017 184.893 132.24 184.745 131.514 184.45C130.799 184.144 130.169 183.719 129.625 183.174C129.08 182.618 128.655 181.966 128.348 181.217C128.042 180.468 127.889 179.651 127.889 178.766C127.889 177.882 128.042 177.065 128.348 176.316C128.655 175.567 129.08 174.92 129.625 174.376C130.169 173.82 130.799 173.394 131.514 173.1C132.24 172.793 133.017 172.64 133.845 172.64C134.719 172.64 135.45 172.748 136.04 172.963C136.63 173.179 137.175 173.508 137.674 173.95V175.856C137.402 175.505 137.073 175.198 136.687 174.937C136.301 174.665 135.87 174.455 135.394 174.308C134.928 174.16 134.412 174.087 133.845 174.087C133.062 174.087 132.336 174.285 131.667 174.682C130.997 175.079 130.453 175.629 130.033 176.333C129.625 177.025 129.42 177.836 129.42 178.766ZM141.921 172.81H143.368V183.361H148.048V184.723H141.921V172.81ZM151.199 172.81H152.646V180.809C152.646 181.625 152.867 182.283 153.309 182.783C153.752 183.282 154.398 183.531 155.249 183.531C156.1 183.531 156.747 183.282 157.189 182.783C157.632 182.283 157.853 181.625 157.853 180.809V172.81H159.3V180.809C159.3 181.399 159.203 181.943 159.01 182.442C158.829 182.941 158.556 183.373 158.193 183.736C157.842 184.099 157.416 184.382 156.917 184.587C156.418 184.791 155.862 184.893 155.249 184.893C154.637 184.893 154.081 184.791 153.582 184.587C153.082 184.382 152.651 184.099 152.288 183.736C151.937 183.373 151.664 182.941 151.471 182.442C151.29 181.943 151.199 181.399 151.199 180.809V172.81ZM164.779 178.426V177.626H166.702C167.099 177.626 167.456 177.558 167.774 177.422C168.092 177.286 168.341 177.087 168.523 176.826C168.704 176.565 168.795 176.248 168.795 175.873C168.795 175.306 168.597 174.869 168.199 174.563C167.802 174.245 167.303 174.087 166.702 174.087H165.085V183.446H166.872C167.383 183.446 167.831 183.356 168.217 183.174C168.614 182.993 168.92 182.732 169.135 182.391C169.362 182.051 169.476 181.637 169.476 181.149C169.476 180.786 169.413 180.463 169.289 180.179C169.164 179.895 168.982 179.657 168.744 179.464C168.517 179.271 168.245 179.129 167.927 179.039C167.61 178.937 167.258 178.886 166.872 178.886H164.779V178.086H166.872C167.451 178.086 167.984 178.148 168.472 178.273C168.96 178.398 169.385 178.591 169.748 178.852C170.123 179.101 170.412 179.424 170.616 179.822C170.82 180.219 170.922 180.689 170.922 181.234C170.922 182.017 170.741 182.669 170.378 183.191C170.026 183.702 169.544 184.087 168.931 184.348C168.33 184.598 167.644 184.723 166.872 184.723H163.639V172.81H166.702C167.417 172.81 168.035 172.918 168.557 173.134C169.09 173.349 169.504 173.678 169.799 174.121C170.094 174.552 170.242 175.108 170.242 175.788C170.242 176.344 170.094 176.821 169.799 177.218C169.504 177.615 169.09 177.916 168.557 178.12C168.035 178.324 167.417 178.426 166.702 178.426H164.779Z" fill="white"/>
<path d="M144.37 83.9742C147.908 83.0294 151.633 83.0295 155.171 83.9742L197.083 95.1666C200.626 96.113 203.092 99.3149 203.092 102.975V145.708C203.092 161.928 196.627 177.484 185.12 188.953L156.288 217.689C152.688 221.276 146.852 221.276 143.253 217.689L114.421 188.953C102.913 177.484 96.448 161.928 96.4479 145.708V102.975C96.4481 99.3149 98.9149 96.113 102.458 95.1666L144.37 83.9742ZM154.94 84.8394C151.553 83.935 147.987 83.935 144.6 84.8394L102.69 96.0318L102.396 96.1168C99.4015 97.0525 97.3446 99.8242 97.3444 102.975V145.708C97.3445 161.689 103.715 177.017 115.053 188.318L143.885 217.054C147.135 220.293 152.405 220.293 155.655 217.054L184.488 188.318C195.827 177.017 202.197 161.689 202.197 145.708V102.975C202.197 99.7226 200.004 96.874 196.851 96.0318L154.94 84.8394ZM144.868 85.6998C148.08 84.843 151.462 84.8429 154.674 85.6998L196.758 96.9283C199.437 97.6431 201.3 100.06 201.3 102.821V145.688C201.3 161.426 195.021 176.519 183.844 187.648L154.892 216.475C152.064 219.291 147.477 219.291 144.649 216.475L115.696 187.648C104.519 176.519 98.24 161.426 98.2399 145.688V102.821C98.2399 100.06 100.103 97.6431 102.782 96.9283L144.868 85.6998ZM153.808 88.9137C151.163 88.208 148.378 88.2081 145.733 88.9137L103.647 100.142C102.43 100.467 101.583 101.566 101.583 102.821V145.688C101.583 160.543 107.51 174.79 118.06 185.295L147.012 214.123C148.535 215.639 151.005 215.639 152.528 214.123L181.48 185.295C192.03 174.79 197.958 160.543 197.958 145.688V102.821C197.958 101.566 197.111 100.467 195.893 100.142L153.808 88.9137ZM146.037 90.1793C148.482 89.5263 151.058 89.5263 153.504 90.1793L195.415 101.373C196.142 101.567 196.649 102.225 196.649 102.975V145.708L196.644 146.387C196.466 160.656 190.702 174.304 180.565 184.408L151.732 213.146L151.629 213.244C150.575 214.192 148.967 214.192 147.913 213.244L147.808 213.146L118.975 184.408C108.677 174.143 102.892 160.223 102.892 145.708V102.975C102.892 102.272 103.337 101.65 103.992 101.415L104.126 101.373L146.037 90.1793ZM153.273 91.0455C150.979 90.4329 148.562 90.4329 146.268 91.0455L104.357 102.239C104.02 102.329 103.788 102.632 103.788 102.975V145.708C103.788 159.984 109.478 173.677 119.608 183.773L148.441 212.511C149.175 213.242 150.366 213.242 151.099 212.511L179.932 183.773C190.062 173.677 195.753 159.984 195.753 145.708V102.975C195.752 102.632 195.521 102.329 195.184 102.239L153.273 91.0455Z" fill="#EC1E28"/>
<mask id="path-9-outside-1_4239_530" maskUnits="userSpaceOnUse" x="80.5063" y="188.806" width="137" height="58" fill="black">
<rect fill="white" x="80.5063" y="188.806" width="137" height="58"/>
<path d="M123.169 227.047L117.303 234.939L109.091 232.592V230.939L104.826 234.885L91.815 231.739V203.638L86.8027 202.359L93.308 194.84L100.667 196.813V225.181L106.639 226.674L109.091 224.594V197.826L117.943 194.467V225.927L123.169 227.047ZM151.877 227.26L146.865 234.939L140.2 231.846V214.569L135.614 213.13V233.872H126.709V213.45L123.616 212.383L129.162 203.532L134.867 207.691L137.534 203.852L149.105 207.691V226.247L151.877 227.26ZM168.621 227.527L162.968 234.992L156.516 231.633V213.236L153.317 212.117L158.703 204.545L165.368 208.491V226.14L168.621 227.527ZM166.328 200.119L160.302 204.758L154.383 200.119L160.249 195.053L166.328 200.119ZM189.259 206.198L184.46 213.343H182.434V225.874L188.299 227.953L181.58 234.885L173.529 231.579V213.343H169.689L173.529 206.998V201.452L182.434 198.093V206.198H189.259ZM213.947 236.805L204.935 243.097L188.085 241.071L196.99 233.979L205.095 235.152V231.259L201.683 234.192L192.191 231.366V212.543L189.098 211.423L194.591 203.638L200.776 206.998V225.714L203.229 226.62L205.095 225.181V206.944L213.947 203.532V236.805Z"/>
</mask>
<path d="M123.169 227.047L117.303 234.939L109.091 232.592V230.939L104.826 234.885L91.815 231.739V203.638L86.8027 202.359L93.308 194.84L100.667 196.813V225.181L106.639 226.674L109.091 224.594V197.826L117.943 194.467V225.927L123.169 227.047ZM151.877 227.26L146.865 234.939L140.2 231.846V214.569L135.614 213.13V233.872H126.709V213.45L123.616 212.383L129.162 203.532L134.867 207.691L137.534 203.852L149.105 207.691V226.247L151.877 227.26ZM168.621 227.527L162.968 234.992L156.516 231.633V213.236L153.317 212.117L158.703 204.545L165.368 208.491V226.14L168.621 227.527ZM166.328 200.119L160.302 204.758L154.383 200.119L160.249 195.053L166.328 200.119ZM189.259 206.198L184.46 213.343H182.434V225.874L188.299 227.953L181.58 234.885L173.529 231.579V213.343H169.689L173.529 206.998V201.452L182.434 198.093V206.198H189.259ZM213.947 236.805L204.935 243.097L188.085 241.071L196.99 233.979L205.095 235.152V231.259L201.683 234.192L192.191 231.366V212.543L189.098 211.423L194.591 203.638L200.776 206.998V225.714L203.229 226.62L205.095 225.181V206.944L213.947 203.532V236.805Z" fill="white"/>
<path d="M123.169 227.047L125.9 229.077L129.058 224.828L123.882 223.719L123.169 227.047ZM117.303 234.939L116.368 238.211L118.631 238.858L120.035 236.969L117.303 234.939ZM109.091 232.592H105.688V235.16L108.156 235.865L109.091 232.592ZM109.091 230.939H112.495V223.155L106.78 228.441L109.091 230.939ZM104.826 234.885L104.026 238.193L105.798 238.622L107.137 237.384L104.826 234.885ZM91.815 231.739H88.4115V234.418L91.0151 235.047L91.815 231.739ZM91.815 203.638H95.2186V200.995L92.657 200.341L91.815 203.638ZM86.8027 202.359L84.2289 200.132L80.6269 204.294L85.9607 205.656L86.8027 202.359ZM93.308 194.84L94.1895 191.553L92.1296 191L90.7342 192.613L93.308 194.84ZM100.667 196.813H104.07V194.202L101.548 193.526L100.667 196.813ZM100.667 225.181H97.263V227.838L99.8411 228.482L100.667 225.181ZM106.639 226.674L105.813 229.976L107.508 230.399L108.84 229.27L106.639 226.674ZM109.091 224.594L111.293 227.19L112.495 226.171V224.594H109.091ZM109.091 197.826L107.884 194.644L105.688 195.477V197.826H109.091ZM117.943 194.467H121.347V189.535L116.735 191.285L117.943 194.467ZM117.943 225.927H114.539V228.679L117.23 229.255L117.943 225.927ZM123.169 227.047L120.437 225.017L114.571 232.908L117.303 234.939L120.035 236.969L125.9 229.077L123.169 227.047ZM117.303 234.939L118.238 231.666L110.027 229.32L109.091 232.592L108.156 235.865L116.368 238.211L117.303 234.939ZM109.091 232.592H112.495V230.939H109.091H105.688V232.592H109.091ZM109.091 230.939L106.78 228.441L102.515 232.387L104.826 234.885L107.137 237.384L111.403 233.438L109.091 230.939ZM104.826 234.885L105.626 231.577L92.615 228.431L91.815 231.739L91.0151 235.047L104.026 238.193L104.826 234.885ZM91.815 231.739H95.2186V203.638H91.815H88.4115V231.739H91.815ZM91.815 203.638L92.657 200.341L87.6447 199.061L86.8027 202.359L85.9607 205.656L90.973 206.936L91.815 203.638ZM86.8027 202.359L89.3765 204.586L95.8819 197.067L93.308 194.84L90.7342 192.613L84.2289 200.132L86.8027 202.359ZM93.308 194.84L92.4266 198.128L99.7851 200.1L100.667 196.813L101.548 193.526L94.1895 191.553L93.308 194.84ZM100.667 196.813H97.263V225.181H100.667H104.07V196.813H100.667ZM100.667 225.181L99.8411 228.482L105.813 229.976L106.639 226.674L107.464 223.372L101.492 221.879L100.667 225.181ZM106.639 226.674L108.84 229.27L111.293 227.19L109.091 224.594L106.89 221.998L104.438 224.077L106.639 226.674ZM109.091 224.594H112.495V197.826H109.091H105.688V224.594H109.091ZM109.091 197.826L110.299 201.008L119.151 197.649L117.943 194.467L116.735 191.285L107.884 194.644L109.091 197.826ZM117.943 194.467H114.539V225.927H117.943H121.347V194.467H117.943ZM117.943 225.927L117.23 229.255L122.455 230.375L123.169 227.047L123.882 223.719L118.656 222.599L117.943 225.927ZM151.877 227.26L154.727 229.121L157.069 225.533L153.045 224.063L151.877 227.26ZM146.865 234.939L145.432 238.026L148.105 239.266L149.715 236.799L146.865 234.939ZM140.2 231.846H136.796V234.019L138.767 234.933L140.2 231.846ZM140.2 214.569H143.603V212.071L141.219 211.322L140.2 214.569ZM135.614 213.13L136.633 209.882L132.21 208.494V213.13H135.614ZM135.614 233.872V237.276H139.018V233.872H135.614ZM126.709 233.872H123.306V237.276H126.709V233.872ZM126.709 213.45H130.113V211.023L127.819 210.232L126.709 213.45ZM123.616 212.383L120.732 210.576L118.459 214.205L122.507 215.601L123.616 212.383ZM129.162 203.532L131.167 200.781L128.216 198.63L126.278 201.725L129.162 203.532ZM134.867 207.691L132.863 210.441L135.677 212.493L137.663 209.632L134.867 207.691ZM137.534 203.852L138.605 200.621L136.19 199.82L134.738 201.91L137.534 203.852ZM149.105 207.691H152.508V205.234L150.176 204.46L149.105 207.691ZM149.105 226.247H145.701V228.627L147.936 229.444L149.105 226.247ZM151.877 227.26L149.027 225.4L144.015 233.078L146.865 234.939L149.715 236.799L154.727 229.121L151.877 227.26ZM146.865 234.939L148.298 231.851L141.632 228.758L140.2 231.846L138.767 234.933L145.432 238.026L146.865 234.939ZM140.2 231.846H143.603V214.569H140.2H136.796V231.846H140.2ZM140.2 214.569L141.219 211.322L136.633 209.882L135.614 213.13L134.594 216.377L139.18 217.817L140.2 214.569ZM135.614 213.13H132.21V233.872H135.614H139.018V213.13H135.614ZM135.614 233.872V230.469H126.709V233.872V237.276H135.614V233.872ZM126.709 233.872H130.113V213.45H126.709H123.306V233.872H126.709ZM126.709 213.45L127.819 210.232L124.726 209.166L123.616 212.383L122.507 215.601L125.6 216.667L126.709 213.45ZM123.616 212.383L126.501 214.19L132.046 205.339L129.162 203.532L126.278 201.725L120.732 210.576L123.616 212.383ZM129.162 203.532L127.157 206.282L132.863 210.441L134.867 207.691L136.872 204.94L131.167 200.781L129.162 203.532ZM134.867 207.691L137.663 209.632L140.329 205.793L137.534 203.852L134.738 201.91L132.072 205.749L134.867 207.691ZM137.534 203.852L136.462 207.082L148.033 210.921L149.105 207.691L150.176 204.46L138.605 200.621L137.534 203.852ZM149.105 207.691H145.701V226.247H149.105H152.508V207.691H149.105ZM149.105 226.247L147.936 229.444L150.709 230.457L151.877 227.26L153.045 224.063L150.273 223.05L149.105 226.247ZM168.621 227.527L171.334 229.581L173.966 226.105L169.955 224.396L168.621 227.527ZM162.968 234.992L161.397 238.011L163.946 239.338L165.682 237.046L162.968 234.992ZM156.516 231.633H153.113V233.698L154.945 234.651L156.516 231.633ZM156.516 213.236H159.92V210.822L157.641 210.024L156.516 213.236ZM153.317 212.117L150.543 210.144L147.919 213.833L152.193 215.329L153.317 212.117ZM158.703 204.545L160.436 201.616L157.743 200.022L155.929 202.572L158.703 204.545ZM165.368 208.491H168.771V206.55L167.102 205.562L165.368 208.491ZM165.368 226.14H161.964V228.389L164.033 229.271L165.368 226.14ZM166.328 200.119L168.404 202.816L171.77 200.224L168.507 197.504L166.328 200.119ZM160.302 204.758L158.203 207.437L160.284 209.068L162.379 207.455L160.302 204.758ZM154.383 200.119L152.159 197.543L149.029 200.246L152.284 202.798L154.383 200.119ZM160.249 195.053L162.428 192.439L160.21 190.59L158.024 192.477L160.249 195.053ZM168.621 227.527L165.907 225.472L160.255 232.937L162.968 234.992L165.682 237.046L171.334 229.581L168.621 227.527ZM162.968 234.992L164.54 231.973L158.088 228.614L156.516 231.633L154.945 234.651L161.397 238.011L162.968 234.992ZM156.516 231.633H159.92V213.236H156.516H153.113V231.633H156.516ZM156.516 213.236L157.641 210.024L154.441 208.904L153.317 212.117L152.193 215.329L155.392 216.449L156.516 213.236ZM153.317 212.117L156.091 214.089L161.476 206.518L158.703 204.545L155.929 202.572L150.543 210.144L153.317 212.117ZM158.703 204.545L156.969 207.474L163.634 211.419L165.368 208.491L167.102 205.562L160.436 201.616L158.703 204.545ZM165.368 208.491H161.964V226.14H165.368H168.771V208.491H165.368ZM165.368 226.14L164.033 229.271L167.286 230.658L168.621 227.527L169.955 224.396L166.702 223.009L165.368 226.14ZM166.328 200.119L164.251 197.422L158.226 202.061L160.302 204.758L162.379 207.455L168.404 202.816L166.328 200.119ZM160.302 204.758L162.402 202.079L156.483 197.44L154.383 200.119L152.284 202.798L158.203 207.437L160.302 204.758ZM154.383 200.119L156.608 202.695L162.474 197.629L160.249 195.053L158.024 192.477L152.159 197.543L154.383 200.119ZM160.249 195.053L158.07 197.668L164.149 202.734L166.328 200.119L168.507 197.504L162.428 192.439L160.249 195.053ZM189.259 206.198L192.084 208.095L195.645 202.794H189.259V206.198ZM184.46 213.343V216.747H186.274L187.285 215.241L184.46 213.343ZM182.434 213.343V209.939H179.03V213.343H182.434ZM182.434 225.874H179.03V228.278L181.296 229.082L182.434 225.874ZM188.299 227.953L190.743 230.322L194.432 226.516L189.436 224.745L188.299 227.953ZM181.58 234.885L180.288 238.034L182.42 238.909L184.024 237.254L181.58 234.885ZM173.529 231.579H170.125V233.861L172.236 234.728L173.529 231.579ZM173.529 213.343H176.932V209.939H173.529V213.343ZM169.689 213.343L166.777 211.581L163.652 216.747H169.689V213.343ZM173.529 206.998L176.441 208.76L176.932 207.947V206.998H173.529ZM173.529 201.452L172.327 198.268L170.125 199.098V201.452H173.529ZM182.434 198.093H185.837V193.171L181.232 194.908L182.434 198.093ZM182.434 206.198H179.03V209.601H182.434V206.198ZM189.259 206.198L186.433 204.3L181.634 211.445L184.46 213.343L187.285 215.241L192.084 208.095L189.259 206.198ZM184.46 213.343V209.939H182.434V213.343V216.747H184.46V213.343ZM182.434 213.343H179.03V225.874H182.434H185.837V213.343H182.434ZM182.434 225.874L181.296 229.082L187.162 231.161L188.299 227.953L189.436 224.745L183.571 222.666L182.434 225.874ZM188.299 227.953L185.855 225.585L179.136 232.516L181.58 234.885L184.024 237.254L190.743 230.322L188.299 227.953ZM181.58 234.885L182.873 231.737L174.821 228.431L173.529 231.579L172.236 234.728L180.288 238.034L181.58 234.885ZM173.529 231.579H176.932V213.343H173.529H170.125V231.579H173.529ZM173.529 213.343V209.939H169.689V213.343V216.747H173.529V213.343ZM169.689 213.343L172.602 215.105L176.441 208.76L173.529 206.998L170.617 205.236L166.777 211.581L169.689 213.343ZM173.529 206.998H176.932V201.452H173.529H170.125V206.998H173.529ZM173.529 201.452L174.73 204.637L183.635 201.277L182.434 198.093L181.232 194.908L172.327 198.268L173.529 201.452ZM182.434 198.093H179.03V206.198H182.434H185.837V198.093H182.434ZM182.434 206.198V209.601H189.259V206.198V202.794H182.434V206.198ZM213.947 236.805L215.895 239.595L217.35 238.58V236.805H213.947ZM204.935 243.097L204.529 246.476L205.819 246.631L206.884 245.888L204.935 243.097ZM188.085 241.071L185.965 238.408L179.599 243.478L187.679 244.45L188.085 241.071ZM196.99 233.979L197.478 230.61L196.021 230.399L194.87 231.316L196.99 233.979ZM205.095 235.152L204.608 238.52L208.499 239.083V235.152H205.095ZM205.095 231.259H208.499V223.847L202.877 228.678L205.095 231.259ZM201.683 234.192L200.711 237.454L202.492 237.984L203.901 236.773L201.683 234.192ZM192.191 231.366H188.788V233.904L191.22 234.628L192.191 231.366ZM192.191 212.543H195.595V210.156L193.35 209.343L192.191 212.543ZM189.098 211.423L186.317 209.461L183.747 213.105L187.94 214.624L189.098 211.423ZM194.591 203.638L196.215 200.647L193.555 199.203L191.81 201.676L194.591 203.638ZM200.776 206.998H204.18V204.973L202.4 204.007L200.776 206.998ZM200.776 225.714H197.372V228.084L199.596 228.906L200.776 225.714ZM203.229 226.62L202.049 229.813L203.816 230.466L205.308 229.315L203.229 226.62ZM205.095 225.181L207.174 227.875L208.499 226.854V225.181H205.095ZM205.095 206.944L203.871 203.769L201.692 204.609V206.944H205.095ZM213.947 203.532H217.35V198.572L212.722 200.356L213.947 203.532ZM213.947 236.805L211.998 234.014L202.987 240.306L204.935 243.097L206.884 245.888L215.895 239.595L213.947 236.805ZM204.935 243.097L205.342 239.718L188.492 237.691L188.085 241.071L187.679 244.45L204.529 246.476L204.935 243.097ZM188.085 241.071L190.206 243.733L199.111 236.641L196.99 233.979L194.87 231.316L185.965 238.408L188.085 241.071ZM196.99 233.979L196.503 237.347L204.608 238.52L205.095 235.152L205.583 231.783L197.478 230.61L196.99 233.979ZM205.095 235.152H208.499V231.259H205.095H201.692V235.152H205.095ZM205.095 231.259L202.877 228.678L199.464 231.611L201.683 234.192L203.901 236.773L207.313 233.841L205.095 231.259ZM201.683 234.192L202.654 230.93L193.162 228.104L192.191 231.366L191.22 234.628L200.711 237.454L201.683 234.192ZM192.191 231.366H195.595V212.543H192.191H188.788V231.366H192.191ZM192.191 212.543L193.35 209.343L190.257 208.223L189.098 211.423L187.94 214.624L191.032 215.743L192.191 212.543ZM189.098 211.423L191.88 213.385L197.372 205.6L194.591 203.638L191.81 201.676L186.317 209.461L189.098 211.423ZM194.591 203.638L192.966 206.629L199.152 209.989L200.776 206.998L202.4 204.007L196.215 200.647L194.591 203.638ZM200.776 206.998H197.372V225.714H200.776H204.18V206.998H200.776ZM200.776 225.714L199.596 228.906L202.049 229.813L203.229 226.62L204.409 223.428L201.956 222.521L200.776 225.714ZM203.229 226.62L205.308 229.315L207.174 227.875L205.095 225.181L203.016 222.486L201.15 223.925L203.229 226.62ZM205.095 225.181H208.499V206.944H205.095H201.692V225.181H205.095ZM205.095 206.944L206.32 210.12L215.171 206.707L213.947 203.532L212.722 200.356L203.871 203.769L205.095 206.944ZM213.947 203.532H210.543V236.805H213.947H217.35V203.532H213.947Z" fill="black" mask="url(#path-9-outside-1_4239_530)"/>
<mask id="path-11-outside-2_4239_530" maskUnits="userSpaceOnUse" x="132.001" y="56" width="37" height="45" fill="black">
<rect fill="white" x="132.001" y="56" width="37" height="45"/>
<path d="M150.239 58C163.93 58.0001 166.869 68.9671 166.438 72.3359C166.008 75.7047 165.005 78.213 165.076 75.8477C165.148 73.4824 165.292 69.3257 164.217 71.9053C163.357 74.9158 163.213 76.0629 164.217 77.7832C165.22 79.5034 164.217 80.8655 164.217 82.084C164.217 83.3024 166.223 84.0911 166.438 85.3096C166.653 86.5283 163.858 90.1839 162.711 91.0439C161.564 91.904 160.775 92.6923 159.485 91.6172C158.454 90.7574 157.288 90.4464 156.834 90.3984C157.264 92.1904 157.995 96.0322 157.479 97.0645C156.833 98.3546 153.393 99 150.239 99C147.085 99 143.645 98.3546 143 97.0645C142.484 96.0323 143.214 92.1904 143.645 90.3984C143.19 90.4463 142.024 90.7572 140.992 91.6172C139.702 92.6918 138.914 91.9039 137.768 91.0439C136.621 90.1838 133.825 86.5283 134.04 85.3096C134.255 84.0911 136.262 83.3024 136.262 82.084C136.262 80.8655 135.258 79.5034 136.262 77.7832C137.265 76.0629 137.122 74.9158 136.262 71.9053C135.205 69.3684 135.326 73.3463 135.398 75.7285L135.401 75.8477C135.473 78.213 134.47 75.7046 134.04 72.3359C133.61 68.9671 136.549 58 150.239 58ZM150.454 84.8789C149.097 84.8942 148.311 89.2525 148.239 90.1836C148.168 91.1152 148.669 91.617 149.386 91.6172C150.068 91.617 150.424 91.0322 150.457 90.2959C150.49 91.0322 150.847 91.617 151.529 91.6172C152.246 91.6171 152.748 91.1152 152.677 90.1836C152.605 89.2511 151.816 84.8795 150.454 84.8789ZM139.619 76.1738C136.898 76.0885 138.998 80.0791 139.34 81.6094C139.681 83.1395 138.735 84.4451 140.717 85.0889C142.699 85.7326 147.978 84.307 148.438 82.5479C148.913 80.7298 142.34 76.2592 139.619 76.1738ZM160.931 76.1689C158.209 76.2543 151.636 80.7262 152.111 82.5439C152.572 84.3028 157.85 85.7274 159.832 85.084C161.814 84.4402 160.869 83.1347 161.21 81.6045C161.552 80.0741 163.652 76.0838 160.931 76.1689Z"/>
</mask>
<path d="M150.239 58C163.93 58.0001 166.869 68.9671 166.438 72.3359C166.008 75.7047 165.005 78.213 165.076 75.8477C165.148 73.4824 165.292 69.3257 164.217 71.9053C163.357 74.9158 163.213 76.0629 164.217 77.7832C165.22 79.5034 164.217 80.8655 164.217 82.084C164.217 83.3024 166.223 84.0911 166.438 85.3096C166.653 86.5283 163.858 90.1839 162.711 91.0439C161.564 91.904 160.775 92.6923 159.485 91.6172C158.454 90.7574 157.288 90.4464 156.834 90.3984C157.264 92.1904 157.995 96.0322 157.479 97.0645C156.833 98.3546 153.393 99 150.239 99C147.085 99 143.645 98.3546 143 97.0645C142.484 96.0323 143.214 92.1904 143.645 90.3984C143.19 90.4463 142.024 90.7572 140.992 91.6172C139.702 92.6918 138.914 91.9039 137.768 91.0439C136.621 90.1838 133.825 86.5283 134.04 85.3096C134.255 84.0911 136.262 83.3024 136.262 82.084C136.262 80.8655 135.258 79.5034 136.262 77.7832C137.265 76.0629 137.122 74.9158 136.262 71.9053C135.205 69.3684 135.326 73.3463 135.398 75.7285L135.401 75.8477C135.473 78.213 134.47 75.7046 134.04 72.3359C133.61 68.9671 136.549 58 150.239 58ZM150.454 84.8789C149.097 84.8942 148.311 89.2525 148.239 90.1836C148.168 91.1152 148.669 91.617 149.386 91.6172C150.068 91.617 150.424 91.0322 150.457 90.2959C150.49 91.0322 150.847 91.617 151.529 91.6172C152.246 91.6171 152.748 91.1152 152.677 90.1836C152.605 89.2511 151.816 84.8795 150.454 84.8789ZM139.619 76.1738C136.898 76.0885 138.998 80.0791 139.34 81.6094C139.681 83.1395 138.735 84.4451 140.717 85.0889C142.699 85.7326 147.978 84.307 148.438 82.5479C148.913 80.7298 142.34 76.2592 139.619 76.1738ZM160.931 76.1689C158.209 76.2543 151.636 80.7262 152.111 82.5439C152.572 84.3028 157.85 85.7274 159.832 85.084C161.814 84.4402 160.869 83.1347 161.21 81.6045C161.552 80.0741 163.652 76.0838 160.931 76.1689Z" fill="#EC1E28"/>
<path d="M150.239 58L150.239 56H150.239V58ZM166.438 72.3359L168.422 72.5892V72.5892L166.438 72.3359ZM165.076 75.8477L163.077 75.7871V75.7871L165.076 75.8477ZM164.217 71.9053L162.371 71.1359L162.326 71.2436L162.294 71.3558L164.217 71.9053ZM164.217 77.7832L165.944 76.7756L165.944 76.7755L164.217 77.7832ZM164.217 82.084H162.217V82.0842L164.217 82.084ZM166.438 85.3096L168.408 84.9627L168.408 84.962L166.438 85.3096ZM162.711 91.0439L161.511 89.4439L161.511 89.444L162.711 91.0439ZM159.485 91.6172L160.766 90.0807L160.766 90.0807L159.485 91.6172ZM156.834 90.3984L157.044 88.4095L154.229 88.1123L154.889 90.8652L156.834 90.3984ZM157.479 97.0645L159.267 97.9589L159.267 97.9588L157.479 97.0645ZM150.239 99V101H150.239L150.239 99ZM143 97.0645L141.211 97.9589L141.211 97.959L143 97.0645ZM143.645 90.3984L145.589 90.8652L146.25 88.1128L143.435 88.4095L143.645 90.3984ZM140.992 91.6172L142.272 93.1538L142.273 93.1536L140.992 91.6172ZM137.768 91.0439L138.968 89.444L138.968 89.4439L137.768 91.0439ZM134.04 85.3096L132.07 84.962L132.07 84.9625L134.04 85.3096ZM136.262 82.084L138.262 82.0842V82.084H136.262ZM136.262 77.7832L134.534 76.7755L134.534 76.7755L136.262 77.7832ZM136.262 71.9053L138.185 71.3558L138.153 71.2437L138.108 71.136L136.262 71.9053ZM135.398 75.7285L137.398 75.6793L137.398 75.6677L135.398 75.7285ZM135.401 75.8477L133.402 75.8968L133.402 75.9082L135.401 75.8477ZM134.04 72.3359L132.056 72.5892L132.056 72.5892L134.04 72.3359ZM150.454 84.8789L150.455 82.8789L150.443 82.8789L150.432 82.879L150.454 84.8789ZM148.239 90.1836L146.245 90.0299L146.245 90.0303L148.239 90.1836ZM149.386 91.6172L149.385 93.6172H149.386L149.386 91.6172ZM150.457 90.2959L152.455 90.2071L148.459 90.207L150.457 90.2959ZM151.529 91.6172L151.529 93.6172H151.53L151.529 91.6172ZM152.677 90.1836L154.671 90.0303L154.671 90.0299L152.677 90.1836ZM139.619 76.1738L139.682 74.1748H139.682L139.619 76.1738ZM139.34 81.6094L141.292 81.1739L141.292 81.1739L139.34 81.6094ZM140.717 85.0889L140.099 86.991L140.099 86.9911L140.717 85.0889ZM148.438 82.5479L150.373 83.0539L150.374 83.0525L148.438 82.5479ZM160.931 76.1689L160.868 74.1699L160.868 74.1699L160.931 76.1689ZM152.111 82.5439L150.176 83.05L150.177 83.0504L152.111 82.5439ZM159.832 85.084L160.449 86.9863L160.45 86.9862L159.832 85.084ZM161.21 81.6045L159.258 81.1688L159.258 81.169L161.21 81.6045ZM150.239 58L150.239 60C156.469 60 160.032 62.4573 162.039 65.1112C164.148 67.899 164.597 70.967 164.455 72.0827L166.438 72.3359L168.422 72.5892C168.71 70.336 167.905 66.2361 165.229 62.6982C162.452 59.0263 157.699 56 150.239 56L150.239 58ZM166.438 72.3359L164.455 72.0827C164.251 73.6802 163.92 74.9703 163.708 75.5104C163.651 75.6554 163.648 75.6267 163.719 75.5246C163.744 75.4889 163.888 75.2773 164.175 75.0884C164.512 74.8674 165.258 74.5694 166.084 74.9774C166.728 75.2957 166.951 75.8366 166.993 75.9427C167.062 76.1121 167.076 76.2317 167.077 76.2334C167.079 76.2488 167.068 76.1612 167.075 75.9082L165.076 75.8477L163.077 75.7871C163.067 76.1254 163.071 76.4768 163.116 76.7947C163.138 76.9476 163.181 77.1842 163.284 77.4384C163.361 77.6294 163.623 78.223 164.313 78.5637C165.184 78.9941 165.981 78.6883 166.372 78.4312C166.715 78.2061 166.918 77.9302 167.006 77.8038C167.202 77.5203 167.34 77.205 167.431 76.9737C167.81 76.0088 168.196 74.3603 168.422 72.5892L166.438 72.3359ZM165.076 75.8477L167.075 75.9082C167.109 74.7843 167.171 73.0067 167.069 71.8462C167.043 71.552 166.999 71.2025 166.911 70.8761C166.868 70.7156 166.794 70.4804 166.659 70.2356C166.541 70.0208 166.249 69.5633 165.662 69.2889C164.952 68.9564 164.245 69.0854 163.761 69.3433C163.357 69.5585 163.105 69.8551 162.979 70.0185C162.716 70.3607 162.521 70.7755 162.371 71.1359L164.217 71.9053L166.063 72.6746C166.181 72.3902 166.217 72.3706 166.151 72.4556C166.124 72.4904 165.963 72.7027 165.642 72.8738C165.24 73.0875 164.609 73.2125 163.967 72.9119C163.449 72.6694 163.218 72.2799 163.155 72.1648C163.075 72.0197 163.049 71.9161 163.049 71.9147C163.046 71.9068 163.066 71.9862 163.084 72.1982C163.161 73.0624 163.115 74.5457 163.077 75.7871L165.076 75.8477ZM164.217 71.9053L162.294 71.3558C161.871 72.8343 161.542 74.1126 161.518 75.2873C161.491 76.6037 161.841 77.6798 162.489 78.7909L164.217 77.7832L165.944 76.7755C165.589 76.1663 165.509 75.8087 165.518 75.3689C165.529 74.7873 165.702 73.9867 166.14 72.4547L164.217 71.9053ZM164.217 77.7832L162.489 78.7908C162.678 79.115 162.696 79.3633 162.624 79.7728C162.575 80.0473 162.513 80.2566 162.413 80.6722C162.33 81.02 162.217 81.528 162.217 82.084H164.217H166.217C166.217 82.0307 166.229 81.9115 166.302 81.6075C166.359 81.3713 166.486 80.904 166.562 80.4706C166.741 79.4644 166.759 78.1716 165.944 76.7756L164.217 77.7832ZM164.217 82.084L162.217 82.0842C162.217 82.9657 162.586 83.6507 162.914 84.104C163.23 84.5396 163.62 84.9094 163.87 85.1472C164.173 85.435 164.336 85.5883 164.459 85.7366C164.574 85.8765 164.501 85.8375 164.469 85.6571L166.438 85.3096L168.408 84.962C168.269 84.1724 167.864 83.5779 167.543 83.1891C167.228 82.8088 166.849 82.4603 166.624 82.2463C166.346 81.9823 166.221 81.8504 166.153 81.7573C166.099 81.682 166.217 81.8115 166.217 82.0837L164.217 82.084ZM166.438 85.3096L164.469 85.6565C164.423 85.3987 164.479 85.2649 164.454 85.3559C164.438 85.4185 164.394 85.5458 164.3 85.7428C164.114 86.1357 163.815 86.6346 163.443 87.1702C162.658 88.2998 161.82 89.212 161.511 89.4439L162.711 91.0439L163.911 92.6439C164.748 92.0158 165.882 90.6702 166.728 89.4523C167.171 88.8141 167.602 88.117 167.915 87.4547C168.072 87.1242 168.22 86.7593 168.32 86.3853C168.412 86.0398 168.507 85.5251 168.408 84.9627L166.438 85.3096ZM162.711 91.0439L161.511 89.444C161.362 89.5557 161.202 89.6789 161.085 89.7676C160.957 89.8652 160.854 89.9422 160.761 90.0069C160.563 90.1448 160.497 90.1664 160.51 90.1622C160.56 90.1451 160.687 90.1217 160.827 90.1546C160.941 90.1811 160.925 90.2133 160.766 90.0807L159.485 91.6172L158.205 93.1536C158.691 93.5586 159.257 93.8955 159.917 94.0497C160.605 94.2102 161.242 94.1376 161.794 93.9503C162.308 93.7759 162.736 93.5063 163.048 93.2881C163.339 93.0856 163.692 92.8081 163.911 92.6439L162.711 91.0439ZM159.485 91.6172L160.766 90.0807C159.391 88.9351 157.838 88.4933 157.044 88.4095L156.834 90.3984L156.624 92.3874C156.617 92.3866 156.674 92.3932 156.79 92.4235C156.9 92.4521 157.04 92.4962 157.199 92.5598C157.52 92.6886 157.879 92.8821 158.205 93.1536L159.485 91.6172ZM156.834 90.3984L154.889 90.8652C155.093 91.713 155.368 93.05 155.528 94.2758C155.609 94.8919 155.654 95.4332 155.656 95.8493C155.659 96.3707 155.587 96.3752 155.69 96.1701L157.479 97.0645L159.267 97.9588C159.628 97.2376 159.659 96.3747 159.656 95.8295C159.653 95.179 159.585 94.4543 159.494 93.7568C159.311 92.3557 159.005 90.8759 158.779 89.9317L156.834 90.3984ZM157.479 97.0645L155.69 96.17C155.802 95.9453 155.898 95.9787 155.592 96.139C155.324 96.2788 154.905 96.4329 154.33 96.572C153.185 96.8486 151.701 97 150.239 97L150.239 99L150.239 101C151.932 101 153.744 100.829 155.269 100.46C156.029 100.277 156.788 100.027 157.446 99.6834C158.064 99.3598 158.832 98.8287 159.267 97.9589L157.479 97.0645ZM150.239 99V97C148.778 97 147.293 96.8486 146.149 96.572C145.573 96.4329 145.154 96.2788 144.887 96.139C144.58 95.9787 144.676 95.9453 144.789 96.1699L143 97.0645L141.211 97.959C141.646 98.8287 142.414 99.3598 143.033 99.6834C143.691 100.027 144.45 100.277 145.209 100.46C146.735 100.829 148.547 101 150.239 101V99ZM143 97.0645L144.789 96.17C144.891 96.3751 144.82 96.3708 144.822 95.8493C144.825 95.4332 144.87 94.8919 144.951 94.2759C145.111 93.05 145.386 91.713 145.589 90.8652L143.645 90.3984L141.7 89.9317C141.473 90.8758 141.168 92.3557 140.984 93.7569C140.893 94.4543 140.826 95.179 140.823 95.8296C140.82 96.3748 140.851 97.2377 141.211 97.9589L143 97.0645ZM143.645 90.3984L143.435 88.4095C142.641 88.4931 141.087 88.9346 139.712 90.0807L140.992 91.6172L142.273 93.1536C142.598 92.8821 142.957 92.6886 143.279 92.5598C143.438 92.4962 143.578 92.4521 143.688 92.4235C143.804 92.3933 143.862 92.3866 143.854 92.3874L143.645 90.3984ZM140.992 91.6172L139.712 90.0806C139.553 90.2131 139.537 90.1809 139.651 90.1543C139.791 90.1215 139.918 90.1449 139.969 90.162C139.981 90.1662 139.915 90.1447 139.718 90.0069C139.625 89.9421 139.521 89.8652 139.393 89.7675C139.276 89.6788 139.117 89.5557 138.968 89.444L137.768 91.0439L136.568 92.6439C136.786 92.808 137.139 93.0855 137.43 93.288C137.743 93.5061 138.17 93.7757 138.684 93.95C139.236 94.1373 139.873 94.2099 140.56 94.0495C141.22 93.8953 141.787 93.5586 142.272 93.1538L140.992 91.6172ZM137.768 91.0439L138.968 89.4439C138.658 89.212 137.821 88.2998 137.036 87.1702C136.664 86.6346 136.364 86.1356 136.178 85.7428C136.085 85.5458 136.041 85.4185 136.024 85.3559C136 85.2649 136.055 85.3988 136.01 85.6566L134.04 85.3096L132.07 84.9625C131.971 85.525 132.067 86.0397 132.159 86.3853C132.258 86.7593 132.407 87.1242 132.563 87.4547C132.877 88.1169 133.307 88.8141 133.751 89.4523C134.597 90.6702 135.73 92.0158 136.568 92.6439L137.768 91.0439ZM134.04 85.3096L136.01 85.6571C135.978 85.8375 135.904 85.8765 136.02 85.7366C136.142 85.5883 136.305 85.435 136.609 85.1472C136.859 84.9094 137.249 84.5396 137.564 84.104C137.893 83.6507 138.262 82.9657 138.262 82.0842L136.262 82.084L134.262 82.0837C134.262 81.8115 134.38 81.682 134.325 81.7573C134.258 81.8504 134.132 81.9823 133.854 82.2463C133.629 82.4603 133.25 82.8088 132.936 83.1891C132.615 83.5779 132.21 84.1724 132.07 84.962L134.04 85.3096ZM136.262 82.084H138.262C138.262 81.528 138.149 81.02 138.065 80.6721C137.965 80.2565 137.903 80.0472 137.855 79.7728C137.782 79.3633 137.8 79.1151 137.989 78.7909L136.262 77.7832L134.534 76.7755C133.72 78.1716 133.738 79.4644 133.916 80.4707C133.993 80.9041 134.119 81.3713 134.176 81.6075C134.249 81.9116 134.262 82.0308 134.262 82.084H136.262ZM136.262 77.7832L137.989 78.7909C138.637 77.6798 138.987 76.6037 138.96 75.2873C138.936 74.1126 138.607 72.8343 138.185 71.3558L136.262 71.9053L134.339 72.4547C134.776 73.9867 134.949 74.7873 134.961 75.3689C134.97 75.8087 134.89 76.1663 134.534 76.7755L136.262 77.7832ZM136.262 71.9053L138.108 71.136C137.959 70.7793 137.768 70.3743 137.514 70.0381C137.392 69.8764 137.155 69.5941 136.781 69.3786C136.347 69.1288 135.67 68.9495 134.94 69.2355C134.316 69.4805 133.993 69.9414 133.858 70.168C133.709 70.4191 133.628 70.6612 133.582 70.8218C133.489 71.1488 133.443 71.4969 133.415 71.7829C133.308 72.9134 133.365 74.6546 133.399 75.7893L135.398 75.7285L137.398 75.6677C137.36 74.4202 137.32 72.9814 137.397 72.1616C137.417 71.96 137.435 71.8974 137.428 71.9222C137.425 71.9318 137.393 72.0499 137.299 72.2081C137.219 72.3419 136.957 72.741 136.401 72.9593C135.74 73.2187 135.137 73.0477 134.786 72.8453C134.493 72.6771 134.347 72.4812 134.322 72.4489C134.264 72.3714 134.3 72.3971 134.416 72.6746L136.262 71.9053ZM135.398 75.7285L133.399 75.7777L133.402 75.8968L135.401 75.8477L137.401 75.7985L137.398 75.6793L135.398 75.7285ZM135.401 75.8477L133.402 75.9082C133.41 76.1612 133.399 76.249 133.401 76.2337C133.401 76.2321 133.416 76.1126 133.484 75.9434C133.527 75.8377 133.749 75.2963 134.393 74.9777C135.22 74.5689 135.967 74.8677 136.303 75.0888C136.591 75.278 136.735 75.4896 136.76 75.5253C136.83 75.6274 136.827 75.656 136.77 75.511C136.558 74.9706 136.228 73.6804 136.024 72.0826L134.04 72.3359L132.056 72.5892C132.282 74.3602 132.668 76.0085 133.047 76.9731C133.138 77.2044 133.275 77.5196 133.471 77.8031C133.559 77.9294 133.762 78.2055 134.105 78.4307C134.496 78.688 135.294 78.9946 136.166 78.5633C136.856 78.2223 137.118 77.6283 137.194 77.4377C137.297 77.1837 137.34 76.9471 137.361 76.7944C137.406 76.4766 137.411 76.1254 137.4 75.7871L135.401 75.8477ZM134.04 72.3359L136.024 72.0827C135.882 70.967 136.331 67.899 138.44 65.1111C140.447 62.4573 144.009 60 150.239 60V58V56C142.779 56 138.027 59.0263 135.249 62.6982C132.573 66.2361 131.769 70.3361 132.056 72.5892L134.04 72.3359ZM150.454 84.8789L150.432 82.879C148.981 82.8954 148.166 84.0171 147.849 84.5237C147.45 85.1633 147.162 85.9281 146.955 86.5947C146.538 87.9375 146.293 89.4071 146.245 90.0299L148.239 90.1836L150.233 90.3373C150.257 90.029 150.441 88.8539 150.775 87.781C150.943 87.2397 151.11 86.8538 151.242 86.6429C151.457 86.2989 151.249 86.8701 150.477 86.8788L150.454 84.8789ZM148.239 90.1836L146.245 90.0303C146.181 90.8694 146.358 91.7987 146.994 92.5463C147.644 93.3098 148.548 93.617 149.385 93.6172L149.386 91.6172L149.386 89.6172C149.507 89.6172 149.802 89.6734 150.04 89.953C150.264 90.2168 150.226 90.4293 150.233 90.3369L148.239 90.1836ZM149.386 91.6172L149.386 93.6172C150.382 93.617 151.225 93.1539 151.766 92.4316C152.256 91.7775 152.427 91.0184 152.455 90.3848L150.457 90.2959L148.459 90.207C148.454 90.3097 148.431 90.2111 148.564 90.0336C148.639 89.9341 148.758 89.8195 148.926 89.7333C149.097 89.6458 149.262 89.6172 149.385 89.6172L149.386 91.6172ZM150.457 90.2959L148.459 90.3847C148.487 91.0195 148.659 91.7788 149.15 92.4326C149.691 93.1542 150.534 93.6168 151.529 93.6172L151.529 91.6172L151.53 89.6172C151.653 89.6172 151.817 89.6458 151.988 89.733C152.156 89.8189 152.275 89.9332 152.35 90.0325C152.483 90.2098 152.46 90.3086 152.455 90.2071L150.457 90.2959ZM151.529 91.6172L151.53 93.6172C152.367 93.617 153.27 93.31 153.921 92.5472C154.558 91.7998 154.735 90.8704 154.671 90.0303L152.677 90.1836L150.683 90.3369C150.69 90.4284 150.652 90.2157 150.877 89.9522C151.114 89.6733 151.408 89.6172 151.529 89.6172L151.529 91.6172ZM152.677 90.1836L154.671 90.0299C154.623 89.406 154.377 87.9323 153.959 86.5874C153.751 85.9199 153.461 85.1534 153.059 84.5132C152.741 84.0057 151.916 82.8796 150.455 82.8789L150.454 84.8789L150.453 86.8789C149.673 86.8786 149.458 86.2991 149.672 86.6405C149.803 86.8494 149.971 87.2341 150.139 87.7762C150.474 88.8503 150.659 90.0286 150.683 90.3372L152.677 90.1836ZM139.619 76.1738L139.682 74.1748C139.114 74.157 138.488 74.2382 137.898 74.5411C137.275 74.861 136.833 75.3577 136.568 75.9251C136.101 76.9225 136.24 78.0091 136.367 78.6652C136.511 79.4079 136.764 80.1676 136.966 80.7536C137.199 81.4302 137.334 81.8055 137.388 82.0449L139.34 81.6094L141.292 81.1739C141.175 80.6481 140.92 79.9507 140.748 79.4514C140.545 78.8615 140.379 78.3419 140.295 77.9063C140.194 77.3842 140.297 77.3934 140.191 77.6188C140.107 77.8001 139.944 77.9871 139.726 78.0991C139.541 78.1942 139.444 78.1693 139.556 78.1728L139.619 76.1738ZM139.34 81.6094L137.388 82.0448C137.419 82.1823 137.429 82.3531 137.421 82.652C137.415 82.8623 137.38 83.4054 137.421 83.8608C137.47 84.4041 137.634 85.1108 138.171 85.7613C138.689 86.3896 139.385 86.7591 140.099 86.991L140.717 85.0889L141.335 83.1867C141.058 83.0968 141.129 83.0616 141.257 83.2163C141.402 83.393 141.41 83.557 141.405 83.5022C141.402 83.464 141.399 83.3949 141.402 83.2615C141.404 83.1962 141.407 83.1268 141.41 83.0415C141.413 82.9603 141.417 82.8635 141.42 82.7641C141.431 82.3677 141.432 81.8015 141.292 81.1739L139.34 81.6094ZM140.717 85.0889L140.099 86.9911C140.974 87.2753 141.993 87.2824 142.875 87.2027C143.805 87.1186 144.8 86.9167 145.732 86.6324C146.654 86.351 147.595 85.9642 148.38 85.4712C149.074 85.0356 150.057 84.2636 150.373 83.0539L148.438 82.5479L146.504 82.0418C146.59 81.7117 146.741 81.7775 146.253 82.0839C145.857 82.3328 145.268 82.592 144.565 82.8065C143.871 83.018 143.147 83.1618 142.515 83.2189C141.835 83.2804 141.45 83.2243 141.335 83.1867L140.717 85.0889ZM148.438 82.5479L150.374 83.0525C150.601 82.1827 150.352 81.4038 150.117 80.9031C149.868 80.3764 149.511 79.8947 149.148 79.4794C148.415 78.6424 147.416 77.8069 146.379 77.0761C145.331 76.3377 144.166 75.6513 143.053 75.1356C141.998 74.6465 140.777 74.2092 139.682 74.1748L139.619 76.1738L139.556 78.1728C139.822 78.1812 140.443 78.3347 141.371 78.7647C142.241 79.1679 143.199 79.7288 144.075 80.346C144.962 80.9708 145.687 81.5993 146.138 82.1144C146.367 82.3753 146.467 82.5418 146.498 82.6079C146.541 82.7 146.395 82.4585 146.503 82.0432L148.438 82.5479ZM160.931 76.1689L160.868 74.1699C159.773 74.2043 158.552 74.6417 157.496 75.1309C156.384 75.6468 155.218 76.3334 154.17 77.0719C153.133 77.8029 152.134 78.6385 151.401 79.4757C151.038 79.891 150.681 80.3729 150.433 80.8997C150.197 81.4006 149.949 82.18 150.176 83.05L152.111 82.5439L154.046 82.0379C154.155 82.4535 154.008 82.6955 154.052 82.6036C154.083 82.5376 154.183 82.3712 154.411 82.1103C154.862 81.5951 155.587 80.9666 156.474 80.3417C157.35 79.7244 158.309 79.1633 159.179 78.7599C160.107 78.3299 160.728 78.1763 160.993 78.168L160.931 76.1689ZM152.111 82.5439L150.177 83.0504C150.493 84.2598 151.476 85.0316 152.17 85.467C152.954 85.96 153.895 86.3466 154.817 86.6278C155.749 86.912 156.744 87.1137 157.674 87.1978C158.556 87.2775 159.574 87.2703 160.449 86.9863L159.832 85.084L159.215 83.1817C159.099 83.2193 158.714 83.2754 158.034 83.214C157.402 83.1569 156.678 83.0132 155.984 82.8018C155.282 82.5875 154.693 82.3284 154.297 82.0796C153.809 81.7734 153.96 81.7075 154.046 82.0374L152.111 82.5439ZM159.832 85.084L160.45 86.9862C161.164 86.7542 161.86 86.3849 162.378 85.7568C162.915 85.1066 163.079 84.4001 163.128 83.8566C163.169 83.4011 163.134 82.858 163.129 82.6475C163.12 82.3485 163.131 82.1776 163.162 82.0399L161.21 81.6045L159.258 81.169C159.118 81.7965 159.119 82.3626 159.13 82.7588C159.133 82.8582 159.137 82.955 159.14 83.0362C159.143 83.1214 159.146 83.1909 159.147 83.2561C159.15 83.3895 159.148 83.4585 159.144 83.4967C159.139 83.5514 159.147 83.3875 159.293 83.211C159.42 83.0565 159.491 83.0918 159.214 83.1818L159.832 85.084ZM161.21 81.6045L163.162 82.0402C163.215 81.8006 163.351 81.4252 163.584 80.7486C163.786 80.1626 164.039 79.4029 164.182 78.6602C164.309 78.0041 164.448 76.9176 163.982 75.9203C163.717 75.353 163.275 74.8563 162.652 74.5364C162.062 74.2334 161.436 74.1522 160.868 74.1699L160.931 76.1689L160.993 78.168C161.106 78.1644 161.009 78.1893 160.824 78.0942C160.606 77.9822 160.443 77.7952 160.358 77.6139C160.253 77.3887 160.356 77.3795 160.255 77.9016C160.171 78.3371 160.005 78.8566 159.802 79.4466C159.63 79.9459 159.375 80.6432 159.258 81.1688L161.21 81.6045Z" fill="#1D0002" mask="url(#path-11-outside-2_4239_530)"/>
<defs>
<filter id="filter0_i_4239_530" x="28.8608" y="28.8604" width="246.279" height="246.278" filterUnits="userSpaceOnUse" color-interpolation-filters="sRGB">
<feFlood flood-opacity="0" result="BackgroundImageFix"/>
<feBlend mode="normal" in="SourceGraphic" in2="BackgroundImageFix" result="shape"/>
<feColorMatrix in="SourceAlpha" type="matrix" values="0 0 0 0 0 0 0 0 0 0 0 0 0 0 0 0 0 0 127 0" result="hardAlpha"/>
<feMorphology radius="3.20675" operator="erode" in="SourceAlpha" result="effect1_innerShadow_4239_530"/>
<feOffset/>
<feGaussianBlur stdDeviation="14.1097"/>
<feComposite in2="hardAlpha" operator="arithmetic" k2="-1" k3="1"/>
<feColorMatrix type="matrix" values="0 0 0 0 0.92549 0 0 0 0 0.117647 0 0 0 0 0.156863 0 0 0 0.4 0"/>
<feBlend mode="normal" in2="shape" result="effect1_innerShadow_4239_530"/>
</filter>
<radialGradient id="paint0_radial_4239_530" cx="0" cy="0" r="1" gradientUnits="userSpaceOnUse" gradientTransform="translate(152 152) rotate(90) scale(123.139)">
<stop/>
<stop offset="1" stop-color="#3A0003"/>
</radialGradient>
</defs>
</svg>
