<svg width="189" height="59" viewBox="0 0 189 59" fill="none" xmlns="http://www.w3.org/2000/svg">
<path d="M20.5949 0C37.9583 0 41.6862 13.9087 41.1408 18.1816C40.5954 22.4542 39.3225 25.636 39.4133 22.6367C39.5042 19.6367 39.6861 14.364 38.3225 17.6367C37.2316 21.4546 37.0498 22.9091 38.3225 25.0908C39.595 27.2724 38.3227 28.9996 38.3225 30.5449C38.3225 32.0904 40.8681 33.0913 41.1408 34.6367C41.4127 36.1827 37.8677 40.8184 36.4133 41.9092C34.9588 43.0001 33.9588 43.9993 32.3225 42.6357C31.0137 41.5452 29.5352 41.1516 28.9592 41.0908C29.5046 43.3635 30.431 48.2356 29.7766 49.5449C28.9584 51.1813 24.5949 52 20.5949 52C16.595 52 12.2315 51.1813 11.4133 49.5449C10.7591 48.2353 11.6862 43.3634 12.2316 41.0908C11.656 41.1514 10.1773 41.5452 8.86836 42.6357C7.232 43.9994 6.23111 43.0001 4.77657 41.9092C3.32204 40.8181 -0.22201 36.1825 0.0500045 34.6367C0.322732 33.0913 2.86836 32.0904 2.86836 30.5449C2.86813 28.9996 1.59576 27.2724 2.86836 25.0908C4.14091 22.9092 3.95912 21.4544 2.86836 17.6367C1.52746 14.4186 1.68073 19.4628 1.77266 22.4844L1.77657 22.6367C1.86735 25.636 0.595432 22.4542 0.0500045 18.1816C-0.495379 13.9088 3.23166 0.000123264 20.5949 0ZM20.8684 34.0908C19.1463 34.109 18.1496 39.6385 18.0588 40.8184C17.9681 41.9998 18.6041 42.6356 19.5129 42.6357C20.3755 42.6355 20.8285 41.8987 20.8723 40.9688C20.9161 41.8988 21.3689 42.6356 22.2316 42.6357C23.1404 42.6355 23.7774 41.9997 23.6867 40.8184C23.5958 39.6367 22.5953 34.0919 20.8684 34.0908ZM7.12618 23.0498C3.6745 22.9416 6.33875 28.0036 6.77168 29.9443C7.20435 31.8849 6.00493 33.54 8.51875 34.3564C11.0329 35.1727 17.7269 33.3657 18.3107 31.1348C18.9137 28.8294 10.578 23.1583 7.12618 23.0498ZM34.1545 23.043C30.7026 23.1516 22.367 28.8236 22.9699 31.1289C23.5538 33.3598 30.2477 35.1667 32.7619 34.3506C35.2757 33.5342 34.0764 31.879 34.509 29.9385C34.9419 27.9978 37.6062 22.9347 34.1545 23.043Z" fill="#EC1E28"/>
<mask id="path-2-inside-1_4194_311" fill="white">
<path d="M168.111 3.74316C175.961 3.74316 182.324 10.107 182.324 17.957C182.324 25.8069 175.218 32.1706 169.888 36.6123C165.89 39.9436 159.644 45.7738 156.771 48.4805L155.23 49.9375C155.197 49.9063 145.892 41.0463 140.571 36.6123C135.241 32.1706 128.135 25.8069 128.135 17.957C128.135 10.107 134.499 3.74316 142.349 3.74316C148.049 3.74328 152.964 7.09913 155.23 11.9424L155.449 11.4922C157.803 6.89222 162.589 3.74328 168.111 3.74316Z"/>
</mask>
<path d="M168.111 3.74316V2.74316H168.111L168.111 3.74316ZM182.324 17.957L183.324 17.957V17.957H182.324ZM169.888 36.6123L170.528 37.3805V37.3805L169.888 36.6123ZM156.771 48.4805L156.085 47.7526L156.084 47.7538L156.771 48.4805ZM155.23 49.9375L154.54 50.6617L155.227 51.3161L155.917 50.6641L155.23 49.9375ZM140.571 36.6123L139.931 37.3805L139.931 37.3805L140.571 36.6123ZM128.135 17.957H127.135V17.957L128.135 17.957ZM142.349 3.74316L142.349 2.74316H142.349V3.74316ZM155.23 11.9424L154.324 12.3661L155.21 14.2616L156.128 12.381L155.23 11.9424ZM155.449 11.4922L154.559 11.0367L154.555 11.0451L154.551 11.0536L155.449 11.4922ZM168.111 3.74316V4.74316C175.408 4.74316 181.324 10.6593 181.324 17.957H182.324H183.324C183.324 9.55474 176.513 2.74316 168.111 2.74316V3.74316ZM182.324 17.957L181.324 17.957C181.324 21.5714 179.688 24.9112 177.317 27.9471C174.945 30.9829 171.91 33.6257 169.248 35.8441L169.888 36.6123L170.528 37.3805C173.196 35.1571 176.379 32.3972 178.893 29.1783C181.407 25.9594 183.324 22.1925 183.324 17.957L182.324 17.957ZM169.888 36.6123L169.248 35.8441C165.223 39.1982 158.954 45.0495 156.085 47.7526L156.771 48.4805L157.456 49.2084C160.334 46.498 166.558 40.6891 170.528 37.3805L169.888 36.6123ZM156.771 48.4805L156.084 47.7538L154.543 49.2109L155.23 49.9375L155.917 50.6641L157.458 49.2071L156.771 48.4805ZM155.23 49.9375L155.919 49.2133C155.894 49.1894 146.563 40.3038 141.212 35.8441L140.571 36.6123L139.931 37.3805C145.221 41.7888 154.5 50.6231 154.54 50.6617L155.23 49.9375ZM140.571 36.6123L141.212 35.8441C138.55 33.6257 135.514 30.9829 133.143 27.9471C130.771 24.9112 129.135 21.5714 129.135 17.957L128.135 17.957L127.135 17.957C127.135 22.1925 129.052 25.9594 131.566 29.1783C134.081 32.3972 137.263 35.1571 139.931 37.3805L140.571 36.6123ZM128.135 17.957H129.135C129.135 10.6593 135.051 4.74316 142.349 4.74316V3.74316V2.74316C133.947 2.74316 127.135 9.55474 127.135 17.957H128.135ZM142.349 3.74316L142.349 4.74316C147.646 4.74327 152.217 7.86115 154.324 12.3661L155.23 11.9424L156.135 11.5187C153.712 6.33711 148.452 2.74329 142.349 2.74316L142.349 3.74316ZM155.23 11.9424L156.128 12.381L156.348 11.9308L155.449 11.4922L154.551 11.0536L154.331 11.5038L155.23 11.9424ZM155.449 11.4922L156.34 11.9476C158.529 7.66878 162.979 4.74327 168.111 4.74316L168.111 3.74316L168.111 2.74316C162.199 2.74328 157.077 6.11565 154.559 11.0367L155.449 11.4922Z" fill="#EC1E28" mask="url(#path-2-inside-1_4194_311)"/>
<mask id="path-4-inside-2_4194_311" fill="white">
<path d="M171.027 2C180.655 2.00012 188.459 9.80446 188.459 19.4316C188.459 29.059 179.743 36.8641 173.206 42.3115C168.303 46.3971 160.643 53.5467 157.119 56.8662L155.229 58.6533C155.172 58.5981 143.773 47.7452 137.253 42.3115C130.716 36.8641 122 29.059 122 19.4316C122 9.8045 129.805 2.00018 139.432 2C146.422 2 152.451 6.11572 155.229 12.0557L155.499 11.5039C158.385 5.86218 164.255 2 171.027 2Z"/>
</mask>
<path d="M171.027 2L171.027 0.860879H171.027V2ZM188.459 19.4316H189.598V19.4316L188.459 19.4316ZM173.206 42.3115L172.477 41.4364V41.4364L173.206 42.3115ZM157.119 56.8662L156.338 56.0371L156.336 56.0386L157.119 56.8662ZM155.229 58.6533L154.444 59.4782L155.227 60.2237L156.012 59.4809L155.229 58.6533ZM137.253 42.3115L137.982 41.4364L137.982 41.4364L137.253 42.3115ZM122 19.4316L120.861 19.4316V19.4316H122ZM139.432 2V0.860879H139.432L139.432 2ZM155.229 12.0557L154.198 12.5383L155.207 14.6966L156.253 12.5557L155.229 12.0557ZM155.499 11.5039L154.485 10.9851L154.48 10.9945L154.475 11.0039L155.499 11.5039ZM171.027 2L171.027 3.13912C180.025 3.13923 187.32 10.4336 187.32 19.4317L188.459 19.4316L189.598 19.4316C189.598 9.17534 181.284 0.861004 171.027 0.860879L171.027 2ZM188.459 19.4316H187.32C187.32 23.8915 185.301 28.0064 182.386 31.7378C179.472 35.4692 175.742 38.7156 172.477 41.4364L173.206 42.3115L173.935 43.1866C177.207 40.46 181.104 37.0802 184.182 33.1403C187.259 29.2005 189.598 24.5991 189.598 19.4316H188.459ZM173.206 42.3115L172.477 41.4364C167.543 45.548 159.857 52.7217 156.338 56.0371L157.119 56.8662L157.9 57.6954C161.428 54.3717 169.064 47.2463 173.935 43.1866L173.206 42.3115ZM157.119 56.8662L156.336 56.0386L154.447 57.8257L155.229 58.6533L156.012 59.4809L157.902 57.6938L157.119 56.8662ZM155.229 58.6533L156.015 57.8284C155.966 57.7815 144.538 46.8994 137.982 41.4364L137.253 42.3115L136.524 43.1866C143.009 48.591 154.377 59.4147 154.444 59.4782L155.229 58.6533ZM137.253 42.3115L137.982 41.4364C134.717 38.7156 130.987 35.4692 128.073 31.7378C125.158 28.0064 123.139 23.8915 123.139 19.4316H122H120.861C120.861 24.5991 123.2 29.2005 126.277 33.1403C129.355 37.0802 133.252 40.46 136.524 43.1866L137.253 42.3115ZM122 19.4316L123.139 19.4317C123.139 10.4336 130.434 3.13929 139.432 3.13912L139.432 2L139.432 0.860879C129.175 0.861067 120.861 9.17537 120.861 19.4316L122 19.4316ZM139.432 2V3.13912C145.964 3.13912 151.6 6.98377 154.198 12.5383L155.229 12.0557L156.261 11.573C153.303 5.24767 146.881 0.860879 139.432 0.860879V2ZM155.229 12.0557L156.253 12.5557L156.523 12.0039L155.499 11.5039L154.475 11.0039L154.206 11.5557L155.229 12.0557ZM155.499 11.5039L156.513 12.0227C159.212 6.74677 164.699 3.13912 171.027 3.13912V2V0.860879C163.811 0.860879 157.558 4.97759 154.485 10.9851L155.499 11.5039Z" fill="#EC1E28" mask="url(#path-4-inside-2_4194_311)"/>
<path d="M146.724 8.10156C150.488 8.10172 153.734 10.3175 155.23 13.5156V13.5166C156.726 10.3185 159.972 8.10263 163.735 8.10254C168.919 8.10254 173.122 12.3046 173.122 17.4883C173.122 22.6719 168.429 26.8745 164.909 29.8076C161.4 32.7317 155.267 38.5714 155.23 38.6074V38.6064C155.204 38.5821 149.062 32.7337 145.55 29.8066C142.03 26.8735 137.337 22.671 137.337 17.4873C137.337 12.3037 141.54 8.10156 146.724 8.10156Z" fill="#EC1E28"/>
<path d="M64 12C66.6901 14.0176 88.6593 36.3791 99.3077 47.3077" stroke="#EC1E28"/>
<path d="M99.3077 12C97.2902 14.6901 74.9286 36.6593 64 47.3077" stroke="#EC1E28"/>
</svg>
