<svg width="112" height="355" viewBox="0 0 112 355" fill="none" xmlns="http://www.w3.org/2000/svg">
<path d="M0.250015 0L0.250014 32.0589C0.250014 38.4241 2.77858 44.5286 7.27945 49.0294L69.2206 110.971C73.7214 115.471 76.25 121.576 76.25 127.941L76.25 354" stroke="#0ECACA" stroke-width="0.5"/>
<path d="M53.75 95.5L69.2206 110.971C73.7214 115.471 76.25 121.576 76.25 127.941L76.25 154.5" stroke="#0ECACA" stroke-width="4"/>
<path d="M83.25 277.939L82.845 277.939L82.845 278.887L82.509 278.887L81.156 278.053L81.156 277.564L82.539 277.564L82.539 277.291L82.845 277.291L82.845 277.564L83.25 277.564L83.25 277.939ZM82.539 278.563L82.539 277.939L81.54 277.939L81.54 277.963L82.539 278.563ZM83.25 274.997L81.477 274.268L81.477 274.991L81.861 274.991L81.861 275.327L81.156 275.327L81.156 273.875L81.495 273.875L83.25 274.583L83.25 274.997ZM83.286 271.116C83.286 271.236 83.267 271.343 83.229 271.437C83.189 271.531 83.134 271.611 83.064 271.677C82.992 271.743 82.906 271.793 82.806 271.827C82.704 271.861 82.59 271.878 82.464 271.878C82.314 271.878 82.173 271.856 82.041 271.812C81.907 271.766 81.785 271.707 81.675 271.635C81.563 271.563 81.464 271.483 81.378 271.395C81.29 271.305 81.216 271.216 81.156 271.128L81.156 270.594C81.244 270.718 81.329 270.829 81.411 270.927C81.493 271.023 81.576 271.108 81.66 271.182C81.744 271.254 81.832 271.314 81.924 271.362C82.014 271.408 82.112 271.443 82.218 271.467L82.224 271.443C82.184 271.423 82.146 271.4 82.11 271.374C82.072 271.346 82.039 271.313 82.011 271.275C81.981 271.237 81.958 271.193 81.942 271.143C81.924 271.093 81.915 271.035 81.915 270.969C81.915 270.883 81.93 270.803 81.96 270.729C81.99 270.653 82.034 270.588 82.092 270.534C82.148 270.478 82.216 270.435 82.296 270.405C82.376 270.373 82.465 270.357 82.563 270.357C82.669 270.357 82.766 270.375 82.854 270.411C82.942 270.447 83.018 270.498 83.082 270.564C83.146 270.63 83.196 270.71 83.232 270.804C83.268 270.896 83.286 271 83.286 271.116ZM82.974 271.116C82.974 271.006 82.944 270.92 82.884 270.858C82.822 270.794 82.734 270.762 82.62 270.762L82.575 270.762C82.461 270.762 82.374 270.794 82.314 270.858C82.252 270.92 82.221 271.006 82.221 271.116C82.221 271.228 82.252 271.315 82.314 271.377C82.374 271.439 82.461 271.47 82.575 271.47L82.62 271.47C82.734 271.47 82.822 271.439 82.884 271.377C82.944 271.315 82.974 271.228 82.974 271.116ZM83.286 267.647C83.286 267.769 83.271 267.878 83.241 267.974C83.209 268.068 83.166 268.148 83.112 268.214C83.058 268.278 82.994 268.327 82.92 268.361C82.846 268.395 82.765 268.412 82.677 268.412C82.541 268.412 82.431 268.375 82.347 268.301C82.261 268.225 82.201 268.124 82.167 267.998L82.143 267.998C82.105 268.102 82.046 268.187 81.966 268.253C81.886 268.317 81.785 268.349 81.663 268.349C81.583 268.349 81.51 268.334 81.444 268.304C81.378 268.272 81.321 268.226 81.273 268.166C81.225 268.106 81.188 268.033 81.162 267.947C81.134 267.859 81.12 267.759 81.12 267.647C81.12 267.535 81.134 267.436 81.162 267.35C81.188 267.262 81.225 267.188 81.273 267.128C81.321 267.068 81.378 267.023 81.444 266.993C81.51 266.961 81.583 266.945 81.663 266.945C81.785 266.945 81.886 266.978 81.966 267.044C82.046 267.108 82.105 267.192 82.143 267.296L82.167 267.296C82.201 267.17 82.261 267.07 82.347 266.996C82.431 266.92 82.541 266.882 82.677 266.882C82.765 266.882 82.846 266.899 82.92 266.933C82.994 266.967 83.058 267.017 83.112 267.083C83.166 267.147 83.209 267.227 83.241 267.323C83.271 267.417 83.286 267.525 83.286 267.647ZM82.977 267.647C82.977 267.533 82.951 267.446 82.899 267.386C82.847 267.324 82.774 267.293 82.68 267.293L82.617 267.293C82.523 267.293 82.45 267.324 82.398 267.386C82.346 267.446 82.32 267.533 82.32 267.647C82.32 267.761 82.346 267.849 82.398 267.911C82.45 267.971 82.523 268.001 82.617 268.001L82.68 268.001C82.774 268.001 82.847 267.971 82.899 267.911C82.951 267.849 82.977 267.761 82.977 267.647ZM82.026 267.647C82.026 267.541 82.002 267.46 81.954 267.404C81.906 267.348 81.838 267.32 81.75 267.32L81.702 267.32C81.616 267.32 81.549 267.348 81.501 267.404C81.453 267.46 81.429 267.541 81.429 267.647C81.429 267.753 81.453 267.834 81.501 267.89C81.549 267.946 81.616 267.974 81.702 267.974L81.75 267.974C81.838 267.974 81.906 267.946 81.954 267.89C82.002 267.834 82.026 267.753 82.026 267.647ZM83.286 259.39C83.286 259.512 83.271 259.621 83.241 259.717C83.209 259.811 83.166 259.891 83.112 259.957C83.058 260.021 82.994 260.07 82.92 260.104C82.846 260.138 82.765 260.155 82.677 260.155C82.541 260.155 82.431 260.118 82.347 260.044C82.261 259.968 82.201 259.867 82.167 259.741L82.143 259.741C82.105 259.845 82.046 259.93 81.966 259.996C81.886 260.06 81.785 260.092 81.663 260.092C81.583 260.092 81.51 260.077 81.444 260.047C81.378 260.015 81.321 259.969 81.273 259.909C81.225 259.849 81.188 259.776 81.162 259.69C81.134 259.602 81.12 259.502 81.12 259.39C81.12 259.278 81.134 259.179 81.162 259.093C81.188 259.005 81.225 258.931 81.273 258.871C81.321 258.811 81.378 258.766 81.444 258.736C81.51 258.704 81.583 258.688 81.663 258.688C81.785 258.688 81.886 258.721 81.966 258.787C82.046 258.851 82.105 258.935 82.143 259.039L82.167 259.039C82.201 258.913 82.261 258.813 82.347 258.739C82.431 258.663 82.541 258.625 82.677 258.625C82.765 258.625 82.846 258.642 82.92 258.676C82.994 258.71 83.058 258.76 83.112 258.826C83.166 258.89 83.209 258.97 83.241 259.066C83.271 259.16 83.286 259.268 83.286 259.39ZM82.977 259.39C82.977 259.276 82.951 259.189 82.899 259.129C82.847 259.067 82.774 259.036 82.68 259.036L82.617 259.036C82.523 259.036 82.45 259.067 82.398 259.129C82.346 259.189 82.32 259.276 82.32 259.39C82.32 259.504 82.346 259.592 82.398 259.654C82.45 259.714 82.523 259.744 82.617 259.744L82.68 259.744C82.774 259.744 82.847 259.714 82.899 259.654C82.951 259.592 82.977 259.504 82.977 259.39ZM82.026 259.39C82.026 259.284 82.002 259.203 81.954 259.147C81.906 259.091 81.838 259.063 81.75 259.063L81.702 259.063C81.616 259.063 81.549 259.091 81.501 259.147C81.453 259.203 81.429 259.284 81.429 259.39C81.429 259.496 81.453 259.577 81.501 259.633C81.549 259.689 81.616 259.717 81.702 259.717L81.75 259.717C81.838 259.717 81.906 259.689 81.954 259.633C82.002 259.577 82.026 259.496 82.026 259.39ZM81.942 255.158C82.092 255.158 82.234 255.181 82.368 255.227C82.5 255.271 82.622 255.329 82.734 255.401C82.844 255.473 82.943 255.554 83.031 255.644C83.117 255.732 83.19 255.82 83.25 255.908L83.25 256.442C83.162 256.32 83.077 256.21 82.995 256.112C82.913 256.014 82.83 255.929 82.746 255.857C82.662 255.783 82.575 255.723 82.485 255.677C82.393 255.629 82.294 255.593 82.188 255.569L82.182 255.593C82.222 255.613 82.261 255.637 82.299 255.665C82.337 255.691 82.37 255.723 82.398 255.761C82.426 255.799 82.449 255.843 82.467 255.893C82.483 255.943 82.491 256.001 82.491 256.067C82.491 256.155 82.476 256.236 82.446 256.31C82.416 256.384 82.373 256.449 82.317 256.505C82.259 256.559 82.191 256.602 82.113 256.634C82.033 256.664 81.943 256.679 81.843 256.679C81.737 256.679 81.64 256.661 81.552 256.625C81.464 256.589 81.388 256.538 81.324 256.472C81.26 256.406 81.21 256.327 81.174 256.235C81.138 256.141 81.12 256.036 81.12 255.92C81.12 255.8 81.14 255.693 81.18 255.599C81.218 255.505 81.273 255.425 81.345 255.359C81.415 255.293 81.501 255.243 81.603 255.209C81.703 255.175 81.816 255.158 81.942 255.158ZM82.185 255.92C82.185 255.808 82.155 255.721 82.095 255.659C82.033 255.597 81.945 255.566 81.831 255.566L81.786 255.566C81.672 255.566 81.585 255.597 81.525 255.659C81.463 255.721 81.432 255.808 81.432 255.92C81.432 256.03 81.463 256.117 81.525 256.181C81.585 256.243 81.672 256.274 81.786 256.274L81.831 256.274C81.945 256.274 82.033 256.243 82.095 256.181C82.155 256.117 82.185 256.03 82.185 255.92ZM83.286 252.423C83.286 252.543 83.267 252.65 83.229 252.744C83.189 252.838 83.134 252.918 83.064 252.984C82.992 253.05 82.906 253.1 82.806 253.134C82.704 253.168 82.59 253.185 82.464 253.185C82.314 253.185 82.173 253.163 82.041 253.119C81.907 253.073 81.785 253.014 81.675 252.942C81.563 252.87 81.464 252.79 81.378 252.702C81.29 252.612 81.216 252.523 81.156 252.435L81.156 251.901C81.244 252.025 81.329 252.136 81.411 252.234C81.493 252.33 81.576 252.415 81.66 252.489C81.744 252.561 81.832 252.621 81.924 252.669C82.014 252.715 82.112 252.75 82.218 252.774L82.224 252.75C82.184 252.73 82.146 252.707 82.11 252.681C82.072 252.653 82.039 252.62 82.011 252.582C81.981 252.544 81.958 252.5 81.942 252.45C81.924 252.4 81.915 252.342 81.915 252.276C81.915 252.19 81.93 252.11 81.96 252.036C81.99 251.96 82.034 251.895 82.092 251.841C82.148 251.785 82.216 251.742 82.296 251.712C82.376 251.68 82.465 251.664 82.563 251.664C82.669 251.664 82.766 251.682 82.854 251.718C82.942 251.754 83.018 251.805 83.082 251.871C83.146 251.937 83.196 252.017 83.232 252.111C83.268 252.203 83.286 252.307 83.286 252.423ZM82.974 252.423C82.974 252.313 82.944 252.227 82.884 252.165C82.822 252.101 82.734 252.069 82.62 252.069L82.575 252.069C82.461 252.069 82.374 252.101 82.314 252.165C82.252 252.227 82.221 252.313 82.221 252.423C82.221 252.535 82.252 252.622 82.314 252.684C82.374 252.746 82.461 252.777 82.575 252.777L82.62 252.777C82.734 252.777 82.822 252.746 82.884 252.684C82.944 252.622 82.974 252.535 82.974 252.423ZM83.25 249.346L81.477 248.617L81.477 249.34L81.861 249.34L81.861 249.676L81.156 249.676L81.156 248.224L81.495 248.224L83.25 248.932L83.25 249.346ZM83.25 244.736L83.25 246.188L82.884 246.188L82.308 245.531C82.21 245.419 82.122 245.337 82.044 245.285C81.964 245.233 81.878 245.207 81.786 245.207L81.747 245.207C81.655 245.207 81.585 245.237 81.537 245.297C81.487 245.357 81.462 245.43 81.462 245.516C81.462 245.624 81.493 245.706 81.555 245.762C81.615 245.818 81.688 245.858 81.774 245.882L81.642 246.224C81.572 246.202 81.506 246.171 81.444 246.131C81.38 246.091 81.324 246.041 81.276 245.981C81.228 245.919 81.19 245.847 81.162 245.765C81.134 245.683 81.12 245.589 81.12 245.483C81.12 245.373 81.136 245.275 81.168 245.189C81.198 245.103 81.241 245.031 81.297 244.973C81.353 244.913 81.419 244.868 81.495 244.838C81.571 244.806 81.654 244.79 81.744 244.79C81.832 244.79 81.912 244.804 81.984 244.832C82.056 244.86 82.125 244.898 82.191 244.946C82.255 244.994 82.317 245.05 82.377 245.114C82.435 245.178 82.494 245.246 82.554 245.318L82.917 245.759L82.917 244.736L83.25 244.736ZM83.25 241.852L82.845 241.852L82.845 242.8L82.509 242.8L81.156 241.966L81.156 241.477L82.539 241.477L82.539 241.204L82.845 241.204L82.845 241.477L83.25 241.477L83.25 241.852ZM82.539 242.476L82.539 241.852L81.54 241.852L81.54 241.876L82.539 242.476ZM83.286 238.517C83.286 238.639 83.271 238.748 83.241 238.844C83.209 238.938 83.166 239.018 83.112 239.084C83.058 239.148 82.994 239.197 82.92 239.231C82.846 239.265 82.765 239.282 82.677 239.282C82.541 239.282 82.431 239.245 82.347 239.171C82.261 239.095 82.201 238.994 82.167 238.868L82.143 238.868C82.105 238.972 82.046 239.057 81.966 239.123C81.886 239.187 81.785 239.219 81.663 239.219C81.583 239.219 81.51 239.204 81.444 239.174C81.378 239.142 81.321 239.096 81.273 239.036C81.225 238.976 81.188 238.903 81.162 238.817C81.134 238.729 81.12 238.629 81.12 238.517C81.12 238.405 81.134 238.306 81.162 238.22C81.188 238.132 81.225 238.058 81.273 237.998C81.321 237.938 81.378 237.893 81.444 237.863C81.51 237.831 81.583 237.815 81.663 237.815C81.785 237.815 81.886 237.848 81.966 237.914C82.046 237.978 82.105 238.062 82.143 238.166L82.167 238.166C82.201 238.04 82.261 237.94 82.347 237.866C82.431 237.79 82.541 237.752 82.677 237.752C82.765 237.752 82.846 237.769 82.92 237.803C82.994 237.837 83.058 237.887 83.112 237.953C83.166 238.017 83.209 238.097 83.241 238.193C83.271 238.287 83.286 238.395 83.286 238.517ZM82.977 238.517C82.977 238.403 82.951 238.316 82.899 238.256C82.847 238.194 82.774 238.163 82.68 238.163L82.617 238.163C82.523 238.163 82.45 238.194 82.398 238.256C82.346 238.316 82.32 238.403 82.32 238.517C82.32 238.631 82.346 238.719 82.398 238.781C82.45 238.841 82.523 238.871 82.617 238.871L82.68 238.871C82.774 238.871 82.847 238.841 82.899 238.781C82.951 238.719 82.977 238.631 82.977 238.517ZM82.026 238.517C82.026 238.411 82.002 238.33 81.954 238.274C81.906 238.218 81.838 238.19 81.75 238.19L81.702 238.19C81.616 238.19 81.549 238.218 81.501 238.274C81.453 238.33 81.429 238.411 81.429 238.517C81.429 238.623 81.453 238.704 81.501 238.76C81.549 238.816 81.616 238.844 81.702 238.844L81.75 238.844C81.838 238.844 81.906 238.816 81.954 238.76C82.002 238.704 82.026 238.623 82.026 238.517ZM83.286 230.251C83.286 230.371 83.267 230.478 83.229 230.572C83.189 230.666 83.134 230.746 83.064 230.812C82.992 230.878 82.906 230.928 82.806 230.962C82.704 230.996 82.59 231.013 82.464 231.013C82.314 231.013 82.173 230.991 82.041 230.947C81.907 230.901 81.785 230.842 81.675 230.77C81.563 230.698 81.464 230.618 81.378 230.53C81.29 230.44 81.216 230.351 81.156 230.263L81.156 229.729C81.244 229.853 81.329 229.964 81.411 230.062C81.493 230.158 81.576 230.243 81.66 230.317C81.744 230.389 81.832 230.449 81.924 230.497C82.014 230.543 82.112 230.578 82.218 230.602L82.224 230.578C82.184 230.558 82.146 230.535 82.11 230.509C82.072 230.481 82.039 230.448 82.011 230.41C81.981 230.372 81.958 230.328 81.942 230.278C81.924 230.228 81.915 230.17 81.915 230.104C81.915 230.018 81.93 229.938 81.96 229.864C81.99 229.788 82.034 229.723 82.092 229.669C82.148 229.613 82.216 229.57 82.296 229.54C82.376 229.508 82.465 229.492 82.563 229.492C82.669 229.492 82.766 229.51 82.854 229.546C82.942 229.582 83.018 229.633 83.082 229.699C83.146 229.765 83.196 229.845 83.232 229.939C83.268 230.031 83.286 230.135 83.286 230.251ZM82.974 230.251C82.974 230.141 82.944 230.055 82.884 229.993C82.822 229.929 82.734 229.897 82.62 229.897L82.575 229.897C82.461 229.897 82.374 229.929 82.314 229.993C82.252 230.055 82.221 230.141 82.221 230.251C82.221 230.363 82.252 230.45 82.314 230.512C82.374 230.574 82.461 230.605 82.575 230.605L82.62 230.605C82.734 230.605 82.822 230.574 82.884 230.512C82.944 230.45 82.974 230.363 82.974 230.251ZM83.286 222.003C83.286 222.137 83.262 222.253 83.214 222.351C83.164 222.449 83.093 222.53 83.001 222.594C82.909 222.658 82.796 222.706 82.662 222.738C82.528 222.768 82.375 222.783 82.203 222.783C82.033 222.783 81.881 222.768 81.747 222.738C81.611 222.706 81.497 222.658 81.405 222.594C81.313 222.53 81.243 222.449 81.195 222.351C81.145 222.253 81.12 222.137 81.12 222.003C81.12 221.737 81.215 221.541 81.405 221.415C81.595 221.287 81.861 221.223 82.203 221.223C82.545 221.223 82.811 221.287 83.001 221.415C83.191 221.541 83.286 221.737 83.286 222.003ZM82.953 222.003C82.953 221.869 82.903 221.776 82.803 221.724C82.701 221.67 82.564 221.643 82.392 221.643L82.014 221.643C81.842 221.643 81.706 221.67 81.606 221.724C81.504 221.776 81.453 221.869 81.453 222.003C81.453 222.137 81.504 222.231 81.606 222.285C81.706 222.337 81.842 222.363 82.014 222.363L82.392 222.363C82.564 222.363 82.701 222.337 82.803 222.285C82.903 222.231 82.953 222.137 82.953 222.003ZM81.942 217.771C82.092 217.771 82.234 217.794 82.368 217.84C82.5 217.884 82.622 217.942 82.734 218.014C82.844 218.086 82.943 218.167 83.031 218.257C83.117 218.345 83.19 218.433 83.25 218.521L83.25 219.055C83.162 218.933 83.077 218.823 82.995 218.725C82.913 218.627 82.83 218.542 82.746 218.47C82.662 218.396 82.575 218.336 82.485 218.29C82.393 218.242 82.294 218.206 82.188 218.182L82.182 218.206C82.222 218.226 82.261 218.25 82.299 218.278C82.337 218.304 82.37 218.336 82.398 218.374C82.426 218.412 82.449 218.456 82.467 218.506C82.483 218.556 82.491 218.614 82.491 218.68C82.491 218.768 82.476 218.849 82.446 218.923C82.416 218.997 82.373 219.062 82.317 219.118C82.259 219.172 82.191 219.215 82.113 219.247C82.033 219.277 81.943 219.292 81.843 219.292C81.737 219.292 81.64 219.274 81.552 219.238C81.464 219.202 81.388 219.151 81.324 219.085C81.26 219.019 81.21 218.94 81.174 218.848C81.138 218.754 81.12 218.649 81.12 218.533C81.12 218.413 81.14 218.306 81.18 218.212C81.218 218.118 81.273 218.038 81.345 217.972C81.415 217.906 81.501 217.856 81.603 217.822C81.703 217.788 81.816 217.771 81.942 217.771ZM82.185 218.533C82.185 218.421 82.155 218.334 82.095 218.272C82.033 218.21 81.945 218.179 81.831 218.179L81.786 218.179C81.672 218.179 81.585 218.21 81.525 218.272C81.463 218.334 81.432 218.421 81.432 218.533C81.432 218.643 81.463 218.73 81.525 218.794C81.585 218.856 81.672 218.887 81.786 218.887L81.831 218.887C81.945 218.887 82.033 218.856 82.095 218.794C82.155 218.73 82.185 218.643 82.185 218.533ZM83.286 215.046C83.286 215.168 83.271 215.277 83.241 215.373C83.209 215.467 83.166 215.547 83.112 215.613C83.058 215.677 82.994 215.726 82.92 215.76C82.846 215.794 82.765 215.811 82.677 215.811C82.541 215.811 82.431 215.774 82.347 215.7C82.261 215.624 82.201 215.523 82.167 215.397L82.143 215.397C82.105 215.501 82.046 215.586 81.966 215.652C81.886 215.716 81.785 215.748 81.663 215.748C81.583 215.748 81.51 215.733 81.444 215.703C81.378 215.671 81.321 215.625 81.273 215.565C81.225 215.505 81.188 215.432 81.162 215.346C81.134 215.258 81.12 215.158 81.12 215.046C81.12 214.934 81.134 214.835 81.162 214.749C81.188 214.661 81.225 214.587 81.273 214.527C81.321 214.467 81.378 214.422 81.444 214.392C81.51 214.36 81.583 214.344 81.663 214.344C81.785 214.344 81.886 214.377 81.966 214.443C82.046 214.507 82.105 214.591 82.143 214.695L82.167 214.695C82.201 214.569 82.261 214.469 82.347 214.395C82.431 214.319 82.541 214.281 82.677 214.281C82.765 214.281 82.846 214.298 82.92 214.332C82.994 214.366 83.058 214.416 83.112 214.482C83.166 214.546 83.209 214.626 83.241 214.722C83.271 214.816 83.286 214.924 83.286 215.046ZM82.977 215.046C82.977 214.932 82.951 214.845 82.899 214.785C82.847 214.723 82.774 214.692 82.68 214.692L82.617 214.692C82.523 214.692 82.45 214.723 82.398 214.785C82.346 214.845 82.32 214.932 82.32 215.046C82.32 215.16 82.346 215.248 82.398 215.31C82.45 215.37 82.523 215.4 82.617 215.4L82.68 215.4C82.774 215.4 82.847 215.37 82.899 215.31C82.951 215.248 82.977 215.16 82.977 215.046ZM82.026 215.046C82.026 214.94 82.002 214.859 81.954 214.803C81.906 214.747 81.838 214.719 81.75 214.719L81.702 214.719C81.616 214.719 81.549 214.747 81.501 214.803C81.453 214.859 81.429 214.94 81.429 215.046C81.429 215.152 81.453 215.233 81.501 215.289C81.549 215.345 81.616 215.373 81.702 215.373L81.75 215.373C81.838 215.373 81.906 215.345 81.954 215.289C82.002 215.233 82.026 215.152 82.026 215.046ZM83.25 210.829L83.25 212.281L82.884 212.281L82.308 211.624C82.21 211.512 82.122 211.43 82.044 211.378C81.964 211.326 81.878 211.3 81.786 211.3L81.747 211.3C81.655 211.3 81.585 211.33 81.537 211.39C81.487 211.45 81.462 211.523 81.462 211.609C81.462 211.717 81.493 211.799 81.555 211.855C81.615 211.911 81.688 211.951 81.774 211.975L81.642 212.317C81.572 212.295 81.506 212.264 81.444 212.224C81.38 212.184 81.324 212.134 81.276 212.074C81.228 212.012 81.19 211.94 81.162 211.858C81.134 211.776 81.12 211.682 81.12 211.576C81.12 211.466 81.136 211.368 81.168 211.282C81.198 211.196 81.241 211.124 81.297 211.066C81.353 211.006 81.419 210.961 81.495 210.931C81.571 210.899 81.654 210.883 81.744 210.883C81.832 210.883 81.912 210.897 81.984 210.925C82.056 210.953 82.125 210.991 82.191 211.039C82.255 211.087 82.317 211.143 82.377 211.207C82.435 211.271 82.494 211.339 82.554 211.411L82.917 211.852L82.917 210.829L83.25 210.829ZM82.002 205.813C82.002 205.693 81.978 205.605 81.93 205.549C81.88 205.491 81.817 205.462 81.741 205.462L81.72 205.462C81.634 205.462 81.567 205.49 81.519 205.546C81.469 205.6 81.444 205.675 81.444 205.771C81.444 205.863 81.466 205.945 81.51 206.017C81.554 206.087 81.616 206.148 81.696 206.2L81.468 206.452C81.42 206.416 81.375 206.377 81.333 206.335C81.289 206.291 81.252 206.241 81.222 206.185C81.19 206.129 81.165 206.066 81.147 205.996C81.129 205.926 81.12 205.847 81.12 205.759C81.12 205.653 81.133 205.557 81.159 205.471C81.183 205.383 81.219 205.308 81.267 205.246C81.315 205.182 81.373 205.133 81.441 205.099C81.507 205.065 81.582 205.048 81.666 205.048C81.734 205.048 81.795 205.059 81.849 205.081C81.903 205.101 81.95 205.13 81.99 205.168C82.03 205.204 82.063 205.247 82.089 205.297C82.113 205.345 82.131 205.396 82.143 205.45L82.161 205.45C82.173 205.39 82.192 205.333 82.218 205.279C82.244 205.225 82.279 205.179 82.323 205.141C82.365 205.101 82.415 205.07 82.473 205.048C82.531 205.024 82.597 205.012 82.671 205.012C82.763 205.012 82.847 205.031 82.923 205.069C82.999 205.105 83.064 205.157 83.118 205.225C83.172 205.293 83.214 205.374 83.244 205.468C83.272 205.562 83.286 205.667 83.286 205.783C83.286 205.885 83.275 205.975 83.253 206.053C83.233 206.131 83.205 206.2 83.169 206.26C83.133 206.318 83.092 206.369 83.046 206.413C82.998 206.457 82.948 206.495 82.896 206.527L82.674 206.236C82.716 206.212 82.755 206.186 82.791 206.158C82.825 206.13 82.855 206.098 82.881 206.062C82.907 206.026 82.927 205.985 82.941 205.939C82.955 205.893 82.962 205.841 82.962 205.783C82.962 205.667 82.934 205.578 82.878 205.516C82.822 205.454 82.745 205.423 82.647 205.423L82.626 205.423C82.53 205.423 82.457 205.457 82.407 205.525C82.357 205.591 82.332 205.687 82.332 205.813L82.332 206.02L82.002 206.02L82.002 205.813ZM83.25 202.076L82.845 202.076L82.845 203.024L82.509 203.024L81.156 202.19L81.156 201.701L82.539 201.701L82.539 201.428L82.845 201.428L82.845 201.701L83.25 201.701L83.25 202.076ZM82.539 202.7L82.539 202.076L81.54 202.076L81.54 202.1L82.539 202.7ZM81.942 197.988C82.092 197.988 82.234 198.011 82.368 198.057C82.5 198.101 82.622 198.159 82.734 198.231C82.844 198.303 82.943 198.384 83.031 198.474C83.117 198.562 83.19 198.65 83.25 198.738L83.25 199.272C83.162 199.15 83.077 199.04 82.995 198.942C82.913 198.844 82.83 198.759 82.746 198.687C82.662 198.613 82.575 198.553 82.485 198.507C82.393 198.459 82.294 198.423 82.188 198.399L82.182 198.423C82.222 198.443 82.261 198.467 82.299 198.495C82.337 198.521 82.37 198.553 82.398 198.591C82.426 198.629 82.449 198.673 82.467 198.723C82.483 198.773 82.491 198.831 82.491 198.897C82.491 198.985 82.476 199.066 82.446 199.14C82.416 199.214 82.373 199.279 82.317 199.335C82.259 199.389 82.191 199.432 82.113 199.464C82.033 199.494 81.943 199.509 81.843 199.509C81.737 199.509 81.64 199.491 81.552 199.455C81.464 199.419 81.388 199.368 81.324 199.302C81.26 199.236 81.21 199.157 81.174 199.065C81.138 198.971 81.12 198.866 81.12 198.75C81.12 198.63 81.14 198.523 81.18 198.429C81.218 198.335 81.273 198.255 81.345 198.189C81.415 198.123 81.501 198.073 81.603 198.039C81.703 198.005 81.816 197.988 81.942 197.988ZM82.185 198.75C82.185 198.638 82.155 198.551 82.095 198.489C82.033 198.427 81.945 198.396 81.831 198.396L81.786 198.396C81.672 198.396 81.585 198.427 81.525 198.489C81.463 198.551 81.432 198.638 81.432 198.75C81.432 198.86 81.463 198.947 81.525 199.011C81.585 199.073 81.672 199.104 81.786 199.104L81.831 199.104C81.945 199.104 82.033 199.073 82.095 199.011C82.155 198.947 82.185 198.86 82.185 198.75ZM81.498 194.617L81.498 195.559L82.2 195.607L82.2 195.586C82.156 195.564 82.115 195.54 82.077 195.514C82.039 195.488 82.007 195.458 81.981 195.424C81.955 195.39 81.935 195.351 81.921 195.307C81.905 195.261 81.897 195.206 81.897 195.142C81.897 195.052 81.912 194.968 81.942 194.89C81.972 194.812 82.016 194.745 82.074 194.689C82.13 194.631 82.199 194.586 82.281 194.554C82.363 194.52 82.456 194.503 82.56 194.503C82.666 194.503 82.763 194.52 82.851 194.554C82.939 194.588 83.016 194.638 83.082 194.704C83.146 194.77 83.196 194.851 83.232 194.947C83.268 195.043 83.286 195.153 83.286 195.277C83.286 195.373 83.275 195.459 83.253 195.535C83.233 195.611 83.205 195.678 83.169 195.736C83.133 195.794 83.092 195.844 83.046 195.886C82.998 195.928 82.948 195.965 82.896 195.997L82.674 195.709C82.714 195.685 82.752 195.66 82.788 195.634C82.822 195.608 82.852 195.578 82.878 195.544C82.904 195.508 82.925 195.469 82.941 195.427C82.955 195.383 82.962 195.332 82.962 195.274C82.962 195.156 82.929 195.067 82.863 195.007C82.797 194.945 82.707 194.914 82.593 194.914L82.569 194.914C82.461 194.914 82.376 194.945 82.314 195.007C82.252 195.069 82.221 195.155 82.221 195.265C82.221 195.351 82.238 195.421 82.272 195.475C82.304 195.529 82.339 195.572 82.377 195.604L82.332 195.928L81.156 195.85L81.156 194.617L81.498 194.617ZM83.25 189.251L82.845 189.251L82.845 190.199L82.509 190.199L81.156 189.365L81.156 188.876L82.539 188.876L82.539 188.603L82.845 188.603L82.845 188.876L83.25 188.876L83.25 189.251ZM82.539 189.875L82.539 189.251L81.54 189.251L81.54 189.275L82.539 189.875ZM83.25 185.772L82.845 185.772L82.845 186.72L82.509 186.72L81.156 185.886L81.156 185.397L82.539 185.397L82.539 185.124L82.845 185.124L82.845 185.397L83.25 185.397L83.25 185.772ZM82.539 186.396L82.539 185.772L81.54 185.772L81.54 185.796L82.539 186.396Z" fill="#0ECACA"/>
<path d="M82.25 286L82.25 315" stroke="#0ECACA" stroke-width="0.5"/>
<rect x="74.25" y="355" width="8" height="4" transform="rotate(-90 74.25 355)" fill="#0ECACA"/>
<rect x="82.25" y="315" width="4" height="4" transform="rotate(-90 82.25 315)" fill="#0ECACA"/>
<path d="M65.206 333V333.405H66.154V333.741L65.32 335.094H64.831V333.711H64.558V333.405H64.831V333H65.206ZM65.83 333.711H65.206V334.71H65.23L65.83 333.711ZM62.2642 333L61.5352 334.773H62.2582V334.389H62.5942V335.094H61.1422V334.755L61.8502 333H62.2642ZM65.341 324.964C65.461 324.964 65.568 324.983 65.662 325.021C65.756 325.061 65.836 325.116 65.902 325.186C65.968 325.258 66.018 325.344 66.052 325.444C66.086 325.546 66.103 325.66 66.103 325.786C66.103 325.936 66.081 326.077 66.037 326.209C65.991 326.343 65.932 326.465 65.86 326.575C65.788 326.687 65.708 326.786 65.62 326.872C65.53 326.96 65.441 327.034 65.353 327.094H64.819C64.943 327.006 65.054 326.921 65.152 326.839C65.248 326.757 65.333 326.674 65.407 326.59C65.479 326.506 65.539 326.418 65.587 326.326C65.633 326.236 65.668 326.138 65.692 326.032L65.668 326.026C65.648 326.066 65.625 326.104 65.599 326.14C65.571 326.178 65.538 326.211 65.5 326.239C65.462 326.269 65.418 326.292 65.368 326.308C65.318 326.326 65.26 326.335 65.194 326.335C65.108 326.335 65.028 326.32 64.954 326.29C64.878 326.26 64.813 326.216 64.759 326.158C64.703 326.102 64.66 326.034 64.63 325.954C64.598 325.874 64.582 325.785 64.582 325.687C64.582 325.581 64.6 325.484 64.636 325.396C64.672 325.308 64.723 325.232 64.789 325.168C64.855 325.104 64.935 325.054 65.029 325.018C65.121 324.982 65.225 324.964 65.341 324.964ZM65.341 325.276C65.231 325.276 65.145 325.306 65.083 325.366C65.019 325.428 64.987 325.516 64.987 325.63V325.675C64.987 325.789 65.019 325.876 65.083 325.936C65.145 325.998 65.231 326.029 65.341 326.029C65.453 326.029 65.54 325.998 65.602 325.936C65.664 325.876 65.695 325.789 65.695 325.675V325.63C65.695 325.516 65.664 325.428 65.602 325.366C65.54 325.306 65.453 325.276 65.341 325.276ZM61.8712 324.964C61.9932 324.964 62.1022 324.979 62.1982 325.009C62.2922 325.041 62.3722 325.084 62.4382 325.138C62.5022 325.192 62.5512 325.256 62.5852 325.33C62.6192 325.404 62.6362 325.485 62.6362 325.573C62.6362 325.709 62.5992 325.819 62.5252 325.903C62.4492 325.989 62.3482 326.049 62.2222 326.083V326.107C62.3262 326.145 62.4112 326.204 62.4772 326.284C62.5412 326.364 62.5732 326.465 62.5732 326.587C62.5732 326.667 62.5582 326.74 62.5282 326.806C62.4962 326.872 62.4502 326.929 62.3902 326.977C62.3302 327.025 62.2572 327.062 62.1712 327.088C62.0832 327.116 61.9832 327.13 61.8712 327.13C61.7592 327.13 61.6602 327.116 61.5742 327.088C61.4862 327.062 61.4122 327.025 61.3522 326.977C61.2922 326.929 61.2472 326.872 61.2172 326.806C61.1852 326.74 61.1692 326.667 61.1692 326.587C61.1692 326.465 61.2022 326.364 61.2682 326.284C61.3322 326.204 61.4162 326.145 61.5202 326.107V326.083C61.3942 326.049 61.2942 325.989 61.2202 325.903C61.1442 325.819 61.1062 325.709 61.1062 325.573C61.1062 325.485 61.1232 325.404 61.1572 325.33C61.1912 325.256 61.2412 325.192 61.3072 325.138C61.3712 325.084 61.4512 325.041 61.5472 325.009C61.6412 324.979 61.7492 324.964 61.8712 324.964ZM61.8712 325.273C61.7572 325.273 61.6702 325.299 61.6102 325.351C61.5482 325.403 61.5172 325.476 61.5172 325.57V325.633C61.5172 325.727 61.5482 325.8 61.6102 325.852C61.6702 325.904 61.7572 325.93 61.8712 325.93C61.9852 325.93 62.0732 325.904 62.1352 325.852C62.1952 325.8 62.2252 325.727 62.2252 325.633V325.57C62.2252 325.476 62.1952 325.403 62.1352 325.351C62.0732 325.299 61.9852 325.273 61.8712 325.273ZM61.8712 326.224C61.7652 326.224 61.6842 326.248 61.6282 326.296C61.5722 326.344 61.5442 326.412 61.5442 326.5V326.548C61.5442 326.634 61.5722 326.701 61.6282 326.749C61.6842 326.797 61.7652 326.821 61.8712 326.821C61.9772 326.821 62.0582 326.797 62.1142 326.749C62.1702 326.701 62.1982 326.634 62.1982 326.548V326.5C62.1982 326.412 62.1702 326.344 62.1142 326.296C62.0582 326.248 61.9772 326.224 61.8712 326.224ZM65.35 316.964C65.472 316.964 65.581 316.979 65.677 317.009C65.771 317.041 65.851 317.084 65.917 317.138C65.981 317.192 66.03 317.256 66.064 317.33C66.098 317.404 66.115 317.485 66.115 317.573C66.115 317.709 66.078 317.819 66.004 317.903C65.928 317.989 65.827 318.049 65.701 318.083V318.107C65.805 318.145 65.89 318.204 65.956 318.284C66.02 318.364 66.052 318.465 66.052 318.587C66.052 318.667 66.037 318.74 66.007 318.806C65.975 318.872 65.929 318.929 65.869 318.977C65.809 319.025 65.736 319.062 65.65 319.088C65.562 319.116 65.462 319.13 65.35 319.13C65.238 319.13 65.139 319.116 65.053 319.088C64.965 319.062 64.891 319.025 64.831 318.977C64.771 318.929 64.726 318.872 64.696 318.806C64.664 318.74 64.648 318.667 64.648 318.587C64.648 318.465 64.681 318.364 64.747 318.284C64.811 318.204 64.895 318.145 64.999 318.107V318.083C64.873 318.049 64.773 317.989 64.699 317.903C64.623 317.819 64.585 317.709 64.585 317.573C64.585 317.485 64.602 317.404 64.636 317.33C64.67 317.256 64.72 317.192 64.786 317.138C64.85 317.084 64.93 317.041 65.026 317.009C65.12 316.979 65.228 316.964 65.35 316.964ZM65.35 317.273C65.236 317.273 65.149 317.299 65.089 317.351C65.027 317.403 64.996 317.476 64.996 317.57V317.633C64.996 317.727 65.027 317.8 65.089 317.852C65.149 317.904 65.236 317.93 65.35 317.93C65.464 317.93 65.552 317.904 65.614 317.852C65.674 317.8 65.704 317.727 65.704 317.633V317.57C65.704 317.476 65.674 317.403 65.614 317.351C65.552 317.299 65.464 317.273 65.35 317.273ZM65.35 318.224C65.244 318.224 65.163 318.248 65.107 318.296C65.051 318.344 65.023 318.412 65.023 318.5V318.548C65.023 318.634 65.051 318.701 65.107 318.749C65.163 318.797 65.244 318.821 65.35 318.821C65.456 318.821 65.537 318.797 65.593 318.749C65.649 318.701 65.677 318.634 65.677 318.548V318.5C65.677 318.412 65.649 318.344 65.593 318.296C65.537 318.248 65.456 318.224 65.35 318.224ZM61.1182 318.308C61.1182 318.158 61.1412 318.016 61.1872 317.882C61.2312 317.75 61.2892 317.628 61.3612 317.516C61.4332 317.406 61.5142 317.307 61.6042 317.219C61.6922 317.133 61.7802 317.06 61.8682 317H62.4022C62.2802 317.088 62.1702 317.173 62.0722 317.255C61.9742 317.337 61.8892 317.42 61.8172 317.504C61.7432 317.588 61.6832 317.675 61.6372 317.765C61.5892 317.857 61.5532 317.956 61.5292 318.062L61.5532 318.068C61.5732 318.028 61.5972 317.989 61.6252 317.951C61.6512 317.913 61.6832 317.88 61.7212 317.852C61.7592 317.824 61.8032 317.801 61.8532 317.783C61.9032 317.767 61.9612 317.759 62.0272 317.759C62.1152 317.759 62.1962 317.774 62.2702 317.804C62.3442 317.834 62.4092 317.877 62.4652 317.933C62.5192 317.991 62.5622 318.059 62.5942 318.137C62.6242 318.217 62.6392 318.307 62.6392 318.407C62.6392 318.513 62.6212 318.61 62.5852 318.698C62.5492 318.786 62.4982 318.862 62.4322 318.926C62.3662 318.99 62.2872 319.04 62.1952 319.076C62.1012 319.112 61.9962 319.13 61.8802 319.13C61.7602 319.13 61.6532 319.11 61.5592 319.07C61.4652 319.032 61.3852 318.977 61.3192 318.905C61.2532 318.835 61.2032 318.749 61.1692 318.647C61.1352 318.547 61.1182 318.434 61.1182 318.308ZM61.8802 318.065C61.7682 318.065 61.6812 318.095 61.6192 318.155C61.5572 318.217 61.5262 318.305 61.5262 318.419V318.464C61.5262 318.578 61.5572 318.665 61.6192 318.725C61.6812 318.787 61.7682 318.818 61.8802 318.818C61.9902 318.818 62.0772 318.787 62.1412 318.725C62.2032 318.665 62.2342 318.578 62.2342 318.464V318.419C62.2342 318.305 62.2032 318.217 62.1412 318.155C62.0772 318.095 61.9902 318.065 61.8802 318.065ZM58.3833 316.964C58.5033 316.964 58.6103 316.983 58.7043 317.021C58.7983 317.061 58.8783 317.116 58.9443 317.186C59.0103 317.258 59.0603 317.344 59.0943 317.444C59.1283 317.546 59.1453 317.66 59.1453 317.786C59.1453 317.936 59.1233 318.077 59.0793 318.209C59.0333 318.343 58.9743 318.465 58.9023 318.575C58.8303 318.687 58.7503 318.786 58.6623 318.872C58.5723 318.96 58.4833 319.034 58.3953 319.094H57.8613C57.9853 319.006 58.0963 318.921 58.1943 318.839C58.2903 318.757 58.3753 318.674 58.4493 318.59C58.5213 318.506 58.5813 318.418 58.6293 318.326C58.6753 318.236 58.7103 318.138 58.7343 318.032L58.7103 318.026C58.6903 318.066 58.6673 318.104 58.6413 318.14C58.6133 318.178 58.5803 318.211 58.5423 318.239C58.5043 318.269 58.4603 318.292 58.4103 318.308C58.3603 318.326 58.3023 318.335 58.2363 318.335C58.1503 318.335 58.0703 318.32 57.9963 318.29C57.9203 318.26 57.8553 318.216 57.8013 318.158C57.7453 318.102 57.7023 318.034 57.6723 317.954C57.6403 317.874 57.6243 317.785 57.6243 317.687C57.6243 317.581 57.6423 317.484 57.6783 317.396C57.7143 317.308 57.7653 317.232 57.8313 317.168C57.8973 317.104 57.9773 317.054 58.0713 317.018C58.1633 316.982 58.2673 316.964 58.3833 316.964ZM58.3833 317.276C58.2733 317.276 58.1873 317.306 58.1253 317.366C58.0613 317.428 58.0293 317.516 58.0293 317.63V317.675C58.0293 317.789 58.0613 317.876 58.1253 317.936C58.1873 317.998 58.2733 318.029 58.3833 318.029C58.4953 318.029 58.5823 317.998 58.6443 317.936C58.7063 317.876 58.7373 317.789 58.7373 317.675V317.63C58.7373 317.516 58.7063 317.428 58.6443 317.366C58.5823 317.306 58.4953 317.276 58.3833 317.276ZM65.743 309L65.014 310.773H65.737V310.389H66.073V311.094H64.621V310.755L65.329 309H65.743ZM61.1332 309H62.5852V309.366L61.9282 309.942C61.8162 310.04 61.7342 310.128 61.6822 310.206C61.6302 310.286 61.6042 310.372 61.6042 310.464V310.503C61.6042 310.595 61.6342 310.665 61.6942 310.713C61.7542 310.763 61.8272 310.788 61.9132 310.788C62.0212 310.788 62.1032 310.757 62.1592 310.695C62.2152 310.635 62.2552 310.562 62.2792 310.476L62.6212 310.608C62.5992 310.678 62.5682 310.744 62.5282 310.806C62.4882 310.87 62.4382 310.926 62.3782 310.974C62.3162 311.022 62.2442 311.06 62.1622 311.088C62.0802 311.116 61.9862 311.13 61.8802 311.13C61.7702 311.13 61.6722 311.114 61.5862 311.082C61.5002 311.052 61.4282 311.009 61.3702 310.953C61.3102 310.897 61.2652 310.831 61.2352 310.755C61.2032 310.679 61.1872 310.596 61.1872 310.506C61.1872 310.418 61.2012 310.338 61.2292 310.266C61.2572 310.194 61.2952 310.125 61.3432 310.059C61.3912 309.995 61.4472 309.933 61.5112 309.873C61.5752 309.815 61.6432 309.756 61.7152 309.696L62.1562 309.333H61.1332V309ZM58.2483 309V309.405H59.1963V309.741L58.3623 311.094H57.8733V309.711H57.6003V309.405H57.8733V309H58.2483ZM58.8723 309.711H58.2483V310.71H58.2723L58.8723 309.711ZM65.35 300.964C65.472 300.964 65.581 300.979 65.677 301.009C65.771 301.041 65.851 301.084 65.917 301.138C65.981 301.192 66.03 301.256 66.064 301.33C66.098 301.404 66.115 301.485 66.115 301.573C66.115 301.709 66.078 301.819 66.004 301.903C65.928 301.989 65.827 302.049 65.701 302.083V302.107C65.805 302.145 65.89 302.204 65.956 302.284C66.02 302.364 66.052 302.465 66.052 302.587C66.052 302.667 66.037 302.74 66.007 302.806C65.975 302.872 65.929 302.929 65.869 302.977C65.809 303.025 65.736 303.062 65.65 303.088C65.562 303.116 65.462 303.13 65.35 303.13C65.238 303.13 65.139 303.116 65.053 303.088C64.965 303.062 64.891 303.025 64.831 302.977C64.771 302.929 64.726 302.872 64.696 302.806C64.664 302.74 64.648 302.667 64.648 302.587C64.648 302.465 64.681 302.364 64.747 302.284C64.811 302.204 64.895 302.145 64.999 302.107V302.083C64.873 302.049 64.773 301.989 64.699 301.903C64.623 301.819 64.585 301.709 64.585 301.573C64.585 301.485 64.602 301.404 64.636 301.33C64.67 301.256 64.72 301.192 64.786 301.138C64.85 301.084 64.93 301.041 65.026 301.009C65.12 300.979 65.228 300.964 65.35 300.964ZM65.35 301.273C65.236 301.273 65.149 301.299 65.089 301.351C65.027 301.403 64.996 301.476 64.996 301.57V301.633C64.996 301.727 65.027 301.8 65.089 301.852C65.149 301.904 65.236 301.93 65.35 301.93C65.464 301.93 65.552 301.904 65.614 301.852C65.674 301.8 65.704 301.727 65.704 301.633V301.57C65.704 301.476 65.674 301.403 65.614 301.351C65.552 301.299 65.464 301.273 65.35 301.273ZM65.35 302.224C65.244 302.224 65.163 302.248 65.107 302.296C65.051 302.344 65.023 302.412 65.023 302.5V302.548C65.023 302.634 65.051 302.701 65.107 302.749C65.163 302.797 65.244 302.821 65.35 302.821C65.456 302.821 65.537 302.797 65.593 302.749C65.649 302.701 65.677 302.634 65.677 302.548V302.5C65.677 302.412 65.649 302.344 65.593 302.296C65.537 302.248 65.456 302.224 65.35 302.224ZM65.341 292.964C65.461 292.964 65.568 292.983 65.662 293.021C65.756 293.061 65.836 293.116 65.902 293.186C65.968 293.258 66.018 293.344 66.052 293.444C66.086 293.546 66.103 293.66 66.103 293.786C66.103 293.936 66.081 294.077 66.037 294.209C65.991 294.343 65.932 294.465 65.86 294.575C65.788 294.687 65.708 294.786 65.62 294.872C65.53 294.96 65.441 295.034 65.353 295.094H64.819C64.943 295.006 65.054 294.921 65.152 294.839C65.248 294.757 65.333 294.674 65.407 294.59C65.479 294.506 65.539 294.418 65.587 294.326C65.633 294.236 65.668 294.138 65.692 294.032L65.668 294.026C65.648 294.066 65.625 294.104 65.599 294.14C65.571 294.178 65.538 294.211 65.5 294.239C65.462 294.269 65.418 294.292 65.368 294.308C65.318 294.326 65.26 294.335 65.194 294.335C65.108 294.335 65.028 294.32 64.954 294.29C64.878 294.26 64.813 294.216 64.759 294.158C64.703 294.102 64.66 294.034 64.63 293.954C64.598 293.874 64.582 293.785 64.582 293.687C64.582 293.581 64.6 293.484 64.636 293.396C64.672 293.308 64.723 293.232 64.789 293.168C64.855 293.104 64.935 293.054 65.029 293.018C65.121 292.982 65.225 292.964 65.341 292.964ZM65.341 293.276C65.231 293.276 65.145 293.306 65.083 293.366C65.019 293.428 64.987 293.516 64.987 293.63V293.675C64.987 293.789 65.019 293.876 65.083 293.936C65.145 293.998 65.231 294.029 65.341 294.029C65.453 294.029 65.54 293.998 65.602 293.936C65.664 293.876 65.695 293.789 65.695 293.675V293.63C65.695 293.516 65.664 293.428 65.602 293.366C65.54 293.306 65.453 293.276 65.341 293.276ZM65.35 284.964C65.484 284.964 65.6 284.988 65.698 285.036C65.796 285.086 65.877 285.157 65.941 285.249C66.005 285.341 66.053 285.454 66.085 285.588C66.115 285.722 66.13 285.875 66.13 286.047C66.13 286.217 66.115 286.369 66.085 286.503C66.053 286.639 66.005 286.753 65.941 286.845C65.877 286.937 65.796 287.007 65.698 287.055C65.6 287.105 65.484 287.13 65.35 287.13C65.084 287.13 64.888 287.035 64.762 286.845C64.634 286.655 64.57 286.389 64.57 286.047C64.57 285.705 64.634 285.439 64.762 285.249C64.888 285.059 65.084 284.964 65.35 284.964ZM65.35 285.297C65.216 285.297 65.123 285.347 65.071 285.447C65.017 285.549 64.99 285.686 64.99 285.858V286.236C64.99 286.408 65.017 286.544 65.071 286.644C65.123 286.746 65.216 286.797 65.35 286.797C65.484 286.797 65.578 286.746 65.632 286.644C65.684 286.544 65.71 286.408 65.71 286.236V285.858C65.71 285.686 65.684 285.549 65.632 285.447C65.578 285.347 65.484 285.297 65.35 285.297ZM61.1182 286.308C61.1182 286.158 61.1412 286.016 61.1872 285.882C61.2312 285.75 61.2892 285.628 61.3612 285.516C61.4332 285.406 61.5142 285.307 61.6042 285.219C61.6922 285.133 61.7802 285.06 61.8682 285H62.4022C62.2802 285.088 62.1702 285.173 62.0722 285.255C61.9742 285.337 61.8892 285.42 61.8172 285.504C61.7432 285.588 61.6832 285.675 61.6372 285.765C61.5892 285.857 61.5532 285.956 61.5292 286.062L61.5532 286.068C61.5732 286.028 61.5972 285.989 61.6252 285.951C61.6512 285.913 61.6832 285.88 61.7212 285.852C61.7592 285.824 61.8032 285.801 61.8532 285.783C61.9032 285.767 61.9612 285.759 62.0272 285.759C62.1152 285.759 62.1962 285.774 62.2702 285.804C62.3442 285.834 62.4092 285.877 62.4652 285.933C62.5192 285.991 62.5622 286.059 62.5942 286.137C62.6242 286.217 62.6392 286.307 62.6392 286.407C62.6392 286.513 62.6212 286.61 62.5852 286.698C62.5492 286.786 62.4982 286.862 62.4322 286.926C62.3662 286.99 62.2872 287.04 62.1952 287.076C62.1012 287.112 61.9962 287.13 61.8802 287.13C61.7602 287.13 61.6532 287.11 61.5592 287.07C61.4652 287.032 61.3852 286.977 61.3192 286.905C61.2532 286.835 61.2032 286.749 61.1692 286.647C61.1352 286.547 61.1182 286.434 61.1182 286.308ZM61.8802 286.065C61.7682 286.065 61.6812 286.095 61.6192 286.155C61.5572 286.217 61.5262 286.305 61.5262 286.419V286.464C61.5262 286.578 61.5572 286.665 61.6192 286.725C61.6812 286.787 61.7682 286.818 61.8802 286.818C61.9902 286.818 62.0772 286.787 62.1412 286.725C62.2032 286.665 62.2342 286.578 62.2342 286.464V286.419C62.2342 286.305 62.2032 286.217 62.1412 286.155C62.0772 286.095 61.9902 286.065 61.8802 286.065ZM65.35 276.964C65.472 276.964 65.581 276.979 65.677 277.009C65.771 277.041 65.851 277.084 65.917 277.138C65.981 277.192 66.03 277.256 66.064 277.33C66.098 277.404 66.115 277.485 66.115 277.573C66.115 277.709 66.078 277.819 66.004 277.903C65.928 277.989 65.827 278.049 65.701 278.083V278.107C65.805 278.145 65.89 278.204 65.956 278.284C66.02 278.364 66.052 278.465 66.052 278.587C66.052 278.667 66.037 278.74 66.007 278.806C65.975 278.872 65.929 278.929 65.869 278.977C65.809 279.025 65.736 279.062 65.65 279.088C65.562 279.116 65.462 279.13 65.35 279.13C65.238 279.13 65.139 279.116 65.053 279.088C64.965 279.062 64.891 279.025 64.831 278.977C64.771 278.929 64.726 278.872 64.696 278.806C64.664 278.74 64.648 278.667 64.648 278.587C64.648 278.465 64.681 278.364 64.747 278.284C64.811 278.204 64.895 278.145 64.999 278.107V278.083C64.873 278.049 64.773 277.989 64.699 277.903C64.623 277.819 64.585 277.709 64.585 277.573C64.585 277.485 64.602 277.404 64.636 277.33C64.67 277.256 64.72 277.192 64.786 277.138C64.85 277.084 64.93 277.041 65.026 277.009C65.12 276.979 65.228 276.964 65.35 276.964ZM65.35 277.273C65.236 277.273 65.149 277.299 65.089 277.351C65.027 277.403 64.996 277.476 64.996 277.57V277.633C64.996 277.727 65.027 277.8 65.089 277.852C65.149 277.904 65.236 277.93 65.35 277.93C65.464 277.93 65.552 277.904 65.614 277.852C65.674 277.8 65.704 277.727 65.704 277.633V277.57C65.704 277.476 65.674 277.403 65.614 277.351C65.552 277.299 65.464 277.273 65.35 277.273ZM65.35 278.224C65.244 278.224 65.163 278.248 65.107 278.296C65.051 278.344 65.023 278.412 65.023 278.5V278.548C65.023 278.634 65.051 278.701 65.107 278.749C65.163 278.797 65.244 278.821 65.35 278.821C65.456 278.821 65.537 278.797 65.593 278.749C65.649 278.701 65.677 278.634 65.677 278.548V278.5C65.677 278.412 65.649 278.344 65.593 278.296C65.537 278.248 65.456 278.224 65.35 278.224ZM61.1332 277H62.5852V277.366L61.9282 277.942C61.8162 278.04 61.7342 278.128 61.6822 278.206C61.6302 278.286 61.6042 278.372 61.6042 278.464V278.503C61.6042 278.595 61.6342 278.665 61.6942 278.713C61.7542 278.763 61.8272 278.788 61.9132 278.788C62.0212 278.788 62.1032 278.757 62.1592 278.695C62.2152 278.635 62.2552 278.562 62.2792 278.476L62.6212 278.608C62.5992 278.678 62.5682 278.744 62.5282 278.806C62.4882 278.87 62.4382 278.926 62.3782 278.974C62.3162 279.022 62.2442 279.06 62.1622 279.088C62.0802 279.116 61.9862 279.13 61.8802 279.13C61.7702 279.13 61.6722 279.114 61.5862 279.082C61.5002 279.052 61.4282 279.009 61.3702 278.953C61.3102 278.897 61.2652 278.831 61.2352 278.755C61.2032 278.679 61.1872 278.596 61.1872 278.506C61.1872 278.418 61.2012 278.338 61.2292 278.266C61.2572 278.194 61.2952 278.125 61.3432 278.059C61.3912 277.995 61.4472 277.933 61.5112 277.873C61.5752 277.815 61.6432 277.756 61.7152 277.696L62.1562 277.333H61.1332V277ZM65.464 270.248C65.344 270.248 65.256 270.272 65.2 270.32C65.142 270.37 65.113 270.433 65.113 270.509V270.53C65.113 270.616 65.141 270.683 65.197 270.731C65.251 270.781 65.326 270.806 65.422 270.806C65.514 270.806 65.596 270.784 65.668 270.74C65.738 270.696 65.799 270.634 65.851 270.554L66.103 270.782C66.067 270.83 66.028 270.875 65.986 270.917C65.942 270.961 65.892 270.998 65.836 271.028C65.78 271.06 65.717 271.085 65.647 271.103C65.577 271.121 65.498 271.13 65.41 271.13C65.304 271.13 65.208 271.117 65.122 271.091C65.034 271.067 64.959 271.031 64.897 270.983C64.833 270.935 64.784 270.877 64.75 270.809C64.716 270.743 64.699 270.668 64.699 270.584C64.699 270.516 64.71 270.455 64.732 270.401C64.752 270.347 64.781 270.3 64.819 270.26C64.855 270.22 64.898 270.187 64.948 270.161C64.996 270.137 65.047 270.119 65.101 270.107V270.089C65.041 270.077 64.984 270.058 64.93 270.032C64.876 270.006 64.83 269.971 64.792 269.927C64.752 269.885 64.721 269.835 64.699 269.777C64.675 269.719 64.663 269.653 64.663 269.579C64.663 269.487 64.682 269.403 64.72 269.327C64.756 269.251 64.808 269.186 64.876 269.132C64.944 269.078 65.025 269.036 65.119 269.006C65.213 268.978 65.318 268.964 65.434 268.964C65.536 268.964 65.626 268.975 65.704 268.997C65.782 269.017 65.851 269.045 65.911 269.081C65.969 269.117 66.02 269.158 66.064 269.204C66.108 269.252 66.146 269.302 66.178 269.354L65.887 269.576C65.863 269.534 65.837 269.495 65.809 269.459C65.781 269.425 65.749 269.395 65.713 269.369C65.677 269.343 65.636 269.323 65.59 269.309C65.544 269.295 65.492 269.288 65.434 269.288C65.318 269.288 65.229 269.316 65.167 269.372C65.105 269.428 65.074 269.505 65.074 269.603V269.624C65.074 269.72 65.108 269.793 65.176 269.843C65.242 269.893 65.338 269.918 65.464 269.918H65.671V270.248H65.464ZM61.7272 269V269.405H62.6752V269.741L61.8412 271.094H61.3522L61.3522 269.711H61.0792V269.405H61.3522V269H61.7272ZM62.3512 269.711H61.7272L61.7272 270.71H61.7512L62.3512 269.711ZM64.597 262.308C64.597 262.158 64.62 262.016 64.666 261.882C64.71 261.75 64.768 261.628 64.84 261.516C64.912 261.406 64.993 261.307 65.083 261.219C65.171 261.133 65.259 261.06 65.347 261H65.881C65.759 261.088 65.649 261.173 65.551 261.255C65.453 261.337 65.368 261.42 65.296 261.504C65.222 261.588 65.162 261.675 65.116 261.765C65.068 261.857 65.032 261.956 65.008 262.062L65.032 262.068C65.052 262.028 65.076 261.989 65.104 261.951C65.13 261.913 65.162 261.88 65.2 261.852C65.238 261.824 65.282 261.801 65.332 261.783C65.382 261.767 65.44 261.759 65.506 261.759C65.594 261.759 65.675 261.774 65.749 261.804C65.823 261.834 65.888 261.877 65.944 261.933C65.998 261.991 66.041 262.059 66.073 262.137C66.103 262.217 66.118 262.307 66.118 262.407C66.118 262.513 66.1 262.61 66.064 262.698C66.028 262.786 65.977 262.862 65.911 262.926C65.845 262.99 65.766 263.04 65.674 263.076C65.58 263.112 65.475 263.13 65.359 263.13C65.239 263.13 65.132 263.11 65.038 263.07C64.944 263.032 64.864 262.977 64.798 262.905C64.732 262.835 64.682 262.749 64.648 262.647C64.614 262.547 64.597 262.434 64.597 262.308ZM65.359 262.065C65.247 262.065 65.16 262.095 65.098 262.155C65.036 262.217 65.005 262.305 65.005 262.419V262.464C65.005 262.578 65.036 262.665 65.098 262.725C65.16 262.787 65.247 262.818 65.359 262.818C65.469 262.818 65.556 262.787 65.62 262.725C65.682 262.665 65.713 262.578 65.713 262.464V262.419C65.713 262.305 65.682 262.217 65.62 262.155C65.556 262.095 65.469 262.065 65.359 262.065ZM61.2262 262.752H62.1682L62.2162 262.05H62.1952C62.1732 262.094 62.1492 262.135 62.1232 262.173C62.0972 262.211 62.0672 262.243 62.0332 262.269C61.9992 262.295 61.9602 262.315 61.9162 262.329C61.8702 262.345 61.8152 262.353 61.7512 262.353C61.6612 262.353 61.5772 262.338 61.4992 262.308C61.4212 262.278 61.3542 262.234 61.2982 262.176C61.2402 262.12 61.1952 262.051 61.1632 261.969C61.1292 261.887 61.1122 261.794 61.1122 261.69C61.1122 261.584 61.1292 261.487 61.1632 261.399C61.1972 261.311 61.2472 261.234 61.3132 261.168C61.3792 261.104 61.4602 261.054 61.5562 261.018C61.6522 260.982 61.7622 260.964 61.8862 260.964C61.9822 260.964 62.0682 260.975 62.1442 260.997C62.2202 261.017 62.2872 261.045 62.3452 261.081C62.4032 261.117 62.4532 261.158 62.4952 261.204C62.5372 261.252 62.5742 261.302 62.6062 261.354L62.3182 261.576C62.2942 261.536 62.2692 261.498 62.2432 261.462C62.2172 261.428 62.1872 261.398 62.1532 261.372C62.1172 261.346 62.0782 261.325 62.0362 261.309C61.9922 261.295 61.9412 261.288 61.8832 261.288C61.7652 261.288 61.6762 261.321 61.6162 261.387C61.5542 261.453 61.5232 261.543 61.5232 261.657V261.681C61.5232 261.789 61.5542 261.874 61.6162 261.936C61.6782 261.998 61.7642 262.029 61.8742 262.029C61.9602 262.029 62.0302 262.012 62.0842 261.978C62.1382 261.946 62.1812 261.911 62.2132 261.873L62.5372 261.918L62.4592 263.094H61.2262V262.752ZM58.2483 261V261.405H59.1963V261.741L58.3623 263.094H57.8733L57.8733 261.711H57.6003V261.405H57.8733V261H58.2483ZM58.8723 261.711H58.2483L58.2483 262.71H58.2723L58.8723 261.711ZM54.7695 261V261.405H55.7175V261.741L54.8835 263.094H54.3945L54.3945 261.711H54.1215V261.405H54.3945V261H54.7695ZM55.3935 261.711H54.7695L54.7695 262.71H54.7935L55.3935 261.711ZM64.612 253H66.064V253.366L65.407 253.942C65.295 254.04 65.213 254.128 65.161 254.206C65.109 254.286 65.083 254.372 65.083 254.464V254.503C65.083 254.595 65.113 254.665 65.173 254.713C65.233 254.763 65.306 254.788 65.392 254.788C65.5 254.788 65.582 254.757 65.638 254.695C65.694 254.635 65.734 254.562 65.758 254.476L66.1 254.608C66.078 254.678 66.047 254.744 66.007 254.806C65.967 254.87 65.917 254.926 65.857 254.974C65.795 255.022 65.723 255.06 65.641 255.088C65.559 255.116 65.465 255.13 65.359 255.13C65.249 255.13 65.151 255.114 65.065 255.082C64.979 255.052 64.907 255.009 64.849 254.953C64.789 254.897 64.744 254.831 64.714 254.755C64.682 254.679 64.666 254.596 64.666 254.506C64.666 254.418 64.68 254.338 64.708 254.266C64.736 254.194 64.774 254.125 64.822 254.059C64.87 253.995 64.926 253.933 64.99 253.873C65.054 253.815 65.122 253.756 65.194 253.696L65.635 253.333H64.612V253ZM61.1332 253H62.5852V253.366L61.9282 253.942C61.8162 254.04 61.7342 254.128 61.6822 254.206C61.6302 254.286 61.6042 254.372 61.6042 254.464V254.503C61.6042 254.595 61.6342 254.665 61.6942 254.713C61.7542 254.763 61.8272 254.788 61.9132 254.788C62.0212 254.788 62.1032 254.757 62.1592 254.695C62.2152 254.635 62.2552 254.562 62.2792 254.476L62.6212 254.608C62.5992 254.678 62.5682 254.744 62.5282 254.806C62.4882 254.87 62.4382 254.926 62.3782 254.974C62.3162 255.022 62.2442 255.06 62.1622 255.088C62.0802 255.116 61.9862 255.13 61.8802 255.13C61.7702 255.13 61.6722 255.114 61.5862 255.082C61.5002 255.052 61.4282 255.009 61.3702 254.953C61.3102 254.897 61.2652 254.831 61.2352 254.755C61.2032 254.679 61.1872 254.596 61.1872 254.506C61.1872 254.418 61.2012 254.338 61.2292 254.266C61.2572 254.194 61.2952 254.125 61.3432 254.059C61.3912 253.995 61.4472 253.933 61.5112 253.873C61.5752 253.815 61.6432 253.756 61.7152 253.696L62.1562 253.333H61.1332V253Z" fill="#0ECACA"/>
<path d="M75.75 334.5H69.25" stroke="#0ECACA" stroke-width="0.5"/>
<path d="M75.75 294.5H69.25" stroke="#0ECACA" stroke-width="0.5"/>
<path d="M75.75 310.5H72.25" stroke="#0ECACA" stroke-width="0.5"/>
<path d="M75.75 318.5H72.25" stroke="#0ECACA" stroke-width="0.5"/>
<path d="M75.75 326.5H72.25" stroke="#0ECACA" stroke-width="0.5"/>
<path d="M75.75 302.5H72.25" stroke="#0ECACA" stroke-width="0.5"/>
<path d="M75.75 254.5H69.25" stroke="#0ECACA" stroke-width="0.5"/>
<path d="M75.75 270.5H72.25" stroke="#0ECACA" stroke-width="0.5"/>
<path d="M75.75 278.5H72.25" stroke="#0ECACA" stroke-width="0.5"/>
<path d="M75.75 286.5H72.25" stroke="#0ECACA" stroke-width="0.5"/>
<path d="M75.75 262.5H72.25" stroke="#0ECACA" stroke-width="0.5"/>
<rect x="90.25" y="147" width="4" height="4" transform="rotate(90 90.25 147)" fill="#0ECACA"/>
<path d="M81.75 177L81.75 124.691C81.75 118.326 79.2214 112.221 74.7206 107.721L61.9363 94.9363C58.9357 91.9357 57.25 87.866 57.25 83.6226L57.25 65.25" stroke="#0ECACA" stroke-width="0.5"/>
<path d="M86.25 151L86.25 110.124C86.25 104.79 88.3804 99.6775 92.1676 95.9221L111.25 77" stroke="#0ECACA" stroke-width="0.5"/>
</svg>
