<svg width="354" height="128" viewBox="0 0 354 128" fill="none" xmlns="http://www.w3.org/2000/svg">
<g filter="url(#filter0_d_1373_1866)">
<path d="M51.5467 23H50.7367C50.5687 23 50.4847 22.916 50.4847 22.748V11.678C50.4847 11.51 50.5687 11.426 50.7367 11.426H54.9487C55.7767 11.426 56.4247 11.666 56.8927 12.146C57.3607 12.614 57.5947 13.262 57.5947 14.09V16.088C57.5947 16.928 57.3607 17.582 56.8927 18.05C56.4247 18.518 55.7767 18.752 54.9487 18.752H51.9787C51.8587 18.752 51.7987 18.806 51.7987 18.914V22.748C51.7987 22.916 51.7147 23 51.5467 23ZM51.9787 17.582H54.7687C55.7767 17.582 56.2807 17.066 56.2807 16.034V14.144C56.2807 13.1 55.7767 12.578 54.7687 12.578H51.9787C51.8587 12.578 51.7987 12.632 51.7987 12.74V17.42C51.7987 17.528 51.8587 17.582 51.9787 17.582ZM61.3633 11.678V22.748C61.3633 22.916 61.2793 23 61.1113 23H60.3013C60.1333 23 60.0493 22.916 60.0493 22.748V11.678C60.0493 11.51 60.1333 11.426 60.3013 11.426H61.1113C61.2793 11.426 61.3633 11.51 61.3633 11.678ZM64.5531 23H63.6171C63.5331 23 63.4731 22.976 63.4371 22.928C63.4131 22.868 63.4191 22.802 63.4551 22.73L66.6051 16.952L63.6171 11.696C63.5691 11.624 63.5631 11.564 63.5991 11.516C63.6351 11.456 63.6951 11.426 63.7791 11.426H64.6791C64.8711 11.426 65.0031 11.51 65.0751 11.678L67.4871 16.106H67.5591L69.9351 11.678C70.0311 11.51 70.1631 11.426 70.3311 11.426H71.2671C71.3511 11.426 71.4051 11.456 71.4291 11.516C71.4651 11.564 71.4651 11.624 71.4291 11.696L68.4231 16.934L71.5551 22.73C71.6031 22.802 71.6091 22.868 71.5731 22.928C71.5491 22.976 71.4951 23 71.4111 23H70.4571C70.2891 23 70.1751 22.922 70.1151 22.766L67.5411 17.942H67.4691L64.9131 22.766C64.8291 22.922 64.7091 23 64.5531 23ZM79.4512 23H73.7992C73.6312 23 73.5472 22.916 73.5472 22.748V11.678C73.5472 11.51 73.6312 11.426 73.7992 11.426H79.4512C79.6192 11.426 79.7032 11.51 79.7032 11.678V12.326C79.7032 12.494 79.6192 12.578 79.4512 12.578H75.0412C74.9212 12.578 74.8612 12.632 74.8612 12.74V16.376C74.8612 16.484 74.9212 16.538 75.0412 16.538H78.8932C79.0612 16.538 79.1452 16.622 79.1452 16.79V17.438C79.1452 17.606 79.0612 17.69 78.8932 17.69H75.0412C74.9212 17.69 74.8612 17.744 74.8612 17.852V21.686C74.8612 21.794 74.9212 21.848 75.0412 21.848H79.4512C79.6192 21.848 79.7032 21.932 79.7032 22.1V22.748C79.7032 22.916 79.6192 23 79.4512 23ZM88.2257 23H82.4477C82.2797 23 82.1957 22.916 82.1957 22.748V11.678C82.1957 11.51 82.2797 11.426 82.4477 11.426H83.2577C83.4257 11.426 83.5097 11.51 83.5097 11.678V21.65C83.5097 21.758 83.5697 21.812 83.6897 21.812H88.2257C88.3937 21.812 88.4777 21.902 88.4777 22.082V22.748C88.4777 22.916 88.3937 23 88.2257 23ZM95.0311 23H94.1311C93.9751 23 93.9211 22.916 93.9691 22.748L97.3351 11.678C97.3831 11.51 97.4971 11.426 97.6771 11.426H98.9731C99.1531 11.426 99.2671 11.51 99.3151 11.678L102.681 22.748C102.729 22.916 102.675 23 102.519 23H101.601C101.469 23 101.385 22.916 101.349 22.748L100.503 20.12H96.1471L95.3011 22.748C95.2531 22.916 95.1631 23 95.0311 23ZM98.2891 12.776L96.4351 19.004H100.215L98.3611 12.776H98.2891ZM105.67 23H104.86C104.692 23 104.608 22.916 104.608 22.748V11.678C104.608 11.51 104.692 11.426 104.86 11.426H109C109.828 11.426 110.482 11.666 110.962 12.146C111.442 12.614 111.682 13.262 111.682 14.09V15.728C111.682 16.4 111.52 16.958 111.196 17.402C110.872 17.834 110.422 18.122 109.846 18.266V18.338L111.934 22.712C112.042 22.904 111.982 23 111.754 23H110.944C110.74 23 110.59 22.916 110.494 22.748L108.478 18.392H106.102C105.982 18.392 105.922 18.446 105.922 18.554V22.748C105.922 22.916 105.838 23 105.67 23ZM106.102 17.294H108.82C109.852 17.294 110.368 16.778 110.368 15.746V14.144C110.368 13.1 109.852 12.578 108.82 12.578H106.102C105.982 12.578 105.922 12.632 105.922 12.74V17.132C105.922 17.24 105.982 17.294 106.102 17.294ZM117.102 23H116.292C116.124 23 116.04 22.916 116.04 22.748V12.74C116.04 12.632 115.98 12.578 115.86 12.578H113.412C113.232 12.578 113.142 12.494 113.142 12.326V11.678C113.142 11.51 113.232 11.426 113.412 11.426H119.982C120.162 11.426 120.252 11.51 120.252 11.678V12.326C120.252 12.494 120.162 12.578 119.982 12.578H117.534C117.414 12.578 117.354 12.632 117.354 12.74V22.748C117.354 22.916 117.27 23 117.102 23Z" fill="white"/>
</g>
<path d="M136.799 0.25L152.905 17L136.799 33.75H31.7783L15.6719 17L31.7783 0.25H136.799Z" stroke="#0ECACA" stroke-width="0.5"/>
<g filter="url(#filter1_d_1373_1866)">
<path d="M234.995 21.884H237.947C238.979 21.884 239.495 21.374 239.495 20.354V19.184C239.495 18.164 238.943 17.654 237.839 17.654H234.995C234.875 17.654 234.815 17.708 234.815 17.816V21.704C234.815 21.824 234.875 21.884 234.995 21.884ZM234.995 16.556H237.767C238.823 16.556 239.351 16.046 239.351 15.026V14.072C239.351 13.052 238.841 12.542 237.821 12.542H234.995C234.875 12.542 234.815 12.602 234.815 12.722V16.394C234.815 16.502 234.875 16.556 234.995 16.556ZM233.501 22.748V11.678C233.501 11.51 233.585 11.426 233.753 11.426H237.983C238.811 11.426 239.459 11.66 239.927 12.128C240.395 12.584 240.629 13.226 240.629 14.054V15.044C240.629 16.112 240.125 16.802 239.117 17.114C239.573 17.15 239.963 17.354 240.287 17.726C240.611 18.086 240.773 18.566 240.773 19.166V20.372C240.773 21.2 240.533 21.848 240.053 22.316C239.585 22.772 238.937 23 238.109 23H233.753C233.585 23 233.501 22.916 233.501 22.748ZM244.442 23H243.632C243.464 23 243.38 22.916 243.38 22.748V11.678C243.38 11.51 243.464 11.426 243.632 11.426H247.772C248.6 11.426 249.254 11.666 249.734 12.146C250.214 12.614 250.454 13.262 250.454 14.09V15.728C250.454 16.4 250.292 16.958 249.968 17.402C249.644 17.834 249.194 18.122 248.618 18.266V18.338L250.706 22.712C250.814 22.904 250.754 23 250.526 23H249.716C249.512 23 249.362 22.916 249.266 22.748L247.25 18.392H244.874C244.754 18.392 244.694 18.446 244.694 18.554V22.748C244.694 22.916 244.61 23 244.442 23ZM244.874 17.294H247.592C248.624 17.294 249.14 16.778 249.14 15.746V14.144C249.14 13.1 248.624 12.578 247.592 12.578H244.874C244.754 12.578 244.694 12.632 244.694 12.74V17.132C244.694 17.24 244.754 17.294 244.874 17.294ZM253.192 23H252.292C252.136 23 252.082 22.916 252.13 22.748L255.496 11.678C255.544 11.51 255.658 11.426 255.838 11.426H257.134C257.314 11.426 257.428 11.51 257.476 11.678L260.842 22.748C260.89 22.916 260.836 23 260.68 23H259.762C259.63 23 259.546 22.916 259.51 22.748L258.664 20.12H254.308L253.462 22.748C253.414 22.916 253.324 23 253.192 23ZM256.45 12.776L254.596 19.004H258.376L256.522 12.776H256.45ZM263.812 23H263.02C262.852 23 262.768 22.916 262.768 22.748V11.678C262.768 11.51 262.852 11.426 263.02 11.426H263.758C263.902 11.426 263.998 11.474 264.046 11.57L269.014 20.3H269.086V11.678C269.086 11.51 269.17 11.426 269.338 11.426H270.13C270.298 11.426 270.382 11.51 270.382 11.678V22.748C270.382 22.916 270.298 23 270.13 23H269.464C269.332 23 269.206 22.922 269.086 22.766L264.136 14.126H264.064V22.748C264.064 22.916 263.98 23 263.812 23ZM274.721 21.848H277.745C278.753 21.848 279.257 21.326 279.257 20.282V14.144C279.257 13.1 278.753 12.578 277.745 12.578H274.721C274.601 12.578 274.541 12.632 274.541 12.74V21.686C274.541 21.794 274.601 21.848 274.721 21.848ZM273.227 22.748V11.678C273.227 11.51 273.311 11.426 273.479 11.426H277.907C278.735 11.426 279.383 11.666 279.851 12.146C280.331 12.614 280.571 13.262 280.571 14.09V20.336C280.571 21.164 280.331 21.818 279.851 22.298C279.383 22.766 278.735 23 277.907 23H273.479C273.311 23 273.227 22.916 273.227 22.748ZM284.633 11.678V22.748C284.633 22.916 284.549 23 284.381 23H283.571C283.403 23 283.319 22.916 283.319 22.748V11.678C283.319 11.51 283.403 11.426 283.571 11.426H284.381C284.549 11.426 284.633 11.51 284.633 11.678ZM288.615 23H287.823C287.655 23 287.571 22.916 287.571 22.748V11.678C287.571 11.51 287.655 11.426 287.823 11.426H288.561C288.705 11.426 288.801 11.474 288.849 11.57L293.817 20.3H293.889V11.678C293.889 11.51 293.973 11.426 294.141 11.426H294.933C295.101 11.426 295.185 11.51 295.185 11.678V22.748C295.185 22.916 295.101 23 294.933 23H294.267C294.135 23 294.009 22.922 293.889 22.766L288.939 14.126H288.867V22.748C288.867 22.916 288.783 23 288.615 23ZM302.458 23H300.514C299.686 23 299.032 22.766 298.552 22.298C298.084 21.83 297.85 21.176 297.85 20.336V14.09C297.85 13.25 298.084 12.596 298.552 12.128C299.032 11.66 299.686 11.426 300.514 11.426H302.458C303.286 11.426 303.934 11.666 304.402 12.146C304.87 12.614 305.104 13.262 305.104 14.09V14.828C305.104 15.008 305.02 15.098 304.852 15.098H304.042C303.874 15.098 303.79 15.008 303.79 14.828V14.144C303.79 13.1 303.292 12.578 302.296 12.578H300.658C299.662 12.578 299.164 13.1 299.164 14.144V20.282C299.164 21.326 299.662 21.848 300.658 21.848H302.296C303.292 21.848 303.79 21.326 303.79 20.282V18.266C303.79 18.146 303.736 18.086 303.628 18.086H301.846C301.678 18.086 301.594 18.008 301.594 17.852V17.186C301.594 17.018 301.678 16.934 301.846 16.934H304.744C304.984 16.934 305.104 17.06 305.104 17.312V20.336C305.104 21.176 304.87 21.83 304.402 22.298C303.934 22.766 303.286 23 302.458 23Z" fill="white"/>
</g>
<path d="M320.701 0.25L336.808 17L320.701 33.75H215.681L199.574 17L215.681 0.25H320.701Z" stroke="#0ECACA" stroke-width="0.5"/>
<g filter="url(#filter2_d_1373_1866)">
<path d="M175.744 67.426H176.554C176.722 67.426 176.806 67.504 176.806 67.66V76.336C176.806 77.176 176.572 77.83 176.104 78.298C175.636 78.766 174.988 79 174.16 79H172.162C171.334 79 170.68 78.766 170.2 78.298C169.732 77.83 169.498 77.176 169.498 76.336V67.678C169.498 67.51 169.582 67.426 169.75 67.426H170.56C170.728 67.426 170.812 67.51 170.812 67.678V76.282C170.812 77.326 171.31 77.848 172.306 77.848H173.998C175.006 77.848 175.51 77.326 175.51 76.282V67.678C175.51 67.51 175.588 67.426 175.744 67.426ZM179.807 79H178.871C178.787 79 178.727 78.976 178.691 78.928C178.667 78.868 178.673 78.802 178.709 78.73L181.859 72.952L178.871 67.696C178.823 67.624 178.817 67.564 178.853 67.516C178.889 67.456 178.949 67.426 179.033 67.426H179.933C180.125 67.426 180.257 67.51 180.329 67.678L182.741 72.106H182.813L185.189 67.678C185.285 67.51 185.417 67.426 185.585 67.426H186.521C186.605 67.426 186.659 67.456 186.683 67.516C186.719 67.564 186.719 67.624 186.683 67.696L183.677 72.934L186.809 78.73C186.857 78.802 186.863 78.868 186.827 78.928C186.803 78.976 186.749 79 186.665 79H185.711C185.543 79 185.429 78.922 185.369 78.766L182.795 73.942H182.723L180.167 78.766C180.083 78.922 179.963 79 179.807 79Z" fill="white"/>
</g>
<path d="M197.079 56.25L213.185 73L197.079 89.75H157.445L141.339 73L157.445 56.25H197.079Z" stroke="#0ECACA" stroke-width="0.5"/>
<g filter="url(#filter3_d_1373_1866)">
<path d="M177.685 29.426H178.495C178.663 29.426 178.747 29.504 178.747 29.66V38.336C178.747 39.176 178.513 39.83 178.045 40.298C177.577 40.766 176.929 41 176.101 41H174.103C173.275 41 172.621 40.766 172.141 40.298C171.673 39.83 171.439 39.176 171.439 38.336V29.678C171.439 29.51 171.523 29.426 171.691 29.426H172.501C172.669 29.426 172.753 29.51 172.753 29.678V38.282C172.753 39.326 173.251 39.848 174.247 39.848H175.939C176.947 39.848 177.451 39.326 177.451 38.282V29.678C177.451 29.51 177.529 29.426 177.685 29.426ZM182.9 29.678V40.748C182.9 40.916 182.816 41 182.648 41H181.838C181.67 41 181.586 40.916 181.586 40.748V29.678C181.586 29.51 181.67 29.426 181.838 29.426H182.648C182.816 29.426 182.9 29.51 182.9 29.678Z" fill="white"/>
</g>
<path d="M196.057 18.25L212.162 35L196.057 51.75H156.423L140.316 35L156.423 18.25H196.057Z" stroke="#0ECACA" stroke-width="0.5"/>
<g filter="url(#filter4_d_1373_1866)">
<path d="M40.1451 98H38.8671C38.7111 98 38.6091 97.916 38.5611 97.748L35.3751 86.696C35.3391 86.516 35.4171 86.426 35.6091 86.426H36.4911C36.6471 86.426 36.7431 86.51 36.7791 86.678L39.4611 96.524H39.5331L42.2151 86.678C42.2511 86.51 42.3471 86.426 42.5031 86.426H43.4031C43.5831 86.426 43.6551 86.516 43.6191 86.696L40.4331 97.748C40.3851 97.916 40.2891 98 40.1451 98ZM51.3746 98H45.7226C45.5546 98 45.4706 97.916 45.4706 97.748V86.678C45.4706 86.51 45.5546 86.426 45.7226 86.426H51.3746C51.5426 86.426 51.6266 86.51 51.6266 86.678V87.326C51.6266 87.494 51.5426 87.578 51.3746 87.578H46.9646C46.8446 87.578 46.7846 87.632 46.7846 87.74V91.376C46.7846 91.484 46.8446 91.538 46.9646 91.538H50.8166C50.9846 91.538 51.0686 91.622 51.0686 91.79V92.438C51.0686 92.606 50.9846 92.69 50.8166 92.69H46.9646C46.8446 92.69 46.7846 92.744 46.7846 92.852V96.686C46.7846 96.794 46.8446 96.848 46.9646 96.848H51.3746C51.5426 96.848 51.6266 96.932 51.6266 97.1V97.748C51.6266 97.916 51.5426 98 51.3746 98ZM58.763 98H56.603C55.775 98 55.121 97.766 54.641 97.298C54.173 96.83 53.939 96.176 53.939 95.336V89.09C53.939 88.25 54.173 87.596 54.641 87.128C55.121 86.66 55.775 86.426 56.603 86.426H58.763C59.591 86.426 60.239 86.66 60.707 87.128C61.187 87.596 61.427 88.25 61.427 89.09V89.972C61.427 90.14 61.343 90.224 61.175 90.224H60.365C60.197 90.224 60.113 90.14 60.113 89.972V89.144C60.113 88.1 59.609 87.578 58.601 87.578H56.747C55.751 87.578 55.253 88.1 55.253 89.144V95.282C55.253 96.326 55.751 96.848 56.747 96.848H58.601C59.609 96.848 60.113 96.326 60.113 95.282V94.454C60.113 94.286 60.197 94.202 60.365 94.202H61.175C61.343 94.202 61.427 94.286 61.427 94.454V95.336C61.427 96.176 61.187 96.83 60.707 97.298C60.239 97.766 59.591 98 58.763 98ZM66.6833 98H65.8733C65.7053 98 65.6213 97.916 65.6213 97.748V87.74C65.6213 87.632 65.5613 87.578 65.4413 87.578H62.9933C62.8133 87.578 62.7233 87.494 62.7233 87.326V86.678C62.7233 86.51 62.8133 86.426 62.9933 86.426H69.5633C69.7433 86.426 69.8333 86.51 69.8333 86.678V87.326C69.8333 87.494 69.7433 87.578 69.5633 87.578H67.1153C66.9953 87.578 66.9353 87.632 66.9353 87.74V97.748C66.9353 97.916 66.8513 98 66.6833 98ZM74.1669 96.848H76.0029C77.0109 96.848 77.5149 96.326 77.5149 95.282V89.144C77.5149 88.1 77.0109 87.578 76.0029 87.578H74.1669C73.1709 87.578 72.6729 88.1 72.6729 89.144V95.282C72.6729 96.326 73.1709 96.848 74.1669 96.848ZM76.1649 98H74.0229C73.1949 98 72.5409 97.766 72.0609 97.298C71.5929 96.83 71.3589 96.176 71.3589 95.336V89.09C71.3589 88.25 71.5929 87.596 72.0609 87.128C72.5409 86.66 73.1949 86.426 74.0229 86.426H76.1649C76.9929 86.426 77.6409 86.666 78.1089 87.146C78.5889 87.614 78.8289 88.262 78.8289 89.09V95.336C78.8289 96.164 78.5889 96.818 78.1089 97.298C77.6409 97.766 76.9929 98 76.1649 98ZM82.5501 98H81.7401C81.5721 98 81.4881 97.916 81.4881 97.748V86.678C81.4881 86.51 81.5721 86.426 81.7401 86.426H85.8801C86.7081 86.426 87.3621 86.666 87.8421 87.146C88.3221 87.614 88.5621 88.262 88.5621 89.09V90.728C88.5621 91.4 88.4001 91.958 88.0761 92.402C87.7521 92.834 87.3021 93.122 86.7261 93.266V93.338L88.8141 97.712C88.9221 97.904 88.8621 98 88.6341 98H87.8241C87.6201 98 87.4701 97.916 87.3741 97.748L85.3581 93.392H82.9821C82.8621 93.392 82.8021 93.446 82.8021 93.554V97.748C82.8021 97.916 82.7181 98 82.5501 98ZM82.9821 92.294H85.7001C86.7321 92.294 87.2481 91.778 87.2481 90.746V89.144C87.2481 88.1 86.7321 87.578 85.7001 87.578H82.9821C82.8621 87.578 82.8021 87.632 82.8021 87.74V92.132C82.8021 92.24 82.8621 92.294 82.9821 92.294ZM95.8704 98H94.9704C94.8144 98 94.7604 97.916 94.8084 97.748L98.1744 86.678C98.2224 86.51 98.3364 86.426 98.5164 86.426H99.8124C99.9924 86.426 100.106 86.51 100.154 86.678L103.52 97.748C103.568 97.916 103.514 98 103.358 98H102.44C102.308 98 102.224 97.916 102.188 97.748L101.342 95.12H96.9864L96.1404 97.748C96.0924 97.916 96.0024 98 95.8704 98ZM99.1284 87.776L97.2744 94.004H101.054L99.2004 87.776H99.1284ZM106.509 98H105.699C105.531 98 105.447 97.916 105.447 97.748V86.678C105.447 86.51 105.531 86.426 105.699 86.426H109.839C110.667 86.426 111.321 86.666 111.801 87.146C112.281 87.614 112.521 88.262 112.521 89.09V90.728C112.521 91.4 112.359 91.958 112.035 92.402C111.711 92.834 111.261 93.122 110.685 93.266V93.338L112.773 97.712C112.881 97.904 112.821 98 112.593 98H111.783C111.579 98 111.429 97.916 111.333 97.748L109.317 93.392H106.941C106.821 93.392 106.761 93.446 106.761 93.554V97.748C106.761 97.916 106.677 98 106.509 98ZM106.941 92.294H109.659C110.691 92.294 111.207 91.778 111.207 90.746V89.144C111.207 88.1 110.691 87.578 109.659 87.578H106.941C106.821 87.578 106.761 87.632 106.761 87.74V92.132C106.761 92.24 106.821 92.294 106.941 92.294ZM117.941 98H117.131C116.963 98 116.879 97.916 116.879 97.748V87.74C116.879 87.632 116.819 87.578 116.699 87.578H114.251C114.071 87.578 113.981 87.494 113.981 87.326V86.678C113.981 86.51 114.071 86.426 114.251 86.426H120.821C121.001 86.426 121.091 86.51 121.091 86.678V87.326C121.091 87.494 121.001 87.578 120.821 87.578H118.373C118.253 87.578 118.193 87.632 118.193 87.74V97.748C118.193 97.916 118.109 98 117.941 98Z" fill="white"/>
</g>
<path d="M137.821 75.25L153.927 92L137.821 108.75H16.4531L0.34668 92L16.4531 75.25H137.821Z" stroke="#0ECACA" stroke-width="0.5"/>
<g filter="url(#filter5_d_1373_1866)">
<path d="M35.4028 60H34.5928C34.4248 60 34.3408 59.916 34.3408 59.748V49.74C34.3408 49.632 34.2808 49.578 34.1608 49.578H31.7128C31.5328 49.578 31.4428 49.494 31.4428 49.326V48.678C31.4428 48.51 31.5328 48.426 31.7128 48.426H38.2828C38.4628 48.426 38.5528 48.51 38.5528 48.678V49.326C38.5528 49.494 38.4628 49.578 38.2828 49.578H35.8348C35.7148 49.578 35.6548 49.632 35.6548 49.74V59.748C35.6548 59.916 35.5708 60 35.4028 60ZM43.7325 60H42.9225C42.7545 60 42.6705 59.916 42.6705 59.748V55.662L39.2505 48.696C39.2145 48.612 39.2145 48.546 39.2505 48.498C39.2865 48.45 39.3405 48.426 39.4125 48.426H40.4205C40.5525 48.426 40.6545 48.51 40.7265 48.678L43.3005 54.132H43.3905L45.9465 48.678C45.9945 48.51 46.0905 48.426 46.2345 48.426H47.2605C47.4645 48.426 47.5185 48.516 47.4225 48.696L43.9845 55.662V59.748C43.9845 59.916 43.9005 60 43.7325 60ZM50.3205 60H49.5105C49.3425 60 49.2585 59.916 49.2585 59.748V48.678C49.2585 48.51 49.3425 48.426 49.5105 48.426H53.7225C54.5505 48.426 55.1985 48.666 55.6665 49.146C56.1345 49.614 56.3685 50.262 56.3685 51.09V53.088C56.3685 53.928 56.1345 54.582 55.6665 55.05C55.1985 55.518 54.5505 55.752 53.7225 55.752H50.7525C50.6325 55.752 50.5725 55.806 50.5725 55.914V59.748C50.5725 59.916 50.4885 60 50.3205 60ZM50.7525 54.582H53.5425C54.5505 54.582 55.0545 54.066 55.0545 53.034V51.144C55.0545 50.1 54.5505 49.578 53.5425 49.578H50.7525C50.6325 49.578 50.5725 49.632 50.5725 49.74V54.42C50.5725 54.528 50.6325 54.582 50.7525 54.582ZM61.3611 58.848H63.1971C64.2051 58.848 64.7091 58.326 64.7091 57.282V51.144C64.7091 50.1 64.2051 49.578 63.1971 49.578H61.3611C60.3651 49.578 59.8671 50.1 59.8671 51.144V57.282C59.8671 58.326 60.3651 58.848 61.3611 58.848ZM63.3591 60H61.2171C60.3891 60 59.7351 59.766 59.2551 59.298C58.7871 58.83 58.5531 58.176 58.5531 57.336V51.09C58.5531 50.25 58.7871 49.596 59.2551 49.128C59.7351 48.66 60.3891 48.426 61.2171 48.426H63.3591C64.1871 48.426 64.8351 48.666 65.3031 49.146C65.7831 49.614 66.0231 50.262 66.0231 51.09V57.336C66.0231 58.164 65.7831 58.818 65.3031 59.298C64.8351 59.766 64.1871 60 63.3591 60ZM73.1103 60H71.1663C70.3383 60 69.6843 59.766 69.2043 59.298C68.7363 58.83 68.5023 58.176 68.5023 57.336V51.09C68.5023 50.25 68.7363 49.596 69.2043 49.128C69.6843 48.66 70.3383 48.426 71.1663 48.426H73.1103C73.9383 48.426 74.5863 48.666 75.0543 49.146C75.5223 49.614 75.7563 50.262 75.7563 51.09V51.828C75.7563 52.008 75.6723 52.098 75.5043 52.098H74.6943C74.5263 52.098 74.4423 52.008 74.4423 51.828V51.144C74.4423 50.1 73.9443 49.578 72.9483 49.578H71.3103C70.3143 49.578 69.8163 50.1 69.8163 51.144V57.282C69.8163 58.326 70.3143 58.848 71.3103 58.848H72.9483C73.9443 58.848 74.4423 58.326 74.4423 57.282V55.266C74.4423 55.146 74.3883 55.086 74.2803 55.086H72.4983C72.3303 55.086 72.2463 55.008 72.2463 54.852V54.186C72.2463 54.018 72.3303 53.934 72.4983 53.934H75.3963C75.6363 53.934 75.7563 54.06 75.7563 54.312V57.336C75.7563 58.176 75.5223 58.83 75.0543 59.298C74.5863 59.766 73.9383 60 73.1103 60ZM79.4826 60H78.6726C78.5046 60 78.4206 59.916 78.4206 59.748V48.678C78.4206 48.51 78.5046 48.426 78.6726 48.426H82.8126C83.6406 48.426 84.2946 48.666 84.7746 49.146C85.2546 49.614 85.4946 50.262 85.4946 51.09V52.728C85.4946 53.4 85.3326 53.958 85.0086 54.402C84.6846 54.834 84.2346 55.122 83.6586 55.266V55.338L85.7466 59.712C85.8546 59.904 85.7946 60 85.5666 60H84.7566C84.5526 60 84.4026 59.916 84.3066 59.748L82.2906 55.392H79.9146C79.7946 55.392 79.7346 55.446 79.7346 55.554V59.748C79.7346 59.916 79.6506 60 79.4826 60ZM79.9146 54.294H82.6326C83.6646 54.294 84.1806 53.778 84.1806 52.746V51.144C84.1806 50.1 83.6646 49.578 82.6326 49.578H79.9146C79.7946 49.578 79.7346 49.632 79.7346 49.74V54.132C79.7346 54.24 79.7946 54.294 79.9146 54.294ZM88.2325 60H87.3325C87.1765 60 87.1225 59.916 87.1705 59.748L90.5365 48.678C90.5845 48.51 90.6985 48.426 90.8785 48.426H92.1745C92.3545 48.426 92.4685 48.51 92.5165 48.678L95.8825 59.748C95.9305 59.916 95.8765 60 95.7205 60H94.8025C94.6705 60 94.5865 59.916 94.5505 59.748L93.7045 57.12H89.3485L88.5025 59.748C88.4545 59.916 88.3645 60 88.2325 60ZM91.4905 49.776L89.6365 56.004H93.4165L91.5625 49.776H91.4905ZM98.8712 60H98.0612C97.8932 60 97.8092 59.916 97.8092 59.748V48.678C97.8092 48.51 97.8932 48.426 98.0612 48.426H102.273C103.101 48.426 103.749 48.666 104.217 49.146C104.685 49.614 104.919 50.262 104.919 51.09V53.088C104.919 53.928 104.685 54.582 104.217 55.05C103.749 55.518 103.101 55.752 102.273 55.752H99.3032C99.1832 55.752 99.1232 55.806 99.1232 55.914V59.748C99.1232 59.916 99.0392 60 98.8712 60ZM99.3032 54.582H102.093C103.101 54.582 103.605 54.066 103.605 53.034V51.144C103.605 50.1 103.101 49.578 102.093 49.578H99.3032C99.1832 49.578 99.1232 49.632 99.1232 49.74V54.42C99.1232 54.528 99.1832 54.582 99.3032 54.582ZM108.346 60H107.536C107.368 60 107.284 59.916 107.284 59.748V48.678C107.284 48.51 107.368 48.426 107.536 48.426H108.346C108.514 48.426 108.598 48.51 108.598 48.678V53.412C108.598 53.52 108.658 53.574 108.778 53.574H113.242C113.362 53.574 113.422 53.52 113.422 53.412V48.678C113.422 48.51 113.506 48.426 113.674 48.426H114.484C114.652 48.426 114.736 48.51 114.736 48.678V59.748C114.736 59.916 114.652 60 114.484 60H113.674C113.506 60 113.422 59.916 113.422 59.748V54.888C113.422 54.78 113.362 54.726 113.242 54.726H108.778C108.658 54.726 108.598 54.78 108.598 54.888V59.748C108.598 59.916 108.514 60 108.346 60ZM121.059 60H120.249C120.081 60 119.997 59.916 119.997 59.748V55.662L116.577 48.696C116.541 48.612 116.541 48.546 116.577 48.498C116.613 48.45 116.667 48.426 116.739 48.426H117.747C117.879 48.426 117.981 48.51 118.053 48.678L120.627 54.132H120.717L123.273 48.678C123.321 48.51 123.417 48.426 123.561 48.426H124.587C124.791 48.426 124.845 48.516 124.749 48.696L121.311 55.662V59.748C121.311 59.916 121.227 60 121.059 60Z" fill="white"/>
</g>
<path d="M137.821 37.25L153.927 54L137.821 70.75H16.4531L0.34668 54L16.4531 37.25H137.821Z" stroke="#0ECACA" stroke-width="0.5"/>
<g filter="url(#filter6_d_1373_1866)">
<path d="M236.56 60H235.174C235.006 60 234.904 59.916 234.868 59.748L232.564 48.678C232.528 48.51 232.606 48.426 232.798 48.426H233.77C233.95 48.426 234.046 48.51 234.058 48.678L235.876 58.596H235.984L238.414 48.66C238.45 48.504 238.546 48.426 238.702 48.426H239.782C239.938 48.426 240.034 48.504 240.07 48.66L242.536 58.596H242.644L244.444 48.696C244.48 48.516 244.582 48.426 244.75 48.426H245.722C245.914 48.426 245.992 48.516 245.956 48.696L243.634 59.748C243.598 59.916 243.502 60 243.346 60H241.96C241.792 60 241.69 59.916 241.654 59.748L239.296 50.082H239.224L236.848 59.748C236.812 59.916 236.716 60 236.56 60ZM253.748 60H248.096C247.928 60 247.844 59.916 247.844 59.748V48.678C247.844 48.51 247.928 48.426 248.096 48.426H253.748C253.916 48.426 254 48.51 254 48.678V49.326C254 49.494 253.916 49.578 253.748 49.578H249.338C249.218 49.578 249.158 49.632 249.158 49.74V53.376C249.158 53.484 249.218 53.538 249.338 53.538H253.19C253.358 53.538 253.442 53.622 253.442 53.79V54.438C253.442 54.606 253.358 54.69 253.19 54.69H249.338C249.218 54.69 249.158 54.744 249.158 54.852V58.686C249.158 58.794 249.218 58.848 249.338 58.848H253.748C253.916 58.848 254 58.932 254 59.1V59.748C254 59.916 253.916 60 253.748 60ZM257.986 58.884H260.938C261.97 58.884 262.486 58.374 262.486 57.354V56.184C262.486 55.164 261.934 54.654 260.83 54.654H257.986C257.866 54.654 257.806 54.708 257.806 54.816V58.704C257.806 58.824 257.866 58.884 257.986 58.884ZM257.986 53.556H260.758C261.814 53.556 262.342 53.046 262.342 52.026V51.072C262.342 50.052 261.832 49.542 260.812 49.542H257.986C257.866 49.542 257.806 49.602 257.806 49.722V53.394C257.806 53.502 257.866 53.556 257.986 53.556ZM256.492 59.748V48.678C256.492 48.51 256.576 48.426 256.744 48.426H260.974C261.802 48.426 262.45 48.66 262.918 49.128C263.386 49.584 263.62 50.226 263.62 51.054V52.044C263.62 53.112 263.116 53.802 262.108 54.114C262.564 54.15 262.954 54.354 263.278 54.726C263.602 55.086 263.764 55.566 263.764 56.166V57.372C263.764 58.2 263.524 58.848 263.044 59.316C262.576 59.772 261.928 60 261.1 60H256.744C256.576 60 256.492 59.916 256.492 59.748ZM272.436 58.848H275.46C276.468 58.848 276.972 58.326 276.972 57.282V51.144C276.972 50.1 276.468 49.578 275.46 49.578H272.436C272.316 49.578 272.256 49.632 272.256 49.74V58.686C272.256 58.794 272.316 58.848 272.436 58.848ZM270.942 59.748V48.678C270.942 48.51 271.026 48.426 271.194 48.426H275.622C276.45 48.426 277.098 48.666 277.566 49.146C278.046 49.614 278.286 50.262 278.286 51.09V57.336C278.286 58.164 278.046 58.818 277.566 59.298C277.098 59.766 276.45 60 275.622 60H271.194C271.026 60 270.942 59.916 270.942 59.748ZM286.848 60H281.196C281.028 60 280.944 59.916 280.944 59.748V48.678C280.944 48.51 281.028 48.426 281.196 48.426H286.848C287.016 48.426 287.1 48.51 287.1 48.678V49.326C287.1 49.494 287.016 49.578 286.848 49.578H282.438C282.318 49.578 282.258 49.632 282.258 49.74V53.376C282.258 53.484 282.318 53.538 282.438 53.538H286.29C286.458 53.538 286.542 53.622 286.542 53.79V54.438C286.542 54.606 286.458 54.69 286.29 54.69H282.438C282.318 54.69 282.258 54.744 282.258 54.852V58.686C282.258 58.794 282.318 58.848 282.438 58.848H286.848C287.016 58.848 287.1 58.932 287.1 59.1V59.748C287.1 59.916 287.016 60 286.848 60ZM289.466 57.336V56.76C289.466 56.592 289.55 56.508 289.718 56.508H290.528C290.696 56.508 290.78 56.592 290.78 56.76V57.228C290.78 58.308 291.314 58.848 292.382 58.848H293.966C295.034 58.848 295.568 58.296 295.568 57.192V56.58C295.568 55.716 294.854 55.152 293.426 54.888C292.826 54.78 292.226 54.654 291.626 54.51C291.026 54.366 290.516 54.09 290.096 53.682C289.676 53.262 289.466 52.692 289.466 51.972V51.09C289.466 50.262 289.7 49.614 290.168 49.146C290.648 48.666 291.302 48.426 292.13 48.426H294.128C294.944 48.426 295.592 48.666 296.072 49.146C296.552 49.614 296.792 50.262 296.792 51.09V51.54C296.792 51.72 296.714 51.81 296.558 51.81H295.73C295.574 51.81 295.496 51.72 295.496 51.54V51.216C295.496 50.124 294.962 49.578 293.894 49.578H292.364C291.296 49.578 290.762 50.148 290.762 51.288V52.008C290.762 52.62 291.164 53.04 291.968 53.268C292.328 53.364 292.724 53.454 293.156 53.538C293.588 53.61 294.02 53.712 294.452 53.844C294.896 53.964 295.298 54.12 295.658 54.312C296.018 54.492 296.306 54.774 296.522 55.158C296.75 55.53 296.864 55.986 296.864 56.526V57.336C296.864 58.164 296.624 58.818 296.144 59.298C295.664 59.766 295.016 60 294.2 60H292.13C291.314 60 290.666 59.766 290.186 59.298C289.706 58.818 289.466 58.164 289.466 57.336ZM300.98 48.678V59.748C300.98 59.916 300.896 60 300.728 60H299.918C299.75 60 299.666 59.916 299.666 59.748V48.678C299.666 48.51 299.75 48.426 299.918 48.426H300.728C300.896 48.426 300.98 48.51 300.98 48.678ZM308.346 60H306.402C305.574 60 304.92 59.766 304.44 59.298C303.972 58.83 303.738 58.176 303.738 57.336V51.09C303.738 50.25 303.972 49.596 304.44 49.128C304.92 48.66 305.574 48.426 306.402 48.426H308.346C309.174 48.426 309.822 48.666 310.29 49.146C310.758 49.614 310.992 50.262 310.992 51.09V51.828C310.992 52.008 310.908 52.098 310.74 52.098H309.93C309.762 52.098 309.678 52.008 309.678 51.828V51.144C309.678 50.1 309.18 49.578 308.184 49.578H306.546C305.55 49.578 305.052 50.1 305.052 51.144V57.282C305.052 58.326 305.55 58.848 306.546 58.848H308.184C309.18 58.848 309.678 58.326 309.678 57.282V55.266C309.678 55.146 309.624 55.086 309.516 55.086H307.734C307.566 55.086 307.482 55.008 307.482 54.852V54.186C307.482 54.018 307.566 53.934 307.734 53.934H310.632C310.872 53.934 310.992 54.06 310.992 54.312V57.336C310.992 58.176 310.758 58.83 310.29 59.298C309.822 59.766 309.174 60 308.346 60ZM314.7 60H313.908C313.74 60 313.656 59.916 313.656 59.748V48.678C313.656 48.51 313.74 48.426 313.908 48.426H314.646C314.79 48.426 314.886 48.474 314.934 48.57L319.902 57.3H319.974V48.678C319.974 48.51 320.058 48.426 320.226 48.426H321.018C321.186 48.426 321.27 48.51 321.27 48.678V59.748C321.27 59.916 321.186 60 321.018 60H320.352C320.22 60 320.094 59.922 319.974 59.766L315.024 51.126H314.952V59.748C314.952 59.916 314.868 60 314.7 60Z" fill="white"/>
</g>
<path d="M337.049 37.25L353.154 54L337.049 70.75H215.681L199.574 54L215.681 37.25H337.049Z" stroke="#0ECACA" stroke-width="0.5"/>
<g filter="url(#filter7_d_1373_1866)">
<path d="M180.659 117H178.715C177.887 117 177.233 116.766 176.753 116.298C176.285 115.83 176.051 115.176 176.051 114.336V108.09C176.051 107.25 176.285 106.596 176.753 106.128C177.233 105.66 177.887 105.426 178.715 105.426H180.659C181.487 105.426 182.135 105.666 182.603 106.146C183.071 106.614 183.305 107.262 183.305 108.09V108.828C183.305 109.008 183.221 109.098 183.053 109.098H182.243C182.075 109.098 181.991 109.008 181.991 108.828V108.144C181.991 107.1 181.493 106.578 180.497 106.578H178.859C177.863 106.578 177.365 107.1 177.365 108.144V114.282C177.365 115.326 177.863 115.848 178.859 115.848H180.497C181.493 115.848 181.991 115.326 181.991 114.282V112.266C181.991 112.146 181.937 112.086 181.829 112.086H180.047C179.879 112.086 179.795 112.008 179.795 111.852V111.186C179.795 111.018 179.879 110.934 180.047 110.934H182.945C183.185 110.934 183.305 111.06 183.305 111.312V114.336C183.305 115.176 183.071 115.83 182.603 116.298C182.135 116.766 181.487 117 180.659 117ZM187.031 117H186.221C186.053 117 185.969 116.916 185.969 116.748V105.678C185.969 105.51 186.053 105.426 186.221 105.426H190.361C191.189 105.426 191.843 105.666 192.323 106.146C192.803 106.614 193.043 107.262 193.043 108.09V109.728C193.043 110.4 192.881 110.958 192.557 111.402C192.233 111.834 191.783 112.122 191.207 112.266V112.338L193.295 116.712C193.403 116.904 193.343 117 193.115 117H192.305C192.101 117 191.951 116.916 191.855 116.748L189.839 112.392H187.463C187.343 112.392 187.283 112.446 187.283 112.554V116.748C187.283 116.916 187.199 117 187.031 117ZM187.463 111.294H190.181C191.213 111.294 191.729 110.778 191.729 109.746V108.144C191.729 107.1 191.213 106.578 190.181 106.578H187.463C187.343 106.578 187.283 106.632 187.283 106.74V111.132C187.283 111.24 187.343 111.294 187.463 111.294ZM195.781 117H194.881C194.725 117 194.671 116.916 194.719 116.748L198.085 105.678C198.133 105.51 198.247 105.426 198.427 105.426H199.723C199.903 105.426 200.017 105.51 200.065 105.678L203.431 116.748C203.479 116.916 203.425 117 203.269 117H202.351C202.219 117 202.135 116.916 202.099 116.748L201.253 114.12H196.897L196.051 116.748C196.003 116.916 195.913 117 195.781 117ZM199.039 106.776L197.185 113.004H200.965L199.111 106.776H199.039ZM206.42 117H205.61C205.442 117 205.358 116.916 205.358 116.748V105.678C205.358 105.51 205.442 105.426 205.61 105.426H209.822C210.65 105.426 211.298 105.666 211.766 106.146C212.234 106.614 212.468 107.262 212.468 108.09V110.088C212.468 110.928 212.234 111.582 211.766 112.05C211.298 112.518 210.65 112.752 209.822 112.752H206.852C206.732 112.752 206.672 112.806 206.672 112.914V116.748C206.672 116.916 206.588 117 206.42 117ZM206.852 111.582H209.642C210.65 111.582 211.154 111.066 211.154 110.034V108.144C211.154 107.1 210.65 106.578 209.642 106.578H206.852C206.732 106.578 206.672 106.632 206.672 106.74V111.42C206.672 111.528 206.732 111.582 206.852 111.582ZM215.894 117H215.084C214.916 117 214.832 116.916 214.832 116.748V105.678C214.832 105.51 214.916 105.426 215.084 105.426H215.894C216.062 105.426 216.146 105.51 216.146 105.678V110.412C216.146 110.52 216.206 110.574 216.326 110.574H220.79C220.91 110.574 220.97 110.52 220.97 110.412V105.678C220.97 105.51 221.054 105.426 221.222 105.426H222.032C222.2 105.426 222.284 105.51 222.284 105.678V116.748C222.284 116.916 222.2 117 222.032 117H221.222C221.054 117 220.97 116.916 220.97 116.748V111.888C220.97 111.78 220.91 111.726 220.79 111.726H216.326C216.206 111.726 216.146 111.78 216.146 111.888V116.748C216.146 116.916 216.062 117 215.894 117ZM226.537 105.678V116.748C226.537 116.916 226.453 117 226.285 117H225.475C225.307 117 225.223 116.916 225.223 116.748V105.678C225.223 105.51 225.307 105.426 225.475 105.426H226.285C226.453 105.426 226.537 105.51 226.537 105.678ZM234.119 117H231.959C231.131 117 230.477 116.766 229.997 116.298C229.529 115.83 229.295 115.176 229.295 114.336V108.09C229.295 107.25 229.529 106.596 229.997 106.128C230.477 105.66 231.131 105.426 231.959 105.426H234.119C234.947 105.426 235.595 105.66 236.063 106.128C236.543 106.596 236.783 107.25 236.783 108.09V108.972C236.783 109.14 236.699 109.224 236.531 109.224H235.721C235.553 109.224 235.469 109.14 235.469 108.972V108.144C235.469 107.1 234.965 106.578 233.957 106.578H232.103C231.107 106.578 230.609 107.1 230.609 108.144V114.282C230.609 115.326 231.107 115.848 232.103 115.848H233.957C234.965 115.848 235.469 115.326 235.469 114.282V113.454C235.469 113.286 235.553 113.202 235.721 113.202H236.531C236.699 113.202 236.783 113.286 236.783 113.454V114.336C236.783 115.176 236.543 115.83 236.063 116.298C235.595 116.766 234.947 117 234.119 117ZM245.277 115.848H248.301C249.309 115.848 249.813 115.326 249.813 114.282V108.144C249.813 107.1 249.309 106.578 248.301 106.578H245.277C245.157 106.578 245.097 106.632 245.097 106.74V115.686C245.097 115.794 245.157 115.848 245.277 115.848ZM243.783 116.748V105.678C243.783 105.51 243.867 105.426 244.035 105.426H248.463C249.291 105.426 249.939 105.666 250.407 106.146C250.887 106.614 251.127 107.262 251.127 108.09V114.336C251.127 115.164 250.887 115.818 250.407 116.298C249.939 116.766 249.291 117 248.463 117H244.035C243.867 117 243.783 116.916 243.783 116.748ZM259.689 117H254.037C253.869 117 253.785 116.916 253.785 116.748V105.678C253.785 105.51 253.869 105.426 254.037 105.426H259.689C259.857 105.426 259.941 105.51 259.941 105.678V106.326C259.941 106.494 259.857 106.578 259.689 106.578H255.279C255.159 106.578 255.099 106.632 255.099 106.74V110.376C255.099 110.484 255.159 110.538 255.279 110.538H259.131C259.299 110.538 259.383 110.622 259.383 110.79V111.438C259.383 111.606 259.299 111.69 259.131 111.69H255.279C255.159 111.69 255.099 111.744 255.099 111.852V115.686C255.099 115.794 255.159 115.848 255.279 115.848H259.689C259.857 115.848 259.941 115.932 259.941 116.1V116.748C259.941 116.916 259.857 117 259.689 117ZM262.308 114.336V113.76C262.308 113.592 262.392 113.508 262.56 113.508H263.37C263.538 113.508 263.622 113.592 263.622 113.76V114.228C263.622 115.308 264.156 115.848 265.224 115.848H266.808C267.876 115.848 268.41 115.296 268.41 114.192V113.58C268.41 112.716 267.696 112.152 266.268 111.888C265.668 111.78 265.068 111.654 264.468 111.51C263.868 111.366 263.358 111.09 262.938 110.682C262.518 110.262 262.308 109.692 262.308 108.972V108.09C262.308 107.262 262.542 106.614 263.01 106.146C263.49 105.666 264.144 105.426 264.972 105.426H266.97C267.786 105.426 268.434 105.666 268.914 106.146C269.394 106.614 269.634 107.262 269.634 108.09V108.54C269.634 108.72 269.556 108.81 269.4 108.81H268.572C268.416 108.81 268.338 108.72 268.338 108.54V108.216C268.338 107.124 267.804 106.578 266.736 106.578H265.206C264.138 106.578 263.604 107.148 263.604 108.288V109.008C263.604 109.62 264.006 110.04 264.81 110.268C265.17 110.364 265.566 110.454 265.998 110.538C266.43 110.61 266.862 110.712 267.294 110.844C267.738 110.964 268.14 111.12 268.5 111.312C268.86 111.492 269.148 111.774 269.364 112.158C269.592 112.53 269.706 112.986 269.706 113.526V114.336C269.706 115.164 269.466 115.818 268.986 116.298C268.506 116.766 267.858 117 267.042 117H264.972C264.156 117 263.508 116.766 263.028 116.298C262.548 115.818 262.308 115.164 262.308 114.336ZM273.822 105.678V116.748C273.822 116.916 273.738 117 273.57 117H272.76C272.592 117 272.508 116.916 272.508 116.748V105.678C272.508 105.51 272.592 105.426 272.76 105.426H273.57C273.738 105.426 273.822 105.51 273.822 105.678ZM281.188 117H279.244C278.416 117 277.762 116.766 277.282 116.298C276.814 115.83 276.58 115.176 276.58 114.336V108.09C276.58 107.25 276.814 106.596 277.282 106.128C277.762 105.66 278.416 105.426 279.244 105.426H281.188C282.016 105.426 282.664 105.666 283.132 106.146C283.6 106.614 283.834 107.262 283.834 108.09V108.828C283.834 109.008 283.75 109.098 283.582 109.098H282.772C282.604 109.098 282.52 109.008 282.52 108.828V108.144C282.52 107.1 282.022 106.578 281.026 106.578H279.388C278.392 106.578 277.894 107.1 277.894 108.144V114.282C277.894 115.326 278.392 115.848 279.388 115.848H281.026C282.022 115.848 282.52 115.326 282.52 114.282V112.266C282.52 112.146 282.466 112.086 282.358 112.086H280.576C280.408 112.086 280.324 112.008 280.324 111.852V111.186C280.324 111.018 280.408 110.934 280.576 110.934H283.474C283.714 110.934 283.834 111.06 283.834 111.312V114.336C283.834 115.176 283.6 115.83 283.132 116.298C282.664 116.766 282.016 117 281.188 117ZM287.542 117H286.75C286.582 117 286.498 116.916 286.498 116.748V105.678C286.498 105.51 286.582 105.426 286.75 105.426H287.488C287.632 105.426 287.728 105.474 287.776 105.57L292.744 114.3H292.816V105.678C292.816 105.51 292.9 105.426 293.068 105.426H293.86C294.028 105.426 294.112 105.51 294.112 105.678V116.748C294.112 116.916 294.028 117 293.86 117H293.194C293.062 117 292.936 116.922 292.816 116.766L287.866 108.126H287.794V116.748C287.794 116.916 287.71 117 287.542 117Z" fill="white"/>
</g>
<path d="M310.821 94.25L326.927 111L310.821 127.75H157.453L141.347 111L157.453 94.25H310.821Z" stroke="#0ECACA" stroke-width="0.5"/>
<defs>
<filter id="filter0_d_1373_1866" x="46.4844" y="9.42578" width="77.7676" height="19.5742" filterUnits="userSpaceOnUse" color-interpolation-filters="sRGB">
<feFlood flood-opacity="0" result="BackgroundImageFix"/>
<feColorMatrix in="SourceAlpha" type="matrix" values="0 0 0 0 0 0 0 0 0 0 0 0 0 0 0 0 0 0 127 0" result="hardAlpha"/>
<feOffset dy="2"/>
<feGaussianBlur stdDeviation="2"/>
<feComposite in2="hardAlpha" operator="out"/>
<feColorMatrix type="matrix" values="0 0 0 0 0 0 0 0 0 0 0 0 0 0 0 0 0 0 0.25 0"/>
<feBlend mode="normal" in2="BackgroundImageFix" result="effect1_dropShadow_1373_1866"/>
<feBlend mode="normal" in="SourceGraphic" in2="effect1_dropShadow_1373_1866" result="shape"/>
</filter>
<filter id="filter1_d_1373_1866" x="229.501" y="9.42578" width="79.6025" height="19.5742" filterUnits="userSpaceOnUse" color-interpolation-filters="sRGB">
<feFlood flood-opacity="0" result="BackgroundImageFix"/>
<feColorMatrix in="SourceAlpha" type="matrix" values="0 0 0 0 0 0 0 0 0 0 0 0 0 0 0 0 0 0 127 0" result="hardAlpha"/>
<feOffset dy="2"/>
<feGaussianBlur stdDeviation="2"/>
<feComposite in2="hardAlpha" operator="out"/>
<feColorMatrix type="matrix" values="0 0 0 0 0 0 0 0 0 0 0 0 0 0 0 0 0 0 0.25 0"/>
<feBlend mode="normal" in2="BackgroundImageFix" result="effect1_dropShadow_1373_1866"/>
<feBlend mode="normal" in="SourceGraphic" in2="effect1_dropShadow_1373_1866" result="shape"/>
</filter>
<filter id="filter2_d_1373_1866" x="165.498" y="65.4258" width="25.3828" height="19.5742" filterUnits="userSpaceOnUse" color-interpolation-filters="sRGB">
<feFlood flood-opacity="0" result="BackgroundImageFix"/>
<feColorMatrix in="SourceAlpha" type="matrix" values="0 0 0 0 0 0 0 0 0 0 0 0 0 0 0 0 0 0 127 0" result="hardAlpha"/>
<feOffset dy="2"/>
<feGaussianBlur stdDeviation="2"/>
<feComposite in2="hardAlpha" operator="out"/>
<feColorMatrix type="matrix" values="0 0 0 0 0 0 0 0 0 0 0 0 0 0 0 0 0 0 0.25 0"/>
<feBlend mode="normal" in2="BackgroundImageFix" result="effect1_dropShadow_1373_1866"/>
<feBlend mode="normal" in="SourceGraphic" in2="effect1_dropShadow_1373_1866" result="shape"/>
</filter>
<filter id="filter3_d_1373_1866" x="167.438" y="27.4258" width="19.4609" height="19.5742" filterUnits="userSpaceOnUse" color-interpolation-filters="sRGB">
<feFlood flood-opacity="0" result="BackgroundImageFix"/>
<feColorMatrix in="SourceAlpha" type="matrix" values="0 0 0 0 0 0 0 0 0 0 0 0 0 0 0 0 0 0 127 0" result="hardAlpha"/>
<feOffset dy="2"/>
<feGaussianBlur stdDeviation="2"/>
<feComposite in2="hardAlpha" operator="out"/>
<feColorMatrix type="matrix" values="0 0 0 0 0 0 0 0 0 0 0 0 0 0 0 0 0 0 0.25 0"/>
<feBlend mode="normal" in2="BackgroundImageFix" result="effect1_dropShadow_1373_1866"/>
<feBlend mode="normal" in="SourceGraphic" in2="effect1_dropShadow_1373_1866" result="shape"/>
</filter>
<filter id="filter4_d_1373_1866" x="31.3213" y="84.4258" width="93.7695" height="19.5742" filterUnits="userSpaceOnUse" color-interpolation-filters="sRGB">
<feFlood flood-opacity="0" result="BackgroundImageFix"/>
<feColorMatrix in="SourceAlpha" type="matrix" values="0 0 0 0 0 0 0 0 0 0 0 0 0 0 0 0 0 0 127 0" result="hardAlpha"/>
<feOffset dy="2"/>
<feGaussianBlur stdDeviation="2"/>
<feComposite in2="hardAlpha" operator="out"/>
<feColorMatrix type="matrix" values="0 0 0 0 0 0 0 0 0 0 0 0 0 0 0 0 0 0 0.25 0"/>
<feBlend mode="normal" in2="BackgroundImageFix" result="effect1_dropShadow_1373_1866"/>
<feBlend mode="normal" in="SourceGraphic" in2="effect1_dropShadow_1373_1866" result="shape"/>
</filter>
<filter id="filter5_d_1373_1866" x="27.4424" y="46.4258" width="101.45" height="19.5742" filterUnits="userSpaceOnUse" color-interpolation-filters="sRGB">
<feFlood flood-opacity="0" result="BackgroundImageFix"/>
<feColorMatrix in="SourceAlpha" type="matrix" values="0 0 0 0 0 0 0 0 0 0 0 0 0 0 0 0 0 0 127 0" result="hardAlpha"/>
<feOffset dy="2"/>
<feGaussianBlur stdDeviation="2"/>
<feComposite in2="hardAlpha" operator="out"/>
<feColorMatrix type="matrix" values="0 0 0 0 0 0 0 0 0 0 0 0 0 0 0 0 0 0 0.25 0"/>
<feBlend mode="normal" in2="BackgroundImageFix" result="effect1_dropShadow_1373_1866"/>
<feBlend mode="normal" in="SourceGraphic" in2="effect1_dropShadow_1373_1866" result="shape"/>
</filter>
<filter id="filter6_d_1373_1866" x="228.51" y="46.4258" width="96.7607" height="19.5742" filterUnits="userSpaceOnUse" color-interpolation-filters="sRGB">
<feFlood flood-opacity="0" result="BackgroundImageFix"/>
<feColorMatrix in="SourceAlpha" type="matrix" values="0 0 0 0 0 0 0 0 0 0 0 0 0 0 0 0 0 0 127 0" result="hardAlpha"/>
<feOffset dy="2"/>
<feGaussianBlur stdDeviation="2"/>
<feComposite in2="hardAlpha" operator="out"/>
<feColorMatrix type="matrix" values="0 0 0 0 0 0 0 0 0 0 0 0 0 0 0 0 0 0 0.25 0"/>
<feBlend mode="normal" in2="BackgroundImageFix" result="effect1_dropShadow_1373_1866"/>
<feBlend mode="normal" in="SourceGraphic" in2="effect1_dropShadow_1373_1866" result="shape"/>
</filter>
<filter id="filter7_d_1373_1866" x="172.051" y="103.426" width="126.062" height="19.5742" filterUnits="userSpaceOnUse" color-interpolation-filters="sRGB">
<feFlood flood-opacity="0" result="BackgroundImageFix"/>
<feColorMatrix in="SourceAlpha" type="matrix" values="0 0 0 0 0 0 0 0 0 0 0 0 0 0 0 0 0 0 127 0" result="hardAlpha"/>
<feOffset dy="2"/>
<feGaussianBlur stdDeviation="2"/>
<feComposite in2="hardAlpha" operator="out"/>
<feColorMatrix type="matrix" values="0 0 0 0 0 0 0 0 0 0 0 0 0 0 0 0 0 0 0.25 0"/>
<feBlend mode="normal" in2="BackgroundImageFix" result="effect1_dropShadow_1373_1866"/>
<feBlend mode="normal" in="SourceGraphic" in2="effect1_dropShadow_1373_1866" result="shape"/>
</filter>
</defs>
</svg>
