<svg width="150" height="131" viewBox="0 0 150 131" fill="none" xmlns="http://www.w3.org/2000/svg">
<mask id="path-1-inside-1_1361_345" fill="white">
<path d="M-2.8631e-06 65.5C14.4624 64.7182 55.2814 64.327 65.668 55.9512C56.957 57.9614 45.833 58.3633 34.1738 55.9512C54.1085 55.9512 62.0164 52.6349 70.8613 46.7383C72.9276 49.8096 78.2326 55.9509 82.9228 55.9512C78.6232 52.0422 71.8666 40.4054 79.2373 25.1279C74.1558 33.2247 60.1392 49.4849 44.7275 49.7529C50.5907 48.6361 63.624 42.6163 68.8506 27.4727C75.3838 8.54346 87.1106 1.33985 94.4814 2.34472C87.9484 2.3449 81.5156 7.87347 79.2373 16.584C81.9737 12.6193 89.7243 4.99236 98.8369 6.19824C90.7963 6.19842 85.8712 13.1334 82.9228 27.4727C79.2375 45.3971 90.7964 55.951 101.853 55.9512C112.909 55.9511 122.625 52.601 122.625 40.875C122.625 29.1486 107.212 24.4577 100.847 34.1738C103.192 23.2851 112.708 1.20635 132.006 -5.77016e-06C124.802 0.450393 113.076 7.70625 113.076 25.1279C125.138 24.4021 149.26 29.5504 149.26 55.9512C148.143 49.1387 142.258 35.5138 127.65 35.5137C131.224 36.7422 138.371 41.7126 138.371 51.7637C137.478 48.7483 134.652 42.7509 130.498 42.8848C128.544 49.1946 121.016 61.044 106.543 57.9619C108.498 60.4748 115.456 65.4999 127.65 65.5L126.522 65.5146C115.025 65.8118 108.437 70.6037 106.543 73.0381C121.016 69.956 128.544 81.8054 130.498 88.1152C134.652 88.2491 137.478 82.2517 138.371 79.2363C138.371 89.2873 131.224 94.2578 127.65 95.4863C142.258 95.4861 148.143 81.8613 149.26 75.0488C149.26 101.45 125.138 106.598 113.076 105.872C113.076 123.294 124.802 130.55 132.006 131C112.708 129.794 103.192 107.715 100.847 96.8262C107.212 106.542 122.624 101.851 122.624 90.125C122.624 78.399 112.909 75.0489 101.853 75.0488C90.7964 75.049 79.2375 85.6029 82.9229 103.527C85.8712 117.867 90.7963 124.802 98.8369 124.802C89.7243 126.008 81.9737 118.381 79.2373 114.416C81.5156 123.127 87.9484 128.655 94.4814 128.655C87.1106 129.66 75.3838 122.457 68.8506 103.527C63.624 88.3837 50.5907 82.3639 44.7275 81.2471C60.1392 81.5151 74.1558 97.7752 79.2373 105.872C71.8666 90.5946 78.6232 78.9578 82.9228 75.0488C78.2326 75.0491 72.9276 81.1904 70.8613 84.2617C62.0164 78.3651 54.1085 75.0488 34.1738 75.0488C45.833 72.6367 56.957 73.0386 65.668 75.0488C55.606 66.9347 16.9842 66.3138 1.43164 65.5723L-2.8631e-06 65.5ZM52.9268 65.4902C52.9924 65.4915 68.5415 65.7998 75.7812 67.3623C83.0362 68.9282 90.082 73.5098 90.082 73.5098C90.1063 73.4824 94.1543 68.9236 97.4326 67.3623C100.713 65.8004 106.891 65.4918 106.922 65.4902C106.885 65.4884 100.711 65.1803 97.4326 63.6191C94.1557 62.0586 90.1097 57.5029 90.082 57.4717C90.082 57.4717 83.0362 62.0532 75.7812 63.6191C68.5422 65.1815 52.9951 65.4889 52.9268 65.4902Z"/>
</mask>
<g filter="url(#filter0_ii_1361_345)">
<path d="M-2.8631e-06 65.5C14.4624 64.7182 55.2814 64.327 65.668 55.9512C56.957 57.9614 45.833 58.3633 34.1738 55.9512C54.1085 55.9512 62.0164 52.6349 70.8613 46.7383C72.9276 49.8096 78.2326 55.9509 82.9228 55.9512C78.6232 52.0422 71.8666 40.4054 79.2373 25.1279C74.1558 33.2247 60.1392 49.4849 44.7275 49.7529C50.5907 48.6361 63.624 42.6163 68.8506 27.4727C75.3838 8.54346 87.1106 1.33985 94.4814 2.34472C87.9484 2.3449 81.5156 7.87347 79.2373 16.584C81.9737 12.6193 89.7243 4.99236 98.8369 6.19824C90.7963 6.19842 85.8712 13.1334 82.9228 27.4727C79.2375 45.3971 90.7964 55.951 101.853 55.9512C112.909 55.9511 122.625 52.601 122.625 40.875C122.625 29.1486 107.212 24.4577 100.847 34.1738C103.192 23.2851 112.708 1.20635 132.006 -5.77016e-06C124.802 0.450393 113.076 7.70625 113.076 25.1279C125.138 24.4021 149.26 29.5504 149.26 55.9512C148.143 49.1387 142.258 35.5138 127.65 35.5137C131.224 36.7422 138.371 41.7126 138.371 51.7637C137.478 48.7483 134.652 42.7509 130.498 42.8848C128.544 49.1946 121.016 61.044 106.543 57.9619C108.498 60.4748 115.456 65.4999 127.65 65.5L126.522 65.5146C115.025 65.8118 108.437 70.6037 106.543 73.0381C121.016 69.956 128.544 81.8054 130.498 88.1152C134.652 88.2491 137.478 82.2517 138.371 79.2363C138.371 89.2873 131.224 94.2578 127.65 95.4863C142.258 95.4861 148.143 81.8613 149.26 75.0488C149.26 101.45 125.138 106.598 113.076 105.872C113.076 123.294 124.802 130.55 132.006 131C112.708 129.794 103.192 107.715 100.847 96.8262C107.212 106.542 122.624 101.851 122.624 90.125C122.624 78.399 112.909 75.0489 101.853 75.0488C90.7964 75.049 79.2375 85.6029 82.9229 103.527C85.8712 117.867 90.7963 124.802 98.8369 124.802C89.7243 126.008 81.9737 118.381 79.2373 114.416C81.5156 123.127 87.9484 128.655 94.4814 128.655C87.1106 129.66 75.3838 122.457 68.8506 103.527C63.624 88.3837 50.5907 82.3639 44.7275 81.2471C60.1392 81.5151 74.1558 97.7752 79.2373 105.872C71.8666 90.5946 78.6232 78.9578 82.9228 75.0488C78.2326 75.0491 72.9276 81.1904 70.8613 84.2617C62.0164 78.3651 54.1085 75.0488 34.1738 75.0488C45.833 72.6367 56.957 73.0386 65.668 75.0488C55.606 66.9347 16.9842 66.3138 1.43164 65.5723L-2.8631e-06 65.5ZM52.9268 65.4902C52.9924 65.4915 68.5415 65.7998 75.7812 67.3623C83.0362 68.9282 90.082 73.5098 90.082 73.5098C90.1063 73.4824 94.1543 68.9236 97.4326 67.3623C100.713 65.8004 106.891 65.4918 106.922 65.4902C106.885 65.4884 100.711 65.1803 97.4326 63.6191C94.1557 62.0586 90.1097 57.5029 90.082 57.4717C90.082 57.4717 83.0362 62.0532 75.7812 63.6191C68.5422 65.1815 52.9951 65.4889 52.9268 65.4902Z" fill="url(#paint0_linear_1361_345)"/>
</g>
<path d="M-2.8631e-06 65.5L-0.107953 63.5029C-1.1704 63.5603 -2.0019 64.4396 -2 65.5036C-1.9981 66.5676 -1.16348 67.4438 -0.100829 67.4975L-2.8631e-06 65.5ZM65.668 55.9512L66.9234 57.508C67.6489 56.923 67.8741 55.9144 67.4665 55.0763C67.0588 54.2383 66.1263 53.7928 65.2182 54.0024L65.668 55.9512ZM34.1738 55.9512L34.1738 53.9512C33.1481 53.9512 32.2887 54.7271 32.1842 55.7475C32.0798 56.7679 32.7642 57.7019 33.7686 57.9097L34.1738 55.9512ZM70.8613 46.7383L72.5207 45.6219C71.906 44.7081 70.6682 44.4633 69.7519 45.0742L70.8613 46.7383ZM82.9228 55.9512L82.9227 57.9512C83.749 57.9512 84.4903 57.4431 84.7883 56.6724C85.0863 55.9017 84.8796 55.0271 84.2682 54.4713L82.9228 55.9512ZM79.2373 25.1279L81.0386 25.997C81.4999 25.0409 81.1339 23.8911 80.2049 23.3776C79.2759 22.864 78.1075 23.1657 77.5433 24.0648L79.2373 25.1279ZM44.7275 49.7529L44.3533 47.7883C43.3332 47.9825 42.6315 48.9252 42.7381 49.9582C42.8447 50.9911 43.724 51.7707 44.7623 51.7526L44.7275 49.7529ZM68.8506 27.4727L66.96 26.8201V26.8201L68.8506 27.4727ZM94.4814 2.34472L94.4815 4.34472C95.5335 4.34469 96.4056 3.52968 96.4769 2.48008C96.5481 1.43049 95.794 0.505153 94.7516 0.363048L94.4814 2.34472ZM79.2373 16.584L77.3024 16.0779C77.0567 17.0172 77.5211 17.9972 78.4036 18.4019C79.2861 18.8066 80.3318 18.5191 80.8833 17.72L79.2373 16.584ZM98.8369 6.19824L98.837 8.19824C99.8905 8.19821 100.763 7.38093 100.833 6.32968C100.902 5.27845 100.144 4.35373 99.0993 4.21553L98.8369 6.19824ZM82.9228 27.4727L80.9638 27.0699L80.9638 27.0699L82.9228 27.4727ZM101.853 55.9512L101.852 57.9512L101.853 57.9512L101.853 55.9512ZM122.625 40.875L124.625 40.875L124.625 40.875L122.625 40.875ZM100.847 34.1738L98.8915 33.7527C98.6886 34.6946 99.1862 35.6473 100.075 36.019C100.964 36.3907 101.992 36.0758 102.52 35.2699L100.847 34.1738ZM132.006 -5.77016e-06L132.131 1.9961C133.233 1.92716 134.071 0.977609 134.002 -0.124792C133.933 -1.22721 132.983 -2.06502 131.881 -1.99611L132.006 -5.77016e-06ZM113.076 25.1279L111.076 25.1279C111.076 25.6792 111.304 26.2061 111.705 26.584C112.106 26.9619 112.646 27.1574 113.196 27.1243L113.076 25.1279ZM149.26 55.9512L147.286 56.2748C147.455 57.3027 148.384 58.0291 149.422 57.9446C150.46 57.86 151.26 56.9928 151.26 55.9512L149.26 55.9512ZM127.65 35.5137L127.65 33.5137C126.673 33.5137 125.839 34.22 125.678 35.1841C125.517 36.1481 126.076 37.0873 127 37.405L127.65 35.5137ZM138.371 51.7637L136.454 52.3319C136.736 53.2846 137.675 53.8856 138.658 53.743C139.642 53.6003 140.371 52.7573 140.371 51.7637L138.371 51.7637ZM130.498 42.8848L130.434 40.8858C129.581 40.9133 128.84 41.4783 128.588 42.293L130.498 42.8848ZM106.543 57.9619L106.96 56.0058C106.138 55.8308 105.294 56.188 104.848 56.9C104.402 57.6119 104.448 58.5267 104.964 59.1899L106.543 57.9619ZM127.65 65.5L127.676 67.4998C128.776 67.4855 129.657 66.5865 129.65 65.487C129.643 64.3875 128.75 63.5 127.65 63.5L127.65 65.5ZM126.522 65.5146L126.496 63.5148C126.488 63.5149 126.479 63.5151 126.471 63.5153L126.522 65.5146ZM106.543 73.0381L104.964 71.8101C104.448 72.4733 104.402 73.3881 104.848 74.1C105.294 74.812 106.138 75.1692 106.96 74.9942L106.543 73.0381ZM130.498 88.1152L128.588 88.707C128.84 89.5217 129.581 90.0867 130.434 90.1142L130.498 88.1152ZM138.371 79.2363L140.371 79.2363C140.371 78.2426 139.642 77.3997 138.658 77.257C137.675 77.1144 136.736 77.7154 136.454 78.6681L138.371 79.2363ZM127.65 95.4863L127 93.595C126.076 93.9127 125.517 94.8519 125.678 95.8159C125.839 96.7799 126.673 97.4863 127.65 97.4863L127.65 95.4863ZM149.26 75.0488L151.26 75.0488C151.26 74.0072 150.46 73.14 149.422 73.0554C148.384 72.9709 147.455 73.6973 147.286 74.7252L149.26 75.0488ZM113.076 105.872L113.196 103.876C112.646 103.843 112.106 104.038 111.705 104.416C111.304 104.794 111.076 105.321 111.076 105.872L113.076 105.872ZM132.006 131L131.881 132.996C132.983 133.065 133.933 132.227 134.002 131.125C134.071 130.022 133.233 129.073 132.131 129.004L132.006 131ZM100.847 96.8262L102.52 95.7301C101.992 94.9242 100.964 94.6093 100.075 94.981C99.1862 95.3527 98.6886 96.3054 98.8915 97.2473L100.847 96.8262ZM122.624 90.125L124.624 90.125L124.624 90.125L122.624 90.125ZM101.853 75.0488L101.853 73.0488L101.852 73.0488L101.853 75.0488ZM82.9229 103.527L80.9638 103.93L80.9638 103.93L82.9229 103.527ZM98.8369 124.802L99.0993 126.784C100.144 126.646 100.902 125.722 100.833 124.67C100.763 123.619 99.8905 122.802 98.837 122.802L98.8369 124.802ZM79.2373 114.416L80.8833 113.28C80.3318 112.481 79.2861 112.193 78.4036 112.598C77.5211 113.003 77.0567 113.983 77.3024 114.922L79.2373 114.416ZM94.4814 128.655L94.7516 130.637C95.794 130.495 96.5481 129.57 96.4769 128.52C96.4057 127.47 95.5335 126.655 94.4815 126.655L94.4814 128.655ZM68.8506 103.527L66.96 104.18L66.96 104.18L68.8506 103.527ZM44.7275 81.2471L44.7623 79.2474C43.724 79.2293 42.8447 80.0089 42.7381 81.0418C42.6315 82.0748 43.3332 83.0174 44.3533 83.2117L44.7275 81.2471ZM79.2373 105.872L77.5433 106.935C78.1075 107.834 79.2759 108.136 80.2049 107.622C81.1339 107.109 81.4999 105.959 81.0386 105.003L79.2373 105.872ZM82.9228 75.0488L84.2682 76.5287C84.8796 75.9728 85.0863 75.0982 84.7883 74.3276C84.4903 73.5569 83.749 73.0488 82.9227 73.0488L82.9228 75.0488ZM70.8613 84.2617L69.7519 85.9258C70.6682 86.5367 71.906 86.2919 72.5207 85.3781L70.8613 84.2617ZM34.1738 75.0488L33.7686 73.0903C32.7642 73.2981 32.0798 74.2321 32.1842 75.2525C32.2887 76.2729 33.1481 77.0488 34.1738 77.0488L34.1738 75.0488ZM65.668 75.0488L65.2182 76.9976C66.1263 77.2072 67.0588 76.7617 67.4665 75.9237C67.8741 75.0856 67.6489 74.077 66.9234 73.492L65.668 75.0488ZM1.43164 65.5723L1.33081 67.5697L1.33638 67.57L1.43164 65.5723ZM52.9268 65.4902L52.8874 63.4906C51.7984 63.512 50.9268 64.401 50.9268 65.4902C50.9268 66.5795 51.7984 67.4684 52.8874 67.4898L52.9268 65.4902ZM75.7812 67.3623L76.2032 65.4073L76.2032 65.4073L75.7812 67.3623ZM90.082 73.5098L88.9918 75.1865C89.8215 75.726 90.9212 75.5775 91.5781 74.8371L90.082 73.5098ZM97.4326 67.3623L96.5727 65.5566L96.5727 65.5566L97.4326 67.3623ZM106.922 65.4902L107.021 67.4878C108.086 67.4351 108.922 66.5564 108.922 65.4903C108.922 64.4242 108.086 63.5455 107.021 63.4927L106.922 65.4902ZM97.4326 63.6191L96.5727 65.4248L96.5727 65.4249L97.4326 63.6191ZM90.082 57.4717L91.578 56.1443C90.9211 55.4039 89.8215 55.2554 88.9918 55.795L90.082 57.4717ZM75.7812 63.6191L76.2032 65.5741L76.2032 65.5741L75.7812 63.6191ZM-2.8631e-06 65.5L0.107947 67.4971C7.24041 67.1115 21.1899 66.8117 34.5483 65.5647C41.2407 64.94 47.8627 64.072 53.4937 62.8191C59.0388 61.5852 63.9389 59.9148 66.9234 57.508L65.668 55.9512L64.4125 54.3943C62.2038 56.1755 58.1065 57.6949 52.6249 58.9145C47.2291 60.1151 40.7951 60.9642 34.1766 61.582C20.9133 62.8201 7.222 63.1067 -0.107953 63.5029L-2.8631e-06 65.5ZM65.668 55.9512L65.2182 54.0024C56.7934 55.9466 45.9612 56.3475 34.579 53.9926L34.1738 55.9512L33.7686 57.9097C45.7049 60.3792 57.1206 59.9763 66.1177 57.9L65.668 55.9512ZM34.1738 55.9512L34.1738 57.9512C44.2412 57.9512 51.4016 57.1153 57.2172 55.4814C63.0638 53.8388 67.447 51.4182 71.9707 48.4024L70.8613 46.7383L69.7519 45.0742C65.4307 47.955 61.4374 50.1408 56.1353 51.6305C50.802 53.1289 44.0411 53.9512 34.1738 53.9512L34.1738 55.9512ZM70.8613 46.7383L69.2019 47.8547C70.3105 49.5025 72.2616 51.942 74.5834 53.9947C76.8204 55.9726 79.8004 57.951 82.9227 57.9512L82.9228 55.9512L82.923 53.9512C81.355 53.9511 79.3374 52.8587 77.2328 50.998C75.213 49.2122 73.4784 47.0453 72.5207 45.6219L70.8613 46.7383ZM82.9228 55.9512L84.2682 54.4713C80.4981 51.0438 74.1218 40.3338 81.0386 25.997L79.2373 25.1279L77.436 24.2589C69.6115 40.4771 76.7482 53.0406 81.5775 57.431L82.9228 55.9512ZM79.2373 25.1279L77.5433 24.0648C75.097 27.9626 70.4539 33.8873 64.5676 38.8467C58.6501 43.8324 51.7296 47.6308 44.6928 47.7532L44.7275 49.7529L44.7623 51.7526C53.1372 51.607 60.9308 47.1413 67.1449 41.9057C73.3902 36.6438 78.2961 30.3901 80.9313 26.1911L79.2373 25.1279ZM44.7275 49.7529L45.1018 51.7176C51.4699 50.5046 65.2213 44.1183 70.7411 28.1252L68.8506 27.4727L66.96 26.8201C62.0266 41.1144 49.7115 46.7676 44.3533 47.7883L44.7275 49.7529ZM68.8506 27.4727L70.7411 28.1252C73.9154 18.9281 78.305 12.7154 82.6607 8.9457C87.0528 5.1445 91.2727 3.92578 94.2113 4.32639L94.4814 2.34472L94.7516 0.363048C90.3193 -0.2412 84.9904 1.63945 80.0431 5.92113C75.0594 10.2343 70.3189 17.0881 66.96 26.8201L68.8506 27.4727ZM94.4814 2.34472L94.4814 0.344722C86.7778 0.344936 79.7375 6.76803 77.3024 16.0779L79.2373 16.584L81.1722 17.0901C83.2938 8.97891 89.119 4.34487 94.4815 4.34472L94.4814 2.34472ZM79.2373 16.584L80.8833 17.72C82.1227 15.9243 84.5658 13.217 87.7461 11.1224C90.9241 9.02945 94.6567 7.6625 98.5745 8.18095L98.8369 6.19824L99.0993 4.21553C93.9045 3.52809 89.2056 5.37166 85.546 7.78184C81.8887 10.1905 79.0883 13.2789 77.5913 15.4479L79.2373 16.584ZM98.8369 6.19824L98.8369 4.19824C94.1153 4.19834 90.3021 6.28945 87.3616 10.2699C84.5002 14.1434 82.4589 19.7986 80.9638 27.0699L82.9228 27.4727L84.8819 27.8754C86.3351 20.8075 88.2305 15.8256 90.5789 12.6467C92.8482 9.57481 95.5179 8.19831 98.837 8.19824L98.8369 6.19824ZM82.9228 27.4727L80.9638 27.0699C77.0413 46.1478 89.4425 57.9509 101.852 57.9512L101.853 55.9512L101.853 53.9512C92.1502 53.951 81.4337 44.6464 84.8819 27.8754L82.9228 27.4727ZM101.853 55.9512L101.853 57.9512C107.518 57.9511 113.146 57.1044 117.419 54.522C121.853 51.8421 124.625 47.4099 124.625 40.875L122.625 40.875L120.625 40.875C120.625 46.0661 118.538 49.1719 115.35 51.0986C112.001 53.1227 107.244 53.9511 101.853 53.9512L101.853 55.9512ZM122.625 40.875L124.625 40.875C124.625 27.2291 106.665 21.6431 99.1738 33.0778L100.847 34.1738L102.52 35.2699C107.759 27.2723 120.625 31.0682 120.625 40.875L122.625 40.875ZM100.847 34.1738L102.802 34.5949C103.929 29.3633 106.799 21.3915 111.69 14.6279C116.575 7.87135 123.296 2.54838 132.131 1.9961L132.006 -5.77016e-06L131.881 -1.99611C121.418 -1.34203 113.732 4.97755 108.448 12.2841C103.17 19.5837 100.11 28.0956 98.8915 33.7527L100.847 34.1738ZM132.006 -5.77016e-06L131.881 -1.99611C123.638 -1.48067 111.076 6.6362 111.076 25.1279L113.076 25.1279L115.076 25.1279C115.076 8.77632 125.967 2.38146 132.131 1.9961L132.006 -5.77016e-06ZM113.076 25.1279L113.196 27.1243C118.948 26.7782 127.565 27.8488 134.666 32.0847C141.635 36.2414 147.26 43.4953 147.26 55.9512L149.26 55.9512L151.26 55.9512C151.26 42.0063 144.823 33.4856 136.716 28.6494C128.741 23.8924 119.266 22.7518 112.956 23.1315L113.076 25.1279ZM149.26 55.9512L151.233 55.6276C150.63 51.9475 148.764 46.4978 145.07 41.9216C141.33 37.2881 135.671 33.5138 127.65 33.5137L127.65 35.5137L127.65 37.5137C134.237 37.5137 138.824 40.5519 141.958 44.434C145.138 48.3734 146.773 53.1424 147.286 56.2748L149.26 55.9512ZM127.65 35.5137L127 37.405C130.028 38.4458 136.371 42.8137 136.371 51.7637L138.371 51.7637L140.371 51.7637C140.371 40.6116 132.421 35.0386 128.301 33.6223L127.65 35.5137ZM138.371 51.7637L140.289 51.1955C139.797 49.5348 138.782 47.0629 137.281 44.9756C135.839 42.9701 133.548 40.7854 130.434 40.8858L130.498 42.8848L130.562 44.8837C131.602 44.8502 132.801 45.5973 134.034 47.3109C135.207 48.9427 136.052 50.9772 136.454 52.3319L138.371 51.7637ZM130.498 42.8848L128.588 42.293C127.698 45.164 125.508 49.3527 121.915 52.4254C118.397 55.4344 113.519 57.4026 106.96 56.0058L106.543 57.9619L106.126 59.918C114.04 61.6033 120.163 59.1879 124.515 55.4652C128.793 51.8063 131.343 46.9154 132.409 43.4765L130.498 42.8848ZM106.543 57.9619L104.964 59.1899C107.358 62.2667 114.943 67.4999 127.65 67.5L127.65 65.5L127.65 63.5C115.968 63.4999 109.638 58.6829 108.122 56.7339L106.543 57.9619ZM127.65 65.5L127.624 63.5002L126.496 63.5148L126.522 65.5146L126.548 67.5145L127.676 67.4998L127.65 65.5ZM126.522 65.5146L126.471 63.5153C114.478 63.8253 107.285 68.8272 104.964 71.8101L106.543 73.0381L108.122 74.2661C109.589 72.3802 115.573 67.7983 126.574 67.514L126.522 65.5146ZM106.543 73.0381L106.96 74.9942C113.519 73.5974 118.397 75.5656 121.915 78.5746C125.508 81.6473 127.698 85.836 128.588 88.707L130.498 88.1152L132.409 87.5235C131.343 84.0846 128.793 79.1937 124.515 75.5348C120.163 71.8121 114.04 69.3967 106.126 71.0819L106.543 73.0381ZM130.498 88.1152L130.434 90.1142C133.548 90.2146 135.839 88.0298 137.281 86.0244C138.782 83.9371 139.797 81.4652 140.289 79.8045L138.371 79.2363L136.454 78.6681C136.052 80.0228 135.207 82.0573 134.034 83.689C132.801 85.4027 131.602 86.1498 130.562 86.1163L130.498 88.1152ZM138.371 79.2363L136.371 79.2363C136.371 88.1863 130.028 92.5542 127 93.595L127.65 95.4863L128.301 97.3777C132.421 95.9614 140.371 90.3884 140.371 79.2363L138.371 79.2363ZM127.65 95.4863L127.65 97.4863C135.671 97.4862 141.33 93.7118 145.07 89.0784C148.764 84.5022 150.63 79.0525 151.233 75.3724L149.26 75.0488L147.286 74.7252C146.773 77.8576 145.137 82.6266 141.958 86.566C138.824 90.4481 134.237 93.4862 127.65 93.4863L127.65 95.4863ZM149.26 75.0488L147.26 75.0488C147.26 87.5047 141.635 94.7586 134.666 98.9153C127.565 103.151 118.948 104.222 113.196 103.876L113.076 105.872L112.956 107.868C119.266 108.248 128.741 107.108 136.716 102.351C144.823 97.5143 151.26 88.9937 151.26 75.0488L149.26 75.0488ZM113.076 105.872L111.076 105.872C111.076 124.364 123.638 132.481 131.881 132.996L132.006 131L132.131 129.004C125.967 128.619 115.076 122.224 115.076 105.872L113.076 105.872ZM132.006 131L132.131 129.004C123.296 128.452 116.575 123.129 111.69 116.372C106.799 109.608 103.929 101.637 102.802 96.4051L100.847 96.8262L98.8915 97.2473C100.11 102.904 103.17 111.416 108.448 118.716C113.732 126.022 121.418 132.342 131.881 132.996L132.006 131ZM100.847 96.8262L99.1738 97.9222C106.666 109.357 124.624 103.771 124.624 90.125L122.624 90.125L120.624 90.125C120.624 99.932 107.759 103.728 102.52 95.7301L100.847 96.8262ZM122.624 90.125L124.624 90.125C124.624 83.5902 121.853 79.158 117.419 76.478C113.146 73.8956 107.518 73.0489 101.853 73.0488L101.853 75.0488L101.853 77.0488C107.244 77.0489 112.001 77.8772 115.35 79.9014C118.537 81.828 120.624 84.9338 120.624 90.125L122.624 90.125ZM101.853 75.0488L101.852 73.0488C89.4425 73.0491 77.0413 84.8522 80.9638 103.93L82.9229 103.527L84.8819 103.125C81.4337 86.3536 92.1502 77.049 101.853 77.0488L101.853 75.0488ZM82.9229 103.527L80.9638 103.93C82.4589 111.201 84.5002 116.857 87.3616 120.73C90.3021 124.711 94.1153 126.802 98.8369 126.802L98.8369 124.802L98.837 122.802C95.5179 122.802 92.8482 121.425 90.5789 118.353C88.2305 115.174 86.3351 110.193 84.8819 103.125L82.9229 103.527ZM98.8369 124.802L98.5745 122.819C94.6567 123.337 90.9241 121.971 87.7461 119.878C84.5658 117.783 82.1227 115.076 80.8833 113.28L79.2373 114.416L77.5913 115.552C79.0883 117.721 81.8887 120.81 85.546 123.218C89.2056 125.628 93.9045 127.472 99.0993 126.784L98.8369 124.802ZM79.2373 114.416L77.3024 114.922C79.7375 124.232 86.7778 130.655 94.4814 130.655L94.4814 128.655L94.4815 126.655C89.119 126.655 83.2938 122.021 81.1722 113.91L79.2373 114.416ZM94.4814 128.655L94.2113 126.674C91.2727 127.074 87.0528 125.855 82.6607 122.054C78.305 118.285 73.9154 112.072 70.7411 102.875L68.8506 103.527L66.96 104.18C70.3189 113.912 75.0594 120.766 80.0431 125.079C84.9904 129.361 90.3193 131.241 94.7516 130.637L94.4814 128.655ZM68.8506 103.527L70.7411 102.875C65.2213 86.8817 51.4699 80.4954 45.1018 79.2824L44.7275 81.2471L44.3533 83.2117C49.7115 84.2323 62.0266 89.8856 66.96 104.18L68.8506 103.527ZM44.7275 81.2471L44.6928 83.2468C51.7296 83.3691 58.6501 87.1676 64.5676 92.1533C70.4539 97.1127 75.097 103.037 77.5433 106.935L79.2373 105.872L80.9313 104.809C78.2961 100.61 73.3902 94.3562 67.1449 89.0943C60.9308 83.8587 53.1372 79.393 44.7623 79.2474L44.7275 81.2471ZM79.2373 105.872L81.0386 105.003C74.1218 90.6662 80.4981 79.9562 84.2682 76.5287L82.9228 75.0488L81.5775 73.569C76.7482 77.9594 69.6115 90.5229 77.436 106.741L79.2373 105.872ZM82.9228 75.0488L82.9227 73.0488C79.8004 73.049 76.8204 75.0274 74.5834 77.0053C72.2616 79.058 70.3105 81.4975 69.2019 83.1453L70.8613 84.2617L72.5207 85.3781C73.4784 83.9547 75.213 81.7878 77.2328 80.002C79.3374 78.1413 81.3551 77.0489 82.923 77.0488L82.9228 75.0488ZM70.8613 84.2617L71.9707 82.5976C67.447 79.5818 63.0638 77.1612 57.2172 75.5186C51.4016 73.8847 44.2412 73.0488 34.1738 73.0488L34.1738 75.0488L34.1738 77.0488C44.0411 77.0488 50.802 77.8711 56.1353 79.3695C61.4374 80.8592 65.4307 83.045 69.7519 85.9258L70.8613 84.2617ZM34.1738 75.0488L34.579 77.0073C45.9612 74.6525 56.7934 75.0534 65.2182 76.9976L65.668 75.0488L66.1177 73.1C57.1206 71.0237 45.7049 70.6208 33.7686 73.0903L34.1738 75.0488ZM65.668 75.0488L66.9234 73.492C64.0283 71.1573 59.3374 69.5195 54.0204 68.2999C48.6231 67.0619 42.2712 66.1903 35.8042 65.5554C22.8803 64.2867 9.24056 63.9423 1.52689 63.5745L1.43164 65.5723L1.33638 67.57C9.17525 67.9438 22.6227 68.2806 35.4134 69.5363C41.8037 70.1636 47.9658 71.015 53.1261 72.1986C58.3666 73.4007 62.2767 74.8833 64.4125 76.6057L65.668 75.0488ZM1.43164 65.5723L1.53246 63.5748L0.100824 63.5025L-2.8631e-06 65.5L-0.100829 67.4975L1.33081 67.5697L1.43164 65.5723ZM52.9268 65.4902L52.8874 67.4898C52.9085 67.4903 56.7848 67.567 61.5504 67.8376C66.3598 68.1106 71.9115 68.5731 75.3593 69.3173L75.7812 67.3623L76.2032 65.4073C72.4113 64.5889 66.5685 64.116 61.7771 63.844C56.9418 63.5695 53.0106 63.4915 52.9661 63.4906L52.9268 65.4902ZM75.7812 67.3623L75.3593 69.3173C78.7526 70.0497 82.1571 71.5049 84.7541 72.8102C86.0429 73.458 87.112 74.0582 87.8558 74.4945C88.2273 74.7125 88.5167 74.8889 88.7106 75.0093C88.8076 75.0694 88.8806 75.1155 88.928 75.1457C88.9517 75.1607 88.969 75.1718 88.9797 75.1787C88.9851 75.1821 88.9888 75.1845 88.9908 75.1858C88.9918 75.1865 88.9924 75.1869 88.9925 75.187C88.9926 75.187 88.9926 75.187 88.9925 75.1869C88.9924 75.1869 88.9922 75.1868 88.9922 75.1867C88.992 75.1866 88.9918 75.1865 90.082 73.5098C91.1723 71.8331 91.172 71.8329 91.1717 71.8327C91.1716 71.8326 91.1712 71.8324 91.1709 71.8322C91.1704 71.8318 91.1697 71.8314 91.1689 71.8309C91.1674 71.8299 91.1654 71.8286 91.163 71.827C91.1582 71.8239 91.1517 71.8197 91.1435 71.8144C91.127 71.8039 91.1039 71.7891 91.0742 71.7702C91.0149 71.7325 90.9295 71.6786 90.8196 71.6104C90.5999 71.4741 90.2821 71.2804 89.8797 71.0443C89.0757 70.5727 87.9299 69.9296 86.5504 69.2363C83.8108 67.8593 80.0648 66.2408 76.2032 65.4073L75.7812 67.3623ZM90.082 73.5098L91.5781 74.8371C91.5695 74.8467 92.543 73.7496 93.9063 72.469C95.3124 71.1483 96.9533 69.8058 98.2925 69.168L97.4326 67.3623L96.5727 65.5566C94.6336 66.4801 92.6113 68.1976 91.1678 69.5535C89.6815 70.9495 88.6188 72.1454 88.586 72.1824L90.082 73.5098ZM97.4326 67.3623L98.2925 69.168C99.6348 68.5288 101.735 68.0915 103.671 67.822C105.548 67.5608 107.036 67.487 107.021 67.4878L106.922 65.4902L106.823 63.4927C106.777 63.495 105.16 63.5763 103.12 63.8602C101.139 64.1359 98.5104 64.6339 96.5727 65.5566L97.4326 67.3623ZM106.922 65.4902L107.021 63.4927C107.033 63.4933 105.545 63.4196 103.669 63.1585C101.733 62.8893 99.6341 62.4523 98.2925 61.8134L97.4326 63.6191L96.5727 65.4249C98.5097 66.3472 101.137 66.8449 103.117 67.1204C105.157 67.4041 106.775 67.4854 106.823 67.4878L106.922 65.4902ZM97.4326 63.6191L98.2925 61.8134C96.9539 61.176 95.3138 59.8343 93.908 58.514C92.545 57.2339 91.5712 56.1366 91.578 56.1443L90.082 57.4717L88.586 58.7991C88.6206 58.838 89.6836 60.0341 91.1697 61.4298C92.613 62.7853 94.6344 64.5018 96.5727 65.4248L97.4326 63.6191ZM90.082 57.4717C88.9918 55.795 88.992 55.7948 88.9922 55.7947C88.9922 55.7947 88.9924 55.7946 88.9925 55.7945C88.9926 55.7944 88.9926 55.7944 88.9925 55.7945C88.9924 55.7946 88.9918 55.795 88.9908 55.7956C88.9888 55.7969 88.9851 55.7993 88.9797 55.8027C88.969 55.8096 88.9517 55.8207 88.928 55.8358C88.8806 55.8659 88.8076 55.912 88.7106 55.9722C88.5167 56.0925 88.2273 56.269 87.8558 56.4869C87.112 56.9233 86.0429 57.5234 84.7541 58.1712C82.1571 59.4765 78.7526 60.9318 75.3593 61.6642L75.7812 63.6191L76.2032 65.5741C80.0648 64.7406 83.8108 63.1222 86.5504 61.7452C87.9299 61.0518 89.0757 60.4087 89.8797 59.9371C90.2821 59.7011 90.5999 59.5074 90.8196 59.371C90.9295 59.3028 91.0149 59.249 91.0742 59.2112C91.1039 59.1924 91.1271 59.1775 91.1435 59.167C91.1517 59.1617 91.1582 59.1575 91.163 59.1544C91.1654 59.1528 91.1674 59.1516 91.1689 59.1505C91.1697 59.15 91.1704 59.1496 91.1709 59.1492C91.1712 59.1491 91.1716 59.1488 91.1717 59.1488C91.172 59.1486 91.1723 59.1484 90.082 57.4717ZM75.7812 63.6191L75.3593 61.6642C71.9118 62.4082 66.3609 62.8705 61.5517 63.1433C56.7864 63.4136 52.91 63.4902 52.8874 63.4906L52.9268 65.4902L52.9661 67.4898C53.0119 67.4889 56.9432 67.4112 61.7783 67.1369C66.5695 66.8651 72.4116 66.3924 76.2032 65.5741L75.7812 63.6191Z" fill="white" style="mix-blend-mode:overlay" mask="url(#path-1-inside-1_1361_345)"/>
<defs>
<filter id="filter0_ii_1361_345" x="0" y="-2" width="150.26" height="134" filterUnits="userSpaceOnUse" color-interpolation-filters="sRGB">
<feFlood flood-opacity="0" result="BackgroundImageFix"/>
<feBlend mode="normal" in="SourceGraphic" in2="BackgroundImageFix" result="shape"/>
<feColorMatrix in="SourceAlpha" type="matrix" values="0 0 0 0 0 0 0 0 0 0 0 0 0 0 0 0 0 0 127 0" result="hardAlpha"/>
<feOffset dx="1" dy="2"/>
<feGaussianBlur stdDeviation="0.5"/>
<feComposite in2="hardAlpha" operator="arithmetic" k2="-1" k3="1"/>
<feColorMatrix type="matrix" values="0 0 0 0 1 0 0 0 0 1 0 0 0 0 1 0 0 0 1 0"/>
<feBlend mode="normal" in2="shape" result="effect1_innerShadow_1361_345"/>
<feColorMatrix in="SourceAlpha" type="matrix" values="0 0 0 0 0 0 0 0 0 0 0 0 0 0 0 0 0 0 127 0" result="hardAlpha"/>
<feOffset dy="-2"/>
<feGaussianBlur stdDeviation="1"/>
<feComposite in2="hardAlpha" operator="arithmetic" k2="-1" k3="1"/>
<feColorMatrix type="matrix" values="0 0 0 0 0 0 0 0 0 0 0 0 0 0 0 0 0 0 0.85 0"/>
<feBlend mode="normal" in2="effect1_innerShadow_1361_345" result="effect2_innerShadow_1361_345"/>
</filter>
<linearGradient id="paint0_linear_1361_345" x1="31.4983" y1="42.8199" x2="149.074" y2="46.493" gradientUnits="userSpaceOnUse">
<stop offset="0.0625" stop-color="#D1D1D1"/>
<stop offset="0.182692" stop-color="#303030"/>
<stop offset="0.293269" stop-color="white"/>
<stop offset="0.360577" stop-color="#4D4D4D"/>
<stop offset="0.403846" stop-color="#CDC5C5"/>
<stop offset="0.641229" stop-color="#5C5C5C"/>
<stop offset="0.666189" stop-color="white"/>
<stop offset="0.810403" stop-color="#717171"/>
</linearGradient>
</defs>
</svg>
