<svg width="663" height="24" viewBox="0 0 663 24" fill="none" xmlns="http://www.w3.org/2000/svg">
<path d="M27.8711 24H25.3389L0 0H2.53223L27.8711 24ZM36.7334 24H31.6689L6.33008 0H11.3945L36.7334 24ZM64.5879 24H44.3311L18.9922 0H39.249L64.5879 24ZM72.1836 24H67.1191L41.7803 0H46.8447L72.1836 24ZM78.5137 24H75.9814L50.6436 0H53.1758L78.5137 24ZM98.7705 24H89.9082L64.5693 0H73.4316L98.7705 24ZM106.367 24H103.835L78.4971 0H81.0293L106.367 24ZM115.229 24H110.164L84.8262 0H89.8896L115.229 24ZM126.626 24H117.764L92.4248 0H101.287L126.626 24ZM134.221 24H131.688L106.35 0H108.882L134.221 24ZM139.286 24H136.754L111.416 0H113.947L139.286 24ZM150.68 24H148.147L122.809 0H125.341L150.68 24ZM161.371 24H156.307L130.969 0H136.032L161.371 24ZM172.207 24H169.675L144.336 0H146.868L172.207 24ZM182.628 24H177.563L152.225 0H157.289L182.628 24ZM186.267 24H183.734L158.396 0H160.928L186.267 24ZM196.552 24H194.02L168.682 0H171.213L196.552 24ZM227.99 24H207.733L182.396 0H202.652L227.99 24ZM240.596 24H231.733L206.395 0H215.257L240.596 24ZM250.512 24H245.447L220.108 0H225.173L250.512 24ZM260.797 24H255.732L230.395 0H235.458L260.797 24ZM265.807 24H263.275L237.937 0H240.469L265.807 24ZM279.521 24H276.989L251.65 0H254.183L279.521 24ZM294.766 24H285.903L260.564 0H269.427L294.766 24ZM306.263 24H303.73L278.393 0H280.925L306.263 24ZM316.338 24H311.274L285.936 0H291L316.338 24ZM340.444 24H320.188L294.85 0H315.106L340.444 24ZM349.462 24H346.93L321.591 0H324.123L349.462 24ZM358.324 24H353.26L327.922 0H332.985L358.324 24ZM386.179 24H365.922L340.583 0H360.84L386.179 24ZM393.774 24H388.71L363.371 0H368.436L393.774 24ZM400.104 24H397.572L372.234 0H374.767L400.104 24ZM420.361 24H411.499L386.161 0H395.023L420.361 24ZM427.959 24H425.427L400.088 0H402.62L427.959 24ZM436.819 24H431.756L406.417 0H411.481L436.819 24ZM448.217 24H439.354L414.016 0H422.878L448.217 24ZM455.812 24H453.279L427.94 0H430.473L455.812 24ZM460.877 24H458.345L433.007 0H435.539L460.877 24ZM472.271 24H469.738L444.399 0H446.932L472.271 24ZM482.962 24H477.897L452.56 0H457.624L482.962 24ZM468.459 0L493.798 24H491.266L465.928 0H468.459ZM504.219 24H499.154L473.815 0H478.88L504.219 24ZM507.857 24H505.325L479.986 0H482.519L507.857 24ZM518.143 24H515.61L490.272 0H492.805L518.143 24ZM549.582 24H529.325L503.986 0H524.243L549.582 24ZM562.187 24H553.324L527.985 0H536.849L562.187 24ZM572.103 24H567.038L541.7 0H546.764L572.103 24ZM582.388 24H577.323L551.985 0H557.05L582.388 24ZM587.398 24H584.866L559.527 0H562.06L587.398 24ZM601.112 24H598.58L573.241 0H575.773L601.112 24ZM616.356 24H607.494L582.155 0H591.019L616.356 24ZM627.854 24H625.322L599.983 0H602.516L627.854 24ZM637.93 24H632.865L607.526 0H612.591L637.93 24ZM662.036 24H641.778L616.44 0H636.697L662.036 24Z" fill="#E11036"/>
</svg>
