<svg width="98" height="40" viewBox="0 0 98 40" fill="none" xmlns="http://www.w3.org/2000/svg">
<path d="M0 31.9999L2.79752e-06 0.000105873L25.5244 0.000108105L47.3939 23.3333L90 23.3332L98 30L98 32L0 31.9999Z" fill="url(#paint0_linear_1047_1470)"/>
<path d="M0 31.9999L2.79752e-06 0.000105873L25.5244 0.000108105L47.3939 23.3333L90 23.3332L98 30L98 32L0 31.9999Z" fill="white" fill-opacity="0.4"/>
<path d="M0 39.9999L2.88494e-06 7.00011L25.5244 7.0001L47.3939 30L98 30L98 40L0 39.9999Z" fill="url(#paint1_linear_1047_1470)"/>
<path d="M0 39.9999L2.88494e-06 7.00011L25.5244 7.0001L47.3939 30L98 30L98 40L0 39.9999Z" fill="black" fill-opacity="0.35" style="mix-blend-mode:hard-light"/>
<path d="M1.00098 8H24.001" stroke="url(#paint2_linear_1047_1470)" stroke-width="2"/>
<path d="M96.0013 30.9999L47.0013 30.9999L28.501 11.5" stroke="url(#paint3_linear_1047_1470)" stroke-width="2"/>
<defs>
<linearGradient id="paint0_linear_1047_1470" x1="15" y1="-47" x2="135.378" y2="22.5" gradientUnits="userSpaceOnUse">
<stop offset="0.0416288" stop-color="#E2E2E2"/>
<stop offset="0.13111" stop-color="#444444"/>
<stop offset="0.256895" stop-color="#959595"/>
<stop offset="0.322115" stop-color="#313131"/>
<stop offset="0.384372" stop-color="white"/>
<stop offset="0.418597" stop-color="#646464"/>
<stop offset="0.432915" stop-color="white"/>
<stop offset="0.55998" stop-color="#686868"/>
<stop offset="0.581731" stop-color="white"/>
<stop offset="0.682733" stop-color="#767676"/>
<stop offset="0.706731" stop-color="white"/>
<stop offset="0.817308" stop-color="#6E6E6E"/>
<stop offset="0.9045" stop-color="#353535"/>
<stop offset="0.9375" stop-color="white"/>
</linearGradient>
<linearGradient id="paint1_linear_1047_1470" x1="-4.49902" y1="84" x2="108.001" y2="-15.5" gradientUnits="userSpaceOnUse">
<stop offset="0.0416288" stop-color="#E2E2E2"/>
<stop offset="0.13111" stop-color="#444444"/>
<stop offset="0.256895" stop-color="#959595"/>
<stop offset="0.322115" stop-color="#313131"/>
<stop offset="0.384372" stop-color="white"/>
<stop offset="0.418597" stop-color="#646464"/>
<stop offset="0.432915" stop-color="white"/>
<stop offset="0.55998" stop-color="#686868"/>
<stop offset="0.581731" stop-color="white"/>
<stop offset="0.682733" stop-color="#767676"/>
<stop offset="0.706731" stop-color="white"/>
<stop offset="0.817308" stop-color="#6E6E6E"/>
<stop offset="0.9045" stop-color="#353535"/>
<stop offset="0.9375" stop-color="white"/>
</linearGradient>
<linearGradient id="paint2_linear_1047_1470" x1="1.00098" y1="8.5" x2="24.001" y2="8.5" gradientUnits="userSpaceOnUse">
<stop stop-color="white" stop-opacity="0"/>
<stop offset="0.322115" stop-color="white"/>
<stop offset="0.668269" stop-color="white"/>
<stop offset="1" stop-color="white" stop-opacity="0"/>
</linearGradient>
<linearGradient id="paint3_linear_1047_1470" x1="26.501" y1="17.5" x2="96.001" y2="31.5" gradientUnits="userSpaceOnUse">
<stop stop-color="white" stop-opacity="0"/>
<stop offset="0.322115" stop-color="white" stop-opacity="0.6"/>
<stop offset="0.668269" stop-color="white" stop-opacity="0.8"/>
<stop offset="1" stop-color="white" stop-opacity="0"/>
</linearGradient>
</defs>
</svg>
