<svg width="267" height="44" viewBox="0 0 267 44" fill="none" xmlns="http://www.w3.org/2000/svg">
<path d="M0 5.46393e-05L2.09814e-06 23.9999L113.524 23.9999L128 8L267 8L259 0L0 5.46393e-05Z" fill="url(#paint0_linear_1047_1473)"/>
<path d="M0 5.46393e-05L2.09814e-06 23.9999L113.524 23.9999L128 8L267 8L259 0L0 5.46393e-05Z" fill="white" fill-opacity="0.4"/>
<path d="M0 8.00005L2.79752e-06 39.9999L113.524 39.9999L135.394 16.6666L267 16.6668L267 8L0 8.00005Z" fill="url(#paint1_linear_1047_1473)"/>
<path d="M0 8.00005L2.79752e-06 39.9999L113.524 39.9999L135.394 16.6666L267 16.6668L267 8L0 8.00005Z" fill="black" fill-opacity="0.35" style="mix-blend-mode:hard-light"/>
<path d="M7.00037 9H260.5" stroke="url(#paint2_linear_1047_1473)" stroke-width="2"/>
<path d="M7.00037 39H110" stroke="url(#paint3_linear_1047_1473)" stroke-width="2"/>
<path d="M153 16H256" stroke="url(#paint4_linear_1047_1473)" stroke-width="2"/>
<path d="M20.0004 16C17.2389 16 15.0004 18.2386 15.0004 21V29C15.0004 31.7614 17.2389 34 20.0004 34C22.7618 34 25.0004 31.7614 25.0004 29V21C25.0004 18.2386 22.7618 16 20.0004 16Z" fill="black" fill-opacity="0.5" stroke="url(#paint5_linear_1047_1473)" stroke-width="2"/>
<g filter="url(#filter0_d_1047_1473)">
<rect width="4" height="12.8" rx="2" transform="matrix(-1 0 0 1 22.0004 18.6001)" fill="url(#paint6_linear_1047_1473)"/>
</g>
<path d="M38.0004 16C35.2389 16 33.0004 18.2386 33.0004 21V29C33.0004 31.7614 35.2389 34 38.0004 34C40.7618 34 43.0004 31.7614 43.0004 29V21C43.0004 18.2386 40.7618 16 38.0004 16Z" fill="black" fill-opacity="0.5" stroke="url(#paint7_linear_1047_1473)" stroke-width="2"/>
<g filter="url(#filter1_d_1047_1473)">
<rect width="4" height="12.8" rx="2" transform="matrix(-1 0 0 1 40.0004 18.6001)" fill="url(#paint8_linear_1047_1473)"/>
</g>
<defs>
<filter id="filter0_d_1047_1473" x="6.00037" y="6.6001" width="28" height="36.8" filterUnits="userSpaceOnUse" color-interpolation-filters="sRGB">
<feFlood flood-opacity="0" result="BackgroundImageFix"/>
<feColorMatrix in="SourceAlpha" type="matrix" values="0 0 0 0 0 0 0 0 0 0 0 0 0 0 0 0 0 0 127 0" result="hardAlpha"/>
<feMorphology radius="4" operator="dilate" in="SourceAlpha" result="effect1_dropShadow_1047_1473"/>
<feOffset/>
<feGaussianBlur stdDeviation="4"/>
<feComposite in2="hardAlpha" operator="out"/>
<feColorMatrix type="matrix" values="0 0 0 0 0.882353 0 0 0 0 0.0627451 0 0 0 0 0.211765 0 0 0 1 0"/>
<feBlend mode="normal" in2="BackgroundImageFix" result="effect1_dropShadow_1047_1473"/>
<feBlend mode="normal" in="SourceGraphic" in2="effect1_dropShadow_1047_1473" result="shape"/>
</filter>
<filter id="filter1_d_1047_1473" x="24.0004" y="6.6001" width="28" height="36.8" filterUnits="userSpaceOnUse" color-interpolation-filters="sRGB">
<feFlood flood-opacity="0" result="BackgroundImageFix"/>
<feColorMatrix in="SourceAlpha" type="matrix" values="0 0 0 0 0 0 0 0 0 0 0 0 0 0 0 0 0 0 127 0" result="hardAlpha"/>
<feMorphology radius="4" operator="dilate" in="SourceAlpha" result="effect1_dropShadow_1047_1473"/>
<feOffset/>
<feGaussianBlur stdDeviation="4"/>
<feComposite in2="hardAlpha" operator="out"/>
<feColorMatrix type="matrix" values="0 0 0 0 0.882353 0 0 0 0 0.0627451 0 0 0 0 0.211765 0 0 0 1 0"/>
<feBlend mode="normal" in2="BackgroundImageFix" result="effect1_dropShadow_1047_1473"/>
<feBlend mode="normal" in="SourceGraphic" in2="effect1_dropShadow_1047_1473" result="shape"/>
</filter>
<linearGradient id="paint0_linear_1047_1473" x1="36.0004" y1="72" x2="248" y2="-44" gradientUnits="userSpaceOnUse">
<stop offset="0.0625" stop-color="white"/>
<stop offset="0.0954999" stop-color="#353535"/>
<stop offset="0.182692" stop-color="#6E6E6E"/>
<stop offset="0.293269" stop-color="white"/>
<stop offset="0.317267" stop-color="#767676"/>
<stop offset="0.418269" stop-color="white"/>
<stop offset="0.44002" stop-color="#686868"/>
<stop offset="0.567085" stop-color="white"/>
<stop offset="0.581403" stop-color="#646464"/>
<stop offset="0.615628" stop-color="white"/>
<stop offset="0.677885" stop-color="#313131"/>
<stop offset="0.743105" stop-color="#959595"/>
<stop offset="0.86889" stop-color="#444444"/>
<stop offset="0.958371" stop-color="#E2E2E2"/>
</linearGradient>
<linearGradient id="paint1_linear_1047_1473" x1="31.1937" y1="-39.9625" x2="212.807" y2="142.963" gradientUnits="userSpaceOnUse">
<stop offset="0.0416288" stop-color="#E2E2E2"/>
<stop offset="0.13111" stop-color="#444444"/>
<stop offset="0.256895" stop-color="#959595"/>
<stop offset="0.322115" stop-color="#313131"/>
<stop offset="0.384372" stop-color="white"/>
<stop offset="0.418597" stop-color="#646464"/>
<stop offset="0.432915" stop-color="white"/>
<stop offset="0.55998" stop-color="#686868"/>
<stop offset="0.581731" stop-color="white"/>
<stop offset="0.682733" stop-color="#767676"/>
<stop offset="0.706731" stop-color="white"/>
<stop offset="0.817308" stop-color="#6E6E6E"/>
<stop offset="0.9045" stop-color="#353535"/>
<stop offset="0.9375" stop-color="white"/>
</linearGradient>
<linearGradient id="paint2_linear_1047_1473" x1="7.00037" y1="9.5" x2="260.5" y2="9.5" gradientUnits="userSpaceOnUse">
<stop stop-color="white" stop-opacity="0"/>
<stop offset="0.322115" stop-color="white"/>
<stop offset="0.668269" stop-color="white"/>
<stop offset="1" stop-color="white" stop-opacity="0"/>
</linearGradient>
<linearGradient id="paint3_linear_1047_1473" x1="7.00037" y1="39.5" x2="110" y2="39.5" gradientUnits="userSpaceOnUse">
<stop stop-color="white" stop-opacity="0"/>
<stop offset="0.322115" stop-color="white" stop-opacity="0.5"/>
<stop offset="0.668269" stop-color="white" stop-opacity="0.5"/>
<stop offset="1" stop-color="white" stop-opacity="0"/>
</linearGradient>
<linearGradient id="paint4_linear_1047_1473" x1="153" y1="16.5" x2="256" y2="16.5" gradientUnits="userSpaceOnUse">
<stop stop-color="white" stop-opacity="0"/>
<stop offset="0.322115" stop-color="white" stop-opacity="0.5"/>
<stop offset="0.668269" stop-color="white" stop-opacity="0.5"/>
<stop offset="1" stop-color="white" stop-opacity="0"/>
</linearGradient>
<linearGradient id="paint5_linear_1047_1473" x1="20.0004" y1="17" x2="20.0004" y2="33" gradientUnits="userSpaceOnUse">
<stop/>
<stop offset="1" stop-color="white"/>
</linearGradient>
<linearGradient id="paint6_linear_1047_1473" x1="2" y1="12.8" x2="2" y2="0" gradientUnits="userSpaceOnUse">
<stop stop-color="#E11036"/>
<stop offset="1" stop-color="#FF6B42"/>
</linearGradient>
<linearGradient id="paint7_linear_1047_1473" x1="38.0004" y1="17" x2="38.0004" y2="33" gradientUnits="userSpaceOnUse">
<stop/>
<stop offset="1" stop-color="white"/>
</linearGradient>
<linearGradient id="paint8_linear_1047_1473" x1="2" y1="12.8" x2="2" y2="0" gradientUnits="userSpaceOnUse">
<stop stop-color="#E11036"/>
<stop offset="1" stop-color="#FF6B42"/>
</linearGradient>
</defs>
</svg>
