<svg width="267" height="40" viewBox="0 0 267 40" fill="none" xmlns="http://www.w3.org/2000/svg">
<path d="M267 31.9999L267 9.1099e-05L154.744 9.1376e-05L131.606 23.3334L7.00022 23.3332L0.000121939 30.0001L0.000221031 32L267 31.9999Z" fill="url(#paint0_linear_1047_1482)"/>
<path d="M267 31.9999L267 9.1099e-05L154.744 9.1376e-05L131.606 23.3334L7.00022 23.3332L0.000121939 30.0001L0.000221031 32L267 31.9999Z" fill="white" fill-opacity="0.4"/>
<path d="M267 39.9999L267 7.00009L154.744 7.00009L131.606 30.0002L0.000122179 30.0001L0.000205146 40L267 39.9999Z" fill="url(#paint1_linear_1047_1482)"/>
<path d="M267 39.9999L267 7.00009L154.744 7.00009L131.606 30.0002L0.000122179 30.0001L0.000205146 40L267 39.9999Z" fill="black" fill-opacity="0.35" style="mix-blend-mode:hard-light"/>
<path d="M157 8L264 8.00001" stroke="url(#paint2_linear_1047_1482)" stroke-width="2"/>
<path d="M7.00012 31.0002L114 31.0003" stroke="url(#paint3_linear_1047_1482)" stroke-width="2"/>
<path d="M134 29.0002L151 12.0002" stroke="url(#paint4_linear_1047_1482)" stroke-width="2"/>
<path d="M184 19C181.239 19 179 21.2386 179 24C179 26.7614 181.239 29 184 29H235C237.762 29 240 26.7614 240 24C240 21.2386 237.762 19 235 19H184Z" fill="black" fill-opacity="0.5" stroke="url(#paint5_linear_1047_1482)" stroke-width="2"/>
<g filter="url(#filter0_d_1047_1482)">
<rect width="55" height="4" rx="2" transform="matrix(-1 0 0 1 237 22)" fill="url(#paint6_linear_1047_1482)"/>
</g>
<defs>
<filter id="filter0_d_1047_1482" x="170" y="10" width="79" height="28" filterUnits="userSpaceOnUse" color-interpolation-filters="sRGB">
<feFlood flood-opacity="0" result="BackgroundImageFix"/>
<feColorMatrix in="SourceAlpha" type="matrix" values="0 0 0 0 0 0 0 0 0 0 0 0 0 0 0 0 0 0 127 0" result="hardAlpha"/>
<feMorphology radius="4" operator="dilate" in="SourceAlpha" result="effect1_dropShadow_1047_1482"/>
<feOffset/>
<feGaussianBlur stdDeviation="4"/>
<feComposite in2="hardAlpha" operator="out"/>
<feColorMatrix type="matrix" values="0 0 0 0 0.882353 0 0 0 0 0.0627451 0 0 0 0 0.211765 0 0 0 1 0"/>
<feBlend mode="normal" in2="BackgroundImageFix" result="effect1_dropShadow_1047_1482"/>
<feBlend mode="normal" in="SourceGraphic" in2="effect1_dropShadow_1047_1482" result="shape"/>
</filter>
<linearGradient id="paint0_linear_1047_1482" x1="252.001" y1="-47" x2="10.0011" y2="81" gradientUnits="userSpaceOnUse">
<stop offset="0.0416288" stop-color="#E2E2E2"/>
<stop offset="0.13111" stop-color="#444444"/>
<stop offset="0.256895" stop-color="#959595"/>
<stop offset="0.322115" stop-color="#313131"/>
<stop offset="0.384372" stop-color="white"/>
<stop offset="0.418597" stop-color="#646464"/>
<stop offset="0.432915" stop-color="white"/>
<stop offset="0.55998" stop-color="#686868"/>
<stop offset="0.581731" stop-color="white"/>
<stop offset="0.682733" stop-color="#767676"/>
<stop offset="0.706731" stop-color="white"/>
<stop offset="0.817308" stop-color="#6E6E6E"/>
<stop offset="0.9045" stop-color="#353535"/>
<stop offset="0.9375" stop-color="white"/>
</linearGradient>
<linearGradient id="paint1_linear_1047_1482" x1="182.001" y1="141" x2="18.0011" y2="-15" gradientUnits="userSpaceOnUse">
<stop offset="0.0416288" stop-color="#E2E2E2"/>
<stop offset="0.13111" stop-color="#444444"/>
<stop offset="0.256895" stop-color="#959595"/>
<stop offset="0.322115" stop-color="#313131"/>
<stop offset="0.384372" stop-color="white"/>
<stop offset="0.418597" stop-color="#646464"/>
<stop offset="0.432915" stop-color="white"/>
<stop offset="0.55998" stop-color="#686868"/>
<stop offset="0.581731" stop-color="white"/>
<stop offset="0.682733" stop-color="#767676"/>
<stop offset="0.706731" stop-color="white"/>
<stop offset="0.817308" stop-color="#6E6E6E"/>
<stop offset="0.9045" stop-color="#353535"/>
<stop offset="0.9375" stop-color="white"/>
</linearGradient>
<linearGradient id="paint2_linear_1047_1482" x1="157" y1="8.5" x2="264" y2="8.50001" gradientUnits="userSpaceOnUse">
<stop stop-color="white" stop-opacity="0"/>
<stop offset="0.322115" stop-color="white"/>
<stop offset="0.668269" stop-color="white"/>
<stop offset="1" stop-color="white" stop-opacity="0"/>
</linearGradient>
<linearGradient id="paint3_linear_1047_1482" x1="7.00012" y1="31.5002" x2="114" y2="31.5003" gradientUnits="userSpaceOnUse">
<stop stop-color="white" stop-opacity="0"/>
<stop offset="0.322115" stop-color="white"/>
<stop offset="0.668269" stop-color="white"/>
<stop offset="1" stop-color="white" stop-opacity="0"/>
</linearGradient>
<linearGradient id="paint4_linear_1047_1482" x1="134.354" y1="29.3538" x2="151.354" y2="12.3538" gradientUnits="userSpaceOnUse">
<stop stop-color="white" stop-opacity="0"/>
<stop offset="0.322115" stop-color="white" stop-opacity="0.6"/>
<stop offset="0.668269" stop-color="white" stop-opacity="0.6"/>
<stop offset="1" stop-color="white" stop-opacity="0"/>
</linearGradient>
<linearGradient id="paint5_linear_1047_1482" x1="209.5" y1="20" x2="209.5" y2="28" gradientUnits="userSpaceOnUse">
<stop/>
<stop offset="1" stop-color="white"/>
</linearGradient>
<linearGradient id="paint6_linear_1047_1482" x1="55" y1="1.99998" x2="0" y2="1.99998" gradientUnits="userSpaceOnUse">
<stop stop-color="#E11036"/>
<stop offset="1" stop-color="#FF6B42"/>
</linearGradient>
</defs>
</svg>
