<svg width="18" height="14" viewBox="0 0 18 14" fill="none" xmlns="http://www.w3.org/2000/svg">
<path fill-rule="evenodd" clip-rule="evenodd" d="M18 10C18 12.2091 16.2091 14 14 14H4C1.79086 14 0 12.2091 0 10V4C0 1.79086 1.79086 0 4 0H14C16.2091 0 18 1.79086 18 4V10ZM10.228 9.04473C9.50574 9.60659 8.49427 9.60659 7.772 9.04473L2.807 5.18246C2.47858 4.92697 2 5.16102 2 5.57711V10C2 11.1046 2.89543 12 4 12H14C15.1046 12 16 11.1046 16 10V5.57711C16 5.16102 15.5214 4.92697 15.193 5.18246L10.228 9.04473ZM3.53673 2C3.2403 2 3 2.2403 3 2.53674C3 2.70237 3.07647 2.85872 3.20722 2.96041L8.38607 6.98833C8.74717 7.26918 9.25283 7.26918 9.61393 6.98833L14.7928 2.96041C14.9235 2.85872 15 2.70237 15 2.53674C15 2.2403 14.7597 2 14.4633 2H3.53673Z" fill="white"/>
</svg>
