<svg width="343" height="97" viewBox="0 0 343 97" fill="none" xmlns="http://www.w3.org/2000/svg">
<path d="M43.1037 17.3631C51.4502 10.6561 61.8367 7 72.5441 7H270.456C281.163 7 291.55 10.6561 299.896 17.3631L332.329 43.4254C337.809 47.8286 337.809 56.1714 332.329 60.5746L299.896 86.6369C291.55 93.3439 281.163 97 270.456 97H72.5441C61.8367 97 51.4502 93.3439 43.1037 86.6369L10.6706 60.5746C5.19101 56.1714 5.19102 47.8286 10.6706 43.4254L43.1037 17.3631Z" fill="url(#paint0_linear_1047_1209)"/>
<path d="M43.1037 17.3631C51.4502 10.6561 61.8367 7 72.5441 7H270.456C281.163 7 291.55 10.6561 299.896 17.3631L332.329 43.4254C337.809 47.8286 337.809 56.1714 332.329 60.5746L299.896 86.6369C291.55 93.3439 281.163 97 270.456 97H72.5441C61.8367 97 51.4502 93.3439 43.1037 86.6369L10.6706 60.5746C5.19101 56.1714 5.19102 47.8286 10.6706 43.4254L43.1037 17.3631Z" fill="black" fill-opacity="0.52"/>
<path d="M72.5439 8H270.456C280.935 8.00003 291.101 11.5784 299.27 18.1426L331.703 44.2051C336.684 48.208 336.684 55.792 331.703 59.7949L299.27 85.8574C291.101 92.4216 280.935 96 270.456 96H72.5439C62.0645 96 51.8993 92.4216 43.7305 85.8574L11.2969 59.7949C6.31564 55.792 6.31564 48.208 11.2969 44.2051L43.7305 18.1426C51.8993 11.5784 62.0645 8.00004 72.5439 8Z" stroke="white" stroke-opacity="0.17" stroke-width="2"/>
<path d="M43.1037 10.3631C51.4502 3.65605 61.8367 0 72.5441 0H270.456C281.163 0 291.55 3.65606 299.896 10.3631L332.329 36.4254C337.809 40.8286 337.809 49.1714 332.329 53.5746L299.896 79.6369C291.55 86.3439 281.163 90 270.456 90H72.5441C61.8367 90 51.4502 86.3439 43.1037 79.6369L10.6706 53.5746C5.19101 49.1714 5.19102 40.8286 10.6706 36.4254L43.1037 10.3631Z" fill="url(#paint1_linear_1047_1209)"/>
<path d="M43.1037 10.3631C51.4502 3.65605 61.8367 0 72.5441 0H270.456C281.163 0 291.55 3.65606 299.896 10.3631L332.329 36.4254C337.809 40.8286 337.809 49.1714 332.329 53.5746L299.896 79.6369C291.55 86.3439 281.163 90 270.456 90H72.5441C61.8367 90 51.4502 86.3439 43.1037 79.6369L10.6706 53.5746C5.19101 49.1714 5.19102 40.8286 10.6706 36.4254L43.1037 10.3631Z" fill="white" fill-opacity="0.46"/>
<path d="M72.5439 1H270.456C280.935 1.00003 291.101 4.5784 299.27 11.1426L331.703 37.2051C336.684 41.208 336.684 48.792 331.703 52.7949L299.27 78.8574C291.101 85.4216 280.935 89 270.456 89H72.5439C62.0645 89 51.8993 85.4216 43.7305 78.8574L11.2969 52.7949C6.31564 48.792 6.31564 41.208 11.2969 37.2051L43.7305 11.1426C51.8993 4.5784 62.0645 1.00004 72.5439 1Z" stroke="url(#paint2_linear_1047_1209)" stroke-opacity="0.56" stroke-width="2"/>
<path d="M72 14C72 9.58172 75.5817 6 80 6H263C267.418 6 271 9.58172 271 14V75C271 79.4183 267.418 83 263 83H80C75.5817 83 72 79.4183 72 75V14Z" fill="url(#paint3_linear_1047_1209)"/>
<path d="M80 8H263C266.314 8 269 10.6863 269 14V75C269 78.3137 266.314 81 263 81H80C76.6863 81 74 78.3137 74 75V14L74.0078 13.6914C74.1684 10.5211 76.7898 8 80 8Z" stroke="url(#paint4_linear_1047_1209)" stroke-opacity="0.73" stroke-width="4"/>
<path d="M49 31C49 27.134 52.134 24 56 24C59.866 24 63 27.134 63 31C63 34.866 59.866 38 56 38C52.134 38 49 34.866 49 31Z" fill="url(#paint5_linear_1047_1209)"/>
<path d="M56 26C58.7614 26 61 28.2386 61 31C61 33.7614 58.7614 36 56 36C53.2386 36 51 33.7614 51 31C51 28.2386 53.2386 26 56 26Z" stroke="url(#paint6_linear_1047_1209)" stroke-opacity="0.73" stroke-width="4"/>
<path d="M49 60C49 56.134 52.134 53 56 53C59.866 53 63 56.134 63 60C63 63.866 59.866 67 56 67C52.134 67 49 63.866 49 60Z" fill="url(#paint7_linear_1047_1209)"/>
<path d="M56 55C58.7614 55 61 57.2386 61 60C61 62.7614 58.7614 65 56 65C53.2386 65 51 62.7614 51 60C51 57.2386 53.2386 55 56 55Z" stroke="url(#paint8_linear_1047_1209)" stroke-opacity="0.73" stroke-width="4"/>
<path d="M27 45C27 41.134 30.134 38 34 38C37.866 38 41 41.134 41 45C41 48.866 37.866 52 34 52C30.134 52 27 48.866 27 45Z" fill="url(#paint9_linear_1047_1209)"/>
<path d="M34 40C36.7614 40 39 42.2386 39 45C39 47.7614 36.7614 50 34 50C31.2386 50 29 47.7614 29 45C29 42.2386 31.2386 40 34 40Z" stroke="url(#paint10_linear_1047_1209)" stroke-opacity="0.73" stroke-width="4"/>
<path d="M283 31C283 27.134 286.134 24 290 24C293.866 24 297 27.134 297 31C297 34.866 293.866 38 290 38C286.134 38 283 34.866 283 31Z" fill="url(#paint11_linear_1047_1209)"/>
<path d="M290 26C292.761 26 295 28.2386 295 31C295 33.7614 292.761 36 290 36C287.239 36 285 33.7614 285 31C285 28.2386 287.239 26 290 26Z" stroke="url(#paint12_linear_1047_1209)" stroke-opacity="0.73" stroke-width="4"/>
<path d="M283 60C283 56.134 286.134 53 290 53C293.866 53 297 56.134 297 60C297 63.866 293.866 67 290 67C286.134 67 283 63.866 283 60Z" fill="url(#paint13_linear_1047_1209)"/>
<path d="M290 55C292.761 55 295 57.2386 295 60C295 62.7614 292.761 65 290 65C287.239 65 285 62.7614 285 60C285 57.2386 287.239 55 290 55Z" stroke="url(#paint14_linear_1047_1209)" stroke-opacity="0.73" stroke-width="4"/>
<path d="M305 45C305 41.134 308.134 38 312 38C315.866 38 319 41.134 319 45C319 48.866 315.866 52 312 52C308.134 52 305 48.866 305 45Z" fill="url(#paint15_linear_1047_1209)"/>
<path d="M312 40C314.761 40 317 42.2386 317 45C317 47.7614 314.761 50 312 50C309.239 50 307 47.7614 307 45C307 42.2386 309.239 40 312 40Z" stroke="url(#paint16_linear_1047_1209)" stroke-opacity="0.73" stroke-width="4"/>
<mask id="mask0_1047_1209" style="mask-type:alpha" maskUnits="userSpaceOnUse" x="74" y="9" width="195" height="71">
<rect x="74.5801" y="9.06885" width="193.633" height="70.775" rx="5" fill="url(#paint17_linear_1047_1209)"/>
</mask>
<g mask="url(#mask0_1047_1209)">
<g filter="url(#filter0_i_1047_1209)">
<rect x="74.5801" y="9.06885" width="193.633" height="70.775" rx="5" fill="url(#paint18_linear_1047_1209)"/>
</g>
<g filter="url(#filter1_f_1047_1209)">
<path d="M78.3955 22.6562C78.3955 18.238 81.9772 14.6562 86.3955 14.6562H255.444C259.862 14.6562 263.444 18.238 263.444 22.6562V24.5294C263.444 35.0642 255.658 43.9557 245.188 45.1285C225.567 47.3263 194.081 50.3875 170.92 50.3875C147.758 50.3875 116.272 47.3263 96.6512 45.1285C86.1819 43.9557 78.3955 35.0642 78.3955 24.5294V22.6562Z" fill="url(#paint19_radial_1047_1209)" style="mix-blend-mode:overlay"/>
</g>
<g filter="url(#filter2_f_1047_1209)">
<ellipse cx="171.397" cy="79.378" rx="96.8166" ry="3.25938" fill="url(#paint20_radial_1047_1209)"/>
</g>
<g filter="url(#filter3_f_1047_1209)">
<path d="M289.198 14.1906C289.198 22.6768 236.456 22.1062 171.396 22.1062C106.336 22.1062 53.5947 22.6768 53.5947 14.1906C53.5947 5.70442 106.336 -8.625 171.396 -8.625C236.456 -8.625 289.198 5.70442 289.198 14.1906Z" fill="url(#paint21_radial_1047_1209)"/>
</g>
<g filter="url(#filter4_f_1047_1209)">
<rect x="81" y="71" width="184" height="5" fill="#560110"/>
</g>
<g filter="url(#filter5_f_1047_1209)">
<ellipse cx="171.5" cy="71.5" rx="64.5" ry="23.5" fill="url(#paint22_radial_1047_1209)" fill-opacity="0.9"/>
</g>
<g filter="url(#filter6_f_1047_1209)">
<ellipse cx="171.397" cy="20.1907" rx="96.8166" ry="14.4344" fill="url(#paint23_radial_1047_1209)"/>
</g>
<g filter="url(#filter7_f_1047_1209)">
<ellipse cx="172" cy="25" rx="39" ry="6" fill="white"/>
</g>
<g filter="url(#filter8_f_1047_1209)">
<ellipse cx="172" cy="72.5" rx="43" ry="19.5" fill="#FFA749"/>
</g>
<g filter="url(#filter9_f_1047_1209)">
<ellipse cx="171" cy="74" rx="15" ry="6" fill="white"/>
</g>
<g filter="url(#filter10_f_1047_1209)">
<rect x="80.5566" y="15.5874" width="181.68" height="1.8625" fill="white"/>
</g>
<g filter="url(#filter11_f_1047_1209)">
<rect x="79" y="70" width="185" height="5" fill="url(#paint24_radial_1047_1209)"/>
</g>
<g filter="url(#filter12_f_1047_1209)">
<rect x="78" y="76" width="66" height="8" transform="rotate(-90 78 76)" fill="url(#paint25_radial_1047_1209)"/>
</g>
<g filter="url(#filter13_f_1047_1209)">
<rect x="257" y="76" width="66" height="8" transform="rotate(-90 257 76)" fill="url(#paint26_radial_1047_1209)"/>
</g>
</g>
<defs>
<filter id="filter0_i_1047_1209" x="74.5801" y="9.06885" width="193.633" height="70.7749" filterUnits="userSpaceOnUse" color-interpolation-filters="sRGB">
<feFlood flood-opacity="0" result="BackgroundImageFix"/>
<feBlend mode="normal" in="SourceGraphic" in2="BackgroundImageFix" result="shape"/>
<feColorMatrix in="SourceAlpha" type="matrix" values="0 0 0 0 0 0 0 0 0 0 0 0 0 0 0 0 0 0 127 0" result="hardAlpha"/>
<feMorphology radius="2" operator="erode" in="SourceAlpha" result="effect1_innerShadow_1047_1209"/>
<feOffset/>
<feGaussianBlur stdDeviation="3.5"/>
<feComposite in2="hardAlpha" operator="arithmetic" k2="-1" k3="1"/>
<feColorMatrix type="matrix" values="0 0 0 0 0.882353 0 0 0 0 0.0627451 0 0 0 0 0.211765 0 0 0 1 0"/>
<feBlend mode="normal" in2="shape" result="effect1_innerShadow_1047_1209"/>
</filter>
<filter id="filter1_f_1047_1209" x="69.3955" y="5.65625" width="203.049" height="53.7314" filterUnits="userSpaceOnUse" color-interpolation-filters="sRGB">
<feFlood flood-opacity="0" result="BackgroundImageFix"/>
<feBlend mode="normal" in="SourceGraphic" in2="BackgroundImageFix" result="shape"/>
<feGaussianBlur stdDeviation="4.5" result="effect1_foregroundBlur_1047_1209"/>
</filter>
<filter id="filter2_f_1047_1209" x="64.5801" y="66.1187" width="213.633" height="26.5186" filterUnits="userSpaceOnUse" color-interpolation-filters="sRGB">
<feFlood flood-opacity="0" result="BackgroundImageFix"/>
<feBlend mode="normal" in="SourceGraphic" in2="BackgroundImageFix" result="shape"/>
<feGaussianBlur stdDeviation="5" result="effect1_foregroundBlur_1047_1209"/>
</filter>
<filter id="filter3_f_1047_1209" x="43.5947" y="-18.625" width="255.603" height="50.7393" filterUnits="userSpaceOnUse" color-interpolation-filters="sRGB">
<feFlood flood-opacity="0" result="BackgroundImageFix"/>
<feBlend mode="normal" in="SourceGraphic" in2="BackgroundImageFix" result="shape"/>
<feGaussianBlur stdDeviation="5" result="effect1_foregroundBlur_1047_1209"/>
</filter>
<filter id="filter4_f_1047_1209" x="72" y="62" width="202" height="23" filterUnits="userSpaceOnUse" color-interpolation-filters="sRGB">
<feFlood flood-opacity="0" result="BackgroundImageFix"/>
<feBlend mode="normal" in="SourceGraphic" in2="BackgroundImageFix" result="shape"/>
<feGaussianBlur stdDeviation="4.5" result="effect1_foregroundBlur_1047_1209"/>
</filter>
<filter id="filter5_f_1047_1209" x="82" y="23" width="179" height="97" filterUnits="userSpaceOnUse" color-interpolation-filters="sRGB">
<feFlood flood-opacity="0" result="BackgroundImageFix"/>
<feBlend mode="normal" in="SourceGraphic" in2="BackgroundImageFix" result="shape"/>
<feGaussianBlur stdDeviation="12.5" result="effect1_foregroundBlur_1047_1209"/>
</filter>
<filter id="filter6_f_1047_1209" x="46.5801" y="-22.2437" width="249.633" height="84.8687" filterUnits="userSpaceOnUse" color-interpolation-filters="sRGB">
<feFlood flood-opacity="0" result="BackgroundImageFix"/>
<feBlend mode="normal" in="SourceGraphic" in2="BackgroundImageFix" result="shape"/>
<feGaussianBlur stdDeviation="14" result="effect1_foregroundBlur_1047_1209"/>
</filter>
<filter id="filter7_f_1047_1209" x="105" y="-9" width="134" height="68" filterUnits="userSpaceOnUse" color-interpolation-filters="sRGB">
<feFlood flood-opacity="0" result="BackgroundImageFix"/>
<feBlend mode="normal" in="SourceGraphic" in2="BackgroundImageFix" result="shape"/>
<feGaussianBlur stdDeviation="14" result="effect1_foregroundBlur_1047_1209"/>
</filter>
<filter id="filter8_f_1047_1209" x="90" y="14" width="164" height="117" filterUnits="userSpaceOnUse" color-interpolation-filters="sRGB">
<feFlood flood-opacity="0" result="BackgroundImageFix"/>
<feBlend mode="normal" in="SourceGraphic" in2="BackgroundImageFix" result="shape"/>
<feGaussianBlur stdDeviation="19.5" result="effect1_foregroundBlur_1047_1209"/>
</filter>
<filter id="filter9_f_1047_1209" x="141" y="53" width="60" height="42" filterUnits="userSpaceOnUse" color-interpolation-filters="sRGB">
<feFlood flood-opacity="0" result="BackgroundImageFix"/>
<feBlend mode="normal" in="SourceGraphic" in2="BackgroundImageFix" result="shape"/>
<feGaussianBlur stdDeviation="7.5" result="effect1_foregroundBlur_1047_1209"/>
</filter>
<filter id="filter10_f_1047_1209" x="73.5566" y="8.5874" width="195.681" height="15.8623" filterUnits="userSpaceOnUse" color-interpolation-filters="sRGB">
<feFlood flood-opacity="0" result="BackgroundImageFix"/>
<feBlend mode="normal" in="SourceGraphic" in2="BackgroundImageFix" result="shape"/>
<feGaussianBlur stdDeviation="3.5" result="effect1_foregroundBlur_1047_1209"/>
</filter>
<filter id="filter11_f_1047_1209" x="70" y="61" width="203" height="23" filterUnits="userSpaceOnUse" color-interpolation-filters="sRGB">
<feFlood flood-opacity="0" result="BackgroundImageFix"/>
<feBlend mode="normal" in="SourceGraphic" in2="BackgroundImageFix" result="shape"/>
<feGaussianBlur stdDeviation="4.5" result="effect1_foregroundBlur_1047_1209"/>
</filter>
<filter id="filter12_f_1047_1209" x="67" y="-1" width="30" height="88" filterUnits="userSpaceOnUse" color-interpolation-filters="sRGB">
<feFlood flood-opacity="0" result="BackgroundImageFix"/>
<feBlend mode="normal" in="SourceGraphic" in2="BackgroundImageFix" result="shape"/>
<feGaussianBlur stdDeviation="5.5" result="effect1_foregroundBlur_1047_1209"/>
</filter>
<filter id="filter13_f_1047_1209" x="246" y="-1" width="30" height="88" filterUnits="userSpaceOnUse" color-interpolation-filters="sRGB">
<feFlood flood-opacity="0" result="BackgroundImageFix"/>
<feBlend mode="normal" in="SourceGraphic" in2="BackgroundImageFix" result="shape"/>
<feGaussianBlur stdDeviation="5.5" result="effect1_foregroundBlur_1047_1209"/>
</filter>
<linearGradient id="paint0_linear_1047_1209" x1="12.5" y1="49.5" x2="327.5" y2="52" gradientUnits="userSpaceOnUse">
<stop stop-color="#E0E0E0"/>
<stop offset="0.0419039" stop-color="#464141"/>
<stop offset="0.0961539" stop-color="#737373"/>
<stop offset="0.121379" stop-color="#E8E8E8"/>
<stop offset="0.162267" stop-color="#898686"/>
<stop offset="0.216346" stop-color="white"/>
<stop offset="0.269231" stop-color="#A6A6A6"/>
<stop offset="0.300348" stop-color="#7B7171"/>
<stop offset="0.331731" stop-color="#CBCBCB"/>
<stop offset="0.387905" stop-color="#505050"/>
<stop offset="0.461734" stop-color="#DADADA"/>
<stop offset="0.514423" stop-color="#737373"/>
<stop offset="0.639423" stop-color="#F9F9F9"/>
<stop offset="0.71241" stop-color="#424242"/>
<stop offset="0.774038" stop-color="#737373"/>
<stop offset="0.87517" stop-color="white"/>
<stop offset="0.928069" stop-color="#414141"/>
<stop offset="1" stop-color="#D9D9D9"/>
</linearGradient>
<linearGradient id="paint1_linear_1047_1209" x1="12.5" y1="42.5" x2="327.5" y2="45" gradientUnits="userSpaceOnUse">
<stop stop-color="#D9D9D9"/>
<stop offset="0.0719311" stop-color="#414141"/>
<stop offset="0.12483" stop-color="white"/>
<stop offset="0.172992" stop-color="#5D5D5D"/>
<stop offset="0.206311" stop-color="#E1E1E1"/>
<stop offset="0.225962" stop-color="#737373"/>
<stop offset="0.28759" stop-color="#424242"/>
<stop offset="0.360577" stop-color="#F9F9F9"/>
<stop offset="0.485577" stop-color="#737373"/>
<stop offset="0.538266" stop-color="#DADADA"/>
<stop offset="0.612095" stop-color="#505050"/>
<stop offset="0.668269" stop-color="#CBCBCB"/>
<stop offset="0.699652" stop-color="#7B7171"/>
<stop offset="0.730769" stop-color="#A6A6A6"/>
<stop offset="0.783654" stop-color="white"/>
<stop offset="0.837733" stop-color="#898686"/>
<stop offset="0.878621" stop-color="#E8E8E8"/>
<stop offset="0.903846" stop-color="#737373"/>
<stop offset="0.932692" stop-color="#B2B2B2"/>
<stop offset="0.958096" stop-color="#464141"/>
<stop offset="1" stop-color="#E0E0E0"/>
</linearGradient>
<linearGradient id="paint2_linear_1047_1209" x1="158.5" y1="-11.5" x2="275.5" y2="104.5" gradientUnits="userSpaceOnUse">
<stop stop-opacity="0.36"/>
<stop offset="1"/>
</linearGradient>
<linearGradient id="paint3_linear_1047_1209" x1="279" y1="100.5" x2="84" y2="6.00002" gradientUnits="userSpaceOnUse">
<stop stop-color="#D9D9D9"/>
<stop offset="0.225962" stop-color="#737373"/>
<stop offset="0.360577" stop-color="#F9F9F9"/>
<stop offset="0.485577" stop-color="#737373"/>
<stop offset="0.668269" stop-color="#CBCBCB"/>
<stop offset="0.730769" stop-color="#A6A6A6"/>
<stop offset="0.783654" stop-color="white"/>
<stop offset="0.903846" stop-color="#737373"/>
<stop offset="1" stop-color="#E0E0E0"/>
</linearGradient>
<linearGradient id="paint4_linear_1047_1209" x1="138" y1="9" x2="218.5" y2="92.5" gradientUnits="userSpaceOnUse">
<stop offset="0.0721154"/>
<stop offset="0.591346" stop-opacity="0.75"/>
<stop offset="1" stop-opacity="0.4"/>
</linearGradient>
<linearGradient id="paint5_linear_1047_1209" x1="63.5628" y1="41.1818" x2="47.1978" y2="38.1131" gradientUnits="userSpaceOnUse">
<stop stop-color="#D9D9D9"/>
<stop offset="0.225962" stop-color="#737373"/>
<stop offset="0.360577" stop-color="#F9F9F9"/>
<stop offset="0.485577" stop-color="#737373"/>
<stop offset="0.668269" stop-color="#CBCBCB"/>
<stop offset="0.730769" stop-color="#A6A6A6"/>
<stop offset="0.783654" stop-color="white"/>
<stop offset="0.903846" stop-color="#737373"/>
<stop offset="1" stop-color="#E0E0E0"/>
</linearGradient>
<linearGradient id="paint6_linear_1047_1209" x1="56" y1="24" x2="56" y2="38" gradientUnits="userSpaceOnUse">
<stop/>
<stop offset="1" stop-color="white"/>
</linearGradient>
<linearGradient id="paint7_linear_1047_1209" x1="63.5628" y1="70.1818" x2="47.1978" y2="67.1131" gradientUnits="userSpaceOnUse">
<stop stop-color="#D9D9D9"/>
<stop offset="0.225962" stop-color="#737373"/>
<stop offset="0.360577" stop-color="#F9F9F9"/>
<stop offset="0.485577" stop-color="#737373"/>
<stop offset="0.668269" stop-color="#CBCBCB"/>
<stop offset="0.730769" stop-color="#A6A6A6"/>
<stop offset="0.783654" stop-color="white"/>
<stop offset="0.903846" stop-color="#737373"/>
<stop offset="1" stop-color="#E0E0E0"/>
</linearGradient>
<linearGradient id="paint8_linear_1047_1209" x1="56" y1="53" x2="56" y2="67" gradientUnits="userSpaceOnUse">
<stop/>
<stop offset="1" stop-color="white"/>
</linearGradient>
<linearGradient id="paint9_linear_1047_1209" x1="41.5628" y1="55.1818" x2="25.1978" y2="52.1131" gradientUnits="userSpaceOnUse">
<stop stop-color="#D9D9D9"/>
<stop offset="0.225962" stop-color="#737373"/>
<stop offset="0.360577" stop-color="#F9F9F9"/>
<stop offset="0.485577" stop-color="#737373"/>
<stop offset="0.668269" stop-color="#CBCBCB"/>
<stop offset="0.730769" stop-color="#A6A6A6"/>
<stop offset="0.783654" stop-color="white"/>
<stop offset="0.903846" stop-color="#737373"/>
<stop offset="1" stop-color="#E0E0E0"/>
</linearGradient>
<linearGradient id="paint10_linear_1047_1209" x1="34" y1="38" x2="34" y2="52" gradientUnits="userSpaceOnUse">
<stop/>
<stop offset="1" stop-color="white"/>
</linearGradient>
<linearGradient id="paint11_linear_1047_1209" x1="297.563" y1="41.1818" x2="281.198" y2="38.1131" gradientUnits="userSpaceOnUse">
<stop stop-color="#D9D9D9"/>
<stop offset="0.225962" stop-color="#737373"/>
<stop offset="0.360577" stop-color="#F9F9F9"/>
<stop offset="0.485577" stop-color="#737373"/>
<stop offset="0.668269" stop-color="#CBCBCB"/>
<stop offset="0.730769" stop-color="#A6A6A6"/>
<stop offset="0.783654" stop-color="white"/>
<stop offset="0.903846" stop-color="#737373"/>
<stop offset="1" stop-color="#E0E0E0"/>
</linearGradient>
<linearGradient id="paint12_linear_1047_1209" x1="290" y1="24" x2="290" y2="38" gradientUnits="userSpaceOnUse">
<stop/>
<stop offset="1" stop-color="white"/>
</linearGradient>
<linearGradient id="paint13_linear_1047_1209" x1="297.563" y1="70.1818" x2="281.198" y2="67.1131" gradientUnits="userSpaceOnUse">
<stop stop-color="#D9D9D9"/>
<stop offset="0.225962" stop-color="#737373"/>
<stop offset="0.360577" stop-color="#F9F9F9"/>
<stop offset="0.485577" stop-color="#737373"/>
<stop offset="0.668269" stop-color="#CBCBCB"/>
<stop offset="0.730769" stop-color="#A6A6A6"/>
<stop offset="0.783654" stop-color="white"/>
<stop offset="0.903846" stop-color="#737373"/>
<stop offset="1" stop-color="#E0E0E0"/>
</linearGradient>
<linearGradient id="paint14_linear_1047_1209" x1="290" y1="53" x2="290" y2="67" gradientUnits="userSpaceOnUse">
<stop/>
<stop offset="1" stop-color="white"/>
</linearGradient>
<linearGradient id="paint15_linear_1047_1209" x1="319.563" y1="55.1818" x2="303.198" y2="52.1131" gradientUnits="userSpaceOnUse">
<stop stop-color="#D9D9D9"/>
<stop offset="0.225962" stop-color="#737373"/>
<stop offset="0.360577" stop-color="#F9F9F9"/>
<stop offset="0.485577" stop-color="#737373"/>
<stop offset="0.668269" stop-color="#CBCBCB"/>
<stop offset="0.730769" stop-color="#A6A6A6"/>
<stop offset="0.783654" stop-color="white"/>
<stop offset="0.903846" stop-color="#737373"/>
<stop offset="1" stop-color="#E0E0E0"/>
</linearGradient>
<linearGradient id="paint16_linear_1047_1209" x1="312" y1="38" x2="312" y2="52" gradientUnits="userSpaceOnUse">
<stop/>
<stop offset="1" stop-color="white"/>
</linearGradient>
<linearGradient id="paint17_linear_1047_1209" x1="171.397" y1="9.06885" x2="171.397" y2="79.8438" gradientUnits="userSpaceOnUse">
<stop stop-color="#4E000E"/>
<stop offset="1" stop-color="#E11036"/>
</linearGradient>
<linearGradient id="paint18_linear_1047_1209" x1="171.397" y1="9.06885" x2="171.397" y2="79.8438" gradientUnits="userSpaceOnUse">
<stop stop-color="#890019"/>
<stop offset="0.980769" stop-color="#43000C"/>
</linearGradient>
<radialGradient id="paint19_radial_1047_1209" cx="0" cy="0" r="1" gradientUnits="userSpaceOnUse" gradientTransform="translate(170.92 30.0219) scale(92.5242 15.3656)">
<stop stop-color="#FFB246"/>
<stop offset="1" stop-color="#AF0221"/>
</radialGradient>
<radialGradient id="paint20_radial_1047_1209" cx="0" cy="0" r="1" gradientUnits="userSpaceOnUse" gradientTransform="translate(171.397 79.378) rotate(90) scale(3.25938 96.8166)">
<stop stop-color="#FFF6DE"/>
<stop offset="1" stop-color="#FFA749"/>
</radialGradient>
<radialGradient id="paint21_radial_1047_1209" cx="0" cy="0" r="1" gradientUnits="userSpaceOnUse" gradientTransform="translate(171.396 6.74062) rotate(90) scale(15.3656 117.801)">
<stop stop-color="#FFA749"/>
<stop offset="1" stop-color="#E11036"/>
</radialGradient>
<radialGradient id="paint22_radial_1047_1209" cx="0" cy="0" r="1" gradientUnits="userSpaceOnUse" gradientTransform="translate(171.5 71.5) rotate(90) scale(23.5 64.5)">
<stop stop-color="#FFF0E0"/>
<stop offset="0.264423" stop-color="#FFA749"/>
<stop offset="0.730769" stop-color="#C80024"/>
</radialGradient>
<radialGradient id="paint23_radial_1047_1209" cx="0" cy="0" r="1" gradientUnits="userSpaceOnUse" gradientTransform="translate(171.397 20.1907) rotate(90) scale(14.4344 96.8166)">
<stop stop-color="#FFF6DE"/>
<stop offset="1" stop-color="#FFA749"/>
</radialGradient>
<radialGradient id="paint24_radial_1047_1209" cx="0" cy="0" r="1" gradientUnits="userSpaceOnUse" gradientTransform="translate(171.5 72.5) scale(92.5 2.5)">
<stop stop-color="white"/>
<stop offset="0.543269" stop-color="#FFAE3D"/>
<stop offset="1" stop-color="#E11036"/>
</radialGradient>
<radialGradient id="paint25_radial_1047_1209" cx="0" cy="0" r="1" gradientUnits="userSpaceOnUse" gradientTransform="translate(111 80) scale(33 4)">
<stop stop-color="white"/>
<stop offset="0.543269" stop-color="#FFAE3D"/>
<stop offset="1" stop-color="#E11036"/>
</radialGradient>
<radialGradient id="paint26_radial_1047_1209" cx="0" cy="0" r="1" gradientUnits="userSpaceOnUse" gradientTransform="translate(290 80) scale(33 4)">
<stop stop-color="white"/>
<stop offset="0.543269" stop-color="#FFAE3D"/>
<stop offset="1" stop-color="#E11036"/>
</radialGradient>
</defs>
</svg>
