<svg width="414" height="366" viewBox="0 0 414 366" fill="none" xmlns="http://www.w3.org/2000/svg">
<g filter="url(#filter0_d_1667_2355)">
<path d="M378.293 35.9973L353.849 35.9973C340.349 35.9973 329.405 46.9413 329.405 60.4414C329.405 73.9415 318.461 84.8854 304.96 84.8854C291.46 84.8854 280.516 95.8294 280.516 109.33C280.516 122.83 269.572 133.774 256.072 133.774C242.572 133.774 231.628 144.718 231.628 158.218C231.628 171.718 220.684 182.662 207.184 182.662C193.684 182.662 182.74 193.606 182.74 207.106C182.74 220.606 171.796 231.55 158.296 231.55C144.796 231.55 133.852 242.494 133.852 255.994C133.852 269.494 122.908 280.438 109.408 280.438C95.9076 280.438 84.9636 291.382 84.9636 304.882C84.9636 318.382 74.0197 329.326 60.5196 329.326L36.0755 329.326" stroke="url(#paint0_linear_1667_2355)" stroke-width="4.09434" stroke-linecap="round"/>
<path d="M365.442 24.4441L340.998 24.4441C327.498 24.4441 316.554 35.388 316.554 48.8881C316.554 62.3882 305.61 73.3322 292.11 73.3322C278.61 73.3322 267.666 84.2762 267.666 97.7763C267.666 111.276 256.722 122.22 243.222 122.22C229.722 122.22 218.778 133.164 218.778 146.664C218.778 160.165 207.834 171.109 194.334 171.109C180.833 171.109 169.889 182.053 169.889 195.553C169.889 209.053 158.945 219.997 145.445 219.997C131.945 219.997 121.001 230.941 121.001 244.441C121.001 257.941 110.057 268.885 96.5571 268.885C83.057 268.885 72.1131 279.829 72.1131 293.329C72.1131 306.829 61.1691 317.773 47.669 317.773L23.2249 317.773" stroke="url(#paint1_linear_1667_2355)" stroke-width="4.09434" stroke-linecap="round"/>
<path d="M390.302 48.0053L365.858 48.0053C352.358 48.0053 341.414 58.9493 341.414 72.4494C341.414 85.9495 330.47 96.8935 316.97 96.8935C303.47 96.8935 292.526 107.837 292.526 121.338C292.526 134.838 281.582 145.782 268.082 145.782C254.582 145.782 243.638 156.726 243.638 170.226C243.638 183.726 232.694 194.67 219.194 194.67C205.694 194.67 194.75 205.614 194.75 219.114C194.75 232.614 183.806 243.558 170.306 243.558C156.806 243.558 145.862 254.502 145.862 268.002C145.862 281.502 134.918 292.446 121.417 292.446C107.917 292.446 96.9734 303.39 96.9734 316.89C96.9734 330.39 86.0294 341.334 72.5293 341.334L48.0852 341.334" stroke="url(#paint2_linear_1667_2355)" stroke-width="4.09434" stroke-linecap="round"/>
</g>
<defs>
<filter id="filter0_d_1667_2355" x="0.000139236" y="1.21935" width="413.527" height="363.34" filterUnits="userSpaceOnUse" color-interpolation-filters="sRGB">
<feFlood flood-opacity="0" result="BackgroundImageFix"/>
<feColorMatrix in="SourceAlpha" type="matrix" values="0 0 0 0 0 0 0 0 0 0 0 0 0 0 0 0 0 0 127 0" result="hardAlpha"/>
<feOffset/>
<feGaussianBlur stdDeviation="10.5888"/>
<feComposite in2="hardAlpha" operator="out"/>
<feColorMatrix type="matrix" values="0 0 0 0 0.745098 0 0 0 0 0.0745098 0 0 0 0 0.721569 0 0 0 0.45 0"/>
<feBlend mode="normal" in2="BackgroundImageFix" result="effect1_dropShadow_1667_2355"/>
<feBlend mode="normal" in="SourceGraphic" in2="effect1_dropShadow_1667_2355" result="shape"/>
</filter>
<linearGradient id="paint0_linear_1667_2355" x1="219.406" y1="194.884" x2="194.962" y2="170.44" gradientUnits="userSpaceOnUse">
<stop stop-color="#CC0655"/>
<stop offset="1" stop-color="#BE13B8"/>
</linearGradient>
<linearGradient id="paint1_linear_1667_2355" x1="206.556" y1="183.331" x2="182.111" y2="158.886" gradientUnits="userSpaceOnUse">
<stop stop-color="#CC0655"/>
<stop offset="1" stop-color="#BE13B8"/>
</linearGradient>
<linearGradient id="paint2_linear_1667_2355" x1="231.416" y1="206.892" x2="206.972" y2="182.448" gradientUnits="userSpaceOnUse">
<stop stop-color="#CC0655"/>
<stop offset="1" stop-color="#BE13B8"/>
</linearGradient>
</defs>
</svg>
