<svg width="665" height="175" viewBox="0 0 665 175" fill="none" xmlns="http://www.w3.org/2000/svg">
<path d="M0 168.677H132.561C148.209 168.677 163.216 162.461 174.281 151.396L268.219 57.4574C279.284 46.3928 294.291 40.1768 309.939 40.1768H469M664 0.176758L657.029 7.14732C652.529 11.6482 646.424 14.1768 640.059 14.1768H566.87C561.831 14.1768 556.998 16.1785 553.435 19.7417L538.565 34.6118C535.002 38.175 530.169 40.1768 525.13 40.1768H497.065" stroke="#0ECACA" stroke-width="0.5"/>
<path d="M-1 172.677H24.5M541.565 38.6118L548.435 31.7417C551.998 28.1785 556.831 26.1768 561.87 26.1768H619.059M324 44.1768H312.939C297.291 44.1768 282.284 50.3928 271.219 61.4574L249 83.6768M183.5 149.177L177.281 155.396C166.216 166.461 151.209 172.677 135.561 172.677H128.5" stroke="#0ECACA" stroke-width="0.5"/>
<path d="M132.562 168.677C148.209 168.677 163.216 162.461 174.281 151.396" stroke="#0ECACA" stroke-width="3"/>
<path d="M469 40.1768H440" stroke="#0ECACA" stroke-width="3"/>
<path d="M509 40.1768H497" stroke="#0ECACA" stroke-width="3"/>
<path d="M635 14.1768H610" stroke="#0ECACA" stroke-width="3"/>
<path d="M604 14.1768L592 14.1768" stroke="#0ECACA" stroke-width="3"/>
<path d="M30.061 174.177V173.772H29.113V173.436L29.947 172.083H30.436V173.466H30.709V173.772H30.436V174.177H30.061ZM29.437 173.466H30.061V172.467H30.037L29.437 173.466ZM33.0028 174.177L33.7318 172.404H33.0088V172.788H32.6728V172.083H34.1248V172.422L33.4168 174.177H33.0028ZM36.8836 174.213C36.7636 174.213 36.6566 174.194 36.5626 174.156C36.4686 174.116 36.3886 174.061 36.3226 173.991C36.2566 173.919 36.2066 173.833 36.1726 173.733C36.1386 173.631 36.1216 173.517 36.1216 173.391C36.1216 173.241 36.1436 173.1 36.1876 172.968C36.2336 172.834 36.2926 172.712 36.3646 172.602C36.4366 172.49 36.5166 172.391 36.6046 172.305C36.6946 172.217 36.7836 172.143 36.8716 172.083H37.4056C37.2816 172.171 37.1706 172.256 37.0726 172.338C36.9766 172.42 36.8916 172.503 36.8176 172.587C36.7456 172.671 36.6856 172.759 36.6376 172.851C36.5916 172.941 36.5566 173.039 36.5326 173.145L36.5566 173.151C36.5766 173.111 36.5996 173.073 36.6256 173.037C36.6536 172.999 36.6866 172.966 36.7246 172.938C36.7626 172.908 36.8066 172.885 36.8566 172.869C36.9066 172.851 36.9646 172.842 37.0306 172.842C37.1166 172.842 37.1966 172.857 37.2706 172.887C37.3466 172.917 37.4116 172.961 37.4656 173.019C37.5216 173.075 37.5646 173.143 37.5946 173.223C37.6266 173.303 37.6426 173.392 37.6426 173.49C37.6426 173.596 37.6246 173.693 37.5886 173.781C37.5526 173.869 37.5016 173.945 37.4356 174.009C37.3696 174.073 37.2896 174.123 37.1956 174.159C37.1036 174.195 36.9996 174.213 36.8836 174.213ZM36.8836 173.901C36.9936 173.901 37.0796 173.871 37.1416 173.811C37.2056 173.749 37.2376 173.661 37.2376 173.547V173.502C37.2376 173.388 37.2056 173.301 37.1416 173.241C37.0796 173.179 36.9936 173.148 36.8836 173.148C36.7716 173.148 36.6846 173.179 36.6226 173.241C36.5606 173.301 36.5296 173.388 36.5296 173.502V173.547C36.5296 173.661 36.5606 173.749 36.6226 173.811C36.6846 173.871 36.7716 173.901 36.8836 173.901ZM40.3534 174.213C40.2314 174.213 40.1224 174.198 40.0264 174.168C39.9324 174.136 39.8524 174.093 39.7864 174.039C39.7224 173.985 39.6734 173.921 39.6394 173.847C39.6054 173.773 39.5884 173.692 39.5884 173.604C39.5884 173.468 39.6254 173.358 39.6994 173.274C39.7754 173.188 39.8764 173.128 40.0024 173.094V173.07C39.8984 173.032 39.8134 172.973 39.7474 172.893C39.6834 172.813 39.6514 172.712 39.6514 172.59C39.6514 172.51 39.6664 172.437 39.6964 172.371C39.7284 172.305 39.7744 172.248 39.8344 172.2C39.8944 172.152 39.9674 172.115 40.0534 172.089C40.1414 172.061 40.2414 172.047 40.3534 172.047C40.4654 172.047 40.5644 172.061 40.6504 172.089C40.7384 172.115 40.8124 172.152 40.8724 172.2C40.9324 172.248 40.9774 172.305 41.0074 172.371C41.0394 172.437 41.0554 172.51 41.0554 172.59C41.0554 172.712 41.0224 172.813 40.9564 172.893C40.8924 172.973 40.8084 173.032 40.7044 173.07V173.094C40.8304 173.128 40.9304 173.188 41.0044 173.274C41.0804 173.358 41.1184 173.468 41.1184 173.604C41.1184 173.692 41.1014 173.773 41.0674 173.847C41.0334 173.921 40.9834 173.985 40.9174 174.039C40.8534 174.093 40.7734 174.136 40.6774 174.168C40.5834 174.198 40.4754 174.213 40.3534 174.213ZM40.3534 173.904C40.4674 173.904 40.5544 173.878 40.6144 173.826C40.6764 173.774 40.7074 173.701 40.7074 173.607V173.544C40.7074 173.45 40.6764 173.377 40.6144 173.325C40.5544 173.273 40.4674 173.247 40.3534 173.247C40.2394 173.247 40.1514 173.273 40.0894 173.325C40.0294 173.377 39.9994 173.45 39.9994 173.544V173.607C39.9994 173.701 40.0294 173.774 40.0894 173.826C40.1514 173.878 40.2394 173.904 40.3534 173.904ZM40.3534 172.953C40.4594 172.953 40.5404 172.929 40.5964 172.881C40.6524 172.833 40.6804 172.765 40.6804 172.677V172.629C40.6804 172.543 40.6524 172.476 40.5964 172.428C40.5404 172.38 40.4594 172.356 40.3534 172.356C40.2474 172.356 40.1664 172.38 40.1104 172.428C40.0544 172.476 40.0264 172.543 40.0264 172.629V172.677C40.0264 172.765 40.0544 172.833 40.1104 172.881C40.1664 172.929 40.2474 172.953 40.3534 172.953ZM48.6102 174.213C48.4882 174.213 48.3792 174.198 48.2832 174.168C48.1892 174.136 48.1092 174.093 48.0432 174.039C47.9792 173.985 47.9302 173.921 47.8962 173.847C47.8622 173.773 47.8452 173.692 47.8452 173.604C47.8452 173.468 47.8822 173.358 47.9562 173.274C48.0322 173.188 48.1332 173.128 48.2592 173.094V173.07C48.1552 173.032 48.0702 172.973 48.0042 172.893C47.9402 172.813 47.9082 172.712 47.9082 172.59C47.9082 172.51 47.9232 172.437 47.9532 172.371C47.9852 172.305 48.0312 172.248 48.0912 172.2C48.1512 172.152 48.2242 172.115 48.3102 172.089C48.3982 172.061 48.4982 172.047 48.6102 172.047C48.7222 172.047 48.8212 172.061 48.9072 172.089C48.9952 172.115 49.0692 172.152 49.1292 172.2C49.1892 172.248 49.2342 172.305 49.2642 172.371C49.2962 172.437 49.3122 172.51 49.3122 172.59C49.3122 172.712 49.2792 172.813 49.2132 172.893C49.1492 172.973 49.0652 173.032 48.9612 173.07V173.094C49.0872 173.128 49.1872 173.188 49.2612 173.274C49.3372 173.358 49.3752 173.468 49.3752 173.604C49.3752 173.692 49.3582 173.773 49.3242 173.847C49.2902 173.921 49.2402 173.985 49.1742 174.039C49.1102 174.093 49.0302 174.136 48.9342 174.168C48.8402 174.198 48.7322 174.213 48.6102 174.213ZM48.6102 173.904C48.7242 173.904 48.8112 173.878 48.8712 173.826C48.9332 173.774 48.9642 173.701 48.9642 173.607V173.544C48.9642 173.45 48.9332 173.377 48.8712 173.325C48.8112 173.273 48.7242 173.247 48.6102 173.247C48.4962 173.247 48.4082 173.273 48.3462 173.325C48.2862 173.377 48.2562 173.45 48.2562 173.544V173.607C48.2562 173.701 48.2862 173.774 48.3462 173.826C48.4082 173.878 48.4962 173.904 48.6102 173.904ZM48.6102 172.953C48.7162 172.953 48.7972 172.929 48.8532 172.881C48.9092 172.833 48.9372 172.765 48.9372 172.677V172.629C48.9372 172.543 48.9092 172.476 48.8532 172.428C48.7972 172.38 48.7162 172.356 48.6102 172.356C48.5042 172.356 48.4232 172.38 48.3672 172.428C48.3112 172.476 48.2832 172.543 48.2832 172.629V172.677C48.2832 172.765 48.3112 172.833 48.3672 172.881C48.4232 172.929 48.5042 172.953 48.6102 172.953ZM52.8421 172.869C52.8421 173.019 52.8191 173.161 52.7731 173.295C52.7291 173.427 52.6711 173.549 52.5991 173.661C52.5271 173.771 52.4461 173.87 52.3561 173.958C52.2681 174.044 52.1801 174.117 52.0921 174.177H51.5581C51.6801 174.089 51.7901 174.004 51.8881 173.922C51.9861 173.84 52.0711 173.757 52.1431 173.673C52.2171 173.589 52.2771 173.502 52.3231 173.412C52.3711 173.32 52.4071 173.221 52.4311 173.115L52.4071 173.109C52.3871 173.149 52.3631 173.188 52.3351 173.226C52.3091 173.264 52.2771 173.297 52.2391 173.325C52.2011 173.353 52.1571 173.376 52.1071 173.394C52.0571 173.41 51.9991 173.418 51.9331 173.418C51.8451 173.418 51.7641 173.403 51.6901 173.373C51.6161 173.343 51.5511 173.3 51.4951 173.244C51.4411 173.186 51.3981 173.118 51.3661 173.04C51.3361 172.96 51.3211 172.87 51.3211 172.77C51.3211 172.664 51.3391 172.567 51.3751 172.479C51.4111 172.391 51.4621 172.315 51.5281 172.251C51.5941 172.187 51.6731 172.137 51.7651 172.101C51.8591 172.065 51.9641 172.047 52.0801 172.047C52.2001 172.047 52.3071 172.067 52.4011 172.107C52.4951 172.145 52.5751 172.2 52.6411 172.272C52.7071 172.342 52.7571 172.428 52.7911 172.53C52.8251 172.63 52.8421 172.743 52.8421 172.869ZM52.0801 173.112C52.1921 173.112 52.2791 173.082 52.3411 173.022C52.4031 172.96 52.4341 172.872 52.4341 172.758V172.713C52.4341 172.599 52.4031 172.512 52.3411 172.452C52.2791 172.39 52.1921 172.359 52.0801 172.359C51.9701 172.359 51.8831 172.39 51.8191 172.452C51.7571 172.512 51.7261 172.599 51.7261 172.713V172.758C51.7261 172.872 51.7571 172.96 51.8191 173.022C51.8831 173.082 51.9701 173.112 52.0801 173.112ZM55.5769 174.213C55.4569 174.213 55.3499 174.194 55.2559 174.156C55.1619 174.116 55.0819 174.061 55.0159 173.991C54.9499 173.919 54.8999 173.833 54.8659 173.733C54.8319 173.631 54.8149 173.517 54.8149 173.391C54.8149 173.241 54.8369 173.1 54.8809 172.968C54.9269 172.834 54.9859 172.712 55.0579 172.602C55.1299 172.49 55.2099 172.391 55.2979 172.305C55.3879 172.217 55.4769 172.143 55.5649 172.083H56.0989C55.9749 172.171 55.8639 172.256 55.7659 172.338C55.6699 172.42 55.5849 172.503 55.5109 172.587C55.4389 172.671 55.3789 172.759 55.3309 172.851C55.2849 172.941 55.2499 173.039 55.2259 173.145L55.2499 173.151C55.2699 173.111 55.2929 173.073 55.3189 173.037C55.3469 172.999 55.3799 172.966 55.4179 172.938C55.4559 172.908 55.4999 172.885 55.5499 172.869C55.5999 172.851 55.6579 172.842 55.7239 172.842C55.8099 172.842 55.8899 172.857 55.9639 172.887C56.0399 172.917 56.1049 172.961 56.1589 173.019C56.2149 173.075 56.2579 173.143 56.2879 173.223C56.3199 173.303 56.3359 173.392 56.3359 173.49C56.3359 173.596 56.3179 173.693 56.2819 173.781C56.2459 173.869 56.1949 173.945 56.1289 174.009C56.0629 174.073 55.9829 174.123 55.8889 174.159C55.7969 174.195 55.6929 174.213 55.5769 174.213ZM55.5769 173.901C55.6869 173.901 55.7729 173.871 55.8349 173.811C55.8989 173.749 55.9309 173.661 55.9309 173.547V173.502C55.9309 173.388 55.8989 173.301 55.8349 173.241C55.7729 173.179 55.6869 173.148 55.5769 173.148C55.4649 173.148 55.3779 173.179 55.3159 173.241C55.2539 173.301 55.2229 173.388 55.2229 173.502V173.547C55.2229 173.661 55.2539 173.749 55.3159 173.811C55.3779 173.871 55.4649 173.901 55.5769 173.901ZM58.6537 174.177L59.3827 172.404H58.6597V172.788H58.3237V172.083H59.7757V172.422L59.0677 174.177H58.6537ZM63.2635 174.177H61.8115V173.811L62.4685 173.235C62.5805 173.137 62.6625 173.049 62.7145 172.971C62.7665 172.891 62.7925 172.805 62.7925 172.713V172.674C62.7925 172.582 62.7625 172.512 62.7025 172.464C62.6425 172.414 62.5695 172.389 62.4835 172.389C62.3755 172.389 62.2935 172.42 62.2375 172.482C62.1815 172.542 62.1415 172.615 62.1175 172.701L61.7755 172.569C61.7975 172.499 61.8285 172.433 61.8685 172.371C61.9085 172.307 61.9585 172.251 62.0185 172.203C62.0805 172.155 62.1525 172.117 62.2345 172.089C62.3165 172.061 62.4105 172.047 62.5165 172.047C62.6265 172.047 62.7245 172.063 62.8105 172.095C62.8965 172.125 62.9685 172.168 63.0265 172.224C63.0865 172.28 63.1315 172.346 63.1615 172.422C63.1935 172.498 63.2095 172.581 63.2095 172.671C63.2095 172.759 63.1955 172.839 63.1675 172.911C63.1395 172.983 63.1015 173.052 63.0535 173.118C63.0055 173.182 62.9495 173.244 62.8855 173.304C62.8215 173.362 62.7535 173.421 62.6815 173.481L62.2405 173.844H63.2635V174.177ZM66.1484 174.177V173.772H65.2004V173.436L66.0344 172.083H66.5234V173.466H66.7964V173.772H66.5234V174.177H66.1484ZM65.5244 173.466H66.1484V172.467H66.1244L65.5244 173.466ZM69.4832 174.213C69.3612 174.213 69.2522 174.198 69.1562 174.168C69.0622 174.136 68.9822 174.093 68.9162 174.039C68.8522 173.985 68.8032 173.921 68.7692 173.847C68.7352 173.773 68.7182 173.692 68.7182 173.604C68.7182 173.468 68.7552 173.358 68.8292 173.274C68.9052 173.188 69.0062 173.128 69.1322 173.094V173.07C69.0282 173.032 68.9432 172.973 68.8772 172.893C68.8132 172.813 68.7812 172.712 68.7812 172.59C68.7812 172.51 68.7962 172.437 68.8262 172.371C68.8582 172.305 68.9042 172.248 68.9642 172.2C69.0242 172.152 69.0972 172.115 69.1832 172.089C69.2712 172.061 69.3712 172.047 69.4832 172.047C69.5952 172.047 69.6942 172.061 69.7802 172.089C69.8682 172.115 69.9422 172.152 70.0022 172.2C70.0622 172.248 70.1072 172.305 70.1372 172.371C70.1692 172.437 70.1852 172.51 70.1852 172.59C70.1852 172.712 70.1522 172.813 70.0862 172.893C70.0222 172.973 69.9382 173.032 69.8342 173.07V173.094C69.9602 173.128 70.0602 173.188 70.1342 173.274C70.2102 173.358 70.2482 173.468 70.2482 173.604C70.2482 173.692 70.2312 173.773 70.1972 173.847C70.1632 173.921 70.1132 173.985 70.0472 174.039C69.9832 174.093 69.9032 174.136 69.8072 174.168C69.7132 174.198 69.6052 174.213 69.4832 174.213ZM69.4832 173.904C69.5972 173.904 69.6842 173.878 69.7442 173.826C69.8062 173.774 69.8372 173.701 69.8372 173.607V173.544C69.8372 173.45 69.8062 173.377 69.7442 173.325C69.6842 173.273 69.5972 173.247 69.4832 173.247C69.3692 173.247 69.2812 173.273 69.2192 173.325C69.1592 173.377 69.1292 173.45 69.1292 173.544V173.607C69.1292 173.701 69.1592 173.774 69.2192 173.826C69.2812 173.878 69.3692 173.904 69.4832 173.904ZM69.4832 172.953C69.5892 172.953 69.6702 172.929 69.7262 172.881C69.7822 172.833 69.8102 172.765 69.8102 172.677V172.629C69.8102 172.543 69.7822 172.476 69.7262 172.428C69.6702 172.38 69.5892 172.356 69.4832 172.356C69.3772 172.356 69.2962 172.38 69.2402 172.428C69.1842 172.476 69.1562 172.543 69.1562 172.629V172.677C69.1562 172.765 69.1842 172.833 69.2402 172.881C69.2962 172.929 69.3772 172.953 69.4832 172.953ZM77.749 174.213C77.629 174.213 77.522 174.194 77.428 174.156C77.334 174.116 77.254 174.061 77.188 173.991C77.122 173.919 77.072 173.833 77.038 173.733C77.004 173.631 76.987 173.517 76.987 173.391C76.987 173.241 77.009 173.1 77.053 172.968C77.099 172.834 77.158 172.712 77.23 172.602C77.302 172.49 77.382 172.391 77.47 172.305C77.56 172.217 77.649 172.143 77.737 172.083H78.271C78.147 172.171 78.036 172.256 77.938 172.338C77.842 172.42 77.757 172.503 77.683 172.587C77.611 172.671 77.551 172.759 77.503 172.851C77.457 172.941 77.422 173.039 77.398 173.145L77.422 173.151C77.442 173.111 77.465 173.073 77.491 173.037C77.519 172.999 77.552 172.966 77.59 172.938C77.628 172.908 77.672 172.885 77.722 172.869C77.772 172.851 77.83 172.842 77.896 172.842C77.982 172.842 78.062 172.857 78.136 172.887C78.212 172.917 78.277 172.961 78.331 173.019C78.387 173.075 78.43 173.143 78.46 173.223C78.492 173.303 78.508 173.392 78.508 173.49C78.508 173.596 78.49 173.693 78.454 173.781C78.418 173.869 78.367 173.945 78.301 174.009C78.235 174.073 78.155 174.123 78.061 174.159C77.969 174.195 77.865 174.213 77.749 174.213ZM77.749 173.901C77.859 173.901 77.945 173.871 78.007 173.811C78.071 173.749 78.103 173.661 78.103 173.547V173.502C78.103 173.388 78.071 173.301 78.007 173.241C77.945 173.179 77.859 173.148 77.749 173.148C77.637 173.148 77.55 173.179 77.488 173.241C77.426 173.301 77.395 173.388 77.395 173.502V173.547C77.395 173.661 77.426 173.749 77.488 173.811C77.55 173.871 77.637 173.901 77.749 173.901ZM85.9968 174.213C85.8628 174.213 85.7468 174.189 85.6488 174.141C85.5508 174.091 85.4698 174.02 85.4058 173.928C85.3418 173.836 85.2938 173.723 85.2618 173.589C85.2318 173.455 85.2168 173.302 85.2168 173.13C85.2168 172.96 85.2318 172.808 85.2618 172.674C85.2938 172.538 85.3418 172.424 85.4058 172.332C85.4698 172.24 85.5508 172.17 85.6488 172.122C85.7468 172.072 85.8628 172.047 85.9968 172.047C86.2628 172.047 86.4588 172.142 86.5848 172.332C86.7128 172.522 86.7768 172.788 86.7768 173.13C86.7768 173.472 86.7128 173.738 86.5848 173.928C86.4588 174.118 86.2628 174.213 85.9968 174.213ZM85.9968 173.88C86.1308 173.88 86.2238 173.83 86.2758 173.73C86.3298 173.628 86.3568 173.491 86.3568 173.319V172.941C86.3568 172.769 86.3298 172.633 86.2758 172.533C86.2238 172.431 86.1308 172.38 85.9968 172.38C85.8628 172.38 85.7688 172.431 85.7148 172.533C85.6628 172.633 85.6368 172.769 85.6368 172.941V173.319C85.6368 173.491 85.6628 173.628 85.7148 173.73C85.7688 173.83 85.8628 173.88 85.9968 173.88ZM90.2286 172.869C90.2286 173.019 90.2056 173.161 90.1596 173.295C90.1156 173.427 90.0576 173.549 89.9856 173.661C89.9136 173.771 89.8326 173.87 89.7426 173.958C89.6546 174.044 89.5666 174.117 89.4786 174.177H88.9446C89.0666 174.089 89.1766 174.004 89.2746 173.922C89.3726 173.84 89.4576 173.757 89.5296 173.673C89.6036 173.589 89.6636 173.502 89.7096 173.412C89.7576 173.32 89.7936 173.221 89.8176 173.115L89.7936 173.109C89.7736 173.149 89.7496 173.188 89.7216 173.226C89.6956 173.264 89.6636 173.297 89.6256 173.325C89.5876 173.353 89.5436 173.376 89.4936 173.394C89.4436 173.41 89.3856 173.418 89.3196 173.418C89.2316 173.418 89.1506 173.403 89.0766 173.373C89.0026 173.343 88.9376 173.3 88.8816 173.244C88.8276 173.186 88.7846 173.118 88.7526 173.04C88.7226 172.96 88.7076 172.87 88.7076 172.77C88.7076 172.664 88.7256 172.567 88.7616 172.479C88.7976 172.391 88.8486 172.315 88.9146 172.251C88.9806 172.187 89.0596 172.137 89.1516 172.101C89.2456 172.065 89.3506 172.047 89.4666 172.047C89.5866 172.047 89.6936 172.067 89.7876 172.107C89.8816 172.145 89.9616 172.2 90.0276 172.272C90.0936 172.342 90.1436 172.428 90.1776 172.53C90.2116 172.63 90.2286 172.743 90.2286 172.869ZM89.4666 173.112C89.5786 173.112 89.6656 173.082 89.7276 173.022C89.7896 172.96 89.8206 172.872 89.8206 172.758V172.713C89.8206 172.599 89.7896 172.512 89.7276 172.452C89.6656 172.39 89.5786 172.359 89.4666 172.359C89.3566 172.359 89.2696 172.39 89.2056 172.452C89.1436 172.512 89.1126 172.599 89.1126 172.713V172.758C89.1126 172.872 89.1436 172.96 89.2056 173.022C89.2696 173.082 89.3566 173.112 89.4666 173.112ZM92.9545 174.213C92.8325 174.213 92.7235 174.198 92.6275 174.168C92.5335 174.136 92.4535 174.093 92.3875 174.039C92.3235 173.985 92.2745 173.921 92.2405 173.847C92.2065 173.773 92.1895 173.692 92.1895 173.604C92.1895 173.468 92.2265 173.358 92.3005 173.274C92.3765 173.188 92.4775 173.128 92.6035 173.094V173.07C92.4995 173.032 92.4145 172.973 92.3485 172.893C92.2845 172.813 92.2525 172.712 92.2525 172.59C92.2525 172.51 92.2675 172.437 92.2975 172.371C92.3295 172.305 92.3755 172.248 92.4355 172.2C92.4955 172.152 92.5685 172.115 92.6545 172.089C92.7425 172.061 92.8425 172.047 92.9545 172.047C93.0665 172.047 93.1655 172.061 93.2515 172.089C93.3395 172.115 93.4135 172.152 93.4735 172.2C93.5335 172.248 93.5785 172.305 93.6085 172.371C93.6405 172.437 93.6565 172.51 93.6565 172.59C93.6565 172.712 93.6235 172.813 93.5575 172.893C93.4935 172.973 93.4095 173.032 93.3055 173.07V173.094C93.4315 173.128 93.5315 173.188 93.6055 173.274C93.6815 173.358 93.7195 173.468 93.7195 173.604C93.7195 173.692 93.7025 173.773 93.6685 173.847C93.6345 173.921 93.5845 173.985 93.5185 174.039C93.4545 174.093 93.3745 174.136 93.2785 174.168C93.1845 174.198 93.0765 174.213 92.9545 174.213ZM92.9545 173.904C93.0685 173.904 93.1555 173.878 93.2155 173.826C93.2775 173.774 93.3085 173.701 93.3085 173.607V173.544C93.3085 173.45 93.2775 173.377 93.2155 173.325C93.1555 173.273 93.0685 173.247 92.9545 173.247C92.8405 173.247 92.7525 173.273 92.6905 173.325C92.6305 173.377 92.6005 173.45 92.6005 173.544V173.607C92.6005 173.701 92.6305 173.774 92.6905 173.826C92.7525 173.878 92.8405 173.904 92.9545 173.904ZM92.9545 172.953C93.0605 172.953 93.1415 172.929 93.1975 172.881C93.2535 172.833 93.2815 172.765 93.2815 172.677V172.629C93.2815 172.543 93.2535 172.476 93.1975 172.428C93.1415 172.38 93.0605 172.356 92.9545 172.356C92.8485 172.356 92.7675 172.38 92.7115 172.428C92.6555 172.476 92.6275 172.543 92.6275 172.629V172.677C92.6275 172.765 92.6555 172.833 92.7115 172.881C92.7675 172.929 92.8485 172.953 92.9545 172.953ZM97.1713 174.177H95.7193V173.811L96.3763 173.235C96.4883 173.137 96.5703 173.049 96.6223 172.971C96.6743 172.891 96.7003 172.805 96.7003 172.713V172.674C96.7003 172.582 96.6703 172.512 96.6103 172.464C96.5503 172.414 96.4773 172.389 96.3913 172.389C96.2833 172.389 96.2013 172.42 96.1453 172.482C96.0893 172.542 96.0493 172.615 96.0253 172.701L95.6833 172.569C95.7053 172.499 95.7363 172.433 95.7763 172.371C95.8163 172.307 95.8663 172.251 95.9263 172.203C95.9883 172.155 96.0603 172.117 96.1423 172.089C96.2243 172.061 96.3183 172.047 96.4243 172.047C96.5343 172.047 96.6323 172.063 96.7183 172.095C96.8043 172.125 96.8763 172.168 96.9343 172.224C96.9943 172.28 97.0393 172.346 97.0693 172.422C97.1013 172.498 97.1173 172.581 97.1173 172.671C97.1173 172.759 97.1033 172.839 97.0753 172.911C97.0473 172.983 97.0093 173.052 96.9613 173.118C96.9133 173.182 96.8573 173.244 96.7933 173.304C96.7293 173.362 96.6613 173.421 96.5893 173.481L96.1483 173.844H97.1713V174.177ZM102.187 172.929C102.307 172.929 102.395 172.905 102.451 172.857C102.509 172.807 102.538 172.744 102.538 172.668V172.647C102.538 172.561 102.51 172.494 102.454 172.446C102.4 172.396 102.325 172.371 102.229 172.371C102.137 172.371 102.055 172.393 101.983 172.437C101.913 172.481 101.852 172.543 101.8 172.623L101.548 172.395C101.584 172.347 101.623 172.302 101.665 172.26C101.709 172.216 101.759 172.179 101.815 172.149C101.871 172.117 101.934 172.092 102.004 172.074C102.074 172.056 102.153 172.047 102.241 172.047C102.347 172.047 102.443 172.06 102.529 172.086C102.617 172.11 102.692 172.146 102.754 172.194C102.818 172.242 102.867 172.3 102.901 172.368C102.935 172.434 102.952 172.509 102.952 172.593C102.952 172.661 102.941 172.722 102.919 172.776C102.899 172.83 102.87 172.877 102.832 172.917C102.796 172.957 102.753 172.99 102.703 173.016C102.655 173.04 102.604 173.058 102.55 173.07V173.088C102.61 173.1 102.667 173.119 102.721 173.145C102.775 173.171 102.821 173.206 102.859 173.25C102.899 173.292 102.93 173.342 102.952 173.4C102.976 173.458 102.988 173.524 102.988 173.598C102.988 173.69 102.969 173.774 102.931 173.85C102.895 173.926 102.843 173.991 102.775 174.045C102.707 174.099 102.626 174.141 102.532 174.171C102.438 174.199 102.333 174.213 102.217 174.213C102.115 174.213 102.025 174.202 101.947 174.18C101.869 174.16 101.8 174.132 101.74 174.096C101.682 174.06 101.631 174.019 101.587 173.973C101.543 173.925 101.505 173.875 101.473 173.823L101.764 173.601C101.788 173.643 101.814 173.682 101.842 173.718C101.87 173.752 101.902 173.782 101.938 173.808C101.974 173.834 102.015 173.854 102.061 173.868C102.107 173.882 102.159 173.889 102.217 173.889C102.333 173.889 102.422 173.861 102.484 173.805C102.546 173.749 102.577 173.672 102.577 173.574V173.553C102.577 173.457 102.543 173.384 102.475 173.334C102.409 173.284 102.313 173.259 102.187 173.259H101.98V172.929H102.187ZM105.924 174.177V173.772H104.976V173.436L105.81 172.083H106.299V173.466H106.572V173.772H106.299V174.177H105.924ZM105.3 173.466H105.924V172.467H105.9L105.3 173.466ZM110.012 172.869C110.012 173.019 109.989 173.161 109.943 173.295C109.899 173.427 109.841 173.549 109.769 173.661C109.697 173.771 109.616 173.87 109.526 173.958C109.438 174.044 109.35 174.117 109.262 174.177H108.728C108.85 174.089 108.96 174.004 109.058 173.922C109.156 173.84 109.241 173.757 109.313 173.673C109.387 173.589 109.447 173.502 109.493 173.412C109.541 173.32 109.577 173.221 109.601 173.115L109.577 173.109C109.557 173.149 109.533 173.188 109.505 173.226C109.479 173.264 109.447 173.297 109.409 173.325C109.371 173.353 109.327 173.376 109.277 173.394C109.227 173.41 109.169 173.418 109.103 173.418C109.015 173.418 108.934 173.403 108.86 173.373C108.786 173.343 108.721 173.3 108.665 173.244C108.611 173.186 108.568 173.118 108.536 173.04C108.506 172.96 108.491 172.87 108.491 172.77C108.491 172.664 108.509 172.567 108.545 172.479C108.581 172.391 108.632 172.315 108.698 172.251C108.764 172.187 108.843 172.137 108.935 172.101C109.029 172.065 109.134 172.047 109.25 172.047C109.37 172.047 109.477 172.067 109.571 172.107C109.665 172.145 109.745 172.2 109.811 172.272C109.877 172.342 109.927 172.428 109.961 172.53C109.995 172.63 110.012 172.743 110.012 172.869ZM109.25 173.112C109.362 173.112 109.449 173.082 109.511 173.022C109.573 172.96 109.604 172.872 109.604 172.758V172.713C109.604 172.599 109.573 172.512 109.511 172.452C109.449 172.39 109.362 172.359 109.25 172.359C109.14 172.359 109.053 172.39 108.989 172.452C108.927 172.512 108.896 172.599 108.896 172.713V172.758C108.896 172.872 108.927 172.96 108.989 173.022C109.053 173.082 109.14 173.112 109.25 173.112ZM113.383 172.425H112.441L112.393 173.127H112.414C112.436 173.083 112.46 173.042 112.486 173.004C112.512 172.966 112.542 172.934 112.576 172.908C112.61 172.882 112.649 172.862 112.693 172.848C112.739 172.832 112.794 172.824 112.858 172.824C112.948 172.824 113.032 172.839 113.11 172.869C113.188 172.899 113.255 172.943 113.311 173.001C113.369 173.057 113.414 173.126 113.446 173.208C113.48 173.29 113.497 173.383 113.497 173.487C113.497 173.593 113.48 173.69 113.446 173.778C113.412 173.866 113.362 173.943 113.296 174.009C113.23 174.073 113.149 174.123 113.053 174.159C112.957 174.195 112.847 174.213 112.723 174.213C112.627 174.213 112.541 174.202 112.465 174.18C112.389 174.16 112.322 174.132 112.264 174.096C112.206 174.06 112.156 174.019 112.114 173.973C112.072 173.925 112.035 173.875 112.003 173.823L112.291 173.601C112.315 173.641 112.34 173.679 112.366 173.715C112.392 173.749 112.422 173.779 112.456 173.805C112.492 173.831 112.531 173.852 112.573 173.868C112.617 173.882 112.668 173.889 112.726 173.889C112.844 173.889 112.933 173.856 112.993 173.79C113.055 173.724 113.086 173.634 113.086 173.52V173.496C113.086 173.388 113.055 173.303 112.993 173.241C112.931 173.179 112.845 173.148 112.735 173.148C112.649 173.148 112.579 173.165 112.525 173.199C112.471 173.231 112.428 173.266 112.396 173.304L112.072 173.259L112.15 172.083H113.383V172.425ZM118.749 174.177V173.772H117.801V173.436L118.635 172.083H119.124V173.466H119.397V173.772H119.124V174.177H118.749ZM118.125 173.466H118.749V172.467H118.725L118.125 173.466ZM122.228 174.177V173.772H121.28V173.436L122.114 172.083H122.603V173.466H122.876V173.772H122.603V174.177H122.228ZM121.604 173.466H122.228V172.467H122.204L121.604 173.466Z" fill="#0ECACA"/>
<path d="M333.061 45.1768V44.7718H332.113V44.4358L332.947 43.0828H333.436V44.4658H333.709V44.7718H333.436V45.1768H333.061ZM332.437 44.4658H333.061V43.4668H333.037L332.437 44.4658ZM336.003 45.1768L336.732 43.4038H336.009V43.7878H335.673V43.0828H337.125V43.4218L336.417 45.1768H336.003ZM339.884 45.2128C339.764 45.2128 339.657 45.1938 339.563 45.1558C339.469 45.1158 339.389 45.0608 339.323 44.9908C339.257 44.9188 339.207 44.8328 339.173 44.7328C339.139 44.6308 339.122 44.5168 339.122 44.3908C339.122 44.2408 339.144 44.0998 339.188 43.9678C339.234 43.8338 339.293 43.7118 339.365 43.6018C339.437 43.4898 339.517 43.3908 339.605 43.3048C339.695 43.2168 339.784 43.1428 339.872 43.0828H340.406C340.282 43.1708 340.171 43.2558 340.073 43.3378C339.977 43.4198 339.892 43.5028 339.818 43.5868C339.746 43.6708 339.686 43.7588 339.638 43.8508C339.592 43.9408 339.557 44.0388 339.533 44.1448L339.557 44.1508C339.577 44.1108 339.6 44.0728 339.626 44.0368C339.654 43.9988 339.687 43.9658 339.725 43.9378C339.763 43.9078 339.807 43.8848 339.857 43.8688C339.907 43.8508 339.965 43.8418 340.031 43.8418C340.117 43.8418 340.197 43.8568 340.271 43.8868C340.347 43.9168 340.412 43.9608 340.466 44.0188C340.522 44.0748 340.565 44.1428 340.595 44.2228C340.627 44.3028 340.643 44.3918 340.643 44.4898C340.643 44.5958 340.625 44.6928 340.589 44.7808C340.553 44.8688 340.502 44.9448 340.436 45.0088C340.37 45.0728 340.29 45.1228 340.196 45.1588C340.104 45.1948 340 45.2128 339.884 45.2128ZM339.884 44.9008C339.994 44.9008 340.08 44.8708 340.142 44.8108C340.206 44.7488 340.238 44.6608 340.238 44.5468V44.5018C340.238 44.3878 340.206 44.3008 340.142 44.2408C340.08 44.1788 339.994 44.1478 339.884 44.1478C339.772 44.1478 339.685 44.1788 339.623 44.2408C339.561 44.3008 339.53 44.3878 339.53 44.5018V44.5468C339.53 44.6608 339.561 44.7488 339.623 44.8108C339.685 44.8708 339.772 44.9008 339.884 44.9008ZM343.353 45.2128C343.231 45.2128 343.122 45.1978 343.026 45.1678C342.932 45.1358 342.852 45.0928 342.786 45.0388C342.722 44.9848 342.673 44.9208 342.639 44.8468C342.605 44.7728 342.588 44.6918 342.588 44.6038C342.588 44.4678 342.625 44.3578 342.699 44.2738C342.775 44.1878 342.876 44.1278 343.002 44.0938V44.0698C342.898 44.0318 342.813 43.9728 342.747 43.8928C342.683 43.8128 342.651 43.7118 342.651 43.5898C342.651 43.5098 342.666 43.4368 342.696 43.3708C342.728 43.3048 342.774 43.2478 342.834 43.1998C342.894 43.1518 342.967 43.1148 343.053 43.0888C343.141 43.0608 343.241 43.0468 343.353 43.0468C343.465 43.0468 343.564 43.0608 343.65 43.0888C343.738 43.1148 343.812 43.1518 343.872 43.1998C343.932 43.2478 343.977 43.3048 344.007 43.3708C344.039 43.4368 344.055 43.5098 344.055 43.5898C344.055 43.7118 344.022 43.8128 343.956 43.8928C343.892 43.9728 343.808 44.0318 343.704 44.0698V44.0938C343.83 44.1278 343.93 44.1878 344.004 44.2738C344.08 44.3578 344.118 44.4678 344.118 44.6038C344.118 44.6918 344.101 44.7728 344.067 44.8468C344.033 44.9208 343.983 44.9848 343.917 45.0388C343.853 45.0928 343.773 45.1358 343.677 45.1678C343.583 45.1978 343.475 45.2128 343.353 45.2128ZM343.353 44.9038C343.467 44.9038 343.554 44.8778 343.614 44.8258C343.676 44.7738 343.707 44.7008 343.707 44.6068V44.5438C343.707 44.4498 343.676 44.3768 343.614 44.3248C343.554 44.2728 343.467 44.2468 343.353 44.2468C343.239 44.2468 343.151 44.2728 343.089 44.3248C343.029 44.3768 342.999 44.4498 342.999 44.5438V44.6068C342.999 44.7008 343.029 44.7738 343.089 44.8258C343.151 44.8778 343.239 44.9038 343.353 44.9038ZM343.353 43.9528C343.459 43.9528 343.54 43.9288 343.596 43.8808C343.652 43.8328 343.68 43.7648 343.68 43.6768V43.6288C343.68 43.5428 343.652 43.4758 343.596 43.4278C343.54 43.3798 343.459 43.3558 343.353 43.3558C343.247 43.3558 343.166 43.3798 343.11 43.4278C343.054 43.4758 343.026 43.5428 343.026 43.6288V43.6768C343.026 43.7648 343.054 43.8328 343.11 43.8808C343.166 43.9288 343.247 43.9528 343.353 43.9528ZM351.61 45.2128C351.488 45.2128 351.379 45.1978 351.283 45.1678C351.189 45.1358 351.109 45.0928 351.043 45.0388C350.979 44.9848 350.93 44.9208 350.896 44.8468C350.862 44.7728 350.845 44.6918 350.845 44.6038C350.845 44.4678 350.882 44.3578 350.956 44.2738C351.032 44.1878 351.133 44.1278 351.259 44.0938V44.0698C351.155 44.0318 351.07 43.9728 351.004 43.8928C350.94 43.8128 350.908 43.7118 350.908 43.5898C350.908 43.5098 350.923 43.4368 350.953 43.3708C350.985 43.3048 351.031 43.2478 351.091 43.1998C351.151 43.1518 351.224 43.1148 351.31 43.0888C351.398 43.0608 351.498 43.0468 351.61 43.0468C351.722 43.0468 351.821 43.0608 351.907 43.0888C351.995 43.1148 352.069 43.1518 352.129 43.1998C352.189 43.2478 352.234 43.3048 352.264 43.3708C352.296 43.4368 352.312 43.5098 352.312 43.5898C352.312 43.7118 352.279 43.8128 352.213 43.8928C352.149 43.9728 352.065 44.0318 351.961 44.0698V44.0938C352.087 44.1278 352.187 44.1878 352.261 44.2738C352.337 44.3578 352.375 44.4678 352.375 44.6038C352.375 44.6918 352.358 44.7728 352.324 44.8468C352.29 44.9208 352.24 44.9848 352.174 45.0388C352.11 45.0928 352.03 45.1358 351.934 45.1678C351.84 45.1978 351.732 45.2128 351.61 45.2128ZM351.61 44.9038C351.724 44.9038 351.811 44.8778 351.871 44.8258C351.933 44.7738 351.964 44.7008 351.964 44.6068V44.5438C351.964 44.4498 351.933 44.3768 351.871 44.3248C351.811 44.2728 351.724 44.2468 351.61 44.2468C351.496 44.2468 351.408 44.2728 351.346 44.3248C351.286 44.3768 351.256 44.4498 351.256 44.5438V44.6068C351.256 44.7008 351.286 44.7738 351.346 44.8258C351.408 44.8778 351.496 44.9038 351.61 44.9038ZM351.61 43.9528C351.716 43.9528 351.797 43.9288 351.853 43.8808C351.909 43.8328 351.937 43.7648 351.937 43.6768V43.6288C351.937 43.5428 351.909 43.4758 351.853 43.4278C351.797 43.3798 351.716 43.3558 351.61 43.3558C351.504 43.3558 351.423 43.3798 351.367 43.4278C351.311 43.4758 351.283 43.5428 351.283 43.6288V43.6768C351.283 43.7648 351.311 43.8328 351.367 43.8808C351.423 43.9288 351.504 43.9528 351.61 43.9528ZM355.842 43.8688C355.842 44.0188 355.819 44.1608 355.773 44.2948C355.729 44.4268 355.671 44.5488 355.599 44.6608C355.527 44.7708 355.446 44.8698 355.356 44.9578C355.268 45.0438 355.18 45.1168 355.092 45.1768H354.558C354.68 45.0888 354.79 45.0038 354.888 44.9218C354.986 44.8398 355.071 44.7568 355.143 44.6728C355.217 44.5888 355.277 44.5018 355.323 44.4118C355.371 44.3198 355.407 44.2208 355.431 44.1148L355.407 44.1088C355.387 44.1488 355.363 44.1878 355.335 44.2258C355.309 44.2638 355.277 44.2968 355.239 44.3248C355.201 44.3528 355.157 44.3758 355.107 44.3938C355.057 44.4098 354.999 44.4178 354.933 44.4178C354.845 44.4178 354.764 44.4028 354.69 44.3728C354.616 44.3428 354.551 44.2998 354.495 44.2438C354.441 44.1858 354.398 44.1178 354.366 44.0398C354.336 43.9598 354.321 43.8698 354.321 43.7698C354.321 43.6638 354.339 43.5668 354.375 43.4788C354.411 43.3908 354.462 43.3148 354.528 43.2508C354.594 43.1868 354.673 43.1368 354.765 43.1008C354.859 43.0648 354.964 43.0468 355.08 43.0468C355.2 43.0468 355.307 43.0668 355.401 43.1068C355.495 43.1448 355.575 43.1998 355.641 43.2718C355.707 43.3418 355.757 43.4278 355.791 43.5298C355.825 43.6298 355.842 43.7428 355.842 43.8688ZM355.08 44.1118C355.192 44.1118 355.279 44.0818 355.341 44.0218C355.403 43.9598 355.434 43.8718 355.434 43.7578V43.7128C355.434 43.5988 355.403 43.5118 355.341 43.4518C355.279 43.3898 355.192 43.3588 355.08 43.3588C354.97 43.3588 354.883 43.3898 354.819 43.4518C354.757 43.5118 354.726 43.5988 354.726 43.7128V43.7578C354.726 43.8718 354.757 43.9598 354.819 44.0218C354.883 44.0818 354.97 44.1118 355.08 44.1118ZM358.577 45.2128C358.457 45.2128 358.35 45.1938 358.256 45.1558C358.162 45.1158 358.082 45.0608 358.016 44.9908C357.95 44.9188 357.9 44.8328 357.866 44.7328C357.832 44.6308 357.815 44.5168 357.815 44.3908C357.815 44.2408 357.837 44.0998 357.881 43.9678C357.927 43.8338 357.986 43.7118 358.058 43.6018C358.13 43.4898 358.21 43.3908 358.298 43.3048C358.388 43.2168 358.477 43.1428 358.565 43.0828H359.099C358.975 43.1708 358.864 43.2558 358.766 43.3378C358.67 43.4198 358.585 43.5028 358.511 43.5868C358.439 43.6708 358.379 43.7588 358.331 43.8508C358.285 43.9408 358.25 44.0388 358.226 44.1448L358.25 44.1508C358.27 44.1108 358.293 44.0728 358.319 44.0368C358.347 43.9988 358.38 43.9658 358.418 43.9378C358.456 43.9078 358.5 43.8848 358.55 43.8688C358.6 43.8508 358.658 43.8418 358.724 43.8418C358.81 43.8418 358.89 43.8568 358.964 43.8868C359.04 43.9168 359.105 43.9608 359.159 44.0188C359.215 44.0748 359.258 44.1428 359.288 44.2228C359.32 44.3028 359.336 44.3918 359.336 44.4898C359.336 44.5958 359.318 44.6928 359.282 44.7808C359.246 44.8688 359.195 44.9448 359.129 45.0088C359.063 45.0728 358.983 45.1228 358.889 45.1588C358.797 45.1948 358.693 45.2128 358.577 45.2128ZM358.577 44.9008C358.687 44.9008 358.773 44.8708 358.835 44.8108C358.899 44.7488 358.931 44.6608 358.931 44.5468V44.5018C358.931 44.3878 358.899 44.3008 358.835 44.2408C358.773 44.1788 358.687 44.1478 358.577 44.1478C358.465 44.1478 358.378 44.1788 358.316 44.2408C358.254 44.3008 358.223 44.3878 358.223 44.5018V44.5468C358.223 44.6608 358.254 44.7488 358.316 44.8108C358.378 44.8708 358.465 44.9008 358.577 44.9008ZM361.654 45.1768L362.383 43.4038H361.66V43.7878H361.324V43.0828H362.776V43.4218L362.068 45.1768H361.654ZM366.264 45.1768H364.812V44.8108L365.469 44.2348C365.581 44.1368 365.663 44.0488 365.715 43.9708C365.767 43.8908 365.793 43.8048 365.793 43.7128V43.6738C365.793 43.5818 365.763 43.5118 365.703 43.4638C365.643 43.4138 365.57 43.3888 365.484 43.3888C365.376 43.3888 365.294 43.4198 365.238 43.4818C365.182 43.5418 365.142 43.6148 365.118 43.7008L364.776 43.5688C364.798 43.4988 364.829 43.4328 364.869 43.3708C364.909 43.3068 364.959 43.2508 365.019 43.2028C365.081 43.1548 365.153 43.1168 365.235 43.0888C365.317 43.0608 365.411 43.0468 365.517 43.0468C365.627 43.0468 365.725 43.0628 365.811 43.0948C365.897 43.1248 365.969 43.1678 366.027 43.2238C366.087 43.2798 366.132 43.3458 366.162 43.4218C366.194 43.4978 366.21 43.5808 366.21 43.6708C366.21 43.7588 366.196 43.8388 366.168 43.9108C366.14 43.9828 366.102 44.0518 366.054 44.1178C366.006 44.1818 365.95 44.2438 365.886 44.3038C365.822 44.3618 365.754 44.4208 365.682 44.4808L365.241 44.8438H366.264V45.1768ZM369.148 45.1768V44.7718H368.2V44.4358L369.034 43.0828H369.523V44.4658H369.796V44.7718H369.523V45.1768H369.148ZM368.524 44.4658H369.148V43.4668H369.124L368.524 44.4658ZM372.483 45.2128C372.361 45.2128 372.252 45.1978 372.156 45.1678C372.062 45.1358 371.982 45.0928 371.916 45.0388C371.852 44.9848 371.803 44.9208 371.769 44.8468C371.735 44.7728 371.718 44.6918 371.718 44.6038C371.718 44.4678 371.755 44.3578 371.829 44.2738C371.905 44.1878 372.006 44.1278 372.132 44.0938V44.0698C372.028 44.0318 371.943 43.9728 371.877 43.8928C371.813 43.8128 371.781 43.7118 371.781 43.5898C371.781 43.5098 371.796 43.4368 371.826 43.3708C371.858 43.3048 371.904 43.2478 371.964 43.1998C372.024 43.1518 372.097 43.1148 372.183 43.0888C372.271 43.0608 372.371 43.0468 372.483 43.0468C372.595 43.0468 372.694 43.0608 372.78 43.0888C372.868 43.1148 372.942 43.1518 373.002 43.1998C373.062 43.2478 373.107 43.3048 373.137 43.3708C373.169 43.4368 373.185 43.5098 373.185 43.5898C373.185 43.7118 373.152 43.8128 373.086 43.8928C373.022 43.9728 372.938 44.0318 372.834 44.0698V44.0938C372.96 44.1278 373.06 44.1878 373.134 44.2738C373.21 44.3578 373.248 44.4678 373.248 44.6038C373.248 44.6918 373.231 44.7728 373.197 44.8468C373.163 44.9208 373.113 44.9848 373.047 45.0388C372.983 45.0928 372.903 45.1358 372.807 45.1678C372.713 45.1978 372.605 45.2128 372.483 45.2128ZM372.483 44.9038C372.597 44.9038 372.684 44.8778 372.744 44.8258C372.806 44.7738 372.837 44.7008 372.837 44.6068V44.5438C372.837 44.4498 372.806 44.3768 372.744 44.3248C372.684 44.2728 372.597 44.2468 372.483 44.2468C372.369 44.2468 372.281 44.2728 372.219 44.3248C372.159 44.3768 372.129 44.4498 372.129 44.5438V44.6068C372.129 44.7008 372.159 44.7738 372.219 44.8258C372.281 44.8778 372.369 44.9038 372.483 44.9038ZM372.483 43.9528C372.589 43.9528 372.67 43.9288 372.726 43.8808C372.782 43.8328 372.81 43.7648 372.81 43.6768V43.6288C372.81 43.5428 372.782 43.4758 372.726 43.4278C372.67 43.3798 372.589 43.3558 372.483 43.3558C372.377 43.3558 372.296 43.3798 372.24 43.4278C372.184 43.4758 372.156 43.5428 372.156 43.6288V43.6768C372.156 43.7648 372.184 43.8328 372.24 43.8808C372.296 43.9288 372.377 43.9528 372.483 43.9528ZM380.749 45.2128C380.629 45.2128 380.522 45.1938 380.428 45.1558C380.334 45.1158 380.254 45.0608 380.188 44.9908C380.122 44.9188 380.072 44.8328 380.038 44.7328C380.004 44.6308 379.987 44.5168 379.987 44.3908C379.987 44.2408 380.009 44.0998 380.053 43.9678C380.099 43.8338 380.158 43.7118 380.23 43.6018C380.302 43.4898 380.382 43.3908 380.47 43.3048C380.56 43.2168 380.649 43.1428 380.737 43.0828H381.271C381.147 43.1708 381.036 43.2558 380.938 43.3378C380.842 43.4198 380.757 43.5028 380.683 43.5868C380.611 43.6708 380.551 43.7588 380.503 43.8508C380.457 43.9408 380.422 44.0388 380.398 44.1448L380.422 44.1508C380.442 44.1108 380.465 44.0728 380.491 44.0368C380.519 43.9988 380.552 43.9658 380.59 43.9378C380.628 43.9078 380.672 43.8848 380.722 43.8688C380.772 43.8508 380.83 43.8418 380.896 43.8418C380.982 43.8418 381.062 43.8568 381.136 43.8868C381.212 43.9168 381.277 43.9608 381.331 44.0188C381.387 44.0748 381.43 44.1428 381.46 44.2228C381.492 44.3028 381.508 44.3918 381.508 44.4898C381.508 44.5958 381.49 44.6928 381.454 44.7808C381.418 44.8688 381.367 44.9448 381.301 45.0088C381.235 45.0728 381.155 45.1228 381.061 45.1588C380.969 45.1948 380.865 45.2128 380.749 45.2128ZM380.749 44.9008C380.859 44.9008 380.945 44.8708 381.007 44.8108C381.071 44.7488 381.103 44.6608 381.103 44.5468V44.5018C381.103 44.3878 381.071 44.3008 381.007 44.2408C380.945 44.1788 380.859 44.1478 380.749 44.1478C380.637 44.1478 380.55 44.1788 380.488 44.2408C380.426 44.3008 380.395 44.3878 380.395 44.5018V44.5468C380.395 44.6608 380.426 44.7488 380.488 44.8108C380.55 44.8708 380.637 44.9008 380.749 44.9008ZM388.997 45.2128C388.863 45.2128 388.747 45.1888 388.649 45.1408C388.551 45.0908 388.47 45.0198 388.406 44.9278C388.342 44.8358 388.294 44.7228 388.262 44.5888C388.232 44.4548 388.217 44.3018 388.217 44.1298C388.217 43.9598 388.232 43.8078 388.262 43.6738C388.294 43.5378 388.342 43.4238 388.406 43.3318C388.47 43.2398 388.551 43.1698 388.649 43.1218C388.747 43.0718 388.863 43.0468 388.997 43.0468C389.263 43.0468 389.459 43.1418 389.585 43.3318C389.713 43.5218 389.777 43.7878 389.777 44.1298C389.777 44.4718 389.713 44.7378 389.585 44.9278C389.459 45.1178 389.263 45.2128 388.997 45.2128ZM388.997 44.8798C389.131 44.8798 389.224 44.8298 389.276 44.7298C389.33 44.6278 389.357 44.4908 389.357 44.3188V43.9408C389.357 43.7688 389.33 43.6328 389.276 43.5328C389.224 43.4308 389.131 43.3798 388.997 43.3798C388.863 43.3798 388.769 43.4308 388.715 43.5328C388.663 43.6328 388.637 43.7688 388.637 43.9408V44.3188C388.637 44.4908 388.663 44.6278 388.715 44.7298C388.769 44.8298 388.863 44.8798 388.997 44.8798ZM393.229 43.8688C393.229 44.0188 393.206 44.1608 393.16 44.2948C393.116 44.4268 393.058 44.5488 392.986 44.6608C392.914 44.7708 392.833 44.8698 392.743 44.9578C392.655 45.0438 392.567 45.1168 392.479 45.1768H391.945C392.067 45.0888 392.177 45.0038 392.275 44.9218C392.373 44.8398 392.458 44.7568 392.53 44.6728C392.604 44.5888 392.664 44.5018 392.71 44.4118C392.758 44.3198 392.794 44.2208 392.818 44.1148L392.794 44.1088C392.774 44.1488 392.75 44.1878 392.722 44.2258C392.696 44.2638 392.664 44.2968 392.626 44.3248C392.588 44.3528 392.544 44.3758 392.494 44.3938C392.444 44.4098 392.386 44.4178 392.32 44.4178C392.232 44.4178 392.151 44.4028 392.077 44.3728C392.003 44.3428 391.938 44.2998 391.882 44.2438C391.828 44.1858 391.785 44.1178 391.753 44.0398C391.723 43.9598 391.708 43.8698 391.708 43.7698C391.708 43.6638 391.726 43.5668 391.762 43.4788C391.798 43.3908 391.849 43.3148 391.915 43.2508C391.981 43.1868 392.06 43.1368 392.152 43.1008C392.246 43.0648 392.351 43.0468 392.467 43.0468C392.587 43.0468 392.694 43.0668 392.788 43.1068C392.882 43.1448 392.962 43.1998 393.028 43.2718C393.094 43.3418 393.144 43.4278 393.178 43.5298C393.212 43.6298 393.229 43.7428 393.229 43.8688ZM392.467 44.1118C392.579 44.1118 392.666 44.0818 392.728 44.0218C392.79 43.9598 392.821 43.8718 392.821 43.7578V43.7128C392.821 43.5988 392.79 43.5118 392.728 43.4518C392.666 43.3898 392.579 43.3588 392.467 43.3588C392.357 43.3588 392.27 43.3898 392.206 43.4518C392.144 43.5118 392.113 43.5988 392.113 43.7128V43.7578C392.113 43.8718 392.144 43.9598 392.206 44.0218C392.27 44.0818 392.357 44.1118 392.467 44.1118ZM395.954 45.2128C395.832 45.2128 395.723 45.1978 395.627 45.1678C395.533 45.1358 395.453 45.0928 395.387 45.0388C395.323 44.9848 395.274 44.9208 395.24 44.8468C395.206 44.7728 395.189 44.6918 395.189 44.6038C395.189 44.4678 395.226 44.3578 395.3 44.2738C395.376 44.1878 395.477 44.1278 395.603 44.0938V44.0698C395.499 44.0318 395.414 43.9728 395.348 43.8928C395.284 43.8128 395.252 43.7118 395.252 43.5898C395.252 43.5098 395.267 43.4368 395.297 43.3708C395.329 43.3048 395.375 43.2478 395.435 43.1998C395.495 43.1518 395.568 43.1148 395.654 43.0888C395.742 43.0608 395.842 43.0468 395.954 43.0468C396.066 43.0468 396.165 43.0608 396.251 43.0888C396.339 43.1148 396.413 43.1518 396.473 43.1998C396.533 43.2478 396.578 43.3048 396.608 43.3708C396.64 43.4368 396.656 43.5098 396.656 43.5898C396.656 43.7118 396.623 43.8128 396.557 43.8928C396.493 43.9728 396.409 44.0318 396.305 44.0698V44.0938C396.431 44.1278 396.531 44.1878 396.605 44.2738C396.681 44.3578 396.719 44.4678 396.719 44.6038C396.719 44.6918 396.702 44.7728 396.668 44.8468C396.634 44.9208 396.584 44.9848 396.518 45.0388C396.454 45.0928 396.374 45.1358 396.278 45.1678C396.184 45.1978 396.076 45.2128 395.954 45.2128ZM395.954 44.9038C396.068 44.9038 396.155 44.8778 396.215 44.8258C396.277 44.7738 396.308 44.7008 396.308 44.6068V44.5438C396.308 44.4498 396.277 44.3768 396.215 44.3248C396.155 44.2728 396.068 44.2468 395.954 44.2468C395.84 44.2468 395.752 44.2728 395.69 44.3248C395.63 44.3768 395.6 44.4498 395.6 44.5438V44.6068C395.6 44.7008 395.63 44.7738 395.69 44.8258C395.752 44.8778 395.84 44.9038 395.954 44.9038ZM395.954 43.9528C396.06 43.9528 396.141 43.9288 396.197 43.8808C396.253 43.8328 396.281 43.7648 396.281 43.6768V43.6288C396.281 43.5428 396.253 43.4758 396.197 43.4278C396.141 43.3798 396.06 43.3558 395.954 43.3558C395.848 43.3558 395.767 43.3798 395.711 43.4278C395.655 43.4758 395.627 43.5428 395.627 43.6288V43.6768C395.627 43.7648 395.655 43.8328 395.711 43.8808C395.767 43.9288 395.848 43.9528 395.954 43.9528ZM400.171 45.1768H398.719V44.8108L399.376 44.2348C399.488 44.1368 399.57 44.0488 399.622 43.9708C399.674 43.8908 399.7 43.8048 399.7 43.7128V43.6738C399.7 43.5818 399.67 43.5118 399.61 43.4638C399.55 43.4138 399.477 43.3888 399.391 43.3888C399.283 43.3888 399.201 43.4198 399.145 43.4818C399.089 43.5418 399.049 43.6148 399.025 43.7008L398.683 43.5688C398.705 43.4988 398.736 43.4328 398.776 43.3708C398.816 43.3068 398.866 43.2508 398.926 43.2028C398.988 43.1548 399.06 43.1168 399.142 43.0888C399.224 43.0608 399.318 43.0468 399.424 43.0468C399.534 43.0468 399.632 43.0628 399.718 43.0948C399.804 43.1248 399.876 43.1678 399.934 43.2238C399.994 43.2798 400.039 43.3458 400.069 43.4218C400.101 43.4978 400.117 43.5808 400.117 43.6708C400.117 43.7588 400.103 43.8388 400.075 43.9108C400.047 43.9828 400.009 44.0518 399.961 44.1178C399.913 44.1818 399.857 44.2438 399.793 44.3038C399.729 44.3618 399.661 44.4208 399.589 44.4808L399.148 44.8438H400.171V45.1768ZM405.187 43.9288C405.307 43.9288 405.395 43.9048 405.451 43.8568C405.509 43.8068 405.538 43.7438 405.538 43.6678V43.6468C405.538 43.5608 405.51 43.4938 405.454 43.4458C405.4 43.3958 405.325 43.3708 405.229 43.3708C405.137 43.3708 405.055 43.3928 404.983 43.4368C404.913 43.4808 404.852 43.5428 404.8 43.6228L404.548 43.3948C404.584 43.3468 404.623 43.3018 404.665 43.2598C404.709 43.2158 404.759 43.1788 404.815 43.1488C404.871 43.1168 404.934 43.0918 405.004 43.0738C405.074 43.0558 405.153 43.0468 405.241 43.0468C405.347 43.0468 405.443 43.0598 405.529 43.0858C405.617 43.1098 405.692 43.1458 405.754 43.1938C405.818 43.2418 405.867 43.2998 405.901 43.3678C405.935 43.4338 405.952 43.5088 405.952 43.5928C405.952 43.6608 405.941 43.7218 405.919 43.7758C405.899 43.8298 405.87 43.8768 405.832 43.9168C405.796 43.9568 405.753 43.9898 405.703 44.0158C405.655 44.0398 405.604 44.0578 405.55 44.0698V44.0878C405.61 44.0998 405.667 44.1188 405.721 44.1448C405.775 44.1708 405.821 44.2058 405.859 44.2498C405.899 44.2918 405.93 44.3418 405.952 44.3998C405.976 44.4578 405.988 44.5238 405.988 44.5978C405.988 44.6898 405.969 44.7738 405.931 44.8498C405.895 44.9258 405.843 44.9908 405.775 45.0448C405.707 45.0988 405.626 45.1408 405.532 45.1708C405.438 45.1988 405.333 45.2128 405.217 45.2128C405.115 45.2128 405.025 45.2018 404.947 45.1798C404.869 45.1598 404.8 45.1318 404.74 45.0958C404.682 45.0598 404.631 45.0188 404.587 44.9728C404.543 44.9248 404.505 44.8748 404.473 44.8228L404.764 44.6008C404.788 44.6428 404.814 44.6818 404.842 44.7178C404.87 44.7518 404.902 44.7818 404.938 44.8078C404.974 44.8338 405.015 44.8538 405.061 44.8678C405.107 44.8818 405.159 44.8888 405.217 44.8888C405.333 44.8888 405.422 44.8608 405.484 44.8048C405.546 44.7488 405.577 44.6718 405.577 44.5738V44.5528C405.577 44.4568 405.543 44.3838 405.475 44.3338C405.409 44.2838 405.313 44.2588 405.187 44.2588H404.98V43.9288H405.187ZM408.924 45.1768V44.7718H407.976V44.4358L408.81 43.0828H409.299V44.4658H409.572V44.7718H409.299V45.1768H408.924ZM408.3 44.4658H408.924V43.4668H408.9L408.3 44.4658ZM413.012 43.8688C413.012 44.0188 412.989 44.1608 412.943 44.2948C412.899 44.4268 412.841 44.5488 412.769 44.6608C412.697 44.7708 412.616 44.8698 412.526 44.9578C412.438 45.0438 412.35 45.1168 412.262 45.1768H411.728C411.85 45.0888 411.96 45.0038 412.058 44.9218C412.156 44.8398 412.241 44.7568 412.313 44.6728C412.387 44.5888 412.447 44.5018 412.493 44.4118C412.541 44.3198 412.577 44.2208 412.601 44.1148L412.577 44.1088C412.557 44.1488 412.533 44.1878 412.505 44.2258C412.479 44.2638 412.447 44.2968 412.409 44.3248C412.371 44.3528 412.327 44.3758 412.277 44.3938C412.227 44.4098 412.169 44.4178 412.103 44.4178C412.015 44.4178 411.934 44.4028 411.86 44.3728C411.786 44.3428 411.721 44.2998 411.665 44.2438C411.611 44.1858 411.568 44.1178 411.536 44.0398C411.506 43.9598 411.491 43.8698 411.491 43.7698C411.491 43.6638 411.509 43.5668 411.545 43.4788C411.581 43.3908 411.632 43.3148 411.698 43.2508C411.764 43.1868 411.843 43.1368 411.935 43.1008C412.029 43.0648 412.134 43.0468 412.25 43.0468C412.37 43.0468 412.477 43.0668 412.571 43.1068C412.665 43.1448 412.745 43.1998 412.811 43.2718C412.877 43.3418 412.927 43.4278 412.961 43.5298C412.995 43.6298 413.012 43.7428 413.012 43.8688ZM412.25 44.1118C412.362 44.1118 412.449 44.0818 412.511 44.0218C412.573 43.9598 412.604 43.8718 412.604 43.7578V43.7128C412.604 43.5988 412.573 43.5118 412.511 43.4518C412.449 43.3898 412.362 43.3588 412.25 43.3588C412.14 43.3588 412.053 43.3898 411.989 43.4518C411.927 43.5118 411.896 43.5988 411.896 43.7128V43.7578C411.896 43.8718 411.927 43.9598 411.989 44.0218C412.053 44.0818 412.14 44.1118 412.25 44.1118ZM416.383 43.4248H415.441L415.393 44.1268H415.414C415.436 44.0828 415.46 44.0418 415.486 44.0038C415.512 43.9658 415.542 43.9338 415.576 43.9078C415.61 43.8818 415.649 43.8618 415.693 43.8478C415.739 43.8318 415.794 43.8238 415.858 43.8238C415.948 43.8238 416.032 43.8388 416.11 43.8688C416.188 43.8988 416.255 43.9428 416.311 44.0008C416.369 44.0568 416.414 44.1258 416.446 44.2078C416.48 44.2898 416.497 44.3828 416.497 44.4868C416.497 44.5928 416.48 44.6898 416.446 44.7778C416.412 44.8658 416.362 44.9428 416.296 45.0088C416.23 45.0728 416.149 45.1228 416.053 45.1588C415.957 45.1948 415.847 45.2128 415.723 45.2128C415.627 45.2128 415.541 45.2018 415.465 45.1798C415.389 45.1598 415.322 45.1318 415.264 45.0958C415.206 45.0598 415.156 45.0188 415.114 44.9728C415.072 44.9248 415.035 44.8748 415.003 44.8228L415.291 44.6008C415.315 44.6408 415.34 44.6788 415.366 44.7148C415.392 44.7488 415.422 44.7788 415.456 44.8048C415.492 44.8308 415.531 44.8518 415.573 44.8678C415.617 44.8818 415.668 44.8888 415.726 44.8888C415.844 44.8888 415.933 44.8558 415.993 44.7898C416.055 44.7238 416.086 44.6338 416.086 44.5198V44.4958C416.086 44.3878 416.055 44.3028 415.993 44.2408C415.931 44.1788 415.845 44.1478 415.735 44.1478C415.649 44.1478 415.579 44.1648 415.525 44.1988C415.471 44.2308 415.428 44.2658 415.396 44.3038L415.072 44.2588L415.15 43.0828H416.383V43.4248ZM421.749 45.1768V44.7718H420.801V44.4358L421.635 43.0828H422.124V44.4658H422.397V44.7718H422.124V45.1768H421.749ZM421.125 44.4658H421.749V43.4668H421.725L421.125 44.4658ZM425.228 45.1768V44.7718H424.28V44.4358L425.114 43.0828H425.603V44.4658H425.876V44.7718H425.603V45.1768H425.228ZM424.604 44.4658H425.228V43.4668H425.204L424.604 44.4658Z" fill="#0ECACA"/>
<path d="M187.822 146.651L187.536 146.364L186.865 147.035L186.628 146.797L186.261 145.251L186.607 144.905L187.585 145.883L187.778 145.69L187.994 145.906L187.801 146.099L188.087 146.386L187.822 146.651ZM186.878 146.589L187.319 146.148L186.613 145.442L186.596 145.459L186.878 146.589ZM189.902 144.571L189.164 142.801L188.653 143.313L188.924 143.584L188.687 143.822L188.188 143.323L189.215 142.296L189.455 142.536L190.195 144.278L189.902 144.571ZM192.672 141.852C192.587 141.937 192.498 141.999 192.405 142.038C192.31 142.077 192.214 142.094 192.118 142.092C192.021 142.087 191.925 142.062 191.83 142.015C191.734 141.967 191.641 141.898 191.552 141.809C191.446 141.703 191.362 141.588 191.299 141.464C191.237 141.336 191.193 141.208 191.166 141.08C191.138 140.95 191.124 140.823 191.125 140.7C191.127 140.574 191.138 140.459 191.157 140.354L191.535 139.977C191.509 140.126 191.491 140.265 191.48 140.392C191.47 140.518 191.468 140.637 191.476 140.749C191.484 140.859 191.504 140.964 191.535 141.063C191.566 141.159 191.611 141.253 191.669 141.345L191.69 141.332C191.676 141.29 191.665 141.247 191.658 141.203C191.651 141.156 191.651 141.109 191.658 141.063C191.664 141.015 191.678 140.967 191.702 140.921C191.725 140.872 191.76 140.825 191.806 140.778C191.867 140.718 191.934 140.672 192.008 140.641C192.083 140.608 192.16 140.593 192.239 140.596C192.318 140.596 192.397 140.614 192.475 140.649C192.554 140.683 192.628 140.735 192.697 140.804C192.772 140.879 192.828 140.96 192.865 141.048C192.902 141.136 192.919 141.225 192.918 141.317C192.917 141.409 192.895 141.501 192.854 141.593C192.815 141.684 192.754 141.77 192.672 141.852ZM192.451 141.631C192.529 141.553 192.569 141.471 192.57 141.385C192.572 141.296 192.532 141.211 192.451 141.131L192.419 141.099C192.339 141.018 192.255 140.979 192.167 140.982C192.079 140.982 191.997 141.021 191.919 141.099C191.84 141.178 191.8 141.261 191.8 141.349C191.799 141.435 191.838 141.519 191.919 141.599L191.951 141.631C192.031 141.712 192.115 141.752 192.203 141.752C192.289 141.751 192.372 141.71 192.451 141.631ZM195.125 139.398C195.039 139.485 194.952 139.551 194.862 139.598C194.773 139.642 194.686 139.668 194.602 139.676C194.518 139.683 194.438 139.673 194.362 139.644C194.285 139.616 194.216 139.571 194.154 139.509C194.058 139.412 194.006 139.308 193.999 139.197C193.992 139.082 194.021 138.968 194.086 138.855L194.069 138.838C193.969 138.885 193.867 138.903 193.764 138.893C193.662 138.882 193.568 138.833 193.481 138.747C193.425 138.69 193.384 138.628 193.358 138.56C193.334 138.491 193.327 138.418 193.335 138.342C193.344 138.265 193.369 138.188 193.411 138.109C193.454 138.026 193.515 137.946 193.594 137.867C193.673 137.787 193.753 137.727 193.834 137.686C193.914 137.643 193.993 137.616 194.069 137.608C194.145 137.599 194.218 137.608 194.285 137.633C194.355 137.657 194.418 137.698 194.474 137.754C194.56 137.841 194.609 137.935 194.618 138.039C194.63 138.14 194.612 138.241 194.565 138.342L194.582 138.359C194.696 138.294 194.809 138.265 194.922 138.274C195.035 138.28 195.14 138.331 195.236 138.427C195.298 138.489 195.343 138.558 195.372 138.635C195.4 138.711 195.41 138.792 195.401 138.876C195.394 138.96 195.368 139.047 195.323 139.137C195.278 139.225 195.212 139.312 195.125 139.398ZM194.907 139.18C194.988 139.099 195.031 139.019 195.036 138.94C195.043 138.859 195.014 138.786 194.947 138.719L194.903 138.675C194.836 138.608 194.763 138.579 194.682 138.586C194.603 138.591 194.523 138.635 194.442 138.715C194.362 138.796 194.318 138.876 194.311 138.957C194.305 139.036 194.336 139.109 194.402 139.176L194.447 139.22C194.513 139.287 194.586 139.317 194.665 139.311C194.746 139.304 194.826 139.26 194.907 139.18ZM194.235 138.507C194.309 138.432 194.35 138.358 194.355 138.285C194.361 138.211 194.333 138.143 194.271 138.081L194.237 138.047C194.176 137.986 194.109 137.959 194.035 137.964C193.962 137.97 193.887 138.01 193.812 138.085C193.737 138.16 193.697 138.234 193.691 138.308C193.686 138.381 193.713 138.449 193.774 138.509L193.808 138.543C193.87 138.606 193.938 138.634 194.012 138.628C194.085 138.623 194.16 138.582 194.235 138.507ZM200.964 133.56C200.878 133.646 200.79 133.713 200.701 133.759C200.612 133.803 200.525 133.829 200.44 133.838C200.357 133.845 200.277 133.834 200.2 133.806C200.124 133.778 200.055 133.732 199.992 133.67C199.896 133.574 199.845 133.47 199.837 133.358C199.83 133.244 199.859 133.13 199.924 133.017L199.907 133C199.807 133.046 199.705 133.065 199.602 133.055C199.5 133.044 199.406 132.995 199.32 132.909C199.263 132.852 199.222 132.79 199.197 132.722C199.173 132.653 199.165 132.58 199.174 132.503C199.182 132.427 199.207 132.349 199.25 132.27C199.292 132.188 199.353 132.107 199.432 132.028C199.512 131.949 199.591 131.889 199.672 131.848C199.753 131.804 199.831 131.778 199.907 131.769C199.984 131.761 200.056 131.769 200.124 131.795C200.193 131.819 200.256 131.859 200.313 131.916C200.399 132.002 200.447 132.097 200.457 132.2C200.468 132.302 200.451 132.403 200.404 132.503L200.421 132.52C200.534 132.455 200.647 132.427 200.76 132.436C200.873 132.441 200.978 132.492 201.074 132.588C201.136 132.65 201.182 132.72 201.21 132.796C201.238 132.873 201.248 132.953 201.24 133.038C201.233 133.121 201.206 133.208 201.161 133.299C201.116 133.387 201.05 133.474 200.964 133.56ZM200.745 133.341C200.826 133.261 200.869 133.181 200.875 133.102C200.882 133.021 200.852 132.947 200.786 132.881L200.741 132.836C200.675 132.77 200.601 132.74 200.521 132.747C200.441 132.753 200.361 132.796 200.281 132.877C200.2 132.957 200.156 133.038 200.149 133.119C200.144 133.198 200.174 133.271 200.241 133.337L200.285 133.382C200.352 133.448 200.424 133.479 200.504 133.473C200.584 133.466 200.665 133.422 200.745 133.341ZM200.073 132.669C200.148 132.594 200.188 132.52 200.194 132.446C200.2 132.373 200.171 132.305 200.109 132.242L200.075 132.209C200.014 132.148 199.947 132.12 199.874 132.126C199.8 132.131 199.726 132.172 199.651 132.247C199.576 132.322 199.536 132.396 199.53 132.469C199.524 132.543 199.552 132.61 199.613 132.671L199.647 132.705C199.709 132.767 199.777 132.795 199.85 132.79C199.924 132.784 199.998 132.744 200.073 132.669ZM203.006 129.617C203.112 129.723 203.196 129.84 203.258 129.967C203.321 130.092 203.366 130.219 203.394 130.349C203.421 130.478 203.434 130.605 203.432 130.731C203.431 130.854 203.42 130.968 203.4 131.072L203.023 131.45C203.047 131.301 203.065 131.164 203.076 131.036C203.087 130.909 203.089 130.79 203.08 130.68C203.073 130.568 203.054 130.464 203.023 130.368C202.992 130.269 202.947 130.174 202.889 130.082L202.868 130.094C202.882 130.137 202.893 130.181 202.9 130.228C202.908 130.273 202.909 130.319 202.902 130.366C202.895 130.413 202.88 130.46 202.857 130.508C202.833 130.555 202.798 130.601 202.751 130.648C202.689 130.71 202.621 130.757 202.548 130.788C202.474 130.819 202.398 130.835 202.319 130.835C202.239 130.832 202.161 130.814 202.083 130.782C202.005 130.746 201.931 130.693 201.86 130.623C201.785 130.548 201.73 130.466 201.693 130.379C201.656 130.291 201.638 130.201 201.64 130.109C201.641 130.017 201.662 129.926 201.701 129.836C201.742 129.744 201.804 129.657 201.886 129.575C201.971 129.49 202.061 129.428 202.155 129.39C202.249 129.351 202.344 129.333 202.442 129.337C202.538 129.34 202.634 129.365 202.73 129.413C202.825 129.46 202.917 129.528 203.006 129.617ZM202.639 130.328C202.718 130.249 202.758 130.166 202.76 130.08C202.76 129.992 202.72 129.908 202.639 129.827L202.607 129.795C202.526 129.715 202.443 129.675 202.357 129.677C202.269 129.677 202.186 129.716 202.106 129.795C202.029 129.873 201.989 129.957 201.988 130.046C201.986 130.132 202.026 130.215 202.106 130.296L202.138 130.328C202.219 130.408 202.303 130.449 202.391 130.449C202.478 130.446 202.561 130.406 202.639 130.328ZM205.89 128.634C205.805 128.719 205.716 128.781 205.623 128.82C205.528 128.859 205.433 128.876 205.336 128.873C205.239 128.869 205.143 128.844 205.048 128.797C204.952 128.749 204.859 128.68 204.77 128.591C204.664 128.485 204.58 128.37 204.518 128.245C204.455 128.118 204.411 127.99 204.384 127.862C204.356 127.731 204.342 127.605 204.344 127.482C204.345 127.356 204.356 127.241 204.375 127.136L204.753 126.758C204.728 126.908 204.709 127.047 204.698 127.174C204.688 127.3 204.687 127.419 204.694 127.531C204.702 127.641 204.722 127.746 204.753 127.845C204.784 127.941 204.829 128.035 204.887 128.127L204.908 128.114C204.894 128.072 204.883 128.028 204.876 127.985C204.869 127.938 204.869 127.891 204.876 127.845C204.882 127.796 204.897 127.749 204.921 127.702C204.943 127.654 204.978 127.607 205.025 127.56C205.085 127.499 205.153 127.454 205.226 127.422C205.301 127.39 205.378 127.375 205.457 127.378C205.537 127.378 205.615 127.396 205.693 127.431C205.772 127.465 205.846 127.516 205.916 127.586C205.99 127.661 206.046 127.742 206.083 127.83C206.12 127.917 206.138 128.007 206.136 128.099C206.135 128.191 206.114 128.283 206.073 128.375C206.033 128.465 205.972 128.552 205.89 128.634ZM205.669 128.413C205.747 128.335 205.787 128.253 205.788 128.167C205.79 128.078 205.75 127.993 205.669 127.912L205.638 127.881C205.557 127.8 205.473 127.761 205.385 127.764C205.298 127.764 205.215 127.803 205.137 127.881C205.058 127.96 205.018 128.043 205.018 128.131C205.017 128.217 205.056 128.301 205.137 128.381L205.169 128.413C205.249 128.494 205.334 128.534 205.421 128.534C205.508 128.533 205.59 128.492 205.669 128.413ZM208.04 126.433L207.302 124.663L206.791 125.175L207.062 125.446L206.825 125.684L206.326 125.185L207.353 124.159L207.593 124.398L208.333 126.14L208.04 126.433ZM211.3 123.173L210.273 124.2L210.014 123.941L210.072 123.069C210.082 122.92 210.077 122.8 210.059 122.708C210.039 122.615 209.997 122.536 209.932 122.471L209.904 122.443C209.839 122.378 209.768 122.35 209.692 122.358C209.614 122.365 209.545 122.399 209.484 122.46C209.408 122.537 209.372 122.616 209.376 122.7C209.379 122.782 209.402 122.862 209.446 122.94L209.111 123.088C209.077 123.023 209.052 122.954 209.036 122.882C209.019 122.809 209.015 122.734 209.024 122.657C209.034 122.58 209.058 122.502 209.096 122.424C209.134 122.346 209.191 122.27 209.266 122.195C209.343 122.117 209.424 122.059 209.507 122.021C209.589 121.981 209.671 121.961 209.751 121.96C209.833 121.957 209.912 121.972 209.987 122.004C210.063 122.035 210.133 122.083 210.197 122.146C210.259 122.208 210.306 122.275 210.337 122.346C210.368 122.416 210.39 122.492 210.403 122.573C210.414 122.652 210.418 122.735 210.415 122.823C210.411 122.909 210.405 122.999 210.396 123.092L210.341 123.661L211.064 122.937L211.3 123.173ZM213.34 121.133L213.053 120.847L212.383 121.517L212.145 121.279L211.779 119.733L212.124 119.387L213.102 120.365L213.295 120.172L213.512 120.388L213.319 120.582L213.605 120.868L213.34 121.133ZM212.396 121.072L212.837 120.63L212.131 119.924L212.114 119.941L212.396 121.072ZM215.723 118.8C215.637 118.887 215.549 118.953 215.46 119C215.371 119.044 215.284 119.07 215.199 119.078C215.116 119.085 215.036 119.075 214.96 119.046C214.883 119.018 214.814 118.973 214.752 118.911C214.656 118.815 214.604 118.711 214.597 118.599C214.59 118.484 214.619 118.37 214.684 118.257L214.667 118.24C214.567 118.287 214.465 118.305 214.361 118.296C214.26 118.284 214.166 118.235 214.079 118.149C214.023 118.093 213.982 118.03 213.956 117.962C213.932 117.893 213.924 117.82 213.933 117.744C213.941 117.668 213.967 117.59 214.009 117.511C214.052 117.429 214.113 117.348 214.192 117.269C214.271 117.19 214.351 117.13 214.431 117.089C214.512 117.045 214.591 117.019 214.667 117.01C214.743 117.002 214.815 117.01 214.883 117.035C214.953 117.06 215.016 117.1 215.072 117.156C215.158 117.243 215.206 117.337 215.216 117.441C215.228 117.542 215.21 117.644 215.163 117.744L215.18 117.761C215.293 117.696 215.407 117.668 215.52 117.676C215.633 117.682 215.737 117.733 215.834 117.829C215.896 117.891 215.941 117.96 215.969 118.037C215.998 118.113 216.008 118.194 215.999 118.279C215.992 118.362 215.966 118.449 215.921 118.539C215.875 118.627 215.81 118.714 215.723 118.8ZM215.505 118.582C215.585 118.501 215.629 118.421 215.634 118.342C215.641 118.262 215.612 118.188 215.545 118.122L215.501 118.077C215.434 118.011 215.361 117.981 215.28 117.988C215.201 117.994 215.121 118.037 215.04 118.117C214.96 118.198 214.916 118.279 214.909 118.359C214.903 118.438 214.933 118.511 215 118.578L215.045 118.622C215.111 118.689 215.184 118.719 215.263 118.713C215.344 118.706 215.424 118.663 215.505 118.582ZM214.832 117.909C214.907 117.835 214.948 117.76 214.953 117.687C214.959 117.613 214.931 117.545 214.868 117.483L214.834 117.449C214.774 117.388 214.707 117.361 214.633 117.366C214.559 117.372 214.485 117.412 214.41 117.487C214.335 117.562 214.295 117.637 214.289 117.71C214.284 117.784 214.311 117.851 214.372 117.912L214.406 117.946C214.468 118.008 214.536 118.036 214.61 118.03C214.683 118.025 214.757 117.984 214.832 117.909ZM221.568 112.956C221.483 113.04 221.394 113.103 221.301 113.142C221.206 113.18 221.111 113.198 221.014 113.195C220.917 113.191 220.821 113.166 220.726 113.119C220.63 113.071 220.537 113.002 220.448 112.913C220.342 112.807 220.258 112.692 220.196 112.567C220.133 112.44 220.089 112.312 220.062 112.183C220.034 112.053 220.02 111.927 220.022 111.804C220.023 111.678 220.034 111.563 220.054 111.458L220.431 111.08C220.406 111.23 220.387 111.369 220.376 111.496C220.366 111.622 220.365 111.741 220.372 111.853C220.38 111.963 220.4 112.067 220.431 112.166C220.462 112.263 220.507 112.357 220.565 112.449L220.586 112.436C220.572 112.393 220.561 112.35 220.554 112.306C220.547 112.26 220.547 112.213 220.554 112.166C220.56 112.118 220.575 112.071 220.599 112.024C220.621 111.976 220.656 111.929 220.703 111.882C220.763 111.821 220.831 111.775 220.904 111.744C220.979 111.712 221.056 111.697 221.135 111.7C221.215 111.7 221.293 111.717 221.371 111.753C221.45 111.787 221.524 111.838 221.594 111.908C221.669 111.983 221.724 112.064 221.761 112.152C221.798 112.239 221.816 112.329 221.814 112.421C221.813 112.513 221.792 112.605 221.751 112.697C221.711 112.787 221.65 112.874 221.568 112.956ZM221.348 112.735C221.425 112.657 221.465 112.575 221.466 112.489C221.468 112.4 221.428 112.315 221.348 112.234L221.316 112.203C221.235 112.122 221.151 112.083 221.063 112.086C220.976 112.086 220.893 112.125 220.815 112.203C220.736 112.282 220.696 112.365 220.696 112.453C220.695 112.539 220.734 112.623 220.815 112.703L220.847 112.735C220.927 112.816 221.012 112.856 221.099 112.856C221.186 112.855 221.268 112.814 221.348 112.735ZM227.4 107.124C227.305 107.218 227.206 107.283 227.103 107.319C226.999 107.353 226.891 107.36 226.781 107.34C226.67 107.32 226.557 107.274 226.439 107.202C226.323 107.128 226.204 107.031 226.083 106.909C225.963 106.789 225.866 106.671 225.792 106.555C225.719 106.436 225.672 106.322 225.652 106.211C225.632 106.101 225.64 105.994 225.676 105.891C225.71 105.786 225.774 105.687 225.869 105.592C226.057 105.404 226.262 105.332 226.486 105.378C226.711 105.422 226.944 105.564 227.186 105.806C227.428 106.048 227.571 106.281 227.614 106.506C227.66 106.73 227.588 106.935 227.4 107.124ZM227.165 106.888C227.259 106.793 227.29 106.692 227.256 106.585C227.222 106.474 227.144 106.358 227.023 106.237L226.755 105.97C226.634 105.848 226.518 105.771 226.41 105.738C226.301 105.703 226.199 105.733 226.104 105.827C226.009 105.922 225.979 106.025 226.013 106.135C226.047 106.242 226.125 106.357 226.246 106.479L226.513 106.746C226.635 106.868 226.75 106.946 226.859 106.981C226.968 107.014 227.07 106.983 227.165 106.888ZM229.442 103.181C229.548 103.287 229.632 103.404 229.695 103.531C229.757 103.655 229.802 103.783 229.83 103.913C229.857 104.041 229.87 104.169 229.869 104.295C229.867 104.418 229.857 104.531 229.837 104.636L229.459 105.014C229.483 104.865 229.501 104.727 229.512 104.6C229.524 104.473 229.525 104.354 229.516 104.244C229.509 104.132 229.49 104.028 229.459 103.932C229.428 103.833 229.384 103.737 229.326 103.645L229.304 103.658C229.318 103.701 229.329 103.745 229.336 103.792C229.345 103.837 229.345 103.883 229.338 103.93C229.331 103.976 229.316 104.024 229.294 104.072C229.27 104.118 229.234 104.165 229.188 104.212C229.125 104.274 229.058 104.321 228.984 104.352C228.91 104.383 228.834 104.398 228.755 104.398C228.676 104.396 228.597 104.378 228.519 104.345C228.442 104.31 228.367 104.257 228.297 104.186C228.222 104.111 228.166 104.03 228.129 103.942C228.092 103.855 228.075 103.765 228.076 103.673C228.077 103.581 228.098 103.49 228.138 103.399C228.179 103.307 228.24 103.22 228.322 103.138C228.407 103.054 228.497 102.992 228.592 102.954C228.685 102.914 228.78 102.897 228.878 102.901C228.974 102.904 229.07 102.929 229.166 102.977C229.261 103.024 229.353 103.092 229.442 103.181ZM229.075 103.891C229.154 103.812 229.195 103.73 229.196 103.643C229.196 103.556 229.156 103.471 229.075 103.391L229.043 103.359C228.963 103.278 228.879 103.239 228.793 103.24C228.705 103.24 228.622 103.28 228.543 103.359C228.465 103.437 228.425 103.52 228.424 103.609C228.423 103.696 228.462 103.779 228.543 103.86L228.575 103.891C228.655 103.972 228.739 104.012 228.827 104.012C228.915 104.01 228.997 103.969 229.075 103.891ZM232.32 102.204C232.234 102.29 232.146 102.356 232.057 102.403C231.968 102.447 231.881 102.473 231.796 102.482C231.713 102.489 231.633 102.478 231.556 102.45C231.48 102.422 231.411 102.376 231.348 102.314C231.252 102.218 231.201 102.114 231.194 102.002C231.187 101.888 231.216 101.774 231.281 101.661L231.264 101.644C231.163 101.69 231.061 101.709 230.958 101.699C230.856 101.688 230.762 101.639 230.676 101.552C230.619 101.496 230.578 101.434 230.553 101.366C230.529 101.297 230.521 101.224 230.53 101.147C230.538 101.071 230.564 100.993 230.606 100.914C230.648 100.832 230.709 100.751 230.788 100.672C230.868 100.593 230.948 100.533 231.028 100.492C231.109 100.448 231.187 100.422 231.264 100.413C231.34 100.405 231.412 100.413 231.48 100.439C231.549 100.463 231.612 100.503 231.669 100.56C231.755 100.646 231.803 100.741 231.813 100.844C231.824 100.946 231.807 101.047 231.76 101.147L231.777 101.164C231.89 101.099 232.003 101.071 232.116 101.079C232.229 101.085 232.334 101.136 232.43 101.232C232.493 101.294 232.538 101.364 232.566 101.44C232.594 101.516 232.604 101.597 232.596 101.682C232.589 101.765 232.563 101.852 232.517 101.943C232.472 102.03 232.406 102.117 232.32 102.204ZM232.102 101.985C232.182 101.905 232.225 101.825 232.231 101.746C232.238 101.665 232.208 101.591 232.142 101.525L232.097 101.48C232.031 101.414 231.957 101.384 231.877 101.391C231.797 101.397 231.718 101.44 231.637 101.521C231.556 101.601 231.512 101.682 231.505 101.763C231.5 101.842 231.53 101.915 231.597 101.981L231.641 102.026C231.708 102.092 231.78 102.122 231.86 102.117C231.94 102.11 232.021 102.066 232.102 101.985ZM231.429 101.313C231.504 101.238 231.544 101.164 231.55 101.09C231.556 101.017 231.527 100.949 231.465 100.886L231.431 100.852C231.37 100.792 231.303 100.764 231.23 100.77C231.156 100.775 231.082 100.816 231.007 100.891C230.932 100.966 230.892 101.04 230.886 101.113C230.88 101.187 230.908 101.254 230.969 101.315L231.003 101.349C231.065 101.411 231.133 101.439 231.206 101.434C231.28 101.428 231.354 101.388 231.429 101.313ZM235.276 99.1965L234.25 100.223L233.991 99.9645L234.048 99.0926C234.058 98.9441 234.054 98.8239 234.035 98.732C234.016 98.6386 233.973 98.5594 233.908 98.4944L233.88 98.4668C233.815 98.4017 233.745 98.3735 233.668 98.3819C233.591 98.389 233.521 98.423 233.46 98.4838C233.384 98.5601 233.348 98.64 233.352 98.7235C233.355 98.8055 233.378 98.8854 233.422 98.9632L233.087 99.1117C233.053 99.0466 233.028 98.978 233.013 98.9059C232.996 98.8324 232.992 98.7574 233 98.6811C233.01 98.6033 233.034 98.5255 233.072 98.4477C233.11 98.3699 233.167 98.2936 233.242 98.2186C233.32 98.1408 233.4 98.0828 233.484 98.0447C233.566 98.0051 233.647 97.9846 233.728 97.9831C233.81 97.9803 233.888 97.9952 233.963 98.0277C234.04 98.0588 234.11 98.1062 234.173 98.1698C234.235 98.232 234.282 98.2985 234.313 98.3692C234.344 98.4399 234.366 98.5156 234.379 98.5962C234.39 98.6754 234.395 98.7588 234.392 98.8465C234.387 98.9328 234.381 99.0226 234.373 99.1159L234.317 99.6844L235.041 98.9611L235.276 99.1965ZM237.941 94.7673C238.025 94.6825 238.071 94.6033 238.076 94.5298C238.082 94.4534 238.058 94.3883 238.004 94.3346L237.989 94.3198C237.929 94.2589 237.861 94.2314 237.788 94.237C237.714 94.2398 237.644 94.2752 237.576 94.3431C237.511 94.4081 237.468 94.4817 237.448 94.5637C237.43 94.6443 237.431 94.7313 237.451 94.8246L237.111 94.8416C237.103 94.7822 237.098 94.7228 237.098 94.6634C237.098 94.6012 237.108 94.5397 237.126 94.4788C237.143 94.4166 237.17 94.3544 237.207 94.2922C237.243 94.2299 237.293 94.1677 237.355 94.1055C237.43 94.0305 237.507 93.9719 237.586 93.9294C237.665 93.8842 237.744 93.8566 237.822 93.8467C237.901 93.8354 237.977 93.8417 238.049 93.8658C238.119 93.8884 238.184 93.9294 238.244 93.9888C238.292 94.0369 238.327 94.0878 238.35 94.1416C238.374 94.1939 238.387 94.2476 238.388 94.3028C238.391 94.3565 238.384 94.4103 238.367 94.464C238.35 94.5149 238.327 94.5637 238.297 94.6104L238.31 94.6231C238.361 94.5892 238.414 94.5623 238.471 94.5425C238.527 94.5227 238.585 94.5149 238.643 94.5192C238.701 94.5206 238.758 94.534 238.815 94.5595C238.873 94.5835 238.928 94.6217 238.98 94.674C239.045 94.7391 239.091 94.8119 239.118 94.8925C239.146 94.9717 239.155 95.0544 239.145 95.1407C239.136 95.227 239.108 95.3139 239.063 95.4016C239.016 95.4879 238.952 95.572 238.87 95.6541C238.798 95.7262 238.726 95.782 238.655 95.8216C238.586 95.8627 238.518 95.8916 238.45 95.9086C238.383 95.9242 238.318 95.9312 238.255 95.9298C238.189 95.927 238.127 95.9185 238.068 95.9044L238.117 95.5416C238.163 95.5544 238.209 95.5636 238.255 95.5692C238.298 95.5735 238.342 95.572 238.386 95.565C238.43 95.5579 238.473 95.543 238.515 95.5204C238.558 95.4978 238.6 95.466 238.641 95.425C238.723 95.3429 238.766 95.2602 238.77 95.1768C238.774 95.0933 238.742 95.017 238.672 94.9477L238.658 94.9328C238.59 94.8649 238.514 94.8374 238.431 94.8501C238.349 94.8614 238.263 94.9116 238.174 95.0007L238.028 95.1471L237.794 94.9137L237.941 94.7673ZM241.465 93.0075L241.179 92.7211L240.509 93.3914L240.271 93.1539L239.904 91.6074L240.25 91.2616L241.228 92.2396L241.421 92.0465L241.637 92.2629L241.444 92.4559L241.731 92.7423L241.465 93.0075ZM240.521 92.946L240.963 92.5047L240.256 91.7983L240.239 91.8153L240.521 92.946ZM243.431 89.1921C243.537 89.2981 243.621 89.4148 243.683 89.5421C243.746 89.6665 243.791 89.7938 243.819 89.9239C243.846 90.0526 243.859 90.1799 243.857 90.3057C243.856 90.4288 243.845 90.5426 243.826 90.6473L243.448 91.0249C243.472 90.8764 243.49 90.7385 243.501 90.6112C243.512 90.4839 243.514 90.3651 243.505 90.2548C243.498 90.1431 243.479 90.0392 243.448 89.943C243.417 89.844 243.372 89.7485 243.314 89.6566L243.293 89.6694C243.307 89.7118 243.318 89.7563 243.325 89.803C243.333 89.8483 243.334 89.8942 243.327 89.9409C243.32 89.9876 243.305 90.0349 243.282 90.083C243.258 90.1297 243.223 90.1763 243.176 90.223C243.114 90.2852 243.046 90.3319 242.973 90.363C242.899 90.3941 242.823 90.4097 242.744 90.4097C242.664 90.4069 242.586 90.3892 242.508 90.3567C242.43 90.3213 242.356 90.2683 242.285 90.1976C242.211 90.1226 242.155 90.0413 242.118 89.9536C242.081 89.8659 242.063 89.7761 242.065 89.6842C242.066 89.5923 242.087 89.5011 242.126 89.4106C242.167 89.3186 242.229 89.2317 242.311 89.1496C242.396 89.0648 242.486 89.0033 242.58 88.9651C242.674 88.9255 242.769 88.9078 242.867 88.912C242.963 88.9149 243.059 88.9403 243.155 88.9884C243.25 89.0351 243.342 89.103 243.431 89.1921ZM243.064 89.9027C243.143 89.8235 243.184 89.7408 243.185 89.6545C243.185 89.5668 243.145 89.4827 243.064 89.4021L243.032 89.3702C242.952 89.2896 242.868 89.25 242.782 89.2515C242.694 89.2515 242.611 89.2911 242.532 89.3702C242.454 89.448 242.414 89.5315 242.413 89.6206C242.411 89.7068 242.451 89.7903 242.532 89.8709L242.563 89.9027C242.644 89.9833 242.728 90.0236 242.816 90.0236C242.903 90.0208 242.986 89.9805 243.064 89.9027ZM245.501 86.4946L244.834 87.1607L245.297 87.691L245.312 87.6761C245.296 87.6295 245.284 87.5835 245.276 87.5383C245.267 87.493 245.266 87.4492 245.271 87.4067C245.277 87.3643 245.291 87.3226 245.312 87.2816C245.333 87.2377 245.366 87.1932 245.411 87.1479C245.475 87.0843 245.545 87.0355 245.621 87.0016C245.698 86.9676 245.776 86.9514 245.857 86.9528C245.938 86.9514 246.018 86.9683 246.099 87.0037C246.181 87.0376 246.259 87.0914 246.332 87.1649C246.407 87.2399 246.464 87.3205 246.502 87.4067C246.54 87.493 246.559 87.5828 246.559 87.6761C246.558 87.7681 246.536 87.8607 246.493 87.954C246.451 88.0474 246.386 88.1379 246.298 88.2256C246.23 88.2934 246.162 88.3465 246.092 88.3847C246.025 88.4243 245.957 88.4518 245.891 88.4674C245.824 88.483 245.76 88.4893 245.698 88.4865C245.634 88.4822 245.573 88.4731 245.513 88.4589L245.56 88.0983C245.605 88.1096 245.65 88.1188 245.694 88.1259C245.736 88.1315 245.778 88.1315 245.821 88.1259C245.865 88.1188 245.907 88.1061 245.948 88.0877C245.989 88.0665 246.03 88.0354 246.071 87.9943C246.155 87.9109 246.194 87.8246 246.19 87.7355C246.187 87.645 246.145 87.5595 246.065 87.4789L246.048 87.4619C245.971 87.3855 245.889 87.3473 245.802 87.3473C245.714 87.3473 245.631 87.3862 245.554 87.464C245.493 87.5248 245.455 87.5863 245.441 87.6486C245.426 87.7094 245.42 87.7645 245.424 87.814L245.163 88.0113L244.387 87.1246L245.259 86.2527L245.501 86.4946Z" fill="#0ECACA"/>
</svg>
