<svg width="466" height="363" viewBox="0 0 466 363" fill="none" xmlns="http://www.w3.org/2000/svg">
<rect x="74.4141" y="12.8359" width="17.711" height="4" transform="rotate(45 74.4141 12.8359)" fill="#0ECACA"/>
<rect x="307" y="315.25" width="17.711" height="4" fill="#0ECACA"/>
<rect x="462" y="338.25" width="4" height="4" fill="#0ECACA"/>
<rect x="89.8281" y="28.25" width="7.22598" height="4" transform="rotate(45 89.8281 28.25)" fill="#0ECACA"/>
<rect x="426.828" y="326.25" width="7.22598" height="4" transform="rotate(45 426.828 326.25)" fill="#0ECACA"/>
<path d="M155.061 286.25V285.845H154.113V285.509L154.947 284.156H155.436V285.539H155.709V285.845H155.436V286.25H155.061ZM154.437 285.539H155.061V284.54H155.037L154.437 285.539ZM158.003 286.25L158.732 284.477H158.009V284.861H157.673V284.156H159.125V284.495L158.417 286.25H158.003ZM161.884 286.286C161.764 286.286 161.657 286.267 161.563 286.229C161.469 286.189 161.389 286.134 161.323 286.064C161.257 285.992 161.207 285.906 161.173 285.806C161.139 285.704 161.122 285.59 161.122 285.464C161.122 285.314 161.144 285.173 161.188 285.041C161.234 284.907 161.293 284.785 161.365 284.675C161.437 284.563 161.517 284.464 161.605 284.378C161.695 284.29 161.784 284.216 161.872 284.156H162.406C162.282 284.244 162.171 284.329 162.073 284.411C161.977 284.493 161.892 284.576 161.818 284.66C161.746 284.744 161.686 284.832 161.638 284.924C161.592 285.014 161.557 285.112 161.533 285.218L161.557 285.224C161.577 285.184 161.6 285.146 161.626 285.11C161.654 285.072 161.687 285.039 161.725 285.011C161.763 284.981 161.807 284.958 161.857 284.942C161.907 284.924 161.965 284.915 162.031 284.915C162.117 284.915 162.197 284.93 162.271 284.96C162.347 284.99 162.412 285.034 162.466 285.092C162.522 285.148 162.565 285.216 162.595 285.296C162.627 285.376 162.643 285.465 162.643 285.563C162.643 285.669 162.625 285.766 162.589 285.854C162.553 285.942 162.502 286.018 162.436 286.082C162.37 286.146 162.29 286.196 162.196 286.232C162.104 286.268 162 286.286 161.884 286.286ZM161.884 285.974C161.994 285.974 162.08 285.944 162.142 285.884C162.206 285.822 162.238 285.734 162.238 285.62V285.575C162.238 285.461 162.206 285.374 162.142 285.314C162.08 285.252 161.994 285.221 161.884 285.221C161.772 285.221 161.685 285.252 161.623 285.314C161.561 285.374 161.53 285.461 161.53 285.575V285.62C161.53 285.734 161.561 285.822 161.623 285.884C161.685 285.944 161.772 285.974 161.884 285.974ZM165.353 286.286C165.231 286.286 165.122 286.271 165.026 286.241C164.932 286.209 164.852 286.166 164.786 286.112C164.722 286.058 164.673 285.994 164.639 285.92C164.605 285.846 164.588 285.765 164.588 285.677C164.588 285.541 164.625 285.431 164.699 285.347C164.775 285.261 164.876 285.201 165.002 285.167V285.143C164.898 285.105 164.813 285.046 164.747 284.966C164.683 284.886 164.651 284.785 164.651 284.663C164.651 284.583 164.666 284.51 164.696 284.444C164.728 284.378 164.774 284.321 164.834 284.273C164.894 284.225 164.967 284.188 165.053 284.162C165.141 284.134 165.241 284.12 165.353 284.12C165.465 284.12 165.564 284.134 165.65 284.162C165.738 284.188 165.812 284.225 165.872 284.273C165.932 284.321 165.977 284.378 166.007 284.444C166.039 284.51 166.055 284.583 166.055 284.663C166.055 284.785 166.022 284.886 165.956 284.966C165.892 285.046 165.808 285.105 165.704 285.143V285.167C165.83 285.201 165.93 285.261 166.004 285.347C166.08 285.431 166.118 285.541 166.118 285.677C166.118 285.765 166.101 285.846 166.067 285.92C166.033 285.994 165.983 286.058 165.917 286.112C165.853 286.166 165.773 286.209 165.677 286.241C165.583 286.271 165.475 286.286 165.353 286.286ZM165.353 285.977C165.467 285.977 165.554 285.951 165.614 285.899C165.676 285.847 165.707 285.774 165.707 285.68V285.617C165.707 285.523 165.676 285.45 165.614 285.398C165.554 285.346 165.467 285.32 165.353 285.32C165.239 285.32 165.151 285.346 165.089 285.398C165.029 285.45 164.999 285.523 164.999 285.617V285.68C164.999 285.774 165.029 285.847 165.089 285.899C165.151 285.951 165.239 285.977 165.353 285.977ZM165.353 285.026C165.459 285.026 165.54 285.002 165.596 284.954C165.652 284.906 165.68 284.838 165.68 284.75V284.702C165.68 284.616 165.652 284.549 165.596 284.501C165.54 284.453 165.459 284.429 165.353 284.429C165.247 284.429 165.166 284.453 165.11 284.501C165.054 284.549 165.026 284.616 165.026 284.702V284.75C165.026 284.838 165.054 284.906 165.11 284.954C165.166 285.002 165.247 285.026 165.353 285.026ZM173.61 286.286C173.488 286.286 173.379 286.271 173.283 286.241C173.189 286.209 173.109 286.166 173.043 286.112C172.979 286.058 172.93 285.994 172.896 285.92C172.862 285.846 172.845 285.765 172.845 285.677C172.845 285.541 172.882 285.431 172.956 285.347C173.032 285.261 173.133 285.201 173.259 285.167V285.143C173.155 285.105 173.07 285.046 173.004 284.966C172.94 284.886 172.908 284.785 172.908 284.663C172.908 284.583 172.923 284.51 172.953 284.444C172.985 284.378 173.031 284.321 173.091 284.273C173.151 284.225 173.224 284.188 173.31 284.162C173.398 284.134 173.498 284.12 173.61 284.12C173.722 284.12 173.821 284.134 173.907 284.162C173.995 284.188 174.069 284.225 174.129 284.273C174.189 284.321 174.234 284.378 174.264 284.444C174.296 284.51 174.312 284.583 174.312 284.663C174.312 284.785 174.279 284.886 174.213 284.966C174.149 285.046 174.065 285.105 173.961 285.143V285.167C174.087 285.201 174.187 285.261 174.261 285.347C174.337 285.431 174.375 285.541 174.375 285.677C174.375 285.765 174.358 285.846 174.324 285.92C174.29 285.994 174.24 286.058 174.174 286.112C174.11 286.166 174.03 286.209 173.934 286.241C173.84 286.271 173.732 286.286 173.61 286.286ZM173.61 285.977C173.724 285.977 173.811 285.951 173.871 285.899C173.933 285.847 173.964 285.774 173.964 285.68V285.617C173.964 285.523 173.933 285.45 173.871 285.398C173.811 285.346 173.724 285.32 173.61 285.32C173.496 285.32 173.408 285.346 173.346 285.398C173.286 285.45 173.256 285.523 173.256 285.617V285.68C173.256 285.774 173.286 285.847 173.346 285.899C173.408 285.951 173.496 285.977 173.61 285.977ZM173.61 285.026C173.716 285.026 173.797 285.002 173.853 284.954C173.909 284.906 173.937 284.838 173.937 284.75V284.702C173.937 284.616 173.909 284.549 173.853 284.501C173.797 284.453 173.716 284.429 173.61 284.429C173.504 284.429 173.423 284.453 173.367 284.501C173.311 284.549 173.283 284.616 173.283 284.702V284.75C173.283 284.838 173.311 284.906 173.367 284.954C173.423 285.002 173.504 285.026 173.61 285.026ZM177.842 284.942C177.842 285.092 177.819 285.234 177.773 285.368C177.729 285.5 177.671 285.622 177.599 285.734C177.527 285.844 177.446 285.943 177.356 286.031C177.268 286.117 177.18 286.19 177.092 286.25H176.558C176.68 286.162 176.79 286.077 176.888 285.995C176.986 285.913 177.071 285.83 177.143 285.746C177.217 285.662 177.277 285.575 177.323 285.485C177.371 285.393 177.407 285.294 177.431 285.188L177.407 285.182C177.387 285.222 177.363 285.261 177.335 285.299C177.309 285.337 177.277 285.37 177.239 285.398C177.201 285.426 177.157 285.449 177.107 285.467C177.057 285.483 176.999 285.491 176.933 285.491C176.845 285.491 176.764 285.476 176.69 285.446C176.616 285.416 176.551 285.373 176.495 285.317C176.441 285.259 176.398 285.191 176.366 285.113C176.336 285.033 176.321 284.943 176.321 284.843C176.321 284.737 176.339 284.64 176.375 284.552C176.411 284.464 176.462 284.388 176.528 284.324C176.594 284.26 176.673 284.21 176.765 284.174C176.859 284.138 176.964 284.12 177.08 284.12C177.2 284.12 177.307 284.14 177.401 284.18C177.495 284.218 177.575 284.273 177.641 284.345C177.707 284.415 177.757 284.501 177.791 284.603C177.825 284.703 177.842 284.816 177.842 284.942ZM177.08 285.185C177.192 285.185 177.279 285.155 177.341 285.095C177.403 285.033 177.434 284.945 177.434 284.831V284.786C177.434 284.672 177.403 284.585 177.341 284.525C177.279 284.463 177.192 284.432 177.08 284.432C176.97 284.432 176.883 284.463 176.819 284.525C176.757 284.585 176.726 284.672 176.726 284.786V284.831C176.726 284.945 176.757 285.033 176.819 285.095C176.883 285.155 176.97 285.185 177.08 285.185ZM180.577 286.286C180.457 286.286 180.35 286.267 180.256 286.229C180.162 286.189 180.082 286.134 180.016 286.064C179.95 285.992 179.9 285.906 179.866 285.806C179.832 285.704 179.815 285.59 179.815 285.464C179.815 285.314 179.837 285.173 179.881 285.041C179.927 284.907 179.986 284.785 180.058 284.675C180.13 284.563 180.21 284.464 180.298 284.378C180.388 284.29 180.477 284.216 180.565 284.156H181.099C180.975 284.244 180.864 284.329 180.766 284.411C180.67 284.493 180.585 284.576 180.511 284.66C180.439 284.744 180.379 284.832 180.331 284.924C180.285 285.014 180.25 285.112 180.226 285.218L180.25 285.224C180.27 285.184 180.293 285.146 180.319 285.11C180.347 285.072 180.38 285.039 180.418 285.011C180.456 284.981 180.5 284.958 180.55 284.942C180.6 284.924 180.658 284.915 180.724 284.915C180.81 284.915 180.89 284.93 180.964 284.96C181.04 284.99 181.105 285.034 181.159 285.092C181.215 285.148 181.258 285.216 181.288 285.296C181.32 285.376 181.336 285.465 181.336 285.563C181.336 285.669 181.318 285.766 181.282 285.854C181.246 285.942 181.195 286.018 181.129 286.082C181.063 286.146 180.983 286.196 180.889 286.232C180.797 286.268 180.693 286.286 180.577 286.286ZM180.577 285.974C180.687 285.974 180.773 285.944 180.835 285.884C180.899 285.822 180.931 285.734 180.931 285.62V285.575C180.931 285.461 180.899 285.374 180.835 285.314C180.773 285.252 180.687 285.221 180.577 285.221C180.465 285.221 180.378 285.252 180.316 285.314C180.254 285.374 180.223 285.461 180.223 285.575V285.62C180.223 285.734 180.254 285.822 180.316 285.884C180.378 285.944 180.465 285.974 180.577 285.974ZM183.654 286.25L184.383 284.477H183.66V284.861H183.324V284.156H184.776V284.495L184.068 286.25H183.654ZM188.264 286.25H186.812V285.884L187.469 285.308C187.581 285.21 187.663 285.122 187.715 285.044C187.767 284.964 187.793 284.878 187.793 284.786V284.747C187.793 284.655 187.763 284.585 187.703 284.537C187.643 284.487 187.57 284.462 187.484 284.462C187.376 284.462 187.294 284.493 187.238 284.555C187.182 284.615 187.142 284.688 187.118 284.774L186.776 284.642C186.798 284.572 186.829 284.506 186.869 284.444C186.909 284.38 186.959 284.324 187.019 284.276C187.081 284.228 187.153 284.19 187.235 284.162C187.317 284.134 187.411 284.12 187.517 284.12C187.627 284.12 187.725 284.136 187.811 284.168C187.897 284.198 187.969 284.241 188.027 284.297C188.087 284.353 188.132 284.419 188.162 284.495C188.194 284.571 188.21 284.654 188.21 284.744C188.21 284.832 188.196 284.912 188.168 284.984C188.14 285.056 188.102 285.125 188.054 285.191C188.006 285.255 187.95 285.317 187.886 285.377C187.822 285.435 187.754 285.494 187.682 285.554L187.241 285.917H188.264V286.25ZM191.148 286.25V285.845H190.2V285.509L191.034 284.156H191.523V285.539H191.796V285.845H191.523V286.25H191.148ZM190.524 285.539H191.148V284.54H191.124L190.524 285.539ZM194.483 286.286C194.361 286.286 194.252 286.271 194.156 286.241C194.062 286.209 193.982 286.166 193.916 286.112C193.852 286.058 193.803 285.994 193.769 285.92C193.735 285.846 193.718 285.765 193.718 285.677C193.718 285.541 193.755 285.431 193.829 285.347C193.905 285.261 194.006 285.201 194.132 285.167V285.143C194.028 285.105 193.943 285.046 193.877 284.966C193.813 284.886 193.781 284.785 193.781 284.663C193.781 284.583 193.796 284.51 193.826 284.444C193.858 284.378 193.904 284.321 193.964 284.273C194.024 284.225 194.097 284.188 194.183 284.162C194.271 284.134 194.371 284.12 194.483 284.12C194.595 284.12 194.694 284.134 194.78 284.162C194.868 284.188 194.942 284.225 195.002 284.273C195.062 284.321 195.107 284.378 195.137 284.444C195.169 284.51 195.185 284.583 195.185 284.663C195.185 284.785 195.152 284.886 195.086 284.966C195.022 285.046 194.938 285.105 194.834 285.143V285.167C194.96 285.201 195.06 285.261 195.134 285.347C195.21 285.431 195.248 285.541 195.248 285.677C195.248 285.765 195.231 285.846 195.197 285.92C195.163 285.994 195.113 286.058 195.047 286.112C194.983 286.166 194.903 286.209 194.807 286.241C194.713 286.271 194.605 286.286 194.483 286.286ZM194.483 285.977C194.597 285.977 194.684 285.951 194.744 285.899C194.806 285.847 194.837 285.774 194.837 285.68V285.617C194.837 285.523 194.806 285.45 194.744 285.398C194.684 285.346 194.597 285.32 194.483 285.32C194.369 285.32 194.281 285.346 194.219 285.398C194.159 285.45 194.129 285.523 194.129 285.617V285.68C194.129 285.774 194.159 285.847 194.219 285.899C194.281 285.951 194.369 285.977 194.483 285.977ZM194.483 285.026C194.589 285.026 194.67 285.002 194.726 284.954C194.782 284.906 194.81 284.838 194.81 284.75V284.702C194.81 284.616 194.782 284.549 194.726 284.501C194.67 284.453 194.589 284.429 194.483 284.429C194.377 284.429 194.296 284.453 194.24 284.501C194.184 284.549 194.156 284.616 194.156 284.702V284.75C194.156 284.838 194.184 284.906 194.24 284.954C194.296 285.002 194.377 285.026 194.483 285.026ZM202.749 286.286C202.629 286.286 202.522 286.267 202.428 286.229C202.334 286.189 202.254 286.134 202.188 286.064C202.122 285.992 202.072 285.906 202.038 285.806C202.004 285.704 201.987 285.59 201.987 285.464C201.987 285.314 202.009 285.173 202.053 285.041C202.099 284.907 202.158 284.785 202.23 284.675C202.302 284.563 202.382 284.464 202.47 284.378C202.56 284.29 202.649 284.216 202.737 284.156H203.271C203.147 284.244 203.036 284.329 202.938 284.411C202.842 284.493 202.757 284.576 202.683 284.66C202.611 284.744 202.551 284.832 202.503 284.924C202.457 285.014 202.422 285.112 202.398 285.218L202.422 285.224C202.442 285.184 202.465 285.146 202.491 285.11C202.519 285.072 202.552 285.039 202.59 285.011C202.628 284.981 202.672 284.958 202.722 284.942C202.772 284.924 202.83 284.915 202.896 284.915C202.982 284.915 203.062 284.93 203.136 284.96C203.212 284.99 203.277 285.034 203.331 285.092C203.387 285.148 203.43 285.216 203.46 285.296C203.492 285.376 203.508 285.465 203.508 285.563C203.508 285.669 203.49 285.766 203.454 285.854C203.418 285.942 203.367 286.018 203.301 286.082C203.235 286.146 203.155 286.196 203.061 286.232C202.969 286.268 202.865 286.286 202.749 286.286ZM202.749 285.974C202.859 285.974 202.945 285.944 203.007 285.884C203.071 285.822 203.103 285.734 203.103 285.62V285.575C203.103 285.461 203.071 285.374 203.007 285.314C202.945 285.252 202.859 285.221 202.749 285.221C202.637 285.221 202.55 285.252 202.488 285.314C202.426 285.374 202.395 285.461 202.395 285.575V285.62C202.395 285.734 202.426 285.822 202.488 285.884C202.55 285.944 202.637 285.974 202.749 285.974ZM210.997 286.286C210.863 286.286 210.747 286.262 210.649 286.214C210.551 286.164 210.47 286.093 210.406 286.001C210.342 285.909 210.294 285.796 210.262 285.662C210.232 285.528 210.217 285.375 210.217 285.203C210.217 285.033 210.232 284.881 210.262 284.747C210.294 284.611 210.342 284.497 210.406 284.405C210.47 284.313 210.551 284.243 210.649 284.195C210.747 284.145 210.863 284.12 210.997 284.12C211.263 284.12 211.459 284.215 211.585 284.405C211.713 284.595 211.777 284.861 211.777 285.203C211.777 285.545 211.713 285.811 211.585 286.001C211.459 286.191 211.263 286.286 210.997 286.286ZM210.997 285.953C211.131 285.953 211.224 285.903 211.276 285.803C211.33 285.701 211.357 285.564 211.357 285.392V285.014C211.357 284.842 211.33 284.706 211.276 284.606C211.224 284.504 211.131 284.453 210.997 284.453C210.863 284.453 210.769 284.504 210.715 284.606C210.663 284.706 210.637 284.842 210.637 285.014V285.392C210.637 285.564 210.663 285.701 210.715 285.803C210.769 285.903 210.863 285.953 210.997 285.953ZM215.229 284.942C215.229 285.092 215.206 285.234 215.16 285.368C215.116 285.5 215.058 285.622 214.986 285.734C214.914 285.844 214.833 285.943 214.743 286.031C214.655 286.117 214.567 286.19 214.479 286.25H213.945C214.067 286.162 214.177 286.077 214.275 285.995C214.373 285.913 214.458 285.83 214.53 285.746C214.604 285.662 214.664 285.575 214.71 285.485C214.758 285.393 214.794 285.294 214.818 285.188L214.794 285.182C214.774 285.222 214.75 285.261 214.722 285.299C214.696 285.337 214.664 285.37 214.626 285.398C214.588 285.426 214.544 285.449 214.494 285.467C214.444 285.483 214.386 285.491 214.32 285.491C214.232 285.491 214.151 285.476 214.077 285.446C214.003 285.416 213.938 285.373 213.882 285.317C213.828 285.259 213.785 285.191 213.753 285.113C213.723 285.033 213.708 284.943 213.708 284.843C213.708 284.737 213.726 284.64 213.762 284.552C213.798 284.464 213.849 284.388 213.915 284.324C213.981 284.26 214.06 284.21 214.152 284.174C214.246 284.138 214.351 284.12 214.467 284.12C214.587 284.12 214.694 284.14 214.788 284.18C214.882 284.218 214.962 284.273 215.028 284.345C215.094 284.415 215.144 284.501 215.178 284.603C215.212 284.703 215.229 284.816 215.229 284.942ZM214.467 285.185C214.579 285.185 214.666 285.155 214.728 285.095C214.79 285.033 214.821 284.945 214.821 284.831V284.786C214.821 284.672 214.79 284.585 214.728 284.525C214.666 284.463 214.579 284.432 214.467 284.432C214.357 284.432 214.27 284.463 214.206 284.525C214.144 284.585 214.113 284.672 214.113 284.786V284.831C214.113 284.945 214.144 285.033 214.206 285.095C214.27 285.155 214.357 285.185 214.467 285.185ZM217.954 286.286C217.832 286.286 217.723 286.271 217.627 286.241C217.533 286.209 217.453 286.166 217.387 286.112C217.323 286.058 217.274 285.994 217.24 285.92C217.206 285.846 217.189 285.765 217.189 285.677C217.189 285.541 217.226 285.431 217.3 285.347C217.376 285.261 217.477 285.201 217.603 285.167V285.143C217.499 285.105 217.414 285.046 217.348 284.966C217.284 284.886 217.252 284.785 217.252 284.663C217.252 284.583 217.267 284.51 217.297 284.444C217.329 284.378 217.375 284.321 217.435 284.273C217.495 284.225 217.568 284.188 217.654 284.162C217.742 284.134 217.842 284.12 217.954 284.12C218.066 284.12 218.165 284.134 218.251 284.162C218.339 284.188 218.413 284.225 218.473 284.273C218.533 284.321 218.578 284.378 218.608 284.444C218.64 284.51 218.656 284.583 218.656 284.663C218.656 284.785 218.623 284.886 218.557 284.966C218.493 285.046 218.409 285.105 218.305 285.143V285.167C218.431 285.201 218.531 285.261 218.605 285.347C218.681 285.431 218.719 285.541 218.719 285.677C218.719 285.765 218.702 285.846 218.668 285.92C218.634 285.994 218.584 286.058 218.518 286.112C218.454 286.166 218.374 286.209 218.278 286.241C218.184 286.271 218.076 286.286 217.954 286.286ZM217.954 285.977C218.068 285.977 218.155 285.951 218.215 285.899C218.277 285.847 218.308 285.774 218.308 285.68V285.617C218.308 285.523 218.277 285.45 218.215 285.398C218.155 285.346 218.068 285.32 217.954 285.32C217.84 285.32 217.752 285.346 217.69 285.398C217.63 285.45 217.6 285.523 217.6 285.617V285.68C217.6 285.774 217.63 285.847 217.69 285.899C217.752 285.951 217.84 285.977 217.954 285.977ZM217.954 285.026C218.06 285.026 218.141 285.002 218.197 284.954C218.253 284.906 218.281 284.838 218.281 284.75V284.702C218.281 284.616 218.253 284.549 218.197 284.501C218.141 284.453 218.06 284.429 217.954 284.429C217.848 284.429 217.767 284.453 217.711 284.501C217.655 284.549 217.627 284.616 217.627 284.702V284.75C217.627 284.838 217.655 284.906 217.711 284.954C217.767 285.002 217.848 285.026 217.954 285.026ZM222.171 286.25H220.719V285.884L221.376 285.308C221.488 285.21 221.57 285.122 221.622 285.044C221.674 284.964 221.7 284.878 221.7 284.786V284.747C221.7 284.655 221.67 284.585 221.61 284.537C221.55 284.487 221.477 284.462 221.391 284.462C221.283 284.462 221.201 284.493 221.145 284.555C221.089 284.615 221.049 284.688 221.025 284.774L220.683 284.642C220.705 284.572 220.736 284.506 220.776 284.444C220.816 284.38 220.866 284.324 220.926 284.276C220.988 284.228 221.06 284.19 221.142 284.162C221.224 284.134 221.318 284.12 221.424 284.12C221.534 284.12 221.632 284.136 221.718 284.168C221.804 284.198 221.876 284.241 221.934 284.297C221.994 284.353 222.039 284.419 222.069 284.495C222.101 284.571 222.117 284.654 222.117 284.744C222.117 284.832 222.103 284.912 222.075 284.984C222.047 285.056 222.009 285.125 221.961 285.191C221.913 285.255 221.857 285.317 221.793 285.377C221.729 285.435 221.661 285.494 221.589 285.554L221.148 285.917H222.171V286.25ZM227.187 285.002C227.307 285.002 227.395 284.978 227.451 284.93C227.509 284.88 227.538 284.817 227.538 284.741V284.72C227.538 284.634 227.51 284.567 227.454 284.519C227.4 284.469 227.325 284.444 227.229 284.444C227.137 284.444 227.055 284.466 226.983 284.51C226.913 284.554 226.852 284.616 226.8 284.696L226.548 284.468C226.584 284.42 226.623 284.375 226.665 284.333C226.709 284.289 226.759 284.252 226.815 284.222C226.871 284.19 226.934 284.165 227.004 284.147C227.074 284.129 227.153 284.12 227.241 284.12C227.347 284.12 227.443 284.133 227.529 284.159C227.617 284.183 227.692 284.219 227.754 284.267C227.818 284.315 227.867 284.373 227.901 284.441C227.935 284.507 227.952 284.582 227.952 284.666C227.952 284.734 227.941 284.795 227.919 284.849C227.899 284.903 227.87 284.95 227.832 284.99C227.796 285.03 227.753 285.063 227.703 285.089C227.655 285.113 227.604 285.131 227.55 285.143V285.161C227.61 285.173 227.667 285.192 227.721 285.218C227.775 285.244 227.821 285.279 227.859 285.323C227.899 285.365 227.93 285.415 227.952 285.473C227.976 285.531 227.988 285.597 227.988 285.671C227.988 285.763 227.969 285.847 227.931 285.923C227.895 285.999 227.843 286.064 227.775 286.118C227.707 286.172 227.626 286.214 227.532 286.244C227.438 286.272 227.333 286.286 227.217 286.286C227.115 286.286 227.025 286.275 226.947 286.253C226.869 286.233 226.8 286.205 226.74 286.169C226.682 286.133 226.631 286.092 226.587 286.046C226.543 285.998 226.505 285.948 226.473 285.896L226.764 285.674C226.788 285.716 226.814 285.755 226.842 285.791C226.87 285.825 226.902 285.855 226.938 285.881C226.974 285.907 227.015 285.927 227.061 285.941C227.107 285.955 227.159 285.962 227.217 285.962C227.333 285.962 227.422 285.934 227.484 285.878C227.546 285.822 227.577 285.745 227.577 285.647V285.626C227.577 285.53 227.543 285.457 227.475 285.407C227.409 285.357 227.313 285.332 227.187 285.332H226.98V285.002H227.187ZM230.924 286.25V285.845H229.976V285.509L230.81 284.156H231.299V285.539H231.572V285.845H231.299V286.25H230.924ZM230.3 285.539H230.924V284.54H230.9L230.3 285.539ZM235.012 284.942C235.012 285.092 234.989 285.234 234.943 285.368C234.899 285.5 234.841 285.622 234.769 285.734C234.697 285.844 234.616 285.943 234.526 286.031C234.438 286.117 234.35 286.19 234.262 286.25H233.728C233.85 286.162 233.96 286.077 234.058 285.995C234.156 285.913 234.241 285.83 234.313 285.746C234.387 285.662 234.447 285.575 234.493 285.485C234.541 285.393 234.577 285.294 234.601 285.188L234.577 285.182C234.557 285.222 234.533 285.261 234.505 285.299C234.479 285.337 234.447 285.37 234.409 285.398C234.371 285.426 234.327 285.449 234.277 285.467C234.227 285.483 234.169 285.491 234.103 285.491C234.015 285.491 233.934 285.476 233.86 285.446C233.786 285.416 233.721 285.373 233.665 285.317C233.611 285.259 233.568 285.191 233.536 285.113C233.506 285.033 233.491 284.943 233.491 284.843C233.491 284.737 233.509 284.64 233.545 284.552C233.581 284.464 233.632 284.388 233.698 284.324C233.764 284.26 233.843 284.21 233.935 284.174C234.029 284.138 234.134 284.12 234.25 284.12C234.37 284.12 234.477 284.14 234.571 284.18C234.665 284.218 234.745 284.273 234.811 284.345C234.877 284.415 234.927 284.501 234.961 284.603C234.995 284.703 235.012 284.816 235.012 284.942ZM234.25 285.185C234.362 285.185 234.449 285.155 234.511 285.095C234.573 285.033 234.604 284.945 234.604 284.831V284.786C234.604 284.672 234.573 284.585 234.511 284.525C234.449 284.463 234.362 284.432 234.25 284.432C234.14 284.432 234.053 284.463 233.989 284.525C233.927 284.585 233.896 284.672 233.896 284.786V284.831C233.896 284.945 233.927 285.033 233.989 285.095C234.053 285.155 234.14 285.185 234.25 285.185ZM238.383 284.498H237.441L237.393 285.2H237.414C237.436 285.156 237.46 285.115 237.486 285.077C237.512 285.039 237.542 285.007 237.576 284.981C237.61 284.955 237.649 284.935 237.693 284.921C237.739 284.905 237.794 284.897 237.858 284.897C237.948 284.897 238.032 284.912 238.11 284.942C238.188 284.972 238.255 285.016 238.311 285.074C238.369 285.13 238.414 285.199 238.446 285.281C238.48 285.363 238.497 285.456 238.497 285.56C238.497 285.666 238.48 285.763 238.446 285.851C238.412 285.939 238.362 286.016 238.296 286.082C238.23 286.146 238.149 286.196 238.053 286.232C237.957 286.268 237.847 286.286 237.723 286.286C237.627 286.286 237.541 286.275 237.465 286.253C237.389 286.233 237.322 286.205 237.264 286.169C237.206 286.133 237.156 286.092 237.114 286.046C237.072 285.998 237.035 285.948 237.003 285.896L237.291 285.674C237.315 285.714 237.34 285.752 237.366 285.788C237.392 285.822 237.422 285.852 237.456 285.878C237.492 285.904 237.531 285.925 237.573 285.941C237.617 285.955 237.668 285.962 237.726 285.962C237.844 285.962 237.933 285.929 237.993 285.863C238.055 285.797 238.086 285.707 238.086 285.593V285.569C238.086 285.461 238.055 285.376 237.993 285.314C237.931 285.252 237.845 285.221 237.735 285.221C237.649 285.221 237.579 285.238 237.525 285.272C237.471 285.304 237.428 285.339 237.396 285.377L237.072 285.332L237.15 284.156H238.383V284.498ZM243.749 286.25V285.845H242.801V285.509L243.635 284.156H244.124V285.539H244.397V285.845H244.124V286.25H243.749ZM243.125 285.539H243.749V284.54H243.725L243.125 285.539ZM247.228 286.25V285.845H246.28V285.509L247.114 284.156H247.603V285.539H247.876V285.845H247.603V286.25H247.228ZM246.604 285.539H247.228V284.54H247.204L246.604 285.539Z" fill="#0ECACA"/>
<path d="M35.044 101.25V100.845H34.096V100.509L34.93 99.156H35.419V100.539H35.692V100.845H35.419V101.25H35.044ZM34.42 100.539H35.044V99.54H35.02L34.42 100.539ZM37.9858 101.25L38.7148 99.477H37.9918V99.861H37.6558V99.156H39.1078V99.495L38.3998 101.25H37.9858ZM34.909 109.286C34.789 109.286 34.682 109.267 34.588 109.229C34.494 109.189 34.414 109.134 34.348 109.064C34.282 108.992 34.232 108.906 34.198 108.806C34.164 108.704 34.147 108.59 34.147 108.464C34.147 108.314 34.169 108.173 34.213 108.041C34.259 107.907 34.318 107.785 34.39 107.675C34.462 107.563 34.542 107.464 34.63 107.378C34.72 107.29 34.809 107.216 34.897 107.156H35.431C35.307 107.244 35.196 107.329 35.098 107.411C35.002 107.493 34.917 107.576 34.843 107.66C34.771 107.744 34.711 107.832 34.663 107.924C34.617 108.014 34.582 108.112 34.558 108.218L34.582 108.224C34.602 108.184 34.625 108.146 34.651 108.11C34.679 108.072 34.712 108.039 34.75 108.011C34.788 107.981 34.832 107.958 34.882 107.942C34.932 107.924 34.99 107.915 35.056 107.915C35.142 107.915 35.222 107.93 35.296 107.96C35.372 107.99 35.437 108.034 35.491 108.092C35.547 108.148 35.59 108.216 35.62 108.296C35.652 108.376 35.668 108.465 35.668 108.563C35.668 108.669 35.65 108.766 35.614 108.854C35.578 108.942 35.527 109.018 35.461 109.082C35.395 109.146 35.315 109.196 35.221 109.232C35.129 109.268 35.025 109.286 34.909 109.286ZM34.909 108.974C35.019 108.974 35.105 108.944 35.167 108.884C35.231 108.822 35.263 108.734 35.263 108.62V108.575C35.263 108.461 35.231 108.374 35.167 108.314C35.105 108.252 35.019 108.221 34.909 108.221C34.797 108.221 34.71 108.252 34.648 108.314C34.586 108.374 34.555 108.461 34.555 108.575V108.62C34.555 108.734 34.586 108.822 34.648 108.884C34.71 108.944 34.797 108.974 34.909 108.974ZM38.3788 109.286C38.2568 109.286 38.1478 109.271 38.0518 109.241C37.9578 109.209 37.8778 109.166 37.8118 109.112C37.7478 109.058 37.6988 108.994 37.6648 108.92C37.6308 108.846 37.6138 108.765 37.6138 108.677C37.6138 108.541 37.6508 108.431 37.7248 108.347C37.8008 108.261 37.9018 108.201 38.0278 108.167V108.143C37.9238 108.105 37.8388 108.046 37.7728 107.966C37.7088 107.886 37.6768 107.785 37.6768 107.663C37.6768 107.583 37.6918 107.51 37.7218 107.444C37.7538 107.378 37.7998 107.321 37.8598 107.273C37.9198 107.225 37.9928 107.188 38.0788 107.162C38.1668 107.134 38.2668 107.12 38.3788 107.12C38.4908 107.12 38.5898 107.134 38.6758 107.162C38.7638 107.188 38.8378 107.225 38.8978 107.273C38.9578 107.321 39.0028 107.378 39.0328 107.444C39.0648 107.51 39.0808 107.583 39.0808 107.663C39.0808 107.785 39.0478 107.886 38.9818 107.966C38.9178 108.046 38.8338 108.105 38.7298 108.143V108.167C38.8558 108.201 38.9558 108.261 39.0298 108.347C39.1058 108.431 39.1438 108.541 39.1438 108.677C39.1438 108.765 39.1268 108.846 39.0928 108.92C39.0588 108.994 39.0088 109.058 38.9428 109.112C38.8788 109.166 38.7988 109.209 38.7028 109.241C38.6088 109.271 38.5008 109.286 38.3788 109.286ZM38.3788 108.977C38.4928 108.977 38.5798 108.951 38.6398 108.899C38.7018 108.847 38.7328 108.774 38.7328 108.68V108.617C38.7328 108.523 38.7018 108.45 38.6398 108.398C38.5798 108.346 38.4928 108.32 38.3788 108.32C38.2648 108.32 38.1768 108.346 38.1148 108.398C38.0548 108.45 38.0248 108.523 38.0248 108.617V108.68C38.0248 108.774 38.0548 108.847 38.1148 108.899C38.1768 108.951 38.2648 108.977 38.3788 108.977ZM38.3788 108.026C38.4848 108.026 38.5658 108.002 38.6218 107.954C38.6778 107.906 38.7058 107.838 38.7058 107.75V107.702C38.7058 107.616 38.6778 107.549 38.6218 107.501C38.5658 107.453 38.4848 107.429 38.3788 107.429C38.2728 107.429 38.1918 107.453 38.1358 107.501C38.0798 107.549 38.0518 107.616 38.0518 107.702V107.75C38.0518 107.838 38.0798 107.906 38.1358 107.954C38.1918 108.002 38.2728 108.026 38.3788 108.026ZM34.9 117.286C34.778 117.286 34.669 117.271 34.573 117.241C34.479 117.209 34.399 117.166 34.333 117.112C34.269 117.058 34.22 116.994 34.186 116.92C34.152 116.846 34.135 116.765 34.135 116.677C34.135 116.541 34.172 116.431 34.246 116.347C34.322 116.261 34.423 116.201 34.549 116.167V116.143C34.445 116.105 34.36 116.046 34.294 115.966C34.23 115.886 34.198 115.785 34.198 115.663C34.198 115.583 34.213 115.51 34.243 115.444C34.275 115.378 34.321 115.321 34.381 115.273C34.441 115.225 34.514 115.188 34.6 115.162C34.688 115.134 34.788 115.12 34.9 115.12C35.012 115.12 35.111 115.134 35.197 115.162C35.285 115.188 35.359 115.225 35.419 115.273C35.479 115.321 35.524 115.378 35.554 115.444C35.586 115.51 35.602 115.583 35.602 115.663C35.602 115.785 35.569 115.886 35.503 115.966C35.439 116.046 35.355 116.105 35.251 116.143V116.167C35.377 116.201 35.477 116.261 35.551 116.347C35.627 116.431 35.665 116.541 35.665 116.677C35.665 116.765 35.648 116.846 35.614 116.92C35.58 116.994 35.53 117.058 35.464 117.112C35.4 117.166 35.32 117.209 35.224 117.241C35.13 117.271 35.022 117.286 34.9 117.286ZM34.9 116.977C35.014 116.977 35.101 116.951 35.161 116.899C35.223 116.847 35.254 116.774 35.254 116.68V116.617C35.254 116.523 35.223 116.45 35.161 116.398C35.101 116.346 35.014 116.32 34.9 116.32C34.786 116.32 34.698 116.346 34.636 116.398C34.576 116.45 34.546 116.523 34.546 116.617V116.68C34.546 116.774 34.576 116.847 34.636 116.899C34.698 116.951 34.786 116.977 34.9 116.977ZM34.9 116.026C35.006 116.026 35.087 116.002 35.143 115.954C35.199 115.906 35.227 115.838 35.227 115.75V115.702C35.227 115.616 35.199 115.549 35.143 115.501C35.087 115.453 35.006 115.429 34.9 115.429C34.794 115.429 34.713 115.453 34.657 115.501C34.601 115.549 34.573 115.616 34.573 115.702V115.75C34.573 115.838 34.601 115.906 34.657 115.954C34.713 116.002 34.794 116.026 34.9 116.026ZM39.1318 115.942C39.1318 116.092 39.1088 116.234 39.0628 116.368C39.0188 116.5 38.9608 116.622 38.8888 116.734C38.8168 116.844 38.7358 116.943 38.6458 117.031C38.5578 117.117 38.4698 117.19 38.3818 117.25H37.8478C37.9698 117.162 38.0798 117.077 38.1778 116.995C38.2758 116.913 38.3608 116.83 38.4328 116.746C38.5068 116.662 38.5668 116.575 38.6128 116.485C38.6608 116.393 38.6968 116.294 38.7208 116.188L38.6968 116.182C38.6768 116.222 38.6528 116.261 38.6248 116.299C38.5988 116.337 38.5668 116.37 38.5288 116.398C38.4908 116.426 38.4468 116.449 38.3968 116.467C38.3468 116.483 38.2888 116.491 38.2228 116.491C38.1348 116.491 38.0538 116.476 37.9798 116.446C37.9058 116.416 37.8408 116.373 37.7848 116.317C37.7308 116.259 37.6878 116.191 37.6558 116.113C37.6258 116.033 37.6108 115.943 37.6108 115.843C37.6108 115.737 37.6288 115.64 37.6648 115.552C37.7008 115.464 37.7518 115.388 37.8178 115.324C37.8838 115.26 37.9628 115.21 38.0548 115.174C38.1488 115.138 38.2538 115.12 38.3698 115.12C38.4898 115.12 38.5968 115.14 38.6908 115.18C38.7848 115.218 38.8648 115.273 38.9308 115.345C38.9968 115.415 39.0468 115.501 39.0808 115.603C39.1148 115.703 39.1318 115.816 39.1318 115.942ZM38.3698 116.185C38.4818 116.185 38.5688 116.155 38.6308 116.095C38.6928 116.033 38.7238 115.945 38.7238 115.831V115.786C38.7238 115.672 38.6928 115.585 38.6308 115.525C38.5688 115.463 38.4818 115.432 38.3698 115.432C38.2598 115.432 38.1728 115.463 38.1088 115.525C38.0468 115.585 38.0158 115.672 38.0158 115.786V115.831C38.0158 115.945 38.0468 116.033 38.1088 116.095C38.1728 116.155 38.2598 116.185 38.3698 116.185ZM41.8667 117.286C41.7467 117.286 41.6397 117.267 41.5457 117.229C41.4517 117.189 41.3717 117.134 41.3057 117.064C41.2397 116.992 41.1897 116.906 41.1557 116.806C41.1217 116.704 41.1047 116.59 41.1047 116.464C41.1047 116.314 41.1267 116.173 41.1707 116.041C41.2167 115.907 41.2757 115.785 41.3477 115.675C41.4197 115.563 41.4997 115.464 41.5877 115.378C41.6777 115.29 41.7667 115.216 41.8547 115.156H42.3887C42.2647 115.244 42.1537 115.329 42.0557 115.411C41.9597 115.493 41.8747 115.576 41.8007 115.66C41.7287 115.744 41.6687 115.832 41.6207 115.924C41.5747 116.014 41.5397 116.112 41.5157 116.218L41.5397 116.224C41.5597 116.184 41.5827 116.146 41.6087 116.11C41.6367 116.072 41.6697 116.039 41.7077 116.011C41.7457 115.981 41.7897 115.958 41.8397 115.942C41.8897 115.924 41.9477 115.915 42.0137 115.915C42.0997 115.915 42.1797 115.93 42.2537 115.96C42.3297 115.99 42.3947 116.034 42.4487 116.092C42.5047 116.148 42.5477 116.216 42.5777 116.296C42.6097 116.376 42.6257 116.465 42.6257 116.563C42.6257 116.669 42.6077 116.766 42.5717 116.854C42.5357 116.942 42.4847 117.018 42.4187 117.082C42.3527 117.146 42.2727 117.196 42.1787 117.232C42.0867 117.268 41.9827 117.286 41.8667 117.286ZM41.8667 116.974C41.9767 116.974 42.0627 116.944 42.1247 116.884C42.1887 116.822 42.2207 116.734 42.2207 116.62V116.575C42.2207 116.461 42.1887 116.374 42.1247 116.314C42.0627 116.252 41.9767 116.221 41.8667 116.221C41.7547 116.221 41.6677 116.252 41.6057 116.314C41.5437 116.374 41.5127 116.461 41.5127 116.575V116.62C41.5127 116.734 41.5437 116.822 41.6057 116.884C41.6677 116.944 41.7547 116.974 41.8667 116.974ZM34.507 125.25L35.236 123.477H34.513V123.861H34.177V123.156H35.629V123.495L34.921 125.25H34.507ZM39.1168 125.25H37.6648V124.884L38.3218 124.308C38.4338 124.21 38.5158 124.122 38.5678 124.044C38.6198 123.964 38.6458 123.878 38.6458 123.786V123.747C38.6458 123.655 38.6158 123.585 38.5558 123.537C38.4958 123.487 38.4228 123.462 38.3368 123.462C38.2288 123.462 38.1468 123.493 38.0908 123.555C38.0348 123.615 37.9948 123.688 37.9708 123.774L37.6288 123.642C37.6508 123.572 37.6818 123.506 37.7218 123.444C37.7618 123.38 37.8118 123.324 37.8718 123.276C37.9338 123.228 38.0058 123.19 38.0878 123.162C38.1698 123.134 38.2638 123.12 38.3698 123.12C38.4798 123.12 38.5778 123.136 38.6638 123.168C38.7498 123.198 38.8218 123.241 38.8798 123.297C38.9398 123.353 38.9848 123.419 39.0148 123.495C39.0468 123.571 39.0628 123.654 39.0628 123.744C39.0628 123.832 39.0488 123.912 39.0208 123.984C38.9928 124.056 38.9548 124.125 38.9068 124.191C38.8588 124.255 38.8028 124.317 38.7388 124.377C38.6748 124.435 38.6068 124.494 38.5348 124.554L38.0938 124.917H39.1168V125.25ZM42.0017 125.25V124.845H41.0537V124.509L41.8877 123.156H42.3767V124.539H42.6497V124.845H42.3767V125.25H42.0017ZM41.3777 124.539H42.0017V123.54H41.9777L41.3777 124.539ZM34.9 133.286C34.778 133.286 34.669 133.271 34.573 133.241C34.479 133.209 34.399 133.166 34.333 133.112C34.269 133.058 34.22 132.994 34.186 132.92C34.152 132.846 34.135 132.765 34.135 132.677C34.135 132.541 34.172 132.431 34.246 132.347C34.322 132.261 34.423 132.201 34.549 132.167V132.143C34.445 132.105 34.36 132.046 34.294 131.966C34.23 131.886 34.198 131.785 34.198 131.663C34.198 131.583 34.213 131.51 34.243 131.444C34.275 131.378 34.321 131.321 34.381 131.273C34.441 131.225 34.514 131.188 34.6 131.162C34.688 131.134 34.788 131.12 34.9 131.12C35.012 131.12 35.111 131.134 35.197 131.162C35.285 131.188 35.359 131.225 35.419 131.273C35.479 131.321 35.524 131.378 35.554 131.444C35.586 131.51 35.602 131.583 35.602 131.663C35.602 131.785 35.569 131.886 35.503 131.966C35.439 132.046 35.355 132.105 35.251 132.143V132.167C35.377 132.201 35.477 132.261 35.551 132.347C35.627 132.431 35.665 132.541 35.665 132.677C35.665 132.765 35.648 132.846 35.614 132.92C35.58 132.994 35.53 133.058 35.464 133.112C35.4 133.166 35.32 133.209 35.224 133.241C35.13 133.271 35.022 133.286 34.9 133.286ZM34.9 132.977C35.014 132.977 35.101 132.951 35.161 132.899C35.223 132.847 35.254 132.774 35.254 132.68V132.617C35.254 132.523 35.223 132.45 35.161 132.398C35.101 132.346 35.014 132.32 34.9 132.32C34.786 132.32 34.698 132.346 34.636 132.398C34.576 132.45 34.546 132.523 34.546 132.617V132.68C34.546 132.774 34.576 132.847 34.636 132.899C34.698 132.951 34.786 132.977 34.9 132.977ZM34.9 132.026C35.006 132.026 35.087 132.002 35.143 131.954C35.199 131.906 35.227 131.838 35.227 131.75V131.702C35.227 131.616 35.199 131.549 35.143 131.501C35.087 131.453 35.006 131.429 34.9 131.429C34.794 131.429 34.713 131.453 34.657 131.501C34.601 131.549 34.573 131.616 34.573 131.702V131.75C34.573 131.838 34.601 131.906 34.657 131.954C34.713 132.002 34.794 132.026 34.9 132.026ZM34.909 141.286C34.789 141.286 34.682 141.267 34.588 141.229C34.494 141.189 34.414 141.134 34.348 141.064C34.282 140.992 34.232 140.906 34.198 140.806C34.164 140.704 34.147 140.59 34.147 140.464C34.147 140.314 34.169 140.173 34.213 140.041C34.259 139.907 34.318 139.785 34.39 139.675C34.462 139.563 34.542 139.464 34.63 139.378C34.72 139.29 34.809 139.216 34.897 139.156H35.431C35.307 139.244 35.196 139.329 35.098 139.411C35.002 139.493 34.917 139.576 34.843 139.66C34.771 139.744 34.711 139.832 34.663 139.924C34.617 140.014 34.582 140.112 34.558 140.218L34.582 140.224C34.602 140.184 34.625 140.146 34.651 140.11C34.679 140.072 34.712 140.039 34.75 140.011C34.788 139.981 34.832 139.958 34.882 139.942C34.932 139.924 34.99 139.915 35.056 139.915C35.142 139.915 35.222 139.93 35.296 139.96C35.372 139.99 35.437 140.034 35.491 140.092C35.547 140.148 35.59 140.216 35.62 140.296C35.652 140.376 35.668 140.465 35.668 140.563C35.668 140.669 35.65 140.766 35.614 140.854C35.578 140.942 35.527 141.018 35.461 141.082C35.395 141.146 35.315 141.196 35.221 141.232C35.129 141.268 35.025 141.286 34.909 141.286ZM34.909 140.974C35.019 140.974 35.105 140.944 35.167 140.884C35.231 140.822 35.263 140.734 35.263 140.62V140.575C35.263 140.461 35.231 140.374 35.167 140.314C35.105 140.252 35.019 140.221 34.909 140.221C34.797 140.221 34.71 140.252 34.648 140.314C34.586 140.374 34.555 140.461 34.555 140.575V140.62C34.555 140.734 34.586 140.822 34.648 140.884C34.71 140.944 34.797 140.974 34.909 140.974ZM34.9 149.286C34.766 149.286 34.65 149.262 34.552 149.214C34.454 149.164 34.373 149.093 34.309 149.001C34.245 148.909 34.197 148.796 34.165 148.662C34.135 148.528 34.12 148.375 34.12 148.203C34.12 148.033 34.135 147.881 34.165 147.747C34.197 147.611 34.245 147.497 34.309 147.405C34.373 147.313 34.454 147.243 34.552 147.195C34.65 147.145 34.766 147.12 34.9 147.12C35.166 147.12 35.362 147.215 35.488 147.405C35.616 147.595 35.68 147.861 35.68 148.203C35.68 148.545 35.616 148.811 35.488 149.001C35.362 149.191 35.166 149.286 34.9 149.286ZM34.9 148.953C35.034 148.953 35.127 148.903 35.179 148.803C35.233 148.701 35.26 148.564 35.26 148.392V148.014C35.26 147.842 35.233 147.706 35.179 147.606C35.127 147.504 35.034 147.453 34.9 147.453C34.766 147.453 34.672 147.504 34.618 147.606C34.566 147.706 34.54 147.842 34.54 148.014V148.392C34.54 148.564 34.566 148.701 34.618 148.803C34.672 148.903 34.766 148.953 34.9 148.953ZM39.1318 147.942C39.1318 148.092 39.1088 148.234 39.0628 148.368C39.0188 148.5 38.9608 148.622 38.8888 148.734C38.8168 148.844 38.7358 148.943 38.6458 149.031C38.5578 149.117 38.4698 149.19 38.3818 149.25H37.8478C37.9698 149.162 38.0798 149.077 38.1778 148.995C38.2758 148.913 38.3608 148.83 38.4328 148.746C38.5068 148.662 38.5668 148.575 38.6128 148.485C38.6608 148.393 38.6968 148.294 38.7208 148.188L38.6968 148.182C38.6768 148.222 38.6528 148.261 38.6248 148.299C38.5988 148.337 38.5668 148.37 38.5288 148.398C38.4908 148.426 38.4468 148.449 38.3968 148.467C38.3468 148.483 38.2888 148.491 38.2228 148.491C38.1348 148.491 38.0538 148.476 37.9798 148.446C37.9058 148.416 37.8408 148.373 37.7848 148.317C37.7308 148.259 37.6878 148.191 37.6558 148.113C37.6258 148.033 37.6108 147.943 37.6108 147.843C37.6108 147.737 37.6288 147.64 37.6648 147.552C37.7008 147.464 37.7518 147.388 37.8178 147.324C37.8838 147.26 37.9628 147.21 38.0548 147.174C38.1488 147.138 38.2538 147.12 38.3698 147.12C38.4898 147.12 38.5968 147.14 38.6908 147.18C38.7848 147.218 38.8648 147.273 38.9308 147.345C38.9968 147.415 39.0468 147.501 39.0808 147.603C39.1148 147.703 39.1318 147.816 39.1318 147.942ZM38.3698 148.185C38.4818 148.185 38.5688 148.155 38.6308 148.095C38.6928 148.033 38.7238 147.945 38.7238 147.831V147.786C38.7238 147.672 38.6928 147.585 38.6308 147.525C38.5688 147.463 38.4818 147.432 38.3698 147.432C38.2598 147.432 38.1728 147.463 38.1088 147.525C38.0468 147.585 38.0158 147.672 38.0158 147.786V147.831C38.0158 147.945 38.0468 148.033 38.1088 148.095C38.1728 148.155 38.2598 148.185 38.3698 148.185ZM34.9 157.286C34.778 157.286 34.669 157.271 34.573 157.241C34.479 157.209 34.399 157.166 34.333 157.112C34.269 157.058 34.22 156.994 34.186 156.92C34.152 156.846 34.135 156.765 34.135 156.677C34.135 156.541 34.172 156.431 34.246 156.347C34.322 156.261 34.423 156.201 34.549 156.167V156.143C34.445 156.105 34.36 156.046 34.294 155.966C34.23 155.886 34.198 155.785 34.198 155.663C34.198 155.583 34.213 155.51 34.243 155.444C34.275 155.378 34.321 155.321 34.381 155.273C34.441 155.225 34.514 155.188 34.6 155.162C34.688 155.134 34.788 155.12 34.9 155.12C35.012 155.12 35.111 155.134 35.197 155.162C35.285 155.188 35.359 155.225 35.419 155.273C35.479 155.321 35.524 155.378 35.554 155.444C35.586 155.51 35.602 155.583 35.602 155.663C35.602 155.785 35.569 155.886 35.503 155.966C35.439 156.046 35.355 156.105 35.251 156.143V156.167C35.377 156.201 35.477 156.261 35.551 156.347C35.627 156.431 35.665 156.541 35.665 156.677C35.665 156.765 35.648 156.846 35.614 156.92C35.58 156.994 35.53 157.058 35.464 157.112C35.4 157.166 35.32 157.209 35.224 157.241C35.13 157.271 35.022 157.286 34.9 157.286ZM34.9 156.977C35.014 156.977 35.101 156.951 35.161 156.899C35.223 156.847 35.254 156.774 35.254 156.68V156.617C35.254 156.523 35.223 156.45 35.161 156.398C35.101 156.346 35.014 156.32 34.9 156.32C34.786 156.32 34.698 156.346 34.636 156.398C34.576 156.45 34.546 156.523 34.546 156.617V156.68C34.546 156.774 34.576 156.847 34.636 156.899C34.698 156.951 34.786 156.977 34.9 156.977ZM34.9 156.026C35.006 156.026 35.087 156.002 35.143 155.954C35.199 155.906 35.227 155.838 35.227 155.75V155.702C35.227 155.616 35.199 155.549 35.143 155.501C35.087 155.453 35.006 155.429 34.9 155.429C34.794 155.429 34.713 155.453 34.657 155.501C34.601 155.549 34.573 155.616 34.573 155.702V155.75C34.573 155.838 34.601 155.906 34.657 155.954C34.713 156.002 34.794 156.026 34.9 156.026ZM39.1168 157.25H37.6648V156.884L38.3218 156.308C38.4338 156.21 38.5158 156.122 38.5678 156.044C38.6198 155.964 38.6458 155.878 38.6458 155.786V155.747C38.6458 155.655 38.6158 155.585 38.5558 155.537C38.4958 155.487 38.4228 155.462 38.3368 155.462C38.2288 155.462 38.1468 155.493 38.0908 155.555C38.0348 155.615 37.9948 155.688 37.9708 155.774L37.6288 155.642C37.6508 155.572 37.6818 155.506 37.7218 155.444C37.7618 155.38 37.8118 155.324 37.8718 155.276C37.9338 155.228 38.0058 155.19 38.0878 155.162C38.1698 155.134 38.2638 155.12 38.3698 155.12C38.4798 155.12 38.5778 155.136 38.6638 155.168C38.7498 155.198 38.8218 155.241 38.8798 155.297C38.9398 155.353 38.9848 155.419 39.0148 155.495C39.0468 155.571 39.0628 155.654 39.0628 155.744C39.0628 155.832 39.0488 155.912 39.0208 155.984C38.9928 156.056 38.9548 156.125 38.9068 156.191C38.8588 156.255 38.8028 156.317 38.7388 156.377C38.6748 156.435 38.6068 156.494 38.5348 156.554L38.0938 156.917H39.1168V157.25ZM34.786 164.002C34.906 164.002 34.994 163.978 35.05 163.93C35.108 163.88 35.137 163.817 35.137 163.741V163.72C35.137 163.634 35.109 163.567 35.053 163.519C34.999 163.469 34.924 163.444 34.828 163.444C34.736 163.444 34.654 163.466 34.582 163.51C34.512 163.554 34.451 163.616 34.399 163.696L34.147 163.468C34.183 163.42 34.222 163.375 34.264 163.333C34.308 163.289 34.358 163.252 34.414 163.222C34.47 163.19 34.533 163.165 34.603 163.147C34.673 163.129 34.752 163.12 34.84 163.12C34.946 163.12 35.042 163.133 35.128 163.159C35.216 163.183 35.291 163.219 35.353 163.267C35.417 163.315 35.466 163.373 35.5 163.441C35.534 163.507 35.551 163.582 35.551 163.666C35.551 163.734 35.54 163.795 35.518 163.849C35.498 163.903 35.469 163.95 35.431 163.99C35.395 164.03 35.352 164.063 35.302 164.089C35.254 164.113 35.203 164.131 35.149 164.143V164.161C35.209 164.173 35.266 164.192 35.32 164.218C35.374 164.244 35.42 164.279 35.458 164.323C35.498 164.365 35.529 164.415 35.551 164.473C35.575 164.531 35.587 164.597 35.587 164.671C35.587 164.763 35.568 164.847 35.53 164.923C35.494 164.999 35.442 165.064 35.374 165.118C35.306 165.172 35.225 165.214 35.131 165.244C35.037 165.272 34.932 165.286 34.816 165.286C34.714 165.286 34.624 165.275 34.546 165.253C34.468 165.233 34.399 165.205 34.339 165.169C34.281 165.133 34.23 165.092 34.186 165.046C34.142 164.998 34.104 164.948 34.072 164.896L34.363 164.674C34.387 164.716 34.413 164.755 34.441 164.791C34.469 164.825 34.501 164.855 34.537 164.881C34.573 164.907 34.614 164.927 34.66 164.941C34.706 164.955 34.758 164.962 34.816 164.962C34.932 164.962 35.021 164.934 35.083 164.878C35.145 164.822 35.176 164.745 35.176 164.647V164.626C35.176 164.53 35.142 164.457 35.074 164.407C35.008 164.357 34.912 164.332 34.786 164.332H34.579V164.002H34.786ZM38.5228 165.25V164.845H37.5748V164.509L38.4088 163.156H38.8978L38.8978 164.539H39.1708V164.845H38.8978V165.25H38.5228ZM37.8988 164.539H38.5228L38.5228 163.54H38.4988L37.8988 164.539ZM35.653 171.942C35.653 172.092 35.63 172.234 35.584 172.368C35.54 172.5 35.482 172.622 35.41 172.734C35.338 172.844 35.257 172.943 35.167 173.031C35.079 173.117 34.991 173.19 34.903 173.25H34.369C34.491 173.162 34.601 173.077 34.699 172.995C34.797 172.913 34.882 172.83 34.954 172.746C35.028 172.662 35.088 172.575 35.134 172.485C35.182 172.393 35.218 172.294 35.242 172.188L35.218 172.182C35.198 172.222 35.174 172.261 35.146 172.299C35.12 172.337 35.088 172.37 35.05 172.398C35.012 172.426 34.968 172.449 34.918 172.467C34.868 172.483 34.81 172.491 34.744 172.491C34.656 172.491 34.575 172.476 34.501 172.446C34.427 172.416 34.362 172.373 34.306 172.317C34.252 172.259 34.209 172.191 34.177 172.113C34.147 172.033 34.132 171.943 34.132 171.843C34.132 171.737 34.15 171.64 34.186 171.552C34.222 171.464 34.273 171.388 34.339 171.324C34.405 171.26 34.484 171.21 34.576 171.174C34.67 171.138 34.775 171.12 34.891 171.12C35.011 171.12 35.118 171.14 35.212 171.18C35.306 171.218 35.386 171.273 35.452 171.345C35.518 171.415 35.568 171.501 35.602 171.603C35.636 171.703 35.653 171.816 35.653 171.942ZM34.891 172.185C35.003 172.185 35.09 172.155 35.152 172.095C35.214 172.033 35.245 171.945 35.245 171.831V171.786C35.245 171.672 35.214 171.585 35.152 171.525C35.09 171.463 35.003 171.432 34.891 171.432C34.781 171.432 34.694 171.463 34.63 171.525C34.568 171.585 34.537 171.672 34.537 171.786V171.831C34.537 171.945 34.568 172.033 34.63 172.095C34.694 172.155 34.781 172.185 34.891 172.185ZM39.0238 171.498H38.0818L38.0338 172.2H38.0548C38.0768 172.156 38.1008 172.115 38.1268 172.077C38.1528 172.039 38.1828 172.007 38.2168 171.981C38.2508 171.955 38.2898 171.935 38.3338 171.921C38.3798 171.905 38.4348 171.897 38.4988 171.897C38.5888 171.897 38.6728 171.912 38.7508 171.942C38.8288 171.972 38.8958 172.016 38.9518 172.074C39.0098 172.13 39.0548 172.199 39.0868 172.281C39.1208 172.363 39.1378 172.456 39.1378 172.56C39.1378 172.666 39.1208 172.763 39.0868 172.851C39.0528 172.939 39.0028 173.016 38.9368 173.082C38.8708 173.146 38.7898 173.196 38.6938 173.232C38.5978 173.268 38.4878 173.286 38.3638 173.286C38.2678 173.286 38.1818 173.275 38.1058 173.253C38.0298 173.233 37.9628 173.205 37.9048 173.169C37.8468 173.133 37.7968 173.092 37.7548 173.046C37.7128 172.998 37.6758 172.948 37.6438 172.896L37.9318 172.674C37.9558 172.714 37.9808 172.752 38.0068 172.788C38.0328 172.822 38.0628 172.852 38.0968 172.878C38.1328 172.904 38.1718 172.925 38.2138 172.941C38.2578 172.955 38.3088 172.962 38.3668 172.962C38.4848 172.962 38.5738 172.929 38.6338 172.863C38.6958 172.797 38.7268 172.707 38.7268 172.593V172.569C38.7268 172.461 38.6958 172.376 38.6338 172.314C38.5718 172.252 38.4858 172.221 38.3758 172.221C38.2898 172.221 38.2198 172.238 38.1658 172.272C38.1118 172.304 38.0688 172.339 38.0368 172.377L37.7128 172.332L37.7908 171.156H39.0238V171.498ZM42.0017 173.25V172.845H41.0537V172.509L41.8877 171.156H42.3767L42.3767 172.539H42.6497V172.845H42.3767V173.25H42.0017ZM41.3777 172.539H42.0017L42.0017 171.54H41.9777L41.3777 172.539ZM45.4805 173.25V172.845H44.5325V172.509L45.3665 171.156H45.8555L45.8555 172.539H46.1285V172.845H45.8555V173.25H45.4805ZM44.8565 172.539H45.4805L45.4805 171.54H45.4565L44.8565 172.539ZM35.638 181.25H34.186V180.884L34.843 180.308C34.955 180.21 35.037 180.122 35.089 180.044C35.141 179.964 35.167 179.878 35.167 179.786V179.747C35.167 179.655 35.137 179.585 35.077 179.537C35.017 179.487 34.944 179.462 34.858 179.462C34.75 179.462 34.668 179.493 34.612 179.555C34.556 179.615 34.516 179.688 34.492 179.774L34.15 179.642C34.172 179.572 34.203 179.506 34.243 179.444C34.283 179.38 34.333 179.324 34.393 179.276C34.455 179.228 34.527 179.19 34.609 179.162C34.691 179.134 34.785 179.12 34.891 179.12C35.001 179.12 35.099 179.136 35.185 179.168C35.271 179.198 35.343 179.241 35.401 179.297C35.461 179.353 35.506 179.419 35.536 179.495C35.568 179.571 35.584 179.654 35.584 179.744C35.584 179.832 35.57 179.912 35.542 179.984C35.514 180.056 35.476 180.125 35.428 180.191C35.38 180.255 35.324 180.317 35.26 180.377C35.196 180.435 35.128 180.494 35.056 180.554L34.615 180.917H35.638V181.25ZM39.1168 181.25H37.6648V180.884L38.3218 180.308C38.4338 180.21 38.5158 180.122 38.5678 180.044C38.6198 179.964 38.6458 179.878 38.6458 179.786V179.747C38.6458 179.655 38.6158 179.585 38.5558 179.537C38.4958 179.487 38.4228 179.462 38.3368 179.462C38.2288 179.462 38.1468 179.493 38.0908 179.555C38.0348 179.615 37.9948 179.688 37.9708 179.774L37.6288 179.642C37.6508 179.572 37.6818 179.506 37.7218 179.444C37.7618 179.38 37.8118 179.324 37.8718 179.276C37.9338 179.228 38.0058 179.19 38.0878 179.162C38.1698 179.134 38.2638 179.12 38.3698 179.12C38.4798 179.12 38.5778 179.136 38.6638 179.168C38.7498 179.198 38.8218 179.241 38.8798 179.297C38.9398 179.353 38.9848 179.419 39.0148 179.495C39.0468 179.571 39.0628 179.654 39.0628 179.744C39.0628 179.832 39.0488 179.912 39.0208 179.984C38.9928 180.056 38.9548 180.125 38.9068 180.191C38.8588 180.255 38.8028 180.317 38.7388 180.377C38.6748 180.435 38.6068 180.494 38.5348 180.554L38.0938 180.917H39.1168V181.25Z" fill="#0ECACA"/>
<path d="M-8 0.25H50.2157C55.5201 0.25 60.6071 2.35714 64.3579 6.10786L92 33.75" stroke="#0ECACA" stroke-width="0.5"/>
<path d="M46.5 9.25V48.3089C46.5 54.6741 43.9714 60.7786 39.4706 65.2794L26.0294 78.7206C21.5286 83.2214 19 89.3259 19 95.6911V149.75" stroke="#0ECACA" stroke-width="0.5"/>
<path d="M48.5 63.25L31.5294 80.2206C27.0286 84.7214 24.5 90.8259 24.5 97.1911V200.868C24.5 213.598 29.5571 225.807 38.5589 234.809L79.4411 275.691C88.4429 284.693 100.652 289.75 113.382 289.75H247.059C253.424 289.75 259.529 292.279 264.029 296.779L281.971 314.721C286.471 319.221 292.576 321.75 298.941 321.75H401.559C407.924 321.75 414.029 324.279 418.529 328.779L452 362.25" stroke="#0ECACA" stroke-width="0.5"/>
<path d="M24.5 99.75H31" stroke="#0ECACA" stroke-width="0.5"/>
<path d="M24.5 139.75H31" stroke="#0ECACA" stroke-width="0.5"/>
<path d="M24.5 123.75H28" stroke="#0ECACA" stroke-width="0.5"/>
<path d="M24.5 115.75H28" stroke="#0ECACA" stroke-width="0.5"/>
<path d="M24.5 107.75H28" stroke="#0ECACA" stroke-width="0.5"/>
<path d="M24.5 131.75H28" stroke="#0ECACA" stroke-width="0.5"/>
<path d="M24.5 179.75H31" stroke="#0ECACA" stroke-width="0.5"/>
<path d="M24.5 163.75H28" stroke="#0ECACA" stroke-width="0.5"/>
<path d="M24.5 155.75H28" stroke="#0ECACA" stroke-width="0.5"/>
<path d="M24.5 147.75H28" stroke="#0ECACA" stroke-width="0.5"/>
<path d="M24.5 171.75H28" stroke="#0ECACA" stroke-width="0.5"/>
<path d="M72 268.25L79.4411 275.691C88.4429 284.693 100.652 289.75 113.382 289.75H126" stroke="#0ECACA" stroke-width="4"/>
<path d="M48.5 238.75L81.4411 271.691C90.4429 280.693 102.652 285.75 115.382 285.75H149.25M308.25 317.75H403.559C409.924 317.75 416.029 320.279 420.529 324.779L433.314 337.564C436.314 340.564 440.384 342.25 444.627 342.25H463" stroke="#0ECACA" stroke-width="0.5"/>
</svg>
