<svg width="467" height="363" viewBox="0 0 467 363" fill="none" xmlns="http://www.w3.org/2000/svg">
<rect width="17.711" height="4" transform="matrix(-0.707107 0.707107 0.707107 0.707107 391.586 12.8359)" fill="#0ECACA"/>
<rect width="17.711" height="4" transform="matrix(-1 0 0 1 159 315.25)" fill="#0ECACA"/>
<rect width="4" height="4" transform="matrix(-1 0 0 1 4 338.25)" fill="#0ECACA"/>
<rect width="7.22598" height="4" transform="matrix(-0.707107 0.707107 0.707107 0.707107 376.172 28.25)" fill="#0ECACA"/>
<rect width="7.22598" height="4" transform="matrix(-0.707107 0.707107 0.707107 0.707107 39.1719 326.25)" fill="#0ECACA"/>
<path d="M310.939 286.25V285.845H311.887V285.509L311.053 284.156H310.564V285.539H310.291V285.845H310.564V286.25H310.939ZM311.563 285.539H310.939V284.54H310.963L311.563 285.539ZM307.997 286.25L307.268 284.477H307.991V284.861H308.327V284.156H306.875V284.495L307.583 286.25H307.997ZM304.116 286.286C304.236 286.286 304.343 286.267 304.437 286.229C304.531 286.189 304.611 286.134 304.677 286.064C304.743 285.992 304.793 285.906 304.827 285.806C304.861 285.704 304.878 285.59 304.878 285.464C304.878 285.314 304.856 285.173 304.812 285.041C304.766 284.907 304.707 284.785 304.635 284.675C304.563 284.563 304.483 284.464 304.395 284.378C304.305 284.29 304.216 284.216 304.128 284.156H303.594C303.718 284.244 303.829 284.329 303.927 284.411C304.023 284.493 304.108 284.576 304.182 284.66C304.254 284.744 304.314 284.832 304.362 284.924C304.408 285.014 304.443 285.112 304.467 285.218L304.443 285.224C304.423 285.184 304.4 285.146 304.374 285.11C304.346 285.072 304.313 285.039 304.275 285.011C304.237 284.981 304.193 284.958 304.143 284.942C304.093 284.924 304.035 284.915 303.969 284.915C303.883 284.915 303.803 284.93 303.729 284.96C303.653 284.99 303.588 285.034 303.534 285.092C303.478 285.148 303.435 285.216 303.405 285.296C303.373 285.376 303.357 285.465 303.357 285.563C303.357 285.669 303.375 285.766 303.411 285.854C303.447 285.942 303.498 286.018 303.564 286.082C303.63 286.146 303.71 286.196 303.804 286.232C303.896 286.268 304 286.286 304.116 286.286ZM304.116 285.974C304.006 285.974 303.92 285.944 303.858 285.884C303.794 285.822 303.762 285.734 303.762 285.62V285.575C303.762 285.461 303.794 285.374 303.858 285.314C303.92 285.252 304.006 285.221 304.116 285.221C304.228 285.221 304.315 285.252 304.377 285.314C304.439 285.374 304.47 285.461 304.47 285.575V285.62C304.47 285.734 304.439 285.822 304.377 285.884C304.315 285.944 304.228 285.974 304.116 285.974ZM300.647 286.286C300.769 286.286 300.878 286.271 300.974 286.241C301.068 286.209 301.148 286.166 301.214 286.112C301.278 286.058 301.327 285.994 301.361 285.92C301.395 285.846 301.412 285.765 301.412 285.677C301.412 285.541 301.375 285.431 301.301 285.347C301.225 285.261 301.124 285.201 300.998 285.167V285.143C301.102 285.105 301.187 285.046 301.253 284.966C301.317 284.886 301.349 284.785 301.349 284.663C301.349 284.583 301.334 284.51 301.304 284.444C301.272 284.378 301.226 284.321 301.166 284.273C301.106 284.225 301.033 284.188 300.947 284.162C300.859 284.134 300.759 284.12 300.647 284.12C300.535 284.12 300.436 284.134 300.35 284.162C300.262 284.188 300.188 284.225 300.128 284.273C300.068 284.321 300.023 284.378 299.993 284.444C299.961 284.51 299.945 284.583 299.945 284.663C299.945 284.785 299.978 284.886 300.044 284.966C300.108 285.046 300.192 285.105 300.296 285.143V285.167C300.17 285.201 300.07 285.261 299.996 285.347C299.92 285.431 299.882 285.541 299.882 285.677C299.882 285.765 299.899 285.846 299.933 285.92C299.967 285.994 300.017 286.058 300.083 286.112C300.147 286.166 300.227 286.209 300.323 286.241C300.417 286.271 300.525 286.286 300.647 286.286ZM300.647 285.977C300.533 285.977 300.446 285.951 300.386 285.899C300.324 285.847 300.293 285.774 300.293 285.68V285.617C300.293 285.523 300.324 285.45 300.386 285.398C300.446 285.346 300.533 285.32 300.647 285.32C300.761 285.32 300.849 285.346 300.911 285.398C300.971 285.45 301.001 285.523 301.001 285.617V285.68C301.001 285.774 300.971 285.847 300.911 285.899C300.849 285.951 300.761 285.977 300.647 285.977ZM300.647 285.026C300.541 285.026 300.46 285.002 300.404 284.954C300.348 284.906 300.32 284.838 300.32 284.75V284.702C300.32 284.616 300.348 284.549 300.404 284.501C300.46 284.453 300.541 284.429 300.647 284.429C300.753 284.429 300.834 284.453 300.89 284.501C300.946 284.549 300.974 284.616 300.974 284.702V284.75C300.974 284.838 300.946 284.906 300.89 284.954C300.834 285.002 300.753 285.026 300.647 285.026ZM292.39 286.286C292.512 286.286 292.621 286.271 292.717 286.241C292.811 286.209 292.891 286.166 292.957 286.112C293.021 286.058 293.07 285.994 293.104 285.92C293.138 285.846 293.155 285.765 293.155 285.677C293.155 285.541 293.118 285.431 293.044 285.347C292.968 285.261 292.867 285.201 292.741 285.167V285.143C292.845 285.105 292.93 285.046 292.996 284.966C293.06 284.886 293.092 284.785 293.092 284.663C293.092 284.583 293.077 284.51 293.047 284.444C293.015 284.378 292.969 284.321 292.909 284.273C292.849 284.225 292.776 284.188 292.69 284.162C292.602 284.134 292.502 284.12 292.39 284.12C292.278 284.12 292.179 284.134 292.093 284.162C292.005 284.188 291.931 284.225 291.871 284.273C291.811 284.321 291.766 284.378 291.736 284.444C291.704 284.51 291.688 284.583 291.688 284.663C291.688 284.785 291.721 284.886 291.787 284.966C291.851 285.046 291.935 285.105 292.039 285.143V285.167C291.913 285.201 291.813 285.261 291.739 285.347C291.663 285.431 291.625 285.541 291.625 285.677C291.625 285.765 291.642 285.846 291.676 285.92C291.71 285.994 291.76 286.058 291.826 286.112C291.89 286.166 291.97 286.209 292.066 286.241C292.16 286.271 292.268 286.286 292.39 286.286ZM292.39 285.977C292.276 285.977 292.189 285.951 292.129 285.899C292.067 285.847 292.036 285.774 292.036 285.68V285.617C292.036 285.523 292.067 285.45 292.129 285.398C292.189 285.346 292.276 285.32 292.39 285.32C292.504 285.32 292.592 285.346 292.654 285.398C292.714 285.45 292.744 285.523 292.744 285.617V285.68C292.744 285.774 292.714 285.847 292.654 285.899C292.592 285.951 292.504 285.977 292.39 285.977ZM292.39 285.026C292.284 285.026 292.203 285.002 292.147 284.954C292.091 284.906 292.063 284.838 292.063 284.75V284.702C292.063 284.616 292.091 284.549 292.147 284.501C292.203 284.453 292.284 284.429 292.39 284.429C292.496 284.429 292.577 284.453 292.633 284.501C292.689 284.549 292.717 284.616 292.717 284.702V284.75C292.717 284.838 292.689 284.906 292.633 284.954C292.577 285.002 292.496 285.026 292.39 285.026ZM288.158 284.942C288.158 285.092 288.181 285.234 288.227 285.368C288.271 285.5 288.329 285.622 288.401 285.734C288.473 285.844 288.554 285.943 288.644 286.031C288.732 286.117 288.82 286.19 288.908 286.25H289.442C289.32 286.162 289.21 286.077 289.112 285.995C289.014 285.913 288.929 285.83 288.857 285.746C288.783 285.662 288.723 285.575 288.677 285.485C288.629 285.393 288.593 285.294 288.569 285.188L288.593 285.182C288.613 285.222 288.637 285.261 288.665 285.299C288.691 285.337 288.723 285.37 288.761 285.398C288.799 285.426 288.843 285.449 288.893 285.467C288.943 285.483 289.001 285.491 289.067 285.491C289.155 285.491 289.236 285.476 289.31 285.446C289.384 285.416 289.449 285.373 289.505 285.317C289.559 285.259 289.602 285.191 289.634 285.113C289.664 285.033 289.679 284.943 289.679 284.843C289.679 284.737 289.661 284.64 289.625 284.552C289.589 284.464 289.538 284.388 289.472 284.324C289.406 284.26 289.327 284.21 289.235 284.174C289.141 284.138 289.036 284.12 288.92 284.12C288.8 284.12 288.693 284.14 288.599 284.18C288.505 284.218 288.425 284.273 288.359 284.345C288.293 284.415 288.243 284.501 288.209 284.603C288.175 284.703 288.158 284.816 288.158 284.942ZM288.92 285.185C288.808 285.185 288.721 285.155 288.659 285.095C288.597 285.033 288.566 284.945 288.566 284.831V284.786C288.566 284.672 288.597 284.585 288.659 284.525C288.721 284.463 288.808 284.432 288.92 284.432C289.03 284.432 289.117 284.463 289.181 284.525C289.243 284.585 289.274 284.672 289.274 284.786V284.831C289.274 284.945 289.243 285.033 289.181 285.095C289.117 285.155 289.03 285.185 288.92 285.185ZM285.423 286.286C285.543 286.286 285.65 286.267 285.744 286.229C285.838 286.189 285.918 286.134 285.984 286.064C286.05 285.992 286.1 285.906 286.134 285.806C286.168 285.704 286.185 285.59 286.185 285.464C286.185 285.314 286.163 285.173 286.119 285.041C286.073 284.907 286.014 284.785 285.942 284.675C285.87 284.563 285.79 284.464 285.702 284.378C285.612 284.29 285.523 284.216 285.435 284.156H284.901C285.025 284.244 285.136 284.329 285.234 284.411C285.33 284.493 285.415 284.576 285.489 284.66C285.561 284.744 285.621 284.832 285.669 284.924C285.715 285.014 285.75 285.112 285.774 285.218L285.75 285.224C285.73 285.184 285.707 285.146 285.681 285.11C285.653 285.072 285.62 285.039 285.582 285.011C285.544 284.981 285.5 284.958 285.45 284.942C285.4 284.924 285.342 284.915 285.276 284.915C285.19 284.915 285.11 284.93 285.036 284.96C284.96 284.99 284.895 285.034 284.841 285.092C284.785 285.148 284.742 285.216 284.712 285.296C284.68 285.376 284.664 285.465 284.664 285.563C284.664 285.669 284.682 285.766 284.718 285.854C284.754 285.942 284.805 286.018 284.871 286.082C284.937 286.146 285.017 286.196 285.111 286.232C285.203 286.268 285.307 286.286 285.423 286.286ZM285.423 285.974C285.313 285.974 285.227 285.944 285.165 285.884C285.101 285.822 285.069 285.734 285.069 285.62V285.575C285.069 285.461 285.101 285.374 285.165 285.314C285.227 285.252 285.313 285.221 285.423 285.221C285.535 285.221 285.622 285.252 285.684 285.314C285.746 285.374 285.777 285.461 285.777 285.575V285.62C285.777 285.734 285.746 285.822 285.684 285.884C285.622 285.944 285.535 285.974 285.423 285.974ZM282.346 286.25L281.617 284.477H282.34V284.861H282.676V284.156H281.224V284.495L281.932 286.25H282.346ZM277.736 286.25H279.188V285.884L278.531 285.308C278.419 285.21 278.337 285.122 278.285 285.044C278.233 284.964 278.207 284.878 278.207 284.786V284.747C278.207 284.655 278.237 284.585 278.297 284.537C278.357 284.487 278.43 284.462 278.516 284.462C278.624 284.462 278.706 284.493 278.762 284.555C278.818 284.615 278.858 284.688 278.882 284.774L279.224 284.642C279.202 284.572 279.171 284.506 279.131 284.444C279.091 284.38 279.041 284.324 278.981 284.276C278.919 284.228 278.847 284.19 278.765 284.162C278.683 284.134 278.589 284.12 278.483 284.12C278.373 284.12 278.275 284.136 278.189 284.168C278.103 284.198 278.031 284.241 277.973 284.297C277.913 284.353 277.868 284.419 277.838 284.495C277.806 284.571 277.79 284.654 277.79 284.744C277.79 284.832 277.804 284.912 277.832 284.984C277.86 285.056 277.898 285.125 277.946 285.191C277.994 285.255 278.05 285.317 278.114 285.377C278.178 285.435 278.246 285.494 278.318 285.554L278.759 285.917H277.736V286.25ZM274.852 286.25V285.845H275.8V285.509L274.966 284.156H274.477V285.539H274.204V285.845H274.477V286.25H274.852ZM275.476 285.539H274.852V284.54H274.876L275.476 285.539ZM271.517 286.286C271.639 286.286 271.748 286.271 271.844 286.241C271.938 286.209 272.018 286.166 272.084 286.112C272.148 286.058 272.197 285.994 272.231 285.92C272.265 285.846 272.282 285.765 272.282 285.677C272.282 285.541 272.245 285.431 272.171 285.347C272.095 285.261 271.994 285.201 271.868 285.167V285.143C271.972 285.105 272.057 285.046 272.123 284.966C272.187 284.886 272.219 284.785 272.219 284.663C272.219 284.583 272.204 284.51 272.174 284.444C272.142 284.378 272.096 284.321 272.036 284.273C271.976 284.225 271.903 284.188 271.817 284.162C271.729 284.134 271.629 284.12 271.517 284.12C271.405 284.12 271.306 284.134 271.22 284.162C271.132 284.188 271.058 284.225 270.998 284.273C270.938 284.321 270.893 284.378 270.863 284.444C270.831 284.51 270.815 284.583 270.815 284.663C270.815 284.785 270.848 284.886 270.914 284.966C270.978 285.046 271.062 285.105 271.166 285.143V285.167C271.04 285.201 270.94 285.261 270.866 285.347C270.79 285.431 270.752 285.541 270.752 285.677C270.752 285.765 270.769 285.846 270.803 285.92C270.837 285.994 270.887 286.058 270.953 286.112C271.017 286.166 271.097 286.209 271.193 286.241C271.287 286.271 271.395 286.286 271.517 286.286ZM271.517 285.977C271.403 285.977 271.316 285.951 271.256 285.899C271.194 285.847 271.163 285.774 271.163 285.68V285.617C271.163 285.523 271.194 285.45 271.256 285.398C271.316 285.346 271.403 285.32 271.517 285.32C271.631 285.32 271.719 285.346 271.781 285.398C271.841 285.45 271.871 285.523 271.871 285.617V285.68C271.871 285.774 271.841 285.847 271.781 285.899C271.719 285.951 271.631 285.977 271.517 285.977ZM271.517 285.026C271.411 285.026 271.33 285.002 271.274 284.954C271.218 284.906 271.19 284.838 271.19 284.75V284.702C271.19 284.616 271.218 284.549 271.274 284.501C271.33 284.453 271.411 284.429 271.517 284.429C271.623 284.429 271.704 284.453 271.76 284.501C271.816 284.549 271.844 284.616 271.844 284.702V284.75C271.844 284.838 271.816 284.906 271.76 284.954C271.704 285.002 271.623 285.026 271.517 285.026ZM263.251 286.286C263.371 286.286 263.478 286.267 263.572 286.229C263.666 286.189 263.746 286.134 263.812 286.064C263.878 285.992 263.928 285.906 263.962 285.806C263.996 285.704 264.013 285.59 264.013 285.464C264.013 285.314 263.991 285.173 263.947 285.041C263.901 284.907 263.842 284.785 263.77 284.675C263.698 284.563 263.618 284.464 263.53 284.378C263.44 284.29 263.351 284.216 263.263 284.156H262.729C262.853 284.244 262.964 284.329 263.062 284.411C263.158 284.493 263.243 284.576 263.317 284.66C263.389 284.744 263.449 284.832 263.497 284.924C263.543 285.014 263.578 285.112 263.602 285.218L263.578 285.224C263.558 285.184 263.535 285.146 263.509 285.11C263.481 285.072 263.448 285.039 263.41 285.011C263.372 284.981 263.328 284.958 263.278 284.942C263.228 284.924 263.17 284.915 263.104 284.915C263.018 284.915 262.938 284.93 262.864 284.96C262.788 284.99 262.723 285.034 262.669 285.092C262.613 285.148 262.57 285.216 262.54 285.296C262.508 285.376 262.492 285.465 262.492 285.563C262.492 285.669 262.51 285.766 262.546 285.854C262.582 285.942 262.633 286.018 262.699 286.082C262.765 286.146 262.845 286.196 262.939 286.232C263.031 286.268 263.135 286.286 263.251 286.286ZM263.251 285.974C263.141 285.974 263.055 285.944 262.993 285.884C262.929 285.822 262.897 285.734 262.897 285.62V285.575C262.897 285.461 262.929 285.374 262.993 285.314C263.055 285.252 263.141 285.221 263.251 285.221C263.363 285.221 263.45 285.252 263.512 285.314C263.574 285.374 263.605 285.461 263.605 285.575V285.62C263.605 285.734 263.574 285.822 263.512 285.884C263.45 285.944 263.363 285.974 263.251 285.974ZM255.003 286.286C255.137 286.286 255.253 286.262 255.351 286.214C255.449 286.164 255.53 286.093 255.594 286.001C255.658 285.909 255.706 285.796 255.738 285.662C255.768 285.528 255.783 285.375 255.783 285.203C255.783 285.033 255.768 284.881 255.738 284.747C255.706 284.611 255.658 284.497 255.594 284.405C255.53 284.313 255.449 284.243 255.351 284.195C255.253 284.145 255.137 284.12 255.003 284.12C254.737 284.12 254.541 284.215 254.415 284.405C254.287 284.595 254.223 284.861 254.223 285.203C254.223 285.545 254.287 285.811 254.415 286.001C254.541 286.191 254.737 286.286 255.003 286.286ZM255.003 285.953C254.869 285.953 254.776 285.903 254.724 285.803C254.67 285.701 254.643 285.564 254.643 285.392V285.014C254.643 284.842 254.67 284.706 254.724 284.606C254.776 284.504 254.869 284.453 255.003 284.453C255.137 284.453 255.231 284.504 255.285 284.606C255.337 284.706 255.363 284.842 255.363 285.014V285.392C255.363 285.564 255.337 285.701 255.285 285.803C255.231 285.903 255.137 285.953 255.003 285.953ZM250.771 284.942C250.771 285.092 250.794 285.234 250.84 285.368C250.884 285.5 250.942 285.622 251.014 285.734C251.086 285.844 251.167 285.943 251.257 286.031C251.345 286.117 251.433 286.19 251.521 286.25H252.055C251.933 286.162 251.823 286.077 251.725 285.995C251.627 285.913 251.542 285.83 251.47 285.746C251.396 285.662 251.336 285.575 251.29 285.485C251.242 285.393 251.206 285.294 251.182 285.188L251.206 285.182C251.226 285.222 251.25 285.261 251.278 285.299C251.304 285.337 251.336 285.37 251.374 285.398C251.412 285.426 251.456 285.449 251.506 285.467C251.556 285.483 251.614 285.491 251.68 285.491C251.768 285.491 251.849 285.476 251.923 285.446C251.997 285.416 252.062 285.373 252.118 285.317C252.172 285.259 252.215 285.191 252.247 285.113C252.277 285.033 252.292 284.943 252.292 284.843C252.292 284.737 252.274 284.64 252.238 284.552C252.202 284.464 252.151 284.388 252.085 284.324C252.019 284.26 251.94 284.21 251.848 284.174C251.754 284.138 251.649 284.12 251.533 284.12C251.413 284.12 251.306 284.14 251.212 284.18C251.118 284.218 251.038 284.273 250.972 284.345C250.906 284.415 250.856 284.501 250.822 284.603C250.788 284.703 250.771 284.816 250.771 284.942ZM251.533 285.185C251.421 285.185 251.334 285.155 251.272 285.095C251.21 285.033 251.179 284.945 251.179 284.831V284.786C251.179 284.672 251.21 284.585 251.272 284.525C251.334 284.463 251.421 284.432 251.533 284.432C251.643 284.432 251.73 284.463 251.794 284.525C251.856 284.585 251.887 284.672 251.887 284.786V284.831C251.887 284.945 251.856 285.033 251.794 285.095C251.73 285.155 251.643 285.185 251.533 285.185ZM248.046 286.286C248.168 286.286 248.277 286.271 248.373 286.241C248.467 286.209 248.547 286.166 248.613 286.112C248.677 286.058 248.726 285.994 248.76 285.92C248.794 285.846 248.811 285.765 248.811 285.677C248.811 285.541 248.774 285.431 248.7 285.347C248.624 285.261 248.523 285.201 248.397 285.167V285.143C248.501 285.105 248.586 285.046 248.652 284.966C248.716 284.886 248.748 284.785 248.748 284.663C248.748 284.583 248.733 284.51 248.703 284.444C248.671 284.378 248.625 284.321 248.565 284.273C248.505 284.225 248.432 284.188 248.346 284.162C248.258 284.134 248.158 284.12 248.046 284.12C247.934 284.12 247.835 284.134 247.749 284.162C247.661 284.188 247.587 284.225 247.527 284.273C247.467 284.321 247.422 284.378 247.392 284.444C247.36 284.51 247.344 284.583 247.344 284.663C247.344 284.785 247.377 284.886 247.443 284.966C247.507 285.046 247.591 285.105 247.695 285.143V285.167C247.569 285.201 247.469 285.261 247.395 285.347C247.319 285.431 247.281 285.541 247.281 285.677C247.281 285.765 247.298 285.846 247.332 285.92C247.366 285.994 247.416 286.058 247.482 286.112C247.546 286.166 247.626 286.209 247.722 286.241C247.816 286.271 247.924 286.286 248.046 286.286ZM248.046 285.977C247.932 285.977 247.845 285.951 247.785 285.899C247.723 285.847 247.692 285.774 247.692 285.68V285.617C247.692 285.523 247.723 285.45 247.785 285.398C247.845 285.346 247.932 285.32 248.046 285.32C248.16 285.32 248.248 285.346 248.31 285.398C248.37 285.45 248.4 285.523 248.4 285.617V285.68C248.4 285.774 248.37 285.847 248.31 285.899C248.248 285.951 248.16 285.977 248.046 285.977ZM248.046 285.026C247.94 285.026 247.859 285.002 247.803 284.954C247.747 284.906 247.719 284.838 247.719 284.75V284.702C247.719 284.616 247.747 284.549 247.803 284.501C247.859 284.453 247.94 284.429 248.046 284.429C248.152 284.429 248.233 284.453 248.289 284.501C248.345 284.549 248.373 284.616 248.373 284.702V284.75C248.373 284.838 248.345 284.906 248.289 284.954C248.233 285.002 248.152 285.026 248.046 285.026ZM243.829 286.25H245.281V285.884L244.624 285.308C244.512 285.21 244.43 285.122 244.378 285.044C244.326 284.964 244.3 284.878 244.3 284.786V284.747C244.3 284.655 244.33 284.585 244.39 284.537C244.45 284.487 244.523 284.462 244.609 284.462C244.717 284.462 244.799 284.493 244.855 284.555C244.911 284.615 244.951 284.688 244.975 284.774L245.317 284.642C245.295 284.572 245.264 284.506 245.224 284.444C245.184 284.38 245.134 284.324 245.074 284.276C245.012 284.228 244.94 284.19 244.858 284.162C244.776 284.134 244.682 284.12 244.576 284.12C244.466 284.12 244.368 284.136 244.282 284.168C244.196 284.198 244.124 284.241 244.066 284.297C244.006 284.353 243.961 284.419 243.931 284.495C243.899 284.571 243.883 284.654 243.883 284.744C243.883 284.832 243.897 284.912 243.925 284.984C243.953 285.056 243.991 285.125 244.039 285.191C244.087 285.255 244.143 285.317 244.207 285.377C244.271 285.435 244.339 285.494 244.411 285.554L244.852 285.917H243.829V286.25ZM238.813 285.002C238.693 285.002 238.605 284.978 238.549 284.93C238.491 284.88 238.462 284.817 238.462 284.741V284.72C238.462 284.634 238.49 284.567 238.546 284.519C238.6 284.469 238.675 284.444 238.771 284.444C238.863 284.444 238.945 284.466 239.017 284.51C239.087 284.554 239.148 284.616 239.2 284.696L239.452 284.468C239.416 284.42 239.377 284.375 239.335 284.333C239.291 284.289 239.241 284.252 239.185 284.222C239.129 284.19 239.066 284.165 238.996 284.147C238.926 284.129 238.847 284.12 238.759 284.12C238.653 284.12 238.557 284.133 238.471 284.159C238.383 284.183 238.308 284.219 238.246 284.267C238.182 284.315 238.133 284.373 238.099 284.441C238.065 284.507 238.048 284.582 238.048 284.666C238.048 284.734 238.059 284.795 238.081 284.849C238.101 284.903 238.13 284.95 238.168 284.99C238.204 285.03 238.247 285.063 238.297 285.089C238.345 285.113 238.396 285.131 238.45 285.143V285.161C238.39 285.173 238.333 285.192 238.279 285.218C238.225 285.244 238.179 285.279 238.141 285.323C238.101 285.365 238.07 285.415 238.048 285.473C238.024 285.531 238.012 285.597 238.012 285.671C238.012 285.763 238.031 285.847 238.069 285.923C238.105 285.999 238.157 286.064 238.225 286.118C238.293 286.172 238.374 286.214 238.468 286.244C238.562 286.272 238.667 286.286 238.783 286.286C238.885 286.286 238.975 286.275 239.053 286.253C239.131 286.233 239.2 286.205 239.26 286.169C239.318 286.133 239.369 286.092 239.413 286.046C239.457 285.998 239.495 285.948 239.527 285.896L239.236 285.674C239.212 285.716 239.186 285.755 239.158 285.791C239.13 285.825 239.098 285.855 239.062 285.881C239.026 285.907 238.985 285.927 238.939 285.941C238.893 285.955 238.841 285.962 238.783 285.962C238.667 285.962 238.578 285.934 238.516 285.878C238.454 285.822 238.423 285.745 238.423 285.647V285.626C238.423 285.53 238.457 285.457 238.525 285.407C238.591 285.357 238.687 285.332 238.813 285.332H239.02V285.002H238.813ZM235.076 286.25V285.845H236.024V285.509L235.19 284.156H234.701V285.539H234.428V285.845H234.701V286.25H235.076ZM235.7 285.539H235.076V284.54H235.1L235.7 285.539ZM230.988 284.942C230.988 285.092 231.011 285.234 231.057 285.368C231.101 285.5 231.159 285.622 231.231 285.734C231.303 285.844 231.384 285.943 231.474 286.031C231.562 286.117 231.65 286.19 231.738 286.25H232.272C232.15 286.162 232.04 286.077 231.942 285.995C231.844 285.913 231.759 285.83 231.687 285.746C231.613 285.662 231.553 285.575 231.507 285.485C231.459 285.393 231.423 285.294 231.399 285.188L231.423 285.182C231.443 285.222 231.467 285.261 231.495 285.299C231.521 285.337 231.553 285.37 231.591 285.398C231.629 285.426 231.673 285.449 231.723 285.467C231.773 285.483 231.831 285.491 231.897 285.491C231.985 285.491 232.066 285.476 232.14 285.446C232.214 285.416 232.279 285.373 232.335 285.317C232.389 285.259 232.432 285.191 232.464 285.113C232.494 285.033 232.509 284.943 232.509 284.843C232.509 284.737 232.491 284.64 232.455 284.552C232.419 284.464 232.368 284.388 232.302 284.324C232.236 284.26 232.157 284.21 232.065 284.174C231.971 284.138 231.866 284.12 231.75 284.12C231.63 284.12 231.523 284.14 231.429 284.18C231.335 284.218 231.255 284.273 231.189 284.345C231.123 284.415 231.073 284.501 231.039 284.603C231.005 284.703 230.988 284.816 230.988 284.942ZM231.75 285.185C231.638 285.185 231.551 285.155 231.489 285.095C231.427 285.033 231.396 284.945 231.396 284.831V284.786C231.396 284.672 231.427 284.585 231.489 284.525C231.551 284.463 231.638 284.432 231.75 284.432C231.86 284.432 231.947 284.463 232.011 284.525C232.073 284.585 232.104 284.672 232.104 284.786V284.831C232.104 284.945 232.073 285.033 232.011 285.095C231.947 285.155 231.86 285.185 231.75 285.185ZM227.617 284.498H228.559L228.607 285.2H228.586C228.564 285.156 228.54 285.115 228.514 285.077C228.488 285.039 228.458 285.007 228.424 284.981C228.39 284.955 228.351 284.935 228.307 284.921C228.261 284.905 228.206 284.897 228.142 284.897C228.052 284.897 227.968 284.912 227.89 284.942C227.812 284.972 227.745 285.016 227.689 285.074C227.631 285.13 227.586 285.199 227.554 285.281C227.52 285.363 227.503 285.456 227.503 285.56C227.503 285.666 227.52 285.763 227.554 285.851C227.588 285.939 227.638 286.016 227.704 286.082C227.77 286.146 227.851 286.196 227.947 286.232C228.043 286.268 228.153 286.286 228.277 286.286C228.373 286.286 228.459 286.275 228.535 286.253C228.611 286.233 228.678 286.205 228.736 286.169C228.794 286.133 228.844 286.092 228.886 286.046C228.928 285.998 228.965 285.948 228.997 285.896L228.709 285.674C228.685 285.714 228.66 285.752 228.634 285.788C228.608 285.822 228.578 285.852 228.544 285.878C228.508 285.904 228.469 285.925 228.427 285.941C228.383 285.955 228.332 285.962 228.274 285.962C228.156 285.962 228.067 285.929 228.007 285.863C227.945 285.797 227.914 285.707 227.914 285.593V285.569C227.914 285.461 227.945 285.376 228.007 285.314C228.069 285.252 228.155 285.221 228.265 285.221C228.351 285.221 228.421 285.238 228.475 285.272C228.529 285.304 228.572 285.339 228.604 285.377L228.928 285.332L228.85 284.156H227.617V284.498ZM222.251 286.25V285.845H223.199V285.509L222.365 284.156H221.876V285.539H221.603V285.845H221.876V286.25H222.251ZM222.875 285.539H222.251V284.54H222.275L222.875 285.539ZM218.772 286.25V285.845H219.72V285.509L218.886 284.156H218.397V285.539H218.124V285.845H218.397V286.25H218.772ZM219.396 285.539H218.772V284.54H218.796L219.396 285.539Z" fill="#0ECACA"/>
<path d="M430.956 101.25V100.845H431.904V100.509L431.07 99.156H430.581V100.539H430.308V100.845H430.581V101.25H430.956ZM431.58 100.539H430.956V99.54H430.98L431.58 100.539ZM428.014 101.25L427.285 99.477H428.008V99.861H428.344V99.156H426.892V99.495L427.6 101.25H428.014ZM431.091 109.286C431.211 109.286 431.318 109.267 431.412 109.229C431.506 109.189 431.586 109.134 431.652 109.064C431.718 108.992 431.768 108.906 431.802 108.806C431.836 108.704 431.853 108.59 431.853 108.464C431.853 108.314 431.831 108.173 431.787 108.041C431.741 107.907 431.682 107.785 431.61 107.675C431.538 107.563 431.458 107.464 431.37 107.378C431.28 107.29 431.191 107.216 431.103 107.156H430.569C430.693 107.244 430.804 107.329 430.902 107.411C430.998 107.493 431.083 107.576 431.157 107.66C431.229 107.744 431.289 107.832 431.337 107.924C431.383 108.014 431.418 108.112 431.442 108.218L431.418 108.224C431.398 108.184 431.375 108.146 431.349 108.11C431.321 108.072 431.288 108.039 431.25 108.011C431.212 107.981 431.168 107.958 431.118 107.942C431.068 107.924 431.01 107.915 430.944 107.915C430.858 107.915 430.778 107.93 430.704 107.96C430.628 107.99 430.563 108.034 430.509 108.092C430.453 108.148 430.41 108.216 430.38 108.296C430.348 108.376 430.332 108.465 430.332 108.563C430.332 108.669 430.35 108.766 430.386 108.854C430.422 108.942 430.473 109.018 430.539 109.082C430.605 109.146 430.685 109.196 430.779 109.232C430.871 109.268 430.975 109.286 431.091 109.286ZM431.091 108.974C430.981 108.974 430.895 108.944 430.833 108.884C430.769 108.822 430.737 108.734 430.737 108.62V108.575C430.737 108.461 430.769 108.374 430.833 108.314C430.895 108.252 430.981 108.221 431.091 108.221C431.203 108.221 431.29 108.252 431.352 108.314C431.414 108.374 431.445 108.461 431.445 108.575V108.62C431.445 108.734 431.414 108.822 431.352 108.884C431.29 108.944 431.203 108.974 431.091 108.974ZM427.621 109.286C427.743 109.286 427.852 109.271 427.948 109.241C428.042 109.209 428.122 109.166 428.188 109.112C428.252 109.058 428.301 108.994 428.335 108.92C428.369 108.846 428.386 108.765 428.386 108.677C428.386 108.541 428.349 108.431 428.275 108.347C428.199 108.261 428.098 108.201 427.972 108.167V108.143C428.076 108.105 428.161 108.046 428.227 107.966C428.291 107.886 428.323 107.785 428.323 107.663C428.323 107.583 428.308 107.51 428.278 107.444C428.246 107.378 428.2 107.321 428.14 107.273C428.08 107.225 428.007 107.188 427.921 107.162C427.833 107.134 427.733 107.12 427.621 107.12C427.509 107.12 427.41 107.134 427.324 107.162C427.236 107.188 427.162 107.225 427.102 107.273C427.042 107.321 426.997 107.378 426.967 107.444C426.935 107.51 426.919 107.583 426.919 107.663C426.919 107.785 426.952 107.886 427.018 107.966C427.082 108.046 427.166 108.105 427.27 108.143V108.167C427.144 108.201 427.044 108.261 426.97 108.347C426.894 108.431 426.856 108.541 426.856 108.677C426.856 108.765 426.873 108.846 426.907 108.92C426.941 108.994 426.991 109.058 427.057 109.112C427.121 109.166 427.201 109.209 427.297 109.241C427.391 109.271 427.499 109.286 427.621 109.286ZM427.621 108.977C427.507 108.977 427.42 108.951 427.36 108.899C427.298 108.847 427.267 108.774 427.267 108.68V108.617C427.267 108.523 427.298 108.45 427.36 108.398C427.42 108.346 427.507 108.32 427.621 108.32C427.735 108.32 427.823 108.346 427.885 108.398C427.945 108.45 427.975 108.523 427.975 108.617V108.68C427.975 108.774 427.945 108.847 427.885 108.899C427.823 108.951 427.735 108.977 427.621 108.977ZM427.621 108.026C427.515 108.026 427.434 108.002 427.378 107.954C427.322 107.906 427.294 107.838 427.294 107.75V107.702C427.294 107.616 427.322 107.549 427.378 107.501C427.434 107.453 427.515 107.429 427.621 107.429C427.727 107.429 427.808 107.453 427.864 107.501C427.92 107.549 427.948 107.616 427.948 107.702V107.75C427.948 107.838 427.92 107.906 427.864 107.954C427.808 108.002 427.727 108.026 427.621 108.026ZM431.1 117.286C431.222 117.286 431.331 117.271 431.427 117.241C431.521 117.209 431.601 117.166 431.667 117.112C431.731 117.058 431.78 116.994 431.814 116.92C431.848 116.846 431.865 116.765 431.865 116.677C431.865 116.541 431.828 116.431 431.754 116.347C431.678 116.261 431.577 116.201 431.451 116.167V116.143C431.555 116.105 431.64 116.046 431.706 115.966C431.77 115.886 431.802 115.785 431.802 115.663C431.802 115.583 431.787 115.51 431.757 115.444C431.725 115.378 431.679 115.321 431.619 115.273C431.559 115.225 431.486 115.188 431.4 115.162C431.312 115.134 431.212 115.12 431.1 115.12C430.988 115.12 430.889 115.134 430.803 115.162C430.715 115.188 430.641 115.225 430.581 115.273C430.521 115.321 430.476 115.378 430.446 115.444C430.414 115.51 430.398 115.583 430.398 115.663C430.398 115.785 430.431 115.886 430.497 115.966C430.561 116.046 430.645 116.105 430.749 116.143V116.167C430.623 116.201 430.523 116.261 430.449 116.347C430.373 116.431 430.335 116.541 430.335 116.677C430.335 116.765 430.352 116.846 430.386 116.92C430.42 116.994 430.47 117.058 430.536 117.112C430.6 117.166 430.68 117.209 430.776 117.241C430.87 117.271 430.978 117.286 431.1 117.286ZM431.1 116.977C430.986 116.977 430.899 116.951 430.839 116.899C430.777 116.847 430.746 116.774 430.746 116.68V116.617C430.746 116.523 430.777 116.45 430.839 116.398C430.899 116.346 430.986 116.32 431.1 116.32C431.214 116.32 431.302 116.346 431.364 116.398C431.424 116.45 431.454 116.523 431.454 116.617V116.68C431.454 116.774 431.424 116.847 431.364 116.899C431.302 116.951 431.214 116.977 431.1 116.977ZM431.1 116.026C430.994 116.026 430.913 116.002 430.857 115.954C430.801 115.906 430.773 115.838 430.773 115.75V115.702C430.773 115.616 430.801 115.549 430.857 115.501C430.913 115.453 430.994 115.429 431.1 115.429C431.206 115.429 431.287 115.453 431.343 115.501C431.399 115.549 431.427 115.616 431.427 115.702V115.75C431.427 115.838 431.399 115.906 431.343 115.954C431.287 116.002 431.206 116.026 431.1 116.026ZM426.868 115.942C426.868 116.092 426.891 116.234 426.937 116.368C426.981 116.5 427.039 116.622 427.111 116.734C427.183 116.844 427.264 116.943 427.354 117.031C427.442 117.117 427.53 117.19 427.618 117.25H428.152C428.03 117.162 427.92 117.077 427.822 116.995C427.724 116.913 427.639 116.83 427.567 116.746C427.493 116.662 427.433 116.575 427.387 116.485C427.339 116.393 427.303 116.294 427.279 116.188L427.303 116.182C427.323 116.222 427.347 116.261 427.375 116.299C427.401 116.337 427.433 116.37 427.471 116.398C427.509 116.426 427.553 116.449 427.603 116.467C427.653 116.483 427.711 116.491 427.777 116.491C427.865 116.491 427.946 116.476 428.02 116.446C428.094 116.416 428.159 116.373 428.215 116.317C428.269 116.259 428.312 116.191 428.344 116.113C428.374 116.033 428.389 115.943 428.389 115.843C428.389 115.737 428.371 115.64 428.335 115.552C428.299 115.464 428.248 115.388 428.182 115.324C428.116 115.26 428.037 115.21 427.945 115.174C427.851 115.138 427.746 115.12 427.63 115.12C427.51 115.12 427.403 115.14 427.309 115.18C427.215 115.218 427.135 115.273 427.069 115.345C427.003 115.415 426.953 115.501 426.919 115.603C426.885 115.703 426.868 115.816 426.868 115.942ZM427.63 116.185C427.518 116.185 427.431 116.155 427.369 116.095C427.307 116.033 427.276 115.945 427.276 115.831V115.786C427.276 115.672 427.307 115.585 427.369 115.525C427.431 115.463 427.518 115.432 427.63 115.432C427.74 115.432 427.827 115.463 427.891 115.525C427.953 115.585 427.984 115.672 427.984 115.786V115.831C427.984 115.945 427.953 116.033 427.891 116.095C427.827 116.155 427.74 116.185 427.63 116.185ZM424.133 117.286C424.253 117.286 424.36 117.267 424.454 117.229C424.548 117.189 424.628 117.134 424.694 117.064C424.76 116.992 424.81 116.906 424.844 116.806C424.878 116.704 424.895 116.59 424.895 116.464C424.895 116.314 424.873 116.173 424.829 116.041C424.783 115.907 424.724 115.785 424.652 115.675C424.58 115.563 424.5 115.464 424.412 115.378C424.322 115.29 424.233 115.216 424.145 115.156H423.611C423.735 115.244 423.846 115.329 423.944 115.411C424.04 115.493 424.125 115.576 424.199 115.66C424.271 115.744 424.331 115.832 424.379 115.924C424.425 116.014 424.46 116.112 424.484 116.218L424.46 116.224C424.44 116.184 424.417 116.146 424.391 116.11C424.363 116.072 424.33 116.039 424.292 116.011C424.254 115.981 424.21 115.958 424.16 115.942C424.11 115.924 424.052 115.915 423.986 115.915C423.9 115.915 423.82 115.93 423.746 115.96C423.67 115.99 423.605 116.034 423.551 116.092C423.495 116.148 423.452 116.216 423.422 116.296C423.39 116.376 423.374 116.465 423.374 116.563C423.374 116.669 423.392 116.766 423.428 116.854C423.464 116.942 423.515 117.018 423.581 117.082C423.647 117.146 423.727 117.196 423.821 117.232C423.913 117.268 424.017 117.286 424.133 117.286ZM424.133 116.974C424.023 116.974 423.937 116.944 423.875 116.884C423.811 116.822 423.779 116.734 423.779 116.62V116.575C423.779 116.461 423.811 116.374 423.875 116.314C423.937 116.252 424.023 116.221 424.133 116.221C424.245 116.221 424.332 116.252 424.394 116.314C424.456 116.374 424.487 116.461 424.487 116.575V116.62C424.487 116.734 424.456 116.822 424.394 116.884C424.332 116.944 424.245 116.974 424.133 116.974ZM431.493 125.25L430.764 123.477H431.487V123.861H431.823V123.156H430.371V123.495L431.079 125.25H431.493ZM426.883 125.25H428.335V124.884L427.678 124.308C427.566 124.21 427.484 124.122 427.432 124.044C427.38 123.964 427.354 123.878 427.354 123.786V123.747C427.354 123.655 427.384 123.585 427.444 123.537C427.504 123.487 427.577 123.462 427.663 123.462C427.771 123.462 427.853 123.493 427.909 123.555C427.965 123.615 428.005 123.688 428.029 123.774L428.371 123.642C428.349 123.572 428.318 123.506 428.278 123.444C428.238 123.38 428.188 123.324 428.128 123.276C428.066 123.228 427.994 123.19 427.912 123.162C427.83 123.134 427.736 123.12 427.63 123.12C427.52 123.12 427.422 123.136 427.336 123.168C427.25 123.198 427.178 123.241 427.12 123.297C427.06 123.353 427.015 123.419 426.985 123.495C426.953 123.571 426.937 123.654 426.937 123.744C426.937 123.832 426.951 123.912 426.979 123.984C427.007 124.056 427.045 124.125 427.093 124.191C427.141 124.255 427.197 124.317 427.261 124.377C427.325 124.435 427.393 124.494 427.465 124.554L427.906 124.917H426.883V125.25ZM423.998 125.25V124.845H424.946V124.509L424.112 123.156H423.623V124.539H423.35V124.845H423.623V125.25H423.998ZM424.622 124.539H423.998V123.54H424.022L424.622 124.539ZM431.1 133.286C431.222 133.286 431.331 133.271 431.427 133.241C431.521 133.209 431.601 133.166 431.667 133.112C431.731 133.058 431.78 132.994 431.814 132.92C431.848 132.846 431.865 132.765 431.865 132.677C431.865 132.541 431.828 132.431 431.754 132.347C431.678 132.261 431.577 132.201 431.451 132.167V132.143C431.555 132.105 431.64 132.046 431.706 131.966C431.77 131.886 431.802 131.785 431.802 131.663C431.802 131.583 431.787 131.51 431.757 131.444C431.725 131.378 431.679 131.321 431.619 131.273C431.559 131.225 431.486 131.188 431.4 131.162C431.312 131.134 431.212 131.12 431.1 131.12C430.988 131.12 430.889 131.134 430.803 131.162C430.715 131.188 430.641 131.225 430.581 131.273C430.521 131.321 430.476 131.378 430.446 131.444C430.414 131.51 430.398 131.583 430.398 131.663C430.398 131.785 430.431 131.886 430.497 131.966C430.561 132.046 430.645 132.105 430.749 132.143V132.167C430.623 132.201 430.523 132.261 430.449 132.347C430.373 132.431 430.335 132.541 430.335 132.677C430.335 132.765 430.352 132.846 430.386 132.92C430.42 132.994 430.47 133.058 430.536 133.112C430.6 133.166 430.68 133.209 430.776 133.241C430.87 133.271 430.978 133.286 431.1 133.286ZM431.1 132.977C430.986 132.977 430.899 132.951 430.839 132.899C430.777 132.847 430.746 132.774 430.746 132.68V132.617C430.746 132.523 430.777 132.45 430.839 132.398C430.899 132.346 430.986 132.32 431.1 132.32C431.214 132.32 431.302 132.346 431.364 132.398C431.424 132.45 431.454 132.523 431.454 132.617V132.68C431.454 132.774 431.424 132.847 431.364 132.899C431.302 132.951 431.214 132.977 431.1 132.977ZM431.1 132.026C430.994 132.026 430.913 132.002 430.857 131.954C430.801 131.906 430.773 131.838 430.773 131.75V131.702C430.773 131.616 430.801 131.549 430.857 131.501C430.913 131.453 430.994 131.429 431.1 131.429C431.206 131.429 431.287 131.453 431.343 131.501C431.399 131.549 431.427 131.616 431.427 131.702V131.75C431.427 131.838 431.399 131.906 431.343 131.954C431.287 132.002 431.206 132.026 431.1 132.026ZM431.091 141.286C431.211 141.286 431.318 141.267 431.412 141.229C431.506 141.189 431.586 141.134 431.652 141.064C431.718 140.992 431.768 140.906 431.802 140.806C431.836 140.704 431.853 140.59 431.853 140.464C431.853 140.314 431.831 140.173 431.787 140.041C431.741 139.907 431.682 139.785 431.61 139.675C431.538 139.563 431.458 139.464 431.37 139.378C431.28 139.29 431.191 139.216 431.103 139.156H430.569C430.693 139.244 430.804 139.329 430.902 139.411C430.998 139.493 431.083 139.576 431.157 139.66C431.229 139.744 431.289 139.832 431.337 139.924C431.383 140.014 431.418 140.112 431.442 140.218L431.418 140.224C431.398 140.184 431.375 140.146 431.349 140.11C431.321 140.072 431.288 140.039 431.25 140.011C431.212 139.981 431.168 139.958 431.118 139.942C431.068 139.924 431.01 139.915 430.944 139.915C430.858 139.915 430.778 139.93 430.704 139.96C430.628 139.99 430.563 140.034 430.509 140.092C430.453 140.148 430.41 140.216 430.38 140.296C430.348 140.376 430.332 140.465 430.332 140.563C430.332 140.669 430.35 140.766 430.386 140.854C430.422 140.942 430.473 141.018 430.539 141.082C430.605 141.146 430.685 141.196 430.779 141.232C430.871 141.268 430.975 141.286 431.091 141.286ZM431.091 140.974C430.981 140.974 430.895 140.944 430.833 140.884C430.769 140.822 430.737 140.734 430.737 140.62V140.575C430.737 140.461 430.769 140.374 430.833 140.314C430.895 140.252 430.981 140.221 431.091 140.221C431.203 140.221 431.29 140.252 431.352 140.314C431.414 140.374 431.445 140.461 431.445 140.575V140.62C431.445 140.734 431.414 140.822 431.352 140.884C431.29 140.944 431.203 140.974 431.091 140.974ZM431.1 149.286C431.234 149.286 431.35 149.262 431.448 149.214C431.546 149.164 431.627 149.093 431.691 149.001C431.755 148.909 431.803 148.796 431.835 148.662C431.865 148.528 431.88 148.375 431.88 148.203C431.88 148.033 431.865 147.881 431.835 147.747C431.803 147.611 431.755 147.497 431.691 147.405C431.627 147.313 431.546 147.243 431.448 147.195C431.35 147.145 431.234 147.12 431.1 147.12C430.834 147.12 430.638 147.215 430.512 147.405C430.384 147.595 430.32 147.861 430.32 148.203C430.32 148.545 430.384 148.811 430.512 149.001C430.638 149.191 430.834 149.286 431.1 149.286ZM431.1 148.953C430.966 148.953 430.873 148.903 430.821 148.803C430.767 148.701 430.74 148.564 430.74 148.392V148.014C430.74 147.842 430.767 147.706 430.821 147.606C430.873 147.504 430.966 147.453 431.1 147.453C431.234 147.453 431.328 147.504 431.382 147.606C431.434 147.706 431.46 147.842 431.46 148.014V148.392C431.46 148.564 431.434 148.701 431.382 148.803C431.328 148.903 431.234 148.953 431.1 148.953ZM426.868 147.942C426.868 148.092 426.891 148.234 426.937 148.368C426.981 148.5 427.039 148.622 427.111 148.734C427.183 148.844 427.264 148.943 427.354 149.031C427.442 149.117 427.53 149.19 427.618 149.25H428.152C428.03 149.162 427.92 149.077 427.822 148.995C427.724 148.913 427.639 148.83 427.567 148.746C427.493 148.662 427.433 148.575 427.387 148.485C427.339 148.393 427.303 148.294 427.279 148.188L427.303 148.182C427.323 148.222 427.347 148.261 427.375 148.299C427.401 148.337 427.433 148.37 427.471 148.398C427.509 148.426 427.553 148.449 427.603 148.467C427.653 148.483 427.711 148.491 427.777 148.491C427.865 148.491 427.946 148.476 428.02 148.446C428.094 148.416 428.159 148.373 428.215 148.317C428.269 148.259 428.312 148.191 428.344 148.113C428.374 148.033 428.389 147.943 428.389 147.843C428.389 147.737 428.371 147.64 428.335 147.552C428.299 147.464 428.248 147.388 428.182 147.324C428.116 147.26 428.037 147.21 427.945 147.174C427.851 147.138 427.746 147.12 427.63 147.12C427.51 147.12 427.403 147.14 427.309 147.18C427.215 147.218 427.135 147.273 427.069 147.345C427.003 147.415 426.953 147.501 426.919 147.603C426.885 147.703 426.868 147.816 426.868 147.942ZM427.63 148.185C427.518 148.185 427.431 148.155 427.369 148.095C427.307 148.033 427.276 147.945 427.276 147.831V147.786C427.276 147.672 427.307 147.585 427.369 147.525C427.431 147.463 427.518 147.432 427.63 147.432C427.74 147.432 427.827 147.463 427.891 147.525C427.953 147.585 427.984 147.672 427.984 147.786V147.831C427.984 147.945 427.953 148.033 427.891 148.095C427.827 148.155 427.74 148.185 427.63 148.185ZM431.1 157.286C431.222 157.286 431.331 157.271 431.427 157.241C431.521 157.209 431.601 157.166 431.667 157.112C431.731 157.058 431.78 156.994 431.814 156.92C431.848 156.846 431.865 156.765 431.865 156.677C431.865 156.541 431.828 156.431 431.754 156.347C431.678 156.261 431.577 156.201 431.451 156.167V156.143C431.555 156.105 431.64 156.046 431.706 155.966C431.77 155.886 431.802 155.785 431.802 155.663C431.802 155.583 431.787 155.51 431.757 155.444C431.725 155.378 431.679 155.321 431.619 155.273C431.559 155.225 431.486 155.188 431.4 155.162C431.312 155.134 431.212 155.12 431.1 155.12C430.988 155.12 430.889 155.134 430.803 155.162C430.715 155.188 430.641 155.225 430.581 155.273C430.521 155.321 430.476 155.378 430.446 155.444C430.414 155.51 430.398 155.583 430.398 155.663C430.398 155.785 430.431 155.886 430.497 155.966C430.561 156.046 430.645 156.105 430.749 156.143V156.167C430.623 156.201 430.523 156.261 430.449 156.347C430.373 156.431 430.335 156.541 430.335 156.677C430.335 156.765 430.352 156.846 430.386 156.92C430.42 156.994 430.47 157.058 430.536 157.112C430.6 157.166 430.68 157.209 430.776 157.241C430.87 157.271 430.978 157.286 431.1 157.286ZM431.1 156.977C430.986 156.977 430.899 156.951 430.839 156.899C430.777 156.847 430.746 156.774 430.746 156.68V156.617C430.746 156.523 430.777 156.45 430.839 156.398C430.899 156.346 430.986 156.32 431.1 156.32C431.214 156.32 431.302 156.346 431.364 156.398C431.424 156.45 431.454 156.523 431.454 156.617V156.68C431.454 156.774 431.424 156.847 431.364 156.899C431.302 156.951 431.214 156.977 431.1 156.977ZM431.1 156.026C430.994 156.026 430.913 156.002 430.857 155.954C430.801 155.906 430.773 155.838 430.773 155.75V155.702C430.773 155.616 430.801 155.549 430.857 155.501C430.913 155.453 430.994 155.429 431.1 155.429C431.206 155.429 431.287 155.453 431.343 155.501C431.399 155.549 431.427 155.616 431.427 155.702V155.75C431.427 155.838 431.399 155.906 431.343 155.954C431.287 156.002 431.206 156.026 431.1 156.026ZM426.883 157.25H428.335V156.884L427.678 156.308C427.566 156.21 427.484 156.122 427.432 156.044C427.38 155.964 427.354 155.878 427.354 155.786V155.747C427.354 155.655 427.384 155.585 427.444 155.537C427.504 155.487 427.577 155.462 427.663 155.462C427.771 155.462 427.853 155.493 427.909 155.555C427.965 155.615 428.005 155.688 428.029 155.774L428.371 155.642C428.349 155.572 428.318 155.506 428.278 155.444C428.238 155.38 428.188 155.324 428.128 155.276C428.066 155.228 427.994 155.19 427.912 155.162C427.83 155.134 427.736 155.12 427.63 155.12C427.52 155.12 427.422 155.136 427.336 155.168C427.25 155.198 427.178 155.241 427.12 155.297C427.06 155.353 427.015 155.419 426.985 155.495C426.953 155.571 426.937 155.654 426.937 155.744C426.937 155.832 426.951 155.912 426.979 155.984C427.007 156.056 427.045 156.125 427.093 156.191C427.141 156.255 427.197 156.317 427.261 156.377C427.325 156.435 427.393 156.494 427.465 156.554L427.906 156.917H426.883V157.25ZM431.214 164.002C431.094 164.002 431.006 163.978 430.95 163.93C430.892 163.88 430.863 163.817 430.863 163.741V163.72C430.863 163.634 430.891 163.567 430.947 163.519C431.001 163.469 431.076 163.444 431.172 163.444C431.264 163.444 431.346 163.466 431.418 163.51C431.488 163.554 431.549 163.616 431.601 163.696L431.853 163.468C431.817 163.42 431.778 163.375 431.736 163.333C431.692 163.289 431.642 163.252 431.586 163.222C431.53 163.19 431.467 163.165 431.397 163.147C431.327 163.129 431.248 163.12 431.16 163.12C431.054 163.12 430.958 163.133 430.872 163.159C430.784 163.183 430.709 163.219 430.647 163.267C430.583 163.315 430.534 163.373 430.5 163.441C430.466 163.507 430.449 163.582 430.449 163.666C430.449 163.734 430.46 163.795 430.482 163.849C430.502 163.903 430.531 163.95 430.569 163.99C430.605 164.03 430.648 164.063 430.698 164.089C430.746 164.113 430.797 164.131 430.851 164.143V164.161C430.791 164.173 430.734 164.192 430.68 164.218C430.626 164.244 430.58 164.279 430.542 164.323C430.502 164.365 430.471 164.415 430.449 164.473C430.425 164.531 430.413 164.597 430.413 164.671C430.413 164.763 430.432 164.847 430.47 164.923C430.506 164.999 430.558 165.064 430.626 165.118C430.694 165.172 430.775 165.214 430.869 165.244C430.963 165.272 431.068 165.286 431.184 165.286C431.286 165.286 431.376 165.275 431.454 165.253C431.532 165.233 431.601 165.205 431.661 165.169C431.719 165.133 431.77 165.092 431.814 165.046C431.858 164.998 431.896 164.948 431.928 164.896L431.637 164.674C431.613 164.716 431.587 164.755 431.559 164.791C431.531 164.825 431.499 164.855 431.463 164.881C431.427 164.907 431.386 164.927 431.34 164.941C431.294 164.955 431.242 164.962 431.184 164.962C431.068 164.962 430.979 164.934 430.917 164.878C430.855 164.822 430.824 164.745 430.824 164.647V164.626C430.824 164.53 430.858 164.457 430.926 164.407C430.992 164.357 431.088 164.332 431.214 164.332H431.421V164.002H431.214ZM427.477 165.25V164.845H428.425V164.509L427.591 163.156H427.102V164.539H426.829V164.845H427.102V165.25H427.477ZM428.101 164.539H427.477V163.54H427.501L428.101 164.539ZM430.347 171.942C430.347 172.092 430.37 172.234 430.416 172.368C430.46 172.5 430.518 172.622 430.59 172.734C430.662 172.844 430.743 172.943 430.833 173.031C430.921 173.117 431.009 173.19 431.097 173.25H431.631C431.509 173.162 431.399 173.077 431.301 172.995C431.203 172.913 431.118 172.83 431.046 172.746C430.972 172.662 430.912 172.575 430.866 172.485C430.818 172.393 430.782 172.294 430.758 172.188L430.782 172.182C430.802 172.222 430.826 172.261 430.854 172.299C430.88 172.337 430.912 172.37 430.95 172.398C430.988 172.426 431.032 172.449 431.082 172.467C431.132 172.483 431.19 172.491 431.256 172.491C431.344 172.491 431.425 172.476 431.499 172.446C431.573 172.416 431.638 172.373 431.694 172.317C431.748 172.259 431.791 172.191 431.823 172.113C431.853 172.033 431.868 171.943 431.868 171.843C431.868 171.737 431.85 171.64 431.814 171.552C431.778 171.464 431.727 171.388 431.661 171.324C431.595 171.26 431.516 171.21 431.424 171.174C431.33 171.138 431.225 171.12 431.109 171.12C430.989 171.12 430.882 171.14 430.788 171.18C430.694 171.218 430.614 171.273 430.548 171.345C430.482 171.415 430.432 171.501 430.398 171.603C430.364 171.703 430.347 171.816 430.347 171.942ZM431.109 172.185C430.997 172.185 430.91 172.155 430.848 172.095C430.786 172.033 430.755 171.945 430.755 171.831V171.786C430.755 171.672 430.786 171.585 430.848 171.525C430.91 171.463 430.997 171.432 431.109 171.432C431.219 171.432 431.306 171.463 431.37 171.525C431.432 171.585 431.463 171.672 431.463 171.786V171.831C431.463 171.945 431.432 172.033 431.37 172.095C431.306 172.155 431.219 172.185 431.109 172.185ZM426.976 171.498H427.918L427.966 172.2H427.945C427.923 172.156 427.899 172.115 427.873 172.077C427.847 172.039 427.817 172.007 427.783 171.981C427.749 171.955 427.71 171.935 427.666 171.921C427.62 171.905 427.565 171.897 427.501 171.897C427.411 171.897 427.327 171.912 427.249 171.942C427.171 171.972 427.104 172.016 427.048 172.074C426.99 172.13 426.945 172.199 426.913 172.281C426.879 172.363 426.862 172.456 426.862 172.56C426.862 172.666 426.879 172.763 426.913 172.851C426.947 172.939 426.997 173.016 427.063 173.082C427.129 173.146 427.21 173.196 427.306 173.232C427.402 173.268 427.512 173.286 427.636 173.286C427.732 173.286 427.818 173.275 427.894 173.253C427.97 173.233 428.037 173.205 428.095 173.169C428.153 173.133 428.203 173.092 428.245 173.046C428.287 172.998 428.324 172.948 428.356 172.896L428.068 172.674C428.044 172.714 428.019 172.752 427.993 172.788C427.967 172.822 427.937 172.852 427.903 172.878C427.867 172.904 427.828 172.925 427.786 172.941C427.742 172.955 427.691 172.962 427.633 172.962C427.515 172.962 427.426 172.929 427.366 172.863C427.304 172.797 427.273 172.707 427.273 172.593V172.569C427.273 172.461 427.304 172.376 427.366 172.314C427.428 172.252 427.514 172.221 427.624 172.221C427.71 172.221 427.78 172.238 427.834 172.272C427.888 172.304 427.931 172.339 427.963 172.377L428.287 172.332L428.209 171.156H426.976V171.498ZM423.998 173.25V172.845H424.946V172.509L424.112 171.156H423.623V172.539H423.35V172.845H423.623V173.25H423.998ZM424.622 172.539H423.998V171.54H424.022L424.622 172.539ZM420.52 173.25V172.845H421.468V172.509L420.634 171.156H420.145V172.539H419.872V172.845H420.145V173.25H420.52ZM421.144 172.539H420.52V171.54H420.544L421.144 172.539ZM430.362 181.25H431.814V180.884L431.157 180.308C431.045 180.21 430.963 180.122 430.911 180.044C430.859 179.964 430.833 179.878 430.833 179.786V179.747C430.833 179.655 430.863 179.585 430.923 179.537C430.983 179.487 431.056 179.462 431.142 179.462C431.25 179.462 431.332 179.493 431.388 179.555C431.444 179.615 431.484 179.688 431.508 179.774L431.85 179.642C431.828 179.572 431.797 179.506 431.757 179.444C431.717 179.38 431.667 179.324 431.607 179.276C431.545 179.228 431.473 179.19 431.391 179.162C431.309 179.134 431.215 179.12 431.109 179.12C430.999 179.12 430.901 179.136 430.815 179.168C430.729 179.198 430.657 179.241 430.599 179.297C430.539 179.353 430.494 179.419 430.464 179.495C430.432 179.571 430.416 179.654 430.416 179.744C430.416 179.832 430.43 179.912 430.458 179.984C430.486 180.056 430.524 180.125 430.572 180.191C430.62 180.255 430.676 180.317 430.74 180.377C430.804 180.435 430.872 180.494 430.944 180.554L431.385 180.917H430.362V181.25ZM426.883 181.25H428.335V180.884L427.678 180.308C427.566 180.21 427.484 180.122 427.432 180.044C427.38 179.964 427.354 179.878 427.354 179.786V179.747C427.354 179.655 427.384 179.585 427.444 179.537C427.504 179.487 427.577 179.462 427.663 179.462C427.771 179.462 427.853 179.493 427.909 179.555C427.965 179.615 428.005 179.688 428.029 179.774L428.371 179.642C428.349 179.572 428.318 179.506 428.278 179.444C428.238 179.38 428.188 179.324 428.128 179.276C428.066 179.228 427.994 179.19 427.912 179.162C427.83 179.134 427.736 179.12 427.63 179.12C427.52 179.12 427.422 179.136 427.336 179.168C427.25 179.198 427.178 179.241 427.12 179.297C427.06 179.353 427.015 179.419 426.985 179.495C426.953 179.571 426.937 179.654 426.937 179.744C426.937 179.832 426.951 179.912 426.979 179.984C427.007 180.056 427.045 180.125 427.093 180.191C427.141 180.255 427.197 180.317 427.261 180.377C427.325 180.435 427.393 180.494 427.465 180.554L427.906 180.917H426.883V181.25Z" fill="#0ECACA"/>
<path d="M474 0.25H415.784C410.48 0.25 405.393 2.35714 401.642 6.10786L374 33.75" stroke="#0ECACA" stroke-width="0.5"/>
<path d="M419.5 9.25V48.3089C419.5 54.6741 422.029 60.7786 426.529 65.2794L439.971 78.7206C444.471 83.2214 447 89.3259 447 95.6911V149.75" stroke="#0ECACA" stroke-width="0.5"/>
<path d="M417.5 63.25L434.471 80.2206C438.971 84.7214 441.5 90.8259 441.5 97.1911V200.868C441.5 213.598 436.443 225.807 427.441 234.809L386.559 275.691C377.557 284.693 365.348 289.75 352.618 289.75H218.941C212.576 289.75 206.471 292.279 201.971 296.779L184.029 314.721C179.529 319.221 173.424 321.75 167.059 321.75H64.4411C58.0759 321.75 51.9714 324.279 47.4706 328.779L14 362.25" stroke="#0ECAC8" stroke-width="0.5"/>
<path d="M441.5 99.75H435" stroke="#0ECACA" stroke-width="0.5"/>
<path d="M441.5 139.75H435" stroke="#0ECACA" stroke-width="0.5"/>
<path d="M441.5 123.75H438" stroke="#0ECACA" stroke-width="0.5"/>
<path d="M441.5 115.75H438" stroke="#0ECACA" stroke-width="0.5"/>
<path d="M441.5 107.75H438" stroke="#0ECACA" stroke-width="0.5"/>
<path d="M441.5 131.75H438" stroke="#0ECACA" stroke-width="0.5"/>
<path d="M441.5 179.75H435" stroke="#0ECACA" stroke-width="0.5"/>
<path d="M441.5 163.75H438" stroke="#0ECACA" stroke-width="0.5"/>
<path d="M441.5 155.75H438" stroke="#0ECACA" stroke-width="0.5"/>
<path d="M441.5 147.75H438" stroke="#0ECACA" stroke-width="0.5"/>
<path d="M441.5 171.75H438" stroke="#0ECACA" stroke-width="0.5"/>
<path d="M394 268.25L386.559 275.691C377.557 284.693 365.348 289.75 352.618 289.75H340" stroke="#0ECACA" stroke-width="4"/>
<path d="M417.5 238.75L384.559 271.691C375.557 280.693 363.348 285.75 350.618 285.75H316.75M157.75 317.75H62.4411C56.0759 317.75 49.9714 320.279 45.4706 324.779L32.6863 337.564C29.6857 340.564 25.616 342.25 21.3726 342.25H3" stroke="#0ECACA" stroke-width="0.5"/>
</svg>
