<svg width="597" height="115" viewBox="0 0 597 115" fill="none" xmlns="http://www.w3.org/2000/svg">
<path d="M2.73632 2.0954L32.7435 32.1025C34.8064 34.1654 37.6043 35.3244 40.5216 35.3244L56.4168 35.3244C59.3342 35.3244 62.1321 36.4833 64.195 38.5462L69.1957 43.5468C71.2586 45.6097 72.4175 48.4076 72.4175 51.325L72.4175 64.2065C72.4175 67.1239 73.5764 69.9218 75.6393 71.9847L82.7127 79.0581C84.7756 81.121 87.5735 82.2799 90.4908 82.2799L101.3 82.2799C104.217 82.2799 107.015 83.4388 109.078 85.5017L115.774 92.1978C117.837 94.2607 120.635 95.4196 123.552 95.4196L143.327 95.4196C146.206 95.4196 148.966 96.5632 151.002 98.5986C153.037 100.634 155.798 101.778 158.677 101.778L280.803 101.778C283.72 101.778 286.518 102.936 288.581 104.999L297.398 113.817L297.608 113.817L306.425 104.999C308.488 102.936 311.286 101.778 314.203 101.778L429.754 101.778C432.633 101.778 435.394 100.634 437.429 98.5986C439.464 96.5631 442.225 95.4196 445.104 95.4196L464.879 95.4196C467.796 95.4196 470.594 94.2607 472.657 92.1978L479.353 85.5017C481.416 83.4388 484.214 82.2799 487.131 82.2799L497.94 82.2799C500.857 82.2799 503.655 81.121 505.718 79.0581L512.791 71.9847C514.854 69.9218 516.013 67.1239 516.013 64.2065L516.013 51.325C516.013 48.4076 517.172 45.6097 519.235 43.5468L524.236 38.5462C526.299 36.4833 529.097 35.3244 532.014 35.3244L547.909 35.3244C550.827 35.3244 553.624 34.1654 555.687 32.1025L585.694 2.09539" stroke="#0ECACA" stroke-width="0.5"/>
<path d="M10.7363 2.0954L40.7435 32.1025C42.8064 34.1654 45.6043 35.3244 48.5216 35.3244L64.4168 35.3244C67.3342 35.3244 70.1321 36.4833 72.195 38.5462L77.1957 43.5468C79.2586 45.6097 80.4175 48.4076 80.4175 51.325L80.4175 64.2065C80.4175 67.1239 81.5764 69.9218 83.6393 71.9847L90.7127 79.0581C92.7756 81.121 95.5735 82.2799 98.4908 82.2799L109.3 82.2799C112.217 82.2799 115.015 83.4388 117.078 85.5017L123.774 92.1978C125.837 94.2607 128.635 95.4196 131.552 95.4196L151.327 95.4196C154.206 95.4196 156.966 96.5632 159.002 98.5986C161.037 100.634 163.798 101.778 166.677 101.778L288.803 101.778C291.72 101.778 294.518 102.936 296.581 104.999L305.398 113.817L305.608 113.817L314.425 104.999C316.488 102.936 319.286 101.778 322.203 101.778L437.754 101.778C440.633 101.778 443.394 100.634 445.429 98.5986C447.464 96.5631 450.225 95.4196 453.104 95.4196L472.879 95.4196C475.796 95.4196 478.594 94.2607 480.657 92.1978L487.353 85.5017C489.416 83.4388 492.214 82.2799 495.131 82.2799L505.94 82.2799C508.857 82.2799 511.655 81.121 513.718 79.0581L520.791 71.9847C522.854 69.9218 524.013 67.1239 524.013 64.2065L524.013 51.325C524.013 48.4076 525.172 45.6097 527.235 43.5468L532.236 38.5462C534.299 36.4833 537.097 35.3244 540.014 35.3244L555.909 35.3244C558.827 35.3244 561.624 34.1654 563.687 32.1025L593.694 2.09539" stroke="#0ECACA" stroke-width="0.5"/>
<path d="M13.0605 13.0609L1.06055 1.06091" stroke="#0ECACA" stroke-width="3"/>
<path d="M583.061 13.061L595.061 1.06104" stroke="#0ECACA" stroke-width="3"/>
<path d="M15.0605 5.06067L11.0605 1.06067" stroke="#0ECACA" stroke-width="3"/>
<path d="M581.061 5.06073L585.061 1.06073" stroke="#0ECACA" stroke-width="3"/>
<path d="M23.0605 13.0607L19.0605 9.06067" stroke="#0ECACA" stroke-width="3"/>
<path d="M573.061 13.0607L577.061 9.06073" stroke="#0ECACA" stroke-width="3"/>
<path d="M249.061 102.061H237.061" stroke="#0ECACA" stroke-width="3"/>
<path d="M365.061 102.061H353.061" stroke="#0ECACA" stroke-width="3"/>
</svg>
