<svg width="149" height="251" viewBox="0 0 149 251" fill="none" xmlns="http://www.w3.org/2000/svg">
<path d="M107.427 11.25V34.3089C107.427 40.6741 109.955 46.7786 114.456 51.2794L127.897 64.7206C132.398 69.2214 134.927 75.3259 134.927 81.6911V111.75" stroke="#0ECACA" stroke-width="0.5"/>
<rect width="17.711" height="4" transform="matrix(-0.707107 0.707107 0.707107 0.707107 91.5127 13.8359)" fill="#0ECACA"/>
<rect width="7.22598" height="4" transform="matrix(-0.707107 0.707107 0.707107 0.707107 76.0986 29.25)" fill="#0ECACA"/>
<path d="M5.92676 250.25L14.8973 241.279C19.3982 236.779 25.5027 234.25 31.8679 234.25H79.9856C86.3508 234.25 92.4553 231.721 96.9562 227.221L121.897 202.279C126.398 197.779 128.927 191.674 128.927 185.309V84.1911C128.927 77.8259 126.398 71.7214 121.897 67.2206L101.427 46.75" stroke="#0ECACA" stroke-width="0.5"/>
<path d="M104.927 219.25L96.9562 227.221C92.4553 231.721 86.3508 234.25 79.9856 234.25H67.4268" stroke="#0ECACA" stroke-width="4"/>
<path d="M118.383 91.25V90.845H119.331V90.509L118.497 89.156H118.008V90.539H117.735V90.845H118.008V91.25H118.383ZM119.007 90.539H118.383V89.54H118.407L119.007 90.539ZM115.441 91.25L114.712 89.477H115.435V89.861H115.771V89.156H114.319V89.495L115.027 91.25H115.441ZM118.518 99.286C118.638 99.286 118.745 99.267 118.839 99.229C118.933 99.189 119.013 99.134 119.079 99.064C119.145 98.992 119.195 98.906 119.229 98.806C119.263 98.704 119.28 98.59 119.28 98.464C119.28 98.314 119.258 98.173 119.214 98.041C119.168 97.907 119.109 97.785 119.037 97.675C118.965 97.563 118.885 97.464 118.797 97.378C118.707 97.29 118.618 97.216 118.53 97.156H117.996C118.12 97.244 118.231 97.329 118.329 97.411C118.425 97.493 118.51 97.576 118.584 97.66C118.656 97.744 118.716 97.832 118.764 97.924C118.81 98.014 118.845 98.112 118.869 98.218L118.845 98.224C118.825 98.184 118.802 98.146 118.776 98.11C118.748 98.072 118.715 98.039 118.677 98.011C118.639 97.981 118.595 97.958 118.545 97.942C118.495 97.924 118.437 97.915 118.371 97.915C118.285 97.915 118.205 97.93 118.131 97.96C118.055 97.99 117.99 98.034 117.936 98.092C117.88 98.148 117.837 98.216 117.807 98.296C117.775 98.376 117.759 98.465 117.759 98.563C117.759 98.669 117.777 98.766 117.813 98.854C117.849 98.942 117.9 99.018 117.966 99.082C118.032 99.146 118.112 99.196 118.206 99.232C118.298 99.268 118.402 99.286 118.518 99.286ZM118.518 98.974C118.408 98.974 118.322 98.944 118.26 98.884C118.196 98.822 118.164 98.734 118.164 98.62V98.575C118.164 98.461 118.196 98.374 118.26 98.314C118.322 98.252 118.408 98.221 118.518 98.221C118.63 98.221 118.717 98.252 118.779 98.314C118.841 98.374 118.872 98.461 118.872 98.575V98.62C118.872 98.734 118.841 98.822 118.779 98.884C118.717 98.944 118.63 98.974 118.518 98.974ZM115.048 99.286C115.17 99.286 115.279 99.271 115.375 99.241C115.469 99.209 115.549 99.166 115.615 99.112C115.679 99.058 115.728 98.994 115.762 98.92C115.796 98.846 115.813 98.765 115.813 98.677C115.813 98.541 115.776 98.431 115.702 98.347C115.626 98.261 115.525 98.201 115.399 98.167V98.143C115.503 98.105 115.588 98.046 115.654 97.966C115.718 97.886 115.75 97.785 115.75 97.663C115.75 97.583 115.735 97.51 115.705 97.444C115.673 97.378 115.627 97.321 115.567 97.273C115.507 97.225 115.434 97.188 115.348 97.162C115.26 97.134 115.16 97.12 115.048 97.12C114.936 97.12 114.837 97.134 114.751 97.162C114.663 97.188 114.589 97.225 114.529 97.273C114.469 97.321 114.424 97.378 114.394 97.444C114.362 97.51 114.346 97.583 114.346 97.663C114.346 97.785 114.379 97.886 114.445 97.966C114.509 98.046 114.593 98.105 114.697 98.143V98.167C114.571 98.201 114.471 98.261 114.397 98.347C114.321 98.431 114.283 98.541 114.283 98.677C114.283 98.765 114.3 98.846 114.334 98.92C114.368 98.994 114.418 99.058 114.484 99.112C114.548 99.166 114.628 99.209 114.724 99.241C114.818 99.271 114.926 99.286 115.048 99.286ZM115.048 98.977C114.934 98.977 114.847 98.951 114.787 98.899C114.725 98.847 114.694 98.774 114.694 98.68V98.617C114.694 98.523 114.725 98.45 114.787 98.398C114.847 98.346 114.934 98.32 115.048 98.32C115.162 98.32 115.25 98.346 115.312 98.398C115.372 98.45 115.402 98.523 115.402 98.617V98.68C115.402 98.774 115.372 98.847 115.312 98.899C115.25 98.951 115.162 98.977 115.048 98.977ZM115.048 98.026C114.942 98.026 114.861 98.002 114.805 97.954C114.749 97.906 114.721 97.838 114.721 97.75V97.702C114.721 97.616 114.749 97.549 114.805 97.501C114.861 97.453 114.942 97.429 115.048 97.429C115.154 97.429 115.235 97.453 115.291 97.501C115.347 97.549 115.375 97.616 115.375 97.702V97.75C115.375 97.838 115.347 97.906 115.291 97.954C115.235 98.002 115.154 98.026 115.048 98.026ZM118.527 107.286C118.649 107.286 118.758 107.271 118.854 107.241C118.948 107.209 119.028 107.166 119.094 107.112C119.158 107.058 119.207 106.994 119.241 106.92C119.275 106.846 119.292 106.765 119.292 106.677C119.292 106.541 119.255 106.431 119.181 106.347C119.105 106.261 119.004 106.201 118.878 106.167V106.143C118.982 106.105 119.067 106.046 119.133 105.966C119.197 105.886 119.229 105.785 119.229 105.663C119.229 105.583 119.214 105.51 119.184 105.444C119.152 105.378 119.106 105.321 119.046 105.273C118.986 105.225 118.913 105.188 118.827 105.162C118.739 105.134 118.639 105.12 118.527 105.12C118.415 105.12 118.316 105.134 118.23 105.162C118.142 105.188 118.068 105.225 118.008 105.273C117.948 105.321 117.903 105.378 117.873 105.444C117.841 105.51 117.825 105.583 117.825 105.663C117.825 105.785 117.858 105.886 117.924 105.966C117.988 106.046 118.072 106.105 118.176 106.143V106.167C118.05 106.201 117.95 106.261 117.876 106.347C117.8 106.431 117.762 106.541 117.762 106.677C117.762 106.765 117.779 106.846 117.813 106.92C117.847 106.994 117.897 107.058 117.963 107.112C118.027 107.166 118.107 107.209 118.203 107.241C118.297 107.271 118.405 107.286 118.527 107.286ZM118.527 106.977C118.413 106.977 118.326 106.951 118.266 106.899C118.204 106.847 118.173 106.774 118.173 106.68V106.617C118.173 106.523 118.204 106.45 118.266 106.398C118.326 106.346 118.413 106.32 118.527 106.32C118.641 106.32 118.729 106.346 118.791 106.398C118.851 106.45 118.881 106.523 118.881 106.617V106.68C118.881 106.774 118.851 106.847 118.791 106.899C118.729 106.951 118.641 106.977 118.527 106.977ZM118.527 106.026C118.421 106.026 118.34 106.002 118.284 105.954C118.228 105.906 118.2 105.838 118.2 105.75V105.702C118.2 105.616 118.228 105.549 118.284 105.501C118.34 105.453 118.421 105.429 118.527 105.429C118.633 105.429 118.714 105.453 118.77 105.501C118.826 105.549 118.854 105.616 118.854 105.702V105.75C118.854 105.838 118.826 105.906 118.77 105.954C118.714 106.002 118.633 106.026 118.527 106.026ZM114.295 105.942C114.295 106.092 114.318 106.234 114.364 106.368C114.408 106.5 114.466 106.622 114.538 106.734C114.61 106.844 114.691 106.943 114.781 107.031C114.869 107.117 114.957 107.19 115.045 107.25H115.579C115.457 107.162 115.347 107.077 115.249 106.995C115.151 106.913 115.066 106.83 114.994 106.746C114.92 106.662 114.86 106.575 114.814 106.485C114.766 106.393 114.73 106.294 114.706 106.188L114.73 106.182C114.75 106.222 114.774 106.261 114.802 106.299C114.828 106.337 114.86 106.37 114.898 106.398C114.936 106.426 114.98 106.449 115.03 106.467C115.08 106.483 115.138 106.491 115.204 106.491C115.292 106.491 115.373 106.476 115.447 106.446C115.521 106.416 115.586 106.373 115.642 106.317C115.696 106.259 115.739 106.191 115.771 106.113C115.801 106.033 115.816 105.943 115.816 105.843C115.816 105.737 115.798 105.64 115.762 105.552C115.726 105.464 115.675 105.388 115.609 105.324C115.543 105.26 115.464 105.21 115.372 105.174C115.278 105.138 115.173 105.12 115.057 105.12C114.937 105.12 114.83 105.14 114.736 105.18C114.642 105.218 114.562 105.273 114.496 105.345C114.43 105.415 114.38 105.501 114.346 105.603C114.312 105.703 114.295 105.816 114.295 105.942ZM115.057 106.185C114.945 106.185 114.858 106.155 114.796 106.095C114.734 106.033 114.703 105.945 114.703 105.831V105.786C114.703 105.672 114.734 105.585 114.796 105.525C114.858 105.463 114.945 105.432 115.057 105.432C115.167 105.432 115.254 105.463 115.318 105.525C115.38 105.585 115.411 105.672 115.411 105.786V105.831C115.411 105.945 115.38 106.033 115.318 106.095C115.254 106.155 115.167 106.185 115.057 106.185ZM111.56 107.286C111.68 107.286 111.787 107.267 111.881 107.229C111.975 107.189 112.055 107.134 112.121 107.064C112.187 106.992 112.237 106.906 112.271 106.806C112.305 106.704 112.322 106.59 112.322 106.464C112.322 106.314 112.3 106.173 112.256 106.041C112.21 105.907 112.151 105.785 112.079 105.675C112.007 105.563 111.927 105.464 111.839 105.378C111.749 105.29 111.66 105.216 111.572 105.156H111.038C111.162 105.244 111.273 105.329 111.371 105.411C111.467 105.493 111.552 105.576 111.626 105.66C111.698 105.744 111.758 105.832 111.806 105.924C111.852 106.014 111.887 106.112 111.911 106.218L111.887 106.224C111.867 106.184 111.844 106.146 111.818 106.11C111.79 106.072 111.757 106.039 111.719 106.011C111.681 105.981 111.637 105.958 111.587 105.942C111.537 105.924 111.479 105.915 111.413 105.915C111.327 105.915 111.247 105.93 111.173 105.96C111.097 105.99 111.032 106.034 110.978 106.092C110.922 106.148 110.879 106.216 110.849 106.296C110.817 106.376 110.801 106.465 110.801 106.563C110.801 106.669 110.819 106.766 110.855 106.854C110.891 106.942 110.942 107.018 111.008 107.082C111.074 107.146 111.154 107.196 111.248 107.232C111.34 107.268 111.444 107.286 111.56 107.286ZM111.56 106.974C111.45 106.974 111.364 106.944 111.302 106.884C111.238 106.822 111.206 106.734 111.206 106.62V106.575C111.206 106.461 111.238 106.374 111.302 106.314C111.364 106.252 111.45 106.221 111.56 106.221C111.672 106.221 111.759 106.252 111.821 106.314C111.883 106.374 111.914 106.461 111.914 106.575V106.62C111.914 106.734 111.883 106.822 111.821 106.884C111.759 106.944 111.672 106.974 111.56 106.974ZM118.92 115.25L118.191 113.477H118.914V113.861H119.25V113.156H117.798V113.495L118.506 115.25H118.92ZM114.31 115.25H115.762V114.884L115.105 114.308C114.993 114.21 114.911 114.122 114.859 114.044C114.807 113.964 114.781 113.878 114.781 113.786V113.747C114.781 113.655 114.811 113.585 114.871 113.537C114.931 113.487 115.004 113.462 115.09 113.462C115.198 113.462 115.28 113.493 115.336 113.555C115.392 113.615 115.432 113.688 115.456 113.774L115.798 113.642C115.776 113.572 115.745 113.506 115.705 113.444C115.665 113.38 115.615 113.324 115.555 113.276C115.493 113.228 115.421 113.19 115.339 113.162C115.257 113.134 115.163 113.12 115.057 113.12C114.947 113.12 114.849 113.136 114.763 113.168C114.677 113.198 114.605 113.241 114.547 113.297C114.487 113.353 114.442 113.419 114.412 113.495C114.38 113.571 114.364 113.654 114.364 113.744C114.364 113.832 114.378 113.912 114.406 113.984C114.434 114.056 114.472 114.125 114.52 114.191C114.568 114.255 114.624 114.317 114.688 114.377C114.752 114.435 114.82 114.494 114.892 114.554L115.333 114.917H114.31V115.25ZM111.425 115.25V114.845H112.373V114.509L111.539 113.156H111.05V114.539H110.777V114.845H111.05V115.25H111.425ZM112.049 114.539H111.425V113.54H111.449L112.049 114.539ZM118.527 123.286C118.649 123.286 118.758 123.271 118.854 123.241C118.948 123.209 119.028 123.166 119.094 123.112C119.158 123.058 119.207 122.994 119.241 122.92C119.275 122.846 119.292 122.765 119.292 122.677C119.292 122.541 119.255 122.431 119.181 122.347C119.105 122.261 119.004 122.201 118.878 122.167V122.143C118.982 122.105 119.067 122.046 119.133 121.966C119.197 121.886 119.229 121.785 119.229 121.663C119.229 121.583 119.214 121.51 119.184 121.444C119.152 121.378 119.106 121.321 119.046 121.273C118.986 121.225 118.913 121.188 118.827 121.162C118.739 121.134 118.639 121.12 118.527 121.12C118.415 121.12 118.316 121.134 118.23 121.162C118.142 121.188 118.068 121.225 118.008 121.273C117.948 121.321 117.903 121.378 117.873 121.444C117.841 121.51 117.825 121.583 117.825 121.663C117.825 121.785 117.858 121.886 117.924 121.966C117.988 122.046 118.072 122.105 118.176 122.143V122.167C118.05 122.201 117.95 122.261 117.876 122.347C117.8 122.431 117.762 122.541 117.762 122.677C117.762 122.765 117.779 122.846 117.813 122.92C117.847 122.994 117.897 123.058 117.963 123.112C118.027 123.166 118.107 123.209 118.203 123.241C118.297 123.271 118.405 123.286 118.527 123.286ZM118.527 122.977C118.413 122.977 118.326 122.951 118.266 122.899C118.204 122.847 118.173 122.774 118.173 122.68V122.617C118.173 122.523 118.204 122.45 118.266 122.398C118.326 122.346 118.413 122.32 118.527 122.32C118.641 122.32 118.729 122.346 118.791 122.398C118.851 122.45 118.881 122.523 118.881 122.617V122.68C118.881 122.774 118.851 122.847 118.791 122.899C118.729 122.951 118.641 122.977 118.527 122.977ZM118.527 122.026C118.421 122.026 118.34 122.002 118.284 121.954C118.228 121.906 118.2 121.838 118.2 121.75V121.702C118.2 121.616 118.228 121.549 118.284 121.501C118.34 121.453 118.421 121.429 118.527 121.429C118.633 121.429 118.714 121.453 118.77 121.501C118.826 121.549 118.854 121.616 118.854 121.702V121.75C118.854 121.838 118.826 121.906 118.77 121.954C118.714 122.002 118.633 122.026 118.527 122.026ZM118.518 131.286C118.638 131.286 118.745 131.267 118.839 131.229C118.933 131.189 119.013 131.134 119.079 131.064C119.145 130.992 119.195 130.906 119.229 130.806C119.263 130.704 119.28 130.59 119.28 130.464C119.28 130.314 119.258 130.173 119.214 130.041C119.168 129.907 119.109 129.785 119.037 129.675C118.965 129.563 118.885 129.464 118.797 129.378C118.707 129.29 118.618 129.216 118.53 129.156H117.996C118.12 129.244 118.231 129.329 118.329 129.411C118.425 129.493 118.51 129.576 118.584 129.66C118.656 129.744 118.716 129.832 118.764 129.924C118.81 130.014 118.845 130.112 118.869 130.218L118.845 130.224C118.825 130.184 118.802 130.146 118.776 130.11C118.748 130.072 118.715 130.039 118.677 130.011C118.639 129.981 118.595 129.958 118.545 129.942C118.495 129.924 118.437 129.915 118.371 129.915C118.285 129.915 118.205 129.93 118.131 129.96C118.055 129.99 117.99 130.034 117.936 130.092C117.88 130.148 117.837 130.216 117.807 130.296C117.775 130.376 117.759 130.465 117.759 130.563C117.759 130.669 117.777 130.766 117.813 130.854C117.849 130.942 117.9 131.018 117.966 131.082C118.032 131.146 118.112 131.196 118.206 131.232C118.298 131.268 118.402 131.286 118.518 131.286ZM118.518 130.974C118.408 130.974 118.322 130.944 118.26 130.884C118.196 130.822 118.164 130.734 118.164 130.62V130.575C118.164 130.461 118.196 130.374 118.26 130.314C118.322 130.252 118.408 130.221 118.518 130.221C118.63 130.221 118.717 130.252 118.779 130.314C118.841 130.374 118.872 130.461 118.872 130.575V130.62C118.872 130.734 118.841 130.822 118.779 130.884C118.717 130.944 118.63 130.974 118.518 130.974ZM118.527 139.286C118.661 139.286 118.777 139.262 118.875 139.214C118.973 139.164 119.054 139.093 119.118 139.001C119.182 138.909 119.23 138.796 119.262 138.662C119.292 138.528 119.307 138.375 119.307 138.203C119.307 138.033 119.292 137.881 119.262 137.747C119.23 137.611 119.182 137.497 119.118 137.405C119.054 137.313 118.973 137.243 118.875 137.195C118.777 137.145 118.661 137.12 118.527 137.12C118.261 137.12 118.065 137.215 117.939 137.405C117.811 137.595 117.747 137.861 117.747 138.203C117.747 138.545 117.811 138.811 117.939 139.001C118.065 139.191 118.261 139.286 118.527 139.286ZM118.527 138.953C118.393 138.953 118.3 138.903 118.248 138.803C118.194 138.701 118.167 138.564 118.167 138.392V138.014C118.167 137.842 118.194 137.706 118.248 137.606C118.3 137.504 118.393 137.453 118.527 137.453C118.661 137.453 118.755 137.504 118.809 137.606C118.861 137.706 118.887 137.842 118.887 138.014V138.392C118.887 138.564 118.861 138.701 118.809 138.803C118.755 138.903 118.661 138.953 118.527 138.953ZM114.295 137.942C114.295 138.092 114.318 138.234 114.364 138.368C114.408 138.5 114.466 138.622 114.538 138.734C114.61 138.844 114.691 138.943 114.781 139.031C114.869 139.117 114.957 139.19 115.045 139.25H115.579C115.457 139.162 115.347 139.077 115.249 138.995C115.151 138.913 115.066 138.83 114.994 138.746C114.92 138.662 114.86 138.575 114.814 138.485C114.766 138.393 114.73 138.294 114.706 138.188L114.73 138.182C114.75 138.222 114.774 138.261 114.802 138.299C114.828 138.337 114.86 138.37 114.898 138.398C114.936 138.426 114.98 138.449 115.03 138.467C115.08 138.483 115.138 138.491 115.204 138.491C115.292 138.491 115.373 138.476 115.447 138.446C115.521 138.416 115.586 138.373 115.642 138.317C115.696 138.259 115.739 138.191 115.771 138.113C115.801 138.033 115.816 137.943 115.816 137.843C115.816 137.737 115.798 137.64 115.762 137.552C115.726 137.464 115.675 137.388 115.609 137.324C115.543 137.26 115.464 137.21 115.372 137.174C115.278 137.138 115.173 137.12 115.057 137.12C114.937 137.12 114.83 137.14 114.736 137.18C114.642 137.218 114.562 137.273 114.496 137.345C114.43 137.415 114.38 137.501 114.346 137.603C114.312 137.703 114.295 137.816 114.295 137.942ZM115.057 138.185C114.945 138.185 114.858 138.155 114.796 138.095C114.734 138.033 114.703 137.945 114.703 137.831V137.786C114.703 137.672 114.734 137.585 114.796 137.525C114.858 137.463 114.945 137.432 115.057 137.432C115.167 137.432 115.254 137.463 115.318 137.525C115.38 137.585 115.411 137.672 115.411 137.786V137.831C115.411 137.945 115.38 138.033 115.318 138.095C115.254 138.155 115.167 138.185 115.057 138.185ZM118.527 147.286C118.649 147.286 118.758 147.271 118.854 147.241C118.948 147.209 119.028 147.166 119.094 147.112C119.158 147.058 119.207 146.994 119.241 146.92C119.275 146.846 119.292 146.765 119.292 146.677C119.292 146.541 119.255 146.431 119.181 146.347C119.105 146.261 119.004 146.201 118.878 146.167V146.143C118.982 146.105 119.067 146.046 119.133 145.966C119.197 145.886 119.229 145.785 119.229 145.663C119.229 145.583 119.214 145.51 119.184 145.444C119.152 145.378 119.106 145.321 119.046 145.273C118.986 145.225 118.913 145.188 118.827 145.162C118.739 145.134 118.639 145.12 118.527 145.12C118.415 145.12 118.316 145.134 118.23 145.162C118.142 145.188 118.068 145.225 118.008 145.273C117.948 145.321 117.903 145.378 117.873 145.444C117.841 145.51 117.825 145.583 117.825 145.663C117.825 145.785 117.858 145.886 117.924 145.966C117.988 146.046 118.072 146.105 118.176 146.143V146.167C118.05 146.201 117.95 146.261 117.876 146.347C117.8 146.431 117.762 146.541 117.762 146.677C117.762 146.765 117.779 146.846 117.813 146.92C117.847 146.994 117.897 147.058 117.963 147.112C118.027 147.166 118.107 147.209 118.203 147.241C118.297 147.271 118.405 147.286 118.527 147.286ZM118.527 146.977C118.413 146.977 118.326 146.951 118.266 146.899C118.204 146.847 118.173 146.774 118.173 146.68V146.617C118.173 146.523 118.204 146.45 118.266 146.398C118.326 146.346 118.413 146.32 118.527 146.32C118.641 146.32 118.729 146.346 118.791 146.398C118.851 146.45 118.881 146.523 118.881 146.617V146.68C118.881 146.774 118.851 146.847 118.791 146.899C118.729 146.951 118.641 146.977 118.527 146.977ZM118.527 146.026C118.421 146.026 118.34 146.002 118.284 145.954C118.228 145.906 118.2 145.838 118.2 145.75V145.702C118.2 145.616 118.228 145.549 118.284 145.501C118.34 145.453 118.421 145.429 118.527 145.429C118.633 145.429 118.714 145.453 118.77 145.501C118.826 145.549 118.854 145.616 118.854 145.702V145.75C118.854 145.838 118.826 145.906 118.77 145.954C118.714 146.002 118.633 146.026 118.527 146.026ZM114.31 147.25H115.762V146.884L115.105 146.308C114.993 146.21 114.911 146.122 114.859 146.044C114.807 145.964 114.781 145.878 114.781 145.786V145.747C114.781 145.655 114.811 145.585 114.871 145.537C114.931 145.487 115.004 145.462 115.09 145.462C115.198 145.462 115.28 145.493 115.336 145.555C115.392 145.615 115.432 145.688 115.456 145.774L115.798 145.642C115.776 145.572 115.745 145.506 115.705 145.444C115.665 145.38 115.615 145.324 115.555 145.276C115.493 145.228 115.421 145.19 115.339 145.162C115.257 145.134 115.163 145.12 115.057 145.12C114.947 145.12 114.849 145.136 114.763 145.168C114.677 145.198 114.605 145.241 114.547 145.297C114.487 145.353 114.442 145.419 114.412 145.495C114.38 145.571 114.364 145.654 114.364 145.744C114.364 145.832 114.378 145.912 114.406 145.984C114.434 146.056 114.472 146.125 114.52 146.191C114.568 146.255 114.624 146.317 114.688 146.377C114.752 146.435 114.82 146.494 114.892 146.554L115.333 146.917H114.31V147.25ZM118.641 154.002C118.521 154.002 118.433 153.978 118.377 153.93C118.319 153.88 118.29 153.817 118.29 153.741V153.72C118.29 153.634 118.318 153.567 118.374 153.519C118.428 153.469 118.503 153.444 118.599 153.444C118.691 153.444 118.773 153.466 118.845 153.51C118.915 153.554 118.976 153.616 119.028 153.696L119.28 153.468C119.244 153.42 119.205 153.375 119.163 153.333C119.119 153.289 119.069 153.252 119.013 153.222C118.957 153.19 118.894 153.165 118.824 153.147C118.754 153.129 118.675 153.12 118.587 153.12C118.481 153.12 118.385 153.133 118.299 153.159C118.211 153.183 118.136 153.219 118.074 153.267C118.01 153.315 117.961 153.373 117.927 153.441C117.893 153.507 117.876 153.582 117.876 153.666C117.876 153.734 117.887 153.795 117.909 153.849C117.929 153.903 117.958 153.95 117.996 153.99C118.032 154.03 118.075 154.063 118.125 154.089C118.173 154.113 118.224 154.131 118.278 154.143V154.161C118.218 154.173 118.161 154.192 118.107 154.218C118.053 154.244 118.007 154.279 117.969 154.323C117.929 154.365 117.898 154.415 117.876 154.473C117.852 154.531 117.84 154.597 117.84 154.671C117.84 154.763 117.859 154.847 117.897 154.923C117.933 154.999 117.985 155.064 118.053 155.118C118.121 155.172 118.202 155.214 118.296 155.244C118.39 155.272 118.495 155.286 118.611 155.286C118.713 155.286 118.803 155.275 118.881 155.253C118.959 155.233 119.028 155.205 119.088 155.169C119.146 155.133 119.197 155.092 119.241 155.046C119.285 154.998 119.323 154.948 119.355 154.896L119.064 154.674C119.04 154.716 119.014 154.755 118.986 154.791C118.958 154.825 118.926 154.855 118.89 154.881C118.854 154.907 118.813 154.927 118.767 154.941C118.721 154.955 118.669 154.962 118.611 154.962C118.495 154.962 118.406 154.934 118.344 154.878C118.282 154.822 118.251 154.745 118.251 154.647V154.626C118.251 154.53 118.285 154.457 118.353 154.407C118.419 154.357 118.515 154.332 118.641 154.332H118.848V154.002H118.641ZM114.904 155.25V154.845H115.852V154.509L115.018 153.156H114.529V154.539H114.256V154.845H114.529V155.25H114.904ZM115.528 154.539H114.904V153.54H114.928L115.528 154.539ZM117.774 161.942C117.774 162.092 117.797 162.234 117.843 162.368C117.887 162.5 117.945 162.622 118.017 162.734C118.089 162.844 118.17 162.943 118.26 163.031C118.348 163.117 118.436 163.19 118.524 163.25H119.058C118.936 163.162 118.826 163.077 118.728 162.995C118.63 162.913 118.545 162.83 118.473 162.746C118.399 162.662 118.339 162.575 118.293 162.485C118.245 162.393 118.209 162.294 118.185 162.188L118.209 162.182C118.229 162.222 118.253 162.261 118.281 162.299C118.307 162.337 118.339 162.37 118.377 162.398C118.415 162.426 118.459 162.449 118.509 162.467C118.559 162.483 118.617 162.491 118.683 162.491C118.771 162.491 118.852 162.476 118.926 162.446C119 162.416 119.065 162.373 119.121 162.317C119.175 162.259 119.218 162.191 119.25 162.113C119.28 162.033 119.295 161.943 119.295 161.843C119.295 161.737 119.277 161.64 119.241 161.552C119.205 161.464 119.154 161.388 119.088 161.324C119.022 161.26 118.943 161.21 118.851 161.174C118.757 161.138 118.652 161.12 118.536 161.12C118.416 161.12 118.309 161.14 118.215 161.18C118.121 161.218 118.041 161.273 117.975 161.345C117.909 161.415 117.859 161.501 117.825 161.603C117.791 161.703 117.774 161.816 117.774 161.942ZM118.536 162.185C118.424 162.185 118.337 162.155 118.275 162.095C118.213 162.033 118.182 161.945 118.182 161.831V161.786C118.182 161.672 118.213 161.585 118.275 161.525C118.337 161.463 118.424 161.432 118.536 161.432C118.646 161.432 118.733 161.463 118.797 161.525C118.859 161.585 118.89 161.672 118.89 161.786V161.831C118.89 161.945 118.859 162.033 118.797 162.095C118.733 162.155 118.646 162.185 118.536 162.185ZM114.403 161.498H115.345L115.393 162.2H115.372C115.35 162.156 115.326 162.115 115.3 162.077C115.274 162.039 115.244 162.007 115.21 161.981C115.176 161.955 115.137 161.935 115.093 161.921C115.047 161.905 114.992 161.897 114.928 161.897C114.838 161.897 114.754 161.912 114.676 161.942C114.598 161.972 114.531 162.016 114.475 162.074C114.417 162.13 114.372 162.199 114.34 162.281C114.306 162.363 114.289 162.456 114.289 162.56C114.289 162.666 114.306 162.763 114.34 162.851C114.374 162.939 114.424 163.016 114.49 163.082C114.556 163.146 114.637 163.196 114.733 163.232C114.829 163.268 114.939 163.286 115.063 163.286C115.159 163.286 115.245 163.275 115.321 163.253C115.397 163.233 115.464 163.205 115.522 163.169C115.58 163.133 115.63 163.092 115.672 163.046C115.714 162.998 115.751 162.948 115.783 162.896L115.495 162.674C115.471 162.714 115.446 162.752 115.42 162.788C115.394 162.822 115.364 162.852 115.33 162.878C115.294 162.904 115.255 162.925 115.213 162.941C115.169 162.955 115.118 162.962 115.06 162.962C114.942 162.962 114.853 162.929 114.793 162.863C114.731 162.797 114.7 162.707 114.7 162.593V162.569C114.7 162.461 114.731 162.376 114.793 162.314C114.855 162.252 114.941 162.221 115.051 162.221C115.137 162.221 115.207 162.238 115.261 162.272C115.315 162.304 115.358 162.339 115.39 162.377L115.714 162.332L115.636 161.156H114.403V161.498ZM111.425 163.25V162.845H112.373V162.509L111.539 161.156H111.05V162.539H110.777V162.845H111.05V163.25H111.425ZM112.049 162.539H111.425V161.54H111.449L112.049 162.539ZM107.946 163.25V162.845H108.894V162.509L108.06 161.156H107.571V162.539H107.298V162.845H107.571V163.25H107.946ZM108.57 162.539H107.946V161.54H107.97L108.57 162.539ZM117.789 171.25H119.241V170.884L118.584 170.308C118.472 170.21 118.39 170.122 118.338 170.044C118.286 169.964 118.26 169.878 118.26 169.786V169.747C118.26 169.655 118.29 169.585 118.35 169.537C118.41 169.487 118.483 169.462 118.569 169.462C118.677 169.462 118.759 169.493 118.815 169.555C118.871 169.615 118.911 169.688 118.935 169.774L119.277 169.642C119.255 169.572 119.224 169.506 119.184 169.444C119.144 169.38 119.094 169.324 119.034 169.276C118.972 169.228 118.9 169.19 118.818 169.162C118.736 169.134 118.642 169.12 118.536 169.12C118.426 169.12 118.328 169.136 118.242 169.168C118.156 169.198 118.084 169.241 118.026 169.297C117.966 169.353 117.921 169.419 117.891 169.495C117.859 169.571 117.843 169.654 117.843 169.744C117.843 169.832 117.857 169.912 117.885 169.984C117.913 170.056 117.951 170.125 117.999 170.191C118.047 170.255 118.103 170.317 118.167 170.377C118.231 170.435 118.299 170.494 118.371 170.554L118.812 170.917H117.789V171.25ZM114.31 171.25H115.762V170.884L115.105 170.308C114.993 170.21 114.911 170.122 114.859 170.044C114.807 169.964 114.781 169.878 114.781 169.786V169.747C114.781 169.655 114.811 169.585 114.871 169.537C114.931 169.487 115.004 169.462 115.09 169.462C115.198 169.462 115.28 169.493 115.336 169.555C115.392 169.615 115.432 169.688 115.456 169.774L115.798 169.642C115.776 169.572 115.745 169.506 115.705 169.444C115.665 169.38 115.615 169.324 115.555 169.276C115.493 169.228 115.421 169.19 115.339 169.162C115.257 169.134 115.163 169.12 115.057 169.12C114.947 169.12 114.849 169.136 114.763 169.168C114.677 169.198 114.605 169.241 114.547 169.297C114.487 169.353 114.442 169.419 114.412 169.495C114.38 169.571 114.364 169.654 114.364 169.744C114.364 169.832 114.378 169.912 114.406 169.984C114.434 170.056 114.472 170.125 114.52 170.191C114.568 170.255 114.624 170.317 114.688 170.377C114.752 170.435 114.82 170.494 114.892 170.554L115.333 170.917H114.31V171.25Z" fill="#0ECACA"/>
<path d="M128.927 89.75H122.427" stroke="#0ECACA" stroke-width="0.5"/>
<path d="M128.927 129.75H122.427" stroke="#0ECACA" stroke-width="0.5"/>
<path d="M128.927 113.75H125.427" stroke="#0ECACA" stroke-width="0.5"/>
<path d="M128.927 105.75H125.427" stroke="#0ECACA" stroke-width="0.5"/>
<path d="M128.927 97.75H125.427" stroke="#0ECACA" stroke-width="0.5"/>
<path d="M128.927 121.75H125.427" stroke="#0ECACA" stroke-width="0.5"/>
<path d="M128.927 169.75H122.427" stroke="#0ECACA" stroke-width="0.5"/>
<path d="M128.927 153.75H125.427" stroke="#0ECACA" stroke-width="0.5"/>
<path d="M128.927 145.75H125.427" stroke="#0ECACA" stroke-width="0.5"/>
<path d="M128.927 137.75H125.427" stroke="#0ECACA" stroke-width="0.5"/>
<path d="M128.927 161.75H125.427" stroke="#0ECACA" stroke-width="0.5"/>
<path d="M148.927 0.25H115.711C110.407 0.25 105.32 2.35714 101.569 6.10786L73.9268 33.75" stroke="#0ECACA" stroke-width="0.5"/>
<rect width="17.711" height="4" transform="matrix(-1 0 0 1 51.9268 228.25)" fill="#0ECACA"/>
<path d="M0.176758 249.75L12.6473 237.279C17.1482 232.779 23.2527 230.25 29.6179 230.25H44.9268" stroke="#0ECACA" stroke-width="0.5"/>
</svg>
