<svg width="171" height="98" viewBox="0 0 171 98" fill="none" xmlns="http://www.w3.org/2000/svg">
<path d="M170.5 92.5H91.4412C85.076 92.5 78.9715 89.9714 74.4706 85.4706L41.5295 52.5294C37.0286 48.0286 34.5 41.9241 34.5 35.5589V25.1274C34.5 20.884 32.8143 16.8143 29.8137 13.8137L22.1863 6.18629C19.1857 3.18571 15.1161 1.5 10.8726 1.5H3.05176e-05" stroke="#0ECACA" stroke-width="0.5"/>
<path d="M10.8731 1.5H0.000488281" stroke="#0ECACA" stroke-width="3"/>
<path d="M30.5 39.5L30.5 36.5" stroke="#0ECACA" stroke-width="3"/>
<path d="M70.5 81.5L74.4706 85.4706C78.9715 89.9714 85.076 92.5 91.4412 92.5H97.5" stroke="#0ECACA" stroke-width="3"/>
<path d="M30.5 38.4136C30.5 44.8646 33.097 51.044 37.7053 55.5582L51.5 69.1939M61.5 78.8674L72.5018 89.6446C76.9876 94.0389 83.017 96.5 89.2965 96.5H98" stroke="#0ECACA" stroke-width="0.5"/>
<path d="M157.607 97.5H159.059V97.134L158.402 96.558C158.29 96.46 158.208 96.372 158.156 96.294C158.104 96.214 158.078 96.128 158.078 96.036V95.997C158.078 95.905 158.108 95.835 158.168 95.787C158.228 95.737 158.301 95.712 158.387 95.712C158.495 95.712 158.577 95.743 158.633 95.805C158.689 95.865 158.729 95.938 158.753 96.024L159.095 95.892C159.073 95.822 159.042 95.756 159.002 95.694C158.962 95.63 158.912 95.574 158.852 95.526C158.79 95.478 158.718 95.44 158.636 95.412C158.554 95.384 158.46 95.37 158.354 95.37C158.244 95.37 158.146 95.386 158.06 95.418C157.974 95.448 157.902 95.491 157.844 95.547C157.784 95.603 157.739 95.669 157.709 95.745C157.677 95.821 157.661 95.904 157.661 95.994C157.661 96.082 157.675 96.162 157.703 96.234C157.731 96.306 157.769 96.375 157.817 96.441C157.865 96.505 157.921 96.567 157.985 96.627C158.049 96.685 158.117 96.744 158.189 96.804L158.63 97.167H157.607V97.5ZM154.722 97.5V97.095H155.67V96.759L154.836 95.406H154.347V96.789H154.074V97.095H154.347V97.5H154.722ZM155.346 96.789H154.722V95.79H154.746L155.346 96.789ZM151.387 97.536C151.509 97.536 151.618 97.521 151.714 97.491C151.808 97.459 151.888 97.416 151.954 97.362C152.018 97.308 152.067 97.244 152.101 97.17C152.135 97.096 152.152 97.015 152.152 96.927C152.152 96.791 152.115 96.681 152.041 96.597C151.965 96.511 151.864 96.451 151.738 96.417V96.393C151.842 96.355 151.927 96.296 151.993 96.216C152.057 96.136 152.089 96.035 152.089 95.913C152.089 95.833 152.074 95.76 152.044 95.694C152.012 95.628 151.966 95.571 151.906 95.523C151.846 95.475 151.773 95.438 151.687 95.412C151.599 95.384 151.499 95.37 151.387 95.37C151.275 95.37 151.176 95.384 151.09 95.412C151.002 95.438 150.928 95.475 150.868 95.523C150.808 95.571 150.763 95.628 150.733 95.694C150.701 95.76 150.685 95.833 150.685 95.913C150.685 96.035 150.718 96.136 150.784 96.216C150.848 96.296 150.932 96.355 151.036 96.393V96.417C150.91 96.451 150.81 96.511 150.736 96.597C150.66 96.681 150.622 96.791 150.622 96.927C150.622 97.015 150.639 97.096 150.673 97.17C150.707 97.244 150.757 97.308 150.823 97.362C150.887 97.416 150.967 97.459 151.063 97.491C151.157 97.521 151.265 97.536 151.387 97.536ZM151.387 97.227C151.273 97.227 151.186 97.201 151.126 97.149C151.064 97.097 151.033 97.024 151.033 96.93V96.867C151.033 96.773 151.064 96.7 151.126 96.648C151.186 96.596 151.273 96.57 151.387 96.57C151.501 96.57 151.589 96.596 151.651 96.648C151.711 96.7 151.741 96.773 151.741 96.867V96.93C151.741 97.024 151.711 97.097 151.651 97.149C151.589 97.201 151.501 97.227 151.387 97.227ZM151.387 96.276C151.281 96.276 151.2 96.252 151.144 96.204C151.088 96.156 151.06 96.088 151.06 96V95.952C151.06 95.866 151.088 95.799 151.144 95.751C151.2 95.703 151.281 95.679 151.387 95.679C151.493 95.679 151.574 95.703 151.63 95.751C151.686 95.799 151.714 95.866 151.714 95.952V96C151.714 96.088 151.686 96.156 151.63 96.204C151.574 96.252 151.493 96.276 151.387 96.276ZM142.392 97.5H143.844V97.134L143.187 96.558C143.075 96.46 142.993 96.372 142.941 96.294C142.889 96.214 142.863 96.128 142.863 96.036V95.997C142.863 95.905 142.893 95.835 142.953 95.787C143.013 95.737 143.086 95.712 143.172 95.712C143.28 95.712 143.362 95.743 143.418 95.805C143.474 95.865 143.514 95.938 143.538 96.024L143.88 95.892C143.858 95.822 143.827 95.756 143.787 95.694C143.747 95.63 143.697 95.574 143.637 95.526C143.575 95.478 143.503 95.44 143.421 95.412C143.339 95.384 143.245 95.37 143.139 95.37C143.029 95.37 142.931 95.386 142.845 95.418C142.759 95.448 142.687 95.491 142.629 95.547C142.569 95.603 142.524 95.669 142.494 95.745C142.462 95.821 142.446 95.904 142.446 95.994C142.446 96.082 142.46 96.162 142.488 96.234C142.516 96.306 142.554 96.375 142.602 96.441C142.65 96.505 142.706 96.567 142.77 96.627C142.834 96.685 142.902 96.744 142.974 96.804L143.415 97.167H142.392V97.5ZM139.643 97.536C139.763 97.536 139.87 97.517 139.964 97.479C140.058 97.439 140.138 97.384 140.204 97.314C140.27 97.242 140.32 97.156 140.354 97.056C140.388 96.954 140.405 96.84 140.405 96.714C140.405 96.564 140.383 96.423 140.339 96.291C140.293 96.157 140.234 96.035 140.162 95.925C140.09 95.813 140.01 95.714 139.922 95.628C139.832 95.54 139.743 95.466 139.655 95.406H139.121C139.245 95.494 139.356 95.579 139.454 95.661C139.55 95.743 139.635 95.826 139.709 95.91C139.781 95.994 139.841 96.082 139.889 96.174C139.935 96.264 139.97 96.362 139.994 96.468L139.97 96.474C139.95 96.434 139.927 96.396 139.901 96.36C139.873 96.322 139.84 96.289 139.802 96.261C139.764 96.231 139.72 96.208 139.67 96.192C139.62 96.174 139.562 96.165 139.496 96.165C139.41 96.165 139.33 96.18 139.256 96.21C139.18 96.24 139.115 96.284 139.061 96.342C139.005 96.398 138.962 96.466 138.932 96.546C138.9 96.626 138.884 96.715 138.884 96.813C138.884 96.919 138.902 97.016 138.938 97.104C138.974 97.192 139.025 97.268 139.091 97.332C139.157 97.396 139.237 97.446 139.331 97.482C139.423 97.518 139.527 97.536 139.643 97.536ZM139.643 97.224C139.533 97.224 139.447 97.194 139.385 97.134C139.321 97.072 139.289 96.984 139.289 96.87V96.825C139.289 96.711 139.321 96.624 139.385 96.564C139.447 96.502 139.533 96.471 139.643 96.471C139.755 96.471 139.842 96.502 139.904 96.564C139.966 96.624 139.997 96.711 139.997 96.825V96.87C139.997 96.984 139.966 97.072 139.904 97.134C139.842 97.194 139.755 97.224 139.643 97.224ZM131.395 97.536C131.529 97.536 131.645 97.512 131.743 97.464C131.841 97.414 131.922 97.343 131.986 97.251C132.05 97.159 132.098 97.046 132.13 96.912C132.16 96.778 132.175 96.625 132.175 96.453C132.175 96.283 132.16 96.131 132.13 95.997C132.098 95.861 132.05 95.747 131.986 95.655C131.922 95.563 131.841 95.493 131.743 95.445C131.645 95.395 131.529 95.37 131.395 95.37C131.129 95.37 130.933 95.465 130.807 95.655C130.679 95.845 130.615 96.111 130.615 96.453C130.615 96.795 130.679 97.061 130.807 97.251C130.933 97.441 131.129 97.536 131.395 97.536ZM131.395 97.203C131.261 97.203 131.168 97.153 131.116 97.053C131.062 96.951 131.035 96.814 131.035 96.642V96.264C131.035 96.092 131.062 95.956 131.116 95.856C131.168 95.754 131.261 95.703 131.395 95.703C131.529 95.703 131.623 95.754 131.677 95.856C131.729 95.956 131.755 96.092 131.755 96.264V96.642C131.755 96.814 131.729 96.951 131.677 97.053C131.623 97.153 131.529 97.203 131.395 97.203ZM127.163 96.192C127.163 96.342 127.186 96.484 127.232 96.618C127.276 96.75 127.334 96.872 127.406 96.984C127.478 97.094 127.559 97.193 127.649 97.281C127.737 97.367 127.825 97.44 127.913 97.5H128.447C128.325 97.412 128.215 97.327 128.117 97.245C128.019 97.163 127.934 97.08 127.862 96.996C127.788 96.912 127.728 96.825 127.682 96.735C127.634 96.643 127.598 96.544 127.574 96.438L127.598 96.432C127.618 96.472 127.642 96.511 127.67 96.549C127.696 96.587 127.728 96.62 127.766 96.648C127.804 96.676 127.848 96.699 127.898 96.717C127.948 96.733 128.006 96.741 128.072 96.741C128.16 96.741 128.241 96.726 128.315 96.696C128.389 96.666 128.454 96.623 128.51 96.567C128.564 96.509 128.607 96.441 128.639 96.363C128.669 96.283 128.684 96.193 128.684 96.093C128.684 95.987 128.666 95.89 128.63 95.802C128.594 95.714 128.543 95.638 128.477 95.574C128.411 95.51 128.332 95.46 128.24 95.424C128.146 95.388 128.041 95.37 127.925 95.37C127.805 95.37 127.698 95.39 127.604 95.43C127.51 95.468 127.43 95.523 127.364 95.595C127.298 95.665 127.248 95.751 127.214 95.853C127.18 95.953 127.163 96.066 127.163 96.192ZM127.925 96.435C127.813 96.435 127.726 96.405 127.664 96.345C127.602 96.283 127.571 96.195 127.571 96.081V96.036C127.571 95.922 127.602 95.835 127.664 95.775C127.726 95.713 127.813 95.682 127.925 95.682C128.035 95.682 128.122 95.713 128.186 95.775C128.248 95.835 128.279 95.922 128.279 96.036V96.081C128.279 96.195 128.248 96.283 128.186 96.345C128.122 96.405 128.035 96.435 127.925 96.435ZM124.437 97.536C124.559 97.536 124.668 97.521 124.764 97.491C124.858 97.459 124.938 97.416 125.004 97.362C125.068 97.308 125.117 97.244 125.151 97.17C125.185 97.096 125.202 97.015 125.202 96.927C125.202 96.791 125.165 96.681 125.091 96.597C125.015 96.511 124.914 96.451 124.788 96.417V96.393C124.892 96.355 124.977 96.296 125.043 96.216C125.107 96.136 125.139 96.035 125.139 95.913C125.139 95.833 125.124 95.76 125.094 95.694C125.062 95.628 125.016 95.571 124.956 95.523C124.896 95.475 124.823 95.438 124.737 95.412C124.649 95.384 124.549 95.37 124.437 95.37C124.325 95.37 124.226 95.384 124.14 95.412C124.052 95.438 123.978 95.475 123.918 95.523C123.858 95.571 123.813 95.628 123.783 95.694C123.751 95.76 123.735 95.833 123.735 95.913C123.735 96.035 123.768 96.136 123.834 96.216C123.898 96.296 123.982 96.355 124.086 96.393V96.417C123.96 96.451 123.86 96.511 123.786 96.597C123.71 96.681 123.672 96.791 123.672 96.927C123.672 97.015 123.689 97.096 123.723 97.17C123.757 97.244 123.807 97.308 123.873 97.362C123.937 97.416 124.017 97.459 124.113 97.491C124.207 97.521 124.315 97.536 124.437 97.536ZM124.437 97.227C124.323 97.227 124.236 97.201 124.176 97.149C124.114 97.097 124.083 97.024 124.083 96.93V96.867C124.083 96.773 124.114 96.7 124.176 96.648C124.236 96.596 124.323 96.57 124.437 96.57C124.551 96.57 124.639 96.596 124.701 96.648C124.761 96.7 124.791 96.773 124.791 96.867V96.93C124.791 97.024 124.761 97.097 124.701 97.149C124.639 97.201 124.551 97.227 124.437 97.227ZM124.437 96.276C124.331 96.276 124.25 96.252 124.194 96.204C124.138 96.156 124.11 96.088 124.11 96V95.952C124.11 95.866 124.138 95.799 124.194 95.751C124.25 95.703 124.331 95.679 124.437 95.679C124.543 95.679 124.624 95.703 124.68 95.751C124.736 95.799 124.764 95.866 124.764 95.952V96C124.764 96.088 124.736 96.156 124.68 96.204C124.624 96.252 124.543 96.276 124.437 96.276ZM120.22 97.5H121.672V97.134L121.015 96.558C120.903 96.46 120.821 96.372 120.769 96.294C120.717 96.214 120.691 96.128 120.691 96.036V95.997C120.691 95.905 120.721 95.835 120.781 95.787C120.841 95.737 120.914 95.712 121 95.712C121.108 95.712 121.19 95.743 121.246 95.805C121.302 95.865 121.342 95.938 121.366 96.024L121.708 95.892C121.686 95.822 121.655 95.756 121.615 95.694C121.575 95.63 121.525 95.574 121.465 95.526C121.403 95.478 121.331 95.44 121.249 95.412C121.167 95.384 121.073 95.37 120.967 95.37C120.857 95.37 120.759 95.386 120.673 95.418C120.587 95.448 120.515 95.491 120.457 95.547C120.397 95.603 120.352 95.669 120.322 95.745C120.29 95.821 120.274 95.904 120.274 95.994C120.274 96.082 120.288 96.162 120.316 96.234C120.344 96.306 120.382 96.375 120.43 96.441C120.478 96.505 120.534 96.567 120.598 96.627C120.662 96.685 120.73 96.744 120.802 96.804L121.243 97.167H120.22V97.5ZM115.204 96.252C115.084 96.252 114.996 96.228 114.94 96.18C114.882 96.13 114.853 96.067 114.853 95.991V95.97C114.853 95.884 114.881 95.817 114.937 95.769C114.991 95.719 115.066 95.694 115.162 95.694C115.254 95.694 115.336 95.716 115.408 95.76C115.478 95.804 115.539 95.866 115.591 95.946L115.843 95.718C115.807 95.67 115.768 95.625 115.726 95.583C115.682 95.539 115.632 95.502 115.576 95.472C115.52 95.44 115.457 95.415 115.387 95.397C115.317 95.379 115.238 95.37 115.15 95.37C115.044 95.37 114.948 95.383 114.862 95.409C114.774 95.433 114.699 95.469 114.637 95.517C114.573 95.565 114.524 95.623 114.49 95.691C114.456 95.757 114.439 95.832 114.439 95.916C114.439 95.984 114.45 96.045 114.472 96.099C114.492 96.153 114.521 96.2 114.559 96.24C114.595 96.28 114.638 96.313 114.688 96.339C114.736 96.363 114.787 96.381 114.841 96.393V96.411C114.781 96.423 114.724 96.442 114.67 96.468C114.616 96.494 114.57 96.529 114.532 96.573C114.492 96.615 114.461 96.665 114.439 96.723C114.415 96.781 114.403 96.847 114.403 96.921C114.403 97.013 114.422 97.097 114.46 97.173C114.496 97.249 114.548 97.314 114.616 97.368C114.684 97.422 114.765 97.464 114.859 97.494C114.953 97.522 115.058 97.536 115.174 97.536C115.276 97.536 115.366 97.525 115.444 97.503C115.522 97.483 115.591 97.455 115.651 97.419C115.709 97.383 115.76 97.342 115.804 97.296C115.848 97.248 115.886 97.198 115.918 97.146L115.627 96.924C115.603 96.966 115.577 97.005 115.549 97.041C115.521 97.075 115.489 97.105 115.453 97.131C115.417 97.157 115.376 97.177 115.33 97.191C115.284 97.205 115.232 97.212 115.174 97.212C115.058 97.212 114.969 97.184 114.907 97.128C114.845 97.072 114.814 96.995 114.814 96.897V96.876C114.814 96.78 114.848 96.707 114.916 96.657C114.982 96.607 115.078 96.582 115.204 96.582H115.411V96.252H115.204ZM111.468 97.5V97.095H112.416V96.759L111.582 95.406H111.093V96.789H110.82V97.095H111.093V97.5H111.468ZM112.092 96.789H111.468V95.79H111.492L112.092 96.789ZM107.38 96.192C107.38 96.342 107.403 96.484 107.449 96.618C107.493 96.75 107.551 96.872 107.623 96.984C107.695 97.094 107.776 97.193 107.866 97.281C107.954 97.367 108.042 97.44 108.13 97.5H108.664C108.542 97.412 108.432 97.327 108.334 97.245C108.236 97.163 108.151 97.08 108.079 96.996C108.005 96.912 107.945 96.825 107.899 96.735C107.851 96.643 107.815 96.544 107.791 96.438L107.815 96.432C107.835 96.472 107.859 96.511 107.887 96.549C107.913 96.587 107.945 96.62 107.983 96.648C108.021 96.676 108.065 96.699 108.115 96.717C108.165 96.733 108.223 96.741 108.289 96.741C108.377 96.741 108.458 96.726 108.532 96.696C108.606 96.666 108.671 96.623 108.727 96.567C108.781 96.509 108.824 96.441 108.856 96.363C108.886 96.283 108.901 96.193 108.901 96.093C108.901 95.987 108.883 95.89 108.847 95.802C108.811 95.714 108.76 95.638 108.694 95.574C108.628 95.51 108.549 95.46 108.457 95.424C108.363 95.388 108.258 95.37 108.142 95.37C108.022 95.37 107.915 95.39 107.821 95.43C107.727 95.468 107.647 95.523 107.581 95.595C107.515 95.665 107.465 95.751 107.431 95.853C107.397 95.953 107.38 96.066 107.38 96.192ZM108.142 96.435C108.03 96.435 107.943 96.405 107.881 96.345C107.819 96.283 107.788 96.195 107.788 96.081V96.036C107.788 95.922 107.819 95.835 107.881 95.775C107.943 95.713 108.03 95.682 108.142 95.682C108.252 95.682 108.339 95.713 108.403 95.775C108.465 95.835 108.496 95.922 108.496 96.036V96.081C108.496 96.195 108.465 96.283 108.403 96.345C108.339 96.405 108.252 96.435 108.142 96.435ZM104.009 95.748H104.951L104.999 96.45H104.978C104.956 96.406 104.932 96.365 104.906 96.327C104.88 96.289 104.85 96.257 104.816 96.231C104.782 96.205 104.743 96.185 104.699 96.171C104.653 96.155 104.598 96.147 104.534 96.147C104.444 96.147 104.36 96.162 104.282 96.192C104.204 96.222 104.137 96.266 104.081 96.324C104.023 96.38 103.978 96.449 103.946 96.531C103.912 96.613 103.895 96.706 103.895 96.81C103.895 96.916 103.912 97.013 103.946 97.101C103.98 97.189 104.03 97.266 104.096 97.332C104.162 97.396 104.243 97.446 104.339 97.482C104.435 97.518 104.545 97.536 104.669 97.536C104.765 97.536 104.851 97.525 104.927 97.503C105.003 97.483 105.07 97.455 105.128 97.419C105.186 97.383 105.236 97.342 105.278 97.296C105.32 97.248 105.357 97.198 105.389 97.146L105.101 96.924C105.077 96.964 105.052 97.002 105.026 97.038C105 97.072 104.97 97.102 104.936 97.128C104.9 97.154 104.861 97.175 104.819 97.191C104.775 97.205 104.724 97.212 104.666 97.212C104.548 97.212 104.459 97.179 104.399 97.113C104.337 97.047 104.306 96.957 104.306 96.843V96.819C104.306 96.711 104.337 96.626 104.399 96.564C104.461 96.502 104.547 96.471 104.657 96.471C104.743 96.471 104.813 96.488 104.867 96.522C104.921 96.554 104.964 96.589 104.996 96.627L105.32 96.582L105.242 95.406H104.009V95.748Z" fill="#0ECACA"/>
</svg>
