<svg width="149" height="251" viewBox="0 0 149 251" fill="none" xmlns="http://www.w3.org/2000/svg">
<path d="M41.5 11.25V34.3089C41.5 40.6741 38.9714 46.7786 34.4706 51.2794L21.0294 64.7206C16.5286 69.2214 14 75.3259 14 81.6911V111.75" stroke="#0ECACA" stroke-width="0.5"/>
<rect x="57.4141" y="13.8359" width="17.711" height="4" transform="rotate(45 57.4141 13.8359)" fill="#0ECACA"/>
<rect x="72.8281" y="29.25" width="7.22598" height="4" transform="rotate(45 72.8281 29.25)" fill="#0ECACA"/>
<path d="M143 250.25L134.029 241.279C129.529 236.779 123.424 234.25 117.059 234.25H68.9411C62.5759 234.25 56.4714 231.721 51.9706 227.221L27.0294 202.279C22.5286 197.779 20 191.674 20 185.309V84.1911C20 77.8259 22.5286 71.7214 27.0294 67.2206L47.5 46.75" stroke="#0ECACA" stroke-width="0.5"/>
<path d="M44 219.25L51.9706 227.221C56.4714 231.721 62.5759 234.25 68.9411 234.25H81.5" stroke="#0ECACA" stroke-width="4"/>
<path d="M30.544 91.25V90.845H29.596V90.509L30.43 89.156H30.919V90.539H31.192V90.845H30.919V91.25H30.544ZM29.92 90.539H30.544V89.54H30.52L29.92 90.539ZM33.4858 91.25L34.2148 89.477H33.4918V89.861H33.1558V89.156H34.6078V89.495L33.8998 91.25H33.4858ZM30.409 99.286C30.289 99.286 30.182 99.267 30.088 99.229C29.994 99.189 29.914 99.134 29.848 99.064C29.782 98.992 29.732 98.906 29.698 98.806C29.664 98.704 29.647 98.59 29.647 98.464C29.647 98.314 29.669 98.173 29.713 98.041C29.759 97.907 29.818 97.785 29.89 97.675C29.962 97.563 30.042 97.464 30.13 97.378C30.22 97.29 30.309 97.216 30.397 97.156H30.931C30.807 97.244 30.696 97.329 30.598 97.411C30.502 97.493 30.417 97.576 30.343 97.66C30.271 97.744 30.211 97.832 30.163 97.924C30.117 98.014 30.082 98.112 30.058 98.218L30.082 98.224C30.102 98.184 30.125 98.146 30.151 98.11C30.179 98.072 30.212 98.039 30.25 98.011C30.288 97.981 30.332 97.958 30.382 97.942C30.432 97.924 30.49 97.915 30.556 97.915C30.642 97.915 30.722 97.93 30.796 97.96C30.872 97.99 30.937 98.034 30.991 98.092C31.047 98.148 31.09 98.216 31.12 98.296C31.152 98.376 31.168 98.465 31.168 98.563C31.168 98.669 31.15 98.766 31.114 98.854C31.078 98.942 31.027 99.018 30.961 99.082C30.895 99.146 30.815 99.196 30.721 99.232C30.629 99.268 30.525 99.286 30.409 99.286ZM30.409 98.974C30.519 98.974 30.605 98.944 30.667 98.884C30.731 98.822 30.763 98.734 30.763 98.62V98.575C30.763 98.461 30.731 98.374 30.667 98.314C30.605 98.252 30.519 98.221 30.409 98.221C30.297 98.221 30.21 98.252 30.148 98.314C30.086 98.374 30.055 98.461 30.055 98.575V98.62C30.055 98.734 30.086 98.822 30.148 98.884C30.21 98.944 30.297 98.974 30.409 98.974ZM33.8788 99.286C33.7568 99.286 33.6478 99.271 33.5518 99.241C33.4578 99.209 33.3778 99.166 33.3118 99.112C33.2478 99.058 33.1988 98.994 33.1648 98.92C33.1308 98.846 33.1138 98.765 33.1138 98.677C33.1138 98.541 33.1508 98.431 33.2248 98.347C33.3008 98.261 33.4018 98.201 33.5278 98.167V98.143C33.4238 98.105 33.3388 98.046 33.2728 97.966C33.2088 97.886 33.1768 97.785 33.1768 97.663C33.1768 97.583 33.1918 97.51 33.2218 97.444C33.2538 97.378 33.2998 97.321 33.3598 97.273C33.4198 97.225 33.4928 97.188 33.5788 97.162C33.6668 97.134 33.7668 97.12 33.8788 97.12C33.9908 97.12 34.0898 97.134 34.1758 97.162C34.2638 97.188 34.3378 97.225 34.3978 97.273C34.4578 97.321 34.5028 97.378 34.5328 97.444C34.5648 97.51 34.5808 97.583 34.5808 97.663C34.5808 97.785 34.5478 97.886 34.4818 97.966C34.4178 98.046 34.3338 98.105 34.2298 98.143V98.167C34.3558 98.201 34.4558 98.261 34.5298 98.347C34.6058 98.431 34.6438 98.541 34.6438 98.677C34.6438 98.765 34.6268 98.846 34.5928 98.92C34.5588 98.994 34.5088 99.058 34.4428 99.112C34.3788 99.166 34.2988 99.209 34.2028 99.241C34.1088 99.271 34.0008 99.286 33.8788 99.286ZM33.8788 98.977C33.9928 98.977 34.0798 98.951 34.1398 98.899C34.2018 98.847 34.2328 98.774 34.2328 98.68V98.617C34.2328 98.523 34.2018 98.45 34.1398 98.398C34.0798 98.346 33.9928 98.32 33.8788 98.32C33.7648 98.32 33.6768 98.346 33.6148 98.398C33.5548 98.45 33.5248 98.523 33.5248 98.617V98.68C33.5248 98.774 33.5548 98.847 33.6148 98.899C33.6768 98.951 33.7648 98.977 33.8788 98.977ZM33.8788 98.026C33.9848 98.026 34.0658 98.002 34.1218 97.954C34.1778 97.906 34.2058 97.838 34.2058 97.75V97.702C34.2058 97.616 34.1778 97.549 34.1218 97.501C34.0658 97.453 33.9848 97.429 33.8788 97.429C33.7728 97.429 33.6918 97.453 33.6358 97.501C33.5798 97.549 33.5518 97.616 33.5518 97.702V97.75C33.5518 97.838 33.5798 97.906 33.6358 97.954C33.6918 98.002 33.7728 98.026 33.8788 98.026ZM30.4 107.286C30.278 107.286 30.169 107.271 30.073 107.241C29.979 107.209 29.899 107.166 29.833 107.112C29.769 107.058 29.72 106.994 29.686 106.92C29.652 106.846 29.635 106.765 29.635 106.677C29.635 106.541 29.672 106.431 29.746 106.347C29.822 106.261 29.923 106.201 30.049 106.167V106.143C29.945 106.105 29.86 106.046 29.794 105.966C29.73 105.886 29.698 105.785 29.698 105.663C29.698 105.583 29.713 105.51 29.743 105.444C29.775 105.378 29.821 105.321 29.881 105.273C29.941 105.225 30.014 105.188 30.1 105.162C30.188 105.134 30.288 105.12 30.4 105.12C30.512 105.12 30.611 105.134 30.697 105.162C30.785 105.188 30.859 105.225 30.919 105.273C30.979 105.321 31.024 105.378 31.054 105.444C31.086 105.51 31.102 105.583 31.102 105.663C31.102 105.785 31.069 105.886 31.003 105.966C30.939 106.046 30.855 106.105 30.751 106.143V106.167C30.877 106.201 30.977 106.261 31.051 106.347C31.127 106.431 31.165 106.541 31.165 106.677C31.165 106.765 31.148 106.846 31.114 106.92C31.08 106.994 31.03 107.058 30.964 107.112C30.9 107.166 30.82 107.209 30.724 107.241C30.63 107.271 30.522 107.286 30.4 107.286ZM30.4 106.977C30.514 106.977 30.601 106.951 30.661 106.899C30.723 106.847 30.754 106.774 30.754 106.68V106.617C30.754 106.523 30.723 106.45 30.661 106.398C30.601 106.346 30.514 106.32 30.4 106.32C30.286 106.32 30.198 106.346 30.136 106.398C30.076 106.45 30.046 106.523 30.046 106.617V106.68C30.046 106.774 30.076 106.847 30.136 106.899C30.198 106.951 30.286 106.977 30.4 106.977ZM30.4 106.026C30.506 106.026 30.587 106.002 30.643 105.954C30.699 105.906 30.727 105.838 30.727 105.75V105.702C30.727 105.616 30.699 105.549 30.643 105.501C30.587 105.453 30.506 105.429 30.4 105.429C30.294 105.429 30.213 105.453 30.157 105.501C30.101 105.549 30.073 105.616 30.073 105.702V105.75C30.073 105.838 30.101 105.906 30.157 105.954C30.213 106.002 30.294 106.026 30.4 106.026ZM34.6318 105.942C34.6318 106.092 34.6088 106.234 34.5628 106.368C34.5188 106.5 34.4608 106.622 34.3888 106.734C34.3168 106.844 34.2358 106.943 34.1458 107.031C34.0578 107.117 33.9698 107.19 33.8818 107.25H33.3478C33.4698 107.162 33.5798 107.077 33.6778 106.995C33.7758 106.913 33.8608 106.83 33.9328 106.746C34.0068 106.662 34.0668 106.575 34.1128 106.485C34.1608 106.393 34.1968 106.294 34.2208 106.188L34.1968 106.182C34.1768 106.222 34.1528 106.261 34.1248 106.299C34.0988 106.337 34.0668 106.37 34.0288 106.398C33.9908 106.426 33.9468 106.449 33.8968 106.467C33.8468 106.483 33.7888 106.491 33.7228 106.491C33.6348 106.491 33.5538 106.476 33.4798 106.446C33.4058 106.416 33.3408 106.373 33.2848 106.317C33.2308 106.259 33.1878 106.191 33.1558 106.113C33.1258 106.033 33.1108 105.943 33.1108 105.843C33.1108 105.737 33.1288 105.64 33.1648 105.552C33.2008 105.464 33.2518 105.388 33.3178 105.324C33.3838 105.26 33.4628 105.21 33.5548 105.174C33.6488 105.138 33.7538 105.12 33.8698 105.12C33.9898 105.12 34.0968 105.14 34.1908 105.18C34.2848 105.218 34.3648 105.273 34.4308 105.345C34.4968 105.415 34.5468 105.501 34.5808 105.603C34.6148 105.703 34.6318 105.816 34.6318 105.942ZM33.8698 106.185C33.9818 106.185 34.0688 106.155 34.1308 106.095C34.1928 106.033 34.2238 105.945 34.2238 105.831V105.786C34.2238 105.672 34.1928 105.585 34.1308 105.525C34.0688 105.463 33.9818 105.432 33.8698 105.432C33.7598 105.432 33.6728 105.463 33.6088 105.525C33.5468 105.585 33.5158 105.672 33.5158 105.786V105.831C33.5158 105.945 33.5468 106.033 33.6088 106.095C33.6728 106.155 33.7598 106.185 33.8698 106.185ZM37.3667 107.286C37.2467 107.286 37.1397 107.267 37.0457 107.229C36.9517 107.189 36.8717 107.134 36.8057 107.064C36.7397 106.992 36.6897 106.906 36.6557 106.806C36.6217 106.704 36.6047 106.59 36.6047 106.464C36.6047 106.314 36.6267 106.173 36.6707 106.041C36.7167 105.907 36.7757 105.785 36.8477 105.675C36.9197 105.563 36.9997 105.464 37.0877 105.378C37.1777 105.29 37.2667 105.216 37.3547 105.156H37.8887C37.7647 105.244 37.6537 105.329 37.5557 105.411C37.4597 105.493 37.3747 105.576 37.3007 105.66C37.2287 105.744 37.1687 105.832 37.1207 105.924C37.0747 106.014 37.0397 106.112 37.0157 106.218L37.0397 106.224C37.0597 106.184 37.0827 106.146 37.1087 106.11C37.1367 106.072 37.1697 106.039 37.2077 106.011C37.2457 105.981 37.2897 105.958 37.3397 105.942C37.3897 105.924 37.4477 105.915 37.5137 105.915C37.5997 105.915 37.6797 105.93 37.7537 105.96C37.8297 105.99 37.8947 106.034 37.9487 106.092C38.0047 106.148 38.0477 106.216 38.0777 106.296C38.1097 106.376 38.1257 106.465 38.1257 106.563C38.1257 106.669 38.1077 106.766 38.0717 106.854C38.0357 106.942 37.9847 107.018 37.9187 107.082C37.8527 107.146 37.7727 107.196 37.6787 107.232C37.5867 107.268 37.4827 107.286 37.3667 107.286ZM37.3667 106.974C37.4767 106.974 37.5627 106.944 37.6247 106.884C37.6887 106.822 37.7207 106.734 37.7207 106.62V106.575C37.7207 106.461 37.6887 106.374 37.6247 106.314C37.5627 106.252 37.4767 106.221 37.3667 106.221C37.2547 106.221 37.1677 106.252 37.1057 106.314C37.0437 106.374 37.0127 106.461 37.0127 106.575V106.62C37.0127 106.734 37.0437 106.822 37.1057 106.884C37.1677 106.944 37.2547 106.974 37.3667 106.974ZM30.007 115.25L30.736 113.477H30.013V113.861H29.677V113.156H31.129V113.495L30.421 115.25H30.007ZM34.6168 115.25H33.1648V114.884L33.8218 114.308C33.9338 114.21 34.0158 114.122 34.0678 114.044C34.1198 113.964 34.1458 113.878 34.1458 113.786V113.747C34.1458 113.655 34.1158 113.585 34.0558 113.537C33.9958 113.487 33.9228 113.462 33.8368 113.462C33.7288 113.462 33.6468 113.493 33.5908 113.555C33.5348 113.615 33.4948 113.688 33.4708 113.774L33.1288 113.642C33.1508 113.572 33.1818 113.506 33.2218 113.444C33.2618 113.38 33.3118 113.324 33.3718 113.276C33.4338 113.228 33.5058 113.19 33.5878 113.162C33.6698 113.134 33.7638 113.12 33.8698 113.12C33.9798 113.12 34.0778 113.136 34.1638 113.168C34.2498 113.198 34.3218 113.241 34.3798 113.297C34.4398 113.353 34.4848 113.419 34.5148 113.495C34.5468 113.571 34.5628 113.654 34.5628 113.744C34.5628 113.832 34.5488 113.912 34.5208 113.984C34.4928 114.056 34.4548 114.125 34.4068 114.191C34.3588 114.255 34.3028 114.317 34.2388 114.377C34.1748 114.435 34.1068 114.494 34.0348 114.554L33.5938 114.917H34.6168V115.25ZM37.5017 115.25V114.845H36.5537V114.509L37.3877 113.156H37.8767V114.539H38.1497V114.845H37.8767V115.25H37.5017ZM36.8777 114.539H37.5017V113.54H37.4777L36.8777 114.539ZM30.4 123.286C30.278 123.286 30.169 123.271 30.073 123.241C29.979 123.209 29.899 123.166 29.833 123.112C29.769 123.058 29.72 122.994 29.686 122.92C29.652 122.846 29.635 122.765 29.635 122.677C29.635 122.541 29.672 122.431 29.746 122.347C29.822 122.261 29.923 122.201 30.049 122.167V122.143C29.945 122.105 29.86 122.046 29.794 121.966C29.73 121.886 29.698 121.785 29.698 121.663C29.698 121.583 29.713 121.51 29.743 121.444C29.775 121.378 29.821 121.321 29.881 121.273C29.941 121.225 30.014 121.188 30.1 121.162C30.188 121.134 30.288 121.12 30.4 121.12C30.512 121.12 30.611 121.134 30.697 121.162C30.785 121.188 30.859 121.225 30.919 121.273C30.979 121.321 31.024 121.378 31.054 121.444C31.086 121.51 31.102 121.583 31.102 121.663C31.102 121.785 31.069 121.886 31.003 121.966C30.939 122.046 30.855 122.105 30.751 122.143V122.167C30.877 122.201 30.977 122.261 31.051 122.347C31.127 122.431 31.165 122.541 31.165 122.677C31.165 122.765 31.148 122.846 31.114 122.92C31.08 122.994 31.03 123.058 30.964 123.112C30.9 123.166 30.82 123.209 30.724 123.241C30.63 123.271 30.522 123.286 30.4 123.286ZM30.4 122.977C30.514 122.977 30.601 122.951 30.661 122.899C30.723 122.847 30.754 122.774 30.754 122.68V122.617C30.754 122.523 30.723 122.45 30.661 122.398C30.601 122.346 30.514 122.32 30.4 122.32C30.286 122.32 30.198 122.346 30.136 122.398C30.076 122.45 30.046 122.523 30.046 122.617V122.68C30.046 122.774 30.076 122.847 30.136 122.899C30.198 122.951 30.286 122.977 30.4 122.977ZM30.4 122.026C30.506 122.026 30.587 122.002 30.643 121.954C30.699 121.906 30.727 121.838 30.727 121.75V121.702C30.727 121.616 30.699 121.549 30.643 121.501C30.587 121.453 30.506 121.429 30.4 121.429C30.294 121.429 30.213 121.453 30.157 121.501C30.101 121.549 30.073 121.616 30.073 121.702V121.75C30.073 121.838 30.101 121.906 30.157 121.954C30.213 122.002 30.294 122.026 30.4 122.026ZM30.409 131.286C30.289 131.286 30.182 131.267 30.088 131.229C29.994 131.189 29.914 131.134 29.848 131.064C29.782 130.992 29.732 130.906 29.698 130.806C29.664 130.704 29.647 130.59 29.647 130.464C29.647 130.314 29.669 130.173 29.713 130.041C29.759 129.907 29.818 129.785 29.89 129.675C29.962 129.563 30.042 129.464 30.13 129.378C30.22 129.29 30.309 129.216 30.397 129.156H30.931C30.807 129.244 30.696 129.329 30.598 129.411C30.502 129.493 30.417 129.576 30.343 129.66C30.271 129.744 30.211 129.832 30.163 129.924C30.117 130.014 30.082 130.112 30.058 130.218L30.082 130.224C30.102 130.184 30.125 130.146 30.151 130.11C30.179 130.072 30.212 130.039 30.25 130.011C30.288 129.981 30.332 129.958 30.382 129.942C30.432 129.924 30.49 129.915 30.556 129.915C30.642 129.915 30.722 129.93 30.796 129.96C30.872 129.99 30.937 130.034 30.991 130.092C31.047 130.148 31.09 130.216 31.12 130.296C31.152 130.376 31.168 130.465 31.168 130.563C31.168 130.669 31.15 130.766 31.114 130.854C31.078 130.942 31.027 131.018 30.961 131.082C30.895 131.146 30.815 131.196 30.721 131.232C30.629 131.268 30.525 131.286 30.409 131.286ZM30.409 130.974C30.519 130.974 30.605 130.944 30.667 130.884C30.731 130.822 30.763 130.734 30.763 130.62V130.575C30.763 130.461 30.731 130.374 30.667 130.314C30.605 130.252 30.519 130.221 30.409 130.221C30.297 130.221 30.21 130.252 30.148 130.314C30.086 130.374 30.055 130.461 30.055 130.575V130.62C30.055 130.734 30.086 130.822 30.148 130.884C30.21 130.944 30.297 130.974 30.409 130.974ZM30.4 139.286C30.266 139.286 30.15 139.262 30.052 139.214C29.954 139.164 29.873 139.093 29.809 139.001C29.745 138.909 29.697 138.796 29.665 138.662C29.635 138.528 29.62 138.375 29.62 138.203C29.62 138.033 29.635 137.881 29.665 137.747C29.697 137.611 29.745 137.497 29.809 137.405C29.873 137.313 29.954 137.243 30.052 137.195C30.15 137.145 30.266 137.12 30.4 137.12C30.666 137.12 30.862 137.215 30.988 137.405C31.116 137.595 31.18 137.861 31.18 138.203C31.18 138.545 31.116 138.811 30.988 139.001C30.862 139.191 30.666 139.286 30.4 139.286ZM30.4 138.953C30.534 138.953 30.627 138.903 30.679 138.803C30.733 138.701 30.76 138.564 30.76 138.392V138.014C30.76 137.842 30.733 137.706 30.679 137.606C30.627 137.504 30.534 137.453 30.4 137.453C30.266 137.453 30.172 137.504 30.118 137.606C30.066 137.706 30.04 137.842 30.04 138.014V138.392C30.04 138.564 30.066 138.701 30.118 138.803C30.172 138.903 30.266 138.953 30.4 138.953ZM34.6318 137.942C34.6318 138.092 34.6088 138.234 34.5628 138.368C34.5188 138.5 34.4608 138.622 34.3888 138.734C34.3168 138.844 34.2358 138.943 34.1458 139.031C34.0578 139.117 33.9698 139.19 33.8818 139.25H33.3478C33.4698 139.162 33.5798 139.077 33.6778 138.995C33.7758 138.913 33.8608 138.83 33.9328 138.746C34.0068 138.662 34.0668 138.575 34.1128 138.485C34.1608 138.393 34.1968 138.294 34.2208 138.188L34.1968 138.182C34.1768 138.222 34.1528 138.261 34.1248 138.299C34.0988 138.337 34.0668 138.37 34.0288 138.398C33.9908 138.426 33.9468 138.449 33.8968 138.467C33.8468 138.483 33.7888 138.491 33.7228 138.491C33.6348 138.491 33.5538 138.476 33.4798 138.446C33.4058 138.416 33.3408 138.373 33.2848 138.317C33.2308 138.259 33.1878 138.191 33.1558 138.113C33.1258 138.033 33.1108 137.943 33.1108 137.843C33.1108 137.737 33.1288 137.64 33.1648 137.552C33.2008 137.464 33.2518 137.388 33.3178 137.324C33.3838 137.26 33.4628 137.21 33.5548 137.174C33.6488 137.138 33.7538 137.12 33.8698 137.12C33.9898 137.12 34.0968 137.14 34.1908 137.18C34.2848 137.218 34.3648 137.273 34.4308 137.345C34.4968 137.415 34.5468 137.501 34.5808 137.603C34.6148 137.703 34.6318 137.816 34.6318 137.942ZM33.8698 138.185C33.9818 138.185 34.0688 138.155 34.1308 138.095C34.1928 138.033 34.2238 137.945 34.2238 137.831V137.786C34.2238 137.672 34.1928 137.585 34.1308 137.525C34.0688 137.463 33.9818 137.432 33.8698 137.432C33.7598 137.432 33.6728 137.463 33.6088 137.525C33.5468 137.585 33.5158 137.672 33.5158 137.786V137.831C33.5158 137.945 33.5468 138.033 33.6088 138.095C33.6728 138.155 33.7598 138.185 33.8698 138.185ZM30.4 147.286C30.278 147.286 30.169 147.271 30.073 147.241C29.979 147.209 29.899 147.166 29.833 147.112C29.769 147.058 29.72 146.994 29.686 146.92C29.652 146.846 29.635 146.765 29.635 146.677C29.635 146.541 29.672 146.431 29.746 146.347C29.822 146.261 29.923 146.201 30.049 146.167V146.143C29.945 146.105 29.86 146.046 29.794 145.966C29.73 145.886 29.698 145.785 29.698 145.663C29.698 145.583 29.713 145.51 29.743 145.444C29.775 145.378 29.821 145.321 29.881 145.273C29.941 145.225 30.014 145.188 30.1 145.162C30.188 145.134 30.288 145.12 30.4 145.12C30.512 145.12 30.611 145.134 30.697 145.162C30.785 145.188 30.859 145.225 30.919 145.273C30.979 145.321 31.024 145.378 31.054 145.444C31.086 145.51 31.102 145.583 31.102 145.663C31.102 145.785 31.069 145.886 31.003 145.966C30.939 146.046 30.855 146.105 30.751 146.143V146.167C30.877 146.201 30.977 146.261 31.051 146.347C31.127 146.431 31.165 146.541 31.165 146.677C31.165 146.765 31.148 146.846 31.114 146.92C31.08 146.994 31.03 147.058 30.964 147.112C30.9 147.166 30.82 147.209 30.724 147.241C30.63 147.271 30.522 147.286 30.4 147.286ZM30.4 146.977C30.514 146.977 30.601 146.951 30.661 146.899C30.723 146.847 30.754 146.774 30.754 146.68V146.617C30.754 146.523 30.723 146.45 30.661 146.398C30.601 146.346 30.514 146.32 30.4 146.32C30.286 146.32 30.198 146.346 30.136 146.398C30.076 146.45 30.046 146.523 30.046 146.617V146.68C30.046 146.774 30.076 146.847 30.136 146.899C30.198 146.951 30.286 146.977 30.4 146.977ZM30.4 146.026C30.506 146.026 30.587 146.002 30.643 145.954C30.699 145.906 30.727 145.838 30.727 145.75V145.702C30.727 145.616 30.699 145.549 30.643 145.501C30.587 145.453 30.506 145.429 30.4 145.429C30.294 145.429 30.213 145.453 30.157 145.501C30.101 145.549 30.073 145.616 30.073 145.702V145.75C30.073 145.838 30.101 145.906 30.157 145.954C30.213 146.002 30.294 146.026 30.4 146.026ZM34.6168 147.25H33.1648V146.884L33.8218 146.308C33.9338 146.21 34.0158 146.122 34.0678 146.044C34.1198 145.964 34.1458 145.878 34.1458 145.786V145.747C34.1458 145.655 34.1158 145.585 34.0558 145.537C33.9958 145.487 33.9228 145.462 33.8368 145.462C33.7288 145.462 33.6468 145.493 33.5908 145.555C33.5348 145.615 33.4948 145.688 33.4708 145.774L33.1288 145.642C33.1508 145.572 33.1818 145.506 33.2218 145.444C33.2618 145.38 33.3118 145.324 33.3718 145.276C33.4338 145.228 33.5058 145.19 33.5878 145.162C33.6698 145.134 33.7638 145.12 33.8698 145.12C33.9798 145.12 34.0778 145.136 34.1638 145.168C34.2498 145.198 34.3218 145.241 34.3798 145.297C34.4398 145.353 34.4848 145.419 34.5148 145.495C34.5468 145.571 34.5628 145.654 34.5628 145.744C34.5628 145.832 34.5488 145.912 34.5208 145.984C34.4928 146.056 34.4548 146.125 34.4068 146.191C34.3588 146.255 34.3028 146.317 34.2388 146.377C34.1748 146.435 34.1068 146.494 34.0348 146.554L33.5938 146.917H34.6168V147.25ZM30.286 154.002C30.406 154.002 30.494 153.978 30.55 153.93C30.608 153.88 30.637 153.817 30.637 153.741V153.72C30.637 153.634 30.609 153.567 30.553 153.519C30.499 153.469 30.424 153.444 30.328 153.444C30.236 153.444 30.154 153.466 30.082 153.51C30.012 153.554 29.951 153.616 29.899 153.696L29.647 153.468C29.683 153.42 29.722 153.375 29.764 153.333C29.808 153.289 29.858 153.252 29.914 153.222C29.97 153.19 30.033 153.165 30.103 153.147C30.173 153.129 30.252 153.12 30.34 153.12C30.446 153.12 30.542 153.133 30.628 153.159C30.716 153.183 30.791 153.219 30.853 153.267C30.917 153.315 30.966 153.373 31 153.441C31.034 153.507 31.051 153.582 31.051 153.666C31.051 153.734 31.04 153.795 31.018 153.849C30.998 153.903 30.969 153.95 30.931 153.99C30.895 154.03 30.852 154.063 30.802 154.089C30.754 154.113 30.703 154.131 30.649 154.143V154.161C30.709 154.173 30.766 154.192 30.82 154.218C30.874 154.244 30.92 154.279 30.958 154.323C30.998 154.365 31.029 154.415 31.051 154.473C31.075 154.531 31.087 154.597 31.087 154.671C31.087 154.763 31.068 154.847 31.03 154.923C30.994 154.999 30.942 155.064 30.874 155.118C30.806 155.172 30.725 155.214 30.631 155.244C30.537 155.272 30.432 155.286 30.316 155.286C30.214 155.286 30.124 155.275 30.046 155.253C29.968 155.233 29.899 155.205 29.839 155.169C29.781 155.133 29.73 155.092 29.686 155.046C29.642 154.998 29.604 154.948 29.572 154.896L29.863 154.674C29.887 154.716 29.913 154.755 29.941 154.791C29.969 154.825 30.001 154.855 30.037 154.881C30.073 154.907 30.114 154.927 30.16 154.941C30.206 154.955 30.258 154.962 30.316 154.962C30.432 154.962 30.521 154.934 30.583 154.878C30.645 154.822 30.676 154.745 30.676 154.647V154.626C30.676 154.53 30.642 154.457 30.574 154.407C30.508 154.357 30.412 154.332 30.286 154.332H30.079V154.002H30.286ZM34.0228 155.25V154.845H33.0748V154.509L33.9088 153.156H34.3978L34.3978 154.539H34.6708V154.845H34.3978V155.25H34.0228ZM33.3988 154.539H34.0228L34.0228 153.54H33.9988L33.3988 154.539ZM31.153 161.942C31.153 162.092 31.13 162.234 31.084 162.368C31.04 162.5 30.982 162.622 30.91 162.734C30.838 162.844 30.757 162.943 30.667 163.031C30.579 163.117 30.491 163.19 30.403 163.25H29.869C29.991 163.162 30.101 163.077 30.199 162.995C30.297 162.913 30.382 162.83 30.454 162.746C30.528 162.662 30.588 162.575 30.634 162.485C30.682 162.393 30.718 162.294 30.742 162.188L30.718 162.182C30.698 162.222 30.674 162.261 30.646 162.299C30.62 162.337 30.588 162.37 30.55 162.398C30.512 162.426 30.468 162.449 30.418 162.467C30.368 162.483 30.31 162.491 30.244 162.491C30.156 162.491 30.075 162.476 30.001 162.446C29.927 162.416 29.862 162.373 29.806 162.317C29.752 162.259 29.709 162.191 29.677 162.113C29.647 162.033 29.632 161.943 29.632 161.843C29.632 161.737 29.65 161.64 29.686 161.552C29.722 161.464 29.773 161.388 29.839 161.324C29.905 161.26 29.984 161.21 30.076 161.174C30.17 161.138 30.275 161.12 30.391 161.12C30.511 161.12 30.618 161.14 30.712 161.18C30.806 161.218 30.886 161.273 30.952 161.345C31.018 161.415 31.068 161.501 31.102 161.603C31.136 161.703 31.153 161.816 31.153 161.942ZM30.391 162.185C30.503 162.185 30.59 162.155 30.652 162.095C30.714 162.033 30.745 161.945 30.745 161.831V161.786C30.745 161.672 30.714 161.585 30.652 161.525C30.59 161.463 30.503 161.432 30.391 161.432C30.281 161.432 30.194 161.463 30.13 161.525C30.068 161.585 30.037 161.672 30.037 161.786V161.831C30.037 161.945 30.068 162.033 30.13 162.095C30.194 162.155 30.281 162.185 30.391 162.185ZM34.5238 161.498H33.5818L33.5338 162.2H33.5548C33.5768 162.156 33.6008 162.115 33.6268 162.077C33.6528 162.039 33.6828 162.007 33.7168 161.981C33.7508 161.955 33.7898 161.935 33.8338 161.921C33.8798 161.905 33.9348 161.897 33.9988 161.897C34.0888 161.897 34.1728 161.912 34.2508 161.942C34.3288 161.972 34.3958 162.016 34.4518 162.074C34.5098 162.13 34.5548 162.199 34.5868 162.281C34.6208 162.363 34.6378 162.456 34.6378 162.56C34.6378 162.666 34.6208 162.763 34.5868 162.851C34.5528 162.939 34.5028 163.016 34.4368 163.082C34.3708 163.146 34.2898 163.196 34.1938 163.232C34.0978 163.268 33.9878 163.286 33.8638 163.286C33.7678 163.286 33.6818 163.275 33.6058 163.253C33.5298 163.233 33.4628 163.205 33.4048 163.169C33.3468 163.133 33.2968 163.092 33.2548 163.046C33.2128 162.998 33.1758 162.948 33.1438 162.896L33.4318 162.674C33.4558 162.714 33.4808 162.752 33.5068 162.788C33.5328 162.822 33.5628 162.852 33.5968 162.878C33.6328 162.904 33.6718 162.925 33.7138 162.941C33.7578 162.955 33.8088 162.962 33.8668 162.962C33.9848 162.962 34.0738 162.929 34.1338 162.863C34.1958 162.797 34.2268 162.707 34.2268 162.593V162.569C34.2268 162.461 34.1958 162.376 34.1338 162.314C34.0718 162.252 33.9858 162.221 33.8758 162.221C33.7898 162.221 33.7198 162.238 33.6658 162.272C33.6118 162.304 33.5688 162.339 33.5368 162.377L33.2128 162.332L33.2908 161.156H34.5238V161.498ZM37.5017 163.25V162.845H36.5537V162.509L37.3877 161.156H37.8767L37.8767 162.539H38.1497V162.845H37.8767V163.25H37.5017ZM36.8777 162.539H37.5017L37.5017 161.54H37.4777L36.8777 162.539ZM40.9805 163.25V162.845H40.0325V162.509L40.8665 161.156H41.3555L41.3555 162.539H41.6285V162.845H41.3555V163.25H40.9805ZM40.3565 162.539H40.9805L40.9805 161.54H40.9565L40.3565 162.539ZM31.138 171.25H29.686V170.884L30.343 170.308C30.455 170.21 30.537 170.122 30.589 170.044C30.641 169.964 30.667 169.878 30.667 169.786V169.747C30.667 169.655 30.637 169.585 30.577 169.537C30.517 169.487 30.444 169.462 30.358 169.462C30.25 169.462 30.168 169.493 30.112 169.555C30.056 169.615 30.016 169.688 29.992 169.774L29.65 169.642C29.672 169.572 29.703 169.506 29.743 169.444C29.783 169.38 29.833 169.324 29.893 169.276C29.955 169.228 30.027 169.19 30.109 169.162C30.191 169.134 30.285 169.12 30.391 169.12C30.501 169.12 30.599 169.136 30.685 169.168C30.771 169.198 30.843 169.241 30.901 169.297C30.961 169.353 31.006 169.419 31.036 169.495C31.068 169.571 31.084 169.654 31.084 169.744C31.084 169.832 31.07 169.912 31.042 169.984C31.014 170.056 30.976 170.125 30.928 170.191C30.88 170.255 30.824 170.317 30.76 170.377C30.696 170.435 30.628 170.494 30.556 170.554L30.115 170.917H31.138V171.25ZM34.6168 171.25H33.1648V170.884L33.8218 170.308C33.9338 170.21 34.0158 170.122 34.0678 170.044C34.1198 169.964 34.1458 169.878 34.1458 169.786V169.747C34.1458 169.655 34.1158 169.585 34.0558 169.537C33.9958 169.487 33.9228 169.462 33.8368 169.462C33.7288 169.462 33.6468 169.493 33.5908 169.555C33.5348 169.615 33.4948 169.688 33.4708 169.774L33.1288 169.642C33.1508 169.572 33.1818 169.506 33.2218 169.444C33.2618 169.38 33.3118 169.324 33.3718 169.276C33.4338 169.228 33.5058 169.19 33.5878 169.162C33.6698 169.134 33.7638 169.12 33.8698 169.12C33.9798 169.12 34.0778 169.136 34.1638 169.168C34.2498 169.198 34.3218 169.241 34.3798 169.297C34.4398 169.353 34.4848 169.419 34.5148 169.495C34.5468 169.571 34.5628 169.654 34.5628 169.744C34.5628 169.832 34.5488 169.912 34.5208 169.984C34.4928 170.056 34.4548 170.125 34.4068 170.191C34.3588 170.255 34.3028 170.317 34.2388 170.377C34.1748 170.435 34.1068 170.494 34.0348 170.554L33.5938 170.917H34.6168V171.25Z" fill="#0ECACA"/>
<path d="M20 89.75H26.5" stroke="#0ECACA" stroke-width="0.5"/>
<path d="M20 129.75H26.5" stroke="#0ECACA" stroke-width="0.5"/>
<path d="M20 113.75H23.5" stroke="#0ECACA" stroke-width="0.5"/>
<path d="M20 105.75H23.5" stroke="#0ECACA" stroke-width="0.5"/>
<path d="M20 97.75H23.5" stroke="#0ECACA" stroke-width="0.5"/>
<path d="M20 121.75H23.5" stroke="#0ECACA" stroke-width="0.5"/>
<path d="M20 169.75H26.5" stroke="#0ECACA" stroke-width="0.5"/>
<path d="M20 153.75H23.5" stroke="#0ECACA" stroke-width="0.5"/>
<path d="M20 145.75H23.5" stroke="#0ECACA" stroke-width="0.5"/>
<path d="M20 137.75H23.5" stroke="#0ECACA" stroke-width="0.5"/>
<path d="M20 161.75H23.5" stroke="#0ECACA" stroke-width="0.5"/>
<path d="M0 0.25H33.2157C38.5201 0.25 43.6071 2.35714 47.3579 6.10786L75 33.75" stroke="#0ECACA" stroke-width="0.5"/>
<rect x="97" y="228.25" width="17.711" height="4" fill="#0ECACA"/>
<path d="M148.75 249.75L136.279 237.279C131.779 232.779 125.674 230.25 119.309 230.25H104" stroke="#0ECACA" stroke-width="0.5"/>
</svg>
