<svg width="665" height="175" viewBox="0 0 665 175" fill="none" xmlns="http://www.w3.org/2000/svg">
<path d="M664.177 168.677H531.615C515.968 168.677 500.961 162.461 489.896 151.396L395.957 57.4574C384.893 46.3928 369.886 40.1768 354.238 40.1768H195.177M0.176758 0.176758L7.14734 7.14732C11.6482 11.6482 17.7527 14.1768 24.1179 14.1768H97.3067C102.346 14.1768 107.179 16.1785 110.742 19.7417L125.612 34.6118C129.175 38.175 134.008 40.1768 139.047 40.1768H167.112" stroke="#0ECACA" stroke-width="0.5"/>
<path d="M665.177 172.677H639.677M122.612 38.6118L115.742 31.7417C112.179 28.1785 107.346 26.1768 102.307 26.1768H45.1179M340.177 44.1768H351.238C366.886 44.1768 381.893 50.3928 392.957 61.4574L415.177 83.6768M480.677 149.177L486.896 155.396C497.961 166.461 512.968 172.677 528.615 172.677H535.677" stroke="#0ECACA" stroke-width="0.5"/>
<path d="M531.615 168.677C515.967 168.677 500.961 162.461 489.896 151.396" stroke="#0ECACA" stroke-width="3"/>
<path d="M195.176 40.1768H224.176" stroke="#0ECACA" stroke-width="3"/>
<path d="M155.176 40.1768H167.176" stroke="#0ECACA" stroke-width="3"/>
<path d="M29.1758 14.1768H54.1758" stroke="#0ECACA" stroke-width="3"/>
<path d="M60.1758 14.1768L72.1758 14.1768" stroke="#0ECACA" stroke-width="3"/>
<path d="M634.116 174.177V173.772H635.064V173.436L634.23 172.083H633.741V173.466H633.468V173.772H633.741V174.177H634.116ZM634.74 173.466H634.116V172.467H634.14L634.74 173.466ZM631.174 174.177L630.445 172.404H631.168V172.788H631.504V172.083H630.052V172.422L630.76 174.177H631.174ZM627.293 174.213C627.413 174.213 627.52 174.194 627.614 174.156C627.708 174.116 627.788 174.061 627.854 173.991C627.92 173.919 627.97 173.833 628.004 173.733C628.038 173.631 628.055 173.517 628.055 173.391C628.055 173.241 628.033 173.1 627.989 172.968C627.943 172.834 627.884 172.712 627.812 172.602C627.74 172.49 627.66 172.391 627.572 172.305C627.482 172.217 627.393 172.143 627.305 172.083H626.771C626.895 172.171 627.006 172.256 627.104 172.338C627.2 172.42 627.285 172.503 627.359 172.587C627.431 172.671 627.491 172.759 627.539 172.851C627.585 172.941 627.62 173.039 627.644 173.145L627.62 173.151C627.6 173.111 627.577 173.073 627.551 173.037C627.523 172.999 627.49 172.966 627.452 172.938C627.414 172.908 627.37 172.885 627.32 172.869C627.27 172.851 627.212 172.842 627.146 172.842C627.06 172.842 626.98 172.857 626.906 172.887C626.83 172.917 626.765 172.961 626.711 173.019C626.655 173.075 626.612 173.143 626.582 173.223C626.55 173.303 626.534 173.392 626.534 173.49C626.534 173.596 626.552 173.693 626.588 173.781C626.624 173.869 626.675 173.945 626.741 174.009C626.807 174.073 626.887 174.123 626.981 174.159C627.073 174.195 627.177 174.213 627.293 174.213ZM627.293 173.901C627.183 173.901 627.097 173.871 627.035 173.811C626.971 173.749 626.939 173.661 626.939 173.547V173.502C626.939 173.388 626.971 173.301 627.035 173.241C627.097 173.179 627.183 173.148 627.293 173.148C627.405 173.148 627.492 173.179 627.554 173.241C627.616 173.301 627.647 173.388 627.647 173.502V173.547C627.647 173.661 627.616 173.749 627.554 173.811C627.492 173.871 627.405 173.901 627.293 173.901ZM623.823 174.213C623.945 174.213 624.054 174.198 624.15 174.168C624.244 174.136 624.324 174.093 624.39 174.039C624.454 173.985 624.503 173.921 624.537 173.847C624.571 173.773 624.588 173.692 624.588 173.604C624.588 173.468 624.551 173.358 624.477 173.274C624.401 173.188 624.3 173.128 624.174 173.094V173.07C624.278 173.032 624.363 172.973 624.429 172.893C624.493 172.813 624.525 172.712 624.525 172.59C624.525 172.51 624.51 172.437 624.48 172.371C624.448 172.305 624.402 172.248 624.342 172.2C624.282 172.152 624.209 172.115 624.123 172.089C624.035 172.061 623.935 172.047 623.823 172.047C623.711 172.047 623.612 172.061 623.526 172.089C623.438 172.115 623.364 172.152 623.304 172.2C623.244 172.248 623.199 172.305 623.169 172.371C623.137 172.437 623.121 172.51 623.121 172.59C623.121 172.712 623.154 172.813 623.22 172.893C623.284 172.973 623.368 173.032 623.472 173.07V173.094C623.346 173.128 623.246 173.188 623.172 173.274C623.096 173.358 623.058 173.468 623.058 173.604C623.058 173.692 623.075 173.773 623.109 173.847C623.143 173.921 623.193 173.985 623.259 174.039C623.323 174.093 623.403 174.136 623.499 174.168C623.593 174.198 623.701 174.213 623.823 174.213ZM623.823 173.904C623.709 173.904 623.622 173.878 623.562 173.826C623.5 173.774 623.469 173.701 623.469 173.607V173.544C623.469 173.45 623.5 173.377 623.562 173.325C623.622 173.273 623.709 173.247 623.823 173.247C623.937 173.247 624.025 173.273 624.087 173.325C624.147 173.377 624.177 173.45 624.177 173.544V173.607C624.177 173.701 624.147 173.774 624.087 173.826C624.025 173.878 623.937 173.904 623.823 173.904ZM623.823 172.953C623.717 172.953 623.636 172.929 623.58 172.881C623.524 172.833 623.496 172.765 623.496 172.677V172.629C623.496 172.543 623.524 172.476 623.58 172.428C623.636 172.38 623.717 172.356 623.823 172.356C623.929 172.356 624.01 172.38 624.066 172.428C624.122 172.476 624.15 172.543 624.15 172.629V172.677C624.15 172.765 624.122 172.833 624.066 172.881C624.01 172.929 623.929 172.953 623.823 172.953ZM615.567 174.213C615.689 174.213 615.798 174.198 615.894 174.168C615.988 174.136 616.068 174.093 616.134 174.039C616.198 173.985 616.247 173.921 616.281 173.847C616.315 173.773 616.332 173.692 616.332 173.604C616.332 173.468 616.295 173.358 616.221 173.274C616.145 173.188 616.044 173.128 615.918 173.094V173.07C616.022 173.032 616.107 172.973 616.173 172.893C616.237 172.813 616.269 172.712 616.269 172.59C616.269 172.51 616.254 172.437 616.224 172.371C616.192 172.305 616.146 172.248 616.086 172.2C616.026 172.152 615.953 172.115 615.867 172.089C615.779 172.061 615.679 172.047 615.567 172.047C615.455 172.047 615.356 172.061 615.27 172.089C615.182 172.115 615.108 172.152 615.048 172.2C614.988 172.248 614.943 172.305 614.913 172.371C614.881 172.437 614.865 172.51 614.865 172.59C614.865 172.712 614.898 172.813 614.964 172.893C615.028 172.973 615.112 173.032 615.216 173.07V173.094C615.09 173.128 614.99 173.188 614.916 173.274C614.84 173.358 614.802 173.468 614.802 173.604C614.802 173.692 614.819 173.773 614.853 173.847C614.887 173.921 614.937 173.985 615.003 174.039C615.067 174.093 615.147 174.136 615.243 174.168C615.337 174.198 615.445 174.213 615.567 174.213ZM615.567 173.904C615.453 173.904 615.366 173.878 615.306 173.826C615.244 173.774 615.213 173.701 615.213 173.607V173.544C615.213 173.45 615.244 173.377 615.306 173.325C615.366 173.273 615.453 173.247 615.567 173.247C615.681 173.247 615.769 173.273 615.831 173.325C615.891 173.377 615.921 173.45 615.921 173.544V173.607C615.921 173.701 615.891 173.774 615.831 173.826C615.769 173.878 615.681 173.904 615.567 173.904ZM615.567 172.953C615.461 172.953 615.38 172.929 615.324 172.881C615.268 172.833 615.24 172.765 615.24 172.677V172.629C615.24 172.543 615.268 172.476 615.324 172.428C615.38 172.38 615.461 172.356 615.567 172.356C615.673 172.356 615.754 172.38 615.81 172.428C615.866 172.476 615.894 172.543 615.894 172.629V172.677C615.894 172.765 615.866 172.833 615.81 172.881C615.754 172.929 615.673 172.953 615.567 172.953ZM611.335 172.869C611.335 173.019 611.358 173.161 611.404 173.295C611.448 173.427 611.506 173.549 611.578 173.661C611.65 173.771 611.731 173.87 611.821 173.958C611.909 174.044 611.997 174.117 612.085 174.177H612.619C612.497 174.089 612.387 174.004 612.289 173.922C612.191 173.84 612.106 173.757 612.034 173.673C611.96 173.589 611.9 173.502 611.854 173.412C611.806 173.32 611.77 173.221 611.746 173.115L611.77 173.109C611.79 173.149 611.814 173.188 611.842 173.226C611.868 173.264 611.9 173.297 611.938 173.325C611.976 173.353 612.02 173.376 612.07 173.394C612.12 173.41 612.178 173.418 612.244 173.418C612.332 173.418 612.413 173.403 612.487 173.373C612.561 173.343 612.626 173.3 612.682 173.244C612.736 173.186 612.779 173.118 612.811 173.04C612.841 172.96 612.856 172.87 612.856 172.77C612.856 172.664 612.838 172.567 612.802 172.479C612.766 172.391 612.715 172.315 612.649 172.251C612.583 172.187 612.504 172.137 612.412 172.101C612.318 172.065 612.213 172.047 612.097 172.047C611.977 172.047 611.87 172.067 611.776 172.107C611.682 172.145 611.602 172.2 611.536 172.272C611.47 172.342 611.42 172.428 611.386 172.53C611.352 172.63 611.335 172.743 611.335 172.869ZM612.097 173.112C611.985 173.112 611.898 173.082 611.836 173.022C611.774 172.96 611.743 172.872 611.743 172.758V172.713C611.743 172.599 611.774 172.512 611.836 172.452C611.898 172.39 611.985 172.359 612.097 172.359C612.207 172.359 612.294 172.39 612.358 172.452C612.42 172.512 612.451 172.599 612.451 172.713V172.758C612.451 172.872 612.42 172.96 612.358 173.022C612.294 173.082 612.207 173.112 612.097 173.112ZM608.6 174.213C608.72 174.213 608.827 174.194 608.921 174.156C609.015 174.116 609.095 174.061 609.161 173.991C609.227 173.919 609.277 173.833 609.311 173.733C609.345 173.631 609.362 173.517 609.362 173.391C609.362 173.241 609.34 173.1 609.296 172.968C609.25 172.834 609.191 172.712 609.119 172.602C609.047 172.49 608.967 172.391 608.879 172.305C608.789 172.217 608.7 172.143 608.612 172.083H608.078C608.202 172.171 608.313 172.256 608.411 172.338C608.507 172.42 608.592 172.503 608.666 172.587C608.738 172.671 608.798 172.759 608.846 172.851C608.892 172.941 608.927 173.039 608.951 173.145L608.927 173.151C608.907 173.111 608.884 173.073 608.858 173.037C608.83 172.999 608.797 172.966 608.759 172.938C608.721 172.908 608.677 172.885 608.627 172.869C608.577 172.851 608.519 172.842 608.453 172.842C608.367 172.842 608.287 172.857 608.213 172.887C608.137 172.917 608.072 172.961 608.018 173.019C607.962 173.075 607.919 173.143 607.889 173.223C607.857 173.303 607.841 173.392 607.841 173.49C607.841 173.596 607.859 173.693 607.895 173.781C607.931 173.869 607.982 173.945 608.048 174.009C608.114 174.073 608.194 174.123 608.288 174.159C608.38 174.195 608.484 174.213 608.6 174.213ZM608.6 173.901C608.49 173.901 608.404 173.871 608.342 173.811C608.278 173.749 608.246 173.661 608.246 173.547V173.502C608.246 173.388 608.278 173.301 608.342 173.241C608.404 173.179 608.49 173.148 608.6 173.148C608.712 173.148 608.799 173.179 608.861 173.241C608.923 173.301 608.954 173.388 608.954 173.502V173.547C608.954 173.661 608.923 173.749 608.861 173.811C608.799 173.871 608.712 173.901 608.6 173.901ZM605.523 174.177L604.794 172.404H605.517V172.788H605.853V172.083H604.401V172.422L605.109 174.177H605.523ZM600.913 174.177H602.365V173.811L601.708 173.235C601.596 173.137 601.514 173.049 601.462 172.971C601.41 172.891 601.384 172.805 601.384 172.713V172.674C601.384 172.582 601.414 172.512 601.474 172.464C601.534 172.414 601.607 172.389 601.693 172.389C601.801 172.389 601.883 172.42 601.939 172.482C601.995 172.542 602.035 172.615 602.059 172.701L602.401 172.569C602.379 172.499 602.348 172.433 602.308 172.371C602.268 172.307 602.218 172.251 602.158 172.203C602.096 172.155 602.024 172.117 601.942 172.089C601.86 172.061 601.766 172.047 601.66 172.047C601.55 172.047 601.452 172.063 601.366 172.095C601.28 172.125 601.208 172.168 601.15 172.224C601.09 172.28 601.045 172.346 601.015 172.422C600.983 172.498 600.967 172.581 600.967 172.671C600.967 172.759 600.981 172.839 601.009 172.911C601.037 172.983 601.075 173.052 601.123 173.118C601.171 173.182 601.227 173.244 601.291 173.304C601.355 173.362 601.423 173.421 601.495 173.481L601.936 173.844H600.913V174.177ZM598.028 174.177V173.772H598.976V173.436L598.142 172.083H597.653V173.466H597.38V173.772H597.653V174.177H598.028ZM598.652 173.466H598.028V172.467H598.052L598.652 173.466ZM594.694 174.213C594.816 174.213 594.925 174.198 595.021 174.168C595.115 174.136 595.195 174.093 595.261 174.039C595.325 173.985 595.374 173.921 595.408 173.847C595.442 173.773 595.459 173.692 595.459 173.604C595.459 173.468 595.422 173.358 595.348 173.274C595.272 173.188 595.171 173.128 595.045 173.094V173.07C595.149 173.032 595.234 172.973 595.3 172.893C595.364 172.813 595.396 172.712 595.396 172.59C595.396 172.51 595.381 172.437 595.351 172.371C595.319 172.305 595.273 172.248 595.213 172.2C595.153 172.152 595.08 172.115 594.994 172.089C594.906 172.061 594.806 172.047 594.694 172.047C594.582 172.047 594.483 172.061 594.397 172.089C594.309 172.115 594.235 172.152 594.175 172.2C594.115 172.248 594.07 172.305 594.04 172.371C594.008 172.437 593.992 172.51 593.992 172.59C593.992 172.712 594.025 172.813 594.091 172.893C594.155 172.973 594.239 173.032 594.343 173.07V173.094C594.217 173.128 594.117 173.188 594.043 173.274C593.967 173.358 593.929 173.468 593.929 173.604C593.929 173.692 593.946 173.773 593.98 173.847C594.014 173.921 594.064 173.985 594.13 174.039C594.194 174.093 594.274 174.136 594.37 174.168C594.464 174.198 594.572 174.213 594.694 174.213ZM594.694 173.904C594.58 173.904 594.493 173.878 594.433 173.826C594.371 173.774 594.34 173.701 594.34 173.607V173.544C594.34 173.45 594.371 173.377 594.433 173.325C594.493 173.273 594.58 173.247 594.694 173.247C594.808 173.247 594.896 173.273 594.958 173.325C595.018 173.377 595.048 173.45 595.048 173.544V173.607C595.048 173.701 595.018 173.774 594.958 173.826C594.896 173.878 594.808 173.904 594.694 173.904ZM594.694 172.953C594.588 172.953 594.507 172.929 594.451 172.881C594.395 172.833 594.367 172.765 594.367 172.677V172.629C594.367 172.543 594.395 172.476 594.451 172.428C594.507 172.38 594.588 172.356 594.694 172.356C594.8 172.356 594.881 172.38 594.937 172.428C594.993 172.476 595.021 172.543 595.021 172.629V172.677C595.021 172.765 594.993 172.833 594.937 172.881C594.881 172.929 594.8 172.953 594.694 172.953ZM586.428 174.213C586.548 174.213 586.655 174.194 586.749 174.156C586.843 174.116 586.923 174.061 586.989 173.991C587.055 173.919 587.105 173.833 587.139 173.733C587.173 173.631 587.19 173.517 587.19 173.391C587.19 173.241 587.168 173.1 587.124 172.968C587.078 172.834 587.019 172.712 586.947 172.602C586.875 172.49 586.795 172.391 586.707 172.305C586.617 172.217 586.528 172.143 586.44 172.083H585.906C586.03 172.171 586.141 172.256 586.239 172.338C586.335 172.42 586.42 172.503 586.494 172.587C586.566 172.671 586.626 172.759 586.674 172.851C586.72 172.941 586.755 173.039 586.779 173.145L586.755 173.151C586.735 173.111 586.712 173.073 586.686 173.037C586.658 172.999 586.625 172.966 586.587 172.938C586.549 172.908 586.505 172.885 586.455 172.869C586.405 172.851 586.347 172.842 586.281 172.842C586.195 172.842 586.115 172.857 586.041 172.887C585.965 172.917 585.9 172.961 585.846 173.019C585.79 173.075 585.747 173.143 585.717 173.223C585.685 173.303 585.669 173.392 585.669 173.49C585.669 173.596 585.687 173.693 585.723 173.781C585.759 173.869 585.81 173.945 585.876 174.009C585.942 174.073 586.022 174.123 586.116 174.159C586.208 174.195 586.312 174.213 586.428 174.213ZM586.428 173.901C586.318 173.901 586.232 173.871 586.17 173.811C586.106 173.749 586.074 173.661 586.074 173.547V173.502C586.074 173.388 586.106 173.301 586.17 173.241C586.232 173.179 586.318 173.148 586.428 173.148C586.54 173.148 586.627 173.179 586.689 173.241C586.751 173.301 586.782 173.388 586.782 173.502V173.547C586.782 173.661 586.751 173.749 586.689 173.811C586.627 173.871 586.54 173.901 586.428 173.901ZM578.18 174.213C578.314 174.213 578.43 174.189 578.528 174.141C578.626 174.091 578.707 174.02 578.771 173.928C578.835 173.836 578.883 173.723 578.915 173.589C578.945 173.455 578.96 173.302 578.96 173.13C578.96 172.96 578.945 172.808 578.915 172.674C578.883 172.538 578.835 172.424 578.771 172.332C578.707 172.24 578.626 172.17 578.528 172.122C578.43 172.072 578.314 172.047 578.18 172.047C577.914 172.047 577.718 172.142 577.592 172.332C577.464 172.522 577.4 172.788 577.4 173.13C577.4 173.472 577.464 173.738 577.592 173.928C577.718 174.118 577.914 174.213 578.18 174.213ZM578.18 173.88C578.046 173.88 577.953 173.83 577.901 173.73C577.847 173.628 577.82 173.491 577.82 173.319V172.941C577.82 172.769 577.847 172.633 577.901 172.533C577.953 172.431 578.046 172.38 578.18 172.38C578.314 172.38 578.408 172.431 578.462 172.533C578.514 172.633 578.54 172.769 578.54 172.941V173.319C578.54 173.491 578.514 173.628 578.462 173.73C578.408 173.83 578.314 173.88 578.18 173.88ZM573.948 172.869C573.948 173.019 573.971 173.161 574.017 173.295C574.061 173.427 574.119 173.549 574.191 173.661C574.263 173.771 574.344 173.87 574.434 173.958C574.522 174.044 574.61 174.117 574.698 174.177H575.232C575.11 174.089 575 174.004 574.902 173.922C574.804 173.84 574.719 173.757 574.647 173.673C574.573 173.589 574.513 173.502 574.467 173.412C574.419 173.32 574.383 173.221 574.359 173.115L574.383 173.109C574.403 173.149 574.427 173.188 574.455 173.226C574.481 173.264 574.513 173.297 574.551 173.325C574.589 173.353 574.633 173.376 574.683 173.394C574.733 173.41 574.791 173.418 574.857 173.418C574.945 173.418 575.026 173.403 575.1 173.373C575.174 173.343 575.239 173.3 575.295 173.244C575.349 173.186 575.392 173.118 575.424 173.04C575.454 172.96 575.469 172.87 575.469 172.77C575.469 172.664 575.451 172.567 575.415 172.479C575.379 172.391 575.328 172.315 575.262 172.251C575.196 172.187 575.117 172.137 575.025 172.101C574.931 172.065 574.826 172.047 574.71 172.047C574.59 172.047 574.483 172.067 574.389 172.107C574.295 172.145 574.215 172.2 574.149 172.272C574.083 172.342 574.033 172.428 573.999 172.53C573.965 172.63 573.948 172.743 573.948 172.869ZM574.71 173.112C574.598 173.112 574.511 173.082 574.449 173.022C574.387 172.96 574.356 172.872 574.356 172.758V172.713C574.356 172.599 574.387 172.512 574.449 172.452C574.511 172.39 574.598 172.359 574.71 172.359C574.82 172.359 574.907 172.39 574.971 172.452C575.033 172.512 575.064 172.599 575.064 172.713V172.758C575.064 172.872 575.033 172.96 574.971 173.022C574.907 173.082 574.82 173.112 574.71 173.112ZM571.222 174.213C571.344 174.213 571.453 174.198 571.549 174.168C571.643 174.136 571.723 174.093 571.789 174.039C571.853 173.985 571.902 173.921 571.936 173.847C571.97 173.773 571.987 173.692 571.987 173.604C571.987 173.468 571.95 173.358 571.876 173.274C571.8 173.188 571.699 173.128 571.573 173.094V173.07C571.677 173.032 571.762 172.973 571.828 172.893C571.892 172.813 571.924 172.712 571.924 172.59C571.924 172.51 571.909 172.437 571.879 172.371C571.847 172.305 571.801 172.248 571.741 172.2C571.681 172.152 571.608 172.115 571.522 172.089C571.434 172.061 571.334 172.047 571.222 172.047C571.11 172.047 571.011 172.061 570.925 172.089C570.837 172.115 570.763 172.152 570.703 172.2C570.643 172.248 570.598 172.305 570.568 172.371C570.536 172.437 570.52 172.51 570.52 172.59C570.52 172.712 570.553 172.813 570.619 172.893C570.683 172.973 570.767 173.032 570.871 173.07V173.094C570.745 173.128 570.645 173.188 570.571 173.274C570.495 173.358 570.457 173.468 570.457 173.604C570.457 173.692 570.474 173.773 570.508 173.847C570.542 173.921 570.592 173.985 570.658 174.039C570.722 174.093 570.802 174.136 570.898 174.168C570.992 174.198 571.1 174.213 571.222 174.213ZM571.222 173.904C571.108 173.904 571.021 173.878 570.961 173.826C570.899 173.774 570.868 173.701 570.868 173.607V173.544C570.868 173.45 570.899 173.377 570.961 173.325C571.021 173.273 571.108 173.247 571.222 173.247C571.336 173.247 571.424 173.273 571.486 173.325C571.546 173.377 571.576 173.45 571.576 173.544V173.607C571.576 173.701 571.546 173.774 571.486 173.826C571.424 173.878 571.336 173.904 571.222 173.904ZM571.222 172.953C571.116 172.953 571.035 172.929 570.979 172.881C570.923 172.833 570.895 172.765 570.895 172.677V172.629C570.895 172.543 570.923 172.476 570.979 172.428C571.035 172.38 571.116 172.356 571.222 172.356C571.328 172.356 571.409 172.38 571.465 172.428C571.521 172.476 571.549 172.543 571.549 172.629V172.677C571.549 172.765 571.521 172.833 571.465 172.881C571.409 172.929 571.328 172.953 571.222 172.953ZM567.005 174.177H568.457V173.811L567.8 173.235C567.688 173.137 567.606 173.049 567.554 172.971C567.502 172.891 567.476 172.805 567.476 172.713V172.674C567.476 172.582 567.506 172.512 567.566 172.464C567.626 172.414 567.699 172.389 567.785 172.389C567.893 172.389 567.975 172.42 568.031 172.482C568.087 172.542 568.127 172.615 568.151 172.701L568.493 172.569C568.471 172.499 568.44 172.433 568.4 172.371C568.36 172.307 568.31 172.251 568.25 172.203C568.188 172.155 568.116 172.117 568.034 172.089C567.952 172.061 567.858 172.047 567.752 172.047C567.642 172.047 567.544 172.063 567.458 172.095C567.372 172.125 567.3 172.168 567.242 172.224C567.182 172.28 567.137 172.346 567.107 172.422C567.075 172.498 567.059 172.581 567.059 172.671C567.059 172.759 567.073 172.839 567.101 172.911C567.129 172.983 567.167 173.052 567.215 173.118C567.263 173.182 567.319 173.244 567.383 173.304C567.447 173.362 567.515 173.421 567.587 173.481L568.028 173.844H567.005V174.177ZM561.99 172.929C561.87 172.929 561.782 172.905 561.726 172.857C561.668 172.807 561.639 172.744 561.639 172.668V172.647C561.639 172.561 561.667 172.494 561.723 172.446C561.777 172.396 561.852 172.371 561.948 172.371C562.04 172.371 562.122 172.393 562.194 172.437C562.264 172.481 562.325 172.543 562.377 172.623L562.629 172.395C562.593 172.347 562.554 172.302 562.512 172.26C562.468 172.216 562.418 172.179 562.362 172.149C562.306 172.117 562.243 172.092 562.173 172.074C562.103 172.056 562.024 172.047 561.936 172.047C561.83 172.047 561.734 172.06 561.648 172.086C561.56 172.11 561.485 172.146 561.423 172.194C561.359 172.242 561.31 172.3 561.276 172.368C561.242 172.434 561.225 172.509 561.225 172.593C561.225 172.661 561.236 172.722 561.258 172.776C561.278 172.83 561.307 172.877 561.345 172.917C561.381 172.957 561.424 172.99 561.474 173.016C561.522 173.04 561.573 173.058 561.627 173.07V173.088C561.567 173.1 561.51 173.119 561.456 173.145C561.402 173.171 561.356 173.206 561.318 173.25C561.278 173.292 561.247 173.342 561.225 173.4C561.201 173.458 561.189 173.524 561.189 173.598C561.189 173.69 561.208 173.774 561.246 173.85C561.282 173.926 561.334 173.991 561.402 174.045C561.47 174.099 561.551 174.141 561.645 174.171C561.739 174.199 561.844 174.213 561.96 174.213C562.062 174.213 562.152 174.202 562.23 174.18C562.308 174.16 562.377 174.132 562.437 174.096C562.495 174.06 562.546 174.019 562.59 173.973C562.634 173.925 562.672 173.875 562.704 173.823L562.413 173.601C562.389 173.643 562.363 173.682 562.335 173.718C562.307 173.752 562.275 173.782 562.239 173.808C562.203 173.834 562.162 173.854 562.116 173.868C562.07 173.882 562.018 173.889 561.96 173.889C561.844 173.889 561.755 173.861 561.693 173.805C561.631 173.749 561.6 173.672 561.6 173.574V173.553C561.6 173.457 561.634 173.384 561.702 173.334C561.768 173.284 561.864 173.259 561.99 173.259H562.197V172.929H561.99ZM558.253 174.177V173.772H559.201V173.436L558.367 172.083H557.878V173.466H557.605V173.772H557.878V174.177H558.253ZM558.877 173.466H558.253V172.467H558.277L558.877 173.466ZM554.165 172.869C554.165 173.019 554.188 173.161 554.234 173.295C554.278 173.427 554.336 173.549 554.408 173.661C554.48 173.771 554.561 173.87 554.651 173.958C554.739 174.044 554.827 174.117 554.915 174.177H555.449C555.327 174.089 555.217 174.004 555.119 173.922C555.021 173.84 554.936 173.757 554.864 173.673C554.79 173.589 554.73 173.502 554.684 173.412C554.636 173.32 554.6 173.221 554.576 173.115L554.6 173.109C554.62 173.149 554.644 173.188 554.672 173.226C554.698 173.264 554.73 173.297 554.768 173.325C554.806 173.353 554.85 173.376 554.9 173.394C554.95 173.41 555.008 173.418 555.074 173.418C555.162 173.418 555.243 173.403 555.317 173.373C555.391 173.343 555.456 173.3 555.512 173.244C555.566 173.186 555.609 173.118 555.641 173.04C555.671 172.96 555.686 172.87 555.686 172.77C555.686 172.664 555.668 172.567 555.632 172.479C555.596 172.391 555.545 172.315 555.479 172.251C555.413 172.187 555.334 172.137 555.242 172.101C555.148 172.065 555.043 172.047 554.927 172.047C554.807 172.047 554.7 172.067 554.606 172.107C554.512 172.145 554.432 172.2 554.366 172.272C554.3 172.342 554.25 172.428 554.216 172.53C554.182 172.63 554.165 172.743 554.165 172.869ZM554.927 173.112C554.815 173.112 554.728 173.082 554.666 173.022C554.604 172.96 554.573 172.872 554.573 172.758V172.713C554.573 172.599 554.604 172.512 554.666 172.452C554.728 172.39 554.815 172.359 554.927 172.359C555.037 172.359 555.124 172.39 555.188 172.452C555.25 172.512 555.281 172.599 555.281 172.713V172.758C555.281 172.872 555.25 172.96 555.188 173.022C555.124 173.082 555.037 173.112 554.927 173.112ZM550.794 172.425H551.736L551.784 173.127H551.763C551.741 173.083 551.717 173.042 551.691 173.004C551.665 172.966 551.635 172.934 551.601 172.908C551.567 172.882 551.528 172.862 551.484 172.848C551.438 172.832 551.383 172.824 551.319 172.824C551.229 172.824 551.145 172.839 551.067 172.869C550.989 172.899 550.922 172.943 550.866 173.001C550.808 173.057 550.763 173.126 550.731 173.208C550.697 173.29 550.68 173.383 550.68 173.487C550.68 173.593 550.697 173.69 550.731 173.778C550.765 173.866 550.815 173.943 550.881 174.009C550.947 174.073 551.028 174.123 551.124 174.159C551.22 174.195 551.33 174.213 551.454 174.213C551.55 174.213 551.636 174.202 551.712 174.18C551.788 174.16 551.855 174.132 551.913 174.096C551.971 174.06 552.021 174.019 552.063 173.973C552.105 173.925 552.142 173.875 552.174 173.823L551.886 173.601C551.862 173.641 551.837 173.679 551.811 173.715C551.785 173.749 551.755 173.779 551.721 173.805C551.685 173.831 551.646 173.852 551.604 173.868C551.56 173.882 551.509 173.889 551.451 173.889C551.333 173.889 551.244 173.856 551.184 173.79C551.122 173.724 551.091 173.634 551.091 173.52V173.496C551.091 173.388 551.122 173.303 551.184 173.241C551.246 173.179 551.332 173.148 551.442 173.148C551.528 173.148 551.598 173.165 551.652 173.199C551.706 173.231 551.749 173.266 551.781 173.304L552.105 173.259L552.027 172.083H550.794V172.425ZM545.427 174.177V173.772H546.375V173.436L545.541 172.083H545.052V173.466H544.779V173.772H545.052V174.177H545.427ZM546.051 173.466H545.427V172.467H545.451L546.051 173.466ZM541.949 174.177V173.772H542.897V173.436L542.063 172.083H541.574V173.466H541.301V173.772H541.574V174.177H541.949ZM542.573 173.466H541.949V172.467H541.973L542.573 173.466Z" fill="#0ECACA"/>
<path d="M331.115 45.1768V44.7718H332.063V44.4358L331.229 43.0828H330.74V44.4658H330.467V44.7718H330.74V45.1768H331.115ZM331.739 44.4658H331.115V43.4668H331.139L331.739 44.4658ZM328.173 45.1768L327.444 43.4038H328.167V43.7878H328.503V43.0828H327.051V43.4218L327.759 45.1768H328.173ZM324.292 45.2128C324.412 45.2128 324.519 45.1938 324.613 45.1558C324.707 45.1158 324.787 45.0608 324.853 44.9908C324.919 44.9188 324.969 44.8328 325.003 44.7328C325.037 44.6308 325.054 44.5168 325.054 44.3908C325.054 44.2408 325.032 44.0998 324.988 43.9678C324.942 43.8338 324.883 43.7118 324.811 43.6018C324.739 43.4898 324.659 43.3908 324.571 43.3048C324.481 43.2168 324.392 43.1428 324.304 43.0828H323.77C323.894 43.1708 324.005 43.2558 324.103 43.3378C324.199 43.4198 324.284 43.5028 324.358 43.5868C324.43 43.6708 324.49 43.7588 324.538 43.8508C324.584 43.9408 324.619 44.0388 324.643 44.1448L324.619 44.1508C324.599 44.1108 324.576 44.0728 324.55 44.0368C324.522 43.9988 324.489 43.9658 324.451 43.9378C324.413 43.9078 324.369 43.8848 324.319 43.8688C324.269 43.8508 324.211 43.8418 324.145 43.8418C324.059 43.8418 323.979 43.8568 323.905 43.8868C323.829 43.9168 323.764 43.9608 323.71 44.0188C323.654 44.0748 323.611 44.1428 323.581 44.2228C323.549 44.3028 323.533 44.3918 323.533 44.4898C323.533 44.5958 323.551 44.6928 323.587 44.7808C323.623 44.8688 323.674 44.9448 323.74 45.0088C323.806 45.0728 323.886 45.1228 323.98 45.1588C324.072 45.1948 324.176 45.2128 324.292 45.2128ZM324.292 44.9008C324.182 44.9008 324.096 44.8708 324.034 44.8108C323.97 44.7488 323.938 44.6608 323.938 44.5468V44.5018C323.938 44.3878 323.97 44.3008 324.034 44.2408C324.096 44.1788 324.182 44.1478 324.292 44.1478C324.404 44.1478 324.491 44.1788 324.553 44.2408C324.615 44.3008 324.646 44.3878 324.646 44.5018V44.5468C324.646 44.6608 324.615 44.7488 324.553 44.8108C324.491 44.8708 324.404 44.9008 324.292 44.9008ZM320.822 45.2128C320.944 45.2128 321.053 45.1978 321.149 45.1678C321.243 45.1358 321.323 45.0928 321.389 45.0388C321.453 44.9848 321.502 44.9208 321.536 44.8468C321.57 44.7728 321.587 44.6918 321.587 44.6038C321.587 44.4678 321.55 44.3578 321.476 44.2738C321.4 44.1878 321.299 44.1278 321.173 44.0938V44.0698C321.277 44.0318 321.362 43.9728 321.428 43.8928C321.492 43.8128 321.524 43.7118 321.524 43.5898C321.524 43.5098 321.509 43.4368 321.479 43.3708C321.447 43.3048 321.401 43.2478 321.341 43.1998C321.281 43.1518 321.208 43.1148 321.122 43.0888C321.034 43.0608 320.934 43.0468 320.822 43.0468C320.71 43.0468 320.611 43.0608 320.525 43.0888C320.437 43.1148 320.363 43.1518 320.303 43.1998C320.243 43.2478 320.198 43.3048 320.168 43.3708C320.136 43.4368 320.12 43.5098 320.12 43.5898C320.12 43.7118 320.153 43.8128 320.219 43.8928C320.283 43.9728 320.367 44.0318 320.471 44.0698V44.0938C320.345 44.1278 320.245 44.1878 320.171 44.2738C320.095 44.3578 320.057 44.4678 320.057 44.6038C320.057 44.6918 320.074 44.7728 320.108 44.8468C320.142 44.9208 320.192 44.9848 320.258 45.0388C320.322 45.0928 320.402 45.1358 320.498 45.1678C320.592 45.1978 320.7 45.2128 320.822 45.2128ZM320.822 44.9038C320.708 44.9038 320.621 44.8778 320.561 44.8258C320.499 44.7738 320.468 44.7008 320.468 44.6068V44.5438C320.468 44.4498 320.499 44.3768 320.561 44.3248C320.621 44.2728 320.708 44.2468 320.822 44.2468C320.936 44.2468 321.024 44.2728 321.086 44.3248C321.146 44.3768 321.176 44.4498 321.176 44.5438V44.6068C321.176 44.7008 321.146 44.7738 321.086 44.8258C321.024 44.8778 320.936 44.9038 320.822 44.9038ZM320.822 43.9528C320.716 43.9528 320.635 43.9288 320.579 43.8808C320.523 43.8328 320.495 43.7648 320.495 43.6768V43.6288C320.495 43.5428 320.523 43.4758 320.579 43.4278C320.635 43.3798 320.716 43.3558 320.822 43.3558C320.928 43.3558 321.009 43.3798 321.065 43.4278C321.121 43.4758 321.149 43.5428 321.149 43.6288V43.6768C321.149 43.7648 321.121 43.8328 321.065 43.8808C321.009 43.9288 320.928 43.9528 320.822 43.9528ZM312.566 45.2128C312.688 45.2128 312.797 45.1978 312.893 45.1678C312.987 45.1358 313.067 45.0928 313.133 45.0388C313.197 44.9848 313.246 44.9208 313.28 44.8468C313.314 44.7728 313.331 44.6918 313.331 44.6038C313.331 44.4678 313.294 44.3578 313.22 44.2738C313.144 44.1878 313.043 44.1278 312.917 44.0938V44.0698C313.021 44.0318 313.106 43.9728 313.172 43.8928C313.236 43.8128 313.268 43.7118 313.268 43.5898C313.268 43.5098 313.253 43.4368 313.223 43.3708C313.191 43.3048 313.145 43.2478 313.085 43.1998C313.025 43.1518 312.952 43.1148 312.866 43.0888C312.778 43.0608 312.678 43.0468 312.566 43.0468C312.454 43.0468 312.355 43.0608 312.269 43.0888C312.181 43.1148 312.107 43.1518 312.047 43.1998C311.987 43.2478 311.942 43.3048 311.912 43.3708C311.88 43.4368 311.864 43.5098 311.864 43.5898C311.864 43.7118 311.897 43.8128 311.963 43.8928C312.027 43.9728 312.111 44.0318 312.215 44.0698V44.0938C312.089 44.1278 311.989 44.1878 311.915 44.2738C311.839 44.3578 311.801 44.4678 311.801 44.6038C311.801 44.6918 311.818 44.7728 311.852 44.8468C311.886 44.9208 311.936 44.9848 312.002 45.0388C312.066 45.0928 312.146 45.1358 312.242 45.1678C312.336 45.1978 312.444 45.2128 312.566 45.2128ZM312.566 44.9038C312.452 44.9038 312.365 44.8778 312.305 44.8258C312.243 44.7738 312.212 44.7008 312.212 44.6068V44.5438C312.212 44.4498 312.243 44.3768 312.305 44.3248C312.365 44.2728 312.452 44.2468 312.566 44.2468C312.68 44.2468 312.768 44.2728 312.83 44.3248C312.89 44.3768 312.92 44.4498 312.92 44.5438V44.6068C312.92 44.7008 312.89 44.7738 312.83 44.8258C312.768 44.8778 312.68 44.9038 312.566 44.9038ZM312.566 43.9528C312.46 43.9528 312.379 43.9288 312.323 43.8808C312.267 43.8328 312.239 43.7648 312.239 43.6768V43.6288C312.239 43.5428 312.267 43.4758 312.323 43.4278C312.379 43.3798 312.46 43.3558 312.566 43.3558C312.672 43.3558 312.753 43.3798 312.809 43.4278C312.865 43.4758 312.893 43.5428 312.893 43.6288V43.6768C312.893 43.7648 312.865 43.8328 312.809 43.8808C312.753 43.9288 312.672 43.9528 312.566 43.9528ZM308.334 43.8688C308.334 44.0188 308.357 44.1608 308.403 44.2948C308.447 44.4268 308.505 44.5488 308.577 44.6608C308.649 44.7708 308.73 44.8698 308.82 44.9578C308.908 45.0438 308.996 45.1168 309.084 45.1768H309.618C309.496 45.0888 309.386 45.0038 309.288 44.9218C309.19 44.8398 309.105 44.7568 309.033 44.6728C308.959 44.5888 308.899 44.5018 308.853 44.4118C308.805 44.3198 308.769 44.2208 308.745 44.1148L308.769 44.1088C308.789 44.1488 308.813 44.1878 308.841 44.2258C308.867 44.2638 308.899 44.2968 308.937 44.3248C308.975 44.3528 309.019 44.3758 309.069 44.3938C309.119 44.4098 309.177 44.4178 309.243 44.4178C309.331 44.4178 309.412 44.4028 309.486 44.3728C309.56 44.3428 309.625 44.2998 309.681 44.2438C309.735 44.1858 309.778 44.1178 309.81 44.0398C309.84 43.9598 309.855 43.8698 309.855 43.7698C309.855 43.6638 309.837 43.5668 309.801 43.4788C309.765 43.3908 309.714 43.3148 309.648 43.2508C309.582 43.1868 309.503 43.1368 309.411 43.1008C309.317 43.0648 309.212 43.0468 309.096 43.0468C308.976 43.0468 308.869 43.0668 308.775 43.1068C308.681 43.1448 308.601 43.1998 308.535 43.2718C308.469 43.3418 308.419 43.4278 308.385 43.5298C308.351 43.6298 308.334 43.7428 308.334 43.8688ZM309.096 44.1118C308.984 44.1118 308.897 44.0818 308.835 44.0218C308.773 43.9598 308.742 43.8718 308.742 43.7578V43.7128C308.742 43.5988 308.773 43.5118 308.835 43.4518C308.897 43.3898 308.984 43.3588 309.096 43.3588C309.206 43.3588 309.293 43.3898 309.357 43.4518C309.419 43.5118 309.45 43.5988 309.45 43.7128V43.7578C309.45 43.8718 309.419 43.9598 309.357 44.0218C309.293 44.0818 309.206 44.1118 309.096 44.1118ZM305.599 45.2128C305.719 45.2128 305.826 45.1938 305.92 45.1558C306.014 45.1158 306.094 45.0608 306.16 44.9908C306.226 44.9188 306.276 44.8328 306.31 44.7328C306.344 44.6308 306.361 44.5168 306.361 44.3908C306.361 44.2408 306.339 44.0998 306.295 43.9678C306.249 43.8338 306.19 43.7118 306.118 43.6018C306.046 43.4898 305.966 43.3908 305.878 43.3048C305.788 43.2168 305.699 43.1428 305.611 43.0828H305.077C305.201 43.1708 305.312 43.2558 305.41 43.3378C305.506 43.4198 305.591 43.5028 305.665 43.5868C305.737 43.6708 305.797 43.7588 305.845 43.8508C305.891 43.9408 305.926 44.0388 305.95 44.1448L305.926 44.1508C305.906 44.1108 305.883 44.0728 305.857 44.0368C305.829 43.9988 305.796 43.9658 305.758 43.9378C305.72 43.9078 305.676 43.8848 305.626 43.8688C305.576 43.8508 305.518 43.8418 305.452 43.8418C305.366 43.8418 305.286 43.8568 305.212 43.8868C305.136 43.9168 305.071 43.9608 305.017 44.0188C304.961 44.0748 304.918 44.1428 304.888 44.2228C304.856 44.3028 304.84 44.3918 304.84 44.4898C304.84 44.5958 304.858 44.6928 304.894 44.7808C304.93 44.8688 304.981 44.9448 305.047 45.0088C305.113 45.0728 305.193 45.1228 305.287 45.1588C305.379 45.1948 305.483 45.2128 305.599 45.2128ZM305.599 44.9008C305.489 44.9008 305.403 44.8708 305.341 44.8108C305.277 44.7488 305.245 44.6608 305.245 44.5468V44.5018C305.245 44.3878 305.277 44.3008 305.341 44.2408C305.403 44.1788 305.489 44.1478 305.599 44.1478C305.711 44.1478 305.798 44.1788 305.86 44.2408C305.922 44.3008 305.953 44.3878 305.953 44.5018V44.5468C305.953 44.6608 305.922 44.7488 305.86 44.8108C305.798 44.8708 305.711 44.9008 305.599 44.9008ZM302.522 45.1768L301.793 43.4038H302.516V43.7878H302.852V43.0828H301.4V43.4218L302.108 45.1768H302.522ZM297.912 45.1768H299.364V44.8108L298.707 44.2348C298.595 44.1368 298.513 44.0488 298.461 43.9708C298.409 43.8908 298.383 43.8048 298.383 43.7128V43.6738C298.383 43.5818 298.413 43.5118 298.473 43.4638C298.533 43.4138 298.606 43.3888 298.692 43.3888C298.8 43.3888 298.882 43.4198 298.938 43.4818C298.994 43.5418 299.034 43.6148 299.058 43.7008L299.4 43.5688C299.378 43.4988 299.347 43.4328 299.307 43.3708C299.267 43.3068 299.217 43.2508 299.157 43.2028C299.095 43.1548 299.023 43.1168 298.941 43.0888C298.859 43.0608 298.765 43.0468 298.659 43.0468C298.549 43.0468 298.451 43.0628 298.365 43.0948C298.279 43.1248 298.207 43.1678 298.149 43.2238C298.089 43.2798 298.044 43.3458 298.014 43.4218C297.982 43.4978 297.966 43.5808 297.966 43.6708C297.966 43.7588 297.98 43.8388 298.008 43.9108C298.036 43.9828 298.074 44.0518 298.122 44.1178C298.17 44.1818 298.226 44.2438 298.29 44.3038C298.354 44.3618 298.422 44.4208 298.494 44.4808L298.935 44.8438H297.912V45.1768ZM295.027 45.1768V44.7718H295.975V44.4358L295.141 43.0828H294.652V44.4658H294.379V44.7718H294.652V45.1768H295.027ZM295.651 44.4658H295.027V43.4668H295.051L295.651 44.4658ZM291.693 45.2128C291.815 45.2128 291.924 45.1978 292.02 45.1678C292.114 45.1358 292.194 45.0928 292.26 45.0388C292.324 44.9848 292.373 44.9208 292.407 44.8468C292.441 44.7728 292.458 44.6918 292.458 44.6038C292.458 44.4678 292.421 44.3578 292.347 44.2738C292.271 44.1878 292.17 44.1278 292.044 44.0938V44.0698C292.148 44.0318 292.233 43.9728 292.299 43.8928C292.363 43.8128 292.395 43.7118 292.395 43.5898C292.395 43.5098 292.38 43.4368 292.35 43.3708C292.318 43.3048 292.272 43.2478 292.212 43.1998C292.152 43.1518 292.079 43.1148 291.993 43.0888C291.905 43.0608 291.805 43.0468 291.693 43.0468C291.581 43.0468 291.482 43.0608 291.396 43.0888C291.308 43.1148 291.234 43.1518 291.174 43.1998C291.114 43.2478 291.069 43.3048 291.039 43.3708C291.007 43.4368 290.991 43.5098 290.991 43.5898C290.991 43.7118 291.024 43.8128 291.09 43.8928C291.154 43.9728 291.238 44.0318 291.342 44.0698V44.0938C291.216 44.1278 291.116 44.1878 291.042 44.2738C290.966 44.3578 290.928 44.4678 290.928 44.6038C290.928 44.6918 290.945 44.7728 290.979 44.8468C291.013 44.9208 291.063 44.9848 291.129 45.0388C291.193 45.0928 291.273 45.1358 291.369 45.1678C291.463 45.1978 291.571 45.2128 291.693 45.2128ZM291.693 44.9038C291.579 44.9038 291.492 44.8778 291.432 44.8258C291.37 44.7738 291.339 44.7008 291.339 44.6068V44.5438C291.339 44.4498 291.37 44.3768 291.432 44.3248C291.492 44.2728 291.579 44.2468 291.693 44.2468C291.807 44.2468 291.895 44.2728 291.957 44.3248C292.017 44.3768 292.047 44.4498 292.047 44.5438V44.6068C292.047 44.7008 292.017 44.7738 291.957 44.8258C291.895 44.8778 291.807 44.9038 291.693 44.9038ZM291.693 43.9528C291.587 43.9528 291.506 43.9288 291.45 43.8808C291.394 43.8328 291.366 43.7648 291.366 43.6768V43.6288C291.366 43.5428 291.394 43.4758 291.45 43.4278C291.506 43.3798 291.587 43.3558 291.693 43.3558C291.799 43.3558 291.88 43.3798 291.936 43.4278C291.992 43.4758 292.02 43.5428 292.02 43.6288V43.6768C292.02 43.7648 291.992 43.8328 291.936 43.8808C291.88 43.9288 291.799 43.9528 291.693 43.9528ZM283.427 45.2128C283.547 45.2128 283.654 45.1938 283.748 45.1558C283.842 45.1158 283.922 45.0608 283.988 44.9908C284.054 44.9188 284.104 44.8328 284.138 44.7328C284.172 44.6308 284.189 44.5168 284.189 44.3908C284.189 44.2408 284.167 44.0998 284.123 43.9678C284.077 43.8338 284.018 43.7118 283.946 43.6018C283.874 43.4898 283.794 43.3908 283.706 43.3048C283.616 43.2168 283.527 43.1428 283.439 43.0828H282.905C283.029 43.1708 283.14 43.2558 283.238 43.3378C283.334 43.4198 283.419 43.5028 283.493 43.5868C283.565 43.6708 283.625 43.7588 283.673 43.8508C283.719 43.9408 283.754 44.0388 283.778 44.1448L283.754 44.1508C283.734 44.1108 283.711 44.0728 283.685 44.0368C283.657 43.9988 283.624 43.9658 283.586 43.9378C283.548 43.9078 283.504 43.8848 283.454 43.8688C283.404 43.8508 283.346 43.8418 283.28 43.8418C283.194 43.8418 283.114 43.8568 283.04 43.8868C282.964 43.9168 282.899 43.9608 282.845 44.0188C282.789 44.0748 282.746 44.1428 282.716 44.2228C282.684 44.3028 282.668 44.3918 282.668 44.4898C282.668 44.5958 282.686 44.6928 282.722 44.7808C282.758 44.8688 282.809 44.9448 282.875 45.0088C282.941 45.0728 283.021 45.1228 283.115 45.1588C283.207 45.1948 283.311 45.2128 283.427 45.2128ZM283.427 44.9008C283.317 44.9008 283.231 44.8708 283.169 44.8108C283.105 44.7488 283.073 44.6608 283.073 44.5468V44.5018C283.073 44.3878 283.105 44.3008 283.169 44.2408C283.231 44.1788 283.317 44.1478 283.427 44.1478C283.539 44.1478 283.626 44.1788 283.688 44.2408C283.75 44.3008 283.781 44.3878 283.781 44.5018V44.5468C283.781 44.6608 283.75 44.7488 283.688 44.8108C283.626 44.8708 283.539 44.9008 283.427 44.9008ZM275.179 45.2128C275.313 45.2128 275.429 45.1888 275.527 45.1408C275.625 45.0908 275.706 45.0198 275.77 44.9278C275.834 44.8358 275.882 44.7228 275.914 44.5888C275.944 44.4548 275.959 44.3018 275.959 44.1298C275.959 43.9598 275.944 43.8078 275.914 43.6738C275.882 43.5378 275.834 43.4238 275.77 43.3318C275.706 43.2398 275.625 43.1698 275.527 43.1218C275.429 43.0718 275.313 43.0468 275.179 43.0468C274.913 43.0468 274.717 43.1418 274.591 43.3318C274.463 43.5218 274.399 43.7878 274.399 44.1298C274.399 44.4718 274.463 44.7378 274.591 44.9278C274.717 45.1178 274.913 45.2128 275.179 45.2128ZM275.179 44.8798C275.045 44.8798 274.952 44.8298 274.9 44.7298C274.846 44.6278 274.819 44.4908 274.819 44.3188V43.9408C274.819 43.7688 274.846 43.6328 274.9 43.5328C274.952 43.4308 275.045 43.3798 275.179 43.3798C275.313 43.3798 275.407 43.4308 275.461 43.5328C275.513 43.6328 275.539 43.7688 275.539 43.9408V44.3188C275.539 44.4908 275.513 44.6278 275.461 44.7298C275.407 44.8298 275.313 44.8798 275.179 44.8798ZM270.947 43.8688C270.947 44.0188 270.97 44.1608 271.016 44.2948C271.06 44.4268 271.118 44.5488 271.19 44.6608C271.262 44.7708 271.343 44.8698 271.433 44.9578C271.521 45.0438 271.609 45.1168 271.697 45.1768H272.231C272.109 45.0888 271.999 45.0038 271.901 44.9218C271.803 44.8398 271.718 44.7568 271.646 44.6728C271.572 44.5888 271.512 44.5018 271.466 44.4118C271.418 44.3198 271.382 44.2208 271.358 44.1148L271.382 44.1088C271.402 44.1488 271.426 44.1878 271.454 44.2258C271.48 44.2638 271.512 44.2968 271.55 44.3248C271.588 44.3528 271.632 44.3758 271.682 44.3938C271.732 44.4098 271.79 44.4178 271.856 44.4178C271.944 44.4178 272.025 44.4028 272.099 44.3728C272.173 44.3428 272.238 44.2998 272.294 44.2438C272.348 44.1858 272.391 44.1178 272.423 44.0398C272.453 43.9598 272.468 43.8698 272.468 43.7698C272.468 43.6638 272.45 43.5668 272.414 43.4788C272.378 43.3908 272.327 43.3148 272.261 43.2508C272.195 43.1868 272.116 43.1368 272.024 43.1008C271.93 43.0648 271.825 43.0468 271.709 43.0468C271.589 43.0468 271.482 43.0668 271.388 43.1068C271.294 43.1448 271.214 43.1998 271.148 43.2718C271.082 43.3418 271.032 43.4278 270.998 43.5298C270.964 43.6298 270.947 43.7428 270.947 43.8688ZM271.709 44.1118C271.597 44.1118 271.51 44.0818 271.448 44.0218C271.386 43.9598 271.355 43.8718 271.355 43.7578V43.7128C271.355 43.5988 271.386 43.5118 271.448 43.4518C271.51 43.3898 271.597 43.3588 271.709 43.3588C271.819 43.3588 271.906 43.3898 271.97 43.4518C272.032 43.5118 272.063 43.5988 272.063 43.7128V43.7578C272.063 43.8718 272.032 43.9598 271.97 44.0218C271.906 44.0818 271.819 44.1118 271.709 44.1118ZM268.221 45.2128C268.343 45.2128 268.452 45.1978 268.548 45.1678C268.642 45.1358 268.722 45.0928 268.788 45.0388C268.852 44.9848 268.901 44.9208 268.935 44.8468C268.969 44.7728 268.986 44.6918 268.986 44.6038C268.986 44.4678 268.949 44.3578 268.875 44.2738C268.799 44.1878 268.698 44.1278 268.572 44.0938V44.0698C268.676 44.0318 268.761 43.9728 268.827 43.8928C268.891 43.8128 268.923 43.7118 268.923 43.5898C268.923 43.5098 268.908 43.4368 268.878 43.3708C268.846 43.3048 268.8 43.2478 268.74 43.1998C268.68 43.1518 268.607 43.1148 268.521 43.0888C268.433 43.0608 268.333 43.0468 268.221 43.0468C268.109 43.0468 268.01 43.0608 267.924 43.0888C267.836 43.1148 267.762 43.1518 267.702 43.1998C267.642 43.2478 267.597 43.3048 267.567 43.3708C267.535 43.4368 267.519 43.5098 267.519 43.5898C267.519 43.7118 267.552 43.8128 267.618 43.8928C267.682 43.9728 267.766 44.0318 267.87 44.0698V44.0938C267.744 44.1278 267.644 44.1878 267.57 44.2738C267.494 44.3578 267.456 44.4678 267.456 44.6038C267.456 44.6918 267.473 44.7728 267.507 44.8468C267.541 44.9208 267.591 44.9848 267.657 45.0388C267.721 45.0928 267.801 45.1358 267.897 45.1678C267.991 45.1978 268.099 45.2128 268.221 45.2128ZM268.221 44.9038C268.107 44.9038 268.02 44.8778 267.96 44.8258C267.898 44.7738 267.867 44.7008 267.867 44.6068V44.5438C267.867 44.4498 267.898 44.3768 267.96 44.3248C268.02 44.2728 268.107 44.2468 268.221 44.2468C268.335 44.2468 268.423 44.2728 268.485 44.3248C268.545 44.3768 268.575 44.4498 268.575 44.5438V44.6068C268.575 44.7008 268.545 44.7738 268.485 44.8258C268.423 44.8778 268.335 44.9038 268.221 44.9038ZM268.221 43.9528C268.115 43.9528 268.034 43.9288 267.978 43.8808C267.922 43.8328 267.894 43.7648 267.894 43.6768V43.6288C267.894 43.5428 267.922 43.4758 267.978 43.4278C268.034 43.3798 268.115 43.3558 268.221 43.3558C268.327 43.3558 268.408 43.3798 268.464 43.4278C268.52 43.4758 268.548 43.5428 268.548 43.6288V43.6768C268.548 43.7648 268.52 43.8328 268.464 43.8808C268.408 43.9288 268.327 43.9528 268.221 43.9528ZM264.005 45.1768H265.457V44.8108L264.8 44.2348C264.688 44.1368 264.606 44.0488 264.554 43.9708C264.502 43.8908 264.476 43.8048 264.476 43.7128V43.6738C264.476 43.5818 264.506 43.5118 264.566 43.4638C264.626 43.4138 264.699 43.3888 264.785 43.3888C264.893 43.3888 264.975 43.4198 265.031 43.4818C265.087 43.5418 265.127 43.6148 265.151 43.7008L265.493 43.5688C265.471 43.4988 265.44 43.4328 265.4 43.3708C265.36 43.3068 265.31 43.2508 265.25 43.2028C265.188 43.1548 265.116 43.1168 265.034 43.0888C264.952 43.0608 264.858 43.0468 264.752 43.0468C264.642 43.0468 264.544 43.0628 264.458 43.0948C264.372 43.1248 264.3 43.1678 264.242 43.2238C264.182 43.2798 264.137 43.3458 264.107 43.4218C264.075 43.4978 264.059 43.5808 264.059 43.6708C264.059 43.7588 264.073 43.8388 264.101 43.9108C264.129 43.9828 264.167 44.0518 264.215 44.1178C264.263 44.1818 264.319 44.2438 264.383 44.3038C264.447 44.3618 264.515 44.4208 264.587 44.4808L265.028 44.8438H264.005V45.1768ZM258.989 43.9288C258.869 43.9288 258.781 43.9048 258.725 43.8568C258.667 43.8068 258.638 43.7438 258.638 43.6678V43.6468C258.638 43.5608 258.666 43.4938 258.722 43.4458C258.776 43.3958 258.851 43.3708 258.947 43.3708C259.039 43.3708 259.121 43.3928 259.193 43.4368C259.263 43.4808 259.324 43.5428 259.376 43.6228L259.628 43.3948C259.592 43.3468 259.553 43.3018 259.511 43.2598C259.467 43.2158 259.417 43.1788 259.361 43.1488C259.305 43.1168 259.242 43.0918 259.172 43.0738C259.102 43.0558 259.023 43.0468 258.935 43.0468C258.829 43.0468 258.733 43.0598 258.647 43.0858C258.559 43.1098 258.484 43.1458 258.422 43.1938C258.358 43.2418 258.309 43.2998 258.275 43.3678C258.241 43.4338 258.224 43.5088 258.224 43.5928C258.224 43.6608 258.235 43.7218 258.257 43.7758C258.277 43.8298 258.306 43.8768 258.344 43.9168C258.38 43.9568 258.423 43.9898 258.473 44.0158C258.521 44.0398 258.572 44.0578 258.626 44.0698V44.0878C258.566 44.0998 258.509 44.1188 258.455 44.1448C258.401 44.1708 258.355 44.2058 258.317 44.2498C258.277 44.2918 258.246 44.3418 258.224 44.3998C258.2 44.4578 258.188 44.5238 258.188 44.5978C258.188 44.6898 258.207 44.7738 258.245 44.8498C258.281 44.9258 258.333 44.9908 258.401 45.0448C258.469 45.0988 258.55 45.1408 258.644 45.1708C258.738 45.1988 258.843 45.2128 258.959 45.2128C259.061 45.2128 259.151 45.2018 259.229 45.1798C259.307 45.1598 259.376 45.1318 259.436 45.0958C259.494 45.0598 259.545 45.0188 259.589 44.9728C259.633 44.9248 259.671 44.8748 259.703 44.8228L259.412 44.6008C259.388 44.6428 259.362 44.6818 259.334 44.7178C259.306 44.7518 259.274 44.7818 259.238 44.8078C259.202 44.8338 259.161 44.8538 259.115 44.8678C259.069 44.8818 259.017 44.8888 258.959 44.8888C258.843 44.8888 258.754 44.8608 258.692 44.8048C258.63 44.7488 258.599 44.6718 258.599 44.5738V44.5528C258.599 44.4568 258.633 44.3838 258.701 44.3338C258.767 44.2838 258.863 44.2588 258.989 44.2588H259.196V43.9288H258.989ZM255.252 45.1768V44.7718H256.2V44.4358L255.366 43.0828H254.877V44.4658H254.604V44.7718H254.877V45.1768H255.252ZM255.876 44.4658H255.252V43.4668H255.276L255.876 44.4658ZM251.164 43.8688C251.164 44.0188 251.187 44.1608 251.233 44.2948C251.277 44.4268 251.335 44.5488 251.407 44.6608C251.479 44.7708 251.56 44.8698 251.65 44.9578C251.738 45.0438 251.826 45.1168 251.914 45.1768H252.448C252.326 45.0888 252.216 45.0038 252.118 44.9218C252.02 44.8398 251.935 44.7568 251.863 44.6728C251.789 44.5888 251.729 44.5018 251.683 44.4118C251.635 44.3198 251.599 44.2208 251.575 44.1148L251.599 44.1088C251.619 44.1488 251.643 44.1878 251.671 44.2258C251.697 44.2638 251.729 44.2968 251.767 44.3248C251.805 44.3528 251.849 44.3758 251.899 44.3938C251.949 44.4098 252.007 44.4178 252.073 44.4178C252.161 44.4178 252.242 44.4028 252.316 44.3728C252.39 44.3428 252.455 44.2998 252.511 44.2438C252.565 44.1858 252.608 44.1178 252.64 44.0398C252.67 43.9598 252.685 43.8698 252.685 43.7698C252.685 43.6638 252.667 43.5668 252.631 43.4788C252.595 43.3908 252.544 43.3148 252.478 43.2508C252.412 43.1868 252.333 43.1368 252.241 43.1008C252.147 43.0648 252.042 43.0468 251.926 43.0468C251.806 43.0468 251.699 43.0668 251.605 43.1068C251.511 43.1448 251.431 43.1998 251.365 43.2718C251.299 43.3418 251.249 43.4278 251.215 43.5298C251.181 43.6298 251.164 43.7428 251.164 43.8688ZM251.926 44.1118C251.814 44.1118 251.727 44.0818 251.665 44.0218C251.603 43.9598 251.572 43.8718 251.572 43.7578V43.7128C251.572 43.5988 251.603 43.5118 251.665 43.4518C251.727 43.3898 251.814 43.3588 251.926 43.3588C252.036 43.3588 252.123 43.3898 252.187 43.4518C252.249 43.5118 252.28 43.5988 252.28 43.7128V43.7578C252.28 43.8718 252.249 43.9598 252.187 44.0218C252.123 44.0818 252.036 44.1118 251.926 44.1118ZM247.793 43.4248H248.735L248.783 44.1268H248.762C248.74 44.0828 248.716 44.0418 248.69 44.0038C248.664 43.9658 248.634 43.9338 248.6 43.9078C248.566 43.8818 248.527 43.8618 248.483 43.8478C248.437 43.8318 248.382 43.8238 248.318 43.8238C248.228 43.8238 248.144 43.8388 248.066 43.8688C247.988 43.8988 247.921 43.9428 247.865 44.0008C247.807 44.0568 247.762 44.1258 247.73 44.2078C247.696 44.2898 247.679 44.3828 247.679 44.4868C247.679 44.5928 247.696 44.6898 247.73 44.7778C247.764 44.8658 247.814 44.9428 247.88 45.0088C247.946 45.0728 248.027 45.1228 248.123 45.1588C248.219 45.1948 248.329 45.2128 248.453 45.2128C248.549 45.2128 248.635 45.2018 248.711 45.1798C248.787 45.1598 248.854 45.1318 248.912 45.0958C248.97 45.0598 249.02 45.0188 249.062 44.9728C249.104 44.9248 249.141 44.8748 249.173 44.8228L248.885 44.6008C248.861 44.6408 248.836 44.6788 248.81 44.7148C248.784 44.7488 248.754 44.7788 248.72 44.8048C248.684 44.8308 248.645 44.8518 248.603 44.8678C248.559 44.8818 248.508 44.8888 248.45 44.8888C248.332 44.8888 248.243 44.8558 248.183 44.7898C248.121 44.7238 248.09 44.6338 248.09 44.5198V44.4958C248.09 44.3878 248.121 44.3028 248.183 44.2408C248.245 44.1788 248.331 44.1478 248.441 44.1478C248.527 44.1478 248.597 44.1648 248.651 44.1988C248.705 44.2308 248.748 44.2658 248.78 44.3038L249.104 44.2588L249.026 43.0828H247.793V43.4248ZM242.426 45.1768V44.7718H243.374V44.4358L242.54 43.0828H242.051V44.4658H241.778V44.7718H242.051V45.1768H242.426ZM243.05 44.4658H242.426V43.4668H242.45L243.05 44.4658ZM238.948 45.1768V44.7718H239.896V44.4358L239.062 43.0828H238.573V44.4658H238.3V44.7718H238.573V45.1768H238.948ZM239.572 44.4658H238.948V43.4668H238.972L239.572 44.4658Z" fill="#0ECACA"/>
</svg>
