<svg width="171" height="98" viewBox="0 0 171 98" fill="none" xmlns="http://www.w3.org/2000/svg">
<path d="M0 92.5H79.0589C85.4241 92.5 91.5286 89.9714 96.0294 85.4706L128.971 52.5294C133.471 48.0286 136 41.9241 136 35.5589V25.1274C136 20.884 137.686 16.8143 140.686 13.8137L148.314 6.18629C151.314 3.18571 155.384 1.5 159.627 1.5H170.5" stroke="#0ECACA" stroke-width="0.5"/>
<path d="M159.627 1.5H170.5" stroke="#0ECACA" stroke-width="3"/>
<path d="M140 39.5L140 36.5" stroke="#0ECACA" stroke-width="3"/>
<path d="M100 81.5L96.0294 85.4706C91.5286 89.9714 85.4241 92.5 79.0589 92.5H73" stroke="#0ECACA" stroke-width="3"/>
<path d="M140 38.4136C140 44.8646 137.403 51.044 132.795 55.5582L119 69.1939M109 78.8674L97.9982 89.6446C93.5124 94.0389 87.483 96.5 81.2035 96.5H72.5" stroke="#0ECACA" stroke-width="0.5"/>
<path d="M12.8932 97.5H11.4412V97.134L12.0982 96.558C12.2102 96.46 12.2922 96.372 12.3442 96.294C12.3962 96.214 12.4222 96.128 12.4222 96.036V95.997C12.4222 95.905 12.3922 95.835 12.3322 95.787C12.2722 95.737 12.1992 95.712 12.1132 95.712C12.0052 95.712 11.9232 95.743 11.8672 95.805C11.8112 95.865 11.7712 95.938 11.7472 96.024L11.4052 95.892C11.4272 95.822 11.4582 95.756 11.4982 95.694C11.5382 95.63 11.5882 95.574 11.6482 95.526C11.7102 95.478 11.7822 95.44 11.8642 95.412C11.9462 95.384 12.0402 95.37 12.1462 95.37C12.2562 95.37 12.3542 95.386 12.4402 95.418C12.5262 95.448 12.5982 95.491 12.6562 95.547C12.7162 95.603 12.7612 95.669 12.7912 95.745C12.8232 95.821 12.8392 95.904 12.8392 95.994C12.8392 96.082 12.8252 96.162 12.7972 96.234C12.7692 96.306 12.7312 96.375 12.6832 96.441C12.6352 96.505 12.5792 96.567 12.5152 96.627C12.4512 96.685 12.3832 96.744 12.3112 96.804L11.8702 97.167H12.8932V97.5ZM15.778 97.5V97.095H14.83V96.759L15.664 95.406H16.153V96.789H16.426V97.095H16.153V97.5H15.778ZM15.154 96.789H15.778V95.79H15.754L15.154 96.789ZM19.1128 97.536C18.9908 97.536 18.8818 97.521 18.7858 97.491C18.6918 97.459 18.6118 97.416 18.5458 97.362C18.4818 97.308 18.4328 97.244 18.3988 97.17C18.3648 97.096 18.3478 97.015 18.3478 96.927C18.3478 96.791 18.3848 96.681 18.4588 96.597C18.5348 96.511 18.6358 96.451 18.7618 96.417V96.393C18.6578 96.355 18.5728 96.296 18.5068 96.216C18.4428 96.136 18.4108 96.035 18.4108 95.913C18.4108 95.833 18.4258 95.76 18.4558 95.694C18.4878 95.628 18.5338 95.571 18.5938 95.523C18.6538 95.475 18.7268 95.438 18.8128 95.412C18.9008 95.384 19.0008 95.37 19.1128 95.37C19.2248 95.37 19.3238 95.384 19.4098 95.412C19.4978 95.438 19.5718 95.475 19.6318 95.523C19.6918 95.571 19.7368 95.628 19.7668 95.694C19.7988 95.76 19.8148 95.833 19.8148 95.913C19.8148 96.035 19.7818 96.136 19.7158 96.216C19.6518 96.296 19.5678 96.355 19.4638 96.393V96.417C19.5898 96.451 19.6898 96.511 19.7638 96.597C19.8398 96.681 19.8778 96.791 19.8778 96.927C19.8778 97.015 19.8608 97.096 19.8268 97.17C19.7928 97.244 19.7428 97.308 19.6768 97.362C19.6128 97.416 19.5328 97.459 19.4368 97.491C19.3428 97.521 19.2348 97.536 19.1128 97.536ZM19.1128 97.227C19.2268 97.227 19.3138 97.201 19.3738 97.149C19.4358 97.097 19.4668 97.024 19.4668 96.93V96.867C19.4668 96.773 19.4358 96.7 19.3738 96.648C19.3138 96.596 19.2268 96.57 19.1128 96.57C18.9988 96.57 18.9108 96.596 18.8488 96.648C18.7888 96.7 18.7588 96.773 18.7588 96.867V96.93C18.7588 97.024 18.7888 97.097 18.8488 97.149C18.9108 97.201 18.9988 97.227 19.1128 97.227ZM19.1128 96.276C19.2188 96.276 19.2998 96.252 19.3558 96.204C19.4118 96.156 19.4398 96.088 19.4398 96V95.952C19.4398 95.866 19.4118 95.799 19.3558 95.751C19.2998 95.703 19.2188 95.679 19.1128 95.679C19.0068 95.679 18.9258 95.703 18.8698 95.751C18.8138 95.799 18.7858 95.866 18.7858 95.952V96C18.7858 96.088 18.8138 96.156 18.8698 96.204C18.9258 96.252 19.0068 96.276 19.1128 96.276ZM28.1076 97.5H26.6556V97.134L27.3126 96.558C27.4246 96.46 27.5066 96.372 27.5586 96.294C27.6106 96.214 27.6366 96.128 27.6366 96.036V95.997C27.6366 95.905 27.6066 95.835 27.5466 95.787C27.4866 95.737 27.4136 95.712 27.3276 95.712C27.2196 95.712 27.1376 95.743 27.0816 95.805C27.0256 95.865 26.9856 95.938 26.9616 96.024L26.6196 95.892C26.6416 95.822 26.6726 95.756 26.7126 95.694C26.7526 95.63 26.8026 95.574 26.8626 95.526C26.9246 95.478 26.9966 95.44 27.0786 95.412C27.1606 95.384 27.2546 95.37 27.3606 95.37C27.4706 95.37 27.5686 95.386 27.6546 95.418C27.7406 95.448 27.8126 95.491 27.8706 95.547C27.9306 95.603 27.9756 95.669 28.0056 95.745C28.0376 95.821 28.0536 95.904 28.0536 95.994C28.0536 96.082 28.0396 96.162 28.0116 96.234C27.9836 96.306 27.9456 96.375 27.8976 96.441C27.8496 96.505 27.7936 96.567 27.7296 96.627C27.6656 96.685 27.5976 96.744 27.5256 96.804L27.0846 97.167H28.1076V97.5ZM30.8574 97.536C30.7374 97.536 30.6304 97.517 30.5364 97.479C30.4424 97.439 30.3624 97.384 30.2964 97.314C30.2304 97.242 30.1804 97.156 30.1464 97.056C30.1124 96.954 30.0954 96.84 30.0954 96.714C30.0954 96.564 30.1174 96.423 30.1614 96.291C30.2074 96.157 30.2664 96.035 30.3384 95.925C30.4104 95.813 30.4904 95.714 30.5784 95.628C30.6684 95.54 30.7574 95.466 30.8454 95.406H31.3794C31.2554 95.494 31.1444 95.579 31.0464 95.661C30.9504 95.743 30.8654 95.826 30.7914 95.91C30.7194 95.994 30.6594 96.082 30.6114 96.174C30.5654 96.264 30.5304 96.362 30.5064 96.468L30.5304 96.474C30.5504 96.434 30.5734 96.396 30.5994 96.36C30.6274 96.322 30.6604 96.289 30.6984 96.261C30.7364 96.231 30.7804 96.208 30.8304 96.192C30.8804 96.174 30.9384 96.165 31.0044 96.165C31.0904 96.165 31.1704 96.18 31.2444 96.21C31.3204 96.24 31.3854 96.284 31.4394 96.342C31.4954 96.398 31.5384 96.466 31.5684 96.546C31.6004 96.626 31.6164 96.715 31.6164 96.813C31.6164 96.919 31.5984 97.016 31.5624 97.104C31.5264 97.192 31.4754 97.268 31.4094 97.332C31.3434 97.396 31.2634 97.446 31.1694 97.482C31.0774 97.518 30.9734 97.536 30.8574 97.536ZM30.8574 97.224C30.9674 97.224 31.0534 97.194 31.1154 97.134C31.1794 97.072 31.2114 96.984 31.2114 96.87V96.825C31.2114 96.711 31.1794 96.624 31.1154 96.564C31.0534 96.502 30.9674 96.471 30.8574 96.471C30.7454 96.471 30.6584 96.502 30.5964 96.564C30.5344 96.624 30.5034 96.711 30.5034 96.825V96.87C30.5034 96.984 30.5344 97.072 30.5964 97.134C30.6584 97.194 30.7454 97.224 30.8574 97.224ZM39.1052 97.536C38.9712 97.536 38.8552 97.512 38.7572 97.464C38.6592 97.414 38.5782 97.343 38.5142 97.251C38.4502 97.159 38.4022 97.046 38.3702 96.912C38.3402 96.778 38.3252 96.625 38.3252 96.453C38.3252 96.283 38.3402 96.131 38.3702 95.997C38.4022 95.861 38.4502 95.747 38.5142 95.655C38.5782 95.563 38.6592 95.493 38.7572 95.445C38.8552 95.395 38.9712 95.37 39.1052 95.37C39.3712 95.37 39.5672 95.465 39.6932 95.655C39.8212 95.845 39.8852 96.111 39.8852 96.453C39.8852 96.795 39.8212 97.061 39.6932 97.251C39.5672 97.441 39.3712 97.536 39.1052 97.536ZM39.1052 97.203C39.2392 97.203 39.3322 97.153 39.3842 97.053C39.4382 96.951 39.4652 96.814 39.4652 96.642V96.264C39.4652 96.092 39.4382 95.956 39.3842 95.856C39.3322 95.754 39.2392 95.703 39.1052 95.703C38.9712 95.703 38.8772 95.754 38.8232 95.856C38.7712 95.956 38.7452 96.092 38.7452 96.264V96.642C38.7452 96.814 38.7712 96.951 38.8232 97.053C38.8772 97.153 38.9712 97.203 39.1052 97.203ZM43.3371 96.192C43.3371 96.342 43.3141 96.484 43.2681 96.618C43.2241 96.75 43.1661 96.872 43.0941 96.984C43.0221 97.094 42.9411 97.193 42.8511 97.281C42.7631 97.367 42.6751 97.44 42.5871 97.5H42.0531C42.1751 97.412 42.2851 97.327 42.3831 97.245C42.4811 97.163 42.5661 97.08 42.6381 96.996C42.7121 96.912 42.7721 96.825 42.8181 96.735C42.8661 96.643 42.9021 96.544 42.9261 96.438L42.9021 96.432C42.8821 96.472 42.8581 96.511 42.8301 96.549C42.8041 96.587 42.7721 96.62 42.7341 96.648C42.6961 96.676 42.6521 96.699 42.6021 96.717C42.5521 96.733 42.4941 96.741 42.4281 96.741C42.3401 96.741 42.2591 96.726 42.1851 96.696C42.1111 96.666 42.0461 96.623 41.9901 96.567C41.9361 96.509 41.8931 96.441 41.8611 96.363C41.8311 96.283 41.8161 96.193 41.8161 96.093C41.8161 95.987 41.8341 95.89 41.8701 95.802C41.9061 95.714 41.9571 95.638 42.0231 95.574C42.0891 95.51 42.1681 95.46 42.2601 95.424C42.3541 95.388 42.4591 95.37 42.5751 95.37C42.6951 95.37 42.8021 95.39 42.8961 95.43C42.9901 95.468 43.0701 95.523 43.1361 95.595C43.2021 95.665 43.2521 95.751 43.2861 95.853C43.3201 95.953 43.3371 96.066 43.3371 96.192ZM42.5751 96.435C42.6871 96.435 42.7741 96.405 42.8361 96.345C42.8981 96.283 42.9291 96.195 42.9291 96.081V96.036C42.9291 95.922 42.8981 95.835 42.8361 95.775C42.7741 95.713 42.6871 95.682 42.5751 95.682C42.4651 95.682 42.3781 95.713 42.3141 95.775C42.2521 95.835 42.2211 95.922 42.2211 96.036V96.081C42.2211 96.195 42.2521 96.283 42.3141 96.345C42.3781 96.405 42.4651 96.435 42.5751 96.435ZM46.0629 97.536C45.9409 97.536 45.8319 97.521 45.7359 97.491C45.6419 97.459 45.5619 97.416 45.4959 97.362C45.4319 97.308 45.3829 97.244 45.3489 97.17C45.3149 97.096 45.2979 97.015 45.2979 96.927C45.2979 96.791 45.3349 96.681 45.4089 96.597C45.4849 96.511 45.5859 96.451 45.7119 96.417V96.393C45.6079 96.355 45.5229 96.296 45.4569 96.216C45.3929 96.136 45.3609 96.035 45.3609 95.913C45.3609 95.833 45.3759 95.76 45.4059 95.694C45.4379 95.628 45.4839 95.571 45.5439 95.523C45.6039 95.475 45.6769 95.438 45.7629 95.412C45.8509 95.384 45.9509 95.37 46.0629 95.37C46.1749 95.37 46.2739 95.384 46.3599 95.412C46.4479 95.438 46.5219 95.475 46.5819 95.523C46.6419 95.571 46.6869 95.628 46.7169 95.694C46.7489 95.76 46.7649 95.833 46.7649 95.913C46.7649 96.035 46.7319 96.136 46.6659 96.216C46.6019 96.296 46.5179 96.355 46.4139 96.393V96.417C46.5399 96.451 46.6399 96.511 46.7139 96.597C46.7899 96.681 46.8279 96.791 46.8279 96.927C46.8279 97.015 46.8109 97.096 46.7769 97.17C46.7429 97.244 46.6929 97.308 46.6269 97.362C46.5629 97.416 46.4829 97.459 46.3869 97.491C46.2929 97.521 46.1849 97.536 46.0629 97.536ZM46.0629 97.227C46.1769 97.227 46.2639 97.201 46.3239 97.149C46.3859 97.097 46.4169 97.024 46.4169 96.93V96.867C46.4169 96.773 46.3859 96.7 46.3239 96.648C46.2639 96.596 46.1769 96.57 46.0629 96.57C45.9489 96.57 45.8609 96.596 45.7989 96.648C45.7389 96.7 45.7089 96.773 45.7089 96.867V96.93C45.7089 97.024 45.7389 97.097 45.7989 97.149C45.8609 97.201 45.9489 97.227 46.0629 97.227ZM46.0629 96.276C46.1689 96.276 46.2499 96.252 46.3059 96.204C46.3619 96.156 46.3899 96.088 46.3899 96V95.952C46.3899 95.866 46.3619 95.799 46.3059 95.751C46.2499 95.703 46.1689 95.679 46.0629 95.679C45.9569 95.679 45.8759 95.703 45.8199 95.751C45.7639 95.799 45.7359 95.866 45.7359 95.952V96C45.7359 96.088 45.7639 96.156 45.8199 96.204C45.8759 96.252 45.9569 96.276 46.0629 96.276ZM50.2797 97.5H48.8277V97.134L49.4847 96.558C49.5967 96.46 49.6787 96.372 49.7307 96.294C49.7827 96.214 49.8087 96.128 49.8087 96.036V95.997C49.8087 95.905 49.7787 95.835 49.7187 95.787C49.6587 95.737 49.5857 95.712 49.4997 95.712C49.3917 95.712 49.3097 95.743 49.2537 95.805C49.1977 95.865 49.1577 95.938 49.1337 96.024L48.7917 95.892C48.8137 95.822 48.8447 95.756 48.8847 95.694C48.9247 95.63 48.9747 95.574 49.0347 95.526C49.0967 95.478 49.1687 95.44 49.2507 95.412C49.3327 95.384 49.4267 95.37 49.5327 95.37C49.6427 95.37 49.7407 95.386 49.8267 95.418C49.9127 95.448 49.9847 95.491 50.0427 95.547C50.1027 95.603 50.1477 95.669 50.1777 95.745C50.2097 95.821 50.2257 95.904 50.2257 95.994C50.2257 96.082 50.2117 96.162 50.1837 96.234C50.1557 96.306 50.1177 96.375 50.0697 96.441C50.0217 96.505 49.9657 96.567 49.9017 96.627C49.8377 96.685 49.7697 96.744 49.6977 96.804L49.2567 97.167H50.2797V97.5ZM55.2955 96.252C55.4155 96.252 55.5035 96.228 55.5595 96.18C55.6175 96.13 55.6465 96.067 55.6465 95.991V95.97C55.6465 95.884 55.6185 95.817 55.5625 95.769C55.5085 95.719 55.4335 95.694 55.3375 95.694C55.2455 95.694 55.1635 95.716 55.0915 95.76C55.0215 95.804 54.9605 95.866 54.9085 95.946L54.6565 95.718C54.6925 95.67 54.7315 95.625 54.7735 95.583C54.8175 95.539 54.8675 95.502 54.9235 95.472C54.9795 95.44 55.0425 95.415 55.1125 95.397C55.1825 95.379 55.2615 95.37 55.3495 95.37C55.4555 95.37 55.5515 95.383 55.6375 95.409C55.7255 95.433 55.8005 95.469 55.8625 95.517C55.9265 95.565 55.9755 95.623 56.0095 95.691C56.0435 95.757 56.0605 95.832 56.0605 95.916C56.0605 95.984 56.0495 96.045 56.0275 96.099C56.0075 96.153 55.9785 96.2 55.9405 96.24C55.9045 96.28 55.8615 96.313 55.8115 96.339C55.7635 96.363 55.7125 96.381 55.6585 96.393V96.411C55.7185 96.423 55.7755 96.442 55.8295 96.468C55.8835 96.494 55.9295 96.529 55.9675 96.573C56.0075 96.615 56.0385 96.665 56.0605 96.723C56.0845 96.781 56.0965 96.847 56.0965 96.921C56.0965 97.013 56.0775 97.097 56.0395 97.173C56.0035 97.249 55.9515 97.314 55.8835 97.368C55.8155 97.422 55.7345 97.464 55.6405 97.494C55.5465 97.522 55.4415 97.536 55.3255 97.536C55.2235 97.536 55.1335 97.525 55.0555 97.503C54.9775 97.483 54.9085 97.455 54.8485 97.419C54.7905 97.383 54.7395 97.342 54.6955 97.296C54.6515 97.248 54.6135 97.198 54.5815 97.146L54.8725 96.924C54.8965 96.966 54.9225 97.005 54.9505 97.041C54.9785 97.075 55.0105 97.105 55.0465 97.131C55.0825 97.157 55.1235 97.177 55.1695 97.191C55.2155 97.205 55.2675 97.212 55.3255 97.212C55.4415 97.212 55.5305 97.184 55.5925 97.128C55.6545 97.072 55.6855 96.995 55.6855 96.897V96.876C55.6855 96.78 55.6515 96.707 55.5835 96.657C55.5175 96.607 55.4215 96.582 55.2955 96.582H55.0885V96.252H55.2955ZM59.0324 97.5V97.095H58.0844V96.759L58.9184 95.406H59.4074V96.789H59.6804V97.095H59.4074V97.5H59.0324ZM58.4084 96.789H59.0324V95.79H59.0084L58.4084 96.789ZM63.1202 96.192C63.1202 96.342 63.0972 96.484 63.0512 96.618C63.0072 96.75 62.9492 96.872 62.8772 96.984C62.8052 97.094 62.7242 97.193 62.6342 97.281C62.5462 97.367 62.4582 97.44 62.3702 97.5H61.8362C61.9582 97.412 62.0682 97.327 62.1662 97.245C62.2642 97.163 62.3492 97.08 62.4212 96.996C62.4952 96.912 62.5552 96.825 62.6012 96.735C62.6492 96.643 62.6852 96.544 62.7092 96.438L62.6852 96.432C62.6652 96.472 62.6412 96.511 62.6132 96.549C62.5872 96.587 62.5552 96.62 62.5172 96.648C62.4792 96.676 62.4352 96.699 62.3852 96.717C62.3352 96.733 62.2772 96.741 62.2112 96.741C62.1232 96.741 62.0422 96.726 61.9682 96.696C61.8942 96.666 61.8292 96.623 61.7732 96.567C61.7192 96.509 61.6762 96.441 61.6442 96.363C61.6142 96.283 61.5992 96.193 61.5992 96.093C61.5992 95.987 61.6172 95.89 61.6532 95.802C61.6892 95.714 61.7402 95.638 61.8062 95.574C61.8722 95.51 61.9512 95.46 62.0432 95.424C62.1372 95.388 62.2422 95.37 62.3582 95.37C62.4782 95.37 62.5852 95.39 62.6792 95.43C62.7732 95.468 62.8532 95.523 62.9192 95.595C62.9852 95.665 63.0352 95.751 63.0692 95.853C63.1032 95.953 63.1202 96.066 63.1202 96.192ZM62.3582 96.435C62.4702 96.435 62.5572 96.405 62.6192 96.345C62.6812 96.283 62.7122 96.195 62.7122 96.081V96.036C62.7122 95.922 62.6812 95.835 62.6192 95.775C62.5572 95.713 62.4702 95.682 62.3582 95.682C62.2482 95.682 62.1612 95.713 62.0972 95.775C62.0352 95.835 62.0042 95.922 62.0042 96.036V96.081C62.0042 96.195 62.0352 96.283 62.0972 96.345C62.1612 96.405 62.2482 96.435 62.3582 96.435ZM66.491 95.748H65.549L65.501 96.45H65.522C65.544 96.406 65.568 96.365 65.594 96.327C65.62 96.289 65.65 96.257 65.684 96.231C65.718 96.205 65.757 96.185 65.801 96.171C65.847 96.155 65.902 96.147 65.966 96.147C66.056 96.147 66.14 96.162 66.218 96.192C66.296 96.222 66.363 96.266 66.419 96.324C66.477 96.38 66.522 96.449 66.554 96.531C66.588 96.613 66.605 96.706 66.605 96.81C66.605 96.916 66.588 97.013 66.554 97.101C66.52 97.189 66.47 97.266 66.404 97.332C66.338 97.396 66.257 97.446 66.161 97.482C66.065 97.518 65.955 97.536 65.831 97.536C65.735 97.536 65.649 97.525 65.573 97.503C65.497 97.483 65.43 97.455 65.372 97.419C65.314 97.383 65.264 97.342 65.222 97.296C65.18 97.248 65.143 97.198 65.111 97.146L65.399 96.924C65.423 96.964 65.448 97.002 65.474 97.038C65.5 97.072 65.53 97.102 65.564 97.128C65.6 97.154 65.639 97.175 65.681 97.191C65.725 97.205 65.776 97.212 65.834 97.212C65.952 97.212 66.041 97.179 66.101 97.113C66.163 97.047 66.194 96.957 66.194 96.843V96.819C66.194 96.711 66.163 96.626 66.101 96.564C66.039 96.502 65.953 96.471 65.843 96.471C65.757 96.471 65.687 96.488 65.633 96.522C65.579 96.554 65.536 96.589 65.504 96.627L65.18 96.582L65.258 95.406H66.491V95.748Z" fill="#0ECACA"/>
</svg>
