<svg width="80" height="61" viewBox="0 0 80 61" fill="none" xmlns="http://www.w3.org/2000/svg">
<rect x="0.711966" width="42.0426" height="42.0426" transform="matrix(0.711966 -0.702213 0.711966 0.702213 18.1377 30.7251)" fill="url(#paint0_radial_1017_1163)"/>
<rect x="0.711966" width="42.0426" height="42.0426" transform="matrix(0.711966 -0.702213 0.711966 0.702213 18.1377 30.7251)" fill="url(#paint1_linear_1017_1163)"/>
<rect x="0.711966" width="42.0426" height="42.0426" transform="matrix(0.711966 -0.702213 0.711966 0.702213 18.1377 30.7251)" stroke="url(#paint2_linear_1017_1163)"/>
<path d="M35.2236 30.0005L50.3379 45.1147L51.0449 44.4067L51.752 43.6997L38.0527 29.9995L51.752 16.3003L50.3379 14.8862L35.2236 30.0005ZM39.3398 30.0005L45.5352 36.1958L46.9492 34.7817L43.168 31.0005H60.6494V29.0005H43.168L46.9492 25.2192L45.5352 23.8052L39.3398 30.0005Z" fill="url(#paint3_radial_1017_1163)"/>
<g filter="url(#filter0_d_1017_1163)">
<rect x="19" y="30.5" width="4.9689" height="4.96891" transform="rotate(-45 19 30.5)" fill="#E11036"/>
</g>
<defs>
<filter id="filter0_d_1017_1163" x="0" y="7.98645" width="45.0273" height="45.0271" filterUnits="userSpaceOnUse" color-interpolation-filters="sRGB">
<feFlood flood-opacity="0" result="BackgroundImageFix"/>
<feColorMatrix in="SourceAlpha" type="matrix" values="0 0 0 0 0 0 0 0 0 0 0 0 0 0 0 0 0 0 127 0" result="hardAlpha"/>
<feMorphology radius="3" operator="dilate" in="SourceAlpha" result="effect1_dropShadow_1017_1163"/>
<feOffset/>
<feGaussianBlur stdDeviation="8"/>
<feComposite in2="hardAlpha" operator="out"/>
<feColorMatrix type="matrix" values="0 0 0 0 0.882353 0 0 0 0 0.0627451 0 0 0 0 0.211765 0 0 0 1 0"/>
<feBlend mode="normal" in2="BackgroundImageFix" result="effect1_dropShadow_1017_1163"/>
<feBlend mode="normal" in="SourceGraphic" in2="effect1_dropShadow_1017_1163" result="shape"/>
</filter>
<radialGradient id="paint0_radial_1017_1163" cx="0" cy="0" r="1" gradientUnits="userSpaceOnUse" gradientTransform="translate(21.5213 21.5213) rotate(-172.439) scale(41.5803)">
<stop offset="0.235577" stop-color="#E11036" stop-opacity="0"/>
<stop offset="1" stop-color="#E11036" stop-opacity="0.4"/>
</radialGradient>
<linearGradient id="paint1_linear_1017_1163" x1="0.0299571" y1="-0.0299571" x2="31.629" y2="31.4676" gradientUnits="userSpaceOnUse">
<stop stop-color="#E11036" stop-opacity="0.4"/>
<stop offset="1" stop-color="#E11036" stop-opacity="0"/>
</linearGradient>
<linearGradient id="paint2_linear_1017_1163" x1="0.0299576" y1="-0.0299581" x2="35.6108" y2="35.4494" gradientUnits="userSpaceOnUse">
<stop stop-color="#E11036"/>
<stop offset="1" stop-color="#E11036" stop-opacity="0"/>
</linearGradient>
<radialGradient id="paint3_radial_1017_1163" cx="0" cy="0" r="1" gradientTransform="matrix(29.3261 0.0628909 0.0381492 -17.6895 31.3233 29.9376)" gradientUnits="userSpaceOnUse">
<stop stop-color="white"/>
<stop offset="1" stop-color="white" stop-opacity="0"/>
</radialGradient>
</defs>
</svg>
