<svg width="48" height="50" viewBox="0 0 48 50" fill="none" xmlns="http://www.w3.org/2000/svg">
<mask id="path-1-inside-1_1362_1629" fill="white">
<path d="M48 0C47.9526 0.000150509 41.1271 0.0435791 33.7783 12.5C26.4038 25 19.5557 25 19.5557 25C19.5557 25 26.702 24.9998 33.457 36.9229L34.0996 38.0771C40.8316 49.9594 47.9516 49.9999 48 50C48 50 35.9411 50.0003 24.542 38.0771L23.458 36.9229C12.0589 24.9997 0 25 0 25C0 25 11.197 25 23.417 13.0771L24.583 11.9229C36.803 1.98485e-05 48 0 48 0Z"/>
</mask>
<g filter="url(#filter0_ii_1362_1629)">
<path d="M48 0C47.9526 0.000150509 41.1271 0.0435791 33.7783 12.5C26.4038 25 19.5557 25 19.5557 25C19.5557 25 26.702 24.9998 33.457 36.9229L34.0996 38.0771C40.8316 49.9594 47.9516 49.9999 48 50C48 50 35.9411 50.0003 24.542 38.0771L23.458 36.9229C12.0589 24.9997 0 25 0 25C0 25 11.197 25 23.417 13.0771L24.583 11.9229C36.803 1.98485e-05 48 0 48 0Z" fill="url(#paint0_linear_1362_1629)"/>
<path d="M48 0C47.9526 0.000150509 41.1271 0.0435791 33.7783 12.5C26.4038 25 19.5557 25 19.5557 25C19.5557 25 26.702 24.9998 33.457 36.9229L34.0996 38.0771C40.8316 49.9594 47.9516 49.9999 48 50C48 50 35.9411 50.0003 24.542 38.0771L23.458 36.9229C12.0589 24.9997 0 25 0 25C0 25 11.197 25 23.417 13.0771L24.583 11.9229C36.803 1.98485e-05 48 0 48 0Z" fill="black" fill-opacity="0.32"/>
</g>
<path d="M48 0L48.0032 0.999995C48.5548 0.998242 49.0009 0.550074 49 -0.00158973C48.9991 -0.553254 48.5517 -1 48 -1V0ZM33.7783 12.5L32.917 11.9919L32.917 11.9919L33.7783 12.5ZM19.5557 25L19.5556 24C19.0034 24 18.5557 24.4477 18.5557 25C18.5557 25.5523 19.0034 26 19.5557 26V25ZM33.457 36.9229L34.3308 36.4364L34.3271 36.4299L33.457 36.9229ZM34.0996 38.0771L33.2258 38.5636L33.2295 38.5701L34.0996 38.0771ZM48 50L48 51C48.5518 51 48.9992 50.5531 49 50.0014C49.0008 49.4497 48.5546 49.0016 48.0028 49L48 50ZM24.542 38.0771L23.813 38.7617L23.8192 38.7682L24.542 38.0771ZM23.458 36.9229L24.187 36.2383L24.1808 36.2318L23.458 36.9229ZM0 25L-2.39901e-05 24C-0.552304 24 -1.00001 24.4477 -1 25C-0.999993 25.5523 -0.552279 26 1.77503e-06 26L0 25ZM23.417 13.0771L24.1154 13.7929L24.1205 13.7878L23.417 13.0771ZM24.583 11.9229L23.8846 11.2071L23.8795 11.2122L24.583 11.9229ZM48 0L47.9968 -0.999995C47.571 -0.998642 40.4317 -0.745635 32.917 11.9919L33.7783 12.5L34.6396 13.0081C41.8226 0.832793 48.3342 0.998943 48.0032 0.999995L48 0ZM33.7783 12.5L32.917 11.9919C29.2995 18.1237 25.8558 21.1154 23.3913 22.5775C22.1574 23.3095 21.1589 23.6642 20.4912 23.8364C20.1568 23.9226 19.9038 23.9635 19.7441 23.9828C19.6643 23.9925 19.6076 23.9968 19.5757 23.9987C19.5598 23.9996 19.55 23.9999 19.5466 24C19.5449 24.0001 19.5448 24.0001 19.5463 24.0001C19.547 24 19.5482 24 19.5498 24C19.5505 24 19.5514 24 19.5524 24C19.5529 24 19.5537 24 19.554 24C19.5548 24 19.5557 24 19.5557 25C19.5557 26 19.5566 26 19.5575 26C19.5579 26 19.5588 26 19.5595 26C19.5609 26 19.5625 26 19.5641 26C19.5673 25.9999 19.5709 25.9999 19.575 25.9998C19.5832 25.9997 19.593 25.9995 19.6045 25.9992C19.6274 25.9985 19.657 25.9973 19.693 25.9952C19.765 25.991 19.8627 25.9831 19.9845 25.9683C20.2282 25.9388 20.5678 25.8821 20.9907 25.773C21.8374 25.5546 23.0118 25.128 24.4118 24.2975C27.215 22.6346 30.8826 19.3763 34.6396 13.0081L33.7783 12.5ZM19.5557 25C19.5557 26 19.5549 26 19.5541 26C19.5539 26 19.5532 26 19.5528 26C19.5519 26 19.5511 26 19.5505 26C19.5491 26 19.5482 26 19.5478 26C19.5468 25.9999 19.5475 26 19.5499 26C19.5547 26.0001 19.566 26.0005 19.5838 26.0015C19.6193 26.0034 19.6803 26.0076 19.765 26.0171C19.9345 26.036 20.199 26.0757 20.5443 26.1586C21.234 26.3243 22.2505 26.6637 23.4803 27.3604C25.9336 28.7501 29.2866 31.5904 32.587 37.4158L33.457 36.9229L34.3271 36.4299C30.8725 30.3322 27.2747 27.2111 24.4661 25.6202C23.065 24.8265 21.8727 24.4208 21.0114 24.2139C20.5812 24.1106 20.2346 24.0571 19.9868 24.0294C19.863 24.0156 19.7639 24.0083 19.6914 24.0044C19.6551 24.0024 19.6255 24.0013 19.6028 24.0007C19.5915 24.0004 19.5819 24.0002 19.574 24.0001C19.57 24.0001 19.5665 24 19.5635 24C19.562 24 19.5605 24 19.5592 24C19.5586 24 19.5577 24 19.5573 24C19.5565 24 19.5556 24 19.5557 25ZM33.457 36.9229L32.5833 37.4092L33.2259 38.5635L34.0996 38.0771L34.9733 37.5908L34.3308 36.4365L33.457 36.9229ZM34.0996 38.0771L33.2295 38.5701C40.1474 50.7803 47.6078 50.9989 47.9972 51L48 50L48.0028 49C48.2954 49.0008 41.5158 49.1385 34.9697 37.5842L34.0996 38.0771ZM48 50C48 49 48.0004 49 48.0008 49C48.0009 49 48.0012 49 48.0014 49C48.0016 49 48.0017 49 48.0017 49C48.0015 49 48.0006 49 47.999 49C47.9958 49 47.9897 48.9999 47.9807 48.9998C47.9629 48.9995 47.9338 48.9989 47.8937 48.9976C47.8136 48.995 47.6898 48.9898 47.5256 48.9789C47.197 48.9572 46.7065 48.9131 46.0786 48.8237C44.8227 48.645 43.0192 48.2852 40.8639 47.5617C36.5569 46.1159 30.8379 43.2154 25.2648 37.3861L24.542 38.0771L23.8192 38.7682C29.6452 44.862 35.6552 47.9229 40.2274 49.4578C42.5118 50.2246 44.4354 50.61 45.7968 50.8038C46.4776 50.9007 47.0182 50.9497 47.3936 50.9745C47.5813 50.987 47.7278 50.9933 47.8299 50.9966C47.8809 50.9982 47.9209 50.9991 47.9494 50.9995C47.9636 50.9997 47.975 50.9999 47.9835 50.9999C47.9877 51 47.9912 51 47.9939 51C47.9953 51 47.9965 51 47.9975 51C47.998 51 47.9987 51 47.9989 51C47.9995 51 48 51 48 50ZM24.542 38.0771L25.271 37.3926L24.187 36.2383L23.458 36.9229L22.729 37.6074L23.813 38.7617L24.542 38.0771ZM23.458 36.9229L24.1808 36.2318C18.3548 30.138 12.3448 27.0771 7.77257 25.5422C5.48823 24.7754 3.56455 24.39 2.20323 24.1962C1.52245 24.0993 0.981809 24.0503 0.60641 24.0255C0.418689 24.013 0.272217 24.0067 0.170122 24.0034C0.119072 24.0018 0.0791084 24.0009 0.050623 24.0005C0.03638 24.0003 0.0250055 24.0001 0.0165484 24.0001C0.0123198 24 0.00882037 24 0.00605631 24C0.00467428 24 0.00347606 24 0.00246243 24C0.00195584 24 0.00133373 24 0.00108051 24C0.000505305 24 -2.399e-05 24 0 25C2.399e-05 26 -0.000413303 26 -0.000804689 26C-0.000874101 26 -0.00122058 26 -0.00135992 26C-0.00163906 26 -0.00173628 26 -0.00165235 26C-0.00148447 26 -0.000592023 26 0.00101897 26C0.00424104 26 0.0103368 26.0001 0.0192582 26.0002C0.0371015 26.0005 0.0662432 26.0011 0.106298 26.0024C0.186413 26.005 0.310149 26.0102 0.474428 26.0211C0.803027 26.0428 1.29354 26.0869 1.92139 26.1763C3.17733 26.355 4.98082 26.7148 7.13609 27.4383C11.4431 28.8841 17.1621 31.7846 22.7352 37.6139L23.458 36.9229ZM0 25C1.77506e-06 26 0.000564881 26 0.00117062 26C0.00142964 26 0.00207895 26 0.00259714 26C0.00363395 26 0.00484223 26 0.00622139 26C0.0089797 26 0.0124215 26 0.016542 25.9999C0.0247829 25.9999 0.0357386 25.9997 0.0493701 25.9995C0.0766327 25.999 0.114601 25.9982 0.162961 25.9965C0.259679 25.9932 0.397985 25.9867 0.575375 25.9742C0.930133 25.9492 1.44136 25.8999 2.08897 25.8026C3.38417 25.6081 5.22548 25.2219 7.45168 24.4551C11.9078 22.9202 17.8921 19.8648 24.1153 13.7929L23.417 13.0771L22.7186 12.3614C16.7219 18.2123 10.9977 21.1184 6.80034 22.5642C4.69979 23.2877 2.97809 23.6467 1.79198 23.8248C1.19893 23.9138 0.739918 23.9576 0.434605 23.9792C0.281958 23.99 0.16777 23.9952 0.0945016 23.9977C0.0578691 23.9989 0.0314714 23.9995 0.0156165 23.9998C0.00768931 23.9999 0.00239839 24 -0.00021771 24C-0.00152573 24 -0.00216497 24 -0.00213062 24C-0.00211343 24 -0.00192784 24 -0.00157324 24C-0.00139614 24 -0.00100281 24 -0.000914496 24C-0.000479454 24 -1.77506e-06 24 0 25ZM23.417 13.0771L24.1205 13.7878L25.2865 12.6335L24.583 11.9229L23.8795 11.2122L22.7135 12.3665L23.417 13.0771ZM24.583 11.9229L25.2814 12.6386C31.2781 6.78768 37.0023 3.88163 41.1997 2.43585C43.3002 1.71231 45.0219 1.35332 46.208 1.17521C46.8011 1.08616 47.2601 1.04235 47.5654 1.02081C47.718 1.01004 47.8322 1.00483 47.9055 1.00233C47.9421 1.00107 47.9685 1.00049 47.9844 1.00022C47.9923 1.00009 47.9976 1.00003 48.0002 1.00001C48.0015 0.999999 48.0022 0.999997 48.0021 0.999997C48.0021 0.999997 48.0019 0.999998 48.0016 0.999999C48.0014 0.999999 48.001 0.999999 48.0009 1C48.0005 1 48 1 48 0C48 -1 47.9994 -1 47.9988 -0.999999C47.9986 -0.999999 47.9979 -0.999998 47.9974 -0.999997C47.9964 -0.999995 47.9952 -0.999991 47.9938 -0.999986C47.991 -0.999974 47.9876 -0.999954 47.9835 -0.999919C47.9752 -0.99985 47.9643 -0.999724 47.9506 -0.999494C47.9234 -0.999034 47.8854 -0.998159 47.837 -0.996503C47.7403 -0.99319 47.602 -0.986749 47.4246 -0.974232C47.0699 -0.949201 46.5586 -0.89986 45.911 -0.802616C44.6158 -0.60813 42.7745 -0.221941 40.5483 0.544882C36.0922 2.07981 30.1079 5.13519 23.8847 11.2071L24.583 11.9229Z" fill="white" style="mix-blend-mode:overlay" mask="url(#path-1-inside-1_1362_1629)"/>
<defs>
<filter id="filter0_ii_1362_1629" x="0" y="-1" width="48" height="52" filterUnits="userSpaceOnUse" color-interpolation-filters="sRGB">
<feFlood flood-opacity="0" result="BackgroundImageFix"/>
<feBlend mode="normal" in="SourceGraphic" in2="BackgroundImageFix" result="shape"/>
<feColorMatrix in="SourceAlpha" type="matrix" values="0 0 0 0 0 0 0 0 0 0 0 0 0 0 0 0 0 0 127 0" result="hardAlpha"/>
<feOffset dy="2"/>
<feGaussianBlur stdDeviation="0.5"/>
<feComposite in2="hardAlpha" operator="arithmetic" k2="-1" k3="1"/>
<feColorMatrix type="matrix" values="0 0 0 0 1 0 0 0 0 1 0 0 0 0 1 0 0 0 1 0"/>
<feBlend mode="normal" in2="shape" result="effect1_innerShadow_1362_1629"/>
<feColorMatrix in="SourceAlpha" type="matrix" values="0 0 0 0 0 0 0 0 0 0 0 0 0 0 0 0 0 0 127 0" result="hardAlpha"/>
<feOffset dy="-2"/>
<feGaussianBlur stdDeviation="0.5"/>
<feComposite in2="hardAlpha" operator="arithmetic" k2="-1" k3="1"/>
<feColorMatrix type="matrix" values="0 0 0 0 0 0 0 0 0 0 0 0 0 0 0 0 0 0 0.7 0"/>
<feBlend mode="normal" in2="effect1_innerShadow_1362_1629" result="effect2_innerShadow_1362_1629"/>
</filter>
<linearGradient id="paint0_linear_1362_1629" x1="23.447" y1="52.5458" x2="42.4146" y2="-8.02108" gradientUnits="userSpaceOnUse">
<stop offset="0.0625" stop-color="white"/>
<stop offset="0.182692" stop-color="#6E6E6E"/>
<stop offset="0.293269" stop-color="white"/>
<stop offset="0.360577" stop-color="#767676"/>
<stop offset="0.418269" stop-color="white"/>
<stop offset="0.504808" stop-color="#5C5C5C"/>
<stop offset="0.677885" stop-color="white"/>
</linearGradient>
</defs>
</svg>
