<svg width="104" height="86" viewBox="0 0 104 86" fill="none" xmlns="http://www.w3.org/2000/svg">
<rect x="18.2761" y="43" width="59.8112" height="59.8112" transform="rotate(-45 18.2761 43)" fill="url(#paint0_linear_818_858)" stroke="url(#paint1_linear_818_858)"/>
<path d="M41.1548 43L62.8618 64.707L64.2759 63.293L43.9829 43L64.2759 22.707L62.8618 21.293L41.1548 43ZM47.1548 43L55.8618 51.707L57.2759 50.293L50.9829 44H77.5688V42H50.9829L57.2759 35.707L55.8618 34.293L47.1548 43Z" fill="url(#paint2_radial_818_858)"/>
<g filter="url(#filter0_d_818_858)">
<rect x="19" y="42.8989" width="6.12843" height="6.12844" transform="rotate(-45 19 42.8989)" fill="#E11036"/>
</g>
<defs>
<filter id="filter0_d_818_858" x="0" y="19.5654" width="46.6669" height="46.667" filterUnits="userSpaceOnUse" color-interpolation-filters="sRGB">
<feFlood flood-opacity="0" result="BackgroundImageFix"/>
<feColorMatrix in="SourceAlpha" type="matrix" values="0 0 0 0 0 0 0 0 0 0 0 0 0 0 0 0 0 0 127 0" result="hardAlpha"/>
<feMorphology radius="3" operator="dilate" in="SourceAlpha" result="effect1_dropShadow_818_858"/>
<feOffset/>
<feGaussianBlur stdDeviation="8"/>
<feComposite in2="hardAlpha" operator="out"/>
<feColorMatrix type="matrix" values="0 0 0 0 0.882353 0 0 0 0 0.0627451 0 0 0 0 0.211765 0 0 0 1 0"/>
<feBlend mode="normal" in2="BackgroundImageFix" result="effect1_dropShadow_818_858"/>
<feBlend mode="normal" in="SourceGraphic" in2="effect1_dropShadow_818_858" result="shape"/>
</filter>
<linearGradient id="paint0_linear_818_858" x1="17.6113" y1="42.9577" x2="62.2548" y2="87.4579" gradientUnits="userSpaceOnUse">
<stop stop-color="#E11036" stop-opacity="0.4"/>
<stop offset="1" stop-color="#E11036" stop-opacity="0"/>
</linearGradient>
<linearGradient id="paint1_linear_818_858" x1="17.6113" y1="42.9577" x2="67.8804" y2="93.0835" gradientUnits="userSpaceOnUse">
<stop stop-color="#E11036"/>
<stop offset="1" stop-color="#E11036" stop-opacity="0"/>
</linearGradient>
<radialGradient id="paint2_radial_818_858" cx="0" cy="0" r="1" gradientUnits="userSpaceOnUse" gradientTransform="translate(35.5688 42.9097) rotate(0.123218) scale(42.0001 25.4056)">
<stop stop-color="white"/>
<stop offset="1" stop-color="white" stop-opacity="0"/>
</radialGradient>
</defs>
</svg>
