<svg width="139" height="139" viewBox="0 0 139 139" fill="none" xmlns="http://www.w3.org/2000/svg">
<mask id="mask0_985_228" style="mask-type:alpha" maskUnits="userSpaceOnUse" x="5" y="5" width="128" height="128">
<rect x="69.2965" width="98" height="98" rx="14" transform="rotate(45 69.2965 0)" fill="url(#paint0_linear_985_228)"/>
</mask>
<g mask="url(#mask0_985_228)">
<g filter="url(#filter0_i_985_228)">
<rect x="69.2965" width="98" height="98" rx="16" transform="rotate(45 69.2965 0)" fill="url(#paint1_linear_985_228)"/>
</g>
<g filter="url(#filter1_f_985_228)">
<path d="M60.4463 11.5812C63.5704 8.45698 68.6358 8.45698 71.76 11.5812L126.67 66.4917C129.795 69.6159 129.795 74.6812 126.67 77.8054L119.955 84.5212C113.7 90.7759 104.186 92.4643 96.4553 88.1657C87.5657 83.2227 76.1811 76.1808 69.126 69.1257C62.0708 62.0706 55.0289 50.686 50.086 41.7963C45.7873 34.0655 47.4757 24.5517 53.7305 18.297L60.4463 11.5812Z" fill="url(#paint2_radial_985_228)" style="mix-blend-mode:overlay"/>
</g>
<g filter="url(#filter2_f_985_228)">
<ellipse cx="39.2072" cy="99.3858" rx="33.5517" ry="32.2368" transform="rotate(45 39.2072 99.3858)" fill="url(#paint3_radial_985_228)"/>
</g>
<g filter="url(#filter3_f_985_228)">
<ellipse cx="36.0156" cy="102.577" rx="49" ry="4.51316" transform="rotate(45 36.0156 102.577)" fill="url(#paint4_radial_985_228)"/>
</g>
<g filter="url(#filter4_f_985_228)">
<path d="M142 80.9098C133.691 89.2187 115.375 69.7852 92.0915 46.5019C68.8082 23.2185 49.3746 4.90231 57.6835 -3.40661C65.9925 -11.7155 98.8974 -6.87074 122.181 16.4126C145.464 39.6959 150.309 72.6009 142 80.9098Z" fill="url(#paint5_radial_985_228)"/>
</g>
<g filter="url(#filter5_f_985_228)">
<rect x="8.52157" y="65.0527" width="93.1605" height="2.57895" transform="rotate(45 8.52157 65.0527)" fill="#8C0404"/>
</g>
<g filter="url(#filter6_f_985_228)">
<ellipse cx="99.8417" cy="38.7513" rx="49" ry="19.9868" transform="rotate(45 99.8417 38.7513)" fill="url(#paint6_radial_985_228)"/>
</g>
<g filter="url(#filter7_f_985_228)">
<rect x="65.9649" y="7.60938" width="91.9506" height="2.57895" transform="rotate(45 65.9649 7.60938)" fill="white"/>
</g>
<g filter="url(#filter8_d_985_228)">
<path d="M60.4132 23.833C61.1941 23.0522 62.4603 23.0522 63.2413 23.833L107.631 68.2227C108.412 69.0037 108.412 70.2697 107.631 71.0508L63.2413 115.44C62.4602 116.221 61.1942 116.221 60.4132 115.44C59.6325 114.659 59.6322 113.393 60.4132 112.612L103.389 69.6367L60.4132 26.6611C59.6324 25.8801 59.6322 24.614 60.4132 23.833ZM75.21 51.3125C75.9911 50.5315 77.2571 50.5315 78.0382 51.3125L94.9483 68.2227C95.729 69.0037 95.7292 70.2698 94.9483 71.0508L78.0382 87.9619C77.2573 88.7425 75.991 88.7423 75.21 87.9619C74.429 87.1809 74.429 85.9139 75.21 85.1328L88.7061 71.6367L32.2345 71.6367C31.1301 71.6366 30.2346 70.7411 30.2345 69.6367C30.2345 68.5322 31.13 67.6368 32.2345 67.6367L88.7061 67.6367L75.21 54.1406C74.429 53.3596 74.429 52.0935 75.21 51.3125Z" fill="url(#paint7_radial_985_228)" shape-rendering="crispEdges"/>
</g>
</g>
<defs>
<filter id="filter0_i_985_228" x="6.62752" y="6.62744" width="125.338" height="125.338" filterUnits="userSpaceOnUse" color-interpolation-filters="sRGB">
<feFlood flood-opacity="0" result="BackgroundImageFix"/>
<feBlend mode="normal" in="SourceGraphic" in2="BackgroundImageFix" result="shape"/>
<feColorMatrix in="SourceAlpha" type="matrix" values="0 0 0 0 0 0 0 0 0 0 0 0 0 0 0 0 0 0 127 0" result="hardAlpha"/>
<feOffset/>
<feGaussianBlur stdDeviation="3.5"/>
<feComposite in2="hardAlpha" operator="arithmetic" k2="-1" k3="1"/>
<feColorMatrix type="matrix" values="0 0 0 0 0.882353 0 0 0 0 0.0627451 0 0 0 0 0.211765 0 0 0 1 0"/>
<feBlend mode="normal" in2="shape" result="effect1_innerShadow_985_228"/>
</filter>
<filter id="filter1_f_985_228" x="35.7008" y="-2.76221" width="105.313" height="105.313" filterUnits="userSpaceOnUse" color-interpolation-filters="sRGB">
<feFlood flood-opacity="0" result="BackgroundImageFix"/>
<feBlend mode="normal" in="SourceGraphic" in2="BackgroundImageFix" result="shape"/>
<feGaussianBlur stdDeviation="6" result="effect1_foregroundBlur_985_228"/>
</filter>
<filter id="filter2_f_985_228" x="-18.6938" y="41.4849" width="115.802" height="115.802" filterUnits="userSpaceOnUse" color-interpolation-filters="sRGB">
<feFlood flood-opacity="0" result="BackgroundImageFix"/>
<feBlend mode="normal" in="SourceGraphic" in2="BackgroundImageFix" result="shape"/>
<feGaussianBlur stdDeviation="12.5" result="effect1_foregroundBlur_985_228"/>
</filter>
<filter id="filter3_f_985_228" x="-8.78166" y="57.7803" width="89.5942" height="89.5942" filterUnits="userSpaceOnUse" color-interpolation-filters="sRGB">
<feFlood flood-opacity="0" result="BackgroundImageFix"/>
<feBlend mode="normal" in="SourceGraphic" in2="BackgroundImageFix" result="shape"/>
<feGaussianBlur stdDeviation="5" result="effect1_foregroundBlur_985_228"/>
</filter>
<filter id="filter4_f_985_228" x="45.7281" y="-17.1904" width="110.056" height="110.056" filterUnits="userSpaceOnUse" color-interpolation-filters="sRGB">
<feFlood flood-opacity="0" result="BackgroundImageFix"/>
<feBlend mode="normal" in="SourceGraphic" in2="BackgroundImageFix" result="shape"/>
<feGaussianBlur stdDeviation="5" result="effect1_foregroundBlur_985_228"/>
</filter>
<filter id="filter5_f_985_228" x="1.69784" y="60.0527" width="77.6982" height="77.6982" filterUnits="userSpaceOnUse" color-interpolation-filters="sRGB">
<feFlood flood-opacity="0" result="BackgroundImageFix"/>
<feBlend mode="normal" in="SourceGraphic" in2="BackgroundImageFix" result="shape"/>
<feGaussianBlur stdDeviation="2.5" result="effect1_foregroundBlur_985_228"/>
</filter>
<filter id="filter6_f_985_228" x="34.4122" y="-26.6782" width="130.859" height="130.859" filterUnits="userSpaceOnUse" color-interpolation-filters="sRGB">
<feFlood flood-opacity="0" result="BackgroundImageFix"/>
<feBlend mode="normal" in="SourceGraphic" in2="BackgroundImageFix" result="shape"/>
<feGaussianBlur stdDeviation="14" result="effect1_foregroundBlur_985_228"/>
</filter>
<filter id="filter7_f_985_228" x="59.1412" y="2.60938" width="76.8428" height="76.8423" filterUnits="userSpaceOnUse" color-interpolation-filters="sRGB">
<feFlood flood-opacity="0" result="BackgroundImageFix"/>
<feBlend mode="normal" in="SourceGraphic" in2="BackgroundImageFix" result="shape"/>
<feGaussianBlur stdDeviation="2.5" result="effect1_foregroundBlur_985_228"/>
</filter>
<filter id="filter8_d_985_228" x="21.2345" y="18.2476" width="95.9824" height="110.779" filterUnits="userSpaceOnUse" color-interpolation-filters="sRGB">
<feFlood flood-opacity="0" result="BackgroundImageFix"/>
<feColorMatrix in="SourceAlpha" type="matrix" values="0 0 0 0 0 0 0 0 0 0 0 0 0 0 0 0 0 0 127 0" result="hardAlpha"/>
<feOffset dy="4"/>
<feGaussianBlur stdDeviation="4.5"/>
<feComposite in2="hardAlpha" operator="out"/>
<feColorMatrix type="matrix" values="0 0 0 0 0.324838 0 0 0 0 0.0110114 0 0 0 0 0.0423941 0 0 0 0.45 0"/>
<feBlend mode="normal" in2="BackgroundImageFix" result="effect1_dropShadow_985_228"/>
<feBlend mode="normal" in="SourceGraphic" in2="effect1_dropShadow_985_228" result="shape"/>
</filter>
<linearGradient id="paint0_linear_985_228" x1="118.296" y1="0" x2="118.296" y2="98" gradientUnits="userSpaceOnUse">
<stop stop-color="#4E000E"/>
<stop offset="1" stop-color="#E11036"/>
</linearGradient>
<linearGradient id="paint1_linear_985_228" x1="118.296" y1="0" x2="118.296" y2="98" gradientUnits="userSpaceOnUse">
<stop stop-color="#890019"/>
<stop offset="0.980769" stop-color="#43000C"/>
</linearGradient>
<radialGradient id="paint2_radial_985_228" cx="0" cy="0" r="1" gradientUnits="userSpaceOnUse" gradientTransform="translate(84.1706 54.081) rotate(45) scale(46.8276 21.2763)">
<stop stop-color="#FF3E3E"/>
<stop offset="1" stop-color="#AF0221"/>
</radialGradient>
<radialGradient id="paint3_radial_985_228" cx="0" cy="0" r="1" gradientUnits="userSpaceOnUse" gradientTransform="translate(39.2072 99.3858) rotate(90) scale(32.2368 33.5517)">
<stop offset="0.264423" stop-color="#FFA749"/>
<stop offset="0.730769" stop-color="#C80024"/>
</radialGradient>
<radialGradient id="paint4_radial_985_228" cx="0" cy="0" r="1" gradientUnits="userSpaceOnUse" gradientTransform="translate(36.0156 102.577) rotate(90) scale(4.51316 49)">
<stop stop-color="#FFF6DE"/>
<stop offset="1" stop-color="#FFA749"/>
</radialGradient>
<radialGradient id="paint5_radial_985_228" cx="0" cy="0" r="1" gradientUnits="userSpaceOnUse" gradientTransform="translate(107.136 31.4572) rotate(135) scale(21.2763 59.6207)">
<stop stop-color="#FFA749"/>
<stop offset="1" stop-color="#E11036"/>
</radialGradient>
<radialGradient id="paint6_radial_985_228" cx="0" cy="0" r="1" gradientUnits="userSpaceOnUse" gradientTransform="translate(99.8417 38.7513) rotate(90) scale(19.9868 49)">
<stop stop-color="#FFF6DE"/>
<stop offset="1" stop-color="#FFA749"/>
</radialGradient>
<radialGradient id="paint7_radial_985_228" cx="0" cy="0" r="1" gradientTransform="matrix(-87.8443 0.18924 -0.114273 -53.2278 120.079 69.448)" gradientUnits="userSpaceOnUse">
<stop stop-color="white"/>
<stop offset="1" stop-color="white" stop-opacity="0"/>
</radialGradient>
</defs>
</svg>
