<svg width="48" height="50" viewBox="0 0 48 50" fill="none" xmlns="http://www.w3.org/2000/svg">
<mask id="path-1-inside-1_1362_1630" fill="white">
<path d="M0 0C0.0473641 0.000150509 6.87286 0.0435791 14.2217 12.5C21.5962 25 28.4443 25 28.4443 25C28.4443 25 21.298 24.9998 14.543 36.9229L13.9004 38.0771C7.16839 49.9594 0.0483812 49.9999 0 50C0 50 12.0589 50.0003 23.458 38.0771L24.542 36.9229C35.9411 24.9997 48 25 48 25C48 25 36.803 25 24.583 13.0771L23.417 11.9229C11.197 1.98485e-05 0 0 0 0Z"/>
</mask>
<g filter="url(#filter0_ii_1362_1630)">
<path d="M0 0C0.0473641 0.000150509 6.87286 0.0435791 14.2217 12.5C21.5962 25 28.4443 25 28.4443 25C28.4443 25 21.298 24.9998 14.543 36.9229L13.9004 38.0771C7.16839 49.9594 0.0483812 49.9999 0 50C0 50 12.0589 50.0003 23.458 38.0771L24.542 36.9229C35.9411 24.9997 48 25 48 25C48 25 36.803 25 24.583 13.0771L23.417 11.9229C11.197 1.98485e-05 0 0 0 0Z" fill="url(#paint0_linear_1362_1630)"/>
<path d="M0 0C0.0473641 0.000150509 6.87286 0.0435791 14.2217 12.5C21.5962 25 28.4443 25 28.4443 25C28.4443 25 21.298 24.9998 14.543 36.9229L13.9004 38.0771C7.16839 49.9594 0.0483812 49.9999 0 50C0 50 12.0589 50.0003 23.458 38.0771L24.542 36.9229C35.9411 24.9997 48 25 48 25C48 25 36.803 25 24.583 13.0771L23.417 11.9229C11.197 1.98485e-05 0 0 0 0Z" fill="black" fill-opacity="0.32"/>
</g>
<path d="M0 0L-0.00317764 0.999995C-0.55484 0.998242 -1.00088 0.550074 -1 -0.00158973C-0.999123 -0.553254 -0.551662 -1 0 -1V0ZM14.2217 12.5L15.083 11.9919L15.083 11.9919L14.2217 12.5ZM28.4443 25L28.4444 24C28.9966 24 29.4443 24.4477 29.4443 25C29.4443 25.5523 28.9966 26 28.4443 26V25ZM14.543 36.9229L13.6692 36.4364L13.6729 36.4299L14.543 36.9229ZM13.9004 38.0771L14.7742 38.5636L14.7705 38.5701L13.9004 38.0771ZM0 50L-2.28882e-05 51C-0.55175 51 -0.999222 50.5531 -1 50.0014C-1.00078 49.4497 -0.554565 49.0016 -0.00284576 49L0 50ZM23.458 38.0771L24.187 38.7617L24.1808 38.7682L23.458 38.0771ZM24.542 36.9229L23.813 36.2383L23.8192 36.2318L24.542 36.9229ZM48 25L48 24C48.5523 24 49 24.4477 49 25C49 25.5523 48.5523 26 48 26L48 25ZM24.583 13.0771L23.8846 13.7929L23.8795 13.7878L24.583 13.0771ZM23.417 11.9229L24.1154 11.2071L24.1205 11.2122L23.417 11.9229ZM0 0L0.00317764 -0.999995C0.428951 -0.998642 7.56831 -0.745635 15.083 11.9919L14.2217 12.5L13.3604 13.0081C6.17741 0.832793 -0.334221 0.998943 -0.00317764 0.999995L0 0ZM14.2217 12.5L15.083 11.9919C18.7005 18.1237 22.1442 21.1154 24.6087 22.5775C25.8426 23.3095 26.8411 23.6642 27.5088 23.8364C27.8432 23.9226 28.0962 23.9635 28.2559 23.9828C28.3357 23.9925 28.3924 23.9968 28.4243 23.9987C28.4402 23.9996 28.45 23.9999 28.4534 24C28.4551 24.0001 28.4552 24.0001 28.4537 24.0001C28.453 24 28.4518 24 28.4502 24C28.4495 24 28.4486 24 28.4476 24C28.4471 24 28.4463 24 28.446 24C28.4452 24 28.4443 24 28.4443 25C28.4443 26 28.4434 26 28.4425 26C28.4421 26 28.4412 26 28.4405 26C28.4391 26 28.4375 26 28.4359 26C28.4327 25.9999 28.4291 25.9999 28.425 25.9998C28.4168 25.9997 28.407 25.9995 28.3955 25.9992C28.3726 25.9985 28.343 25.9973 28.307 25.9952C28.235 25.991 28.1373 25.9831 28.0155 25.9683C27.7718 25.9388 27.4322 25.8821 27.0093 25.773C26.1626 25.5546 24.9882 25.128 23.5882 24.2975C20.785 22.6346 17.1174 19.3763 13.3604 13.0081L14.2217 12.5ZM28.4443 25C28.4443 26 28.4451 26 28.4459 26C28.4461 26 28.4468 26 28.4472 26C28.4481 26 28.4489 26 28.4495 26C28.4509 26 28.4518 26 28.4522 26C28.4532 25.9999 28.4525 26 28.4501 26C28.4453 26.0001 28.434 26.0005 28.4162 26.0015C28.3807 26.0034 28.3197 26.0076 28.235 26.0171C28.0655 26.036 27.801 26.0757 27.4557 26.1586C26.766 26.3243 25.7495 26.6637 24.5197 27.3604C22.0664 28.7501 18.7134 31.5904 15.413 37.4158L14.543 36.9229L13.6729 36.4299C17.1275 30.3322 20.7253 27.2111 23.5339 25.6202C24.935 24.8265 26.1273 24.4208 26.9886 24.2139C27.4188 24.1106 27.7654 24.0571 28.0132 24.0294C28.137 24.0156 28.2361 24.0083 28.3086 24.0044C28.3449 24.0024 28.3745 24.0013 28.3972 24.0007C28.4085 24.0004 28.4181 24.0002 28.426 24.0001C28.43 24.0001 28.4335 24 28.4365 24C28.438 24 28.4395 24 28.4408 24C28.4414 24 28.4423 24 28.4427 24C28.4435 24 28.4444 24 28.4443 25ZM14.543 36.9229L15.4167 37.4092L14.7741 38.5635L13.9004 38.0771L13.0267 37.5908L13.6692 36.4365L14.543 36.9229ZM13.9004 38.0771L14.7705 38.5701C7.85262 50.7803 0.392197 50.9989 0.00284576 51L0 50L-0.00284576 49C-0.295433 49.0008 6.48415 49.1385 13.0303 37.5842L13.9004 38.0771ZM0 50C2.28882e-05 49 -0.000411987 49 -0.000804901 49C-0.000873566 49 -0.0012207 49 -0.00135803 49C-0.00164032 49 -0.00173569 49 -0.00165176 49C-0.00148392 49 -0.000591278 49 0.00101852 49C0.00424194 49 0.0103378 48.9999 0.0192566 48.9998C0.0371017 48.9995 0.0662422 48.9989 0.106297 48.9976C0.186413 48.995 0.31015 48.9898 0.474426 48.9789C0.803028 48.9572 1.29354 48.9131 1.92139 48.8237C3.17733 48.645 4.98082 48.2852 7.13609 47.5617C11.4431 46.1159 17.1621 43.2154 22.7352 37.3861L23.458 38.0771L24.1808 38.7682C18.3548 44.862 12.3448 47.9229 7.77256 49.4578C5.48823 50.2246 3.56455 50.61 2.20323 50.8038C1.52245 50.9007 0.981808 50.9497 0.606411 50.9745C0.41869 50.987 0.272217 50.9933 0.17012 50.9966C0.119072 50.9982 0.0791092 50.9991 0.0506248 50.9995C0.0363808 50.9997 0.0250053 50.9999 0.0165482 50.9999C0.0123215 51 0.00881958 51 0.00605774 51C0.004673 51 0.00347519 51 0.00246429 51C0.00195694 51 0.00133514 51 0.00107956 51C0.00050354 51 -2.28882e-05 51 0 50ZM23.458 38.0771L22.729 37.3926L23.813 36.2383L24.542 36.9229L25.271 37.6074L24.187 38.7617L23.458 38.0771ZM24.542 36.9229L23.8192 36.2318C29.6452 30.138 35.6552 27.0771 40.2274 25.5422C42.5118 24.7754 44.4354 24.39 45.7968 24.1962C46.4776 24.0993 47.0182 24.0503 47.3936 24.0255C47.5813 24.013 47.7278 24.0067 47.8299 24.0034C47.8809 24.0018 47.9209 24.0009 47.9494 24.0005C47.9636 24.0003 47.975 24.0001 47.9835 24.0001C47.9877 24 47.9912 24 47.9939 24C47.9953 24 47.9965 24 47.9975 24C47.998 24 47.9987 24 47.9989 24C47.9995 24 48 24 48 25C48 26 48.0004 26 48.0008 26C48.0009 26 48.0012 26 48.0014 26C48.0016 26 48.0017 26 48.0017 26C48.0015 26 48.0006 26 47.999 26C47.9958 26 47.9897 26.0001 47.9807 26.0002C47.9629 26.0005 47.9338 26.0011 47.8937 26.0024C47.8136 26.005 47.6899 26.0102 47.5256 26.0211C47.197 26.0428 46.7065 26.0869 46.0786 26.1763C44.8227 26.355 43.0192 26.7148 40.8639 27.4383C36.5569 28.8841 30.8379 31.7846 25.2648 37.6139L24.542 36.9229ZM48 25C48 26 47.9994 26 47.9988 26C47.9986 26 47.9979 26 47.9974 26C47.9964 26 47.9952 26 47.9938 26C47.991 26 47.9876 26 47.9835 25.9999C47.9752 25.9999 47.9643 25.9997 47.9506 25.9995C47.9234 25.999 47.8854 25.9982 47.837 25.9965C47.7403 25.9932 47.602 25.9867 47.4246 25.9742C47.0699 25.9492 46.5586 25.8999 45.911 25.8026C44.6158 25.6081 42.7745 25.2219 40.5483 24.4551C36.0922 22.9202 30.1079 19.8648 23.8847 13.7929L24.583 13.0771L25.2814 12.3614C31.2781 18.2123 37.0023 21.1184 41.1997 22.5642C43.3002 23.2877 45.0219 23.6467 46.208 23.8248C46.8011 23.9138 47.2601 23.9576 47.5654 23.9792C47.718 23.99 47.8322 23.9952 47.9055 23.9977C47.9421 23.9989 47.9685 23.9995 47.9844 23.9998C47.9923 23.9999 47.9976 24 48.0002 24C48.0015 24 48.0022 24 48.0021 24C48.0021 24 48.0019 24 48.0016 24C48.0014 24 48.001 24 48.0009 24C48.0005 24 48 24 48 25ZM24.583 13.0771L23.8795 13.7878L22.7135 12.6335L23.417 11.9229L24.1205 11.2122L25.2865 12.3665L24.583 13.0771ZM23.417 11.9229L22.7186 12.6386C16.7219 6.78768 10.9977 3.88163 6.80034 2.43585C4.69979 1.71231 2.97809 1.35332 1.79198 1.17521C1.19893 1.08616 0.739918 1.04235 0.434605 1.02081C0.28196 1.01004 0.16777 1.00483 0.0945015 1.00233C0.057869 1.00107 0.0314713 1.00049 0.0156174 1.00022C0.00769043 1.00009 0.00239944 1.00003 -0.000217438 1.00001C-0.00152588 0.999999 -0.00216675 0.999997 -0.00213242 0.999997C-0.00211334 0.999997 -0.00192642 0.999998 -0.00157166 0.999999C-0.00139618 0.999999 -0.00100327 0.999999 -0.000915527 1C-0.000480652 1 0 1 0 0C0 -1 0.000564575 -1 0.00117111 -0.999999C0.00143051 -0.999999 0.00207901 -0.999998 0.00259781 -0.999997C0.00363541 -0.999995 0.00484085 -0.999991 0.00622177 -0.999986C0.0089798 -0.999974 0.0124207 -0.999954 0.0165405 -0.999919C0.0247841 -0.99985 0.0357399 -0.999724 0.0493698 -0.999494C0.0766335 -0.999034 0.114601 -0.998159 0.16296 -0.996503C0.259678 -0.99319 0.397984 -0.986749 0.575375 -0.974232C0.930134 -0.949201 1.44136 -0.89986 2.08897 -0.802616C3.38417 -0.60813 5.22548 -0.221941 7.45168 0.544882C11.9078 2.07981 17.8921 5.13519 24.1153 11.2071L23.417 11.9229Z" fill="white" style="mix-blend-mode:overlay" mask="url(#path-1-inside-1_1362_1630)"/>
<defs>
<filter id="filter0_ii_1362_1630" x="0" y="-1" width="48" height="52" filterUnits="userSpaceOnUse" color-interpolation-filters="sRGB">
<feFlood flood-opacity="0" result="BackgroundImageFix"/>
<feBlend mode="normal" in="SourceGraphic" in2="BackgroundImageFix" result="shape"/>
<feColorMatrix in="SourceAlpha" type="matrix" values="0 0 0 0 0 0 0 0 0 0 0 0 0 0 0 0 0 0 127 0" result="hardAlpha"/>
<feOffset dy="2"/>
<feGaussianBlur stdDeviation="0.5"/>
<feComposite in2="hardAlpha" operator="arithmetic" k2="-1" k3="1"/>
<feColorMatrix type="matrix" values="0 0 0 0 1 0 0 0 0 1 0 0 0 0 1 0 0 0 1 0"/>
<feBlend mode="normal" in2="shape" result="effect1_innerShadow_1362_1630"/>
<feColorMatrix in="SourceAlpha" type="matrix" values="0 0 0 0 0 0 0 0 0 0 0 0 0 0 0 0 0 0 127 0" result="hardAlpha"/>
<feOffset dy="-2"/>
<feGaussianBlur stdDeviation="0.5"/>
<feComposite in2="hardAlpha" operator="arithmetic" k2="-1" k3="1"/>
<feColorMatrix type="matrix" values="0 0 0 0 0 0 0 0 0 0 0 0 0 0 0 0 0 0 0.7 0"/>
<feBlend mode="normal" in2="effect1_innerShadow_1362_1630" result="effect2_innerShadow_1362_1630"/>
</filter>
<linearGradient id="paint0_linear_1362_1630" x1="24.553" y1="52.5458" x2="5.58542" y2="-8.02108" gradientUnits="userSpaceOnUse">
<stop offset="0.0625" stop-color="white"/>
<stop offset="0.182692" stop-color="#6E6E6E"/>
<stop offset="0.293269" stop-color="white"/>
<stop offset="0.360577" stop-color="#767676"/>
<stop offset="0.418269" stop-color="white"/>
<stop offset="0.504808" stop-color="#5C5C5C"/>
<stop offset="0.677885" stop-color="white"/>
</linearGradient>
</defs>
</svg>
