<svg width="79" height="59" viewBox="0 0 79 59" fill="none" xmlns="http://www.w3.org/2000/svg">
<rect x="-0.711966" width="41.01" height="41.01" transform="matrix(-0.711966 -0.702213 -0.711966 0.702213 58.6011 29)" fill="url(#paint0_radial_1017_1155)"/>
<rect x="-0.711966" width="41.01" height="41.01" transform="matrix(-0.711966 -0.702213 -0.711966 0.702213 58.6011 29)" fill="url(#paint1_linear_1017_1155)"/>
<rect x="-0.711966" width="41.01" height="41.01" transform="matrix(-0.711966 -0.702213 -0.711966 0.702213 58.6011 29)" stroke="url(#paint2_linear_1017_1155)"/>
<path d="M43.2633 29.5005L28.149 44.6147L27.442 43.9067L26.735 43.1997L40.4342 29.4995L26.735 15.8003L28.149 14.3862L43.2633 29.5005ZM39.1471 29.5005L32.9518 35.6958L31.5377 34.2817L35.319 30.5005H17.8375V28.5005H35.319L31.5377 24.7192L32.9518 23.3052L39.1471 29.5005Z" fill="url(#paint3_radial_1017_1155)"/>
<g filter="url(#filter0_d_1017_1155)">
<rect width="4.20439" height="4.2044" transform="matrix(-0.707107 -0.707107 -0.707107 0.707107 59.9459 29.473)" fill="#E11036"/>
</g>
<defs>
<filter id="filter0_d_1017_1155" x="34.9996" y="7.50012" width="43.9463" height="43.9458" filterUnits="userSpaceOnUse" color-interpolation-filters="sRGB">
<feFlood flood-opacity="0" result="BackgroundImageFix"/>
<feColorMatrix in="SourceAlpha" type="matrix" values="0 0 0 0 0 0 0 0 0 0 0 0 0 0 0 0 0 0 127 0" result="hardAlpha"/>
<feMorphology radius="3" operator="dilate" in="SourceAlpha" result="effect1_dropShadow_1017_1155"/>
<feOffset/>
<feGaussianBlur stdDeviation="8"/>
<feComposite in2="hardAlpha" operator="out"/>
<feColorMatrix type="matrix" values="0 0 0 0 0.882353 0 0 0 0 0.0627451 0 0 0 0 0.211765 0 0 0 1 0"/>
<feBlend mode="normal" in2="BackgroundImageFix" result="effect1_dropShadow_1017_1155"/>
<feBlend mode="normal" in="SourceGraphic" in2="effect1_dropShadow_1017_1155" result="shape"/>
</filter>
<radialGradient id="paint0_radial_1017_1155" cx="0" cy="0" r="1" gradientUnits="userSpaceOnUse" gradientTransform="translate(21.005 21.005) rotate(-172.439) scale(40.5828)">
<stop offset="0.235577" stop-color="#E11036" stop-opacity="0"/>
<stop offset="1" stop-color="#E11036" stop-opacity="0.4"/>
</radialGradient>
<linearGradient id="paint1_linear_1017_1155" x1="0.0292385" y1="-0.0292385" x2="30.8702" y2="30.7127" gradientUnits="userSpaceOnUse">
<stop stop-color="#E11036" stop-opacity="0.4"/>
<stop offset="1" stop-color="#E11036" stop-opacity="0"/>
</linearGradient>
<linearGradient id="paint2_linear_1017_1155" x1="0.029239" y1="-0.0292395" x2="34.7565" y2="34.599" gradientUnits="userSpaceOnUse">
<stop stop-color="#E11036"/>
<stop offset="1" stop-color="#E11036" stop-opacity="0"/>
</linearGradient>
<radialGradient id="paint3_radial_1017_1155" cx="0" cy="0" r="1" gradientTransform="matrix(-29.3261 0.0628909 -0.0381492 -17.6895 47.1636 29.4376)" gradientUnits="userSpaceOnUse">
<stop stop-color="white"/>
<stop offset="1" stop-color="white" stop-opacity="0"/>
</radialGradient>
</defs>
</svg>
