<svg width="223" height="67" viewBox="0 0 223 67" fill="none" xmlns="http://www.w3.org/2000/svg">
<mask id="mask0_4257_552" style="mask-type:alpha" maskUnits="userSpaceOnUse" x="0" y="0" width="223" height="67">
<rect width="222.687" height="66.1277" rx="24" transform="matrix(1 0 0 -1 0 66.1279)" fill="url(#paint0_linear_4257_552)"/>
</mask>
<g mask="url(#mask0_4257_552)">
<g filter="url(#filter0_i_4257_552)">
<rect width="222.687" height="66.1277" rx="24" transform="matrix(1 0 0 -1 0 66.1279)" fill="url(#paint1_linear_4257_552)"/>
</g>
<g filter="url(#filter1_f_4257_552)">
<path d="M4.38818 54.43C4.38818 58.0073 7.28812 60.9072 10.8654 60.9072H210.725C214.303 60.9072 217.203 58.0073 217.203 54.43C217.203 45.7421 210.678 38.4631 202.029 37.6471C180.334 35.6001 139.864 32.1939 110.795 32.1939C81.7267 32.1939 41.2572 35.6001 19.5619 37.6471C10.9124 38.4631 4.38818 45.7421 4.38818 54.43Z" fill="url(#paint2_radial_4257_552)" style="mix-blend-mode:overlay"/>
</g>
<g filter="url(#filter2_f_4257_552)">
<ellipse cx="76.2402" cy="21.7525" rx="76.2402" ry="21.7525" transform="matrix(1 0 0 -1 35.1035 25.2334)" fill="url(#paint3_radial_4257_552)"/>
</g>
<g filter="url(#filter3_f_4257_552)">
<ellipse cx="111.344" cy="3.04535" rx="111.344" ry="3.04535" transform="matrix(1 0 0 -1 0 3.48047)" fill="url(#paint4_radial_4257_552)"/>
</g>
<g filter="url(#filter4_f_4257_552)">
<path d="M246.821 61.3427C246.821 53.4137 186.166 53.9468 111.344 53.9468C36.5217 53.9468 -24.1335 53.4137 -24.1335 61.3427C-24.1335 69.2717 36.5217 82.6602 111.344 82.6602C186.166 82.6602 246.821 69.2717 246.821 61.3427Z" fill="url(#paint5_radial_4257_552)"/>
</g>
<g filter="url(#filter5_f_4257_552)">
<rect width="211.69" height="1.7402" transform="matrix(1 0 0 -1 6.87305 5.2207)" fill="white"/>
</g>
<g filter="url(#filter6_f_4257_552)">
<ellipse cx="111.344" cy="13.4866" rx="111.344" ry="13.4866" transform="matrix(1 0 0 -1 0 74.8291)" fill="url(#paint6_radial_4257_552)"/>
</g>
<g filter="url(#filter7_f_4257_552)">
<rect width="208.941" height="1.7402" transform="matrix(1 0 0 -1 6.87305 60.0371)" fill="white"/>
</g>
</g>
<defs>
<filter id="filter0_i_4257_552" x="0" y="0" width="222.687" height="66.1279" filterUnits="userSpaceOnUse" color-interpolation-filters="sRGB">
<feFlood flood-opacity="0" result="BackgroundImageFix"/>
<feBlend mode="normal" in="SourceGraphic" in2="BackgroundImageFix" result="shape"/>
<feColorMatrix in="SourceAlpha" type="matrix" values="0 0 0 0 0 0 0 0 0 0 0 0 0 0 0 0 0 0 127 0" result="hardAlpha"/>
<feMorphology radius="2.3617" operator="erode" in="SourceAlpha" result="effect1_innerShadow_4257_552"/>
<feOffset/>
<feGaussianBlur stdDeviation="4.13298"/>
<feComposite in2="hardAlpha" operator="arithmetic" k2="-1" k3="1"/>
<feColorMatrix type="matrix" values="0 0 0 0 0.882249 0 0 0 0 0.882249 0 0 0 0 0.882249 0 0 0 1 0"/>
<feBlend mode="normal" in2="shape" result="effect1_innerShadow_4257_552"/>
</filter>
<filter id="filter1_f_4257_552" x="-9.78203" y="18.0241" width="241.155" height="57.0533" filterUnits="userSpaceOnUse" color-interpolation-filters="sRGB">
<feFlood flood-opacity="0" result="BackgroundImageFix"/>
<feBlend mode="normal" in="SourceGraphic" in2="BackgroundImageFix" result="shape"/>
<feGaussianBlur stdDeviation="7.08511" result="effect1_foregroundBlur_4257_552"/>
</filter>
<filter id="filter2_f_4257_552" x="5.58224" y="-47.7928" width="211.523" height="102.547" filterUnits="userSpaceOnUse" color-interpolation-filters="sRGB">
<feFlood flood-opacity="0" result="BackgroundImageFix"/>
<feBlend mode="normal" in="SourceGraphic" in2="BackgroundImageFix" result="shape"/>
<feGaussianBlur stdDeviation="14.7606" result="effect1_foregroundBlur_4257_552"/>
</filter>
<filter id="filter3_f_4257_552" x="-11.8085" y="-14.4189" width="246.304" height="29.7078" filterUnits="userSpaceOnUse" color-interpolation-filters="sRGB">
<feFlood flood-opacity="0" result="BackgroundImageFix"/>
<feBlend mode="normal" in="SourceGraphic" in2="BackgroundImageFix" result="shape"/>
<feGaussianBlur stdDeviation="5.90425" result="effect1_foregroundBlur_4257_552"/>
</filter>
<filter id="filter4_f_4257_552" x="-35.9421" y="42.1309" width="294.572" height="52.3377" filterUnits="userSpaceOnUse" color-interpolation-filters="sRGB">
<feFlood flood-opacity="0" result="BackgroundImageFix"/>
<feBlend mode="normal" in="SourceGraphic" in2="BackgroundImageFix" result="shape"/>
<feGaussianBlur stdDeviation="5.90425" result="effect1_foregroundBlur_4257_552"/>
</filter>
<filter id="filter5_f_4257_552" x="0.968792" y="-2.42379" width="223.499" height="13.5487" filterUnits="userSpaceOnUse" color-interpolation-filters="sRGB">
<feFlood flood-opacity="0" result="BackgroundImageFix"/>
<feBlend mode="normal" in="SourceGraphic" in2="BackgroundImageFix" result="shape"/>
<feGaussianBlur stdDeviation="2.95213" result="effect1_foregroundBlur_4257_552"/>
</filter>
<filter id="filter6_f_4257_552" x="-33.0638" y="14.7926" width="288.815" height="93.1003" filterUnits="userSpaceOnUse" color-interpolation-filters="sRGB">
<feFlood flood-opacity="0" result="BackgroundImageFix"/>
<feBlend mode="normal" in="SourceGraphic" in2="BackgroundImageFix" result="shape"/>
<feGaussianBlur stdDeviation="16.5319" result="effect1_foregroundBlur_4257_552"/>
</filter>
<filter id="filter7_f_4257_552" x="0.968792" y="52.3926" width="220.75" height="13.5487" filterUnits="userSpaceOnUse" color-interpolation-filters="sRGB">
<feFlood flood-opacity="0" result="BackgroundImageFix"/>
<feBlend mode="normal" in="SourceGraphic" in2="BackgroundImageFix" result="shape"/>
<feGaussianBlur stdDeviation="2.95213" result="effect1_foregroundBlur_4257_552"/>
</filter>
<linearGradient id="paint0_linear_4257_552" x1="111.344" y1="0" x2="111.344" y2="66.1277" gradientUnits="userSpaceOnUse">
<stop stop-color="#454545"/>
<stop offset="1" stop-color="white"/>
</linearGradient>
<linearGradient id="paint1_linear_4257_552" x1="111.344" y1="0" x2="111.344" y2="66.1277" gradientUnits="userSpaceOnUse">
<stop stop-color="#A5A5A5"/>
<stop offset="0.980769" stop-color="#1A1A1A"/>
</linearGradient>
<radialGradient id="paint2_radial_4257_552" cx="0" cy="0" r="1" gradientUnits="userSpaceOnUse" gradientTransform="translate(110.795 46.5506) scale(106.407 14.3567)">
<stop stop-color="#C2C2C2"/>
<stop offset="1" stop-color="#5C5C5C"/>
</radialGradient>
<radialGradient id="paint3_radial_4257_552" cx="0" cy="0" r="1" gradientUnits="userSpaceOnUse" gradientTransform="translate(76.2402 21.7525) rotate(90) scale(21.7525 76.2402)">
<stop offset="0.264423" stop-color="white"/>
<stop offset="0.730769" stop-color="#919191"/>
</radialGradient>
<radialGradient id="paint4_radial_4257_552" cx="0" cy="0" r="1" gradientUnits="userSpaceOnUse" gradientTransform="translate(111.344 3.04535) rotate(90) scale(3.04535 111.344)">
<stop stop-color="white"/>
<stop offset="1" stop-color="#E7E7E7"/>
</radialGradient>
<radialGradient id="paint5_radial_4257_552" cx="0" cy="0" r="1" gradientUnits="userSpaceOnUse" gradientTransform="translate(111.344 68.3035) rotate(-90) scale(14.3567 135.477)">
<stop stop-color="white"/>
<stop offset="1" stop-color="#959595"/>
</radialGradient>
<radialGradient id="paint6_radial_4257_552" cx="0" cy="0" r="1" gradientUnits="userSpaceOnUse" gradientTransform="translate(111.344 13.4866) rotate(90) scale(13.4866 111.344)">
<stop stop-color="white"/>
<stop offset="1" stop-color="#C0C0C0"/>
</radialGradient>
</defs>
</svg>
