<svg width="80" height="80" viewBox="0 0 80 80" fill="none" xmlns="http://www.w3.org/2000/svg">
<path d="M39.75 0C61.7033 0 79.5 17.7977 79.5 39.751C79.4997 61.7041 61.7032 79.501 39.75 79.501C17.7968 79.501 0.00026392 61.7041 0 39.751C0 17.7977 17.7967 0 39.75 0ZM39.75 1.00098C18.349 1.00098 1 18.3499 1 39.751C1.00026 61.1518 18.3491 78.501 39.75 78.501C61.1509 78.501 78.4997 61.1518 78.5 39.751C78.5 18.3499 61.151 1.00098 39.75 1.00098ZM39.75 5.00098C58.9419 5.00098 74.5 20.5591 74.5 39.751C74.4997 58.9426 58.9417 74.501 39.75 74.501C20.5583 74.501 5.00026 58.9426 5 39.751C5 20.5591 20.5581 5.00098 39.75 5.00098ZM39.75 6.00098C21.1104 6.00098 6 21.1114 6 39.751C6.00026 58.3904 21.1106 73.501 39.75 73.501C58.3894 73.501 73.4997 58.3904 73.5 39.751C73.5 21.1114 58.3896 6.00098 39.75 6.00098ZM61.7695 39.751L35.1875 66.333L25.3555 56.501L29.918 51.9385L26.1055 48.126L34.4805 39.751L26.1055 31.376L29.918 27.5635L25.3555 23.001L35.1875 13.1689L61.7695 39.751ZM27.2695 22.501H35.3945L52.6445 39.751L35.3945 57.001H27.2695L35.1875 64.9189L60.3555 39.751L35.1875 14.583L27.2695 22.501ZM27.2695 56.001H33.9805L30.625 52.6455L27.2695 56.001ZM31.332 51.9385L35.1875 55.7939L50.7305 40.251H43.0195L31.332 51.9385ZM27.5195 31.376L35.8945 39.751L27.5195 48.126L30.625 51.2314L42.1055 39.751L30.625 28.2705L27.5195 31.376ZM31.332 27.5635L43.0195 39.251H50.7305L35.1875 23.708L31.332 27.5635ZM30.625 26.8564L33.9805 23.501H27.2695L30.625 26.8564Z" fill="#CC80BF"/>
</svg>
