<svg width="87" height="87" viewBox="0 0 87 87" fill="none" xmlns="http://www.w3.org/2000/svg">
<path opacity="0.4" d="M51.9922 8.69434C58.0498 10.2102 63.7876 13.3354 68.5244 18.0723C73.2606 22.8085 76.3844 28.5457 77.9004 34.6025L86.5957 43.2979L77.9004 51.9922C76.3845 58.0496 73.2611 63.7878 68.5244 68.5244L67.8652 69.167C63.2598 73.5449 57.7713 76.4542 51.9922 77.9004L43.2979 86.5957L34.6016 77.8994C28.8235 76.453 23.3361 73.5441 18.7314 69.167L18.0723 68.5244C13.3352 63.7874 10.2092 58.0492 8.69336 51.9912L0 43.2979L8.69238 34.6045C10.1384 28.825 13.0508 23.3371 17.4287 18.7314L18.0723 18.0723C22.8083 13.3362 28.545 10.2114 34.6016 8.69531L43.2979 0L51.9922 8.69434ZM50.1729 78.3057C45.6352 79.1924 40.9595 79.1927 36.4219 78.3057L43.2979 85.1816L50.1729 78.3057ZM51.4805 9.59668C46.1081 8.29776 40.4856 8.29825 35.1133 9.59766L9.59863 35.1123C8.29882 40.4857 8.29904 46.109 9.59863 51.4824L35.1133 76.9971C40.4858 78.2966 46.1079 78.2971 51.4805 76.998L76.998 51.4805C78.2971 46.1078 78.2966 40.4858 76.9971 35.1133L51.4805 9.59668ZM10.1309 53.4287C11.7341 58.694 14.6157 63.6538 18.7793 67.8174C22.9426 71.9806 27.9021 74.8616 33.167 76.4648L10.1309 53.4287ZM53.4277 76.4648C58.6933 74.8617 63.6536 71.9811 67.8174 67.8174C71.9811 63.6536 74.8617 58.6933 76.4648 53.4277L53.4277 76.4648ZM1.41406 43.2979L8.29004 50.1738C7.40296 45.6356 7.40293 40.9591 8.29004 36.4209L1.41406 43.2979ZM78.3076 36.4238C79.194 40.96 79.1938 45.6347 78.3076 50.1709L85.1816 43.2979L78.3076 36.4238ZM76.4648 33.167C74.8616 27.902 71.9807 22.9427 67.8174 18.7793C63.6534 14.6154 58.6935 11.733 53.4277 10.1299L76.4648 33.167ZM33.167 10.1299C27.9019 11.7331 22.9428 14.6158 18.7793 18.7793C14.6164 22.9422 11.7352 27.9007 10.1318 33.165L33.167 10.1299ZM36.4229 8.28809C40.9595 7.40144 45.6351 7.40168 50.1719 8.28809L43.2979 1.41406L36.4229 8.28809Z" fill="#BC6BC6"/>
<path d="M59.4844 27.0911L27.1094 59.4661" stroke="#BC6BC6"/>
<path d="M59.4844 59.4661L27.1094 27.0911" stroke="#BC6BC6"/>
<rect x="48.248" y="43.2786" width="7" height="7" transform="rotate(135 48.248 43.2786)" fill="#100412" stroke="#BC6BC6"/>
</svg>
