<svg width="140" height="140" viewBox="0 0 140 140" fill="none" xmlns="http://www.w3.org/2000/svg">
<g filter="url(#filter0_ddd_3972_2005)">
<mask id="path-1-inside-1_3972_2005" fill="white">
<circle cx="24.5" cy="24.5" r="24.5" transform="matrix(-1 0 0 1 94.5 45.5)"/>
</mask>
<g filter="url(#filter1_ii_3972_2005)">
<circle cx="24.5" cy="24.5" r="24.5" transform="matrix(-1 0 0 1 94.5 45.5)" fill="black"/>
</g>
<path d="M45.5 70C45.569 72.5696 46.0358 75.1109 46.8825 77.5121C50.1878 87.2197 59.9993 94.0017 70 93.7138C82.6278 93.8231 93.7469 82.4738 93.4517 70C93.7469 57.5262 82.6279 46.1769 70 46.2862C59.9993 45.9983 50.1878 52.7803 46.8825 62.4879C46.0358 64.8891 45.569 67.4304 45.5 70C45.4292 67.4306 45.7635 64.8451 46.5036 62.3649C49.3498 52.3429 59.3103 44.696 70 44.7138C83.4726 44.1885 95.8877 56.3733 95.5483 70C95.5483 70 95.5483 70 95.5483 70C95.8877 83.6267 83.4726 95.8115 70 95.2862C59.3103 95.304 49.3498 87.6571 46.5036 77.6351C45.7635 75.1549 45.4292 72.5694 45.5 70ZM45.5 70" fill="url(#paint0_linear_3972_2005)" mask="url(#path-1-inside-1_3972_2005)"/>
</g>
<defs>
<filter id="filter0_ddd_3972_2005" x="0" y="0" width="140" height="140" filterUnits="userSpaceOnUse" color-interpolation-filters="sRGB">
<feFlood flood-opacity="0" result="BackgroundImageFix"/>
<feColorMatrix in="SourceAlpha" type="matrix" values="0 0 0 0 0 0 0 0 0 0 0 0 0 0 0 0 0 0 127 0" result="hardAlpha"/>
<feOffset/>
<feGaussianBlur stdDeviation="22.75"/>
<feComposite in2="hardAlpha" operator="out"/>
<feColorMatrix type="matrix" values="0 0 0 0 0.901961 0 0 0 0 0.172549 0 0 0 0 0.788235 0 0 0 0.95 0"/>
<feBlend mode="normal" in2="BackgroundImageFix" result="effect1_dropShadow_3972_2005"/>
<feColorMatrix in="SourceAlpha" type="matrix" values="0 0 0 0 0 0 0 0 0 0 0 0 0 0 0 0 0 0 127 0" result="hardAlpha"/>
<feOffset/>
<feGaussianBlur stdDeviation="9.5"/>
<feComposite in2="hardAlpha" operator="out"/>
<feColorMatrix type="matrix" values="0 0 0 0 0.901961 0 0 0 0 0.172549 0 0 0 0 0.788235 0 0 0 0.45 0"/>
<feBlend mode="normal" in2="effect1_dropShadow_3972_2005" result="effect2_dropShadow_3972_2005"/>
<feColorMatrix in="SourceAlpha" type="matrix" values="0 0 0 0 0 0 0 0 0 0 0 0 0 0 0 0 0 0 127 0" result="hardAlpha"/>
<feOffset/>
<feGaussianBlur stdDeviation="6"/>
<feComposite in2="hardAlpha" operator="out"/>
<feColorMatrix type="matrix" values="0 0 0 0 0.901961 0 0 0 0 0.172549 0 0 0 0 0.788235 0 0 0 0.65 0"/>
<feBlend mode="normal" in2="effect2_dropShadow_3972_2005" result="effect3_dropShadow_3972_2005"/>
<feBlend mode="normal" in="SourceGraphic" in2="effect3_dropShadow_3972_2005" result="shape"/>
</filter>
<filter id="filter1_ii_3972_2005" x="42.5246" y="42.5246" width="55.8008" height="59.2012" filterUnits="userSpaceOnUse" color-interpolation-filters="sRGB">
<feFlood flood-opacity="0" result="BackgroundImageFix"/>
<feBlend mode="normal" in="SourceGraphic" in2="BackgroundImageFix" result="shape"/>
<feColorMatrix in="SourceAlpha" type="matrix" values="0 0 0 0 0 0 0 0 0 0 0 0 0 0 0 0 0 0 127 0" result="hardAlpha"/>
<feMorphology radius="2.55031" operator="dilate" in="SourceAlpha" result="effect1_innerShadow_3972_2005"/>
<feOffset dx="3.82547" dy="7.22588"/>
<feGaussianBlur stdDeviation="8.92609"/>
<feComposite in2="hardAlpha" operator="arithmetic" k2="-1" k3="1"/>
<feColorMatrix type="matrix" values="0 0 0 0 0.711116 0 0 0 0 0.174617 0 0 0 0 1 0 0 0 1 0"/>
<feBlend mode="normal" in2="shape" result="effect1_innerShadow_3972_2005"/>
<feColorMatrix in="SourceAlpha" type="matrix" values="0 0 0 0 0 0 0 0 0 0 0 0 0 0 0 0 0 0 127 0" result="hardAlpha"/>
<feOffset dx="-2.97536" dy="-2.97536"/>
<feGaussianBlur stdDeviation="6.80083"/>
<feComposite in2="hardAlpha" operator="arithmetic" k2="-1" k3="1"/>
<feColorMatrix type="matrix" values="0 0 0 0 0.504733 0 0 0 0 0 0 0 0 0 0.294427 0 0 0 0.85 0"/>
<feBlend mode="normal" in2="effect1_innerShadow_3972_2005" result="effect2_innerShadow_3972_2005"/>
</filter>
<linearGradient id="paint0_linear_3972_2005" x1="52.7934" y1="87.4522" x2="88.8024" y2="54.9613" gradientUnits="userSpaceOnUse">
<stop stop-color="#FFE031" stop-opacity="0"/>
<stop offset="1" stop-color="white"/>
</linearGradient>
</defs>
</svg>
