<svg width="135" height="261" viewBox="0 0 135 261" fill="none" xmlns="http://www.w3.org/2000/svg">
<path d="M134.884 0L134.03 0.853516L104.073 30.8096L92.6465 73.4551L125.437 130.25L125.581 130.5L125.437 130.75L92.6465 187.544L104.072 230.188L134.884 261H95.2939L95.1943 260.63L87.1758 230.706L63.9697 207.5L64.1621 207.168L75.5732 187.402L69.125 163.338L56.5967 170.572L56.2637 170.764L50.4072 164.907L40.5967 170.572L40.2637 170.764L0 130.5L40.2637 90.2363L40.5967 90.4277L50.4072 96.0918L56.2637 90.2363L56.5967 90.4277L69.125 97.6602L75.5732 73.5967L64.1621 53.832L63.9697 53.5L64.2412 53.2285L87.1758 30.293L95.1943 0.370117L95.2939 0H134.884ZM109.929 252.045L117.884 260H132.47L104.59 232.12L109.929 252.045ZM112.061 260H116.47L110.446 253.977L112.061 260ZM96.0605 260H111.025L109.032 252.562L88.5898 232.12L96.0605 260ZM88.0723 230.188L108.515 250.631L103.176 230.706L82.7334 210.264L88.0723 230.188ZM65.2197 207.336L86.6582 228.774L81.3184 208.849L79.9697 207.5L80.1621 207.168L80.6445 206.332L75.9385 188.769L65.2197 207.336ZM81.7178 206.473L82.2158 208.332L102.658 228.774L91.9385 188.769L81.7178 206.473ZM76.6465 187.544L81.3516 205.106L91.5732 187.402L86.8672 169.84L76.6465 187.544ZM70.0215 162.82L76.2803 186.178L86.501 168.474L82.9814 155.338L70.0215 162.82ZM101.37 144.721L87.5742 168.615L92.2803 186.178L123.637 131.865L101.37 144.721ZM1.41406 130.5L40.4277 169.514L49.6748 164.175L16 130.5L49.6748 96.8242L40.4277 91.4854L1.41406 130.5ZM51.3037 164.39L56.4277 169.514L68.8564 162.338L66.9814 155.338L51.3037 164.39ZM83.8779 154.82L87.208 167.249L99.6367 145.722L83.8779 154.82ZM17.4141 130.5L50.5713 163.657L66.7129 154.339L64.165 144.829L40.0967 130.933L39.3467 130.5L40.0967 130.067L64.165 116.17L66.7129 106.66L50.5713 97.3408L17.4141 130.5ZM67.8779 154.82L69.7529 161.82L82.7129 154.339L80.8369 147.338L67.8779 154.82ZM65.0781 116.63L65.0244 116.829L64.8447 116.933L41.3457 130.5L64.8447 144.067L65.0244 144.171L65.0781 144.37L67.6104 153.82L80.5693 146.338L80.165 144.829L56.0967 130.933L55.3467 130.5L56.0967 130.067L80.165 116.17L80.5693 114.66L67.6104 107.179L65.0781 116.63ZM81.7344 146.819L83.6104 153.82L100.636 143.99L107.637 131.865L81.7344 146.819ZM81.0781 116.63L81.0244 116.829L80.8447 116.933L57.3457 130.5L80.8447 144.067L81.0244 144.171L81.0781 144.37L81.4658 145.82L108.004 130.5L81.4668 115.179L81.0781 116.63ZM109.437 130.25L109.581 130.5L109.437 130.75L102.369 142.989L124.004 130.5L102.369 118.009L109.437 130.25ZM81.7344 114.179L107.637 129.134L100.636 117.009L83.6104 107.179L81.7344 114.179ZM87.5742 92.3828L101.369 116.277L123.637 129.134L92.2803 74.8213L87.5742 92.3828ZM83.8779 106.179L99.6367 115.276L87.208 93.749L83.8779 106.179ZM67.8779 106.179L80.8369 113.66L82.7129 106.66L69.7529 99.1777L67.8779 106.179ZM51.3037 96.6094L66.9814 105.661L68.8564 98.6602L56.4277 91.4854L51.3037 96.6094ZM70.0215 98.1777L82.9814 105.661L86.501 92.5244L76.2803 74.8213L70.0215 98.1777ZM76.6465 73.4551L86.8672 91.1582L91.5732 73.5967L81.3516 55.8926L76.6465 73.4551ZM65.2197 53.6631L75.9385 72.2305L80.6436 54.667L80.1621 53.832L79.9697 53.5L80.2412 53.2285L81.3184 52.1504L86.6582 32.2246L65.2197 53.6631ZM82.2168 52.665L81.7178 54.5264L91.9385 72.2305L102.658 32.2246L82.2168 52.665ZM88.0732 30.8096L82.7334 50.7354L103.176 30.293L108.515 10.3682L88.0732 30.8096ZM88.5908 28.8779L109.032 8.43652L111.025 1H96.0605L88.5908 28.8779ZM109.929 8.9541L104.591 28.8779L132.47 1H117.884L109.929 8.9541ZM110.446 7.02246L116.47 1H112.061L110.446 7.02246Z" fill="#FFA0F2" fill-opacity="0.4"/>
</svg>
