<svg width="641" height="106" viewBox="0 0 641 106" fill="none" xmlns="http://www.w3.org/2000/svg">
<path d="M221.341 16.6496L221.341 33.2009L309.664 56.5849L320.323 74.8279L330.983 56.5849L419.305 33.2009L419.305 16.6496M419.305 16.6496L378.889 56.5849L320.323 23.175L261.758 56.5849L221.341 16.6496L70.5039 56.5849L0.500005 16.6496L0.500005 0.649643L220.242 58.8279L272.518 7.17499L320.323 34.4467L368.129 7.17499L420.404 58.8279L640.146 0.64964L640.146 16.6496L570.143 56.5849L419.305 16.6496ZM320.323 23.175L290.142 74.8279L320.323 104.65L350.505 74.8279L320.323 23.175ZM0.500005 16.6496L220.242 74.8279L272.518 23.175L320.323 50.4467L368.129 23.175L420.404 74.8279L640.146 16.6496M221.341 0.649637L221.341 17.2009L309.664 40.5849L320.323 58.8279L330.983 40.5849L419.305 17.2009L419.305 0.649638M0.500005 0.649643L70.5039 40.5849L221.341 0.649637L261.758 40.5849L320.323 7.17499L378.889 40.5849L419.305 0.649638L570.143 40.5849L640.146 0.64964M320.323 7.17499L290.142 58.8279L320.323 88.6497L350.505 58.8279L320.323 7.17499Z" stroke="#FFA0F2" stroke-opacity="0.4"/>
</svg>
