<svg width="242" height="67" viewBox="0 0 242 67" fill="none" xmlns="http://www.w3.org/2000/svg">
<path d="M-0.000976562 65.6904L108.224 65.5801L81.1426 38.499L82.3477 38.498L135.359 38.4434L126.058 29.1416L92.6699 29.1758H92.4629L77.3428 14.0566L78.5479 14.0537L112.142 14.0205L112.35 14.0195L126.472 28.1416L151.999 28.1152L142.031 18.1475L143.237 18.1465L178.287 18.1104L170.812 10.6357L157.716 10.6494H157.508L146.873 0.0146484L148.078 0.0136719L161.383 0H161.591L171.227 9.63574L208.604 9.59766V10.5977L172.226 10.6348L179.7 18.1094L232.378 18.0547H232.585L241.559 27.0283L240.353 27.0293L187.467 27.083H187.26L179.286 19.1094L144.442 19.1445L154.411 29.1133L153.206 29.1143L127.47 29.1406L137.771 39.4414L136.565 39.4424L83.5547 39.4961L110.635 66.5771L109.43 66.5781L-0.000976562 66.6904V65.6904ZM169.813 9.63672L161.177 1L149.284 1.01172L157.921 9.64941L169.813 9.63672ZM125.059 28.1436L111.936 15.0205L79.7539 15.0537L92.877 28.1768L125.059 28.1436ZM239.146 26.0303L232.171 19.0547L180.698 19.1074L187.675 26.083L239.146 26.0303Z" fill="url(#paint0_linear_3918_4692)"/>
<defs>
<linearGradient id="paint0_linear_3918_4692" x1="471.352" y1="33.3452" x2="-0.000976562" y2="33.3452" gradientUnits="userSpaceOnUse">
<stop stop-color="#BC6BC6" stop-opacity="0"/>
<stop offset="0.302885" stop-color="#BC6BC6"/>
<stop offset="0.495192" stop-color="#F9C7FF"/>
<stop offset="0.697115" stop-color="#BC6BC6"/>
<stop offset="1" stop-color="#BC6BC6" stop-opacity="0"/>
</linearGradient>
</defs>
</svg>
