<svg width="1111" height="783" viewBox="0 0 1111 783" fill="none" xmlns="http://www.w3.org/2000/svg">
<g filter="url(#filter0_i_4028_639)">
<path d="M1109.7 119.472L1056.6 172.575L1056.59 364.332L1030.25 390.677L1056.59 417.023V608.78L1109.7 661.883H886.171L912.311 688.023H587.452L555.452 720.023L523.452 688.023H198.594L224.734 661.883H1.20752L54.3104 608.78V417.023L80.6561 390.677L54.3104 364.332L54.3124 172.575L1.20947 119.472H224.736L198.596 93.3318H523.454L555.454 61.3318L587.454 93.3318H912.313L886.173 119.472H1109.7Z" fill="url(#paint0_linear_4028_639)" fill-opacity="0.6"/>
</g>
<path d="M1109.7 119.472L1056.6 172.575L1056.59 364.332L1030.25 390.677L1056.59 417.023V608.78L1109.7 661.883H886.171L912.311 688.023H587.452L555.452 720.023L523.452 688.023H198.594L224.734 661.883H1.20752L54.3104 608.78V417.023L80.6561 390.677L54.3104 364.332L54.3124 172.575L1.20947 119.472H224.736L198.596 93.3318H523.454L555.454 61.3318L587.454 93.3318H912.313L886.173 119.472H1109.7Z" stroke="#81126F"/>
<path d="M88.6289 675.829L198.059 675.941L170.978 703.021L225.194 703.077L214.894 713.378M214.894 713.378L200.772 727.499L167.178 727.465L181.3 713.343L214.894 713.378ZM214.894 713.378L241.835 713.405L231.867 723.373L268.122 723.411M268.122 723.411L321.008 723.465L328.982 715.49L276.097 715.436L268.122 723.411ZM268.122 723.411L259.649 731.883M259.649 731.883L250.013 741.519L236.709 741.506L246.345 731.87L259.649 731.883ZM259.649 731.883L297.234 731.922L306.832 741.519L515.94 741.737L535.94 761.75M1023.24 676.329L913.809 676.441L940.889 703.521L886.673 703.577L911.095 727.999L944.689 727.965L930.567 713.843L870.032 713.905L880 723.873L790.86 723.965L782.885 715.99L835.771 715.936L861.854 742.019L875.158 742.006L865.523 732.37L814.633 732.422L805.049 742.006L595.94 741.785L575.94 761.774M575.94 761.774L555.94 781.762L535.94 761.75M575.94 761.774L565.806 751.64M535.94 761.75L545.806 751.628M565.806 751.64L555.672 741.506L545.806 751.628M565.806 751.64L573.94 743.506L555.672 725.238L537.404 743.506L545.806 751.628" stroke="url(#paint1_linear_4028_639)"/>
<path d="M88.6289 106.64L198.059 106.528L170.978 79.448L225.194 79.3924L214.894 69.092M214.894 69.092L200.772 54.9704L167.178 55.0049L181.3 69.1264L214.894 69.092ZM214.894 69.092L241.835 69.0643L231.867 59.0962L268.122 59.059M268.122 59.059L321.008 59.0047L328.982 66.9792L276.097 67.0335L268.122 59.059ZM268.122 59.059L259.649 50.5861M259.649 50.5861L250.013 40.9502L236.709 40.9638L246.345 50.5997L259.649 50.5861ZM259.649 50.5861L297.234 50.5475L306.832 40.9502L515.94 40.7328L535.94 20.7199M1023.24 106.14L913.809 106.028L940.889 78.948L886.673 78.8924L911.095 54.4704L944.689 54.5049L930.567 68.6264L870.032 68.5643L880 58.5962L790.86 58.5047L782.885 66.4792L835.771 66.5335L861.854 40.4502L875.158 40.4638L865.523 50.0997L814.633 50.0475L805.049 40.4638L595.94 40.6845L575.94 20.6957M575.94 20.6957L555.94 0.707001L535.94 20.7199M575.94 20.6957L565.806 30.8298M535.94 20.7199L545.806 30.8419M565.806 30.8298L555.672 40.9638L545.806 30.8419M565.806 30.8298L573.94 38.9638L555.672 57.2319L537.404 38.9638L545.806 30.8419" stroke="url(#paint2_linear_4028_639)"/>
<defs>
<filter id="filter0_i_4028_639" x="0" y="60.6248" width="1110.91" height="660.106" filterUnits="userSpaceOnUse" color-interpolation-filters="sRGB">
<feFlood flood-opacity="0" result="BackgroundImageFix"/>
<feBlend mode="normal" in="SourceGraphic" in2="BackgroundImageFix" result="shape"/>
<feColorMatrix in="SourceAlpha" type="matrix" values="0 0 0 0 0 0 0 0 0 0 0 0 0 0 0 0 0 0 127 0" result="hardAlpha"/>
<feOffset/>
<feGaussianBlur stdDeviation="66"/>
<feComposite in2="hardAlpha" operator="arithmetic" k2="-1" k3="1"/>
<feColorMatrix type="matrix" values="0 0 0 0 0.505183 0 0 0 0 0.0701211 0 0 0 0 0.437205 0 0 0 0.6 0"/>
<feBlend mode="normal" in2="shape" result="effect1_innerShadow_4028_639"/>
</filter>
<linearGradient id="paint0_linear_4028_639" x1="555.449" y1="157.332" x2="555.449" y2="624.024" gradientUnits="userSpaceOnUse">
<stop stop-color="#100412"/>
<stop offset="1" stop-color="#3D0333"/>
</linearGradient>
<linearGradient id="paint1_linear_4028_639" x1="1071.24" y1="605.484" x2="40.6288" y2="606.484" gradientUnits="userSpaceOnUse">
<stop offset="0.0201827" stop-color="#BC6BC6" stop-opacity="0"/>
<stop offset="0.0978114" stop-color="#BC6BC6"/>
<stop offset="0.896362" stop-color="#BC6BC6"/>
<stop offset="0.9866" stop-color="#BC6BC6" stop-opacity="0"/>
</linearGradient>
<linearGradient id="paint2_linear_4028_639" x1="1071.24" y1="176.986" x2="40.6288" y2="175.986" gradientUnits="userSpaceOnUse">
<stop offset="0.0201827" stop-color="#BC6BC6" stop-opacity="0"/>
<stop offset="0.0978114" stop-color="#BC6BC6"/>
<stop offset="0.896362" stop-color="#BC6BC6"/>
<stop offset="0.9866" stop-color="#BC6BC6" stop-opacity="0"/>
</linearGradient>
</defs>
</svg>
