<svg width="409" height="90" viewBox="0 0 409 90" fill="none" xmlns="http://www.w3.org/2000/svg">
<path d="M408 55L398 45L408 35V18L390.5 0.5H216.25L204.25 12.5L192.25 0.5H18L0.5 18V35L10.5 45L0.5 55V72L18 89.5H192.25L204.25 77.5L216.25 89.5H390.5L408 72V55Z" stroke="url(#paint0_linear_3978_2032)"/>
<path d="M400 56L389 45L400 34V22L386.5 8.5H218.25L204.25 22.5L190.25 8.5H22L8.5 22V34L20.5 45L8.5 56V68L22 81.5H190.25L204.25 67.5L218.25 81.5H386.5L400 68V56Z" fill="url(#paint1_linear_3978_2032)" stroke="url(#paint2_linear_3978_2032)"/>
<defs>
<linearGradient id="paint0_linear_3978_2032" x1="204.25" y1="-15.5" x2="204.25" y2="105.5" gradientUnits="userSpaceOnUse">
<stop stop-color="#F9C7FF"/>
<stop offset="1" stop-color="#703877"/>
</linearGradient>
<linearGradient id="paint1_linear_3978_2032" x1="204.25" y1="-7.5" x2="204.25" y2="97.5" gradientUnits="userSpaceOnUse">
<stop stop-color="#DC87E6"/>
<stop offset="1" stop-color="white"/>
</linearGradient>
<linearGradient id="paint2_linear_3978_2032" x1="204.25" y1="-7.5" x2="204.25" y2="97.5" gradientUnits="userSpaceOnUse">
<stop stop-color="#F9C7FF"/>
<stop offset="1" stop-color="#703877"/>
</linearGradient>
</defs>
</svg>
