<svg width="1700" height="118" viewBox="0 0 1700 118" fill="none" xmlns="http://www.w3.org/2000/svg">
<foreignObject x="246" y="-52" width="1208" height="182"><div xmlns="http://www.w3.org/1999/xhtml" style="backdrop-filter:blur(26px);height:100%;width:100%"></div></foreignObject><g filter="url(#filter0_di_3978_2031)" data-figma-bg-blur-radius="52">
<path d="M1356.28 0.5C1341.61 3.11283 1328.17 10.7538 1318.39 22.2969L1304.2 39.0342C1290.62 55.0626 1270.67 64.3047 1249.66 64.3047H1036.2C1027.13 64.3048 1018.21 66.5951 1010.27 70.9639C1002.47 75.2516 993.713 77.5 984.813 77.5H714.694C705.795 77.5 697.04 75.2516 689.241 70.9639C681.295 66.5949 672.374 64.3047 663.306 64.3047H450.343C429.332 64.3047 409.384 55.0626 395.799 39.0342L381.612 22.2969C371.829 10.7538 358.388 3.11282 343.721 0.5H1356.28Z" stroke="#81126F" shape-rendering="crispEdges"/>
</g>
<foreignObject x="225" y="-52" width="1250" height="182"><div xmlns="http://www.w3.org/1999/xhtml" style="backdrop-filter:blur(26px);height:100%;width:100%"></div></foreignObject><g filter="url(#filter1_di_3978_2031)" data-figma-bg-blur-radius="52">
<path d="M1374.13 0.5C1359.86 3.04177 1346.74 10.3449 1337.01 21.3945L1320.62 40.0332C1307.04 55.4621 1287.48 64.3047 1266.93 64.3047H1043.17C1033.83 64.3047 1024.63 66.5892 1016.38 70.96C1008.27 75.2544 999.236 77.5 990.062 77.5H709.428C700.253 77.5 691.217 75.2544 683.109 70.96C674.857 66.5891 665.66 64.3047 656.322 64.3047H433.065C412.515 64.3047 392.958 55.4621 379.384 40.0332L362.986 21.3945C353.265 10.3449 340.141 3.04176 325.869 0.5H1374.13Z" stroke="#81126F" shape-rendering="crispEdges"/>
</g>
<foreignObject x="178" y="-52" width="1344" height="182"><div xmlns="http://www.w3.org/1999/xhtml" style="backdrop-filter:blur(26px);height:100%;width:100%"></div></foreignObject><g filter="url(#filter2_di_3978_2031)" data-figma-bg-blur-radius="52">
<path d="M1414.17 0.5C1400.74 2.89241 1388.31 9.50531 1378.77 19.5273L1357.28 42.1035C1343.78 56.2801 1325.06 64.3046 1305.49 64.3047H1058.76C1048.81 64.3047 1039 66.5786 1030.06 70.9531C1021.26 75.2607 1011.59 77.5 1001.79 77.5H697.651C687.854 77.5 678.186 75.2606 669.387 70.9531C660.45 66.5785 650.631 64.3047 640.682 64.3047H394.509C374.936 64.3046 356.218 56.2801 342.723 42.1035L321.23 19.5273C311.69 9.50531 299.256 2.89242 285.825 0.5H1414.17Z" stroke="#81126F" shape-rendering="crispEdges"/>
</g>
<foreignObject x="105" y="-52" width="1490" height="182"><div xmlns="http://www.w3.org/1999/xhtml" style="backdrop-filter:blur(26px);height:100%;width:100%"></div></foreignObject><g filter="url(#filter3_di_3978_2031)" data-figma-bg-blur-radius="52">
<path d="M1476.62 0.5C1464.38 2.68123 1452.94 8.373 1443.76 16.999L1414.06 44.9062C1400.81 57.3672 1383.29 64.3047 1365.1 64.3047H1083.02C1072.1 64.3047 1061.3 66.5653 1051.31 70.9443C1041.43 75.2679 1030.77 77.4999 1020 77.5H679.387C668.609 77.5 657.948 75.268 648.075 70.9443C638.076 66.5654 627.279 64.3047 616.363 64.3047H334.901C316.706 64.3047 299.195 57.3672 285.936 44.9062L256.24 16.999C247.062 8.37299 235.625 2.68123 223.383 0.5H1476.62Z" stroke="#81126F" shape-rendering="crispEdges"/>
</g>
<foreignObject x="-16" y="-52" width="1732" height="182"><div xmlns="http://www.w3.org/1999/xhtml" style="backdrop-filter:blur(26px);height:100%;width:100%"></div></foreignObject><g filter="url(#filter4_di_3978_2031)" data-figma-bg-blur-radius="52">
<path d="M1580.69 0.5C1570.14 2.37762 1560.15 6.86544 1551.69 13.6367L1507.95 48.6338C1495.27 58.7777 1479.52 64.3047 1463.28 64.3047H1123.27C1110.72 64.3047 1098.27 66.5494 1086.52 70.9336C1074.87 75.2761 1062.54 77.5 1050.11 77.5H649.165C636.735 77.5 624.405 75.2761 612.758 70.9336C600.999 66.5495 588.551 64.3047 576.002 64.3047H236.719C220.482 64.3047 204.728 58.7777 192.05 48.6338L148.309 13.6367C139.846 6.86545 129.863 2.37762 119.31 0.5H1580.69Z" stroke="#81126F" shape-rendering="crispEdges"/>
</g>
<foreignObject x="254" y="-52" width="1192" height="174"><div xmlns="http://www.w3.org/1999/xhtml" style="backdrop-filter:blur(26px);clip-path:url(#bgblur_0_3978_2031_clip_path);height:100%;width:100%"></div></foreignObject><g filter="url(#filter5_di_3978_2031)" data-figma-bg-blur-radius="52">
<path d="M306 0L1394 0H1357.08C1339.74 0 1323.13 7.04175 1311.07 19.5125L1296.24 34.8528C1282.67 48.8824 1264 56.8043 1244.48 56.8043H1036.2C1027.22 56.8043 1018.38 59.0738 1010.51 63.4022C1002.64 67.7305 993.797 70 984.813 70H714.694C705.71 70 696.872 67.7305 689 63.4022C681.128 59.0738 672.29 56.8043 663.306 56.8043H455.52C436.005 56.8043 417.325 48.8824 403.76 34.8528L388.927 19.5125C376.869 7.04174 360.264 0 342.917 0L306 0Z" fill="url(#paint0_linear_3978_2031)" fill-opacity="0.3" shape-rendering="crispEdges"/>
<path d="M1345.77 0.5C1332.51 2.86323 1320.21 9.34336 1310.71 19.165L1295.88 34.5049C1282.41 48.4371 1263.86 56.3047 1244.48 56.3047H1036.2C1027.13 56.3047 1018.21 58.595 1010.27 62.9639C1002.47 67.2516 993.713 69.5 984.813 69.5H714.694C705.795 69.5 697.04 67.2516 689.241 62.9639C681.295 58.5949 672.374 56.3047 663.306 56.3047H455.521C436.141 56.3047 417.59 48.4371 404.119 34.5049L389.286 19.165C379.789 9.34336 367.495 2.86323 354.231 0.5H1345.77Z" stroke="#81126F" shape-rendering="crispEdges"/>
</g>
<defs>
<filter id="filter0_di_3978_2031" x="246" y="-52" width="1208" height="182" filterUnits="userSpaceOnUse" color-interpolation-filters="sRGB">
<feFlood flood-opacity="0" result="BackgroundImageFix"/>
<feColorMatrix in="SourceAlpha" type="matrix" values="0 0 0 0 0 0 0 0 0 0 0 0 0 0 0 0 0 0 127 0" result="hardAlpha"/>
<feOffset dy="4"/>
<feGaussianBlur stdDeviation="18"/>
<feComposite in2="hardAlpha" operator="out"/>
<feColorMatrix type="matrix" values="0 0 0 0 0.345365 0 0 0 0 0.134052 0 0 0 0 0.303102 0 0 0 1 0"/>
<feBlend mode="normal" in2="BackgroundImageFix" result="effect1_dropShadow_3978_2031"/>
<feBlend mode="normal" in="SourceGraphic" in2="effect1_dropShadow_3978_2031" result="shape"/>
<feColorMatrix in="SourceAlpha" type="matrix" values="0 0 0 0 0 0 0 0 0 0 0 0 0 0 0 0 0 0 127 0" result="hardAlpha"/>
<feOffset/>
<feGaussianBlur stdDeviation="12"/>
<feComposite in2="hardAlpha" operator="arithmetic" k2="-1" k3="1"/>
<feColorMatrix type="matrix" values="0 0 0 0 0.505183 0 0 0 0 0.0701211 0 0 0 0 0.437205 0 0 0 1 0"/>
<feBlend mode="normal" in2="shape" result="effect2_innerShadow_3978_2031"/>
</filter>
<filter id="filter1_di_3978_2031" x="225" y="-52" width="1250" height="182" filterUnits="userSpaceOnUse" color-interpolation-filters="sRGB">
<feFlood flood-opacity="0" result="BackgroundImageFix"/>
<feColorMatrix in="SourceAlpha" type="matrix" values="0 0 0 0 0 0 0 0 0 0 0 0 0 0 0 0 0 0 127 0" result="hardAlpha"/>
<feOffset dy="4"/>
<feGaussianBlur stdDeviation="18"/>
<feComposite in2="hardAlpha" operator="out"/>
<feColorMatrix type="matrix" values="0 0 0 0 0.345365 0 0 0 0 0.134052 0 0 0 0 0.303102 0 0 0 1 0"/>
<feBlend mode="normal" in2="BackgroundImageFix" result="effect1_dropShadow_3978_2031"/>
<feBlend mode="normal" in="SourceGraphic" in2="effect1_dropShadow_3978_2031" result="shape"/>
<feColorMatrix in="SourceAlpha" type="matrix" values="0 0 0 0 0 0 0 0 0 0 0 0 0 0 0 0 0 0 127 0" result="hardAlpha"/>
<feOffset/>
<feGaussianBlur stdDeviation="12"/>
<feComposite in2="hardAlpha" operator="arithmetic" k2="-1" k3="1"/>
<feColorMatrix type="matrix" values="0 0 0 0 0.505183 0 0 0 0 0.0701211 0 0 0 0 0.437205 0 0 0 1 0"/>
<feBlend mode="normal" in2="shape" result="effect2_innerShadow_3978_2031"/>
</filter>
<filter id="filter2_di_3978_2031" x="178" y="-52" width="1344" height="182" filterUnits="userSpaceOnUse" color-interpolation-filters="sRGB">
<feFlood flood-opacity="0" result="BackgroundImageFix"/>
<feColorMatrix in="SourceAlpha" type="matrix" values="0 0 0 0 0 0 0 0 0 0 0 0 0 0 0 0 0 0 127 0" result="hardAlpha"/>
<feOffset dy="4"/>
<feGaussianBlur stdDeviation="18"/>
<feComposite in2="hardAlpha" operator="out"/>
<feColorMatrix type="matrix" values="0 0 0 0 0.345365 0 0 0 0 0.134052 0 0 0 0 0.303102 0 0 0 1 0"/>
<feBlend mode="normal" in2="BackgroundImageFix" result="effect1_dropShadow_3978_2031"/>
<feBlend mode="normal" in="SourceGraphic" in2="effect1_dropShadow_3978_2031" result="shape"/>
<feColorMatrix in="SourceAlpha" type="matrix" values="0 0 0 0 0 0 0 0 0 0 0 0 0 0 0 0 0 0 127 0" result="hardAlpha"/>
<feOffset/>
<feGaussianBlur stdDeviation="12"/>
<feComposite in2="hardAlpha" operator="arithmetic" k2="-1" k3="1"/>
<feColorMatrix type="matrix" values="0 0 0 0 0.505183 0 0 0 0 0.0701211 0 0 0 0 0.437205 0 0 0 1 0"/>
<feBlend mode="normal" in2="shape" result="effect2_innerShadow_3978_2031"/>
</filter>
<filter id="filter3_di_3978_2031" x="105" y="-52" width="1490" height="182" filterUnits="userSpaceOnUse" color-interpolation-filters="sRGB">
<feFlood flood-opacity="0" result="BackgroundImageFix"/>
<feColorMatrix in="SourceAlpha" type="matrix" values="0 0 0 0 0 0 0 0 0 0 0 0 0 0 0 0 0 0 127 0" result="hardAlpha"/>
<feOffset dy="4"/>
<feGaussianBlur stdDeviation="18"/>
<feComposite in2="hardAlpha" operator="out"/>
<feColorMatrix type="matrix" values="0 0 0 0 0.345365 0 0 0 0 0.134052 0 0 0 0 0.303102 0 0 0 1 0"/>
<feBlend mode="normal" in2="BackgroundImageFix" result="effect1_dropShadow_3978_2031"/>
<feBlend mode="normal" in="SourceGraphic" in2="effect1_dropShadow_3978_2031" result="shape"/>
<feColorMatrix in="SourceAlpha" type="matrix" values="0 0 0 0 0 0 0 0 0 0 0 0 0 0 0 0 0 0 127 0" result="hardAlpha"/>
<feOffset/>
<feGaussianBlur stdDeviation="12"/>
<feComposite in2="hardAlpha" operator="arithmetic" k2="-1" k3="1"/>
<feColorMatrix type="matrix" values="0 0 0 0 0.505183 0 0 0 0 0.0701211 0 0 0 0 0.437205 0 0 0 1 0"/>
<feBlend mode="normal" in2="shape" result="effect2_innerShadow_3978_2031"/>
</filter>
<filter id="filter4_di_3978_2031" x="-16" y="-52" width="1732" height="182" filterUnits="userSpaceOnUse" color-interpolation-filters="sRGB">
<feFlood flood-opacity="0" result="BackgroundImageFix"/>
<feColorMatrix in="SourceAlpha" type="matrix" values="0 0 0 0 0 0 0 0 0 0 0 0 0 0 0 0 0 0 127 0" result="hardAlpha"/>
<feOffset dy="4"/>
<feGaussianBlur stdDeviation="18"/>
<feComposite in2="hardAlpha" operator="out"/>
<feColorMatrix type="matrix" values="0 0 0 0 0.345365 0 0 0 0 0.134052 0 0 0 0 0.303102 0 0 0 1 0"/>
<feBlend mode="normal" in2="BackgroundImageFix" result="effect1_dropShadow_3978_2031"/>
<feBlend mode="normal" in="SourceGraphic" in2="effect1_dropShadow_3978_2031" result="shape"/>
<feColorMatrix in="SourceAlpha" type="matrix" values="0 0 0 0 0 0 0 0 0 0 0 0 0 0 0 0 0 0 127 0" result="hardAlpha"/>
<feOffset/>
<feGaussianBlur stdDeviation="12"/>
<feComposite in2="hardAlpha" operator="arithmetic" k2="-1" k3="1"/>
<feColorMatrix type="matrix" values="0 0 0 0 0.505183 0 0 0 0 0.0701211 0 0 0 0 0.437205 0 0 0 1 0"/>
<feBlend mode="normal" in2="shape" result="effect2_innerShadow_3978_2031"/>
</filter>
<filter id="filter5_di_3978_2031" x="254" y="-52" width="1192" height="174" filterUnits="userSpaceOnUse" color-interpolation-filters="sRGB">
<feFlood flood-opacity="0" result="BackgroundImageFix"/>
<feColorMatrix in="SourceAlpha" type="matrix" values="0 0 0 0 0 0 0 0 0 0 0 0 0 0 0 0 0 0 127 0" result="hardAlpha"/>
<feOffset dy="4"/>
<feGaussianBlur stdDeviation="18"/>
<feComposite in2="hardAlpha" operator="out"/>
<feColorMatrix type="matrix" values="0 0 0 0 0.345365 0 0 0 0 0.134052 0 0 0 0 0.303102 0 0 0 1 0"/>
<feBlend mode="normal" in2="BackgroundImageFix" result="effect1_dropShadow_3978_2031"/>
<feBlend mode="normal" in="SourceGraphic" in2="effect1_dropShadow_3978_2031" result="shape"/>
<feColorMatrix in="SourceAlpha" type="matrix" values="0 0 0 0 0 0 0 0 0 0 0 0 0 0 0 0 0 0 127 0" result="hardAlpha"/>
<feOffset/>
<feGaussianBlur stdDeviation="12"/>
<feComposite in2="hardAlpha" operator="arithmetic" k2="-1" k3="1"/>
<feColorMatrix type="matrix" values="0 0 0 0 0.505183 0 0 0 0 0.0701211 0 0 0 0 0.437205 0 0 0 1 0"/>
<feBlend mode="normal" in2="shape" result="effect2_innerShadow_3978_2031"/>
</filter>
<clipPath id="bgblur_0_3978_2031_clip_path" transform="translate(-254 52)"><path d="M306 0L1394 0H1357.08C1339.74 0 1323.13 7.04175 1311.07 19.5125L1296.24 34.8528C1282.67 48.8824 1264 56.8043 1244.48 56.8043H1036.2C1027.22 56.8043 1018.38 59.0738 1010.51 63.4022C1002.64 67.7305 993.797 70 984.813 70H714.694C705.71 70 696.872 67.7305 689 63.4022C681.128 59.0738 672.29 56.8043 663.306 56.8043H455.52C436.005 56.8043 417.325 48.8824 403.76 34.8528L388.927 19.5125C376.869 7.04174 360.264 0 342.917 0L306 0Z"/>
</clipPath><linearGradient id="paint0_linear_3978_2031" x1="306" y1="35" x2="1394" y2="35" gradientUnits="userSpaceOnUse">
<stop stop-color="#A42F92"/>
<stop offset="1" stop-color="#4B0640"/>
</linearGradient>
</defs>
</svg>
