<svg width="1088" height="70" viewBox="0 0 1088 70" fill="none" xmlns="http://www.w3.org/2000/svg">
<path d="M0 0L1088 0H1051.08C1033.74 0 1017.13 7.04175 1005.07 19.5125L990.24 34.8528C976.675 48.8824 957.995 56.8043 938.48 56.8043H730.202C721.218 56.8043 712.38 59.0738 704.507 63.4022C696.635 67.7305 687.797 70 678.813 70H408.694C399.71 70 390.872 67.7305 383 63.4022C375.128 59.0738 366.29 56.8043 357.306 56.8043H149.52C130.005 56.8043 111.325 48.8824 97.7596 34.8528L82.9268 19.5125C70.8685 7.04173 54.2645 0 36.9174 0H0Z" fill="black"/>
</svg>
