<svg width="886" height="402" viewBox="0 0 886 402" fill="none" xmlns="http://www.w3.org/2000/svg">
<g filter="url(#filter0_f_3893_4432)">
<circle cx="42.5" cy="42.5" r="42.5" transform="matrix(-1 0 0 1 693 34.6982)" fill="#E62CC9"/>
</g>
<mask id="path-2-inside-1_3893_4432" fill="white">
<ellipse cx="102.69" cy="102.7" rx="102.69" ry="102.7" transform="matrix(-1 0 0 1 678.217 38.5498)"/>
</mask>
<g filter="url(#filter1_ii_3893_4432)">
<ellipse cx="102.69" cy="102.7" rx="102.69" ry="102.7" transform="matrix(-1 0 0 1 678.217 38.5498)" fill="black"/>
</g>
<path d="M472.837 141.25C473.119 152.02 475.068 162.675 478.611 172.744C492.438 213.453 533.57 241.932 575.527 240.74C628.505 241.221 675.178 193.598 673.938 141.25C673.938 141.25 673.938 141.25 673.938 141.25C675.178 88.9015 628.505 41.2779 575.527 41.7589C533.57 40.5668 492.438 69.0464 478.611 109.755C475.068 119.824 473.119 130.479 472.837 141.25C472.548 130.48 473.956 119.644 477.064 109.253C489.017 67.2614 530.757 35.2513 575.527 35.3407C631.954 33.1622 683.916 84.1967 682.496 141.25C682.496 141.25 682.496 141.25 682.496 141.25C683.916 198.302 631.954 249.337 575.527 247.158C530.757 247.248 489.017 215.238 477.064 173.246C473.956 162.855 472.548 152.019 472.837 141.25ZM472.837 141.25" fill="url(#paint0_linear_3893_4432)" mask="url(#path-2-inside-1_3893_4432)"/>
<g filter="url(#filter2_f_3893_4432)">
<path d="M522.8 175.357C516.153 160.163 528.003 132.369 540.154 139.41C548.277 143.857 550.279 150.494 545.323 158.31C540.154 166.463 544.215 187.215 561.57 173.133C578.924 159.051 594.801 170.168 593.693 178.692C592.586 187.215 578.555 198.703 561.57 200.556C544.585 202.409 529.446 190.55 522.8 175.357Z" fill="#E62CC9"/>
</g>
<g filter="url(#filter3_f_3893_4432)">
<ellipse cx="27.1826" cy="27.1851" rx="27.1826" ry="27.1851" transform="matrix(-1 0 0 1 677.986 49.9722)" fill="#E62CC9"/>
</g>
<g filter="url(#filter4_df_3893_4432)">
<ellipse cx="9.06086" cy="9.06169" rx="9.06086" ry="9.06169" transform="matrix(-1 0 0 1 659.863 68.0952)" fill="white"/>
</g>
<g filter="url(#filter5_ii_3893_4432)">
<path d="M640.752 189.625C668.832 181.213 684.153 197.083 687.008 200.374C687.187 200.537 687.34 200.713 687.462 200.896C687.575 201.066 687.424 200.853 687.008 200.374C685.885 199.345 683.746 198.753 681.827 199.264C679.603 199.857 677.972 202.231 680.641 209.942C683.31 217.653 690.576 216.912 692.504 214.243C694.046 212.107 692.652 208.211 691.763 206.531C692.801 207.173 695.113 209.853 696.062 215.429C697.249 222.399 723.346 272.671 724.979 277.27C726.61 281.867 729.724 283.944 731.503 280.83C733.282 277.715 748.407 241.531 751.225 235.747C754.042 229.963 755.674 224.772 760.863 220.027C766.053 215.281 773.171 210.832 763.088 204.159C755.021 198.82 740.945 202.527 734.914 205.048C741.983 199.759 761.872 191.791 784.886 202.231C807.9 212.671 814.938 222.597 815.581 226.255C793.931 207.866 778.51 218.989 775.1 223.141C771.689 227.294 772.43 235.747 783.255 235.747C791.914 235.747 793.091 231.001 792.597 228.628C800.357 227.294 822.669 232.009 849.835 261.55C877.001 291.091 884.781 314.098 885.275 321.909C875.34 295.067 848.501 269.559 829.224 260.068C813.802 252.475 804.806 256.904 802.235 260.068C805.97 246.128 793.635 240.196 786.813 240.196C779.992 240.196 773.172 245.238 773.172 253.097V286.761C773.172 304.705 786.813 302.629 790.669 301.591C793.753 300.761 793.931 297.192 793.635 295.511C847.492 322.087 873.907 377.374 880.382 401.695C842.49 327.816 800.452 317.468 781.437 321.808C780.407 322.373 779.447 322.65 778.51 322.65C779.412 322.33 780.39 322.047 781.437 321.808C783.013 320.944 784.75 319.406 786.813 317.164C790.224 313.456 782.662 303.668 775.1 303.667H749.891C753.301 302.777 758.64 296.846 758.64 291.062V238.712C758.64 233.67 756.712 232.039 754.636 235.747C752.559 239.455 732.838 280.83 730.762 296.846C728.686 312.863 742.921 326.209 746.925 331.4C750.929 336.59 755.674 342.967 757.602 340.743C759.143 338.963 753.992 331.004 751.225 327.248C771.747 349.67 774.408 376.532 773.172 387.161C768.427 360.615 742.328 332.438 726.313 327.248C713.502 323.095 711.188 315.532 711.633 312.269C711.929 316.125 718.751 321.316 722.161 320.871C725.572 320.426 728.982 316.866 723.348 305.448C717.713 294.029 691.763 241.679 689.835 236.636C687.907 231.594 685.831 234.56 685.831 236.636V291.062C685.831 299.722 693.739 303.074 697.693 303.667H670.706C674.413 301.69 681.827 296.401 681.827 291.062V228.628C681.827 219.286 678.268 206.531 666.851 197.485C657.716 190.248 645.645 189.229 640.752 189.625ZM226.729 199.709C224.405 202.231 219.106 208.044 216.496 211.128C213.234 214.984 216.2 216.913 233.697 216.913C251.195 216.913 265.43 227.887 265.431 237.971C265.431 248.055 254.755 255.619 250.454 256.954C246.154 258.288 241.557 258.212 243.484 261.551C245.414 264.892 273.29 297.588 279.37 304.41C284.233 309.866 286.536 310.045 287.08 309.452C280.911 336.146 250.701 358.836 236.366 366.844C245.511 361.555 264.126 345.489 265.431 323.541C266.736 301.592 255.99 286.91 250.454 282.313C256.978 294.532 259.005 307.375 259.203 312.269C249.12 281.868 225.393 261.551 221.39 261.551C217.386 261.551 217.534 265.407 217.534 269.411V288.69C217.534 300.316 230.089 303.421 236.366 303.52C233.401 303.52 230.583 303.965 223.466 303.52C216.348 303.075 204.189 306.634 212.641 308.117C219.402 309.303 226.53 313.06 229.249 314.791C209.379 310.935 193.067 313.159 165.041 335.701C141.625 354.534 131.38 384.343 129.897 397.838C128.563 387.16 139.981 354.09 154.513 335.701C169.045 317.312 187.877 306.486 192.029 302.482C195.351 299.279 197.862 291.953 198.702 288.69C199.592 293.732 197.813 294.326 197.812 298.33C197.813 302.333 201.52 299.368 203.003 296.253C204.486 293.139 203.003 278.16 203.003 253.542C203.003 233.848 185.208 228.232 176.311 227.886C195.054 225.395 202.606 233.572 204.04 237.971C204.04 234.61 201.638 226.878 192.029 222.844C180.018 217.802 163.707 225.217 158.962 233.522C155.166 240.166 160.544 250.823 163.707 255.322C158.072 248.648 139.477 240.552 110.176 261.551C80.8745 282.55 70.0885 318.647 68.3584 334.07C66.2825 307.969 88.0807 271.784 106.765 250.725C121.712 233.878 144.824 222.054 154.513 218.248C148.582 221.214 144.429 225.811 142.057 229.518C139.684 233.225 145.615 235.301 149.471 232.484C153.326 229.666 166.079 217.654 183.132 216.913C200.185 216.171 204.93 213.056 210.12 211.128C214.272 209.586 222.923 202.873 226.729 199.709ZM413.866 215.132C439.52 215.132 457.76 237.378 457.76 259.771C457.76 282.164 439.075 304.854 413.866 304.854C388.659 304.854 458.648 317.311 473.329 316.57C471.006 317.855 464.373 320.782 456.425 322.206C446.49 323.985 453.163 331.103 457.76 334.366C462.357 337.629 510.104 377.67 573.719 377.67C637.333 377.67 647.417 365.509 661.801 343.857C671.093 339.556 695.462 333.951 718.595 345.934C741.727 357.917 751.86 370.403 754.035 375.149C748.845 368.772 734.046 355.128 716.37 351.569C694.276 347.12 666.879 346.972 657.056 354.387C647.232 361.802 637.482 385.678 617.611 389.831C597.741 393.983 558.593 393.538 511.438 369.81C464.284 346.082 461.762 337.332 451.976 335.849C442.189 334.367 445.303 344.747 438.334 347.713C431.365 350.679 424.395 351.569 420.688 347.713C423.109 348.9 428.992 350.323 433.144 346.527C438.334 341.781 442.634 331.845 435.368 323.541C428.102 315.236 414.608 320.574 412.828 329.472C411.405 336.59 414.113 341.139 415.646 342.523C413.718 341.93 409.834 339.23 409.715 333.18C409.567 325.617 410.752 321.019 417.722 317.459C424.691 313.9 406.007 309.006 401.41 305.892C396.812 302.777 369.233 289.727 369.232 259.771C369.232 229.814 390.289 215.133 413.866 215.132ZM235.627 213.946C245.265 203.862 287.673 201.933 291.53 206.975C294.615 211.009 292.222 212.611 290.641 212.908C292.865 210.683 284.542 205.344 281.447 211.276C278.585 216.763 290.641 216.763 298.797 216.763H341.207C348.027 216.763 353.363 212.695 355.775 210.04C356 209.753 356.235 209.472 356.48 209.2C356.284 209.456 356.048 209.739 355.775 210.04C348.19 219.729 352.422 237.11 355.591 244.792C353.614 241.876 348.354 234.114 343.135 226.403C336.61 216.764 321.782 219.285 315.405 219.285C309.029 219.285 308.139 220.767 308.139 226.403V248.945C308.139 255.025 310.363 257.632 314.219 257.632C318.074 257.632 321.781 257.843 327.268 254.135C331.657 251.169 334.435 244.496 335.275 241.53V276.529C334.237 274.255 331.479 268.609 328.751 264.219C325.34 258.732 320.447 259.177 314.219 259.177C307.991 259.177 308.139 261.847 308.139 267.185V293.138C308.139 301.146 314.367 300.85 325.934 300.85C337.5 300.85 342.097 299.218 346.693 293.138C350.371 288.274 356.925 277.864 359.742 273.266C356.381 283.944 352.091 310.519 361.818 331.4C371.546 352.281 393.947 369.562 403.932 375.593C384.21 369.958 356.48 339.408 352.18 331.4C348.74 324.994 343.431 318.745 341.207 316.421C343.728 317.756 346.842 319.09 349.659 313.751C352.476 308.413 348.917 303.075 344.766 303.075H321.781C311.401 303.075 308.731 306.04 302.059 313.751C296.721 319.92 288.961 321.859 285.748 322.057C292.569 319.239 298.203 311.676 299.538 306.041C300.873 300.405 293.459 291.271 286.489 293.138C280.914 294.632 279.718 298.308 279.816 299.959C279.075 295.956 282.041 292.396 286.489 290.617C290.938 288.837 293.458 283.943 293.458 279.049V255.469C293.458 247.61 290.641 247.165 288.417 250.131C286.637 252.504 277.789 256.26 273.588 257.842C284.116 251.119 299.241 231.593 290.641 223.14C280.944 213.61 260.835 209.793 235.627 213.946ZM526.863 203.862C551.775 185.769 627.105 158.926 697.541 182.358C680.735 177.81 637.663 172.006 599.82 185.175C561.979 198.344 558.003 208.458 558.003 212.611C557.904 209.694 555.838 203.713 548.364 203.12C539.022 202.378 533.388 208.311 533.833 212.167C534.278 216.022 538.281 217.06 544.509 217.06H551.627C547.722 218.197 539.912 222.28 539.912 229.517V269.114C539.912 284.537 535.316 299.664 522.118 306.634C511.56 312.21 501.506 312.714 497.799 312.269C503.78 314.049 517.966 316.897 526.863 314.049C537.985 310.49 550.737 293.435 549.848 271.338C550.688 279.347 551.211 298.181 546.585 309.452C540.802 323.54 530.126 336.145 514.704 341.929C499.282 347.713 515.297 356.018 521.08 358.243C525.707 360.022 531.213 361.258 533.388 361.654C528.643 362 515.86 360.971 502.692 354.09C489.525 347.209 483.563 342.128 482.229 340.447C484.749 342.375 491.541 346.022 498.54 345.192C507.289 344.154 524.342 332.883 525.38 326.358C526.418 319.833 520.635 318.35 513.518 317.756C506.4 317.163 493.35 312.566 486.084 310.044C478.818 307.523 463.693 303.223 452.868 305.151C455.438 303.124 464.672 299.901 481.043 303.223C501.506 307.376 506.993 307.969 514.556 303.223C510.7 304.459 500.913 305.981 492.609 302.185C482.229 297.439 474.815 288.541 474.814 273.711V234.856C474.814 223.734 466.807 218.012 457.169 215.429C447.53 212.846 431.96 209.497 427.363 209.497C428.258 209.348 455.539 208.311 466.659 206.828C465.077 207.52 462.092 209.379 462.804 211.277C463.694 213.65 468.736 218.246 484.305 217.208C496.761 216.378 501.457 216.071 502.248 216.022C499.134 216.516 492.431 218.751 490.533 223.734C488.161 229.963 482.525 251.911 485.194 266.741C485.059 261.995 486.115 248.974 491.423 234.856C489.199 246.028 486.085 271.635 491.423 284.685C498.096 300.998 520.932 297.439 526.863 293.138C531.608 289.698 533.388 287.256 533.685 286.465C529.829 289.135 520.131 293.495 512.183 289.58C515.247 289.926 522.177 290.113 525.38 288.096C529.384 285.575 536.798 280.681 536.798 248.352C536.798 216.023 524.046 216.022 515.594 220.323C508.832 223.763 506.251 229.864 505.807 232.484C504.521 228.974 506.934 218.336 526.863 203.862ZM593.297 202.972C592.951 206.531 591.487 214.45 588.403 217.654C584.548 221.658 580.544 222.696 580.544 237.971C580.544 253.246 582.175 256.715 591.369 259.178C588.057 259.87 581.434 262.53 581.434 267.631V292.842C581.434 297.944 588.948 302.482 592.704 304.114C586.872 306.091 574.583 311.825 572.092 318.944C568.978 327.842 567.792 343.117 587.365 346.379C606.939 349.642 643.418 343.117 659.433 318.944C656.664 324.876 646.116 338.964 626.068 347.862C601.008 358.984 568.237 360.912 551.48 354.387C556.77 354.486 567.97 353.854 570.461 350.532C573.575 346.379 570.312 336.147 562.898 333.329C555.485 330.511 550.591 334.96 549.553 338.222C549.454 335.305 551.302 327.93 559.487 321.761C569.719 314.05 576.688 308.266 575.502 305.003C574.553 302.393 560.97 303.323 554.297 304.114C558.498 302.532 566.901 298.062 566.901 292.842V268.521C566.901 262.589 561.86 260.569 556.67 259.178C560.081 258.041 566.901 254.492 566.901 249.39V226.552C566.901 221.807 560.575 217.654 557.411 216.171H575.206C583.807 216.171 592.407 208.608 593.297 202.972ZM624.28 191.551C633.474 193.628 653.819 201.221 661.648 214.983C669.478 228.745 669.458 239.898 668.47 243.753C667.728 240.194 664.733 231.83 658.683 226.847C651.12 220.619 648.006 219.432 640.146 219.432H627.395C624.281 219.432 621.76 221.36 621.76 230.257V249.092C621.76 253.096 622.798 256.655 627.395 256.655H637.181C640.146 256.655 648.206 247.609 649.637 242.27V274.155C648.006 269.706 643.231 260.808 637.181 260.808H627.395C624.281 260.808 621.76 261.698 621.76 270.002V292.989C621.76 298.327 623.835 300.849 630.508 300.849C637.181 300.849 648.896 302.184 654.234 298.921C659.442 295.738 668.883 283.663 669.479 277.016C669.49 276.848 669.5 276.685 669.508 276.528C669.504 276.687 669.494 276.85 669.479 277.016C669.083 283.217 666.683 297.079 659.869 306.781C651.12 319.238 637.181 328.73 629.47 331.547C634.165 329.026 644.359 322.263 647.562 315.382C651.565 306.781 647.264 303.666 642.964 303.518C638.662 303.37 603.372 303.518 598.33 303.518C601.642 301.936 608.266 297.616 608.266 292.989V270.002C608.266 263.774 612.714 258.138 618.497 258.138C615.087 257.397 608.266 254.549 608.266 249.092V230.257C608.265 224.77 602.185 217.504 598.33 216.911C599.516 217.059 632.88 216.911 640.146 216.911C647.412 216.911 648.599 210.385 641.333 202.97C635.52 197.038 627.543 192.886 624.28 191.551ZM414.162 217.209C397.702 217.21 392.512 224.921 388.063 238.565C384.505 249.479 388.954 257.942 391.623 260.809C388.794 261.353 384.122 266.119 388.063 280.83C392.99 299.219 406.155 302.482 414.162 302.482C422.17 302.482 435.935 292.545 439.074 280.83C441.585 271.457 437.451 263.577 435.07 260.809C441.447 257.127 441.298 247.463 439.074 238.565C436.85 229.667 430.325 217.209 414.162 217.209ZM78.2949 98.1226C105.698 86.9704 123.325 89.6205 128.713 92.3394C124.511 91.7462 113.32 91.5385 102.169 95.4536C88.2303 100.347 80.9334 108.207 83.9297 113.398C86.8952 118.44 96.2381 113.398 109.436 112.508C122.633 111.619 127.082 114.584 134.645 114.584C140.695 114.584 149.522 110.135 153.18 107.911C147.1 113.398 140.813 115.534 138.796 124.076C136.779 132.618 139.637 143.157 141.317 147.359C139.785 143.8 135.445 134.546 130.344 126.003C123.967 115.326 110.473 113.398 103.504 117.105C96.5345 120.812 92.976 128.821 96.2383 139.647C98.8481 148.308 106.124 152.252 109.436 153.142C99.2336 146.498 98.6599 135.94 99.6484 131.491C99.6486 150.769 125.005 148.99 133.902 158.481C142.8 167.972 144.727 177.612 140.427 189.328C136.126 201.043 118.184 203.713 109.436 203.417C100.687 203.12 92.679 200.153 86.3027 199.56C79.9265 198.967 76.8126 209.645 83.6338 210.535C89.0907 211.247 95.0027 212.907 97.2764 213.649C94.0635 212.611 83.9004 211.721 68.9531 216.466C50.2692 222.398 39.5931 243.161 31.2891 257.842C24.6458 269.588 21.0071 289.727 20.0186 298.329C20.1668 291.754 21.709 274.274 26.6914 256.953C32.9194 235.301 52.0488 214.984 62.5771 205.493C70.9998 197.9 73.4015 186.312 73.5498 181.467C76.7528 195.585 72.5121 203.762 69.9912 206.085C86.0061 194.577 83.3869 173.706 80.0752 164.709C83.3869 172.273 91.9376 188.913 99.6484 194.963C109.287 202.527 119.667 200.45 124.709 198.078C129.751 195.705 135.979 185.917 130.789 177.019C125.599 168.121 106.618 162.93 95.2002 156.999C83.7823 151.067 82.4471 136.978 83.9297 133.418C85.4124 129.859 83.6338 128.377 81.7061 129.711C80.1639 130.779 78.0971 130.551 77.2568 130.304C78.1465 130.304 86.0059 124.966 82.0029 120.072C77.9992 115.178 69.8427 115.178 66.877 115.771C63.9115 116.364 62.5772 119.775 65.3945 120.813C67.6482 121.643 68.3108 123.136 68.3604 123.779C64.9004 123.383 53.3834 124.995 34.9961 134.605C16.6086 144.215 4.00373 165.402 0 174.794C8.4523 144.393 44.0409 112.063 78.2949 98.1226ZM414.413 239.55C415.5 250.596 424.101 259.412 435.116 260.769C424.102 262.126 415.5 270.941 414.413 281.987L413.951 286.681L413.489 281.987C412.402 270.941 403.801 262.126 392.786 260.769C403.801 259.412 412.402 250.596 413.489 239.55L413.951 234.856L414.413 239.55ZM567.789 258.945L574.08 264.05L580.371 258.945L574.08 253.839L567.789 258.945ZM222.975 219.434C217.531 219.434 217.531 232.484 217.531 239.009C217.531 251.021 217.89 259.326 222.975 259.326C228.059 259.326 250.895 256.805 250.896 239.009C250.895 221.214 234.584 219.434 222.975 219.434ZM396.958 95.1519C396.513 104.94 387.171 112.532 387.171 119.176C387.171 127.481 391.916 140.531 398.44 147.65C404.965 154.768 413.269 157.141 419.497 157.141H398.44C390.73 157.141 383.909 155.362 379.46 143.794C375.901 134.541 373.726 128.866 373.083 127.185C370.117 134.007 363.682 149.015 361.665 154.472C359.144 161.294 357.81 168.116 371.452 168.116H422.463C418.953 168.462 411.845 170.074 411.489 173.751C411.045 178.349 415.493 199.407 428.69 201.484H399.182C388.209 201.484 375.457 204.45 369.229 217.648C364.246 228.207 363.791 240.635 364.187 245.529C362.803 240.684 361.339 227.525 366.559 213.644C371.778 199.763 384.748 190.46 390.581 187.543C388.653 188.829 385.273 192.407 387.171 196.441C389.543 201.483 400.812 199.111 403.037 194.958C405.261 190.806 403.482 179.98 399.182 174.938C401.109 179.941 403.185 191.245 396.067 196.441C397.847 193.129 399.834 184.666 393.547 177.31C385.688 168.116 374.863 170.192 367.597 170.637C360.331 171.082 355.141 172.268 352.175 179.535C349.209 186.801 345.354 192.734 349.209 195.7C352.293 198.073 358.304 200.545 360.924 201.484H330.674C334.084 200.792 341.558 197.805 344.168 191.399C347.43 183.39 364.779 141.57 367.597 133.265C370.414 124.96 367.893 123.032 352.472 123.774C337.448 124.496 324.001 128.816 305.613 143.794C309.568 137.665 323.823 123.685 349.209 116.804C380.942 108.203 391.62 104.94 396.958 95.1519ZM495.429 85.6655C501.163 86.2588 517.761 90.886 538.283 104.648C558.806 118.41 594.78 132.133 610.202 137.274C590.876 132.281 547.774 120.694 520.489 109.542C486.383 95.6014 459.396 113.694 474.817 114.583C489.497 115.473 503.436 123.63 503.437 136.383C503.437 149.137 489.349 158.184 474.817 158.184H466.276C466.307 158.198 466.339 158.213 466.371 158.228C466.419 158.276 466.466 158.324 466.514 158.372C472.744 164.583 482.178 166.118 489.801 164.559C489.306 165.449 489.623 168.593 494.843 174.05C501.367 180.872 508.485 195.998 520.051 191.846C531.617 187.694 537.846 173.457 583.814 167.525C575.115 168.81 553.029 175.474 534.286 191.846C510.857 212.311 489.8 210.828 477.641 210.235C482.386 210.136 492.47 209.049 494.843 205.49C497.808 201.041 496.029 197.778 489.801 190.363C484.905 184.534 470.254 166.773 463.181 158.184H430.776C434.681 157.887 442.49 155.811 442.49 149.879V134.901C442.49 128.969 438.783 122.592 430.776 120.071C422.769 117.55 411.499 117.698 402.898 104.648C406.754 108.059 418.053 114.673 432.407 113.842C450.35 112.804 451.685 105.389 472.89 103.461C494.094 101.534 505.364 100.792 505.364 94.4155C505.364 89.3143 498.74 86.4565 495.429 85.6655ZM198.113 112.214C227.622 112.214 242.303 137.129 242.303 158.632C242.302 180.135 223.322 198.228 212.794 203.122C202.266 208.015 192.478 208.312 180.171 203.122C167.863 197.931 157.335 200.008 152.145 207.868C152.886 204.803 156.445 198.495 164.749 197.783C171.392 197.071 180.665 199.365 184.471 200.601C178.589 198.574 165.757 192.236 161.486 183.101C156.148 171.682 152.144 157.89 157.482 140.243C163.702 119.683 185.806 112.214 198.113 112.214ZM442.64 167.971C449.313 167.971 456.579 174.793 456.579 182.801C456.579 190.809 459.1 200.893 465.328 200.893H434.188C437.005 200.152 442.64 195.495 442.64 182.801C442.64 170.107 434.336 168.268 430.48 167.971H442.64ZM221.541 89.3716C250.842 89.3717 265.384 98.9614 268.992 103.756C266.62 104.399 262.319 107.672 264.099 115.621C266.323 125.556 274.775 124.814 278.186 124.073C281.596 123.331 287.083 119.327 286.638 114.73C287.33 117.35 287.469 123.718 282.486 128.226C276.258 133.861 275.368 140.98 275.368 163.521V198.075H302.505C307.547 198.075 311.699 192.588 315.109 185.766C318.52 178.944 329.048 164.855 330.234 159.813C331.42 154.771 328.01 151.953 315.851 157.737C303.983 163.381 291.127 176.937 289.413 181.721C291.529 175.204 299.943 160.317 317.778 150.174C335.928 139.853 348.77 138.854 352.922 139.645C344.542 143.032 328.574 157.059 324.01 187.355C322.882 194.842 316.8 200.892 309.229 200.892H251.791C254.954 200.002 261.281 196.562 261.281 189.918V131.636C261.281 118.289 245.563 102.866 227.917 98.269C210.271 93.6718 188.473 95.6 171.42 109.095C175.918 102.521 192.24 89.3716 221.541 89.3716ZM199.591 119.779C205.67 114.144 194.253 114.737 189.805 117.258C185.356 119.779 170.676 126.898 171.565 158.633C172.268 183.703 184.269 191.605 189.805 191.259C184.763 192.149 175.955 187.878 169.786 174.353C163.618 160.829 165.931 149.835 167.858 146.028C165.98 148.648 162.876 157.211 165.485 170.498C168.748 187.107 180.018 199.267 194.401 199.416C208.785 199.564 221.39 192.89 225.245 174.353C228.329 159.524 225.739 144.743 224.059 139.207C222.872 141.579 218.482 146.414 210.416 146.77C200.333 147.215 201.519 135.351 206.857 134.906C212.196 134.461 216.941 138.761 212.789 143.952C215.211 142.815 219.906 138.939 219.313 132.533C218.572 124.525 213.975 120.521 206.857 121.262C199.74 122.004 197.367 128.974 198.108 132.533C196.576 130.16 194.728 124.287 199.591 119.779ZM321.198 160.112C322.918 160.112 324.312 161.506 324.312 163.226C324.312 164.946 322.918 166.34 321.198 166.34C319.478 166.34 318.084 164.946 318.084 163.226C318.084 161.506 319.478 160.112 321.198 160.112ZM466.367 117.399C460.436 117.399 456.877 120.959 456.877 127.187V146.762C456.877 152.813 451.835 155.413 449.314 155.957H466.367C475.857 155.956 489.648 152.249 489.648 136.233C489.648 120.217 472.299 117.399 466.367 117.399Z" fill="url(#paint1_linear_3893_4432)"/>
<path d="M640.752 189.625C668.832 181.213 684.153 197.083 687.008 200.374C687.187 200.537 687.34 200.713 687.462 200.896C687.575 201.066 687.424 200.853 687.008 200.374C685.885 199.345 683.746 198.753 681.827 199.264C679.603 199.857 677.972 202.231 680.641 209.942C683.31 217.653 690.576 216.912 692.504 214.243C694.046 212.107 692.652 208.211 691.763 206.531C692.801 207.173 695.113 209.853 696.062 215.429C697.249 222.399 723.346 272.671 724.979 277.27C726.61 281.867 729.724 283.944 731.503 280.83C733.282 277.715 748.407 241.531 751.225 235.747C754.042 229.963 755.674 224.772 760.863 220.027C766.053 215.281 773.171 210.832 763.088 204.159C755.021 198.82 740.945 202.527 734.914 205.048C741.983 199.759 761.872 191.791 784.886 202.231C807.9 212.671 814.938 222.597 815.581 226.255C793.931 207.866 778.51 218.989 775.1 223.141C771.689 227.294 772.43 235.747 783.255 235.747C791.914 235.747 793.091 231.001 792.597 228.628C800.357 227.294 822.669 232.009 849.835 261.55C877.001 291.091 884.781 314.098 885.275 321.909C875.34 295.067 848.501 269.559 829.224 260.068C813.802 252.475 804.806 256.904 802.235 260.068C805.97 246.128 793.635 240.196 786.813 240.196C779.992 240.196 773.172 245.238 773.172 253.097V286.761C773.172 304.705 786.813 302.629 790.669 301.591C793.753 300.761 793.931 297.192 793.635 295.511C847.492 322.087 873.907 377.374 880.382 401.695C842.49 327.816 800.452 317.468 781.437 321.808C780.407 322.373 779.447 322.65 778.51 322.65C779.412 322.33 780.39 322.047 781.437 321.808C783.013 320.944 784.75 319.406 786.813 317.164C790.224 313.456 782.662 303.668 775.1 303.667H749.891C753.301 302.777 758.64 296.846 758.64 291.062V238.712C758.64 233.67 756.712 232.039 754.636 235.747C752.559 239.455 732.838 280.83 730.762 296.846C728.686 312.863 742.921 326.209 746.925 331.4C750.929 336.59 755.674 342.967 757.602 340.743C759.143 338.963 753.992 331.004 751.225 327.248C771.747 349.67 774.408 376.532 773.172 387.161C768.427 360.615 742.328 332.438 726.313 327.248C713.502 323.095 711.188 315.532 711.633 312.269C711.929 316.125 718.751 321.316 722.161 320.871C725.572 320.426 728.982 316.866 723.348 305.448C717.713 294.029 691.763 241.679 689.835 236.636C687.907 231.594 685.831 234.56 685.831 236.636V291.062C685.831 299.722 693.739 303.074 697.693 303.667H670.706C674.413 301.69 681.827 296.401 681.827 291.062V228.628C681.827 219.286 678.268 206.531 666.851 197.485C657.716 190.248 645.645 189.229 640.752 189.625ZM226.729 199.709C224.405 202.231 219.106 208.044 216.496 211.128C213.234 214.984 216.2 216.913 233.697 216.913C251.195 216.913 265.43 227.887 265.431 237.971C265.431 248.055 254.755 255.619 250.454 256.954C246.154 258.288 241.557 258.212 243.484 261.551C245.414 264.892 273.29 297.588 279.37 304.41C284.233 309.866 286.536 310.045 287.08 309.452C280.911 336.146 250.701 358.836 236.366 366.844C245.511 361.555 264.126 345.489 265.431 323.541C266.736 301.592 255.99 286.91 250.454 282.313C256.978 294.532 259.005 307.375 259.203 312.269C249.12 281.868 225.393 261.551 221.39 261.551C217.386 261.551 217.534 265.407 217.534 269.411V288.69C217.534 300.316 230.089 303.421 236.366 303.52C233.401 303.52 230.583 303.965 223.466 303.52C216.348 303.075 204.189 306.634 212.641 308.117C219.402 309.303 226.53 313.06 229.249 314.791C209.379 310.935 193.067 313.159 165.041 335.701C141.625 354.534 131.38 384.343 129.897 397.838C128.563 387.16 139.981 354.09 154.513 335.701C169.045 317.312 187.877 306.486 192.029 302.482C195.351 299.279 197.862 291.953 198.702 288.69C199.592 293.732 197.813 294.326 197.812 298.33C197.813 302.333 201.52 299.368 203.003 296.253C204.486 293.139 203.003 278.16 203.003 253.542C203.003 233.848 185.208 228.232 176.311 227.886C195.054 225.395 202.606 233.572 204.04 237.971C204.04 234.61 201.638 226.878 192.029 222.844C180.018 217.802 163.707 225.217 158.962 233.522C155.166 240.166 160.544 250.823 163.707 255.322C158.072 248.648 139.477 240.552 110.176 261.551C80.8745 282.55 70.0885 318.647 68.3584 334.07C66.2825 307.969 88.0807 271.784 106.765 250.725C121.712 233.878 144.824 222.054 154.513 218.248C148.582 221.214 144.429 225.811 142.057 229.518C139.684 233.225 145.615 235.301 149.471 232.484C153.326 229.666 166.079 217.654 183.132 216.913C200.185 216.171 204.93 213.056 210.12 211.128C214.272 209.586 222.923 202.873 226.729 199.709ZM413.866 215.132C439.52 215.132 457.76 237.378 457.76 259.771C457.76 282.164 439.075 304.854 413.866 304.854C388.659 304.854 458.648 317.311 473.329 316.57C471.006 317.855 464.373 320.782 456.425 322.206C446.49 323.985 453.163 331.103 457.76 334.366C462.357 337.629 510.104 377.67 573.719 377.67C637.333 377.67 647.417 365.509 661.801 343.857C671.093 339.556 695.462 333.951 718.595 345.934C741.727 357.917 751.86 370.403 754.035 375.149C748.845 368.772 734.046 355.128 716.37 351.569C694.276 347.12 666.879 346.972 657.056 354.387C647.232 361.802 637.482 385.678 617.611 389.831C597.741 393.983 558.593 393.538 511.438 369.81C464.284 346.082 461.762 337.332 451.976 335.849C442.189 334.367 445.303 344.747 438.334 347.713C431.365 350.679 424.395 351.569 420.688 347.713C423.109 348.9 428.992 350.323 433.144 346.527C438.334 341.781 442.634 331.845 435.368 323.541C428.102 315.236 414.608 320.574 412.828 329.472C411.405 336.59 414.113 341.139 415.646 342.523C413.718 341.93 409.834 339.23 409.715 333.18C409.567 325.617 410.752 321.019 417.722 317.459C424.691 313.9 406.007 309.006 401.41 305.892C396.812 302.777 369.233 289.727 369.232 259.771C369.232 229.814 390.289 215.133 413.866 215.132ZM235.627 213.946C245.265 203.862 287.673 201.933 291.53 206.975C294.615 211.009 292.222 212.611 290.641 212.908C292.865 210.683 284.542 205.344 281.447 211.276C278.585 216.763 290.641 216.763 298.797 216.763H341.207C348.027 216.763 353.363 212.695 355.775 210.04C356 209.753 356.235 209.472 356.48 209.2C356.284 209.456 356.048 209.739 355.775 210.04C348.19 219.729 352.422 237.11 355.591 244.792C353.614 241.876 348.354 234.114 343.135 226.403C336.61 216.764 321.782 219.285 315.405 219.285C309.029 219.285 308.139 220.767 308.139 226.403V248.945C308.139 255.025 310.363 257.632 314.219 257.632C318.074 257.632 321.781 257.843 327.268 254.135C331.657 251.169 334.435 244.496 335.275 241.53V276.529C334.237 274.255 331.479 268.609 328.751 264.219C325.34 258.732 320.447 259.177 314.219 259.177C307.991 259.177 308.139 261.847 308.139 267.185V293.138C308.139 301.146 314.367 300.85 325.934 300.85C337.5 300.85 342.097 299.218 346.693 293.138C350.371 288.274 356.925 277.864 359.742 273.266C356.381 283.944 352.091 310.519 361.818 331.4C371.546 352.281 393.947 369.562 403.932 375.593C384.21 369.958 356.48 339.408 352.18 331.4C348.74 324.994 343.431 318.745 341.207 316.421C343.728 317.756 346.842 319.09 349.659 313.751C352.476 308.413 348.917 303.075 344.766 303.075H321.781C311.401 303.075 308.731 306.04 302.059 313.751C296.721 319.92 288.961 321.859 285.748 322.057C292.569 319.239 298.203 311.676 299.538 306.041C300.873 300.405 293.459 291.271 286.489 293.138C280.914 294.632 279.718 298.308 279.816 299.959C279.075 295.956 282.041 292.396 286.489 290.617C290.938 288.837 293.458 283.943 293.458 279.049V255.469C293.458 247.61 290.641 247.165 288.417 250.131C286.637 252.504 277.789 256.26 273.588 257.842C284.116 251.119 299.241 231.593 290.641 223.14C280.944 213.61 260.835 209.793 235.627 213.946ZM526.863 203.862C551.775 185.769 627.105 158.926 697.541 182.358C680.735 177.81 637.663 172.006 599.82 185.175C561.979 198.344 558.003 208.458 558.003 212.611C557.904 209.694 555.838 203.713 548.364 203.12C539.022 202.378 533.388 208.311 533.833 212.167C534.278 216.022 538.281 217.06 544.509 217.06H551.627C547.722 218.197 539.912 222.28 539.912 229.517V269.114C539.912 284.537 535.316 299.664 522.118 306.634C511.56 312.21 501.506 312.714 497.799 312.269C503.78 314.049 517.966 316.897 526.863 314.049C537.985 310.49 550.737 293.435 549.848 271.338C550.688 279.347 551.211 298.181 546.585 309.452C540.802 323.54 530.126 336.145 514.704 341.929C499.282 347.713 515.297 356.018 521.08 358.243C525.707 360.022 531.213 361.258 533.388 361.654C528.643 362 515.86 360.971 502.692 354.09C489.525 347.209 483.563 342.128 482.229 340.447C484.749 342.375 491.541 346.022 498.54 345.192C507.289 344.154 524.342 332.883 525.38 326.358C526.418 319.833 520.635 318.35 513.518 317.756C506.4 317.163 493.35 312.566 486.084 310.044C478.818 307.523 463.693 303.223 452.868 305.151C455.438 303.124 464.672 299.901 481.043 303.223C501.506 307.376 506.993 307.969 514.556 303.223C510.7 304.459 500.913 305.981 492.609 302.185C482.229 297.439 474.815 288.541 474.814 273.711V234.856C474.814 223.734 466.807 218.012 457.169 215.429C447.53 212.846 431.96 209.497 427.363 209.497C428.258 209.348 455.539 208.311 466.659 206.828C465.077 207.52 462.092 209.379 462.804 211.277C463.694 213.65 468.736 218.246 484.305 217.208C496.761 216.378 501.457 216.071 502.248 216.022C499.134 216.516 492.431 218.751 490.533 223.734C488.161 229.963 482.525 251.911 485.194 266.741C485.059 261.995 486.115 248.974 491.423 234.856C489.199 246.028 486.085 271.635 491.423 284.685C498.096 300.998 520.932 297.439 526.863 293.138C531.608 289.698 533.388 287.256 533.685 286.465C529.829 289.135 520.131 293.495 512.183 289.58C515.247 289.926 522.177 290.113 525.38 288.096C529.384 285.575 536.798 280.681 536.798 248.352C536.798 216.023 524.046 216.022 515.594 220.323C508.832 223.763 506.251 229.864 505.807 232.484C504.521 228.974 506.934 218.336 526.863 203.862ZM593.297 202.972C592.951 206.531 591.487 214.45 588.403 217.654C584.548 221.658 580.544 222.696 580.544 237.971C580.544 253.246 582.175 256.715 591.369 259.178C588.057 259.87 581.434 262.53 581.434 267.631V292.842C581.434 297.944 588.948 302.482 592.704 304.114C586.872 306.091 574.583 311.825 572.092 318.944C568.978 327.842 567.792 343.117 587.365 346.379C606.939 349.642 643.418 343.117 659.433 318.944C656.664 324.876 646.116 338.964 626.068 347.862C601.008 358.984 568.237 360.912 551.48 354.387C556.77 354.486 567.97 353.854 570.461 350.532C573.575 346.379 570.312 336.147 562.898 333.329C555.485 330.511 550.591 334.96 549.553 338.222C549.454 335.305 551.302 327.93 559.487 321.761C569.719 314.05 576.688 308.266 575.502 305.003C574.553 302.393 560.97 303.323 554.297 304.114C558.498 302.532 566.901 298.062 566.901 292.842V268.521C566.901 262.589 561.86 260.569 556.67 259.178C560.081 258.041 566.901 254.492 566.901 249.39V226.552C566.901 221.807 560.575 217.654 557.411 216.171H575.206C583.807 216.171 592.407 208.608 593.297 202.972ZM624.28 191.551C633.474 193.628 653.819 201.221 661.648 214.983C669.478 228.745 669.458 239.898 668.47 243.753C667.728 240.194 664.733 231.83 658.683 226.847C651.12 220.619 648.006 219.432 640.146 219.432H627.395C624.281 219.432 621.76 221.36 621.76 230.257V249.092C621.76 253.096 622.798 256.655 627.395 256.655H637.181C640.146 256.655 648.206 247.609 649.637 242.27V274.155C648.006 269.706 643.231 260.808 637.181 260.808H627.395C624.281 260.808 621.76 261.698 621.76 270.002V292.989C621.76 298.327 623.835 300.849 630.508 300.849C637.181 300.849 648.896 302.184 654.234 298.921C659.442 295.738 668.883 283.663 669.479 277.016C669.49 276.848 669.5 276.685 669.508 276.528C669.504 276.687 669.494 276.85 669.479 277.016C669.083 283.217 666.683 297.079 659.869 306.781C651.12 319.238 637.181 328.73 629.47 331.547C634.165 329.026 644.359 322.263 647.562 315.382C651.565 306.781 647.264 303.666 642.964 303.518C638.662 303.37 603.372 303.518 598.33 303.518C601.642 301.936 608.266 297.616 608.266 292.989V270.002C608.266 263.774 612.714 258.138 618.497 258.138C615.087 257.397 608.266 254.549 608.266 249.092V230.257C608.265 224.77 602.185 217.504 598.33 216.911C599.516 217.059 632.88 216.911 640.146 216.911C647.412 216.911 648.599 210.385 641.333 202.97C635.52 197.038 627.543 192.886 624.28 191.551ZM414.162 217.209C397.702 217.21 392.512 224.921 388.063 238.565C384.505 249.479 388.954 257.942 391.623 260.809C388.794 261.353 384.122 266.119 388.063 280.83C392.99 299.219 406.155 302.482 414.162 302.482C422.17 302.482 435.935 292.545 439.074 280.83C441.585 271.457 437.451 263.577 435.07 260.809C441.447 257.127 441.298 247.463 439.074 238.565C436.85 229.667 430.325 217.209 414.162 217.209ZM78.2949 98.1226C105.698 86.9704 123.325 89.6205 128.713 92.3394C124.511 91.7462 113.32 91.5385 102.169 95.4536C88.2303 100.347 80.9334 108.207 83.9297 113.398C86.8952 118.44 96.2381 113.398 109.436 112.508C122.633 111.619 127.082 114.584 134.645 114.584C140.695 114.584 149.522 110.135 153.18 107.911C147.1 113.398 140.813 115.534 138.796 124.076C136.779 132.618 139.637 143.157 141.317 147.359C139.785 143.8 135.445 134.546 130.344 126.003C123.967 115.326 110.473 113.398 103.504 117.105C96.5345 120.812 92.976 128.821 96.2383 139.647C98.8481 148.308 106.124 152.252 109.436 153.142C99.2336 146.498 98.6599 135.94 99.6484 131.491C99.6486 150.769 125.005 148.99 133.902 158.481C142.8 167.972 144.727 177.612 140.427 189.328C136.126 201.043 118.184 203.713 109.436 203.417C100.687 203.12 92.679 200.153 86.3027 199.56C79.9265 198.967 76.8126 209.645 83.6338 210.535C89.0907 211.247 95.0027 212.907 97.2764 213.649C94.0635 212.611 83.9004 211.721 68.9531 216.466C50.2692 222.398 39.5931 243.161 31.2891 257.842C24.6458 269.588 21.0071 289.727 20.0186 298.329C20.1668 291.754 21.709 274.274 26.6914 256.953C32.9194 235.301 52.0488 214.984 62.5771 205.493C70.9998 197.9 73.4015 186.312 73.5498 181.467C76.7528 195.585 72.5121 203.762 69.9912 206.085C86.0061 194.577 83.3869 173.706 80.0752 164.709C83.3869 172.273 91.9376 188.913 99.6484 194.963C109.287 202.527 119.667 200.45 124.709 198.078C129.751 195.705 135.979 185.917 130.789 177.019C125.599 168.121 106.618 162.93 95.2002 156.999C83.7823 151.067 82.4471 136.978 83.9297 133.418C85.4124 129.859 83.6338 128.377 81.7061 129.711C80.1639 130.779 78.0971 130.551 77.2568 130.304C78.1465 130.304 86.0059 124.966 82.0029 120.072C77.9992 115.178 69.8427 115.178 66.877 115.771C63.9115 116.364 62.5772 119.775 65.3945 120.813C67.6482 121.643 68.3108 123.136 68.3604 123.779C64.9004 123.383 53.3834 124.995 34.9961 134.605C16.6086 144.215 4.00373 165.402 0 174.794C8.4523 144.393 44.0409 112.063 78.2949 98.1226ZM414.413 239.55C415.5 250.596 424.101 259.412 435.116 260.769C424.102 262.126 415.5 270.941 414.413 281.987L413.951 286.681L413.489 281.987C412.402 270.941 403.801 262.126 392.786 260.769C403.801 259.412 412.402 250.596 413.489 239.55L413.951 234.856L414.413 239.55ZM567.789 258.945L574.08 264.05L580.371 258.945L574.08 253.839L567.789 258.945ZM222.975 219.434C217.531 219.434 217.531 232.484 217.531 239.009C217.531 251.021 217.89 259.326 222.975 259.326C228.059 259.326 250.895 256.805 250.896 239.009C250.895 221.214 234.584 219.434 222.975 219.434ZM396.958 95.1519C396.513 104.94 387.171 112.532 387.171 119.176C387.171 127.481 391.916 140.531 398.44 147.65C404.965 154.768 413.269 157.141 419.497 157.141H398.44C390.73 157.141 383.909 155.362 379.46 143.794C375.901 134.541 373.726 128.866 373.083 127.185C370.117 134.007 363.682 149.015 361.665 154.472C359.144 161.294 357.81 168.116 371.452 168.116H422.463C418.953 168.462 411.845 170.074 411.489 173.751C411.045 178.349 415.493 199.407 428.69 201.484H399.182C388.209 201.484 375.457 204.45 369.229 217.648C364.246 228.207 363.791 240.635 364.187 245.529C362.803 240.684 361.339 227.525 366.559 213.644C371.778 199.763 384.748 190.46 390.581 187.543C388.653 188.829 385.273 192.407 387.171 196.441C389.543 201.483 400.812 199.111 403.037 194.958C405.261 190.806 403.482 179.98 399.182 174.938C401.109 179.941 403.185 191.245 396.067 196.441C397.847 193.129 399.834 184.666 393.547 177.31C385.688 168.116 374.863 170.192 367.597 170.637C360.331 171.082 355.141 172.268 352.175 179.535C349.209 186.801 345.354 192.734 349.209 195.7C352.293 198.073 358.304 200.545 360.924 201.484H330.674C334.084 200.792 341.558 197.805 344.168 191.399C347.43 183.39 364.779 141.57 367.597 133.265C370.414 124.96 367.893 123.032 352.472 123.774C337.448 124.496 324.001 128.816 305.613 143.794C309.568 137.665 323.823 123.685 349.209 116.804C380.942 108.203 391.62 104.94 396.958 95.1519ZM495.429 85.6655C501.163 86.2588 517.761 90.886 538.283 104.648C558.806 118.41 594.78 132.133 610.202 137.274C590.876 132.281 547.774 120.694 520.489 109.542C486.383 95.6014 459.396 113.694 474.817 114.583C489.497 115.473 503.436 123.63 503.437 136.383C503.437 149.137 489.349 158.184 474.817 158.184H466.276C466.307 158.198 466.339 158.213 466.371 158.228C466.419 158.276 466.466 158.324 466.514 158.372C472.744 164.583 482.178 166.118 489.801 164.559C489.306 165.449 489.623 168.593 494.843 174.05C501.367 180.872 508.485 195.998 520.051 191.846C531.617 187.694 537.846 173.457 583.814 167.525C575.115 168.81 553.029 175.474 534.286 191.846C510.857 212.311 489.8 210.828 477.641 210.235C482.386 210.136 492.47 209.049 494.843 205.49C497.808 201.041 496.029 197.778 489.801 190.363C484.905 184.534 470.254 166.773 463.181 158.184H430.776C434.681 157.887 442.49 155.811 442.49 149.879V134.901C442.49 128.969 438.783 122.592 430.776 120.071C422.769 117.55 411.499 117.698 402.898 104.648C406.754 108.059 418.053 114.673 432.407 113.842C450.35 112.804 451.685 105.389 472.89 103.461C494.094 101.534 505.364 100.792 505.364 94.4155C505.364 89.3143 498.74 86.4565 495.429 85.6655ZM198.113 112.214C227.622 112.214 242.303 137.129 242.303 158.632C242.302 180.135 223.322 198.228 212.794 203.122C202.266 208.015 192.478 208.312 180.171 203.122C167.863 197.931 157.335 200.008 152.145 207.868C152.886 204.803 156.445 198.495 164.749 197.783C171.392 197.071 180.665 199.365 184.471 200.601C178.589 198.574 165.757 192.236 161.486 183.101C156.148 171.682 152.144 157.89 157.482 140.243C163.702 119.683 185.806 112.214 198.113 112.214ZM442.64 167.971C449.313 167.971 456.579 174.793 456.579 182.801C456.579 190.809 459.1 200.893 465.328 200.893H434.188C437.005 200.152 442.64 195.495 442.64 182.801C442.64 170.107 434.336 168.268 430.48 167.971H442.64ZM221.541 89.3716C250.842 89.3717 265.384 98.9614 268.992 103.756C266.62 104.399 262.319 107.672 264.099 115.621C266.323 125.556 274.775 124.814 278.186 124.073C281.596 123.331 287.083 119.327 286.638 114.73C287.33 117.35 287.469 123.718 282.486 128.226C276.258 133.861 275.368 140.98 275.368 163.521V198.075H302.505C307.547 198.075 311.699 192.588 315.109 185.766C318.52 178.944 329.048 164.855 330.234 159.813C331.42 154.771 328.01 151.953 315.851 157.737C303.983 163.381 291.127 176.937 289.413 181.721C291.529 175.204 299.943 160.317 317.778 150.174C335.928 139.853 348.77 138.854 352.922 139.645C344.542 143.032 328.574 157.059 324.01 187.355C322.882 194.842 316.8 200.892 309.229 200.892H251.791C254.954 200.002 261.281 196.562 261.281 189.918V131.636C261.281 118.289 245.563 102.866 227.917 98.269C210.271 93.6718 188.473 95.6 171.42 109.095C175.918 102.521 192.24 89.3716 221.541 89.3716ZM199.591 119.779C205.67 114.144 194.253 114.737 189.805 117.258C185.356 119.779 170.676 126.898 171.565 158.633C172.268 183.703 184.269 191.605 189.805 191.259C184.763 192.149 175.955 187.878 169.786 174.353C163.618 160.829 165.931 149.835 167.858 146.028C165.98 148.648 162.876 157.211 165.485 170.498C168.748 187.107 180.018 199.267 194.401 199.416C208.785 199.564 221.39 192.89 225.245 174.353C228.329 159.524 225.739 144.743 224.059 139.207C222.872 141.579 218.482 146.414 210.416 146.77C200.333 147.215 201.519 135.351 206.857 134.906C212.196 134.461 216.941 138.761 212.789 143.952C215.211 142.815 219.906 138.939 219.313 132.533C218.572 124.525 213.975 120.521 206.857 121.262C199.74 122.004 197.367 128.974 198.108 132.533C196.576 130.16 194.728 124.287 199.591 119.779ZM321.198 160.112C322.918 160.112 324.312 161.506 324.312 163.226C324.312 164.946 322.918 166.34 321.198 166.34C319.478 166.34 318.084 164.946 318.084 163.226C318.084 161.506 319.478 160.112 321.198 160.112ZM466.367 117.399C460.436 117.399 456.877 120.959 456.877 127.187V146.762C456.877 152.813 451.835 155.413 449.314 155.957H466.367C475.857 155.956 489.648 152.249 489.648 136.233C489.648 120.217 472.299 117.399 466.367 117.399Z" fill="#D778A1" style="mix-blend-mode:overlay"/>
<path d="M640.752 189.625C668.832 181.213 684.153 197.083 687.008 200.374C687.187 200.537 687.34 200.713 687.462 200.896C687.575 201.066 687.424 200.853 687.008 200.374C685.885 199.345 683.746 198.753 681.827 199.264C679.603 199.857 677.972 202.231 680.641 209.942C683.31 217.653 690.576 216.912 692.504 214.243C694.046 212.107 692.652 208.211 691.763 206.531C692.801 207.173 695.113 209.853 696.062 215.429C697.249 222.399 723.346 272.671 724.979 277.27C726.61 281.867 729.724 283.944 731.503 280.83C733.282 277.715 748.407 241.531 751.225 235.747C754.042 229.963 755.674 224.772 760.863 220.027C766.053 215.281 773.171 210.832 763.088 204.159C755.021 198.82 740.945 202.527 734.914 205.048C741.983 199.759 761.872 191.791 784.886 202.231C807.9 212.671 814.938 222.597 815.581 226.255C793.931 207.866 778.51 218.989 775.1 223.141C771.689 227.294 772.43 235.747 783.255 235.747C791.914 235.747 793.091 231.001 792.597 228.628C800.357 227.294 822.669 232.009 849.835 261.55C877.001 291.091 884.781 314.098 885.275 321.909C875.34 295.067 848.501 269.559 829.224 260.068C813.802 252.475 804.806 256.904 802.235 260.068C805.97 246.128 793.635 240.196 786.813 240.196C779.992 240.196 773.172 245.238 773.172 253.097V286.761C773.172 304.705 786.813 302.629 790.669 301.591C793.753 300.761 793.931 297.192 793.635 295.511C847.492 322.087 873.907 377.374 880.382 401.695C842.49 327.816 800.452 317.468 781.437 321.808C780.407 322.373 779.447 322.65 778.51 322.65C779.412 322.33 780.39 322.047 781.437 321.808C783.013 320.944 784.75 319.406 786.813 317.164C790.224 313.456 782.662 303.668 775.1 303.667H749.891C753.301 302.777 758.64 296.846 758.64 291.062V238.712C758.64 233.67 756.712 232.039 754.636 235.747C752.559 239.455 732.838 280.83 730.762 296.846C728.686 312.863 742.921 326.209 746.925 331.4C750.929 336.59 755.674 342.967 757.602 340.743C759.143 338.963 753.992 331.004 751.225 327.248C771.747 349.67 774.408 376.532 773.172 387.161C768.427 360.615 742.328 332.438 726.313 327.248C713.502 323.095 711.188 315.532 711.633 312.269C711.929 316.125 718.751 321.316 722.161 320.871C725.572 320.426 728.982 316.866 723.348 305.448C717.713 294.029 691.763 241.679 689.835 236.636C687.907 231.594 685.831 234.56 685.831 236.636V291.062C685.831 299.722 693.739 303.074 697.693 303.667H670.706C674.413 301.69 681.827 296.401 681.827 291.062V228.628C681.827 219.286 678.268 206.531 666.851 197.485C657.716 190.248 645.645 189.229 640.752 189.625ZM226.729 199.709C224.405 202.231 219.106 208.044 216.496 211.128C213.234 214.984 216.2 216.913 233.697 216.913C251.195 216.913 265.43 227.887 265.431 237.971C265.431 248.055 254.755 255.619 250.454 256.954C246.154 258.288 241.557 258.212 243.484 261.551C245.414 264.892 273.29 297.588 279.37 304.41C284.233 309.866 286.536 310.045 287.08 309.452C280.911 336.146 250.701 358.836 236.366 366.844C245.511 361.555 264.126 345.489 265.431 323.541C266.736 301.592 255.99 286.91 250.454 282.313C256.978 294.532 259.005 307.375 259.203 312.269C249.12 281.868 225.393 261.551 221.39 261.551C217.386 261.551 217.534 265.407 217.534 269.411V288.69C217.534 300.316 230.089 303.421 236.366 303.52C233.401 303.52 230.583 303.965 223.466 303.52C216.348 303.075 204.189 306.634 212.641 308.117C219.402 309.303 226.53 313.06 229.249 314.791C209.379 310.935 193.067 313.159 165.041 335.701C141.625 354.534 131.38 384.343 129.897 397.838C128.563 387.16 139.981 354.09 154.513 335.701C169.045 317.312 187.877 306.486 192.029 302.482C195.351 299.279 197.862 291.953 198.702 288.69C199.592 293.732 197.813 294.326 197.812 298.33C197.813 302.333 201.52 299.368 203.003 296.253C204.486 293.139 203.003 278.16 203.003 253.542C203.003 233.848 185.208 228.232 176.311 227.886C195.054 225.395 202.606 233.572 204.04 237.971C204.04 234.61 201.638 226.878 192.029 222.844C180.018 217.802 163.707 225.217 158.962 233.522C155.166 240.166 160.544 250.823 163.707 255.322C158.072 248.648 139.477 240.552 110.176 261.551C80.8745 282.55 70.0885 318.647 68.3584 334.07C66.2825 307.969 88.0807 271.784 106.765 250.725C121.712 233.878 144.824 222.054 154.513 218.248C148.582 221.214 144.429 225.811 142.057 229.518C139.684 233.225 145.615 235.301 149.471 232.484C153.326 229.666 166.079 217.654 183.132 216.913C200.185 216.171 204.93 213.056 210.12 211.128C214.272 209.586 222.923 202.873 226.729 199.709ZM413.866 215.132C439.52 215.132 457.76 237.378 457.76 259.771C457.76 282.164 439.075 304.854 413.866 304.854C388.659 304.854 458.648 317.311 473.329 316.57C471.006 317.855 464.373 320.782 456.425 322.206C446.49 323.985 453.163 331.103 457.76 334.366C462.357 337.629 510.104 377.67 573.719 377.67C637.333 377.67 647.417 365.509 661.801 343.857C671.093 339.556 695.462 333.951 718.595 345.934C741.727 357.917 751.86 370.403 754.035 375.149C748.845 368.772 734.046 355.128 716.37 351.569C694.276 347.12 666.879 346.972 657.056 354.387C647.232 361.802 637.482 385.678 617.611 389.831C597.741 393.983 558.593 393.538 511.438 369.81C464.284 346.082 461.762 337.332 451.976 335.849C442.189 334.367 445.303 344.747 438.334 347.713C431.365 350.679 424.395 351.569 420.688 347.713C423.109 348.9 428.992 350.323 433.144 346.527C438.334 341.781 442.634 331.845 435.368 323.541C428.102 315.236 414.608 320.574 412.828 329.472C411.405 336.59 414.113 341.139 415.646 342.523C413.718 341.93 409.834 339.23 409.715 333.18C409.567 325.617 410.752 321.019 417.722 317.459C424.691 313.9 406.007 309.006 401.41 305.892C396.812 302.777 369.233 289.727 369.232 259.771C369.232 229.814 390.289 215.133 413.866 215.132ZM235.627 213.946C245.265 203.862 287.673 201.933 291.53 206.975C294.615 211.009 292.222 212.611 290.641 212.908C292.865 210.683 284.542 205.344 281.447 211.276C278.585 216.763 290.641 216.763 298.797 216.763H341.207C348.027 216.763 353.363 212.695 355.775 210.04C356 209.753 356.235 209.472 356.48 209.2C356.284 209.456 356.048 209.739 355.775 210.04C348.19 219.729 352.422 237.11 355.591 244.792C353.614 241.876 348.354 234.114 343.135 226.403C336.61 216.764 321.782 219.285 315.405 219.285C309.029 219.285 308.139 220.767 308.139 226.403V248.945C308.139 255.025 310.363 257.632 314.219 257.632C318.074 257.632 321.781 257.843 327.268 254.135C331.657 251.169 334.435 244.496 335.275 241.53V276.529C334.237 274.255 331.479 268.609 328.751 264.219C325.34 258.732 320.447 259.177 314.219 259.177C307.991 259.177 308.139 261.847 308.139 267.185V293.138C308.139 301.146 314.367 300.85 325.934 300.85C337.5 300.85 342.097 299.218 346.693 293.138C350.371 288.274 356.925 277.864 359.742 273.266C356.381 283.944 352.091 310.519 361.818 331.4C371.546 352.281 393.947 369.562 403.932 375.593C384.21 369.958 356.48 339.408 352.18 331.4C348.74 324.994 343.431 318.745 341.207 316.421C343.728 317.756 346.842 319.09 349.659 313.751C352.476 308.413 348.917 303.075 344.766 303.075H321.781C311.401 303.075 308.731 306.04 302.059 313.751C296.721 319.92 288.961 321.859 285.748 322.057C292.569 319.239 298.203 311.676 299.538 306.041C300.873 300.405 293.459 291.271 286.489 293.138C280.914 294.632 279.718 298.308 279.816 299.959C279.075 295.956 282.041 292.396 286.489 290.617C290.938 288.837 293.458 283.943 293.458 279.049V255.469C293.458 247.61 290.641 247.165 288.417 250.131C286.637 252.504 277.789 256.26 273.588 257.842C284.116 251.119 299.241 231.593 290.641 223.14C280.944 213.61 260.835 209.793 235.627 213.946ZM526.863 203.862C551.775 185.769 627.105 158.926 697.541 182.358C680.735 177.81 637.663 172.006 599.82 185.175C561.979 198.344 558.003 208.458 558.003 212.611C557.904 209.694 555.838 203.713 548.364 203.12C539.022 202.378 533.388 208.311 533.833 212.167C534.278 216.022 538.281 217.06 544.509 217.06H551.627C547.722 218.197 539.912 222.28 539.912 229.517V269.114C539.912 284.537 535.316 299.664 522.118 306.634C511.56 312.21 501.506 312.714 497.799 312.269C503.78 314.049 517.966 316.897 526.863 314.049C537.985 310.49 550.737 293.435 549.848 271.338C550.688 279.347 551.211 298.181 546.585 309.452C540.802 323.54 530.126 336.145 514.704 341.929C499.282 347.713 515.297 356.018 521.08 358.243C525.707 360.022 531.213 361.258 533.388 361.654C528.643 362 515.86 360.971 502.692 354.09C489.525 347.209 483.563 342.128 482.229 340.447C484.749 342.375 491.541 346.022 498.54 345.192C507.289 344.154 524.342 332.883 525.38 326.358C526.418 319.833 520.635 318.35 513.518 317.756C506.4 317.163 493.35 312.566 486.084 310.044C478.818 307.523 463.693 303.223 452.868 305.151C455.438 303.124 464.672 299.901 481.043 303.223C501.506 307.376 506.993 307.969 514.556 303.223C510.7 304.459 500.913 305.981 492.609 302.185C482.229 297.439 474.815 288.541 474.814 273.711V234.856C474.814 223.734 466.807 218.012 457.169 215.429C447.53 212.846 431.96 209.497 427.363 209.497C428.258 209.348 455.539 208.311 466.659 206.828C465.077 207.52 462.092 209.379 462.804 211.277C463.694 213.65 468.736 218.246 484.305 217.208C496.761 216.378 501.457 216.071 502.248 216.022C499.134 216.516 492.431 218.751 490.533 223.734C488.161 229.963 482.525 251.911 485.194 266.741C485.059 261.995 486.115 248.974 491.423 234.856C489.199 246.028 486.085 271.635 491.423 284.685C498.096 300.998 520.932 297.439 526.863 293.138C531.608 289.698 533.388 287.256 533.685 286.465C529.829 289.135 520.131 293.495 512.183 289.58C515.247 289.926 522.177 290.113 525.38 288.096C529.384 285.575 536.798 280.681 536.798 248.352C536.798 216.023 524.046 216.022 515.594 220.323C508.832 223.763 506.251 229.864 505.807 232.484C504.521 228.974 506.934 218.336 526.863 203.862ZM593.297 202.972C592.951 206.531 591.487 214.45 588.403 217.654C584.548 221.658 580.544 222.696 580.544 237.971C580.544 253.246 582.175 256.715 591.369 259.178C588.057 259.87 581.434 262.53 581.434 267.631V292.842C581.434 297.944 588.948 302.482 592.704 304.114C586.872 306.091 574.583 311.825 572.092 318.944C568.978 327.842 567.792 343.117 587.365 346.379C606.939 349.642 643.418 343.117 659.433 318.944C656.664 324.876 646.116 338.964 626.068 347.862C601.008 358.984 568.237 360.912 551.48 354.387C556.77 354.486 567.97 353.854 570.461 350.532C573.575 346.379 570.312 336.147 562.898 333.329C555.485 330.511 550.591 334.96 549.553 338.222C549.454 335.305 551.302 327.93 559.487 321.761C569.719 314.05 576.688 308.266 575.502 305.003C574.553 302.393 560.97 303.323 554.297 304.114C558.498 302.532 566.901 298.062 566.901 292.842V268.521C566.901 262.589 561.86 260.569 556.67 259.178C560.081 258.041 566.901 254.492 566.901 249.39V226.552C566.901 221.807 560.575 217.654 557.411 216.171H575.206C583.807 216.171 592.407 208.608 593.297 202.972ZM624.28 191.551C633.474 193.628 653.819 201.221 661.648 214.983C669.478 228.745 669.458 239.898 668.47 243.753C667.728 240.194 664.733 231.83 658.683 226.847C651.12 220.619 648.006 219.432 640.146 219.432H627.395C624.281 219.432 621.76 221.36 621.76 230.257V249.092C621.76 253.096 622.798 256.655 627.395 256.655H637.181C640.146 256.655 648.206 247.609 649.637 242.27V274.155C648.006 269.706 643.231 260.808 637.181 260.808H627.395C624.281 260.808 621.76 261.698 621.76 270.002V292.989C621.76 298.327 623.835 300.849 630.508 300.849C637.181 300.849 648.896 302.184 654.234 298.921C659.442 295.738 668.883 283.663 669.479 277.016C669.49 276.848 669.5 276.685 669.508 276.528C669.504 276.687 669.494 276.85 669.479 277.016C669.083 283.217 666.683 297.079 659.869 306.781C651.12 319.238 637.181 328.73 629.47 331.547C634.165 329.026 644.359 322.263 647.562 315.382C651.565 306.781 647.264 303.666 642.964 303.518C638.662 303.37 603.372 303.518 598.33 303.518C601.642 301.936 608.266 297.616 608.266 292.989V270.002C608.266 263.774 612.714 258.138 618.497 258.138C615.087 257.397 608.266 254.549 608.266 249.092V230.257C608.265 224.77 602.185 217.504 598.33 216.911C599.516 217.059 632.88 216.911 640.146 216.911C647.412 216.911 648.599 210.385 641.333 202.97C635.52 197.038 627.543 192.886 624.28 191.551ZM414.162 217.209C397.702 217.21 392.512 224.921 388.063 238.565C384.505 249.479 388.954 257.942 391.623 260.809C388.794 261.353 384.122 266.119 388.063 280.83C392.99 299.219 406.155 302.482 414.162 302.482C422.17 302.482 435.935 292.545 439.074 280.83C441.585 271.457 437.451 263.577 435.07 260.809C441.447 257.127 441.298 247.463 439.074 238.565C436.85 229.667 430.325 217.209 414.162 217.209ZM78.2949 98.1226C105.698 86.9704 123.325 89.6205 128.713 92.3394C124.511 91.7462 113.32 91.5385 102.169 95.4536C88.2303 100.347 80.9334 108.207 83.9297 113.398C86.8952 118.44 96.2381 113.398 109.436 112.508C122.633 111.619 127.082 114.584 134.645 114.584C140.695 114.584 149.522 110.135 153.18 107.911C147.1 113.398 140.813 115.534 138.796 124.076C136.779 132.618 139.637 143.157 141.317 147.359C139.785 143.8 135.445 134.546 130.344 126.003C123.967 115.326 110.473 113.398 103.504 117.105C96.5345 120.812 92.976 128.821 96.2383 139.647C98.8481 148.308 106.124 152.252 109.436 153.142C99.2336 146.498 98.6599 135.94 99.6484 131.491C99.6486 150.769 125.005 148.99 133.902 158.481C142.8 167.972 144.727 177.612 140.427 189.328C136.126 201.043 118.184 203.713 109.436 203.417C100.687 203.12 92.679 200.153 86.3027 199.56C79.9265 198.967 76.8126 209.645 83.6338 210.535C89.0907 211.247 95.0027 212.907 97.2764 213.649C94.0635 212.611 83.9004 211.721 68.9531 216.466C50.2692 222.398 39.5931 243.161 31.2891 257.842C24.6458 269.588 21.0071 289.727 20.0186 298.329C20.1668 291.754 21.709 274.274 26.6914 256.953C32.9194 235.301 52.0488 214.984 62.5771 205.493C70.9998 197.9 73.4015 186.312 73.5498 181.467C76.7528 195.585 72.5121 203.762 69.9912 206.085C86.0061 194.577 83.3869 173.706 80.0752 164.709C83.3869 172.273 91.9376 188.913 99.6484 194.963C109.287 202.527 119.667 200.45 124.709 198.078C129.751 195.705 135.979 185.917 130.789 177.019C125.599 168.121 106.618 162.93 95.2002 156.999C83.7823 151.067 82.4471 136.978 83.9297 133.418C85.4124 129.859 83.6338 128.377 81.7061 129.711C80.1639 130.779 78.0971 130.551 77.2568 130.304C78.1465 130.304 86.0059 124.966 82.0029 120.072C77.9992 115.178 69.8427 115.178 66.877 115.771C63.9115 116.364 62.5772 119.775 65.3945 120.813C67.6482 121.643 68.3108 123.136 68.3604 123.779C64.9004 123.383 53.3834 124.995 34.9961 134.605C16.6086 144.215 4.00373 165.402 0 174.794C8.4523 144.393 44.0409 112.063 78.2949 98.1226ZM414.413 239.55C415.5 250.596 424.101 259.412 435.116 260.769C424.102 262.126 415.5 270.941 414.413 281.987L413.951 286.681L413.489 281.987C412.402 270.941 403.801 262.126 392.786 260.769C403.801 259.412 412.402 250.596 413.489 239.55L413.951 234.856L414.413 239.55ZM567.789 258.945L574.08 264.05L580.371 258.945L574.08 253.839L567.789 258.945ZM222.975 219.434C217.531 219.434 217.531 232.484 217.531 239.009C217.531 251.021 217.89 259.326 222.975 259.326C228.059 259.326 250.895 256.805 250.896 239.009C250.895 221.214 234.584 219.434 222.975 219.434ZM396.958 95.1519C396.513 104.94 387.171 112.532 387.171 119.176C387.171 127.481 391.916 140.531 398.44 147.65C404.965 154.768 413.269 157.141 419.497 157.141H398.44C390.73 157.141 383.909 155.362 379.46 143.794C375.901 134.541 373.726 128.866 373.083 127.185C370.117 134.007 363.682 149.015 361.665 154.472C359.144 161.294 357.81 168.116 371.452 168.116H422.463C418.953 168.462 411.845 170.074 411.489 173.751C411.045 178.349 415.493 199.407 428.69 201.484H399.182C388.209 201.484 375.457 204.45 369.229 217.648C364.246 228.207 363.791 240.635 364.187 245.529C362.803 240.684 361.339 227.525 366.559 213.644C371.778 199.763 384.748 190.46 390.581 187.543C388.653 188.829 385.273 192.407 387.171 196.441C389.543 201.483 400.812 199.111 403.037 194.958C405.261 190.806 403.482 179.98 399.182 174.938C401.109 179.941 403.185 191.245 396.067 196.441C397.847 193.129 399.834 184.666 393.547 177.31C385.688 168.116 374.863 170.192 367.597 170.637C360.331 171.082 355.141 172.268 352.175 179.535C349.209 186.801 345.354 192.734 349.209 195.7C352.293 198.073 358.304 200.545 360.924 201.484H330.674C334.084 200.792 341.558 197.805 344.168 191.399C347.43 183.39 364.779 141.57 367.597 133.265C370.414 124.96 367.893 123.032 352.472 123.774C337.448 124.496 324.001 128.816 305.613 143.794C309.568 137.665 323.823 123.685 349.209 116.804C380.942 108.203 391.62 104.94 396.958 95.1519ZM495.429 85.6655C501.163 86.2588 517.761 90.886 538.283 104.648C558.806 118.41 594.78 132.133 610.202 137.274C590.876 132.281 547.774 120.694 520.489 109.542C486.383 95.6014 459.396 113.694 474.817 114.583C489.497 115.473 503.436 123.63 503.437 136.383C503.437 149.137 489.349 158.184 474.817 158.184H466.276C466.307 158.198 466.339 158.213 466.371 158.228C466.419 158.276 466.466 158.324 466.514 158.372C472.744 164.583 482.178 166.118 489.801 164.559C489.306 165.449 489.623 168.593 494.843 174.05C501.367 180.872 508.485 195.998 520.051 191.846C531.617 187.694 537.846 173.457 583.814 167.525C575.115 168.81 553.029 175.474 534.286 191.846C510.857 212.311 489.8 210.828 477.641 210.235C482.386 210.136 492.47 209.049 494.843 205.49C497.808 201.041 496.029 197.778 489.801 190.363C484.905 184.534 470.254 166.773 463.181 158.184H430.776C434.681 157.887 442.49 155.811 442.49 149.879V134.901C442.49 128.969 438.783 122.592 430.776 120.071C422.769 117.55 411.499 117.698 402.898 104.648C406.754 108.059 418.053 114.673 432.407 113.842C450.35 112.804 451.685 105.389 472.89 103.461C494.094 101.534 505.364 100.792 505.364 94.4155C505.364 89.3143 498.74 86.4565 495.429 85.6655ZM198.113 112.214C227.622 112.214 242.303 137.129 242.303 158.632C242.302 180.135 223.322 198.228 212.794 203.122C202.266 208.015 192.478 208.312 180.171 203.122C167.863 197.931 157.335 200.008 152.145 207.868C152.886 204.803 156.445 198.495 164.749 197.783C171.392 197.071 180.665 199.365 184.471 200.601C178.589 198.574 165.757 192.236 161.486 183.101C156.148 171.682 152.144 157.89 157.482 140.243C163.702 119.683 185.806 112.214 198.113 112.214ZM442.64 167.971C449.313 167.971 456.579 174.793 456.579 182.801C456.579 190.809 459.1 200.893 465.328 200.893H434.188C437.005 200.152 442.64 195.495 442.64 182.801C442.64 170.107 434.336 168.268 430.48 167.971H442.64ZM221.541 89.3716C250.842 89.3717 265.384 98.9614 268.992 103.756C266.62 104.399 262.319 107.672 264.099 115.621C266.323 125.556 274.775 124.814 278.186 124.073C281.596 123.331 287.083 119.327 286.638 114.73C287.33 117.35 287.469 123.718 282.486 128.226C276.258 133.861 275.368 140.98 275.368 163.521V198.075H302.505C307.547 198.075 311.699 192.588 315.109 185.766C318.52 178.944 329.048 164.855 330.234 159.813C331.42 154.771 328.01 151.953 315.851 157.737C303.983 163.381 291.127 176.937 289.413 181.721C291.529 175.204 299.943 160.317 317.778 150.174C335.928 139.853 348.77 138.854 352.922 139.645C344.542 143.032 328.574 157.059 324.01 187.355C322.882 194.842 316.8 200.892 309.229 200.892H251.791C254.954 200.002 261.281 196.562 261.281 189.918V131.636C261.281 118.289 245.563 102.866 227.917 98.269C210.271 93.6718 188.473 95.6 171.42 109.095C175.918 102.521 192.24 89.3716 221.541 89.3716ZM199.591 119.779C205.67 114.144 194.253 114.737 189.805 117.258C185.356 119.779 170.676 126.898 171.565 158.633C172.268 183.703 184.269 191.605 189.805 191.259C184.763 192.149 175.955 187.878 169.786 174.353C163.618 160.829 165.931 149.835 167.858 146.028C165.98 148.648 162.876 157.211 165.485 170.498C168.748 187.107 180.018 199.267 194.401 199.416C208.785 199.564 221.39 192.89 225.245 174.353C228.329 159.524 225.739 144.743 224.059 139.207C222.872 141.579 218.482 146.414 210.416 146.77C200.333 147.215 201.519 135.351 206.857 134.906C212.196 134.461 216.941 138.761 212.789 143.952C215.211 142.815 219.906 138.939 219.313 132.533C218.572 124.525 213.975 120.521 206.857 121.262C199.74 122.004 197.367 128.974 198.108 132.533C196.576 130.16 194.728 124.287 199.591 119.779ZM321.198 160.112C322.918 160.112 324.312 161.506 324.312 163.226C324.312 164.946 322.918 166.34 321.198 166.34C319.478 166.34 318.084 164.946 318.084 163.226C318.084 161.506 319.478 160.112 321.198 160.112ZM466.367 117.399C460.436 117.399 456.877 120.959 456.877 127.187V146.762C456.877 152.813 451.835 155.413 449.314 155.957H466.367C475.857 155.956 489.648 152.249 489.648 136.233C489.648 120.217 472.299 117.399 466.367 117.399Z" fill="white" fill-opacity="0.5" style="mix-blend-mode:overlay"/>
</g>
<defs>
<filter id="filter0_f_3893_4432" x="573.302" y="0.000144958" width="154.396" height="154.396" filterUnits="userSpaceOnUse" color-interpolation-filters="sRGB">
<feFlood flood-opacity="0" result="BackgroundImageFix"/>
<feBlend mode="normal" in="SourceGraphic" in2="BackgroundImageFix" result="shape"/>
<feGaussianBlur stdDeviation="17.349" result="effect1_foregroundBlur_3893_4432"/>
</filter>
<filter id="filter1_ii_3893_4432" x="460.694" y="26.4055" width="233.137" height="247.037" filterUnits="userSpaceOnUse" color-interpolation-filters="sRGB">
<feFlood flood-opacity="0" result="BackgroundImageFix"/>
<feBlend mode="normal" in="SourceGraphic" in2="BackgroundImageFix" result="shape"/>
<feColorMatrix in="SourceAlpha" type="matrix" values="0 0 0 0 0 0 0 0 0 0 0 0 0 0 0 0 0 0 127 0" result="hardAlpha"/>
<feMorphology radius="10.4094" operator="dilate" in="SourceAlpha" result="effect1_innerShadow_3893_4432"/>
<feOffset dx="15.6141" dy="29.4934"/>
<feGaussianBlur stdDeviation="36.433"/>
<feComposite in2="hardAlpha" operator="arithmetic" k2="-1" k3="1"/>
<feColorMatrix type="matrix" values="0 0 0 0 0.711116 0 0 0 0 0.174617 0 0 0 0 1 0 0 0 1 0"/>
<feBlend mode="normal" in2="shape" result="effect1_innerShadow_3893_4432"/>
<feColorMatrix in="SourceAlpha" type="matrix" values="0 0 0 0 0 0 0 0 0 0 0 0 0 0 0 0 0 0 127 0" result="hardAlpha"/>
<feOffset dx="-12.1443" dy="-12.1443"/>
<feGaussianBlur stdDeviation="27.7585"/>
<feComposite in2="hardAlpha" operator="arithmetic" k2="-1" k3="1"/>
<feColorMatrix type="matrix" values="0 0 0 0 0.504733 0 0 0 0 0 0 0 0 0 0.294427 0 0 0 0.85 0"/>
<feBlend mode="normal" in2="effect1_innerShadow_3893_4432" result="effect2_innerShadow_3893_4432"/>
</filter>
<filter id="filter2_f_3893_4432" x="458.428" y="75.8315" width="197.776" height="187.372" filterUnits="userSpaceOnUse" color-interpolation-filters="sRGB">
<feFlood flood-opacity="0" result="BackgroundImageFix"/>
<feBlend mode="normal" in="SourceGraphic" in2="BackgroundImageFix" result="shape"/>
<feGaussianBlur stdDeviation="31.2283" result="effect1_foregroundBlur_3893_4432"/>
</filter>
<filter id="filter3_f_3893_4432" x="601.067" y="27.4184" width="99.4728" height="99.4777" filterUnits="userSpaceOnUse" color-interpolation-filters="sRGB">
<feFlood flood-opacity="0" result="BackgroundImageFix"/>
<feBlend mode="normal" in="SourceGraphic" in2="BackgroundImageFix" result="shape"/>
<feGaussianBlur stdDeviation="11.2769" result="effect1_foregroundBlur_3893_4432"/>
</filter>
<filter id="filter4_df_3893_4432" x="615.903" y="27.4911" width="84.5643" height="84.5667" filterUnits="userSpaceOnUse" color-interpolation-filters="sRGB">
<feFlood flood-opacity="0" result="BackgroundImageFix"/>
<feColorMatrix in="SourceAlpha" type="matrix" values="0 0 0 0 0 0 0 0 0 0 0 0 0 0 0 0 0 0 127 0" result="hardAlpha"/>
<feOffset dx="7.38258" dy="-7.38258"/>
<feGaussianBlur stdDeviation="16.6108"/>
<feComposite in2="hardAlpha" operator="out"/>
<feColorMatrix type="matrix" values="0 0 0 0 0.962064 0 0 0 0 0.0881338 0 0 0 0 0.102699 0 0 0 0.5 0"/>
<feBlend mode="normal" in2="BackgroundImageFix" result="effect1_dropShadow_3893_4432"/>
<feBlend mode="normal" in="SourceGraphic" in2="effect1_dropShadow_3893_4432" result="shape"/>
<feGaussianBlur stdDeviation="3.46981" result="effect2_foregroundBlur_3893_4432"/>
</filter>
<filter id="filter5_ii_3893_4432" x="-0.777959" y="84.8876" width="887.609" height="318.363" filterUnits="userSpaceOnUse" color-interpolation-filters="sRGB">
<feFlood flood-opacity="0" result="BackgroundImageFix"/>
<feBlend mode="normal" in="SourceGraphic" in2="BackgroundImageFix" result="shape"/>
<feColorMatrix in="SourceAlpha" type="matrix" values="0 0 0 0 0 0 0 0 0 0 0 0 0 0 0 0 0 0 127 0" result="hardAlpha"/>
<feOffset dx="-0.777959" dy="-0.777959"/>
<feGaussianBlur stdDeviation="0.777959"/>
<feComposite in2="hardAlpha" operator="arithmetic" k2="-1" k3="1"/>
<feColorMatrix type="matrix" values="0 0 0 0 0 0 0 0 0 0 0 0 0 0 0 0 0 0 1 0"/>
<feBlend mode="normal" in2="shape" result="effect1_innerShadow_3893_4432"/>
<feColorMatrix in="SourceAlpha" type="matrix" values="0 0 0 0 0 0 0 0 0 0 0 0 0 0 0 0 0 0 127 0" result="hardAlpha"/>
<feOffset dx="1.55592" dy="1.55592"/>
<feGaussianBlur stdDeviation="0.777959"/>
<feComposite in2="hardAlpha" operator="arithmetic" k2="-1" k3="1"/>
<feColorMatrix type="matrix" values="0 0 0 0 1 0 0 0 0 1 0 0 0 0 1 0 0 0 1 0"/>
<feBlend mode="normal" in2="effect1_innerShadow_3893_4432" result="effect2_innerShadow_3893_4432"/>
</filter>
<linearGradient id="paint0_linear_3893_4432" x1="503.407" y1="214.406" x2="654.349" y2="78.2244" gradientUnits="userSpaceOnUse">
<stop stop-color="#FFE031" stop-opacity="0"/>
<stop offset="1" stop-color="white"/>
</linearGradient>
<linearGradient id="paint1_linear_3893_4432" x1="413.077" y1="85.6655" x2="413.077" y2="401.532" gradientUnits="userSpaceOnUse">
<stop stop-color="#626262"/>
<stop offset="0.153846" stop-color="white"/>
<stop offset="0.177885" stop-color="#323232"/>
<stop offset="0.293269" stop-color="white"/>
<stop offset="0.480769" stop-color="#464646"/>
<stop offset="0.596154" stop-color="white"/>
<stop offset="0.620192" stop-color="#303030"/>
<stop offset="1" stop-color="white"/>
</linearGradient>
</defs>
</svg>
